<svg width="606" height="606" viewBox="0 0 606 606" fill="none" xmlns="http://www.w3.org/2000/svg">
<path d="M320.367 341.433V344.531H315.183V349.581H319.64V352.678H315.183V358.536H320.367V361.633H312.085V341.433H320.367Z" fill="white"/>
<path d="M324.171 361.633V341.433H329.153C330.617 341.433 331.779 341.878 332.641 342.767C333.503 343.646 333.934 344.818 333.934 346.281V349.338C333.934 350.29 333.746 351.125 333.368 351.843C332.991 352.561 332.453 353.131 331.752 353.553L331.537 352.57C332.3 352.849 332.888 353.271 333.301 353.836C333.723 354.402 333.934 355.08 333.934 355.87V361.633H330.837V355.87C330.837 355.367 330.689 354.963 330.392 354.658C330.096 354.343 329.683 354.186 329.153 354.186H327.268V361.633H324.171ZM327.268 351.089H329.153C329.683 351.089 330.096 350.932 330.392 350.618C330.689 350.294 330.837 349.868 330.837 349.338V346.281C330.837 345.752 330.689 345.33 330.392 345.016C330.096 344.692 329.683 344.531 329.153 344.531H327.268V351.089Z" fill="white"/>
<path d="M338.36 361.633V341.433H343.343C344.806 341.433 345.969 341.878 346.831 342.767C347.693 343.646 348.124 344.818 348.124 346.281V349.338C348.124 350.29 347.935 351.125 347.558 351.843C347.181 352.561 346.642 353.131 345.942 353.553L345.726 352.57C346.49 352.849 347.078 353.271 347.491 353.836C347.913 354.402 348.124 355.08 348.124 355.87V361.633H345.026V355.87C345.026 355.367 344.878 354.963 344.582 354.658C344.286 354.343 343.873 354.186 343.343 354.186H341.458V361.633H338.36ZM341.458 351.089H343.343C343.873 351.089 344.286 350.932 344.582 350.618C344.878 350.294 345.026 349.868 345.026 349.338V346.281C345.026 345.752 344.878 345.33 344.582 345.016C344.286 344.692 343.873 344.531 343.343 344.531H341.458V351.089Z" fill="white"/>
<path d="M357.169 362.064C355.678 362.064 354.484 361.606 353.587 360.691C352.698 359.775 352.253 358.572 352.253 357.082V345.985C352.253 344.486 352.698 343.283 353.587 342.376C354.484 341.46 355.678 341.002 357.169 341.002C358.668 341.002 359.862 341.46 360.751 342.376C361.64 343.283 362.084 344.486 362.084 345.985V357.082C362.084 358.572 361.64 359.775 360.751 360.691C359.862 361.606 358.668 362.064 357.169 362.064ZM357.169 358.967C357.734 358.967 358.179 358.796 358.502 358.455C358.825 358.105 358.987 357.647 358.987 357.082V345.985C358.987 345.42 358.825 344.966 358.502 344.625C358.179 344.275 357.734 344.1 357.169 344.1C356.603 344.1 356.159 344.275 355.835 344.625C355.512 344.966 355.351 345.42 355.351 345.985V357.082C355.351 357.647 355.512 358.105 355.835 358.455C356.159 358.796 356.603 358.967 357.169 358.967Z" fill="white"/>
<path d="M366.529 361.633V341.433H371.511C372.975 341.433 374.137 341.878 374.999 342.767C375.861 343.646 376.292 344.818 376.292 346.281V349.338C376.292 350.29 376.103 351.125 375.726 351.843C375.349 352.561 374.811 353.131 374.11 353.553L373.895 352.57C374.658 352.849 375.246 353.271 375.659 353.836C376.081 354.402 376.292 355.08 376.292 355.87V361.633H373.195V355.87C373.195 355.367 373.047 354.963 372.75 354.658C372.454 354.343 372.041 354.186 371.511 354.186H369.626V361.633H366.529ZM369.626 351.089H371.511C372.041 351.089 372.454 350.932 372.75 350.618C373.047 350.294 373.195 349.868 373.195 349.338V346.281C373.195 345.752 373.047 345.33 372.75 345.016C372.454 344.692 372.041 344.531 371.511 344.531H369.626V351.089Z" fill="white"/>
<circle cx="233.472" cy="153.158" r="71.5384" fill="#F2C94C"/>
<path d="M304.562 151.96C313.815 153.319 322.487 151.595 331.696 151.65C340.363 151.702 348.141 154.459 356.157 157.43C357.983 158.107 363.345 159.219 364.468 159.98L364.403 160.292C359.255 160.793 351.629 157.084 346.688 155.592C343.79 154.726 340.842 154.094 337.843 153.695C327.796 152.417 313.722 155.708 304.993 153.382C304.374 155.542 304.667 158.397 304.635 160.658C309.792 161.386 314.892 161.8 320.098 161.398C328.11 160.779 338.449 157.453 346.137 159.638C332.821 159.788 317.667 165.505 304.701 161.668L304.635 160.658C304.667 158.397 304.374 155.542 304.993 153.382L304.562 151.96Z" fill="#F2C94C"/>
<path d="M186.814 321.069V297.502H143.3V280.585L188.75 194.819H206.172V278.228H216.525V297.502H206.172V321.069H186.814ZM159.544 286.056L154.746 278.228H186.814V232.525L159.544 286.056Z" fill="white"/>
<path d="M266.01 323.762C256.751 323.762 249.316 320.9 243.705 315.177C238.15 309.454 235.373 301.935 235.373 292.62V223.267C235.373 213.897 238.15 206.378 243.705 200.71C249.316 194.987 256.751 192.125 266.01 192.125C275.436 192.125 282.927 194.987 288.482 200.71C294.037 206.378 296.815 213.897 296.815 223.267V292.62C296.815 301.935 294.037 309.454 288.482 315.177C282.927 320.9 275.436 323.762 266.01 323.762ZM266.094 304.404C269.629 304.404 272.406 303.338 274.426 301.206C276.446 299.017 277.456 296.156 277.456 292.62V223.267C277.456 219.732 276.446 216.899 274.426 214.766C272.406 212.578 269.629 211.484 266.094 211.484C262.559 211.484 259.781 212.578 257.761 214.766C255.741 216.899 254.731 219.732 254.731 223.267V292.62C254.731 296.156 255.741 299.017 257.761 301.206C259.781 303.338 262.559 304.404 266.094 304.404ZM273.164 211.484H284.442L259.024 304.404H247.83L273.164 211.484Z" fill="white"/>
<path d="M357.278 321.069V297.502H313.764V280.585L359.214 194.819H376.636V278.228H386.989V297.502H376.636V321.069H357.278ZM330.008 286.056L325.21 278.228H357.278V232.525L330.008 286.056Z" fill="white"/>
<path d="M277.295 418.223C277.562 418.383 277.738 418.585 277.956 418.806C277.841 420.206 277.102 421.469 276.511 422.726L276.237 422.779C275.889 422.063 276.002 421.571 276.062 420.784C276.158 419.521 276.33 419.056 277.295 418.223Z" fill="#F1E8A5"/>
<path d="M274.689 381.829L275.685 382.178C276.729 383.729 275.909 386.312 275.615 388.028L275.359 387.771C274.798 385.924 274.579 383.753 274.689 381.829Z" fill="#F0EC13"/>
<path d="M339.577 401.522C340.604 401.637 341.118 401.879 341.761 402.662C341.753 403.663 341.525 403.942 341.043 404.798C340.936 404.793 340.829 404.794 340.721 404.785C339.759 404.705 339.424 404.493 338.836 403.783C338.733 402.808 339.095 402.317 339.577 401.522Z" fill="#F0EC13"/>
<path d="M445.017 411.436C445.29 411.472 445.676 411.509 445.928 411.603C446.685 411.883 446.842 412.141 447.185 412.805C447.125 413.841 446.747 414.286 446.135 415.063C445.292 414.703 444.797 414.509 444.29 413.693C444.293 412.622 444.508 412.35 445.017 411.436Z" fill="#F2C94C"/>
<path d="M347.993 129.202C348.332 129.225 348.967 129.217 349.305 129.344C350.084 129.637 350.197 129.932 350.553 130.619C350.559 131.583 350.215 132.05 349.705 132.816C349.379 132.802 348.792 132.822 348.467 132.704C347.617 132.398 347.506 132.147 347.125 131.398C347.134 130.395 347.433 129.977 347.993 129.202Z" fill="#F2C94C"/>
<path d="M438.363 463.504C438.487 463.564 438.618 463.612 438.736 463.681C439.431 464.088 439.639 464.418 439.811 465.174C439.438 466.772 438.219 468.14 437.278 469.461L436.678 470.063C436.141 468.717 437.854 464.97 438.363 463.504Z" fill="#F1E8A5"/>
<path d="M460.955 71.4531C461.522 71.5845 462.207 71.7632 462.648 72.1674C463.176 72.6497 463.389 73.2398 463.31 73.9458C463.214 74.798 462.514 75.4046 461.935 75.962C461.454 75.7892 460.864 75.5933 460.459 75.269C459.93 74.8459 459.604 74.2352 459.63 73.5516C459.664 72.6563 460.371 72.0408 460.955 71.4531Z" fill="#F1E8A5"/>
<path d="M493.153 119.161C493.966 119.161 494.914 119.115 495.589 119.654C496.121 120.08 496.39 120.588 496.355 121.273C496.308 122.204 495.644 122.846 495.049 123.481C494.476 123.433 493.792 123.297 493.295 122.991C492.686 122.617 492.267 122.055 492.187 121.331C492.09 120.463 492.658 119.795 493.153 119.161Z" fill="#F2C94C"/>
<path d="M89.4355 359.301C89.8977 355.28 90.5304 351.321 91.5631 347.402C91.6098 350.53 92.0543 356.663 91.2482 359.484C91.1926 359.431 91.1464 359.365 91.0813 359.324C90.3984 358.896 90.164 359.088 89.4355 359.301Z" fill="#F0EC13"/>
<path d="M425.212 212.588C425.881 212.767 426.626 212.963 427.147 213.44C427.659 213.908 427.989 214.623 427.94 215.321C427.855 216.511 427.104 217.111 426.203 217.726C425.441 217.561 424.657 217.389 424.094 216.79C423.571 216.233 423.42 215.603 423.541 214.859C423.699 213.883 424.529 213.219 425.212 212.588Z" fill="#F2C94C"/>
<path d="M442.741 196.726C443.42 196.736 444.183 196.701 444.794 197.042C445.379 197.369 445.81 198.009 445.869 198.668C445.981 199.917 445.443 200.555 444.673 201.427C443.865 201.441 442.999 201.463 442.304 200.961C441.875 200.651 441.632 200.265 441.55 199.757C441.338 198.436 441.987 197.703 442.741 196.726Z" fill="#F2C94C"/>
<path d="M86.1711 334.836C86.3818 334.85 86.5647 335.001 86.7327 335.129C87.5991 335.788 90.1006 340.483 90.4279 341.692L90.116 342.038L89.4538 341.811C87.3713 339.932 85.2331 337.765 83.6938 335.415L83.756 335.122L86.1711 334.836Z" fill="#F2C94C"/>
<path d="M327.89 73.0278C328.574 73.0752 329.256 73.0994 329.86 73.4687C330.506 73.864 330.92 74.5038 330.975 75.2625C331.072 76.5851 330.353 77.458 329.543 78.4043C328.777 78.4321 328.03 78.3374 327.393 77.8699C326.748 77.3959 326.414 76.7408 326.388 75.9495C326.345 74.5849 326.974 73.9209 327.89 73.0278Z" fill="#F2C94C"/>
<path d="M266.469 402.637C266.975 402.328 267.146 402.031 267.438 401.523C267.328 405.557 267.665 413.125 265.919 416.654L265.362 417.09L264.739 416.916C263.946 413.523 267.147 407.055 266.469 402.637Z" fill="#F0EC13"/>
<path d="M75.9605 388.481C77.0547 388.43 78.0963 388.394 79.0195 389.105C79.6101 389.56 79.9557 390.197 79.9439 390.95C79.9244 392.217 79.1568 392.997 78.336 393.846C77.4051 393.949 76.5274 393.962 75.7114 393.423C75.0036 392.955 74.7023 392.379 74.5887 391.555C74.4112 390.264 75.1829 389.384 75.9605 388.481Z" fill="white"/>
<path d="M93.2135 333.072C93.1999 335.164 93.3135 337.33 93.1691 339.413C93.0271 340.133 92.9797 340.82 92.4418 341.365C91.0812 340.795 88.9975 335.854 88.1826 334.431C89.8675 334.017 91.5399 333.532 93.2135 333.072Z" fill="#F2C94C"/>
<path d="M62.141 245.264C63.3495 245.194 64.3153 245.105 65.2539 246.037C65.8551 246.633 66.035 247.247 66.0185 248.077C65.9912 249.396 65.1479 250.166 64.1916 250.93C63.1323 250.955 62.2375 250.901 61.3906 250.151C60.7568 249.589 60.5284 248.965 60.51 248.135C60.4816 246.857 61.2829 246.068 62.141 245.264Z" fill="white"/>
<path d="M412.606 358.927C414.626 358.926 416.594 359.09 418.603 359.297C419.246 362.004 419.907 364.826 420.247 367.587C417.168 365.784 414.511 361.877 412.606 358.927Z" fill="#4FDB40"/>
<path d="M94.6507 332.693L101.57 330.517C100.409 332.377 95.9804 340.372 94.6915 341.203C94.54 338.376 94.6305 335.524 94.6507 332.693Z" fill="#F2C94C"/>
<path d="M92.3891 177.652C97.4791 177.017 103.381 178.731 108.463 179.392C111.478 179.784 114.538 179.862 117.571 180.101L117.534 180.595L117.756 180.488L117.529 180.06L117.461 180.613C114.905 181.033 111.975 181 109.412 180.64C103.784 180.226 98.484 178.541 92.7548 178.627C89.926 178.669 87.2481 180.186 84.4489 180.058L84.4282 179.765C86.3593 178.285 89.968 177.876 92.3891 177.652Z" fill="#F2C94C"/>
<path d="M81.534 335.7L81.6826 335.691C83.2875 336.571 87.0176 341.057 88.6723 342.691C87.0655 342.338 85.5215 341.911 83.9551 341.413C80.7564 340.322 77.7921 338.631 74.8828 336.937C77.0825 336.45 79.3154 336.093 81.534 335.7Z" fill="#F2C94C"/>
<path d="M88.4572 349.999C88.7679 349.564 89.0366 349.049 89.5053 348.781C88.3318 354.431 87.2009 358.208 87.2156 364.191L82.4487 365.165C83.5554 362.703 84.2809 360.019 85.2793 357.501C86.2788 354.983 87.5719 352.552 88.4572 349.999Z" fill="#F2C94C"/>
<path d="M97.4824 343.84C100.022 344.833 107.976 353.171 109.675 355.565C110.29 356.43 111.071 357.469 110.895 358.548L109.273 359.071C108.259 358.566 98.35 345.55 97.4824 343.84Z" fill="#F2C94C"/>
<path d="M327.706 352.453L327.925 352.477C327.892 352.97 327.29 353.192 326.896 353.466C316.921 360.406 308.579 366.552 299.943 375.154C299.66 375.181 299.818 375.205 299.503 374.966C301.827 368.271 321.021 356.386 327.706 352.453Z" fill="#F2C94C"/>
<path d="M98.605 343.402C99.7205 343.86 100.724 344.532 101.749 345.16C104.793 347.169 107.773 349.268 110.688 351.46C112.461 352.768 114.331 354.423 116.292 355.421L116.569 355.959C115.849 356.952 113.647 357.527 112.475 357.985C109.582 351.965 103.514 347.715 98.605 343.402Z" fill="#F2C94C"/>
<path d="M257.791 313.799L258.121 311.959C258.435 312.362 258.702 312.783 258.98 313.212C260.488 319.16 260.225 328.761 260.367 334.943C259.56 335.602 258.763 336.284 257.924 336.9C258.029 331.886 258.051 326.871 257.99 321.856C257.941 319.24 257.566 316.388 257.791 313.799Z" fill="#F0EC13"/>
<path d="M112.892 326.988C113.284 326.947 113.079 326.912 113.483 327.182C112.217 328.995 101.027 337.637 98.6483 339.198L98.4133 339.297L98.1021 339.149C98.64 336.828 102.081 332.686 103.325 330.137C106.532 329.143 109.721 328.093 112.892 326.988Z" fill="#F2C94C"/>
<path d="M286.128 381.325L286.336 381.407C286.298 382.491 284.288 384.77 283.616 385.837C281.106 389.819 279.033 394.102 277.121 398.397L276.824 398.07C275.753 391.979 279.281 386.836 282.233 381.814C283.5 381.532 284.836 381.459 286.128 381.325Z" fill="#F2C94C"/>
<path d="M107.599 361.375C107.925 361.387 107.726 361.35 108.153 361.628C107.917 362.823 107.023 363.985 106.393 365.022C102.576 366.794 97.9962 367.487 93.8707 368.134C93.5204 368.087 93.3671 367.956 93.076 367.768C92.725 366.966 92.7759 366.63 92.9191 365.802C93.2624 365.241 93.5997 364.787 94.2211 364.512C95.7272 363.843 105.169 361.963 107.599 361.375Z" fill="#F2C94C"/>
<path d="M287.99 404.701C291.116 399.373 305.031 386.238 310.264 383.767L310.128 384.082L310.492 383.961C304.939 387.349 298.717 394.032 294.418 398.961C292.983 400.607 291.748 402.486 290.192 404.006C288.557 406.37 281.968 416.812 280.014 417.701C279.716 417.317 279.651 417.394 279.698 416.939C279.909 414.915 286.398 406.079 287.99 404.701Z" fill="#F0EC13"/>
<path d="M96.106 344.589C96.9871 344.976 106.831 357.952 107.88 359.67L102.079 361.238C101.605 359.656 101.168 358.055 100.566 356.515C99.0306 352.849 96.7522 348.505 96.106 344.589Z" fill="#F2C94C"/>
<path d="M106.775 344.221C109.809 343.582 116.85 346.305 120.384 346.75C124.613 347.597 128.882 348.118 133.191 348.314C132.149 349.503 130.476 350.173 129.093 350.912L126.95 351.821C123.911 350.939 120.793 350.123 117.866 348.918C114.359 347.476 111.031 345.564 107.361 344.557L106.775 344.221Z" fill="#F2C94C"/>
<path d="M102.48 344.392L101.619 343.717L101.829 343.418C103.687 343.686 105.4 344.455 107.169 345.051C113.11 347.136 118.429 350.534 124.459 352.603C124.446 353.18 124.525 352.965 124.365 353.281L124.002 353.39C122.376 353.893 119.319 355.778 117.762 355.009C117.38 354.82 117.009 354.499 116.674 354.236C115.132 352.519 104.562 344.832 102.48 344.392Z" fill="#F2C94C"/>
<path d="M259.472 419.884C259.492 416.083 263.257 405.956 264.305 401.511C265.58 396.099 266.241 390.594 267.263 385.135C267.817 390.661 267.649 395.985 267.438 401.523C267.147 402.031 266.976 402.328 266.47 402.636C264.246 408.06 263.613 414.644 260.8 419.729L259.472 419.884Z" fill="#F2C94C"/>
<path d="M446.386 100.064C447.41 99.9815 448.855 99.8791 449.775 100.319L449.646 100.512C446.268 100.777 443.14 102.187 439.979 103.309C435.631 104.851 431.479 105.899 426.856 106.075C415.592 106.502 404.863 102.504 393.472 103.308C392.213 103.501 391.082 103.514 389.812 103.431L389.82 103.248L389.923 103.198L389.993 103.433L389.692 103.374C396.276 99.5145 418.196 105.157 427.101 104.713C434.767 104.331 439.02 101.666 445.988 100.148L446.386 100.064Z" fill="#F2C94C"/>
<path d="M140.285 494.698C134.93 491.031 124.744 486.39 118.452 484.855C117.83 484.703 117.405 484.594 116.861 484.231V483.698C117.414 483.076 117.662 482.769 118.492 482.529C125.406 483.619 134.947 487.316 140.175 492.021C141.251 493.495 142.39 494.943 143.237 496.566C142.261 495.94 141.294 495.264 140.285 494.698Z" fill="#4FDB40"/>
<path d="M67.8218 177.361C71.2666 175.226 75.1595 173.881 79.0133 172.678C93.9449 168.017 103.002 170.036 117.746 172.95C121.144 173.487 124.538 174.009 127.975 174.228C130.486 174.388 133.035 174.254 135.535 174.463C135.981 174.501 136.986 174.507 137.265 174.889C132.358 176.652 122.812 175.004 117.594 173.994C104.534 171.761 95.5392 169.042 82.1953 172.895C77.5426 174.239 72.9231 176.394 68.1851 177.297C68.0644 177.32 67.9431 177.34 67.8218 177.361Z" fill="#F2C94C"/>
<path d="M92.9263 363.034C92.9588 360.312 93.2766 346.468 94.2211 345.05C96.2806 347.723 98.0648 354.414 99.784 357.819L101.229 361.299L92.9263 363.034Z" fill="#F2C94C"/>
<path d="M453.824 474.862C455.62 476.295 457.071 479.077 458.346 481.021C454.175 483.129 450.127 485.58 446.022 487.827C444.963 488.343 443.884 488.819 442.813 489.309C445.761 483.825 449.348 479.187 453.824 474.862Z" fill="#F1E8A5"/>
<path d="M124.872 474.435C124.956 474.515 125.035 474.601 125.124 474.675C126.088 475.479 127.404 475.842 128.434 476.589C132.095 479.242 134.933 483.348 136.964 487.326C134.452 486.044 131.902 484.648 129.208 483.789C126.13 482.29 122.54 481.585 119.23 480.764C121.163 478.701 123.044 476.591 124.872 474.435Z" fill="#4FDB40"/>
<path d="M247.595 421.531C247.727 408.531 247.464 395.683 246.072 382.74C245.925 381.367 245.698 380.356 246.622 379.212L247.29 379.59C248.337 381.642 248.171 384.739 248.405 387.017C249.582 398.501 250.11 409.627 250.025 421.171L247.595 421.531Z" fill="#F0EC13"/>
<path d="M252.389 284.27C251.078 289.892 249.482 295.44 248.287 301.093C247.462 304.925 246.746 308.778 246.14 312.651C245.534 316.524 245.038 320.411 244.652 324.312C244.267 328.214 243.992 332.123 243.828 336.039C243.664 339.956 243.611 343.875 243.67 347.794C243.718 349.792 244.402 353.261 243.101 354.838C242.999 354.679 242.873 354.533 242.793 354.361C242.149 352.976 242.456 349.41 242.443 347.785C242.434 345.312 242.468 342.84 242.546 340.368C242.624 337.897 242.746 335.428 242.911 332.96C243.076 330.493 243.285 328.029 243.537 325.569C243.789 323.109 244.084 320.654 244.423 318.204C244.761 315.755 245.143 313.312 245.568 310.876C245.993 308.44 246.461 306.012 246.971 303.592C247.482 301.173 248.035 298.763 248.631 296.363C249.226 293.963 249.864 291.574 250.544 289.196C251.092 287.311 251.42 284.371 252.351 282.731L252.755 282.934C253.705 284.987 254.167 287.344 254.755 289.528C256.851 297.318 258.565 305.125 258.98 313.212C258.702 312.784 258.436 312.363 258.121 311.96L257.791 313.799C256.894 303.795 256.077 293.709 252.389 284.27Z" fill="#F0EC13"/>
<path d="M253.679 420.572C253.845 417.792 254.51 414.909 254.967 412.158C255.715 407.743 256.396 403.317 257.01 398.882C257.708 394.094 257.731 389.266 258.401 384.517C258.53 383.602 258.705 382.751 259.485 382.172C260.148 382.139 260.5 382.117 261.086 382.45C261.68 386.242 257.164 415.759 255.911 420.262L253.679 420.572Z" fill="#F0EC13"/>
<path d="M107.032 342.85C113.018 342.068 119.248 342.333 125.279 342.21C130.705 342.1 136.688 341.517 142.034 342.208C139.71 344.004 137.415 345.824 134.916 347.376C131.592 346.655 127.751 346.143 124.346 345.946C119.805 344.728 109.946 344.666 106.328 342.793L107.032 342.85Z" fill="#F2C94C"/>
<path d="M296.785 377.906L297.001 378.119C296.945 379.991 290.912 387.066 289.553 388.991C286.137 393.83 283.486 399.725 281.415 405.251C280.103 408.751 278.994 413.767 276.805 416.734L276.532 416.347C275.982 412.097 277.378 407.51 278.94 403.614C281.618 396.935 288.122 383.892 293.689 379.467C294.556 378.777 295.77 378.342 296.785 377.906Z" fill="#F0EC13"/>
<path d="M80.0698 347.052C81.0717 346.814 82.0351 346.529 83.0743 346.577C80.8503 347.616 78.3328 348.231 75.9869 348.947C73.271 349.804 70.528 350.564 67.758 351.225C64.9884 351.887 62.1985 352.449 59.3882 352.912C56.5783 353.376 53.7554 353.738 50.9196 354C48.0838 354.262 45.2423 354.423 42.395 354.482C44.1216 352.387 45.9195 350.04 48.0963 348.396C52.4523 350.649 74.7596 348.499 80.0698 347.052Z" fill="#F2C94C"/>
<path d="M514.566 390.122C520.589 392.586 526.859 394.823 533.143 396.521C535.502 397.158 537.945 397.465 540.292 398.111C540.944 398.291 541.494 398.34 541.831 398.942L541.013 399.557C532.551 402.703 522.847 399.531 514.551 397.194L514.566 390.122Z" fill="#F2C94C"/>
<path d="M402.208 94.7551C392.602 94.3137 383.28 95.6724 374.287 99.1688C370.927 100.475 367.644 102.258 364.177 103.241L363.924 103.061L364.149 102.56C366.077 100.989 368.759 100.078 371.056 99.1404C382.178 94.6007 393.281 92.5288 405.318 93.6935C410.493 94.2498 415.563 95.3481 420.693 96.2015C433.234 97.8112 441.523 92.269 452.994 93.5893C456.052 93.9414 459.04 94.9445 461.97 95.8446C464.343 96.5737 467.914 97.3815 469.845 98.9315L469.954 99.2848C469.16 99.6949 467.889 99.0972 467.031 98.8178C461.498 97.0188 456.102 95.0019 450.208 94.7735C440.351 94.3906 430.939 99.8795 421.045 97.6544C418.307 97.61 415.29 96.711 412.596 96.2003C409.136 95.544 405.712 95.0848 402.208 94.7551Z" fill="#F2C94C"/>
<path d="M106.58 341.142C117.166 337.816 128.48 336.651 139.351 334.521C141.282 334.143 145.758 332.623 147.478 332.811L147.624 333.488C146.944 336.065 146.04 338.082 144.546 340.288L122.019 340.584C118.187 340.659 114.211 340.556 110.415 341.119C109.268 341.288 108.165 341.796 107.03 342.064C105.391 342.095 103.902 342.076 102.281 341.78C103.644 341.657 104.969 341.54 106.303 341.213L106.58 341.142Z" fill="#F2C94C"/>
<path d="M497.894 318.044C501.998 320.935 512.458 325.96 514.031 330.634C514.266 331.334 514.247 331.708 513.933 332.357C512.444 333.132 510.331 332.327 508.798 331.943C502.737 330.172 496.983 327.761 491.174 325.306C493.519 323.025 495.658 320.438 497.894 318.044Z" fill="#F2C94C"/>
<path d="M131.708 323.783C134.785 323.767 137.911 323.674 140.967 324.079C138.318 325.546 135.372 326.492 132.55 327.57C126.381 329.941 120.167 332.185 113.906 334.302C110.602 335.453 106.919 336.566 103.849 338.23L102.944 338.326C103.018 338.145 103.067 337.951 103.166 337.783C104.015 336.348 107.462 334.35 108.856 333.289C111.134 331.557 113.189 329.553 115.469 327.839C120.129 324.337 126.14 324.424 131.708 323.783Z" fill="#F2C94C"/>
<path d="M140.57 458.099C141.439 459.356 142.32 468.235 142.686 470.342C143.954 477.626 145.907 484.784 147.102 492.069C145.883 489.988 144.741 487.854 143.566 485.747C139.822 479.104 135.61 472.793 131.417 466.431C134.475 463.648 137.125 460.434 140.57 458.099Z" fill="#F1E8A5"/>
<path d="M473.874 374.228C482.199 374.938 494.008 381.317 501.809 384.79L499.782 389.474L498.611 392.063C489.209 387.423 479.803 383.338 473.874 374.228Z" fill="#F2C94C"/>
<path d="M48.313 348.012C55.4975 342.032 63.4393 339.084 72.4855 337.211C76.7985 339.525 81.0755 341.417 85.6347 343.17C83.8983 343.297 82.3046 343.332 80.5706 343.145C77.8744 342.597 67.1126 340.353 64.9691 341.032L64.8614 341.329C67.7671 342.841 76.0203 343.57 79.6019 344.101C80.3239 344.256 81.5838 344.345 82.0543 344.878C81.4436 345.337 80.9873 345.511 80.2718 345.731C69.7621 348.223 59.0427 348.158 48.313 348.012Z" fill="#F2C94C"/>
<path d="M142.307 422.257L143.982 423.886C142.543 445.904 145.854 464.127 149.728 485.613C150.2 488.23 153.336 502.951 153.13 504.393C153.091 504.665 152.915 504.898 152.808 505.15C152.303 505.308 152.21 505.301 151.643 505.231C150.222 503.257 150.282 499.844 149.627 497.5C148.103 492.049 147.157 486.398 146.061 480.847C142.204 461.302 139.739 442.196 142.307 422.257Z" fill="white"/>
<path d="M458.586 302.555C468.573 302.623 480.898 307.155 489.749 311.812C488.621 313.345 487.351 314.773 486.121 316.223L483.547 319.125C476.862 316.304 461.681 308.989 458.586 302.555Z" fill="#F2C94C"/>
<path d="M462.71 489.099L463.346 489.46C465.861 493.587 466.992 499.896 467.354 504.663C462.408 505.619 457.925 506.187 452.869 505.826C449.084 505.556 441.217 504.5 438.576 501.454C439.638 500.84 441.239 501.104 442.422 501.184C446.475 501.416 450.035 502.612 453.926 503.516C454.573 503.667 454.887 503.878 455.454 503.516L455.374 502.973C453.282 500.519 446.486 499.476 443.369 498.657C450.309 496.623 456.645 492.971 462.71 489.099Z" fill="#F1E8A5"/>
<path d="M166.666 467.795L167.062 468.047C167.749 470.961 167.759 474.35 167.679 477.341C167.392 488.056 163.203 495.371 155.56 502.583L155.003 502.138C154.086 499.341 154.021 495.624 154.161 492.663C154.652 482.291 159.094 474.679 166.666 467.795Z" fill="#4FDB40"/>
<path d="M169.797 290.878C187.769 295.557 203.961 310.609 213.131 326.238C219.096 336.404 223.594 347.09 228.151 357.933C230.967 364.633 234.206 371.245 236.728 378.055C241.897 392.018 244.141 407.148 244.628 421.982L242.816 422.19C236.519 412.294 229.994 402.551 223.243 392.959C207.164 369.912 192.59 352.727 167.388 339.389L166.865 337.991C193.817 352.354 208.515 370.005 225.976 394.596C231.584 402.495 237.286 410.336 242.551 418.47C241.902 409.344 241.271 400.412 239.185 391.464C236.414 379.576 231.653 368.455 226.914 357.256C221.81 345.192 216.719 333.028 209.414 322.089C208.442 320.634 207.423 319.212 206.357 317.824C205.291 316.435 204.181 315.083 203.026 313.768C201.872 312.453 200.675 311.177 199.437 309.94C198.198 308.704 196.92 307.509 195.603 306.357C190.231 301.691 184.115 298.033 177.772 294.857C175.126 293.532 172.36 292.353 169.797 290.878Z" fill="#F2C94C"/>
<path d="M405.367 443.63C414.028 448.053 423.915 451.836 431.41 458.14C430.314 464.779 428.692 472.393 425.896 478.531C425.697 479.152 425.311 480.1 425.329 480.743C425.349 481.475 425.614 481.747 426.129 482.151C427.705 481.405 428.908 476.968 429.559 475.271C430.17 475.821 430.749 476.443 431.519 476.758C430.152 480.08 428.556 483.455 427.6 486.916C426.731 490.063 426.398 493.363 425.406 496.468C425.027 490.976 425.224 485.57 424.5 480.086C423.025 465.239 412.133 455.931 405.367 443.63Z" fill="#F1E8A5"/>
<path d="M389.623 402.801L394.434 402.756C394.352 412.011 394.382 420.939 397.078 429.904C399.249 437.123 402.939 444.368 407.139 450.624C416.054 463.904 423.427 471.255 422.748 488.667C421.353 485.26 420.671 481.554 419.191 478.107C415.275 468.984 409.145 460.784 403.3 452.821C392.671 438.346 386.843 420.835 389.623 402.801Z" fill="white"/>
<path d="M399.954 341.504C405.112 340.354 411.195 340.018 416.47 340.006C416.765 345.964 417.57 351.651 418.25 357.554C411.692 357.073 393.441 355.439 388.159 352.557C386.274 351.94 385.049 351.122 383.687 349.684C383.984 349.269 384.292 348.863 384.611 348.464C387.544 344.837 395.453 342.023 399.954 341.504Z" fill="white"/>
<path d="M89.4353 359.301C90.1638 359.088 90.3981 358.896 91.0811 359.324C91.1462 359.365 91.1923 359.431 91.248 359.484C89.9123 397.483 105.619 434.048 127.269 464.521C135.078 475.511 146.486 489.426 149.448 502.765C148.15 501.644 146.829 500.551 145.676 499.277C142.897 494.217 140.144 489.139 137.065 484.25C134.547 480.252 131.722 476.418 129.108 472.476C127.464 469.994 125.546 466.234 123.345 464.261C122.229 462.05 120.635 459.925 119.315 457.82C116.226 452.895 113.111 447.941 110.313 442.843C96.4055 417.508 87.6273 388.404 89.4353 359.301Z" fill="white"/>
<path d="M458.66 302.067C459.24 299.42 460.938 297.252 462.918 295.471C469.719 289.353 486.386 282.929 495.59 283.453C500.18 283.716 503.811 285.579 506.866 288.955C506.7 288.963 506.535 288.972 506.37 288.977C505.867 288.993 505.384 288.949 504.885 288.889C503.937 288.775 502.882 288.562 501.93 288.661C494.837 289.403 490.704 299.817 483.497 301.974C476.302 304.128 469.762 298.371 462.378 300.223C460.965 300.578 460.081 300.925 458.94 301.849C458.848 301.924 458.754 301.994 458.66 302.067Z" fill="white"/>
<path d="M144.718 324.418C149.188 325.605 153.657 327.563 156.136 331.734C157.237 333.588 157.53 335.661 156.899 337.733C154.787 344.681 143.435 349.965 137.285 353.025C130.09 356.605 121.274 360.543 113.451 362.325L110.538 360.572C115.229 358.331 120.638 356.906 125.09 354.321C131.834 351.699 138.631 347.223 143.815 342.192C146.059 340.557 147.245 338.518 148.114 335.915C148.605 334.274 148.964 332.66 149.274 330.976C134.998 333.61 120.326 335.613 106.271 339.207C105.462 339.327 104.687 339.421 103.903 339.665C105.883 338.611 108.228 337.947 110.339 337.182C114.852 335.546 119.401 333.991 123.894 332.304C129.91 330.045 138.793 325.658 144.718 324.418Z" fill="#F2C94C"/>
<path d="M424.481 339.935C433.122 340.098 447.325 340.952 455.463 343.584C457.928 344.38 460.044 345.481 462.268 346.801C460.957 349.055 459.459 350.496 457.318 351.93C449.718 356.698 435.66 356.539 426.594 357.197C425.487 351.493 424.782 345.739 424.481 339.935Z" fill="white"/>
<path d="M76.666 358.748C80.9358 356.04 83.8161 351.037 87.5917 347.665L87.8574 347.884L87.5769 348.942C85.3204 352.85 82.0886 361.053 81.24 365.488C79.593 365.26 77.5294 365.939 75.8996 366.271C67.1807 367.854 49.8011 370.19 41.9989 366.316C40.6363 365.64 39.4472 364.615 39.0436 363.097C38.3426 360.46 40.518 357.498 41.8274 355.377C54.8316 355.733 66.9842 353.274 79.4196 349.72C78.8568 350.438 78.3224 350.759 77.5424 351.186C76.6186 351.723 75.1942 352.316 74.5101 353.112C71.963 354.443 69.4354 355.777 66.7859 356.898C61.8712 358.872 56.8342 360.458 51.6748 361.655C47.6367 362.58 43.453 363.202 39.5236 364.519C49.7437 363.396 58.08 361.763 67.6955 358.052C70.0311 357.004 72.3295 355.88 74.5905 354.68C75.9031 353.976 77.1554 353.134 78.4183 352.344L81.0074 350.813C82.3449 350.032 83.6847 349.264 84.9695 348.398C82.6893 351.431 79.7492 354.976 76.7263 357.263C75.6865 358.05 74.387 358.34 73.4028 359.145C74.4402 359.463 75.6522 359.089 76.666 358.748Z" fill="#F2C94C"/>
<path d="M510.272 388.734C511.219 389.589 511.285 391.443 511.435 392.675C513.219 407.31 509.984 425.395 504.392 439.044C503.526 441.134 502.59 443.192 501.585 445.219C500.581 447.246 499.509 449.237 498.37 451.192C497.232 453.147 496.028 455.061 494.761 456.935C493.494 458.809 492.165 460.638 490.774 462.423C482.714 472.694 472.793 480.169 461.819 487.024C453.752 492.063 446.181 496.475 436.543 497.623L435.849 497.68L435.637 497.47C437.144 493.803 453.268 486.109 457.73 483.388C461.812 480.86 465.796 478.185 469.682 475.364C491.701 459.255 503.259 439.743 507.47 412.896C508.726 404.89 509.034 396.744 510.272 388.734Z" fill="white"/>
<path d="M269.489 382.023C270.249 382.029 271.008 382.046 271.768 382.074C272.443 382.508 272.637 383.34 272.846 384.075C273.649 386.889 273.736 390.232 273.933 393.159C274.954 408.339 274.423 426.155 270.306 440.884C268.396 447.715 265.209 454.342 261.754 460.524C258.157 461.211 254.587 462.388 251.134 463.589L247.991 465.011C250.28 451.023 255.206 447.688 262.136 436.302C270.97 421.786 271.955 398.671 269.489 382.023Z" fill="url(#paint0_linear_1114_80517)"/>
<path d="M266.656 335.809C269.388 336.306 272.109 336.854 274.576 338.188C280.856 341.584 289.384 353.459 293.64 359.625C295.854 362.834 298.502 367.046 297.751 371.111C297.332 373.37 295.897 375.18 293.967 376.371C289.716 378.994 282.578 379.367 277.658 379.346C280.427 368.172 275.745 353.524 270.961 343.315C269.832 340.906 267.851 338.821 266.872 336.372C266.797 336.185 266.728 335.997 266.656 335.809Z" fill="#F2C94C"/>
<path d="M504.065 387.008C505.079 388.227 505.053 389.238 504.893 390.754C504.195 397.369 500.54 404.865 497.901 410.952C490.121 428.905 481.236 443.498 467.682 457.752C461.721 464.022 455.294 469.804 449.493 476.246C445.495 480.686 442.799 485.947 438.968 490.434C436.959 492.785 434.465 494.696 432.066 496.624C431.522 496.514 431.807 496.624 431.25 496.209C431.172 494.886 432.377 493.177 432.96 491.993C436.678 484.439 441.477 477.996 447.114 471.794C456.928 460.997 466.134 452.735 474.969 440.663C487.302 423.813 494.277 405.191 504.065 387.008Z" fill="white"/>
<path d="M382.392 446.046C384.695 445.716 387.439 445.808 389.733 446.217C395.235 447.199 398.574 449.973 401.7 454.493C389.527 456.046 377.325 457.33 365.096 458.345C376.885 460.501 390.103 457.444 402.062 457.198C402.001 457.354 401.954 457.515 401.88 457.665C399.82 461.841 395.749 465.703 391.448 467.475C379.973 472.202 366.935 464.472 356.541 460.128C364.605 453.797 371.951 447.784 382.392 446.046Z" fill="#4FDB40"/>
<path d="M48.1182 330.63C48.2022 328.159 49.1567 325.319 49.9833 323.005C53.2757 313.787 60.02 305.274 69.0426 301.117C82.8717 294.744 93.3033 302.203 105.985 306.854C114.639 310.028 123.371 312.976 132.004 316.213C131.907 316.223 131.811 316.236 131.714 316.245C128.687 316.537 125.467 316.066 122.42 315.986C115.11 315.795 107.366 316.462 100.247 314.555C95.8758 313.384 91.7906 311.449 87.535 309.947C72.3862 304.597 66.0214 309.87 56.4988 321.201C54.1655 323.978 51.0314 328.785 48.1182 330.63Z" fill="white"/>
<path d="M131.059 145.416C133.442 142.921 136.129 141.078 139.33 139.787C146.62 136.847 154.753 137.148 161.934 140.209C160.87 144.08 160.552 150.61 161.172 154.577C148.249 152.65 135.833 158.887 122.808 156.173C119.779 155.541 114.374 154.297 112.691 151.457C112.197 150.624 112.133 149.762 112.404 148.832C112.795 147.495 114.194 146.414 115.37 145.798C120.222 143.253 126.035 143.866 131.059 145.416Z" fill="#F5DCBD"/>
<path d="M418.298 339.88C419.72 339.9 421.15 339.887 422.571 339.957C423.061 346.003 423.602 352.035 424.928 357.967C426.971 367.106 430.467 376.19 433.155 385.179C442.722 417.167 444.483 445.359 431.519 476.758C430.749 476.443 430.17 475.82 429.559 475.27C437.917 450.098 436.424 420.677 429.969 395.228C427.633 386.022 424.547 377.007 422.285 367.791C421.19 363.211 420.31 358.59 419.644 353.928C418.978 349.266 418.529 344.584 418.298 339.88Z" fill="white"/>
<path d="M390.825 361.362C393.398 362.05 395.79 362.747 397.961 364.374C401.971 367.38 410.881 380.929 413.62 385.64C414.568 387.269 415.761 389.518 415.285 391.449C414.686 393.881 413.059 395.41 410.966 396.651C401.945 402 387.568 401.772 377.755 399.198C377.368 399.096 376.984 398.984 376.603 398.862C381.323 396.569 384.183 396.266 387.519 391.572C393.523 383.126 392.309 370.999 390.825 361.362Z" fill="#F2C94C"/>
<path d="M376.602 398.862C372.598 397.623 368.329 396.063 365.306 393.024C364.023 391.734 362.922 390.025 362.994 388.14C363.227 382.071 373.352 370.756 377.697 366.67C381.826 362.788 385.065 361.205 390.825 361.362C392.309 370.999 393.523 383.125 387.519 391.572C384.183 396.266 381.323 396.569 376.602 398.862Z" fill="white"/>
<path d="M377.08 373.045L377.698 373.643C377.417 376.917 373.875 383.007 372.272 386.027C371.796 385.853 372.016 386.007 371.687 385.47C371.886 382.392 375.019 375.351 377.08 373.045Z" fill="#2D2D2D"/>
<path d="M511.205 461.175C519.856 460.692 527.713 462.852 534.887 467.735C536.92 469.119 542.183 472.806 542.653 475.252C537.427 478.646 530.625 481.071 524.646 482.618C511.577 486 500.719 482.159 489.42 475.553C494.868 474.266 500.246 473.413 505.843 473.116C516.359 471.926 527.666 473.629 538.001 475.443C537.937 475.385 537.885 475.309 537.809 475.266C535.757 474.114 532.021 473.567 529.675 473.066C512.446 469.376 501.836 470.95 484.892 474.291C491.878 466.466 500.757 462.117 511.205 461.175Z" fill="#4FDB40"/>
<path d="M458.66 303.067C458.754 302.995 458.848 302.924 458.94 302.85C460.081 301.925 460.965 301.578 462.378 301.223C469.762 299.372 476.302 305.128 483.497 302.975C490.704 300.817 494.837 290.404 501.93 289.661C502.882 289.562 503.937 289.775 504.885 289.889C505.384 289.949 505.867 289.993 506.37 289.977C506.535 289.972 506.7 289.963 506.866 289.956C512.001 295.937 519.854 319.57 519.28 327.358C519.138 329.29 518.1 330.827 516.946 332.318C516.424 330.965 515.919 329.621 515.079 328.425C509.806 320.915 496 313.897 487.677 310.213C478.447 306.129 468.859 303.075 458.66 303.067Z" fill="#F2C94C"/>
<path d="M541.607 415.609C546.77 415.326 552.322 415.377 557.429 416.28C555.656 424.45 550.359 431.708 543.904 436.864C534.212 444.604 521.705 446.421 509.654 445.014C518.615 434.485 533.776 428.301 546.008 422.447C549.801 420.602 553.883 418.935 557.417 416.636C552.752 418.001 548.209 419.872 543.684 421.638C528.173 427.695 518.484 432.885 506.595 444.67C508.837 438.232 511.199 432.327 515.77 427.134C522.89 419.046 531.107 416.26 541.607 415.609Z" fill="#4FDB40"/>
<path d="M491.167 317.558C491.351 317.732 491.538 318.209 491.585 318.444C491.873 319.887 487.786 324.559 486.78 325.952C480.552 334.568 472.811 347.376 469.536 357.327C465.264 370.305 467.225 383.836 467.906 397.175C468.323 405.332 468.259 413.484 466.932 421.565C464.11 438.759 455.278 456.124 445.404 470.326C443.346 473.286 440.663 475.904 438.488 478.802C434.921 483.555 431.981 488.731 429.002 493.862L428.72 494.242C428.282 493.45 428.836 491.481 429.03 490.572C431.583 478.629 440.215 469.437 446.347 459.208C449.609 453.768 452.633 448.038 455.25 442.257C463.289 424.501 463.171 408.551 462.445 389.596C462.104 380.689 461.919 371.644 463.618 362.851C466.592 347.465 478.035 326.4 491.167 317.558Z" fill="white"/>
<path d="M41.6738 407.872C51.5404 405.927 61.47 406.577 70.9311 410.004C84.4081 414.887 92.424 423.601 98.4348 436.343L98.1585 436.249C91.741 434.003 46.3451 410.811 45.5414 410.944C47.9704 412.922 50.9947 414.45 53.6965 416.036C64.3965 422.319 75.7116 427.716 86.7119 433.467C89.5301 434.94 94.3869 436.67 96.5091 438.992C94.3319 439.984 92.1647 440.833 89.8485 441.446C80.6827 443.871 71.5377 442.874 63.3223 438.044C52.7235 431.812 44.7317 419.615 41.6738 407.872Z" fill="#4FDB40"/>
<path d="M62.7294 461.481C71.878 454.922 86.9309 451.235 98.0739 453.043C108.051 454.661 116.134 459.992 121.954 468.158C122.385 468.761 122.802 469.373 123.203 469.996C107.923 465.405 80.5159 463.918 64.1746 464.363C69.2765 465.336 74.779 465.288 79.9702 465.798C93.417 467.12 107.17 468.398 120.395 471.157C111.522 477.044 102.176 482.07 91.2144 481.571C78.8636 481.009 65.6476 473.452 57.4883 464.415C59.1574 463.35 60.8978 462.235 62.7294 461.481Z" fill="#4FDB40"/>
<path d="M238.772 373.634C238.21 372.643 237.791 371.641 237.566 370.517C237.034 367.866 238.655 365.371 240.122 363.292C244.379 357.262 255.459 341.77 261.192 337.818C262.875 336.658 264.681 336.164 266.656 335.809C266.728 335.997 266.798 336.185 266.872 336.372C267.852 338.821 269.832 340.906 270.962 343.315C275.745 353.524 280.428 368.172 277.659 379.346C265.033 379.601 249.914 380.616 238.772 373.634Z" fill="white"/>
<path d="M259.152 359.113L259.533 359.315C259.487 361.154 257.41 365.03 256.723 367.069C256.289 366.716 256.035 366.357 255.942 365.786C255.567 363.5 257.773 360.779 259.152 359.113Z" fill="#2D2D2D"/>
<path d="M252.89 353.778L253.459 354.202C253.142 356.54 250.247 360.232 249.109 362.522C248.419 363.911 247.965 365.407 247.507 366.886C247.056 366.583 246.869 366.37 246.607 365.894C246.53 361.716 250.511 357.023 252.89 353.778Z" fill="#2D2D2D"/>
<path d="M109.681 362.225C116.123 366.204 121.48 371.769 125.651 378.074C136.988 395.212 138.213 412.993 134.147 432.624C132.407 428.374 131.235 423.695 129.831 419.314C127.589 412.349 125.235 405.421 122.771 398.531C120.459 391.366 117.679 384.407 115.154 377.324C113.782 373.475 112.851 369.262 111.027 365.616L110.877 365.583C111.983 371.446 114.405 377.41 116.319 383.06C118.403 389.214 120.202 395.459 122.314 401.606C123.958 406.861 132.129 429.8 132.275 433.167C119.41 425.041 108.693 411.233 105.002 396.386C102.289 385.473 103.817 371.914 109.681 362.225Z" fill="#4FDB40"/>
<path d="M417.559 309.953C420.753 309.728 423.367 309.958 426.403 311.011C435.204 314.062 439.994 320.993 446.738 326.783C452.208 331.479 458.54 333.819 461.827 340.784C462.363 341.919 463.047 343.266 462.604 344.494C460.715 344.421 458.16 342.63 456.333 341.918C454.421 341.173 452.47 340.545 450.482 340.036C441.676 337.821 431.814 337.509 422.765 337.34C417.85 337.112 413.054 337.263 408.166 337.809C401.973 338.501 387.728 341.47 383.719 346.613L382.526 348.122L382.165 348.032L381.77 347.222C381.756 345.565 382.369 344.181 383.236 342.787C385.483 339.174 389.087 336.535 391.61 333.097C394.408 329.285 396.1 324.907 398.996 321.14C403.783 314.913 409.729 311.004 417.559 309.953Z" fill="white"/>
<path d="M435.281 318.882C435.407 318.923 435.535 318.956 435.658 319.006C436.947 319.533 445.067 328.027 445.782 329.493C442.719 329.215 440.223 326.575 438.284 324.364C437.035 322.94 435.167 320.841 435.281 318.882Z" fill="#2D2D2D"/>
<path d="M426.94 315.465C427.495 315.499 427.933 315.589 428.432 315.854C432.094 317.797 434.746 323.056 436.98 326.381C437.847 327.669 439.108 328.809 439.555 330.312C438.501 329.8 437.711 329.209 436.899 328.359C436.242 327.672 426.953 315.492 426.94 315.465Z" fill="#2D2D2D"/>
<path d="M144.125 422.004C139.41 416.8 137.555 410.523 137.87 403.552C138.355 392.813 143.91 383.467 151.751 376.411C158.594 370.252 167.29 365.789 175.959 362.786C175.925 362.924 175.89 363.063 175.858 363.202C174.846 367.58 176.528 372.211 176.634 376.663C176.91 388.34 172.426 401.412 164.33 409.954C161.458 412.983 157.957 415.527 154.444 417.754C152.348 419.083 149.231 421.358 146.708 421.609L146.25 421.283L146.429 420.25C145.985 416.088 154.178 397.668 156.57 392.953C157.25 391.611 157.538 390.144 158.285 388.792C158.331 388.708 158.38 388.623 158.428 388.539C158.367 388.641 158.324 388.757 158.243 388.845C155.773 391.532 154.753 396.093 152.925 399.282C150.833 402.932 146.927 416.985 145.464 418.523C145.379 418.613 145.273 418.68 145.177 418.758C144.821 419.839 144.47 420.921 144.125 422.004Z" fill="#4FDB40"/>
<path d="M145.177 418.758C150.114 400.629 161.56 377.891 174.609 364.285C173.552 367.197 170.589 369.93 168.797 372.454C167.192 374.715 165.752 377.105 164.326 379.482C156.675 392.234 150.922 406.091 146.428 420.25C145.985 416.088 154.178 397.668 156.569 392.953C157.25 391.611 157.538 390.144 158.284 388.792C158.331 388.707 158.38 388.623 158.428 388.539C158.367 388.641 158.324 388.757 158.243 388.845C155.773 391.532 154.753 396.093 152.925 399.282C150.833 402.932 146.927 416.985 145.464 418.523C145.379 418.613 145.273 418.68 145.177 418.758Z" fill="#28694A"/>
<path d="M48.1181 330.63C51.0313 328.785 54.1654 323.978 56.4987 321.201C66.0213 309.87 72.3861 304.597 87.5349 309.947C91.7905 311.449 95.8757 313.384 100.247 314.555C107.366 316.462 115.11 315.795 122.42 315.986C125.467 316.066 128.687 316.537 131.714 316.245C131.811 316.236 131.907 316.223 132.004 316.213C136.938 317.82 141.736 319.365 146.136 322.193C131.627 319.899 116.944 323.466 103.135 327.642C98.7116 328.98 94.3004 330.537 89.8169 331.643C75.5445 335.165 62.0516 334.988 49.5821 344.108C44.4135 347.887 37.4289 354.845 36.5855 361.557C36.3907 363.108 36.697 364.606 37.6764 365.848C39.9531 368.736 44.9475 369.465 48.4027 369.767C60.623 370.835 75.2794 368.145 87.2704 365.624L87.2461 369.749C75.8369 372.222 46.2276 374.905 36.4601 368.375C34.5166 367.076 33.4772 365.001 33.0726 362.737C31.6668 354.874 36.9041 345.645 41.3654 339.57C43.088 337.224 47.0979 333.076 48.1181 330.63Z" fill="#F2C94C"/>
<path d="M519.895 345.614C525.024 345.176 529.17 346.121 533.182 349.503C542.198 357.104 546.163 371.393 547.031 382.693C547.397 387.441 547.572 392.993 544.749 397.06C536.389 395.153 528.193 392.885 520.221 389.702C512.721 386.709 505.296 383.503 497.848 380.385C489.649 376.954 481.911 373.541 473.05 372.133C476.629 365.041 488.845 355.704 496.337 353.137C496.603 353.047 496.87 352.971 497.141 352.898C504.498 349.282 511.695 346.553 519.895 345.614Z" fill="#F2C94C"/>
<path d="M529.757 373.673C530.371 373.774 531.076 373.885 531.561 374.311C532.203 374.875 532.626 375.864 532.753 376.693C532.913 377.73 532.827 378.71 532.166 379.552L531.622 379.553C530.953 378.844 530.89 378.164 530.725 377.244L530.658 376.853C530.545 376.542 530.355 376.282 530.181 376.003C529.252 376.275 528.72 378.076 527.859 378.759L527.531 378.408C527.38 377.861 527.212 377.341 527.312 376.765C527.541 375.433 528.794 374.488 529.757 373.673Z" fill="#2D2D2D"/>
<path d="M497.141 352.898C504.498 349.282 511.695 346.553 519.895 345.614C519.798 345.682 519.701 345.75 519.604 345.82C513.118 350.533 515.249 360.916 502.249 364.196C499.438 364.906 496.14 365.249 493.262 364.795C490.928 364.426 489.112 363.424 487.417 361.815C489.852 357.23 493.399 356.02 497.141 352.898Z" fill="white"/>
<path d="M448.16 145.702C458.02 144.048 471.06 147.95 479.581 152.763C485.046 155.851 490.328 159.639 496.4 161.461C502.802 163.382 510.012 162.213 516.641 163.087C523.253 163.958 533.545 166.234 537.738 171.946C538.432 172.891 538.703 173.806 538.447 174.968C538.109 176.497 536.458 177.827 535.248 178.661C523.478 186.764 501.982 188.032 487.899 186.89C482.208 186.428 476.613 185.368 471.007 184.315C462.73 182.813 454.303 181.289 445.858 181.423C438.821 181.535 431.828 182.909 424.858 183.776C423.701 183.919 422.541 184.037 421.379 184.129C420.217 184.221 419.053 184.288 417.888 184.33C416.723 184.371 415.557 184.387 414.391 184.377C413.225 184.368 412.06 184.333 410.896 184.272C409.732 184.211 408.569 184.125 407.409 184.014C406.248 183.902 405.09 183.766 403.936 183.604C402.781 183.442 401.63 183.255 400.484 183.043C399.337 182.83 398.196 182.593 397.06 182.331C392.672 181.313 387.876 179.903 384.082 177.395C382.703 176.483 380.821 174.941 380.568 173.187C380.256 171.023 381.578 168.667 382.894 167.058C388.109 160.685 397.456 160.708 404.895 161.382C408.486 161.707 412.71 162.492 416.194 161.31C419.015 160.353 421.083 157.872 423.239 155.937C430.243 149.65 438.869 146.557 448.16 145.702Z" fill="#F5DCBD"/>
<path d="M423.259 308.177C430.216 283.424 445.172 261.246 467.954 248.459C486.533 238.031 509.36 233.291 530.19 239.158C543.63 242.944 555.07 250.984 561.953 263.254C571.915 281.011 572.712 304.108 567.241 323.472C563.002 338.471 555.081 351.556 544.82 363.185C541.723 355.679 537.219 347.87 529.329 344.602C521.029 341.163 506.712 345.997 498.88 349.311C489.876 353.122 475.835 361.194 471.946 370.601C471.235 372.319 471.424 373.5 472.175 375.168C476.431 384.623 488.868 389.903 497.703 393.892C495.645 398.992 493.382 404.227 490.747 409.057C483.674 408.287 476.962 407.086 470.093 405.245C470.227 397.404 469.169 389.676 468.943 381.862C468.777 376.099 468.88 370.191 470.011 364.525C472.622 351.444 481.168 337.428 489.19 326.826C495.775 329.705 510.037 336.957 516.76 334.141C518.761 333.303 520.126 331.598 520.877 329.599C523.464 322.699 515.5 301.561 512.105 294.547C509.699 289.574 506.521 285.102 501.07 283.262C491.417 280.003 478.006 285.16 469.502 289.543C464.821 291.956 458.717 295.653 457.018 300.981C456.377 302.992 456.515 305.152 457.584 306.992C461.079 313.005 475.852 319.639 482.195 322.74C475.331 330.923 468.358 340.362 464.693 350.515C458.096 368.715 460.83 383.414 461.054 401.926C448.955 395.584 437.842 384.113 431.784 371.867C429.771 367.797 428.417 363.534 427.037 359.224L440.436 358.016C449.438 357.184 457.106 356.315 463.721 349.542C465.131 347.664 465.701 346.186 465.414 343.801C464.767 338.45 460.138 333.482 456.013 330.402C453.26 328.346 450.075 326.85 447.468 324.612C438.28 316.721 436.537 311.203 423.259 308.177Z" fill="#4FDB40"/>
<path d="M251.204 178.338C252.349 178.403 253.512 178.546 254.252 179.543C254.725 180.18 254.937 180.819 254.802 181.618C254.588 182.879 253.754 183.57 252.767 184.267C251.763 184.193 250.773 184.109 250.038 183.317C249.438 182.67 249.257 182.15 249.305 181.269C249.376 179.943 250.287 179.156 251.204 178.338Z" fill="white"/>
<path d="M162.111 140.242C165.227 141.448 167.542 142.819 169.969 145.153C177.289 141.777 184.262 141.456 191.875 144.284C194.548 145.277 196.973 146.597 199.062 148.561C197.396 149.75 195.813 150.703 193.898 151.447C188.433 153.571 177.035 155.758 171.154 155.738C167.823 155.726 164.457 155.093 161.172 154.577C160.552 150.61 160.87 144.08 161.933 140.209L162.111 140.242Z" fill="white"/>
<path d="M185.861 391.616C205.303 395.119 219.44 410.303 232.485 423.869C235.907 423.192 239.368 422.714 242.816 422.19L244.628 421.982L247.596 421.531L250.026 421.171L253.679 420.572L255.912 420.262C257.1 420.151 258.287 420.025 259.472 419.885L260.8 419.729L266.37 418.873C265.06 424.089 263.407 428.915 260.759 433.615C254.912 443.994 249.434 447.996 246.652 460.697C246.395 462.487 246.519 464.439 245.932 466.149C245.31 466.697 245.178 466.925 244.369 467.035C244.066 466.125 245.655 461.164 245.913 459.807C245.981 457.814 246.027 455.824 245.692 453.851C245.059 450.118 243.212 446.498 239.982 444.368C236.57 442.119 232.855 441.78 228.946 442.576C227.975 442.773 227.324 442.997 226.786 443.842C226.938 444.144 226.973 444.443 227.321 444.554C229.972 445.402 233.359 442.729 238.036 445.282C240.829 446.806 242.635 449.603 243.5 452.606C244.833 457.238 243.561 465.53 241.264 469.638L240.945 469.533C240.753 468.127 240.553 466.654 240.067 465.316C239.063 462.55 236.944 460.442 234.266 459.27C232.291 458.405 228.666 457.617 226.601 458.564C226.13 458.78 226.292 458.657 226.08 459.18L226.455 459.791C227.741 460.622 230.462 460.152 232.06 460.447C234.945 460.982 237.205 464.123 238.754 466.374C238.72 467.905 238.955 470.458 238.07 471.762C237.598 472.457 237.181 472.724 236.359 472.884C234.932 473.159 232.869 472.55 231.398 472.427C229.295 472.25 226.957 472.629 224.939 473.23C223.831 473.561 222.498 473.946 221.915 475.025C222.313 475.444 222.099 475.374 222.672 475.376C223.817 475.38 225.045 474.736 226.165 474.454C230.483 473.365 234.428 474.149 238.545 475.616C250.012 460.185 266.995 464.283 282.799 458.799C284.262 458.292 286.435 457.589 287.456 456.382C287.941 455.81 287.964 455.623 287.908 454.937C287.054 454.716 278.575 458.028 276.933 458.444C272.932 459.456 268.886 459.788 264.789 460.131C270.64 449.377 274.204 438.781 275.56 426.578C277.845 424.209 279.263 421.487 280.453 418.452C288.192 418.393 295 418.452 296.551 418.452C298.102 418.452 301.721 418.793 305.985 419.439C310.25 420.086 311.739 420.503 314.032 421.005C316.324 421.507 327.3 423.027 329.238 423.177C331.177 423.328 343.005 425.332 343.005 425.332C343.005 425.332 351.081 426.824 355.091 427.72C367.677 430.53 380.493 434.127 392.424 439.056C393.784 441.5 394.993 444.022 396.223 446.532C395.876 446.338 395.525 446.151 395.171 445.97C389.085 442.797 382.163 443.35 375.802 445.397C373.454 446.156 371.194 447.124 369.024 448.298C365.741 450.066 354.709 457.221 353.301 460.282C353.051 460.826 353.037 460.852 353.267 461.422C355.683 462.803 358.633 463.501 361.222 464.547C369.847 468.034 378.795 472.798 388.382 470.741C395.767 469.157 400.53 464.076 404.46 457.945C412.16 467.892 419.974 481.5 420.929 494.144C414.14 487.752 408 483.755 398.383 483.094C395.876 482.922 390.149 482.446 388.264 484.109C388.071 484.841 388.024 484.812 388.382 485.47C389.587 485.81 390.839 485.138 392.059 484.992C393.889 484.773 395.902 484.905 397.742 485.008C405.293 485.433 412.436 488.257 417.525 493.95C403.226 493.699 388.88 500.338 377.229 508.269C376.215 508.96 375.104 509.642 374.867 510.899L375.244 511.22C375.8 511.285 376.121 511.179 376.611 510.941C378.583 509.983 380.407 508.543 382.287 507.404C385.274 505.594 388.534 503.952 391.671 502.411C396.228 500.172 401.031 498.211 405.99 497.068C412.953 495.462 424.5 495.094 430.919 498.607C433.666 500.111 435.84 502.457 438.499 504.093C446.396 508.951 458.758 508.826 467.497 506.813C466.826 515.778 464.623 521.335 458.859 528.329C445.063 545.066 423.888 557.645 403.722 565.027C359.001 581.399 322.543 576.162 279.54 557.745C260.693 549.673 241.231 541.038 220.727 538.365C195.157 535.03 177.056 545.103 152.841 547.411C139.326 548.699 124.581 546.323 113.863 537.407C107.527 532.136 103.849 525.017 103.181 516.802C102.222 505.038 107.291 494.653 114.712 485.838C126.861 489.613 141.234 495.558 149.475 505.486C146.401 504.842 143.313 504.153 140.165 504.042C131.137 503.72 122.859 507.439 116.366 513.549C115.478 514.386 113.939 515.65 113.897 516.897L114.314 517.237C116.774 517.159 120.546 512.615 122.655 511.169C124.166 510.133 125.964 509.306 127.646 508.593C135.51 505.262 143.77 505.365 151.636 508.578C154.782 506.478 157.548 504.125 161.102 502.67C163.905 501.522 166.951 500.619 169.893 499.906C173.548 499.02 181.45 498.095 184.299 496.232C185.057 495.735 185.517 495.221 185.678 494.303L185.335 493.894C184.008 493.759 181.867 494.824 180.507 495.177C173.62 496.958 166.948 498.395 160.208 500.749C161.841 498.878 163.423 497.004 164.701 494.865C169.1 487.5 169.974 478.762 169.575 470.367C169.488 468.55 169.512 466.43 169.002 464.685C168.806 464.015 168.735 463.968 168.153 463.662C167.471 463.753 167 464.011 166.46 464.421C162.037 467.775 156.875 474.268 154.726 479.415C153.45 482.473 152.857 485.768 152.386 489.028C151.161 485.075 150.765 480.531 150.042 476.44C148.673 468.694 147.203 460.973 146.064 453.189C151.255 448.962 156.905 445.135 162.978 442.302C169.148 439.424 175.743 437.615 182.252 435.687C198.439 430.893 214.65 427.188 231.227 424.022C222.193 414.064 212.639 404.333 200.577 398.057C196.202 395.781 189.418 394.163 185.861 391.616Z" fill="#F1E8A5"/>
<path d="M339.599 462.998C340.138 463.23 340.49 463.49 340.956 463.84C341.503 465.171 339.714 473.211 339.449 475.11C337.994 485.569 337.595 496.201 335.543 506.568C337.663 502.354 340.187 498.112 343.378 494.62C347.91 489.659 353.476 487.183 359.776 485.269C361.604 484.714 363.842 483.978 365.769 484.002C366.571 484.012 366.889 484.126 367.428 484.7C367.456 486.739 363.618 489.206 362.103 490.634C355.022 497.309 349.291 505.248 344.061 513.417C349.665 510.573 356.706 507.106 362.985 506.359C363.798 506.262 364.382 506.096 365.025 506.623C364.992 506.676 364.972 506.74 364.926 506.781C362.387 509.059 356.935 509.715 353.728 510.929C349.204 512.642 345.026 515.183 340.534 516.923C337.844 517.964 334.939 518.63 332.171 519.446C327.36 520.864 322.534 522.42 317.622 523.454C313.725 524.274 309.742 524.72 305.815 525.38C303.533 525.764 301.272 526.322 298.979 526.633L298.591 526.314L298.68 525.741C301.484 523.238 314.799 522.696 319.555 521.165C314.912 519.757 310.66 516.995 306.389 514.719C305.831 514.46 305.267 514.215 304.697 513.986C304.126 513.757 303.55 513.543 302.968 513.345C302.386 513.146 301.799 512.964 301.207 512.797C300.615 512.63 300.019 512.479 299.419 512.344C298.819 512.209 298.216 512.09 297.61 511.988C297.004 511.885 296.395 511.799 295.784 511.729C295.173 511.659 294.561 511.605 293.947 511.568C293.333 511.531 292.719 511.51 292.104 511.507C290.456 511.505 288.132 511.826 286.549 511.389C285.918 511.215 285.907 511.073 285.628 510.529C285.843 509.992 286.088 509.715 286.552 509.388C291.335 506.013 298.283 507.088 303.629 508.091C298.115 503.06 289.422 496.507 283.1 492.363C280.54 490.685 276.665 489.377 274.522 487.306C274.062 486.862 274.205 486.777 274.201 486.175L274.711 485.66C275.612 485.351 276.36 485.235 277.315 485.254C290.977 485.524 304.19 493.013 313.522 502.554C310.68 494.181 306.887 485.479 302.555 477.751C301.48 475.832 295.732 468.045 295.562 467.074C295.907 466.383 295.915 466.391 296.62 466.069C297.485 466.104 298.144 466.238 298.936 466.602C310.683 472.005 320.417 484 324.753 496.007C326.454 486.06 328.997 477.864 334.609 469.356C336.074 467.135 337.618 464.794 339.599 462.998Z" fill="#2D2D2D"/>
<path d="M289.58 509.442C294.345 508.529 298.425 508.782 303.198 509.43C308.307 510.435 312.888 514.441 316.42 518.124C311.941 515.888 307.69 513.292 303.019 511.454C298.622 510.17 294.119 509.832 289.58 509.442Z" fill="#4FDB40"/>
<path d="M361.368 487.132L362.004 487.185C361.973 487.989 358.345 491.16 357.5 492.083C354.55 495.308 351.593 498.667 349.045 502.22C346.72 505.461 344.681 508.903 342.36 512.143C340.165 515.207 338.326 515.98 334.779 516.568C334.501 516.573 334.707 516.584 334.199 516.347C333.843 513.057 337.371 507.349 338.95 504.606C344.539 494.899 350.517 490.041 361.368 487.132Z" fill="#4FDB40"/>
<path d="M280.947 488.324C285.45 488.109 293.562 491.131 297.538 493.22C304.349 496.797 311.515 502.547 316.397 508.517C318.002 510.48 319.286 512.601 320.703 514.693C321.787 516.292 323.295 517.961 323.867 519.812C323.704 519.854 323.542 519.897 323.379 519.936C322.95 520.042 322.31 520.161 321.89 520.009C320.497 519.509 312.997 512.467 311.018 510.892C301.316 503.167 291.494 494.844 280.947 488.324Z" fill="#4FDB40"/>
<path d="M338.103 468.671C338.119 468.829 338.156 468.986 338.151 469.145C338.055 472.27 336.877 477.233 336.509 480.648L333.788 503.9C333.385 507.255 333.277 510.815 332.597 514.121C332.31 515.516 331.97 516.932 330.839 517.877C330.185 518.095 329.823 518.252 329.146 518.053L328.757 517.209C327.631 511.557 327.045 505.149 327.105 499.384C327.202 489.93 331.231 475.41 338.103 468.671Z" fill="#4FDB40"/>
<path d="M300.852 470.733C303.309 471.643 305.952 473.745 307.977 475.412C321.634 486.656 325.648 502.18 327.272 518.995L326.244 518.863C319 512.245 312.284 493.677 307.996 484.243C305.879 479.6 303.498 475.096 300.852 470.733Z" fill="#4FDB40"/>
<defs>
<linearGradient id="paint0_linear_1114_80517" x1="245.765" y1="423.995" x2="275.338" y2="421.917" gradientUnits="userSpaceOnUse">
<stop stop-color="#FFF6BD"/>
<stop offset="1" stop-color="white"/>
</linearGradient>
</defs>
</svg>
