<svg width="80" height="80" viewBox="0 0 80 80" fill="none" xmlns="http://www.w3.org/2000/svg">
<g clip-path="url(#clip0_1087_8894)">
<path d="M20.5978 30.498C21.2158 30.5841 21.743 30.7844 22.3088 31.0436C21.9225 31.1755 21.5279 31.2795 21.1343 31.3873C20.6324 31.4977 20.1395 31.5575 19.6279 31.5951C20.0382 31.2905 20.329 30.9281 20.5978 30.498Z" fill="#4FDB40"/>
<path d="M27.8736 25.1533L27.9142 25.1577L27.9426 25.1998C27.8513 25.4289 27.7059 25.6299 27.5811 25.8416C27.2766 26.3578 27.0358 26.8864 26.9099 27.4742C26.8948 27.5451 26.8959 27.5453 26.8435 27.6033L26.7959 27.4926C26.6872 27.1329 26.2819 26.0552 26.4525 25.735C26.6042 25.4503 27.5539 25.2691 27.8736 25.1533Z" fill="#4FDB40"/>
<path d="M25.8378 26.043C26.0045 26.2399 26.4943 27.9191 26.6324 28.2945C26.8231 28.8127 27.0242 29.3252 27.2816 29.8145L26.9306 30.1652C26.6566 29.8327 25.6661 27.1582 25.479 26.5487L25.8378 26.043Z" fill="#4FDB40"/>
<path d="M67.9729 58.2973C68.139 58.2803 68.3182 58.2873 68.4849 58.2988C69.1153 58.3426 69.7887 58.5653 70.2011 59.0693C70.3158 59.2095 70.4156 59.3919 70.3913 59.5793C70.3681 59.7576 70.235 59.8931 70.0926 59.9898C68.8171 60.8551 66.6601 60.2718 65.277 59.9706C64.6639 59.9225 63.2994 60.608 62.9464 60.5084C62.925 60.417 62.929 60.4154 62.9689 60.3296C63.6334 59.8889 64.4701 59.8408 65.1893 59.5498C65.385 59.4706 65.5603 59.2732 65.7303 59.1475C66.4218 58.636 67.119 58.3723 67.9729 58.2973Z" fill="white"/>
<path d="M68.0522 58.6484C68.3833 58.6189 68.7521 58.666 69.0705 58.7613C69.5456 58.9035 69.8777 59.1433 70.1105 59.5831C69.3275 59.9942 68.69 60.152 67.8033 60.061C67.0557 59.9916 66.3178 59.8 65.5698 59.7123C66.3265 59.0577 67.0572 58.742 68.0522 58.6484Z" fill="#2D2D2D"/>
<path d="M23.9485 26.5811C24.0047 26.6198 24.0608 26.655 24.1211 26.6874C24.4738 26.8764 24.7153 26.7987 25.0772 26.6915C25.3163 27.3864 25.5757 28.0736 25.8557 28.7529C26.0977 29.3474 26.3657 29.9404 26.567 30.5499C25.9712 31.3207 25.3777 32.1046 24.8826 32.9448C24.6538 32.6025 24.4247 32.2622 24.1579 31.9477C23.1254 30.7299 21.7915 30.0971 20.2163 29.962C20.3157 29.7668 20.3902 29.5618 20.4688 29.3577C20.5637 29.05 20.8765 29.0309 21.0174 28.4202C21.374 28.4257 21.6888 28.4109 21.9996 28.2182C22.6373 28.8319 23.3321 29.4324 23.8908 30.1194C24.0833 30.3563 24.7944 31.5631 24.9775 31.6475C24.9969 31.6564 25.0172 31.6638 25.0377 31.6695C25.0968 31.6858 25.0849 31.6732 25.1456 31.6343C25.1659 31.5815 25.1817 31.5348 25.1791 31.4771C25.1407 30.6137 22.9861 28.6389 22.2683 27.9795C22.3417 27.8008 22.3969 27.6129 22.4576 27.4296C22.6887 27.4245 22.9209 27.4021 23.1418 27.3301C23.5507 27.1967 23.7578 26.9467 23.9485 26.5811Z" fill="#4FDB40"/>
<path d="M26.0259 23.5695C26.3841 23.5276 26.7567 23.5244 27.1123 23.5891C27.4673 23.6537 27.8487 23.7945 28.0548 24.1096C28.1424 24.2436 28.1967 24.3828 28.1585 24.5425C27.9134 24.7423 27.4206 24.7935 27.113 24.8629C27.1491 24.5886 27.1719 24.3168 27.0923 24.0462C27.0642 23.9507 27.0352 23.9081 26.9487 23.8633L26.8464 23.8999C26.8112 24.1419 26.8183 24.3986 26.7409 24.6316C26.6069 25.0358 26.3473 25.2264 25.9805 25.3994L25.6591 24.9287C25.5792 24.813 25.4979 24.6524 25.3548 24.6262C25.201 24.8679 25.348 25.3933 25.3473 25.681C25.3469 25.8248 25.2636 25.992 25.158 26.0897C25.004 26.2324 24.7404 26.3813 24.524 26.3654C24.1116 26.3349 23.9255 25.7848 23.6748 25.5208C23.6162 25.4591 23.5999 25.4201 23.5136 25.4181C23.3915 25.7427 23.6171 26.1519 23.4051 26.5926C23.3276 26.7538 23.2037 26.8723 23.0303 26.9233C22.3141 27.1343 21.8857 26.3427 21.3279 26.0645L21.2502 26.1C21.2427 26.3789 21.6984 26.7363 21.8444 26.9894C21.9289 27.1358 22.0017 27.3453 21.9418 27.5137C21.8771 27.6957 21.7282 27.8005 21.5597 27.8816C20.7755 28.2584 20.3209 27.4392 19.6604 27.2009L19.6256 27.2386C19.7622 27.7337 20.4131 27.9429 20.5288 28.4641C20.5317 28.4773 20.5344 28.4907 20.5371 28.5041C20.5167 28.5384 20.5064 28.5584 20.4839 28.5888C19.9486 29.3127 19.0935 28.3747 18.5273 28.4467L18.5031 28.4984C18.5091 28.513 18.5136 28.5283 18.5209 28.5423C18.778 29.0386 19.4585 29.2073 19.9431 29.3586C19.6237 30.0037 19.3549 29.976 19.0102 30.4304L19.0226 30.4922C19.2842 30.6032 19.6937 30.5243 19.9681 30.4892C19.9249 30.5631 19.8786 30.6349 19.8291 30.7046C19.5985 31.0309 19.3019 31.3727 18.882 31.4301C18.669 31.4592 18.4605 31.3995 18.2924 31.2656C18.0139 31.0437 17.8923 30.6855 17.8509 30.3434C17.7129 29.2026 18.3539 28.0697 19.0299 27.2069C20.5651 25.2474 23.563 23.8695 26.0259 23.5695Z" fill="#4FDB40"/>
<path d="M38.6766 10.5636C40.4463 10.38 44.4325 10.7383 45.8702 11.7749C46.167 11.989 46.4538 12.2816 46.5009 12.6611C46.5501 13.0573 46.3117 13.4939 46.0627 13.7899C45.173 14.8476 42.7637 15.0578 41.4357 15.1684C39.5602 15.3644 36.4261 15.2085 34.8281 14.2151C34.2463 13.8534 33.8152 13.345 33.6582 12.6708C33.7515 12.5134 33.8555 12.369 33.9774 12.2327C35.0975 10.9815 37.087 10.6479 38.6766 10.5636Z" fill="white"/>
<path d="M33.3558 13.3066C33.6093 13.5616 33.7777 13.9134 34.034 14.1766C35.2932 15.4695 38.0605 15.6871 39.7977 15.7054C41.5277 15.7236 44.7314 15.499 46.0974 14.4233C46.5185 14.0916 46.5255 13.7452 46.823 13.4534C46.884 13.6623 46.8973 13.8405 46.8091 14.0451C46.6613 14.388 46.2981 14.6463 45.9857 14.8323C44.559 15.6817 42.6369 15.9241 41.0208 16.1972C40.4144 16.2996 39.7361 16.371 39.1716 16.6178L39.1197 16.6409C39.349 16.6753 39.5733 16.6982 39.8055 16.7011C41.3959 16.7205 44.3326 16.1627 45.7557 15.4719C46.1849 15.2635 46.5372 15.0071 46.8786 14.6755C46.8549 14.9827 46.8452 15.2998 46.7692 15.5991C45.3842 16.6153 43.3864 17.0204 41.718 17.3104C41.1659 17.4063 40.5501 17.4523 40.0159 17.6197C39.9469 17.6413 39.8822 17.6457 39.8472 17.7106C39.8867 17.7435 39.9173 17.7598 39.9687 17.7683C40.4312 17.844 40.9573 17.7941 41.4225 17.7518C43.2625 17.5844 45.2394 17.0977 46.794 16.0733C46.7744 16.3841 46.7537 16.6923 46.7107 17.0009C45.7138 17.95 43.1527 18.3691 41.7875 18.5176C41.4645 18.5665 41.1512 18.618 40.8369 18.7084C41.0133 18.7697 41.1919 18.8204 41.3776 18.8437C42.8448 19.0276 45.4655 18.4405 46.6537 17.523C46.6144 18.0724 46.576 18.7339 46.2154 19.1801C45.3538 20.246 42.0558 20.8385 40.6958 20.9588C38.6178 21.1427 35.8141 20.9494 34.1735 19.5496C33.5501 19.0178 33.524 18.4251 33.464 17.6734C33.818 18.0207 34.2341 18.3288 34.6545 18.5907C35.7083 19.2473 36.9279 19.5123 38.1457 19.2298C37.6783 19.1052 37.1773 19.0638 36.7019 18.9648C35.3683 18.6872 34.3336 17.9939 33.4112 17.0136C33.3949 16.7448 33.393 16.4738 33.3848 16.2045C34.2577 16.9693 35.5706 17.5966 36.7493 17.5649C36.8727 17.5616 37.067 17.5663 37.1525 17.4751C37.0076 17.3272 35.5643 16.9521 35.2205 16.8102C34.5501 16.5334 33.9348 16.1248 33.3569 15.6915L33.3484 14.9742C33.8098 15.436 34.3287 15.8074 34.9204 16.0857C35.3304 16.2785 36.3637 16.6386 36.805 16.48L36.8104 16.4386L36.718 16.4229L36.7956 16.3669L36.7305 16.3821C36.3673 16.1897 35.9644 16.0578 35.5855 15.8975C34.8013 15.5658 33.896 15.0406 33.3662 14.3592L33.3287 14.3107C33.3174 13.9784 33.3057 13.6359 33.3558 13.3066Z" fill="white"/>
<path d="M45.5546 18.6855C45.6201 18.7077 45.6179 18.7185 45.659 18.7702C45.6299 18.8595 45.5777 18.902 45.5032 18.9559C45.2618 19.1309 44.9421 19.2372 44.6618 19.3306C43.6214 19.6773 42.5794 19.8125 41.4927 19.6477C41.4126 19.6253 41.3729 19.6005 41.3047 19.5555L41.3018 19.4917C41.6872 19.2829 42.6643 19.3031 43.1441 19.2241C43.9589 19.09 44.7439 18.8259 45.5546 18.6855Z" fill="#2D2D2D"/>
<path d="M72.3856 39.2119L72.4995 39.2271C72.5619 39.2666 72.6045 39.2957 72.6433 39.3607C72.7091 39.4713 72.7222 39.6734 72.7451 39.8018C72.8565 40.4269 72.9178 41.0188 72.7113 41.6321C72.3584 42.6805 71.4212 43.6143 70.4413 44.0923C70.1688 44.6443 69.9546 45.2384 69.7222 45.8092C69.29 46.8714 68.858 47.9416 68.4913 49.0283C69.6998 48.5122 69.5178 48.4729 70.3931 47.6181C71.0899 46.9375 72.0315 46.7164 72.9838 46.7264C73.2864 46.7296 73.7039 46.7288 73.9282 46.9581C73.9938 47.1247 73.9582 47.3058 73.9286 47.4784C73.8442 47.9704 73.5426 48.375 73.1383 48.6568C72.0582 49.4098 70.6476 49.2075 69.4355 48.9809C69.0777 49.1203 68.722 49.2651 68.3685 49.4151C67.5046 51.8886 66.4775 54.346 65.2458 56.6595C66.1455 55.995 66.9872 55.4438 68.0367 55.0323C68.2877 54.6066 68.5663 54.1889 68.8991 53.8223C69.5164 53.1425 70.4111 52.6525 71.3412 52.6204C71.7244 52.6072 72.3408 52.6514 72.6273 52.9228C72.6617 52.9957 72.6743 53.0482 72.6647 53.1277C72.5994 53.6759 72.1201 54.309 71.7033 54.6514C70.7223 55.4574 69.4876 55.3741 68.3023 55.2556C67.1445 55.7551 65.9479 56.3558 65.0387 57.2536C64.5683 57.7179 64.2527 58.3622 63.8582 58.8937C63.4733 59.4043 63.065 59.8954 62.633 60.3668C62.2011 60.8382 61.7476 61.2879 61.2726 61.7159C61.8455 61.691 62.4239 61.6468 62.9925 61.7445C64.147 61.943 65.0321 62.5604 65.7031 63.5089C65.1255 63.7909 64.4367 63.9655 63.7927 63.8871C62.5544 63.7364 61.7464 62.922 61.0215 61.9836C59.217 63.6446 56.6725 65.72 54.2651 66.381C54.6932 66.1655 55.116 65.9401 55.5336 65.7049C57.5977 64.5841 59.3453 63.0829 61.024 61.4564C61.5656 60.9316 62.1292 60.4066 62.602 59.8176C62.5369 59.5 62.5351 59.1974 62.5379 58.8748C62.4279 58.8095 62.3169 58.7436 62.2137 58.668C61.2391 57.9532 60.7345 56.7673 60.5613 55.6025C60.523 55.3447 60.4179 54.6106 60.6147 54.4118C60.6839 54.3418 60.7919 54.3221 60.8862 54.332C61.4044 54.3864 62.0712 54.9435 62.3941 55.3346C63.1665 56.2697 62.9645 57.2471 62.8683 58.3582C62.8476 58.5972 62.7555 59.3352 62.9036 59.5118C62.9723 59.4788 62.959 59.4961 62.9983 59.4437C64.1249 57.9423 64.7324 56.9217 65.5843 55.2511C65.2479 54.2677 65.1521 53.2207 64.7265 52.2581C63.8474 51.6516 63.0933 50.8178 62.8262 49.7576C62.5973 48.849 62.7579 47.8117 63.2357 47.0086C63.4584 47.0889 63.6561 47.2 63.8433 47.3437C64.9205 48.1705 65.2665 49.5287 65.1885 50.8296C65.1615 51.2794 65.0453 51.7715 65.1078 52.2182C65.1512 52.5278 65.2711 52.8436 65.3612 53.1432C65.5347 53.7203 65.6929 54.2888 65.7678 54.8886C66.1832 54.0892 68.2105 49.2768 68.1712 48.6992C68.0996 47.6463 67.5551 46.7168 67.3109 45.7112C67.3074 45.6968 67.3042 45.6823 67.3008 45.6679C66.61 45.0129 66.0333 44.2663 65.763 43.3414C65.5201 42.51 65.6712 41.7709 66.0773 41.0214C66.2388 41.0774 66.3929 41.1492 66.5396 41.2368C67.7391 41.9607 68.0088 43.1377 67.801 44.4558C67.7431 44.8235 67.6038 45.224 67.6358 45.5961C67.6762 46.0665 67.9419 46.5685 68.0995 47.0121C68.2333 47.3889 68.3397 47.7693 68.4371 48.1568C68.7944 47.3544 69.0876 46.5195 69.4167 45.7049C69.6479 45.1325 69.983 44.4999 70.1177 43.9002C70.1805 43.6208 70.1309 43.2983 70.1275 43.0135C70.1201 42.4109 70.2351 41.7356 70.4538 41.1725C70.8253 40.2158 71.4628 39.6243 72.3856 39.2119Z" fill="white"/>
<path d="M62.1511 62.0074C62.2096 62.0032 62.2658 62.0004 62.3245 62.0011C63.4738 62.0135 64.4048 62.5449 65.1934 63.3418C65.0107 63.407 64.8212 63.4549 64.6345 63.5075C64.3942 63.5545 64.1344 63.5685 63.8901 63.549C62.8958 63.4692 62.1371 62.8143 61.5146 62.0878C61.7265 62.0583 61.9386 62.0315 62.1511 62.0074Z" fill="#2D2D2D"/>
<path d="M66.2167 41.4238C66.5755 41.66 66.9159 41.9112 67.1591 42.2718C67.7191 43.1018 67.5371 44.3409 67.3512 45.2619C66.9016 44.8213 66.5009 44.2113 66.2461 43.6384C65.8974 42.8543 65.9119 42.2271 66.2167 41.4238Z" fill="#2D2D2D"/>
<path d="M60.8328 54.666C61.3367 54.8332 61.788 55.1283 62.1223 55.5435C62.8207 56.4109 62.6391 57.4119 62.5283 58.4321L62.5114 58.4601C62.3708 58.4446 62.0896 58.1109 61.9851 57.9958C61.168 57.0967 60.7774 55.8749 60.8328 54.666Z" fill="#2D2D2D"/>
<path d="M72.3092 47.0813C72.6681 47.0634 73.2978 46.9856 73.6121 47.1623C73.6262 47.2032 73.6335 47.2156 73.6332 47.2647C73.6318 47.5645 73.4421 47.9341 73.2422 48.148C72.7228 48.7038 71.9589 48.8293 71.2368 48.8578C70.7482 48.8445 70.2732 48.7952 69.792 48.7096C70.5667 47.8595 71.1334 47.271 72.3092 47.0813Z" fill="#2D2D2D"/>
<path d="M71.2243 52.9834C71.5986 52.9363 71.9924 53.0182 72.3502 53.1213C72.2205 53.4314 72.0715 53.7253 71.8604 53.9886C71.304 54.6825 70.5689 54.9093 69.7149 54.9966C69.3118 55.012 68.9215 54.9727 68.522 54.9233C68.6681 54.6751 68.8219 54.4369 69.0028 54.2122C69.5753 53.5012 70.3173 53.084 71.2243 52.9834Z" fill="#2D2D2D"/>
<path d="M72.3225 39.5654C72.3317 39.575 72.3421 39.5836 72.3501 39.5943C72.5589 39.873 72.5668 40.8475 72.4979 41.2127C72.3154 42.1796 71.4029 43.1454 70.6147 43.6757C70.5945 43.6884 70.5379 43.7008 70.5141 43.708C70.507 43.6992 70.4987 43.6912 70.4929 43.6814C70.3306 43.4057 70.5485 41.9625 70.6433 41.6176C70.8969 40.6943 71.4991 40.0282 72.3225 39.5654Z" fill="#2D2D2D"/>
<path d="M63.3686 47.4082C63.4235 47.4421 63.4773 47.476 63.5301 47.5133C64.2347 48.0101 64.6669 48.7679 64.8126 49.6119C64.8739 49.9667 64.9501 51.603 64.7616 51.8686L64.6911 51.8434C64.6189 51.7909 64.5484 51.7363 64.4797 51.6795C64.4109 51.6226 64.344 51.5636 64.279 51.5025C64.2139 51.4415 64.1507 51.3784 64.0896 51.3134C64.0285 51.2485 63.9694 51.1817 63.9124 51.113C63.8554 51.0443 63.8007 50.9739 63.7481 50.9018C63.6955 50.8297 63.6452 50.7561 63.5973 50.6809C63.5493 50.6056 63.5037 50.5289 63.4605 50.4509C63.4173 50.3728 63.3766 50.2934 63.3383 50.2128C62.9084 49.2854 63.03 48.3439 63.3686 47.4082Z" fill="#2D2D2D"/>
<path d="M48.923 34.1489C49.0965 34.1265 49.2768 34.1258 49.4515 34.1329C50.6385 34.1817 52.3758 34.9186 53.1864 35.7948C52.8665 36.3038 52.2055 36.6914 51.685 36.9638C47.2086 39.3064 38.5745 39.5453 33.6322 38.7642C33.1309 38.6857 32.6333 38.588 32.1395 38.471C31.6457 38.354 31.1572 38.2181 30.6739 38.0632C29.3207 37.5994 27.8662 36.9536 26.8794 35.886C27.7444 35.2919 28.9228 34.3091 30.0005 34.2295C31.0517 34.1519 32.126 34.7145 33.1098 35.0206C33.6932 35.1981 34.2863 35.3328 34.8891 35.4248C35.9324 35.5838 36.9866 35.6534 38.0397 35.7069C40.6971 35.8419 42.9111 35.7526 45.5142 35.1349C46.6605 34.8629 47.7701 34.3582 48.923 34.1489Z" fill="#F2C94C"/>
<path d="M53.6103 36.0156C54.4077 40.221 53.7483 44.4738 53.7105 48.712C52.9959 48.172 52.2892 47.6515 51.4977 47.2272C50.7415 46.8218 47.1787 45.227 46.5312 45.4227C46.1717 44.553 45.5683 43.8702 44.8927 43.2271C43.4472 41.8516 41.3031 40.6898 39.2582 40.75C36.2441 40.8387 33.593 42.738 31.6043 44.8539C31.2394 44.8301 30.8282 44.9713 30.4753 45.0591C28.9479 45.4392 27.4724 45.9435 26.0853 46.6984C25.9352 43.797 25.5378 38.9116 26.5161 36.2262C27.4537 37.0745 28.4913 37.7392 29.6599 38.2279C33.2172 39.7152 38.2237 39.7708 42.0418 39.5799C45.0154 39.4313 47.9243 39.0159 50.7082 37.9294C51.6395 37.5659 52.678 37.0951 53.359 36.3411C53.4522 36.2379 53.5334 36.1313 53.6103 36.0156Z" fill="#F2C94C"/>
<path d="M44.7208 20.708C44.8298 20.8911 44.7901 21.3959 44.8011 21.6209C44.8622 22.8766 45.0326 24.1947 45.808 25.2292C46.7629 26.5031 48.3172 27.0726 49.6679 27.8162C51.7558 28.9656 53.6857 30.8623 54.7698 32.9882C55.1421 33.7182 55.3382 34.495 55.4738 35.2993C55.8812 37.7152 55.8712 40.5527 55.9269 43.0261C55.999 45.2891 56.0178 47.5525 55.9833 49.8164C55.9487 52.0804 55.8609 54.3422 55.7197 56.6019C55.6158 58.104 55.5022 59.6124 55.3001 61.105C55.1538 62.1846 54.9169 63.2814 54.5815 64.3183C54.0169 66.0646 53.4329 66.9726 51.7469 67.8196C48.318 69.5421 37.2336 69.8487 33.2969 69.4758C32.1737 69.3694 31.0287 69.1681 29.956 68.8138C28.5098 68.3362 27.3241 67.6044 26.6302 66.2121C25.6653 64.276 25.3556 59.9707 25.1326 57.6829C25.0347 56.6772 24.8964 55.6744 24.8127 54.6674C24.5484 51.2266 24.3485 47.782 24.2132 44.3336C24.148 42.8511 24.0747 41.3728 24.0436 39.8889C24.0254 39.0251 23.9951 38.1639 24.0784 37.3024C24.227 35.7653 24.6557 34.2639 25.455 32.935C26.4835 31.2249 27.8741 29.8343 29.4502 28.6265C31.2374 27.257 34.1739 26.1301 34.9243 23.8857C34.9955 23.6591 35.0536 23.4292 35.0987 23.196C35.1438 22.9627 35.1756 22.7277 35.1941 22.4909C35.215 22.2221 35.1518 21.0475 35.2544 20.9114C35.4668 20.9421 35.6679 21.0465 35.8644 21.1296C35.8693 21.2755 35.8728 21.4214 35.8751 21.5674C35.8983 22.7979 35.8712 24.0901 35.3184 25.2179C34.6234 26.6355 32.3875 27.8637 31.1059 28.8206C30.7208 29.1046 30.3477 29.4037 29.9868 29.718C29.6258 30.0322 29.2781 30.3605 28.9438 30.7029C27.9426 31.7468 27.0193 33.0214 26.5681 34.4075C26.4448 34.7863 26.3916 35.179 26.2838 35.5607C26.1434 36.0576 25.9362 36.5277 25.8115 37.0339C25.3374 38.959 25.3726 40.9408 25.4201 42.9085C25.5263 47.3188 25.9401 51.7142 26.3625 56.1026C26.5883 58.449 26.6772 61.0093 27.2982 63.2795C27.5613 64.2414 27.9701 65.235 28.7095 65.9308C29.384 66.5656 30.2819 66.986 31.1707 67.2213C32.7093 67.6287 34.4126 67.6575 35.9976 67.7246C38.3604 67.8325 40.724 67.8509 43.0882 67.78C45.8196 67.6822 49.9895 67.5133 51.9646 65.3708C52.5323 64.755 52.9305 64.0196 53.1882 63.2256C53.708 61.6236 53.8426 59.862 53.9614 58.1917C54.2076 54.7276 54.1375 51.2564 54.215 47.7862C54.2779 44.9698 54.555 42.1504 54.4451 39.3329C54.2628 34.6552 52.6074 31.1969 48.6915 28.5318C47.6507 27.8235 46.3855 27.3193 45.4661 26.4594C43.9961 25.0847 43.9652 22.8512 43.9051 20.9862C44.1795 20.9007 44.4499 20.804 44.7208 20.708Z" fill="white"/>
<path d="M36.2893 21.2638C38.6533 21.8913 41.1289 21.655 43.473 21.0811C43.5224 21.4671 43.5165 21.8682 43.5317 22.2575C43.5724 23.2965 43.7017 24.2719 44.1009 25.2414C44.8673 27.103 46.6683 27.773 48.2405 28.7979C50.666 30.3789 52.4429 32.4874 53.3467 35.2629C52.4351 34.4184 51.0603 33.8811 49.854 33.6498C48.32 33.5928 47.6714 34.0268 46.2775 34.4196C45.3804 34.6725 44.4524 34.8732 43.5328 35.0228C41.7158 35.3186 39.9399 35.3035 38.1049 35.2104C36.6536 35.1368 35.1857 35.0148 33.7692 34.6738C32.666 34.4082 31.6459 33.9125 30.5174 33.7407C29.0172 33.6459 27.9863 34.578 26.8228 35.3839C27.2927 32.7615 29.5632 30.4894 31.6521 28.9838C32.7126 28.2194 33.9285 27.5081 34.852 26.5774C36.3708 25.0467 36.3029 23.2688 36.2893 21.2638Z" fill="white"/>
<path d="M30.5176 33.7404C31.2702 33.443 31.9899 33.0607 32.744 32.7602C33.28 32.5495 33.8226 32.3573 34.3716 32.1834C34.9207 32.0096 35.475 31.8545 36.0345 31.7182C36.5941 31.5819 37.1577 31.4647 37.7252 31.3666C38.2927 31.2686 38.8629 31.1899 39.4358 31.1304C43.281 30.7432 46.7678 31.1255 49.8541 33.6494C48.3202 33.5924 47.6716 34.0264 46.2777 34.4193C45.3805 34.6722 44.4525 34.8728 43.533 35.0224C41.7159 35.3182 39.94 35.3031 38.1051 35.21C36.6537 35.1365 35.1859 35.0144 33.7694 34.6734C32.6661 34.4078 31.646 33.9122 30.5176 33.7404Z" fill="#F2C94C"/>
<path d="M52.2427 29.1367C52.6634 27.973 52.8393 26.8271 52.7597 25.5886C52.5719 22.6699 50.9054 19.4789 52.6302 16.7294C52.6868 16.6389 52.7465 16.5504 52.8093 16.4641C52.8722 16.3778 52.938 16.2938 53.0068 16.2121C53.0756 16.1304 53.1472 16.0513 53.2216 15.9747C53.296 15.8981 53.373 15.8242 53.4525 15.753C53.5322 15.6818 53.6142 15.6136 53.6986 15.5482C53.7831 15.4828 53.8697 15.4205 53.9586 15.3613C54.0474 15.3021 54.1382 15.246 54.231 15.1932C54.3238 15.1404 54.4184 15.0909 54.5147 15.0448C56.0132 14.3349 57.7894 14.6269 59.2887 15.1714C60.6501 15.6659 61.906 16.407 63.16 17.1215C66.5509 19.0534 70.2381 21.3313 71.9341 25.0094C72.8346 26.9619 72.84 28.9399 72.0922 30.9442C70.9136 34.103 68.2964 36.2729 65.6952 38.2565C63.8379 39.6728 62.1819 40.8621 61.0486 42.9919C59.5354 45.836 60.4715 49.0766 60.423 52.1239C60.3993 53.6105 60.1768 55.0305 59.8476 56.4774C59.1173 59.6873 57.7484 63.2571 54.8661 65.1241C55.7438 62.1265 56.0088 59.1998 56.2105 56.0966C56.4527 52.0942 56.512 48.0891 56.3885 44.0813C56.3532 42.6488 56.3084 41.2166 56.2543 39.7847C56.2397 39.4035 56.1302 38.3055 56.2002 37.9807C56.1907 37.831 56.1707 37.6805 56.1555 37.5312C56.1197 37.3051 56.119 37.0735 56.137 36.8458C56.0883 36.5196 56.0606 36.1952 56.0462 35.8659L56.0358 35.8303C55.8722 35.2509 55.8152 34.6482 55.6378 34.0668C55.0518 32.1465 53.7767 30.4171 52.2427 29.1367Z" fill="#4FDB40"/>
<path d="M60.1412 17.9043C60.1729 17.9091 60.2288 17.9165 60.2578 17.9266C60.4952 18.0095 60.4586 18.5789 60.6361 18.7953C60.8476 19.0536 61.4051 19.1736 61.5265 19.4334L61.4915 19.5102C61.319 19.6287 61.1351 19.653 60.9454 19.7288C60.5524 19.886 60.4087 20.3748 60.2669 20.7326C60.2423 20.7342 60.2176 20.7405 60.1931 20.7374C59.9404 20.7054 59.8806 20.12 59.7622 19.9291C59.5562 19.597 59.1187 19.607 58.939 19.33L58.9612 19.2491C59.1357 19.0897 59.3822 19.0312 59.5901 18.9235C60.0328 18.6941 60.002 18.3352 60.1412 17.9043Z" fill="white"/>
<path d="M61.0297 35.9443C61.8603 35.4108 62.8934 34.6383 63.9482 34.8823C64.3329 34.9713 64.7335 35.1906 64.9339 35.5439C65.0219 35.6988 65.0582 35.8739 64.9991 36.046C64.9015 36.3299 64.5816 36.529 64.3194 36.6382C63.5029 36.9782 62.2624 36.9108 61.459 36.5635C61.2595 36.4773 61.0271 36.339 60.8154 36.3053C60.0781 36.188 58.8869 36.5336 58.2016 36.8036C57.4514 37.0992 56.8691 37.5509 56.2 37.98C56.1905 37.8304 56.1704 37.6799 56.1553 37.5305C57.5992 36.5342 59.2461 35.8428 61.0297 35.9443Z" fill="white"/>
<path d="M63.3283 35.2019C63.6946 35.1875 64.0662 35.2075 64.3894 35.4047C64.5233 35.4863 64.643 35.6095 64.6624 35.7722C64.6775 35.8979 64.6226 36.0118 64.5364 36.0993C64.1955 36.4452 63.4676 36.5114 63.0038 36.5005C62.4253 36.4768 61.9136 36.3454 61.3726 36.1447C62.0323 35.8136 62.5897 35.3603 63.3283 35.2019Z" fill="#4FDB40"/>
<path d="M56.0459 35.8654C56.2744 35.1681 56.5535 34.5169 56.9193 33.8793C57.1482 33.4802 57.4197 33.1054 57.6078 32.6847C57.6144 32.6698 57.6221 32.6554 57.6288 32.6405C57.7829 32.2962 57.6535 30.843 57.5007 30.4829C57.4045 30.2558 57.1889 30.0656 57.0408 29.8688C56.5886 29.268 56.6606 28.4396 56.906 27.7698C57.0625 27.3425 57.3539 26.8687 57.7758 26.6667C57.9387 26.5888 58.1186 26.5711 58.2868 26.6433C58.5103 26.7391 58.658 26.9771 58.7393 27.1962C58.974 27.8293 58.7833 28.5253 58.5023 29.1093C58.3091 29.5108 58.0643 29.8636 57.7884 30.2119C58.0121 30.8556 58.1087 31.6676 57.9642 32.3389C59.3819 30.8419 60.5803 30.036 62.5582 29.3446C62.8062 28.3705 63.2173 27.7025 64.1022 27.181C64.6463 26.8604 65.2896 26.673 65.9153 26.8444C66.1382 26.9056 66.3996 27.0151 66.5195 27.2266C66.5287 27.2427 66.537 27.2591 66.5445 27.276C66.5519 27.2929 66.5585 27.3101 66.5641 27.3277C66.5697 27.3453 66.5744 27.3631 66.5782 27.3812C66.5819 27.3992 66.5847 27.4175 66.5866 27.4358C66.5884 27.4542 66.5893 27.4726 66.5892 27.4911C66.5891 27.5096 66.588 27.528 66.586 27.5463C66.5839 27.5646 66.5809 27.5828 66.5769 27.6009C66.573 27.6189 66.5681 27.6367 66.5622 27.6542C66.38 28.2034 65.1063 29.0725 64.5457 29.2812C63.7958 29.5602 62.9714 29.6168 62.2053 29.8708C59.84 30.6547 57.9171 32.563 56.8658 34.7888C56.7106 35.1176 56.586 35.4624 56.4762 35.8087C56.3786 36.1164 56.3114 36.5836 56.1367 36.8453C56.088 36.5191 56.0603 36.1948 56.0459 35.8654Z" fill="white"/>
<path d="M57.9775 26.9473C58.0639 26.9543 58.1475 26.9596 58.223 27.0061C58.3813 27.1034 58.4794 27.2607 58.5135 27.4416C58.6789 28.322 58.044 29.2744 57.5548 29.9387C57.4243 29.8152 57.299 29.6555 57.2108 29.4981C56.9812 29.0886 57.003 28.5816 57.1262 28.1424C57.2643 27.6501 57.5225 27.2044 57.9775 26.9473Z" fill="#4FDB40"/>
<path d="M65.2405 27.1178C65.3248 27.1123 65.4064 27.1081 65.4909 27.1147C65.7742 27.1369 66.0302 27.2136 66.2162 27.4373C66.2424 27.5394 66.2606 27.5857 66.2164 27.6883C66.1421 27.8607 65.9498 28.0089 65.8078 28.1268C65.208 28.625 64.6145 28.8923 63.8677 29.1086C63.541 29.176 63.2095 29.2266 62.8809 29.2838C62.9847 28.9758 63.0966 28.6869 63.2782 28.4153C63.3063 28.3736 63.3355 28.3326 63.3656 28.2923C63.3958 28.252 63.4269 28.2125 63.459 28.1738C63.4911 28.135 63.5241 28.0971 63.558 28.06C63.592 28.0229 63.6268 27.9866 63.6626 27.9512C63.6983 27.9158 63.7349 27.8813 63.7723 27.8477C63.8097 27.814 63.848 27.7814 63.887 27.7496C63.926 27.7179 63.9658 27.6872 64.0063 27.6574C64.0469 27.6276 64.0882 27.5989 64.1302 27.5711C64.1721 27.5434 64.2147 27.5167 64.258 27.4911C64.3013 27.4654 64.3451 27.4408 64.3896 27.4173C64.4341 27.3938 64.4791 27.3714 64.5247 27.3501C64.5703 27.3289 64.6164 27.3087 64.663 27.2897C64.7095 27.2707 64.7565 27.2529 64.804 27.2361C64.8514 27.2194 64.8993 27.2039 64.9475 27.1896C64.9957 27.1752 65.0443 27.162 65.0931 27.15C65.142 27.1381 65.1911 27.1273 65.2405 27.1178Z" fill="#4FDB40"/>
<path d="M31.6039 44.8542C33.5927 42.7382 36.2438 40.839 39.2578 40.7503C41.3028 40.6901 43.4468 41.8518 44.8923 43.2274C45.5679 43.8704 46.1714 44.5533 46.5308 45.423C47.1784 45.2273 50.7411 46.8221 51.4974 47.2275C52.2889 47.6518 52.9956 48.1723 53.7102 48.7123C53.6503 52.2066 53.7211 55.681 53.3842 59.1654C53.2286 60.775 53.0809 62.4093 52.4083 63.9C51.6711 65.2802 50.5681 66.1033 49.0746 66.5537C47.9063 66.9061 46.6677 67.0892 45.4551 67.2032C42.3796 67.4922 39.2031 67.4306 36.121 67.2778C34.663 67.2055 33.1526 67.1498 31.7197 66.8536C31.0971 66.725 30.4967 66.5218 29.9375 66.2168C29.4821 65.9683 29.019 65.6353 28.7057 65.2159C28.2318 64.651 27.9595 63.9315 27.7749 63.2265C27.2239 61.1227 27.0986 58.8594 26.886 56.7002C26.553 53.3717 26.286 50.0378 26.085 46.6987C27.4721 45.9438 28.9475 45.4395 30.475 45.0594C30.8279 44.9716 31.239 44.8304 31.6039 44.8542Z" fill="#2D2D2D"/>
<path d="M41.5781 48.5615L41.6659 48.5725L41.6634 48.6398C41.5882 48.754 41.5152 48.8421 41.4123 48.9324C41.3421 48.8536 41.2662 48.787 41.248 48.679C41.3259 48.5914 41.4678 48.5845 41.5781 48.5615Z" fill="#FEF38F"/>
<path d="M32.8916 49.167C33.0929 49.2151 33.3317 49.2068 33.5047 49.3244C33.5815 49.4611 33.5539 49.5435 33.5438 49.6975C33.2289 49.6335 33.0619 49.4204 32.8916 49.167Z" fill="#FEF38F"/>
<path d="M37.3296 51.5713L37.3491 51.5843C37.3953 51.7096 37.3661 51.8522 37.3555 51.9846L36.6107 51.8989L36.4974 51.8611L36.4849 51.8166C36.7089 51.6839 37.0725 51.6454 37.3296 51.5713Z" fill="#FEF38F"/>
<path d="M43.7508 48.1758L43.7692 48.2046C43.7473 48.342 43.6829 48.4619 43.595 48.5698C43.4264 48.777 43.2695 48.8187 43.0144 48.8466L42.98 48.7886C43.0965 48.6184 43.2146 48.4492 43.3342 48.2811L43.7508 48.1758Z" fill="#FEF38F"/>
<path d="M37.0034 49.242C37.1384 49.2265 37.2948 49.179 37.4162 49.254C37.492 49.3944 37.4489 49.6183 37.4401 49.7754L37.1607 49.6543C36.9441 49.5386 36.7328 49.408 36.52 49.285L37.0034 49.242Z" fill="#FEF38F"/>
<path d="M33.509 56.085L33.5392 56.0936C33.6766 56.264 33.6565 57.0231 33.6326 57.2639C33.6242 57.3489 33.6324 57.3785 33.564 57.4352L33.5201 57.3747L33.1987 56.2721L33.509 56.085Z" fill="#F2C94C"/>
<path d="M34.5035 55.5361L34.5498 55.5575C34.6765 55.8053 34.6145 56.2013 34.6002 56.4727C34.5222 56.5911 34.4205 56.6946 34.3259 56.8L34.2828 56.8175C34.1793 56.6246 34.2182 55.9754 34.2808 55.7486C34.3174 55.616 34.394 55.5993 34.5035 55.5361Z" fill="#F2C94C"/>
<path d="M35.4435 55.2344C35.5018 55.2344 35.5309 55.2423 35.5851 55.2602C35.5702 55.5297 35.1315 55.9709 34.9584 56.1859L34.9094 56.2245C34.8227 56.0555 34.8629 55.6215 34.8477 55.4122L35.4435 55.2344Z" fill="#F2C94C"/>
<path d="M33.7373 50.1865C34.2775 50.3514 34.8312 50.4695 35.3723 50.6375L35.3855 50.6755L35.31 50.6901C35.0504 50.7425 34.7941 50.796 34.5393 50.8684C34.2568 50.6639 33.9992 50.4167 33.7373 50.1865Z" fill="#F2C94C"/>
<path d="M44.251 48.0498C44.3299 48.0504 44.4136 48.0477 44.4917 48.0591C44.5972 48.0746 44.6352 48.1089 44.6984 48.1899C44.7131 48.3331 44.6363 48.431 44.5668 48.5492L44.1678 48.6398L43.647 48.7636C43.8382 48.5159 43.9448 48.1597 44.251 48.0498Z" fill="#FEF38F"/>
<path d="M30.7808 58.9668C30.9483 59.0085 31.0466 59.2061 31.1392 59.3412C31.0465 59.4227 30.9655 59.5126 30.8407 59.5385C30.7511 59.4976 30.683 59.4684 30.5841 59.4548L30.5772 59.472C30.6586 59.5247 30.7078 59.5487 30.7583 59.6351L30.6787 59.7368C30.6232 59.7961 30.5653 59.8442 30.5012 59.8941C30.3471 59.8991 30.2456 59.8238 30.1108 59.7553C30.294 59.4574 30.5231 59.2016 30.7808 58.9668Z" fill="#F2C94C"/>
<path d="M35.6853 50.8329C35.9577 50.7829 36.1818 50.9373 36.4179 51.0555C36.093 51.1541 35.7707 51.2502 35.4386 51.3228C35.0963 51.3544 34.906 51.1478 34.6494 50.951C34.9996 50.9329 35.3392 50.8857 35.6853 50.8329Z" fill="#FEF38F"/>
<path d="M41.4652 49.2852C41.5764 49.3959 41.6646 49.5493 41.7556 49.6781C41.4609 49.9666 41.1699 50.2555 40.8907 50.5591C40.8548 50.5991 40.8798 50.5769 40.8053 50.6119C40.7109 50.5399 40.6752 50.3672 40.6367 50.2555C40.9391 49.9573 41.1997 49.6158 41.4652 49.2852Z" fill="#FEF38F"/>
<path d="M36.0259 49.9814C36.4121 50.2433 36.8977 50.3193 37.3396 50.4518C37.4202 50.5524 37.4006 50.6721 37.3997 50.7943C36.9384 50.8425 36.5753 50.7446 36.1585 50.5637C36.1221 50.3684 36.0713 50.1749 36.0259 49.9814Z" fill="#FEF38F"/>
<path d="M35.4585 49.3146C35.6297 49.304 35.804 49.3131 35.9756 49.3156C36.4065 49.6377 36.8355 49.885 37.3437 50.0671L37.3903 50.0835C37.4299 50.1624 37.4182 50.2512 37.4193 50.3384C36.9876 50.2185 36.5667 50.0475 36.134 49.9235C35.9507 49.7118 35.5753 49.5441 35.4585 49.3146Z" fill="#FEF38F"/>
<path d="M42.9534 48.3295L43.0401 48.3281L43.0511 48.3645C42.8523 48.6828 42.2638 49.2084 41.9728 49.4721C41.8933 49.328 41.7973 49.1917 41.707 49.0541C41.8442 48.8559 41.9837 48.6706 42.1438 48.4903L42.9534 48.3295Z" fill="#FEF38F"/>
<path d="M37.2116 51.0704L37.3442 51.0596L37.3828 51.1143C37.3829 51.1823 37.3987 51.2437 37.3584 51.3024C37.1731 51.5719 36.5163 51.686 36.203 51.7754C36.0725 51.7411 35.9445 51.6877 35.8177 51.6418L35.4316 51.4418C36.0353 51.3753 36.6028 51.1417 37.2116 51.0704Z" fill="#FEF38F"/>
<path d="M40.8678 48.724L40.9548 48.7158C41.084 48.8081 41.1803 48.9957 41.2695 49.1272L40.608 49.9723L40.5708 49.9759C40.3808 49.6578 40.3135 49.1925 40.2319 48.8334L40.8678 48.724Z" fill="#FEF38F"/>
<path d="M42.9819 49.897L43.031 49.8867L43.0674 49.9114C42.5328 50.3701 41.6178 50.7731 40.9501 50.9767L40.9194 50.9484C40.999 50.7018 41.689 50.1335 41.9003 49.9308C42.2736 50.0198 42.6096 49.9575 42.9819 49.897Z" fill="#FEF38F"/>
<path d="M42.2475 63.8271L42.2821 63.8486C42.2751 63.859 42.269 63.87 42.261 63.8796C42.1592 64.0035 41.9573 64.1094 41.8203 64.2013C40.7419 64.9239 39.3374 65.4366 38.0591 65.6306L38.0259 65.575C38.1598 65.434 39.083 65.2194 39.3221 65.1392C40.3184 64.8049 41.3306 64.3392 42.2475 63.8271Z" fill="#F2C94C"/>
<path d="M30.0715 58.749L30.4971 58.8386C30.3568 58.9609 30.1477 59.118 30.083 59.2948C29.9893 59.2254 29.9254 59.1749 29.8017 59.1854C29.676 59.1961 29.5822 59.232 29.4877 59.3132C29.4697 59.3687 29.4512 59.3796 29.479 59.4351C29.5042 59.4854 29.5233 59.5023 29.5671 59.5344C29.6882 59.5035 29.8094 59.4638 29.9352 59.4634C29.78 59.6759 29.5711 59.9812 29.6138 60.2614C29.6164 60.278 29.6203 60.2943 29.6236 60.3108L29.6907 60.3407C29.8592 60.255 29.9532 60.0818 30.0489 59.9261L30.2873 60.1082L30.2927 60.1698C30.1274 60.3543 29.7188 60.6285 29.4611 60.6217C29.3977 60.62 29.3889 60.615 29.3335 60.601C29.2861 60.5431 29.2706 60.5279 29.2758 60.4479C29.2937 60.1699 29.5552 59.9671 29.5485 59.6812C29.3214 59.6935 29.0972 59.7396 28.8735 59.7791C29.1663 59.2496 29.5533 59.0196 30.0715 58.749Z" fill="#F2C94C"/>
<path d="M44.2962 48.7988L44.3266 48.8385C44.2788 48.9183 44.2195 48.9796 44.1534 49.0437C43.4623 49.7144 43.1134 49.7442 42.1935 49.7266L42.1738 49.7091C42.1777 49.5811 42.6657 49.1459 42.7808 49.026C43.302 49.0239 43.7912 48.9134 44.2962 48.7988Z" fill="#FEF38F"/>
<path d="M33.7858 49.2949C34.0031 49.2951 34.2182 49.3201 34.4342 49.3415C34.5757 49.4837 34.7363 49.6035 34.8937 49.7275C34.8254 49.6125 34.7326 49.5086 34.7579 49.3729L34.8393 49.3504C35.1633 49.4539 35.5546 49.8027 35.7483 50.0799C35.7642 50.1163 35.7807 50.1524 35.7951 50.1895C35.8442 50.3148 35.86 50.3759 35.8033 50.5003L35.8085 50.4068C35.4469 50.3947 34.163 49.8829 33.71 49.7406L33.7858 49.2949Z" fill="#FEF38F"/>
<path d="M33.402 58.1895C33.5096 58.2397 34.2611 59.0969 34.4337 59.2538C34.0644 59.7564 33.5177 60.1123 33.0287 60.4891C32.9796 60.5262 32.9387 60.5491 32.884 60.576C32.7404 60.4648 32.2483 59.5796 32.0933 59.3463C32.5657 58.9918 32.9879 58.6085 33.402 58.1895Z" fill="#F2C94C"/>
<path d="M32.7692 56.5645C33.0366 56.8515 33.1514 57.3159 33.2695 57.6823C32.7229 58.2155 32.1883 58.7512 31.4988 59.0979L31.4446 59.0959C31.2219 58.8866 31.1329 58.2573 31.0381 57.955C31.5714 57.4622 32.1667 56.971 32.7692 56.5645Z" fill="#F2C94C"/>
<path d="M38.8134 57.2812C38.874 57.3144 38.9046 57.3324 38.9417 57.3909C39.3807 58.0816 38.886 61.4323 38.7253 62.3184C38.5938 63.0438 38.4146 63.7643 38.251 64.4832L38.1913 64.5909C38.1828 64.573 38.1709 64.5565 38.1659 64.5373C38.112 64.334 38.1689 63.6041 38.1622 63.327C38.1458 62.6585 38.0891 61.9893 38.0899 61.3209C38.0914 60.119 38.241 58.3282 38.8134 57.2812Z" fill="#F2C94C"/>
<path d="M31.5061 63.9217C32.8396 63.681 34.6008 64.7071 35.8057 65.2404C36.2613 65.4421 36.7331 65.6036 37.1932 65.7944C36.3291 65.7513 35.4984 65.3994 34.676 65.1485C33.8395 64.8933 32.9897 64.6588 32.1684 64.358C32.0071 64.3021 31.9024 64.283 31.7394 64.3571C32.1009 64.81 35.1695 65.5266 35.9121 65.7764C34.7742 65.6728 33.6437 65.6586 32.5308 65.3618C31.7521 65.1542 30.9929 64.7957 30.5732 64.077C30.8832 64.0091 31.1909 63.9566 31.5061 63.9217Z" fill="#F2C94C"/>
<path d="M39.7868 48.8855L39.7986 48.8848C39.8178 48.8967 39.8414 48.9034 39.8561 48.9206C39.8743 48.9416 40.4451 50.7999 40.5463 51.0759C39.8771 51.238 39.2189 51.2923 38.5318 51.2885C38.2736 51.2695 38.0221 51.2424 37.7666 51.1999C37.8027 50.5205 37.8196 49.8406 37.8174 49.1602C38.4685 49.0363 39.1291 48.9662 39.7868 48.8855Z" fill="#FEF38F"/>
<path d="M33.7778 57.9591C34.4993 57.9859 36.0074 57.2489 36.7628 56.9932C36.6146 58.4716 36.5572 59.9222 36.7225 61.401C36.2963 60.6823 35.8167 60.0418 35.2181 59.4551C34.7275 58.9743 34.1581 58.536 33.7778 57.9591Z" fill="#F2C94C"/>
<path d="M34.8363 59.5957C34.8582 59.6063 34.8812 59.6147 34.9018 59.6275C35.1366 59.7738 35.3821 60.1365 35.5616 60.3546C36.8357 61.9036 37.0462 62.8625 37.525 64.723C37.0072 63.7145 36.3368 62.7954 35.8292 61.7862C35.7466 61.622 35.5254 61.0392 35.3793 60.9807C35.3237 61.0152 35.3191 61.0005 35.3096 61.0588C35.2257 61.5766 37.2217 64.6325 37.6165 65.2824C37.0551 64.7576 36.5561 64.1998 36.0534 63.6195C35.4998 63.0119 34.7855 61.9272 34.2054 61.4523C34.1286 61.3894 34.0968 61.3627 33.9939 61.3734L33.9815 61.417C34.2074 61.8618 34.6551 62.2966 34.9735 62.6805C35.73 63.5927 36.4775 64.4895 37.2676 65.3725C35.4856 64.2599 34.1696 62.7403 33.0928 60.9583C33.7192 60.5478 34.2989 60.1198 34.8363 59.5957Z" fill="#F2C94C"/>
<path d="M37.7393 51.519C38.7313 51.6452 39.6889 51.6354 40.6632 51.3867C41.0495 52.9338 41.4354 54.4699 41.6559 56.0515C41.7211 56.5198 41.7985 57.0105 41.8003 57.4835C41.9247 59.8705 41.6171 62.0731 39.9588 63.9212C39.6736 64.2391 39.3562 64.549 38.9701 64.7393C40.7543 63.0252 40.9837 59.8405 41.1346 57.4944C41.0979 57.3812 41.0797 57.2885 40.985 57.2134C40.8917 57.2678 40.8675 57.3653 40.8285 57.4603C40.7257 59.6447 40.2288 61.9159 39.1528 63.8341C38.9401 64.2131 38.7222 64.611 38.4191 64.9251C38.591 64.5333 38.8659 64.1463 38.9654 63.7323C39.1337 63.0317 39.1017 62.2259 39.149 61.505C39.2157 60.4869 39.334 59.4594 39.3265 58.4384C39.3241 58.1191 39.2963 57.8105 39.2254 57.4989C39.1611 57.34 39.1065 57.1291 38.9372 57.0549C38.8743 57.0273 38.84 57.0467 38.7759 57.059C38.3039 57.397 38.12 58.6041 38.0284 59.1465C37.7169 60.9895 37.8015 62.9212 37.8561 64.7827C37.697 64.3674 37.6257 63.9044 37.5067 63.4748C37.3926 63.063 37.2576 62.6491 37.1768 62.2293C36.4843 58.6316 37.5815 55.0988 37.7393 51.519Z" fill="#F2C94C"/>
<path d="M38.8591 55.54C38.9987 55.5511 39.0801 55.5585 39.1953 55.6425C39.2271 55.6996 39.2556 55.7293 39.2544 55.7974C39.2515 55.9678 39.1483 56.0736 39.0343 56.1875C38.8791 56.174 38.8119 56.165 38.6897 56.0693C38.6592 56.0056 38.6317 55.9739 38.6375 55.9007C38.6506 55.7347 38.7458 55.6486 38.8591 55.54Z" fill="#2D2D2D"/>
<path d="M26.085 46.6988C27.4721 45.9438 28.9475 45.4395 30.475 45.0595C30.8279 44.9717 31.239 44.8304 31.6039 44.8542C31.0686 45.5577 30.2784 46.5164 30.4226 47.4587C30.4907 47.9032 30.7389 48.2356 31.0976 48.4953C31.4895 48.7789 32.0014 48.955 32.4714 49.0498C32.9252 50.2012 34.4586 51.4876 35.5771 51.9788C36.1444 52.2279 36.7392 52.3331 37.3559 52.3585C37.1978 53.9096 36.92 55.4442 36.7624 56.9932C36.007 57.249 34.4989 57.9859 33.7775 57.9592L33.8271 57.9018C34.502 57.1295 35.8907 56.1253 36.12 55.1146L36.1344 55.0528C36.0079 54.5251 35.6959 54.1804 35.2411 53.8973C34.0458 53.1534 32.402 53.2024 31.0817 53.5245C29.9851 53.792 28.9764 54.2985 28.374 55.2924C27.63 56.5201 27.5865 58.4628 27.9345 59.8312C28.0648 60.3437 28.3086 60.8293 28.7428 61.1499C28.3311 62.0395 28.5353 63.7816 28.8345 64.701C28.8825 64.8484 29.0189 65.1408 28.9125 65.2696C28.8283 65.2745 28.7811 65.2509 28.7057 65.216C28.2318 64.651 27.9595 63.9315 27.7749 63.2266C27.2239 61.1227 27.0986 58.8595 26.886 56.7002C26.553 53.3717 26.286 50.0379 26.085 46.6988Z" fill="#FEF38F"/>
<path d="M46.531 45.4228C47.1786 45.2271 50.7413 46.8219 51.4976 47.2273C52.2891 47.6516 52.9958 48.1721 53.7104 48.7121C53.6505 52.2064 53.7213 55.6808 53.3844 59.1652C53.2287 60.7748 53.0811 62.4091 52.4085 63.8998C51.6713 65.28 50.5683 66.1031 49.0748 66.5535C47.9065 66.9059 46.6679 67.089 45.4553 67.203C42.3798 67.492 39.2033 67.4304 36.1212 67.2776C34.6632 67.2053 33.1528 67.1496 31.7199 66.8534C31.0973 66.7248 30.4969 66.5216 29.9377 66.2166C29.4823 65.9681 29.0192 65.6351 28.7058 65.2157C28.7812 65.2507 28.8285 65.2742 28.9126 65.2694C29.0191 65.1406 28.8826 64.8481 28.8347 64.7007C28.5355 63.7813 28.3313 62.0393 28.743 61.1497C28.8188 61.1927 28.8952 61.2292 28.9767 61.2608C29.942 61.6346 30.5369 60.357 31.143 59.8412C31.3176 59.6924 31.5035 59.6055 31.7115 59.5161C32.0993 59.9071 32.3812 60.4698 32.6901 60.9288C33.9519 62.8035 34.6733 63.9424 36.5945 65.2681C35.5651 64.8634 34.6352 64.3037 33.5665 63.9765C32.7663 63.7315 32.069 63.6386 31.2382 63.7506C31.0246 63.7794 30.773 63.8054 30.5847 63.9155C30.4912 63.9701 30.4512 64.0271 30.4214 64.1311C30.4326 64.2901 30.4819 64.3868 30.5802 64.5123C31.3542 65.5012 32.7105 65.8036 33.8907 65.9463C36.5083 66.2627 40.0322 66.0757 42.1612 64.3891C42.4266 64.179 42.9058 63.8064 42.9314 63.443C42.938 63.3498 42.9237 63.3436 42.864 63.2798C42.7557 63.2583 42.6891 63.2888 42.5912 63.3306C42.1925 63.5009 41.8129 63.7317 41.423 63.923C40.8726 64.1931 40.3088 64.4193 39.7349 64.6337C39.9582 64.4566 40.1656 64.2626 40.357 64.0515C41.9766 62.243 42.2915 59.8155 42.154 57.484C42.148 56.8972 42.0405 56.2825 41.9474 55.7038C41.711 54.2339 41.3707 52.7984 41.0101 51.3555C42.2206 51.0323 43.8155 50.0648 44.6909 49.1805C44.9406 48.9281 45.2673 48.5735 45.2494 48.1944C45.2399 47.9909 45.1115 47.8888 44.9695 47.7631C45.5097 47.4954 46.0942 47.1962 46.4154 46.6611C46.6615 46.251 46.648 45.8675 46.531 45.4228Z" fill="#F2C94C"/>
<path d="M46.6606 56.7863C45.8127 56.5531 43.242 55.2998 42.7959 54.5659C42.7149 54.4327 42.6997 54.3051 42.7466 54.1581C42.996 53.3752 45.304 51.8099 46.0138 51.4681C47.1481 50.9219 48.5525 50.7211 49.7585 51.1454C50.8108 51.5157 51.6834 52.1865 52.1665 53.2051C52.453 53.8091 52.9999 55.595 52.7889 56.2248C52.6661 56.5912 52.3189 56.8485 51.9806 57.0039C51.1935 57.3655 50.2754 57.4034 49.4324 57.5452C49.198 58.4456 49.0067 59.3855 49.0557 60.3198C49.0737 61.031 49.1531 61.7471 49.2341 62.4536C49.2973 63.0051 49.4034 63.5867 49.3502 64.1425C49.3016 64.6507 49.0719 65.124 48.6665 65.4414C47.6261 66.256 46.0955 66.0373 44.8846 65.9071C44.437 65.5325 44.1746 65.0062 43.9781 64.4664C43.7362 63.8021 43.4424 62.412 43.7804 61.7529C43.892 61.5355 44.0798 61.3714 44.2123 61.169C44.7686 60.3195 44.6207 60.2279 45.6868 59.8791C45.9069 59.987 46.1256 60.1116 46.3701 60.1501C46.623 60.19 47.0502 60.2098 47.2537 60.0292C47.338 59.9544 47.3567 59.8779 47.3726 59.7713C47.3319 59.6802 47.302 59.6117 47.2907 59.5113C47.3545 59.4337 47.4123 59.4042 47.4974 59.3552C47.5477 59.3559 47.5792 59.3438 47.6194 59.3799C47.7911 59.5338 47.7176 59.802 47.7995 59.992C47.8444 60.0963 47.9392 60.1735 47.9655 60.2895C48.0015 60.4476 47.9848 60.6454 47.9857 60.8084C48.0431 60.8461 48.1005 60.8839 48.1554 60.9251C48.2834 61.021 48.3284 61.141 48.3481 61.2967C48.4747 62.2997 47.1827 63.4066 46.5509 64.0616C46.227 64.3973 45.9086 64.749 45.621 65.1163C46.4536 64.5197 47.4629 63.7691 48.0292 62.9121C48.1641 62.708 48.5329 61.9012 48.5727 61.8605L48.6229 61.9044C48.704 62.3259 48.5289 62.5892 48.3385 62.9417C48.4581 63.0038 48.5581 62.9969 48.6367 63.1212C48.7816 63.3499 48.7613 63.892 48.7095 64.1433C48.518 65.0734 47.588 65.3659 46.7536 65.4185C46.358 65.4434 45.8505 65.3527 45.5047 65.586L45.5038 65.6482C45.5453 65.6698 45.5818 65.6881 45.6274 65.6997C46.3544 65.8841 47.572 65.7275 48.2249 65.355C48.6161 65.1317 48.9536 64.7819 49.0567 64.3321C49.2013 63.7006 48.9706 62.9443 48.8899 62.3122C48.6735 60.6164 48.6417 59.251 49.0954 57.5734C48.3602 57.5837 47.6446 57.5438 46.921 57.4024C46.7821 57.9771 46.7239 58.5832 46.6174 59.1659C46.5809 59.3659 46.5337 59.6507 46.3576 59.773C46.2427 59.761 46.2297 59.7672 46.1464 59.6898C46.0958 59.4567 46.2768 59.246 46.3295 59.0276C46.3939 58.7605 46.4105 58.4551 46.4592 58.1807C46.5185 57.7174 46.5598 57.2424 46.6606 56.7863Z" fill="#2D2D2D"/>
<path d="M44.941 54.4725L45.546 54.4512L44.926 54.8096C44.8567 54.8554 44.7921 54.9045 44.7092 54.9215C44.6513 54.9334 44.6442 54.9073 44.602 54.8737C44.5934 54.7661 44.6136 54.6988 44.673 54.6052C44.7471 54.4886 44.817 54.493 44.941 54.4725Z" fill="#F2C94C"/>
<path d="M51.9511 55.7207C52.0278 55.7609 52.1047 55.807 52.1743 55.8585C52.2383 55.9058 52.2935 55.974 52.2966 56.0566C52.3031 56.2277 52.147 56.347 52.0371 56.4593L51.8792 56.558L51.831 56.5312C51.8166 56.2794 51.9199 55.9798 51.9511 55.7207Z" fill="#F2C94C"/>
<path d="M44.252 54.5385C44.3366 54.5351 44.3374 54.5167 44.4038 54.5768C44.4302 54.7971 44.3599 55.0281 44.3162 55.244L44.0173 55.0322C43.8809 54.9341 43.7518 54.8261 43.6211 54.7205C43.8305 54.6568 44.0408 54.5962 44.252 54.5385Z" fill="#F2C94C"/>
<path d="M50.8414 55.417C50.847 55.4219 50.8531 55.4262 50.8582 55.4316C50.9502 55.5293 50.9477 56.6461 50.9545 56.8587C50.8083 56.9014 50.6584 56.9354 50.5109 56.9735L50.4573 56.9468C50.4021 56.6669 50.7326 55.7256 50.8414 55.417Z" fill="#F2C94C"/>
<path d="M49.6882 56.6C49.6615 56.5809 49.6486 56.5771 49.634 56.5472C49.5668 56.4105 49.5971 55.4014 49.6629 55.2475C49.7739 55.1981 49.8533 55.3052 49.9974 55.287C50.0782 55.3384 50.0715 55.3898 50.0965 55.4783C50.0936 55.9428 49.9355 56.2184 49.6882 56.6Z" fill="#F2C94C"/>
<path d="M51.1842 55.5176C51.3454 55.5466 51.4944 55.6097 51.647 55.6677C51.6521 56.0213 51.6106 56.3573 51.559 56.7066C51.4654 56.7372 51.299 56.8008 51.2105 56.7675C51.1404 56.3748 51.1579 55.9145 51.1842 55.5176Z" fill="#F2C94C"/>
<path d="M47.2214 54.7773L47.7608 54.8653C47.5755 55.0709 47.3715 55.2628 47.1754 55.4583L46.8067 55.4341C46.6051 55.4347 46.4169 55.44 46.2197 55.3901L46.1919 55.343C46.3318 55.1926 46.9692 54.9545 47.2214 54.7773Z" fill="#F2C94C"/>
<path d="M48.2594 54.9561L48.5569 55.0309L48.5759 55.0722C47.9665 55.5907 47.4056 56.1416 47.0299 56.8546C47.0087 56.9035 46.9714 56.9511 46.9422 56.9959L46.9292 56.9439C47.1493 56.0496 47.5955 55.5561 48.2594 54.9561Z" fill="#FEF38F"/>
<path d="M48.0766 64.4737C48.1101 64.4604 48.1552 64.4621 48.1913 64.459C48.1801 64.5255 48.193 64.4952 48.1373 64.5591C47.7345 65.022 46.9843 65.0659 46.4161 65.1014C46.3687 65.1061 46.3318 65.099 46.2852 65.0914C46.2993 65.0628 46.3039 65.0491 46.3291 65.0238C46.8145 64.5365 47.4409 64.5262 48.0766 64.4737Z" fill="#F2C94C"/>
<path d="M43.9468 62.7236C43.9768 62.7595 45.0235 65.4693 45.0438 65.5725C44.9619 65.561 44.9594 65.5718 44.8933 65.5107C44.338 64.9961 43.9782 63.4629 43.9468 62.7236Z" fill="#F2C94C"/>
<path d="M48.3117 63.1533C48.4153 63.2581 48.4273 63.3912 48.4449 63.5327C48.4733 63.7607 48.4768 64.0285 48.3321 64.2189C48.1338 64.3253 47.6452 64.2897 47.4128 64.305C47.3439 64.3071 47.3274 64.3054 47.2607 64.2774C47.6489 63.9321 47.9846 63.5554 48.3117 63.1533Z" fill="#F2C94C"/>
<path d="M45.982 54.5432C46.1644 54.5307 46.5226 54.4854 46.6716 54.5883C46.5715 54.8165 45.7703 55.1192 45.519 55.2301C45.6664 55.1165 45.964 54.9473 46.0432 54.7944C45.8344 54.7944 45.694 54.9219 45.5414 55.0493C45.5504 55.1437 45.5687 55.1936 45.5068 55.2746C45.4028 55.4105 45.1907 55.5151 45.0251 55.5444C44.8754 55.571 44.7587 55.5652 44.6333 55.4737C44.621 55.4212 44.6054 55.4034 44.631 55.3512C44.7786 55.0501 45.6593 54.6499 45.982 54.5432Z" fill="#F2C94C"/>
<path d="M50.2248 55.6112C50.2363 55.4884 50.2178 55.4461 50.3122 55.3616C50.4559 55.3528 50.5829 55.3916 50.723 55.4126C50.5802 55.6716 50.4712 55.9334 50.373 56.2123C50.2813 56.4852 50.198 56.7412 50.1873 57.0317C50.0434 57.0619 49.8126 57.1446 49.6773 57.0814C49.6673 56.9834 49.6951 56.9641 49.7398 56.8794C49.728 56.7848 49.7083 56.6928 49.6883 56.5997C49.9357 56.2181 50.0937 55.9425 50.0967 55.478L50.2248 55.6112Z" fill="#F2C94C"/>
<path d="M50.0963 55.4785L50.2244 55.6118C50.2681 55.8003 50.3146 55.987 50.3374 56.1794C50.0398 56.3434 49.9038 56.5955 49.7395 56.8799C49.7276 56.7853 49.7079 56.6934 49.688 56.6002C49.9353 56.2187 50.0934 55.943 50.0963 55.4785Z" fill="#4B5658"/>
<path d="M46.0333 55.4238C46.3962 55.5778 46.7167 55.6054 47.1065 55.6266C46.9347 55.8809 46.8094 56.1294 46.7051 56.4172L45.9919 56.1385C45.7213 56.0171 45.4577 55.8762 45.1929 55.7427L45.6483 55.5641L46.0623 55.8619L46.0864 55.8389C46.0016 55.7607 45.9228 55.6814 45.8446 55.5967C45.8719 55.4921 45.9444 55.4784 46.0333 55.4238Z" fill="#F2C94C"/>
<path d="M47.7719 61.9932L47.8115 61.9981L47.8434 62.0453C47.3803 62.8589 46.5706 63.497 45.9493 64.1932L45.9385 64.1998L45.9165 64.1742C46.1673 63.625 46.4014 63.0611 46.6344 62.5038C47.0042 62.3041 47.3765 62.1361 47.7719 61.9932Z" fill="#F2C94C"/>
<path d="M45.8636 60.3174C46.3005 60.4445 46.6131 60.4721 47.0612 60.3737C46.9029 60.7192 46.7623 61.0719 46.6396 61.4316C46.5381 61.7233 46.4705 62.1229 46.3057 62.3789C46.2446 62.3319 46.2546 62.3229 46.2353 62.2518C46.0109 61.6114 45.8424 61 45.8636 60.3174Z" fill="#F2C94C"/>
<path d="M47.5035 60.1787L47.6223 60.2678C47.7047 60.4555 47.6985 60.7224 47.7227 60.9289C47.7676 60.9763 47.8119 61.0243 47.8556 61.0727C47.9218 61.1446 47.9796 61.2069 48.0148 61.3C48.0503 61.3935 48.0573 61.4996 48.0113 61.5901C47.8881 61.8332 47.3802 61.9185 47.1378 61.99L46.7148 62.1538C46.8651 61.6147 47.1299 60.5666 47.5035 60.1787Z" fill="#F2C94C"/>
<path d="M44.4322 61.2686C44.5771 61.7954 44.7231 62.3342 44.9323 62.8397C45.1104 63.2703 45.3616 63.6993 45.4939 64.1443C45.532 64.2727 45.5371 64.368 45.521 64.5004C45.251 63.7289 44.7682 62.6429 44.2234 62.028C44.5874 62.9173 45.1104 63.7214 45.3468 64.6623L45.2116 65.0674L45.1849 65.093C45.1673 65.081 45.1468 65.0724 45.1322 65.0569C45.1177 65.0416 44.063 62.1955 43.9961 61.9621L44.0099 61.9325C44.1204 61.6904 44.2774 61.4837 44.4322 61.2686Z" fill="#F2C94C"/>
<path d="M49.0191 55.1104C49.1087 55.1229 49.1637 55.1296 49.2373 55.1843C49.3591 55.7855 49.2708 56.5734 49.212 57.1852C48.6684 57.2239 48.1487 57.1973 47.6082 57.1415L47.1699 57.0735C47.6933 56.3171 48.3436 55.7254 49.0191 55.1104Z" fill="#FEF38F"/>
<path d="M45.6681 64.0836C45.4144 63.4523 44.4939 61.5242 44.6943 60.9197C44.7794 60.6631 45.1098 60.4162 45.3509 60.3145C45.4699 60.2644 45.5877 60.2204 45.7133 60.2694C45.5061 60.9758 45.8863 61.8754 46.14 62.5211C46.135 62.6396 46.1529 62.679 46.0649 62.7668C46.0615 62.7701 46.0572 62.7726 46.0534 62.7755L45.9657 62.8463L45.9701 62.8808C45.976 62.9285 45.9928 62.9954 45.9729 63.0394C45.8448 63.3783 45.8037 63.7421 45.6681 64.0836Z" fill="#F2C94C"/>
<path d="M45 60.8027C45.4084 61.3096 45.7202 62.1763 46.0534 62.7764L45.9657 62.8472L45.9701 62.8816C45.9759 62.9294 45.9927 62.9962 45.9728 63.0402C45.5653 62.3499 45.1993 61.579 45 60.8027Z" fill="#4B5658"/>
<path d="M46.5312 45.4228C47.1788 45.2271 50.7415 46.8219 51.4978 47.2273C52.2892 47.6516 52.996 48.1721 53.7106 48.7121C53.6507 52.2064 53.7215 55.6808 53.3846 59.1652C53.2289 60.7748 53.0813 62.4091 52.4087 63.8998C52.215 63.705 52.0527 63.4423 51.8845 63.2231C51.6254 62.8882 51.3568 62.561 51.0788 62.2417C50.4459 61.5102 49.7642 60.9599 49.056 60.32C49.007 59.3857 49.1983 58.4458 49.4327 57.5454C50.2757 57.4036 51.1938 57.3657 51.9809 57.0041C52.3192 56.8488 52.6664 56.5914 52.7892 56.225C53.0003 55.5952 52.4533 53.8093 52.1668 53.2053C51.6837 52.1867 50.8111 51.5159 49.7588 51.1456C48.5528 50.7213 47.1484 50.9221 46.0141 51.4684C45.3043 51.8101 42.9963 53.3754 42.7469 54.1583C42.7 54.3053 42.7152 54.433 42.7962 54.5662C43.2424 55.3 45.8131 56.5534 46.661 56.7865C46.5601 57.2427 46.5188 57.7177 46.4595 58.1809C45.8008 58.2196 44.6883 57.8614 43.9841 57.732C43.3785 57.6207 42.7656 57.5545 42.1542 57.484C42.1482 56.8972 42.0406 56.2825 41.9476 55.7038C41.7112 54.2339 41.3709 52.7984 41.0103 51.3555C42.2208 51.0323 43.8157 50.0648 44.691 49.1805C44.9408 48.9281 45.2674 48.5735 45.2496 48.1944C45.2401 47.9909 45.1117 47.8888 44.9697 47.7631C45.5099 47.4954 46.0944 47.1962 46.4156 46.6611C46.6617 46.251 46.6482 45.8675 46.5312 45.4228Z" fill="#FEF38F"/>
<path d="M24.6325 58.0533C24.9495 60.4635 25.1002 64.0179 26.082 66.1967C26.3872 66.8741 26.8135 67.486 27.3701 67.981C29.6113 69.9742 33.8448 70.0814 36.6882 70.1142C37.4713 70.1233 38.2557 70.1686 39.0382 70.1203L39.0684 70.1656L39.0689 70.1594C39.0406 70.1668 39.0121 70.1739 38.9836 70.1806C38.218 70.3622 37.4093 70.4653 36.6329 70.6097C28.9443 72.04 20.0992 72.1435 13.2291 67.9113C9.92423 65.8754 7.43774 62.6194 6.54756 58.8285C5.52254 54.4635 6.86958 50.7956 9.38962 47.2755C10.4481 45.797 11.5858 44.4026 12.349 42.7367C13.0027 41.3095 13.3111 39.8253 13.4469 38.271C13.57 36.8615 13.5226 35.4409 13.4143 34.0318C13.1295 30.3277 12.1753 25.3148 14.2438 22.0061C15.0806 20.6674 16.4222 19.6327 17.9738 19.2788C20.4141 18.7222 23.8063 19.5791 26.0048 20.7124C27.5311 21.4992 28.9472 22.527 30.4102 23.4258C31.4252 24.0493 32.52 24.5443 33.5215 25.181C32.6271 26.0217 31.5209 26.602 30.5031 27.2747C29.4951 27.941 28.553 28.6835 27.635 29.4678C27.5846 29.3394 27.5367 29.21 27.4913 29.0797C26.8946 27.3408 27.7605 26.5697 28.4519 25.1239C28.609 24.7954 28.7034 24.425 28.5695 24.0718C28.4366 23.721 28.1134 23.4472 27.779 23.2952C26.4644 22.6972 24.6516 23.267 23.3636 23.7433C21.022 24.6091 18.8243 26.0022 17.7556 28.3518C17.4032 29.1265 17.1606 30.116 17.4839 30.9407C17.6646 31.4017 17.9662 31.6785 18.418 31.8686C19.7139 32.4141 21.6168 31.8748 22.8498 31.3571C23.5431 31.9406 24.2024 32.6188 24.5445 33.4736C24.254 34.2389 23.952 34.9846 23.7792 35.7892C23.4317 37.4069 23.5113 39.0478 23.5451 40.69C23.568 41.8055 23.5745 42.9242 23.6331 44.0385L23.6698 45.1609C23.7279 45.6097 23.7078 46.0592 23.7376 46.5092C23.8152 47.9437 23.8714 49.3791 23.906 50.8153C24.0702 51.581 24.0116 52.4528 24.0652 53.2373C24.0839 53.5118 24.1882 53.9064 24.1556 54.1645C24.1481 54.2242 24.1399 54.2332 24.1167 54.28C24.2694 54.777 24.3178 55.2831 24.374 55.7975C24.4987 56.3624 24.5706 57.0435 24.5824 57.6232L24.6325 58.0533Z" fill="#4FDB40"/>
<path d="M13.5938 50.0908C14.0508 50.2729 14.0219 50.8678 14.3765 51.1491C14.6473 51.3639 15.0725 51.3791 15.2833 51.6694C15.3344 52.043 14.6272 52.114 14.3847 52.3241C14.0383 52.6244 14.078 53.1553 13.8758 53.539C13.8269 53.5365 13.7562 53.5378 13.7076 53.5236C13.4531 53.4488 13.3706 52.7375 13.1884 52.5043C12.943 52.1903 12.3083 52.1872 12.1401 51.8529C12.2043 51.5572 12.8555 51.4164 13.0535 51.1707C13.3145 50.8468 13.3263 50.4008 13.5938 50.0908Z" fill="white"/>
<path d="M11.5876 55.9552C13.4595 55.8674 15.573 56.2695 17.2425 57.1232C19.4818 58.2682 21.2702 60.4921 21.9534 62.9046C22.0676 63.3096 22.1633 63.719 22.2405 64.1326C22.3073 64.4977 22.3432 64.9087 22.4708 65.2567C22.5973 65.6016 23.2788 66.2304 23.5583 66.5003C25.1419 68.03 27.0591 69.1259 29.1305 69.8531C29.7993 70.0878 30.566 70.1912 31.1991 70.5031C31.2123 70.5096 31.2252 70.5164 31.2382 70.523C30.447 70.4731 29.6993 70.3368 28.9358 70.1306C26.3534 69.3803 23.6334 67.6634 22.0523 65.4539C19.612 65.7946 18.0017 65.4731 15.9197 64.0996C13.4198 62.4503 11.6113 60.0244 9.88406 57.629C9.65977 57.3179 9.0657 56.6935 8.99414 56.3408C9.01117 56.3098 9.01813 56.2918 9.04813 56.2669C9.4 55.9758 11.0933 55.9735 11.5876 55.9552Z" fill="white"/>
<path d="M20.9764 64.2656C21.2147 64.4675 21.4295 64.8142 21.6284 65.0618C20.8024 65.2175 20.0344 65.1637 19.21 65.0384C18.8791 64.9683 18.5604 64.8905 18.2383 64.7858C19.1428 64.7523 20.1073 64.5141 20.9764 64.2656Z" fill="#4FDB40"/>
<path d="M11.1469 56.3868C11.9334 56.3085 12.751 56.3942 13.5354 56.4566C13.537 56.4615 13.5386 56.4664 13.5402 56.4713C13.7552 57.1675 14.2789 57.8438 14.664 58.4621C14.3989 58.3205 14.1265 58.1927 13.8556 58.0626C12.5229 57.4311 11.2031 56.8777 9.78906 56.4572L11.1469 56.3868Z" fill="#4FDB40"/>
<path d="M9.79102 56.793C10.0365 56.862 10.2825 56.9991 10.5222 57.0934C11.4171 57.4453 12.276 57.8116 13.1452 58.2237C13.4799 58.3823 13.8432 58.5193 14.1556 58.7184L14.1565 58.7597L14.033 58.7784C13.1684 58.841 12.2934 58.937 11.4365 59.0687C11.0244 58.5116 10.0325 57.3487 9.79102 56.793Z" fill="#4FDB40"/>
<path d="M13.9224 56.5059C14.6739 56.6236 15.3546 56.8555 16.0649 57.118C16.1331 57.6512 16.8442 59.3073 17.0833 59.9401C16.6546 59.7206 15.4523 59.0089 15.1602 58.6819C14.9318 58.4262 14.7906 58.023 14.6267 57.7215C14.4032 57.3107 14.1592 56.909 13.9224 56.5059Z" fill="#4FDB40"/>
<path d="M19.2998 59.2158C19.5655 59.4207 19.8052 59.7568 20.0118 60.0246C21.1158 61.4561 21.6111 62.9792 21.9143 64.7339C21.6971 64.5652 21.5085 64.2838 21.3308 64.07C20.8757 63.5224 20.4407 62.9536 19.9483 62.4387C19.8011 61.3544 19.4959 60.292 19.2998 59.2158Z" fill="#4FDB40"/>
<path d="M14.3898 59.1262C14.5123 59.1059 14.6522 59.0725 14.776 59.0982C15.3196 59.2112 15.9716 59.7327 16.4262 60.0463C15.4896 60.2679 14.5692 60.5343 13.6256 60.7316L12.9571 60.8734C12.5088 60.4091 12.0959 59.9126 11.6919 59.4098C12.5902 59.3072 13.494 59.2505 14.3898 59.1262Z" fill="#4FDB40"/>
<path d="M16.4951 57.2666C17.3047 57.5782 18.2013 58.1653 18.8277 58.7621C19.0819 59.8213 19.408 60.9346 19.5023 62.0197C18.9611 61.4489 18.1345 60.8992 17.6898 60.3805C17.4913 60.1489 16.6067 57.6945 16.4951 57.2666Z" fill="#4FDB40"/>
<path d="M19.2868 62.5127C19.3194 62.5154 19.3542 62.5087 19.3847 62.5207C19.5621 62.5899 20.5148 63.7636 20.6817 63.9593C20.1687 64.0877 19.652 64.199 19.1316 64.2933C18.661 64.3753 18.1212 64.415 17.6746 64.5768C17.4885 64.4949 17.3059 64.4043 17.1225 64.3167C16.4893 63.9894 15.8959 63.6182 15.3354 63.1765C16.6743 63.0286 17.9629 62.7419 19.2868 62.5127Z" fill="#4FDB40"/>
<path d="M16.8071 60.3545C17.2205 60.4681 18.6508 61.8245 19.0518 62.1619C17.9221 62.4196 16.7455 62.6275 15.5949 62.7629C15.376 62.7929 15.1557 62.8121 14.9358 62.8336C14.3328 62.3625 13.7627 61.7792 13.2617 61.2019C14.4482 61.0011 15.653 60.6912 16.8071 60.3545Z" fill="#4FDB40"/>
<path d="M24.6321 58.0537C23.6383 57.669 22.2464 56.5293 21.5112 55.781C18.8903 53.113 16.1135 47.2196 15.0357 43.6621C14.5783 42.1519 14.275 40.5857 14.049 39.0254C13.9319 38.2167 13.7995 37.3838 13.8113 36.5644C13.8149 36.3139 13.8356 36.0079 14.0362 35.8311C14.1519 35.729 14.3515 35.7129 14.4975 35.7253C14.9016 35.7597 15.3425 35.9593 15.7092 36.1226C18.1468 37.208 20.426 39.419 21.9953 41.5379C22.3489 42.0154 22.6654 42.5107 22.9736 43.0184C23.1716 43.3447 23.3539 43.7233 23.6061 44.0098C23.6148 44.0197 23.6238 44.0292 23.6326 44.0389L23.6693 45.1613C23.7275 45.6101 23.7074 46.0596 23.7371 46.5096C23.8148 47.9441 23.8709 49.3795 23.9056 50.8158C24.0698 51.5814 24.0111 52.4532 24.0647 53.2377C24.0835 53.5122 24.1878 53.9068 24.1552 54.165C24.1477 54.2246 24.1394 54.2336 24.1163 54.2804C24.2689 54.7774 24.3174 55.2836 24.3735 55.7979C24.4982 56.3628 24.5702 57.044 24.5819 57.6236L24.6321 58.0537Z" fill="white"/>
<path d="M23.9059 50.8154C24.0702 51.5811 24.0115 52.4529 24.0651 53.2374C24.0838 53.5119 24.1881 53.9065 24.1555 54.1646C24.148 54.2243 24.1398 54.2333 24.1166 54.2801C24.0261 53.9725 23.8908 53.6782 23.7656 53.3833L23.774 53.3485C23.9799 52.5269 23.8043 51.6526 23.9059 50.8154Z" fill="#4FDB40"/>
<path d="M14.3784 36.168C14.8674 36.2884 15.3058 36.4759 15.76 36.688C15.8207 37.5059 16.2913 38.8421 16.5983 39.6295C16.4144 39.502 14.998 37.3415 14.7672 36.9509C14.6178 36.698 14.4949 36.4371 14.3784 36.168Z" fill="#4FDB40"/>
<path d="M16.1792 36.8906C16.9465 37.2433 17.6774 37.8349 18.346 38.3459C18.4162 39.917 18.5949 41.4877 18.6355 43.0607C18.4578 42.8878 18.3111 42.5188 18.1936 42.2931C17.9726 41.865 17.7646 41.4307 17.5697 40.9902C17.3747 40.5496 17.193 40.1036 17.0247 39.6522C16.8563 39.2008 16.7017 38.7447 16.5607 38.2841C16.4196 37.8234 16.2925 37.3589 16.1792 36.8906Z" fill="#4FDB40"/>
<path d="M14.2578 37.0225C14.4941 37.2129 15.4141 38.7336 15.649 39.0718C16.0816 39.6946 16.6008 40.2964 16.9823 40.9489C17.2177 41.3515 17.419 41.7799 17.6362 42.193C17.8847 42.6658 18.1583 43.1382 18.3652 43.6304C17.4414 42.893 16.1474 42.3662 15.0451 41.9647C14.6351 40.322 14.4127 38.7079 14.2578 37.0225Z" fill="#4FDB40"/>
<path d="M18.5107 50.6162C19.4065 51.4183 20.417 52.1179 21.3693 52.8524C22.1223 53.4331 22.8693 54.1409 23.71 54.5868C23.9535 54.972 24.0844 55.4435 24.3737 55.7975C24.4984 56.3623 24.5704 57.0435 24.5821 57.6232C23.7149 57.0346 22.8484 56.4308 22.0771 55.7182C20.5593 54.3161 19.4614 52.4318 18.5107 50.6162Z" fill="#4FDB40"/>
<path d="M18.7881 38.7734C19.3771 39.109 20.8759 40.8006 21.2874 41.4135C21.4388 43.1938 21.0983 45.1005 20.8722 46.8661C20.851 47.0232 20.8518 47.1891 20.843 47.3478C20.5959 46.9022 20.3939 46.4248 20.1611 45.9703C19.8292 45.322 19.3632 44.6061 19.1667 43.9047C19.0085 43.3401 19.0194 42.6677 18.983 42.0806C18.9147 40.9785 18.8662 39.8748 18.7881 38.7734Z" fill="#4FDB40"/>
<path d="M15.1484 42.4639C15.968 42.7047 16.8596 43.1987 17.593 43.6394C17.9995 43.8837 18.3981 44.1613 18.8295 44.3597C19.1201 44.8733 19.3711 45.4169 19.6361 45.9446C20.0767 46.8134 20.5068 47.6873 20.9265 48.5664C20.5145 48.3545 20.1198 48.0396 19.7178 47.7996C18.6609 47.1685 17.5561 46.5919 16.406 46.1502C15.973 45.2121 15.3044 43.4604 15.1484 42.4639Z" fill="#4FDB40"/>
<path d="M16.6035 46.668C16.7713 46.7244 16.9334 46.817 17.0919 46.896C17.9223 47.3103 20.7758 48.745 21.1986 49.3207C21.5635 49.8177 22.1329 51.1796 22.4347 51.8044C22.7658 52.4897 23.3366 53.4272 23.5645 54.1072C23.4279 54.0125 23.3065 53.867 23.1814 53.7554C22.951 53.5498 22.7102 53.3544 22.4694 53.1611C21.7762 52.6047 18.2421 50.0017 18.0324 49.6363C17.4851 48.6828 17.038 47.677 16.6035 46.668Z" fill="#4FDB40"/>
<path d="M21.1216 47.848C21.2358 47.3287 21.2831 46.7795 21.3561 46.2523C21.5363 44.9506 21.8399 43.2238 21.6843 41.9277C22.1203 42.521 22.5036 43.1321 22.8637 43.774C23.1218 44.2341 23.3604 44.7342 23.6696 45.1617C23.7278 45.6105 23.7077 46.06 23.7374 46.51L23.709 46.4748L23.6792 46.4928C23.3571 48.6185 23.5372 50.7947 23.4576 52.9373C22.6542 51.2577 21.8171 49.5753 21.1216 47.848Z" fill="#4FDB40"/>
</g>
<defs>
<clipPath id="clip0_1087_8894">
<rect width="80" height="80" fill="white"/>
</clipPath>
</defs>
</svg>
