<svg width="80" height="80" viewBox="0 0 80 80" fill="none" xmlns="http://www.w3.org/2000/svg">
<g clip-path="url(#clip0_1061_3027)">
<path d="M33.7215 60.3809C33.8963 60.4648 34.0932 60.5537 34.2317 60.6908C34.0835 60.705 33.9213 60.738 33.7774 60.6923C33.7014 60.583 33.7218 60.5119 33.7215 60.3809Z" fill="white"/>
<path d="M33.7212 62.3574C33.9418 62.4492 34.1563 62.5991 34.3621 62.7224C34.1937 62.7295 33.9279 62.7842 33.78 62.7007C33.7028 62.5759 33.7211 62.5022 33.7212 62.3574Z" fill="white"/>
<path d="M34.859 71.5488C34.9354 71.5659 34.9022 71.5621 34.9853 71.565C35.0055 71.5657 35.0257 71.5659 35.0459 71.5664C35.1082 71.612 35.1945 71.6513 35.2493 71.7034C35.3332 71.7834 35.3314 71.8177 35.3442 71.9272C35.3004 72.0669 35.1895 72.1436 35.0835 72.237L35.0255 72.2495C34.9022 72.1182 34.7358 71.9858 34.7398 71.7943C34.8134 71.7517 34.8534 71.7317 34.9058 71.6629L34.859 71.5488Z" fill="#4FDB40"/>
<path d="M30.7946 72.9766C30.9138 73.0343 31.0869 73.1726 31.1445 73.291C31.1963 73.3971 31.1779 73.4516 31.1378 73.5557C31.0004 73.6614 31.0013 73.6656 30.8292 73.6525C30.836 73.7016 30.8415 73.6802 30.8181 73.718C30.6345 73.657 30.6067 73.6024 30.5059 73.4381C30.4634 73.3689 30.4509 73.3803 30.4704 73.2983L30.6209 73.2682C30.7156 73.198 30.7386 73.1252 30.7788 73.0194L30.7946 72.9766Z" fill="#4FDB40"/>
<path d="M67.3392 60.5C67.453 60.5348 67.5431 60.558 67.6196 60.6541C67.68 60.73 67.7004 60.823 67.6824 60.9174C67.6506 61.084 67.5654 61.1582 67.4315 61.247C67.3402 61.2173 67.2323 61.1852 67.1698 61.1066C67.1059 61.0262 67.0658 60.9363 67.0808 60.8312C67.1043 60.6655 67.2107 60.5859 67.3392 60.5Z" fill="#4FDB40"/>
<path d="M7.7764 46.9098C7.90577 46.8951 8.03937 46.8808 8.15241 46.9624C8.23023 47.0185 8.28499 47.1099 8.29265 47.2063C8.30491 47.3601 8.23999 47.4958 8.15116 47.6147C8.02671 47.6245 7.89366 47.6377 7.78183 47.5702C7.69902 47.5203 7.63842 47.4418 7.6241 47.3448C7.59903 47.1749 7.68339 47.0421 7.7764 46.9098Z" fill="#4FDB40"/>
<path d="M6.99394 42.1387C7.12273 42.1445 7.23409 42.1466 7.3397 42.2348C7.42715 42.3079 7.46651 42.4057 7.46157 42.5185C7.45231 42.73 7.33701 42.8472 7.18712 42.9816C7.03419 42.9579 6.87616 42.9205 6.78344 42.783C6.72062 42.6898 6.70073 42.6047 6.71987 42.4946C6.75057 42.318 6.85936 42.2405 6.99394 42.1387Z" fill="#4FDB40"/>
<path d="M13.1284 47.7422L13.3115 47.7538C13.3083 48.8771 13.4201 49.9777 13.6518 51.077L13.5302 51.1519C13.4443 50.6576 13.3114 50.1767 13.2412 49.6775C13.1519 49.0421 13.1496 48.3833 13.1284 47.7422Z" fill="#3A693F"/>
<path d="M31.0337 68.8953L31.0921 68.8555C31.1967 68.9002 31.3005 68.953 31.4115 68.9787C31.528 69.39 31.8102 70.0125 31.7864 70.4357C31.7809 70.5341 31.7679 70.5827 31.6963 70.6492L31.6092 70.6051C31.2881 70.185 31.19 69.4086 31.0337 68.8953Z" fill="#F2C94C"/>
<path d="M57.0192 66.9639C57.2017 66.9756 57.3616 67.0222 57.4904 67.1601C57.5812 67.2573 57.6222 67.3839 57.6124 67.5161C57.5957 67.7411 57.4636 67.8689 57.3019 68.0088C57.2551 68.0096 57.2095 68.0078 57.1631 68.0013C57.0013 67.9789 56.8795 67.9116 56.7874 67.7743C56.7014 67.6457 56.6732 67.49 56.7131 67.34C56.76 67.1637 56.8666 67.0543 57.0192 66.9639Z" fill="#4FDB40"/>
<path d="M39.6544 35.7539C39.635 36.1621 39.5875 36.5666 39.5621 36.9738C39.0746 36.6975 38.5816 36.4306 38.1416 36.0808L38.1763 36.0595C38.6248 35.7796 39.1741 35.9346 39.6544 35.7539Z" fill="#F2C94C"/>
<path d="M32.3756 73.1836C32.3887 73.1874 32.4021 73.1906 32.415 73.1949C32.4358 73.202 32.4562 73.2101 32.4768 73.2176C32.7479 73.3152 33.1725 73.734 33.3029 73.9933C33.2845 74.0738 33.1554 74.2972 33.0898 74.3452C33.025 74.3925 32.8971 74.3473 32.7143 74.4994C32.6423 74.5616 32.6359 74.5766 32.5427 74.5845C32.4879 74.5336 32.4396 74.4931 32.3747 74.4548C32.2965 74.4087 32.2175 74.367 32.1493 74.3061C32.0693 74.2348 31.9456 74.0999 31.9478 73.9864C31.9536 73.6865 32.175 73.5375 32.3697 73.3567L32.3756 73.1836Z" fill="#4FDB40"/>
<path d="M69.6425 57.1992C69.7366 57.2066 69.8557 57.2075 69.9423 57.2479C70.1156 57.3288 70.2552 57.4802 70.3102 57.6647C70.3595 57.8302 70.3356 58.0118 70.2474 58.1604C70.1401 58.341 69.9759 58.3882 69.7845 58.4446C69.6763 58.4341 69.5886 58.4148 69.4905 58.3659C69.3295 58.2856 69.2124 58.1395 69.16 57.9681C69.1096 57.8031 69.1259 57.6212 69.2165 57.4731C69.3181 57.3073 69.4609 57.2452 69.6425 57.1992Z" fill="#4FDB40"/>
<path d="M8.48244 44.1401C8.57041 44.1381 8.66236 44.1353 8.74908 44.1539C8.93658 44.1941 9.10736 44.3403 9.19869 44.5053C9.29423 44.6779 9.31025 44.8887 9.24267 45.0739C9.16267 45.2933 9.00798 45.3874 8.80509 45.4809C8.70087 45.4991 8.58658 45.5027 8.48455 45.4706C8.31251 45.4165 8.16775 45.2958 8.0865 45.1343C7.99626 44.9548 7.98298 44.7414 8.05259 44.5526C8.13283 44.3348 8.27869 44.2327 8.48244 44.1401Z" fill="#4FDB40"/>
<path d="M17.1704 27.3564C17.5972 27.4008 20.5236 28.6167 20.9172 28.8766C20.9465 28.9928 20.9098 29.0416 20.8687 29.1521C20.108 28.9724 19.3477 28.5667 18.6255 28.2642C18.1436 28.0624 17.5767 27.8859 17.1337 27.6144C17.1061 27.5116 17.1404 27.4557 17.1704 27.3564Z" fill="white"/>
<path d="M46.2049 60.2334C46.2342 60.2614 46.2565 60.3099 46.2609 60.35C46.2709 60.44 46.2501 60.4886 46.1869 60.5479C45.9415 60.7787 45.5312 60.9476 45.2285 61.0943C43.5648 61.9006 41.7926 62.4054 39.9321 62.4148L39.9116 62.4066C39.9768 62.3483 41.6224 62.0594 41.8746 62.0004C43.4302 61.6365 44.8583 61.1078 46.2049 60.2334Z" fill="white"/>
<path d="M51.6676 48.5078C52.0336 48.7004 54.3888 50.8182 54.6077 51.1884C54.5902 51.3089 54.533 51.353 54.4567 51.4459C54.0052 51.1488 51.8405 49.1957 51.559 48.7722C51.5541 48.6424 51.5959 48.6129 51.6676 48.5078Z" fill="white"/>
<path d="M40.6867 35.6858C41.287 35.7452 41.9144 35.6933 42.5154 35.6631C41.8338 36.3636 41.1165 36.7507 40.2461 37.169C40.3823 36.6714 40.5354 36.1789 40.6867 35.6858Z" fill="#F2C94C"/>
<path d="M67.0483 58.0887C67.1987 58.0717 67.3578 58.0623 67.5076 58.0887C67.6695 58.1173 67.8267 58.2658 67.9056 58.4041C68.005 58.5786 68.0286 58.7977 67.9706 58.9897C67.8948 59.2402 67.7489 59.383 67.5231 59.5016C67.4305 59.5161 67.3399 59.5262 67.2461 59.516C67.046 59.4944 66.8451 59.3687 66.7275 59.2073C66.6061 59.0405 66.5627 58.8315 66.6019 58.6295C66.6546 58.359 66.8291 58.2319 67.0483 58.0887Z" fill="#4FDB40"/>
<path d="M62.6667 28.2754C62.6797 28.2762 62.6929 28.2756 62.7058 28.2777C62.7951 28.2921 62.8554 28.3088 62.9096 28.3802C62.9057 28.4132 62.9062 28.4287 62.8884 28.4612C62.6476 28.8994 59.6363 30.0477 59.0441 30.2747C58.969 30.2818 58.9362 30.2668 58.8697 30.2328C58.8225 30.1452 58.8212 30.142 58.8359 30.0437C58.9026 29.9464 58.9779 29.9048 59.0796 29.8512C59.5784 29.5887 60.1387 29.402 60.661 29.1854C61.3397 28.904 62.004 28.5921 62.6667 28.2754Z" fill="white"/>
<path d="M47.6466 11.8936C47.663 11.8986 47.6796 11.9027 47.6956 11.9086C47.7946 11.9446 47.8367 11.9656 47.8858 12.0588C47.861 12.7063 46.8834 15.749 46.5773 16.3595C46.476 16.3287 46.4158 16.3148 46.34 16.2364C46.3251 15.9836 47.4683 12.2203 47.6466 11.8936Z" fill="white"/>
<path d="M25.6976 16.1846C25.7415 16.1903 25.7855 16.1932 25.8285 16.2046C26.0415 16.2611 28.4844 19.3695 28.7001 19.7609C28.6911 19.8814 28.6529 19.9107 28.5815 20.0056C28.5387 19.9915 28.5183 19.9866 28.4805 19.9687C28.4283 19.9441 28.3896 19.9073 28.3519 19.8641C28.1501 19.6324 25.6286 16.4738 25.6052 16.3906C25.589 16.3328 25.6676 16.2365 25.6976 16.1846Z" fill="white"/>
<path d="M58.7446 39.1221C58.7621 39.124 58.7796 39.1259 58.7971 39.128C59.5349 39.2196 63.3837 39.7673 63.7046 40.1736C63.72 40.28 63.6789 40.3549 63.6378 40.4498C63.0457 40.37 62.4486 40.153 61.8616 40.023C61.449 39.9317 58.8083 39.5179 58.6693 39.3986C58.6435 39.2777 58.6911 39.2307 58.7446 39.1221Z" fill="white"/>
<path d="M31.7915 11.8516C31.8406 11.8604 31.8835 11.878 31.9301 11.8953C32.1573 12.2215 33.9529 16.5305 33.9981 16.8656C34.0073 16.9341 33.9221 17.002 33.879 17.0538C33.8114 17.0577 33.7716 17.0542 33.7083 17.0301C33.5315 16.7316 33.4144 16.38 33.2843 16.0588L32.4765 14.0276C32.3068 13.6094 31.7627 12.4662 31.6975 12.1032C31.6765 11.9865 31.7308 11.9435 31.7915 11.8516Z" fill="white"/>
<path d="M55.2533 68.5781C55.2908 68.6133 55.324 68.6518 55.3583 68.69C55.4751 68.6722 55.5872 68.6705 55.7051 68.6703C55.8387 68.8556 55.9129 68.8864 56.132 68.939C56.2021 69.2024 56.4133 69.3312 56.4076 69.5708C56.4002 69.8898 56.1482 70.1045 55.9279 70.2932C55.8259 70.3095 55.7581 70.3319 55.6649 70.3747C55.5212 70.4406 55.4693 70.4003 55.333 70.3486C55.2587 70.3744 55.2298 70.3866 55.1497 70.3782C54.974 70.1671 54.7429 69.9164 54.7157 69.632C54.6831 69.2918 55.0041 69.0598 55.1954 68.8239C55.274 68.7269 55.2679 68.703 55.2533 68.5781Z" fill="#4FDB40"/>
<path d="M31.0337 68.8955C30.6958 68.0682 30.4032 66.802 30.1396 65.9094C29.8995 65.0967 29.5668 64.2613 29.3969 63.4335C29.3682 63.2936 29.3612 63.1836 29.3959 63.0452L29.4537 62.998C29.6087 63.0673 29.6736 63.2063 29.7343 63.3592C29.991 64.0068 30.1199 64.7471 30.3281 65.4161L31.021 67.6532C31.1564 68.0917 31.3108 68.531 31.4115 68.9788C31.3005 68.9532 31.1967 68.9004 31.0921 68.8556L31.0337 68.8955Z" fill="#93683D"/>
<path d="M35.5435 37.3975C37.1182 37.8351 38.7892 38.0149 40.4188 38.0565L40.5784 38.1218L40.5888 38.1857C39.8326 38.8183 38.4059 38.558 37.5085 38.4782C36.9371 38.4274 36.3685 38.3464 35.8015 38.2603C35.7099 37.9741 35.626 37.6863 35.5435 37.3975Z" fill="#FEEC8E"/>
<path d="M39.857 6.23535C39.8972 6.24226 39.9149 6.24455 39.9572 6.25596C40.0463 6.28001 40.1193 6.29537 40.1532 6.39016C40.2853 6.75916 40.3362 13.2913 40.2495 14.1118C40.2398 14.2043 40.2174 14.2726 40.1794 14.3568C40.105 14.3481 40.0448 14.3417 39.9755 14.3104C39.912 14.2818 39.9027 14.2497 39.8864 14.1808C39.8295 13.9395 39.8834 12.5707 39.8828 12.2151C39.8802 10.7137 39.8589 9.21785 39.8147 7.71714C39.8042 7.36322 39.7009 6.49441 39.857 6.23535Z" fill="white"/>
<path d="M48.0305 33.3516C48.0588 33.3552 48.085 33.3575 48.1124 33.3676C48.2219 33.4077 48.2373 33.4349 48.2947 33.5304C48.3073 33.6759 48.2838 33.7857 48.2345 33.9234C47.766 35.23 46.7963 36.0999 45.5568 36.6614L45.4132 36.7126L45.3628 36.6856C45.7718 35.738 47.1102 33.7927 48.0305 33.3516Z" fill="#F2C94C"/>
<path d="M18.5196 18.1846C18.9309 18.3125 24.7003 22.6681 24.8686 22.9696C24.8664 23.0877 24.8238 23.129 24.7615 23.2275C24.717 23.2226 24.7144 23.2246 24.6653 23.2065C24.3187 23.0792 21.2736 20.6697 20.7086 20.2454C20.0401 19.7432 19.3356 19.2771 18.6858 18.7525C18.5746 18.6628 18.4748 18.5756 18.4077 18.4474C18.4149 18.3239 18.4527 18.2864 18.5196 18.1846Z" fill="white"/>
<path d="M32.2515 33.123C32.3214 33.1378 32.392 33.1533 32.4595 33.1766C33.1208 33.405 33.6249 34.3064 33.9228 34.8937C34.0599 35.1641 34.5606 36.1415 34.4906 36.3537L34.4006 36.3452C33.8168 36.065 33.2868 35.6741 32.8503 35.1956C32.476 34.7855 31.9788 34.1261 32.0238 33.5419C32.0393 33.3405 32.1038 33.2558 32.2515 33.123Z" fill="#FEEC8E"/>
<path d="M17.174 34.5963C15.6069 34.3919 14.0202 34.2667 12.4472 34.1073C11.8472 34.0465 11.1959 34.0348 10.6069 33.9178C10.5128 33.8992 10.4463 33.8767 10.3804 33.8036C10.3849 33.7122 10.3905 33.7241 10.444 33.6584C10.8764 33.4914 16.3537 34.1627 17.2832 34.2592C17.7363 34.2885 19.6359 34.2975 19.9119 34.556C19.943 34.5851 19.9329 34.591 19.9297 34.6318C19.8292 34.7226 19.7377 34.7926 19.5955 34.788C19.5441 34.7863 19.4932 34.7792 19.4423 34.7726L19.4176 34.7696C18.6713 34.7802 17.9146 34.6796 17.174 34.5963Z" fill="white"/>
<path d="M66.0495 17.9883C66.0978 18.0045 66.1518 18.0366 66.1979 18.0594C66.2546 18.1474 66.2546 18.1407 66.2351 18.2434C65.8787 18.7124 65.0344 19.2219 64.5344 19.583C62.1971 21.2715 59.7863 22.9624 57.2887 24.4059L57.1965 24.3663C57.131 24.2735 57.1186 24.2699 57.1243 24.1581C57.4368 23.7817 58.9029 22.9691 59.3982 22.6478C60.3943 22.0019 61.3856 21.3447 62.3655 20.6744C63.6229 19.8143 64.837 18.9101 66.0495 17.9883Z" fill="white"/>
<path d="M45.7359 64.9658L45.7489 64.9736L45.7369 65.0225C44.8997 65.7922 43.2226 66.4984 42.1182 66.7706C39.6255 67.385 36.8068 66.8986 34.6243 65.5853C34.4587 65.4826 34.301 65.3607 34.1416 65.2483C34.4413 65.3484 34.7265 65.5302 35.0146 65.6632C35.3783 65.8311 35.7601 65.9375 36.1471 66.0371C38.5656 66.6596 41.4854 66.7311 43.8489 65.8962C44.521 65.6588 45.1245 65.3257 45.7359 64.9658Z" fill="white"/>
<path d="M38.4507 53.3418C38.4957 54.3389 38.4777 55.3419 38.4736 56.3398C37.6803 56.3184 36.8755 56.278 36.0908 56.1537C36.7728 55.0686 37.3691 54.0855 38.4507 53.3418Z" fill="white"/>
<path d="M43.09 35.9676C43.5181 36.0386 44.6607 35.4284 45.0263 35.193C45.2971 35.0188 45.5814 34.7548 45.8877 34.6582C45.3771 35.4459 44.8332 36.2413 44.4161 37.0834C43.339 37.351 42.2021 37.5067 41.0908 37.4475C41.8828 37.0484 42.4611 36.5947 43.09 35.9676Z" fill="#F2C94C"/>
<path d="M69.9045 33.8857C69.9318 33.8869 69.9753 33.8873 70.0006 33.8956C70.0831 33.9227 70.093 33.9645 70.1248 34.0366L70.0837 34.1201C69.6967 34.3828 68.8565 34.3896 68.3948 34.4443C65.0219 34.845 61.6267 34.9677 58.2323 34.9593C58.1895 34.9564 58.1282 34.9364 58.0857 34.9262C58.0175 34.8448 58.0136 34.8357 58.002 34.7301C58.087 34.6329 58.1631 34.6135 58.2903 34.5958C58.8624 34.5164 59.5042 34.5756 60.0837 34.5737C60.9234 34.571 61.7655 34.5386 62.6045 34.5103C65.0545 34.4277 67.4742 34.1946 69.9045 33.8857Z" fill="white"/>
<path d="M55.2918 45.209C55.3486 45.2127 55.3621 45.2126 55.4211 45.2214C55.8399 45.2846 56.3749 45.6095 56.7655 45.7884C59.7089 47.1369 62.5385 48.7326 65.2553 50.4922C65.4861 50.6416 66.0801 50.9209 66.2038 51.1594C66.2608 51.2691 66.2195 51.3213 66.1826 51.428C66.1689 51.4298 66.1552 51.4333 66.1414 51.4334C65.8798 51.4345 64.6693 50.5611 64.3958 50.3897C62.4129 49.1472 60.3537 47.949 58.2534 46.9212C57.8357 46.7168 55.4565 45.707 55.3175 45.5061C55.2413 45.3962 55.2732 45.3307 55.2918 45.209Z" fill="white"/>
<path d="M45.8781 55.8584C45.9237 55.9524 45.9986 56.0762 45.9666 56.1807C45.9184 56.3386 45.7788 56.4254 45.6359 56.4899C42.4945 57.9093 37.0004 57.7204 33.797 56.5583L33.7222 56.5131C33.712 56.4698 33.7078 56.4586 33.7051 56.4083C33.6998 56.3153 33.6975 56.2204 33.7583 56.1501C34.1259 56.1957 34.5011 56.3682 34.8641 56.4572C37.9332 57.2092 43.0922 57.5574 45.8781 55.8584Z" fill="white"/>
<path d="M42.1213 67.2011L42.2254 67.1914L42.257 67.2562C42.186 67.6015 41.9423 67.9958 41.7148 68.2632C41.3435 68.6995 40.8118 68.9326 40.2477 68.976C39.5921 69.0266 38.9983 68.8409 38.4976 68.4075C38.1515 68.0445 37.9747 67.6887 37.855 67.2048C39.1691 67.5137 40.7939 67.4404 42.1213 67.2011Z" fill="white"/>
<path d="M20.643 38.96C20.8629 39.6205 21.1566 40.2676 21.4149 40.9145L22.8209 44.4078C21.3217 42.9513 19.5178 41.516 18.6138 39.597C19.313 39.4952 19.9678 39.1504 20.643 38.96Z" fill="#4FDB40"/>
<path d="M40.6865 35.6861C41.06 34.6384 42.0593 32.332 43.1032 31.8613C43.2472 31.7964 43.408 31.7657 43.5597 31.8236C43.7009 31.8775 43.7929 31.9959 43.8471 32.1326C44.0829 32.7263 43.8155 33.5597 43.5589 34.1081C43.2928 34.6772 42.9251 35.1897 42.5152 35.6634C41.9142 35.6936 41.2868 35.7455 40.6865 35.6861Z" fill="#FEEC8E"/>
<path d="M33.6973 59.3203C34.9598 59.4278 36.1888 59.7177 37.4379 59.9019C39.7436 60.2418 41.9078 60.0333 44.1666 59.5365C43.9513 59.6445 43.729 59.7327 43.5058 59.8225C42.5887 60.1549 41.6545 60.4423 40.6936 60.618C39.4516 60.8451 36.782 61.1402 35.6161 60.8489C34.9162 60.6741 34.297 60.323 33.708 59.9162C33.6998 59.7182 33.7007 59.5185 33.6973 59.3203Z" fill="white"/>
<path d="M38.9353 53.0775C39.6164 52.7203 40.3858 52.477 41.1277 52.2783C41.0725 53.6282 41.0285 54.9784 41.0129 56.3295C40.324 56.3589 39.6329 56.3762 38.9433 56.3584C38.9376 55.2654 38.9189 54.1704 38.9353 53.0775Z" fill="white"/>
<path d="M33.2729 58.0635C33.2696 58.7282 33.2959 59.3834 33.3186 60.0471C32.3529 61.2525 31.0825 62.3503 29.6408 62.923C29.5691 62.6408 29.0454 60.7828 29.1082 60.6589C29.289 60.5796 29.4618 60.4775 29.6354 60.3833C30.8935 59.6746 32.0786 58.8725 33.2729 58.0635Z" fill="#4FDB40"/>
<path d="M46.1251 63.1641C46.2182 63.2601 46.1646 64.0783 46.1644 64.2523C45.0296 65.0083 43.9781 65.5741 42.6252 65.8609C39.9671 66.4245 36.3367 66.2313 34.0238 64.7332C33.9733 64.6992 33.9024 64.6564 33.8642 64.6079C33.7844 64.5063 33.7359 64.2986 33.7529 64.1724C33.8845 64.0813 34.1718 64.2802 34.3088 64.3502C35.3197 64.8676 36.4618 65.1238 37.5867 65.2528C39.8392 65.5114 42.7103 65.1185 44.7296 64.0919C45.235 63.8349 45.6831 63.5159 46.1251 63.1641Z" fill="white"/>
<path d="M46.2009 60.9756C46.2182 61.3471 46.2038 61.7229 46.2003 62.0948C44.7516 63.0361 43.1084 63.5674 41.4146 63.8588C40.8457 63.9567 40.2485 64.0048 39.6877 64.132C39.5629 64.1604 39.4798 64.19 39.4096 64.2984L39.4303 64.3836C39.7058 64.6129 40.385 64.5677 40.748 64.588C38.8509 65.0726 37.0123 64.9814 35.1711 64.3381C34.6663 64.1318 34.1902 63.9037 33.7251 63.6181L33.7188 63.0422C34.7897 63.0797 35.8302 63.1647 36.895 63.2775C39.9528 63.6013 43.766 62.9424 46.2009 60.9756Z" fill="white"/>
<path d="M38.1417 36.0807C37.8953 35.8856 37.656 35.676 37.4303 35.4574C36.58 34.634 35.9864 33.6175 35.9757 32.404C35.9716 31.939 36.0533 31.3931 36.4042 31.058C36.6082 30.8632 36.9364 30.7253 37.2211 30.7474C37.7312 30.7871 38.2905 31.2966 38.6034 31.6749C39.5859 32.8625 39.7862 34.2641 39.6546 35.7538C39.1742 35.9346 38.625 35.7796 38.1764 36.0594L38.1417 36.0807Z" fill="#FEEC8E"/>
<path d="M46.2251 58.5469C46.3516 58.6759 46.2833 59.547 46.2834 59.7627C44.7663 60.8255 42.9757 61.4152 41.1697 61.7659C40.7386 61.8496 39.9636 61.8858 39.5985 62.0586C39.464 62.1223 39.2955 62.2361 39.2674 62.3952C39.2578 62.4497 39.2594 62.5066 39.2974 62.5485C39.5037 62.7767 40.298 62.7063 40.6004 62.721C38.582 63.0387 37.0908 63.053 35.0796 62.6291C34.6041 62.4548 34.1632 62.1654 33.7525 61.8745C33.7334 61.613 33.7282 61.3533 33.7261 61.0912C33.8567 61.1078 33.987 61.1191 34.1183 61.1288C36.9371 61.3391 39.2938 61.4275 42.0603 60.7038C42.8476 60.4979 43.6436 60.2466 44.3639 59.8641C45.0419 59.5041 45.6455 59.046 46.2251 58.5469Z" fill="white"/>
<path d="M17.1738 34.5967C17.9143 34.68 18.6711 34.7806 19.4174 34.77L19.3286 34.8203C19.3266 35.1521 20.3266 38.0715 20.5251 38.5675L20.6113 38.6243L20.6768 38.6297C20.7032 38.7171 20.7563 38.8098 20.705 38.8968C20.6925 38.9179 20.6615 38.9439 20.643 38.9606C19.9678 39.1511 19.313 39.4958 18.6138 39.5976L18.5524 39.6328C17.4151 39.9395 16.2161 40.2138 15.0395 40.3L14.4814 40.3178C14.6036 40.1236 14.9514 40.1 15.1679 40.0485C15.2892 39.5389 15.5499 38.9899 15.7314 38.4936L17.1738 34.5967Z" fill="#4FDB40"/>
<path d="M20.6113 38.624L20.6768 38.6295C20.7032 38.7168 20.7563 38.8096 20.705 38.8966C20.6925 38.9176 20.6615 38.9436 20.643 38.9604C19.9678 39.1508 19.313 39.4956 18.6138 39.5974L18.5524 39.6325C17.4151 39.9393 16.2161 40.2136 15.0395 40.2998L14.4814 40.3175C14.6036 40.1233 14.9514 40.0997 15.1679 40.0482C15.5488 39.8927 15.9829 39.8187 16.3836 39.7273C17.0682 39.5711 17.7575 39.4264 18.4352 39.2426C19.0043 39.0883 20.0933 38.6508 20.6113 38.624Z" fill="white"/>
<path d="M46.2385 56.4785C46.2451 56.4848 46.2533 56.4898 46.2583 56.4974C46.3814 56.6864 46.3303 57.5322 46.3298 57.789C45.5565 58.358 44.742 58.7462 43.8132 58.9966C41.6679 59.5746 38.0465 59.8883 35.886 59.2973C35.2817 59.132 34.6612 58.798 34.1192 58.4866L33.6881 58.218C33.6768 57.8123 33.6849 57.4051 33.6855 56.9993C35.5396 57.5696 37.4357 57.7765 39.37 57.8259C41.2346 57.8734 43.1185 57.7696 44.8991 57.1688C45.3791 57.0068 45.8653 56.8328 46.2385 56.4785Z" fill="white"/>
<path d="M42.1389 52.048C42.7009 51.9858 43.2688 51.8529 43.8277 51.7605C45.0643 51.5559 46.3467 51.3686 47.6001 51.3262C47.4808 52.4316 47.506 54.2062 46.5758 54.9449C45.4326 55.8528 43.0014 56.2045 41.5239 56.2968L41.6881 52.1366C41.8442 52.1166 41.9881 52.093 42.1389 52.048Z" fill="white"/>
<path d="M30.4273 46.6064C31.0147 47.6164 31.431 48.8813 31.6617 50.0189C32.0011 51.6928 31.9499 54.8301 33.3219 55.9776C33.292 56.3832 33.345 57.535 33.2367 57.825C32.0176 58.6861 30.7857 59.51 29.49 60.2531L29.0228 60.4922C28.7678 59.7293 28.5875 58.9164 28.3655 58.1414C28.9981 57.4589 29.5943 56.7214 30.1862 56.003C30.4887 55.6358 30.8412 55.2603 31.0936 54.8592C31.1431 54.7803 31.1819 54.7281 31.1596 54.634C31.0625 54.6456 31.0111 54.6765 30.9439 54.7471C30.654 55.0509 30.4033 55.4336 30.1352 55.7603C29.5364 56.49 28.9225 57.2084 28.3134 57.9296C27.9547 56.6438 27.5275 55.3934 27.0752 54.1385L27.285 53.6563C27.4034 53.2742 27.6157 52.8884 27.7743 52.5168L28.976 49.7553C29.4813 48.7172 29.9336 47.6508 30.4273 46.6064Z" fill="#4FDB40"/>
<path d="M40.4186 38.0561C41.6863 38.082 42.8774 38.0007 44.1274 37.7891C43.6582 39.0723 43.327 40.4016 42.9731 41.72C42.044 45.1808 41.1995 48.6765 41.1275 52.2786C40.3856 52.4773 39.6162 52.7205 38.9351 53.0777C38.9467 52.5662 38.7721 49.9898 38.81 49.8673L38.9291 49.8276L38.9128 49.7932L38.7724 49.7824C38.7163 49.6267 38.6809 49.4915 38.7298 49.3283C38.7533 49.25 38.764 49.2037 38.7533 49.12C38.6858 49.0199 38.618 48.9356 38.603 48.8123C38.6506 48.7389 38.6774 48.7005 38.6956 48.6134C38.6683 48.5902 38.6527 48.5777 38.6261 48.551C38.4243 48.3479 38.3355 47.5152 38.3273 47.22C38.4507 47.2172 38.5589 47.2113 38.6787 47.1802L38.7085 47.1279L38.6675 47.0688L38.293 47.0102C38.1153 46.7098 38.0693 46.058 37.9809 45.6973C37.3643 43.185 36.5816 40.7247 35.8013 38.2598C36.3682 38.346 36.9369 38.427 37.5082 38.4777C38.4056 38.5576 39.8324 38.8179 40.5886 38.1853L40.5781 38.1214L40.4186 38.0561Z" fill="#F2C94C"/>
<path d="M18.0455 30.1729C18.2815 30.4857 18.5716 30.7647 18.8456 31.0443C20.0291 32.2514 21.3425 33.2761 22.7454 34.2168C23.2835 34.5776 23.8609 34.8911 24.3861 35.2686C24.8655 38.4304 26.3012 40.9493 28.2262 43.4501C28.9632 44.4077 29.8092 45.3496 30.3322 46.4486C29.7895 47.3385 29.3352 48.5563 28.8856 49.5222C28.4362 50.4939 28.0122 51.4762 27.5908 52.4603C27.4394 52.8138 27.1873 53.2652 27.1193 53.6413C27.0918 53.6924 27.0601 53.7401 27.0287 53.7889L26.9695 53.769C26.8177 53.5299 26.7592 53.2028 26.655 52.9362C26.2623 51.9315 25.8877 50.92 25.4846 49.9193C24.6824 47.9279 23.7241 45.9911 22.9648 43.9848C23.1842 42.8776 23.5692 41.7604 23.9541 40.7007C24.0513 40.4331 24.1874 40.1746 24.27 39.9023C24.3013 39.7989 24.3338 39.6936 24.2991 39.5878C23.9152 39.8614 22.9733 43.2055 22.8625 43.8175C22.6094 43.298 22.4169 42.735 22.1997 42.1985C21.7163 41.0043 21.2351 39.7825 20.7045 38.6094C20.5606 38.0111 20.3102 37.4129 20.1184 36.8263C19.9231 36.2295 19.7144 35.2985 19.4177 34.7702L19.4423 34.7732C19.4932 34.7797 19.5441 34.7868 19.5955 34.7886C19.7377 34.7932 19.8292 34.7232 19.9297 34.6324C19.9329 34.5915 19.943 34.5857 19.912 34.5565C19.6359 34.2981 17.7363 34.2891 17.2832 34.2598C17.6836 32.9435 17.878 31.5346 18.0455 30.1729Z" fill="#4FDB40"/>
<path d="M15.0395 40.3001C16.2161 40.2138 17.4151 39.9395 18.5524 39.6328C19.2043 41.2559 20.7282 42.5952 21.9506 43.8055C22.234 44.0861 22.6188 44.363 22.8566 44.676C23.2361 45.1755 26.5168 53.2358 26.547 53.8051C25.9282 53.4827 25.3554 53.0319 24.7433 52.6861C22.9653 51.6819 21.1545 50.7945 19.4774 49.616C19.092 49.3452 18.6621 49.0664 18.3288 48.7331L18.1105 48.8505C16.6934 49.7532 15.2182 50.6288 13.696 51.3431L13.4665 51.4546C12.9119 51.7047 12.422 52.0727 11.8389 52.2606C12.2679 51.7792 12.9939 51.5125 13.53 51.1525L13.6516 51.0777C13.4199 49.9784 13.3081 48.8777 13.3113 47.7544L13.3546 46.7425C13.4397 46.158 13.4944 45.5744 13.6041 44.9925C13.903 43.4073 14.4252 41.7902 15.0395 40.3001Z" fill="#4FDB40"/>
<path d="M17.7788 48.578C17.1587 48.0918 16.572 47.4329 16.0796 46.82C15.9855 46.7028 15.9087 46.6109 15.9264 46.4512C16.0178 46.4605 16.0442 46.5064 16.1104 46.5688C16.7646 47.1856 17.2926 47.887 17.9958 48.466L17.7788 48.578Z" fill="#2D2D2D"/>
<path d="M17.9956 48.4656C19.0086 47.8458 20.0052 47.199 21.0096 46.5655C21.474 46.2727 21.9622 45.9147 22.4584 45.6844C22.6013 45.6181 22.8355 45.5201 22.9963 45.56C23.0077 45.5629 23.0183 45.5681 23.0293 45.5722C23.0622 45.6574 23.0632 45.6567 23.029 45.737C22.9583 45.9029 22.7763 46.0519 22.6333 46.1569C22.2936 46.4064 21.8825 46.6133 21.5221 46.8372C20.4724 47.4893 19.41 48.134 18.3288 48.7327L18.1105 48.8502C16.6934 49.7529 15.2182 50.6285 13.696 51.3428L13.4665 51.4543C12.9119 51.7043 12.422 52.0723 11.8389 52.2603C12.2679 51.7789 12.9939 51.5122 13.53 51.1522L13.6516 51.0773C14.1037 50.7289 14.639 50.4407 15.1301 50.1461L17.7786 48.5775L17.9956 48.4656Z" fill="white"/>
<path d="M45.8301 18.5974C47.0901 15.7837 49.416 13.803 52.2689 12.7148C53.335 12.3081 54.4402 12.0163 55.5549 11.7773C57.2947 11.4042 58.7758 11.3438 60.2201 10.1562C58.5743 12.5596 58.6401 14.423 58.4233 17.1673C58.1397 20.7581 56.9034 23.2084 53.9985 25.3731C53.4285 24.7398 53.0373 23.9359 52.4502 23.3256C52.447 23.2854 52.4311 23.248 52.4582 23.2163C52.4709 23.2156 52.4837 23.2153 52.4965 23.2142C53.2102 23.1533 54.8891 22.6536 55.3551 22.1034L55.3434 22.0091L55.2836 21.9651C55.0784 21.993 54.3412 22.4215 54.0638 22.5312C53.453 22.7727 52.838 22.9139 52.193 23.023C51.9957 22.8411 50.7409 21.5843 50.6674 21.4515C50.9397 20.7647 56.0741 20.1384 56.4963 19.6471C56.5376 19.5991 56.5207 19.6029 56.511 19.5307C56.4811 19.5191 56.4534 19.4981 56.4214 19.4956C56.3085 19.487 55.639 19.7279 55.4609 19.773C53.9495 20.1561 52.4373 20.4244 50.9524 20.9181C51.19 20.5101 52.0282 19.1573 52.342 18.9011C52.6165 18.677 53.0078 18.548 53.3366 18.4205C54.5631 17.9449 55.9296 17.6637 57.0047 16.872C57.1662 16.753 57.3675 16.6129 57.4639 16.4344L57.4353 16.3914C57.1842 16.3816 56.5114 16.9627 56.2186 17.0984C55.0633 17.6334 53.8209 17.9353 52.663 18.4643C53.0917 17.8885 53.5651 17.3445 54.0702 16.8346C54.4925 16.4083 54.9297 15.9955 55.3715 15.5896C55.759 15.2336 57.8489 13.4941 57.9177 13.1752L57.8617 13.1209C57.4034 13.2696 55.4884 15.0454 55.0087 15.4583C55.0012 14.5616 55.1573 13.5539 55.5499 12.741C55.5813 12.676 55.6051 12.6316 55.6198 12.5593C55.6329 12.4948 55.6084 12.4887 55.5726 12.4396L55.498 12.4302C55.47 12.4552 55.4595 12.4624 55.437 12.4896C55.3179 12.6344 55.2482 12.8718 55.1868 13.048C54.8883 13.9048 54.7513 14.715 54.8041 15.6211C53.9187 16.5234 53.0452 17.417 52.2811 18.4269C51.9937 17.316 52.0197 15.9373 52.2574 14.8119C52.3277 14.4794 52.4993 14.0664 52.5055 13.7365C52.5073 13.644 52.47 13.622 52.4083 13.5668C52.3643 13.5881 52.3514 13.5859 52.3258 13.6206C52.1853 13.8109 52.1291 14.1508 52.0727 14.3755C51.7037 15.8445 51.7584 17.1898 52.0283 18.6634C51.7333 19.1037 51.4267 19.5362 51.1437 19.9843C50.8896 20.3866 50.6518 20.849 50.3448 21.2105C50.1929 21.1032 49.9029 20.9348 49.833 20.768L49.9086 20.7279C49.9648 20.3927 49.7245 19.2583 49.708 18.7675C49.6779 17.8711 49.7795 16.8962 49.9668 16.0197C50.0243 15.7506 50.1161 15.4924 50.1708 15.222C50.1055 15.1832 50.1018 15.1964 50.0302 15.2059C49.9649 15.2651 49.9284 15.3153 49.8944 15.3974C49.8204 15.5755 49.7923 15.7704 49.7445 15.9564C49.4149 17.2402 49.2192 19.4725 49.741 20.7167C49.1055 20.3866 48.5631 19.8864 47.9184 19.5581C47.866 19.2383 47.7974 18.0336 47.6318 17.8882C47.6203 17.8781 47.6066 17.8709 47.5941 17.8622L47.5277 17.8834C47.3692 18.2201 47.5181 19.003 47.5454 19.3875C46.9775 19.1142 46.4075 18.8501 45.8301 18.5974Z" fill="#4FDB40"/>
<path d="M28.7448 37.4858C29.0585 37.0665 29.214 36.8467 29.7638 36.7713C30.7917 36.6302 32.9119 37.3849 33.9013 37.7285C34.2546 37.8511 34.7514 38.0992 35.1174 38.0814C36.0648 41.0466 37.0331 43.9708 37.6922 47.0189C37.8191 47.6055 38.0267 48.2678 38.0121 48.8673C38.0016 49.2975 38.1779 49.7216 38.2288 50.1498C38.3545 51.2073 38.3998 52.2787 38.4509 53.3417C37.3692 54.0855 36.7729 55.0685 36.091 56.1537C35.4678 56.0624 34.8496 55.8874 34.2356 55.7459C33.9402 54.5598 33.9696 53.416 33.9314 52.2089C33.8742 50.4023 33.4356 48.5633 32.6012 46.9539C32.3948 46.556 32.1332 45.942 31.8166 45.6399C31.7391 45.566 31.7022 45.5513 31.597 45.5517L31.5305 45.6246L31.5736 45.6298C31.5655 45.6482 31.5506 45.665 31.5492 45.6851C31.5417 45.7891 32.9877 48.059 32.9525 48.6669L32.856 48.7219L32.8596 48.7753L33.0261 48.8603C33.6405 50.2692 33.5371 52.2579 33.6194 53.7869C33.6535 54.4205 33.7355 55.0403 33.8382 55.6662C33.6906 55.5788 33.5362 55.5006 33.4222 55.3688C32.4406 54.2338 32.443 51.0442 32.0483 49.502C31.5418 47.5233 30.6203 45.7535 29.3903 44.1322C28.7153 43.2424 27.9906 42.3838 27.3603 41.4615C26.8404 40.701 26.3985 39.8877 25.9946 39.0608C26.2467 39.1082 27.1497 39.4034 27.3339 39.3399C27.5864 39.8924 28.9528 42.4268 29.3517 42.6265C29.4415 42.6272 29.4552 42.63 29.5299 42.5824C29.5324 42.5293 29.5317 42.485 29.5081 42.4359C29.3776 42.1645 29.1862 41.9018 29.0282 41.6431C28.6749 41.0641 28.3157 40.4829 28.0141 39.8749C28.6274 40.0492 29.1824 40.3831 29.8062 40.5546C29.7762 40.2324 29.7431 39.6401 29.5167 39.3921C29.4364 39.3042 29.3402 39.3069 29.2297 39.3003C29.296 39.2651 29.3407 39.2243 29.3942 39.1722C29.4381 38.9457 28.8643 37.7855 28.7448 37.4858Z" fill="#F2C94C"/>
<path d="M33.507 46.3939C33.3657 46.1385 33.0623 45.7996 33.021 45.5154C33.0122 45.4546 33.0342 45.4463 33.0667 45.4007L33.1982 45.3955C33.2653 45.4989 33.2948 45.5842 33.4095 45.634C33.4941 45.5952 33.5552 45.5517 33.628 45.495L33.6001 45.5539C33.5665 45.6239 33.5269 45.6859 33.4841 45.7506C33.6467 46.2219 33.9953 46.6299 34.202 47.0861C34.9295 48.6914 35.4695 50.5511 35.4754 52.3248C35.4393 52.3384 35.3719 52.3703 35.3307 52.3736C34.8748 52.4096 35.2571 50.0236 34.5258 49.3688C34.5737 49.3761 34.6205 49.3877 34.6676 49.3984C34.7159 48.8966 33.785 46.8098 33.507 46.3939Z" fill="#2D2D2D"/>
<path d="M13.6963 51.3432C15.2185 50.6289 16.6937 49.7532 18.1108 48.8506C20.0715 50.4572 22.2882 51.5424 24.486 52.7713C25.1878 53.1637 25.8677 53.595 26.5507 54.0189C26.6282 54.0829 26.6663 54.1374 26.707 54.2299C26.9639 54.8141 28.0907 58.2457 28.1318 58.7286C28.1328 58.7407 28.1322 58.7529 28.1325 58.765C26.1365 57.9441 24.0515 57.3867 22.0637 56.5432C21.2661 56.2047 20.4779 55.7917 19.7159 55.379C19.3096 55.1589 18.9253 54.8898 18.4949 54.7187L18.5059 54.7249L18.3918 54.7482C18.755 55.1514 19.3436 55.4073 19.8163 55.6575C20.9459 56.2555 22.0705 56.7982 23.2701 57.2434C24.8879 57.8438 26.5489 58.3201 28.1662 58.9318C28.4279 59.3878 28.5451 60.2547 28.6672 60.7874C27.9014 60.7661 27.1211 60.6458 26.3646 60.5289C25.5976 60.4211 24.8335 60.2871 24.0757 60.1264C23.6189 60.0295 21.6501 59.4798 21.3385 59.512L21.2958 59.5522L21.3227 59.6282C21.6207 59.7675 21.9932 59.8262 22.315 59.9072C23.6364 60.2398 24.9513 60.4759 26.297 60.6839C27.0857 60.7976 27.9039 60.9529 28.701 60.9543C28.8692 61.1684 29.1708 62.6786 29.2591 63.0529C28.8147 63.1177 28.3689 63.1786 27.9206 63.21C27.4239 63.2347 26.9214 63.2688 26.4254 63.2207L26.148 63.2019C25.1828 63.0274 24.2654 62.8909 23.3156 62.6272C22.0198 62.1914 20.5939 61.4453 19.5139 60.606C18.9233 60.147 18.3845 59.6149 17.8406 59.1023C16.3057 57.6203 15.2818 55.7943 14.4724 53.8408C14.2781 53.3048 14.1147 52.7577 13.9457 52.2133C13.9064 51.9275 13.783 51.6186 13.6963 51.3432Z" fill="#4FDB40"/>
<path d="M47.715 53.597C50.6905 52.3042 53.9571 52.1002 57.0802 52.9554C59.1411 53.5197 60.6322 54.1509 62.8574 53.8052C61.9889 54.8817 61.2144 55.9413 60.5351 57.1502C60.1184 57.8917 59.7801 58.6641 59.3969 59.4216C58.3572 61.4763 57.0882 63.3911 55.1233 64.6684C54.009 65.3929 52.8108 65.8336 51.4869 65.9777C49.6683 66.1758 47.4958 65.9699 45.7925 65.277C46.0492 65.0589 46.2865 64.8441 46.4815 64.5672C46.499 63.604 46.4471 62.5778 46.5647 61.6235C47.1419 61.9438 47.7447 62.2138 48.335 62.5085C49.6944 63.1873 50.9478 63.8894 52.4894 64.0856C52.7555 64.1195 53.0777 64.167 53.3439 64.1347C53.4226 64.1252 53.4349 64.1286 53.4814 64.0622C53.2859 63.9063 52.7989 63.9401 52.5416 63.9106C52.1222 63.8624 51.6544 63.726 51.2497 63.602C50.2597 63.2988 49.3612 62.7656 48.4372 62.3087C47.8331 62.0101 47.1942 61.7428 46.6155 61.3992L46.5672 61.3702C46.5646 61.32 46.555 61.3218 46.585 61.2842C46.7212 61.1133 47.1699 60.9902 47.3711 60.9081C47.7345 60.7599 48.1365 60.5259 48.5279 60.4849C49.3537 60.3981 51.4158 61.2249 52.3052 61.4834C52.9873 61.6816 53.6799 61.8409 54.389 61.9019C54.6587 61.9251 54.9683 61.969 55.2358 61.9281C55.3288 61.9139 55.3408 61.9163 55.4002 61.8397C55.2631 61.6699 54.2438 61.6638 53.9957 61.6273C52.9216 61.4691 51.8812 61.1319 50.8505 60.8009C50.2486 60.6077 49.6392 60.4242 49.0476 60.201C49.6712 59.9187 50.5376 59.7206 51.0935 59.3588C51.5461 59.2313 52.3906 58.7781 52.8084 58.7724C53.0865 59.0579 54.2813 59.3024 54.6837 59.4043C55.1883 59.532 56.5325 59.8203 57.0056 59.537C56.6583 59.3967 55.7003 59.4011 55.2254 59.3112C54.4738 59.1688 53.6483 58.8096 52.9624 58.7081C53.1223 58.5508 56.4225 57.194 56.9524 56.955C57.6531 57.3107 58.5514 57.3656 59.3002 57.1233C59.3704 57.1006 59.4205 57.0708 59.4793 57.0275L59.4954 56.9601C59.3237 56.8645 58.6883 57.0699 58.4379 57.0733C57.9994 57.0793 57.5614 57.0025 57.1511 56.8479C57.9602 56.4571 59.6909 55.6717 60.2626 55.0699C59.1611 55.4739 58.1716 56.1981 57.074 56.6306C57.2113 56.117 57.3673 55.6407 57.6301 55.1762C57.7925 54.8889 57.9994 54.6107 58.1272 54.3072C57.3797 54.8799 57.0295 55.8748 56.8207 56.7609C55.9748 57.1746 55.088 57.4724 54.2335 57.8591C54.3851 56.6446 54.7537 55.7235 55.5012 54.7607C55.5728 54.6685 55.6494 54.5843 55.6061 54.4669C55.2227 54.6062 54.709 55.5695 54.539 55.9318C54.2349 56.5797 54.1344 57.2406 54.0281 57.9412C53.0367 58.3739 52.0246 58.7424 51.0101 59.1163C51.0066 59.1029 51.0015 59.0898 50.9996 59.076C50.9779 58.9236 51.0613 58.6802 51.0975 58.5257C51.3773 57.3313 51.8342 56.0666 52.5776 55.0807C52.7356 54.8711 53.2555 54.3807 53.2019 54.1137C52.9552 54.1611 52.3328 55.0556 52.1801 55.2824C51.4001 56.442 50.9572 57.863 50.7137 59.2341C49.3399 59.7501 47.9544 60.2516 46.6024 60.8229C46.6051 60.4516 46.5194 59.7145 46.6983 59.4119C47.5092 58.1724 48.2918 56.8879 49.1902 55.7106C49.5432 55.2481 50.3006 54.5466 50.5551 54.1352L50.5337 54.071L50.4651 54.0817C49.1947 54.9762 47.5 57.7687 46.662 59.1377L46.6597 59.0947C46.6238 58.3397 46.8233 56.9825 46.6108 56.3504C46.5219 56.0858 46.2957 55.8989 46.1939 55.6335C46.871 55.2832 47.3538 54.789 47.5912 54.0518C47.639 53.9031 47.6855 53.7504 47.715 53.597Z" fill="#4FDB40"/>
<path d="M25.7648 38.5569C24.7718 36.2827 24.4407 33.5777 24.8582 31.1329C25.5609 27.0177 27.9794 23.3393 31.3779 20.949C34.7284 18.5923 38.9549 17.5962 43.0002 18.3035C47.0223 19.0067 50.6518 21.3364 52.9948 24.6796C52.9774 24.6868 52.9613 24.7034 52.9427 24.7012C52.8459 24.6896 52.5462 24.4512 52.4362 24.3922C52.0299 24.1742 50.3695 23.3412 50.0034 23.2912C50.8207 24.1984 51.6281 25.1101 52.3044 26.1297C53.8661 28.4845 54.6626 31.3803 54.5009 34.2C54.493 34.3383 54.4754 34.7207 54.3488 34.7991C54.3351 34.8076 54.3193 34.812 54.3046 34.8185C54.2035 34.7765 54.192 34.7605 54.1259 34.6719C54.1088 34.1706 54.1924 33.6704 54.1779 33.17C54.1347 31.6829 53.7587 30.4648 53.3541 29.0627C52.6305 27.1158 51.4979 25.4684 50.0919 23.9539C49.9946 23.8329 49.8773 23.7238 49.7691 23.6122C49.7441 23.6141 49.7192 23.6165 49.6943 23.6178C49.3081 23.6372 48.8091 23.4579 48.4271 23.3662C47.526 23.1503 46.6173 22.8842 45.6984 22.7598C41.6284 22.2089 37.2481 23.2503 33.8537 25.5483C33.1039 26.0558 32.398 26.5916 31.7645 27.2433C30.6042 28.437 29.7299 29.7461 28.9422 31.2026C28.8191 31.4303 28.1509 32.8772 28.0602 32.9402L28.0346 32.9251C27.8355 34.2556 28.3057 36.193 28.7448 37.4859C28.8644 37.7856 29.4381 38.9458 29.3943 39.1723C29.3408 39.2244 29.296 39.2652 29.2298 39.3005C29.3402 39.307 29.4365 39.3043 29.5167 39.3922C29.7432 39.6402 29.7762 40.2326 29.8062 40.5547C29.1824 40.3833 28.6274 40.0493 28.0141 39.8751C28.3158 40.483 28.6749 41.0642 29.0283 41.6432C29.1862 41.9019 29.3777 42.1646 29.5081 42.436C29.5317 42.4851 29.5324 42.5294 29.5299 42.5826C29.4552 42.6301 29.4416 42.6273 29.3518 42.6266C28.9529 42.4269 27.5865 39.8926 27.334 39.3401C27.1498 39.4035 26.2467 39.1083 25.9947 39.0609C25.9114 38.8961 25.8393 38.7258 25.7648 38.5569Z" fill="white"/>
<path d="M37.7525 20.8213C37.8158 20.825 37.8586 20.8332 37.9013 20.8875C37.9643 20.9676 37.9625 21.0156 37.947 21.1066C37.7114 21.3097 36.681 21.615 36.3237 21.7766C35.8238 22.0028 35.3358 22.2572 34.8574 22.5256C34.7805 22.5044 34.7046 22.4764 34.6534 22.4129C34.6175 22.3685 34.6316 22.3454 34.635 22.2925C34.9449 21.8334 37.1546 20.9873 37.7525 20.8213Z" fill="#2D2D2D"/>
<path d="M26.4333 36.6591C25.6199 32.7361 25.9499 29.4782 28.191 26.0588C28.9834 24.8497 29.9446 23.7809 31.024 22.822C31.2216 22.6466 31.4736 22.3792 31.7261 22.3008C31.8089 22.3698 31.822 22.4245 31.8548 22.5234C31.8229 22.6824 30.4282 23.9157 30.1704 24.1834C27.5013 26.9558 26.0597 30.5869 26.4148 34.4534C26.4836 35.2023 26.5936 35.9579 26.8009 36.6819C27.0497 37.7464 27.4729 38.9221 28.014 39.8752C28.3157 40.4832 28.6748 41.0644 29.0282 41.6434C29.1861 41.9021 29.3775 42.1648 29.508 42.4362C29.5316 42.4853 29.5323 42.5296 29.5298 42.5827C29.4551 42.6303 29.4414 42.6275 29.3517 42.6268C28.9528 42.4271 27.5864 39.8927 27.3339 39.3402C27.1496 39.4037 26.2466 39.1085 25.9946 39.0611C25.9113 38.8963 25.8392 38.7259 25.7646 38.557C26.2019 38.1927 25.9689 37.0029 26.4333 36.6591Z" fill="#2D2D2D"/>
<path d="M26.4333 36.6592C26.6139 37.5975 26.967 38.4639 27.3339 39.3403C27.1496 39.4037 26.2466 39.1086 25.9946 39.0611C25.9113 38.8963 25.8392 38.726 25.7646 38.5571C26.2019 38.1928 25.9689 37.0029 26.4333 36.6592Z" fill="#FEEC8E"/>
<path d="M49.7691 23.6127C48.5836 22.27 46.8027 21.1953 45.1566 20.5137C42.1674 19.2759 38.8817 19.2 35.857 20.3758C35.399 20.5538 34.9209 20.7815 34.4914 21.0188C34.276 21.1378 34.0733 21.2835 33.8457 21.3779C33.7354 21.368 33.7209 21.3623 33.6319 21.2964C33.6154 21.1936 33.6142 21.1809 33.6841 21.0933C33.856 20.878 34.2791 20.699 34.5203 20.5782C36.1712 19.7512 37.9624 19.2564 39.8089 19.1658C42.7344 19.0221 45.8049 20.0405 48.1767 21.7425C48.8255 22.208 49.412 22.757 50.0034 23.2917C50.8207 24.1989 51.6281 25.1106 52.3044 26.1302C53.8661 28.485 54.6626 31.3808 54.5009 34.2005C54.493 34.3388 54.4754 34.7212 54.3488 34.7996C54.3351 34.808 54.3193 34.8125 54.3046 34.819C54.2035 34.777 54.192 34.7609 54.1259 34.6723C54.1088 34.1711 54.1924 33.6709 54.1779 33.1705C54.1347 31.6834 53.7587 30.4653 53.3541 29.0632C52.6305 27.1163 51.4979 25.4689 50.092 23.9544C49.9946 23.8334 49.8773 23.7243 49.7691 23.6127Z" fill="#2D2D2D"/>
<path d="M27.6584 33.9456C27.6594 32.2598 27.872 30.7006 28.5158 29.127C29.3938 26.9811 30.8799 25.1007 32.6309 23.597C32.9243 23.345 33.3147 22.9673 33.6704 22.8184C33.7715 22.8359 33.7973 22.8317 33.8701 22.9015C33.8688 22.9276 33.8709 22.9541 33.8663 22.9798C33.8306 23.1809 32.9136 23.851 32.717 24.025C30.0986 26.3432 28.2491 29.3688 28.0344 32.9256C27.8353 34.2561 28.3055 36.1934 28.7446 37.4864C28.8641 37.7861 29.4379 38.9463 29.3941 39.1728C29.3405 39.2249 29.2958 39.2657 29.2295 39.3009C29.34 39.3075 29.4363 39.3048 29.5165 39.3927C29.743 39.6407 29.776 40.233 29.806 40.5552C29.1822 40.3838 28.6272 40.0498 28.0139 39.8755C27.4728 38.9224 27.0496 37.7467 26.8008 36.6822C27.0055 36.4329 27.2977 34.5144 27.6584 33.9456Z" fill="#2D2D2D"/>
<path d="M27.6584 33.9453C27.7922 35.5061 28.0691 36.9381 28.7126 38.3791C28.8434 38.6721 28.9698 38.9887 29.1479 39.2556L29.2295 39.3006C29.34 39.3072 29.4363 39.3045 29.5165 39.3923C29.743 39.6404 29.776 40.2327 29.806 40.5549C29.1822 40.3834 28.6272 40.0495 28.0139 39.8752C27.4728 38.9221 27.0496 37.7464 26.8008 36.6819C27.0055 36.4326 27.2977 34.5141 27.6584 33.9453Z" fill="#FEEC8E"/>
<path d="M50.0029 23.291C50.3691 23.341 52.0295 24.174 52.4357 24.392C52.5458 24.451 52.8455 24.6894 52.9422 24.7009C52.9609 24.7032 52.977 24.6866 52.9944 24.6794C53.3651 25.1992 53.6594 25.7684 53.9568 26.3322C55.5081 29.2734 56.161 32.4977 55.6092 35.7973C55.2154 38.1521 54.2774 40.1528 52.7643 41.985C52.1603 42.7165 51.5044 43.4069 50.9145 44.1493C49.2649 46.225 47.9746 48.6824 47.5999 51.3259C46.3466 51.3683 45.0642 51.5556 43.8275 51.7602C43.2687 51.8526 42.7007 51.9855 42.1388 52.0477C41.9879 52.0927 41.844 52.1163 41.688 52.1362C41.8001 51.1392 41.8049 50.138 41.947 49.1395C42.3078 46.6025 42.9743 44.13 43.6309 41.6575C43.9867 40.3177 44.2917 38.9577 44.7774 37.658C45.0881 37.5284 45.3992 37.3991 45.7065 37.2615C47.1232 36.6274 48.2025 35.6543 48.7535 34.178C48.8762 33.8491 48.9848 33.5018 48.8193 33.1661C48.7296 32.9841 48.5655 32.8561 48.3735 32.7959C47.9946 32.6772 47.6842 32.828 47.3526 32.9964C47.4382 32.6906 48.1332 31.7305 48.3437 31.3578C49.3123 29.6432 50.1008 27.5798 50.1835 25.6058C50.2067 25.0511 50.1475 24.5045 50.0915 23.9537C51.4974 25.4682 52.6301 27.1155 53.3536 29.0625C53.7582 30.4646 54.1342 31.6827 54.1774 33.1698C54.192 33.6702 54.1084 34.1704 54.1255 34.6716C54.1916 34.7602 54.2031 34.7763 54.3042 34.8183C54.3188 34.8118 54.3346 34.8073 54.3484 34.7989C54.4749 34.7205 54.4926 34.3381 54.5005 34.1998C54.6621 31.3801 53.8656 28.4843 52.3039 26.1295C51.6277 25.1099 50.8203 24.1982 50.0029 23.291Z" fill="#F2C94C"/>
<path d="M48.1526 45.3652C48.2736 45.3782 48.3217 45.4021 48.3989 45.4911C48.4428 45.7729 47.9768 46.284 47.8402 46.533C47.6869 46.8125 47.5641 47.123 47.4445 47.4184C46.9933 48.5327 46.8255 49.6919 46.6837 50.8756C46.5987 50.8779 46.5298 50.872 46.4468 50.8535C46.3958 50.7947 46.3837 50.7823 46.37 50.7054C46.3118 50.3766 46.3917 50.0009 46.4422 49.6719C46.6845 48.0962 47.2214 46.6623 48.1526 45.3652Z" fill="#2D2D2D"/>
<path d="M53.7428 36.5479L53.9504 36.568C54.0254 36.6319 54.0496 36.6644 54.0572 36.7659C54.0848 37.1361 53.8232 37.6065 53.6865 37.9471C53.416 38.6206 53.1366 39.2741 52.7703 39.9032C51.8376 41.5053 50.4805 42.9207 49.2691 44.3142L49.2156 44.3375C49.1192 44.3151 49.118 44.2975 49.0552 44.2186C48.9841 43.8596 49.8947 42.9397 50.1292 42.6688C51.784 40.7571 53.0717 39.036 53.7428 36.5479Z" fill="#2D2D2D"/>
<path d="M28.0343 32.9253L28.0599 32.9404C28.1506 32.8774 28.8188 31.4305 28.9419 31.2028C29.7297 29.7462 30.6039 28.4372 31.7643 27.2435C32.3978 26.5918 33.1036 26.056 33.8534 25.5484C37.2479 23.2505 41.6282 22.209 45.6981 22.76C46.617 22.8844 47.5257 23.1505 48.4268 23.3664C48.8089 23.458 49.3079 23.6374 49.694 23.618C49.7189 23.6167 49.7439 23.6143 49.7688 23.6124C49.877 23.724 49.9943 23.833 50.0917 23.954C50.1477 24.5048 50.2068 25.0515 50.1836 25.6062C50.101 27.5801 49.3125 29.6436 48.3439 31.3582C48.1334 31.7308 47.4384 32.691 47.3528 32.9968C46.7845 33.4801 46.3312 34.063 45.8876 34.6584C45.5814 34.755 45.297 35.019 45.0262 35.1933C44.6607 35.4286 43.518 36.0388 43.09 35.9678C43.9057 35.0308 44.6428 33.795 44.547 32.5011C44.5167 32.0924 44.3793 31.6678 44.0539 31.399C43.8214 31.2068 43.5243 31.1173 43.2246 31.1544C42.5487 31.238 41.9889 31.9371 41.6118 32.4499C41.1133 33.128 40.6857 33.892 40.3985 34.6843C40.1463 33.1158 39.6884 31.498 38.3332 30.5182C37.9218 30.2208 37.4365 30.0328 36.9223 30.1115C36.4421 30.1851 36.0043 30.4615 35.7285 30.8606C35.2629 31.5345 35.2661 32.5019 35.4239 33.2743C35.7295 34.7703 36.9641 36.0583 38.2035 36.8719C38.4812 37.0542 38.7684 37.2203 39.0582 37.3826C37.7911 37.2295 36.4843 37.0746 35.2613 36.6943C34.8336 35.496 33.9652 33.2395 32.7576 32.6878C32.5161 32.5775 32.2335 32.5325 31.9818 32.637C31.7851 32.7187 31.649 32.8835 31.5714 33.0784C31.3825 33.5525 31.537 34.1376 31.7465 34.5817C32.3448 35.85 33.5147 36.6094 34.7639 37.1333C34.8822 37.4492 35.0025 37.7644 35.1172 38.0816C34.7512 38.0994 34.2544 37.8514 33.9011 37.7287C32.9117 37.3852 30.7914 36.6305 29.7636 36.7715C29.2138 36.8469 29.0583 37.0668 28.7446 37.4861C28.3054 36.1931 27.8353 34.2558 28.0343 32.9253Z" fill="#FEEC8E"/>
</g>
<defs>
<clipPath id="clip0_1061_3027">
<rect width="80" height="80" fill="white"/>
</clipPath>
</defs>
</svg>
