<svg width="80" height="80" viewBox="0 0 80 80" fill="none" xmlns="http://www.w3.org/2000/svg">
<g clip-path="url(#clip0_1096_35685)">
<path d="M25.0713 20.2148C25.603 20.3405 26.0716 20.5648 26.3667 21.0496C26.4539 21.1928 26.5019 21.3452 26.5497 21.5045C26.0448 21.2472 25.3543 20.7102 25.0713 20.2148Z" fill="#F2C94C"/>
<path d="M56.3083 44.9855C56.672 44.9651 58.0014 45.0969 58.3145 45.2254C58.4041 45.2622 58.4058 45.281 58.4433 45.3651C58.4412 45.4888 58.3989 45.5618 58.3415 45.6667C57.877 45.6964 57.0578 45.6327 56.6013 45.5182C56.4443 45.4787 56.3339 45.437 56.2473 45.2942C56.2231 45.1617 56.2526 45.1009 56.3083 44.9855Z" fill="white"/>
<path d="M24.4033 20.2901C24.6154 20.2393 24.8543 20.1798 25.0716 20.2144C25.3546 20.7098 26.0451 21.2468 26.55 21.5041L26.6536 22.1162C25.9613 21.7714 24.8548 20.9342 24.4033 20.2901Z" fill="white"/>
<path d="M42.6391 48.8672C42.7173 48.8688 42.8185 48.8623 42.8932 48.8823C43.0014 48.9112 43.0189 48.9541 43.0759 49.0413C43.1501 49.5423 42.8234 50.2788 42.5482 50.6921C42.505 50.7566 42.4597 50.8196 42.4123 50.881C42.3648 50.9424 42.3152 51.0021 42.2636 51.0601C42.212 51.118 42.1584 51.1742 42.103 51.2284C42.0475 51.2828 41.9902 51.3351 41.9312 51.3855C41.8721 51.4358 41.8114 51.484 41.749 51.5302C41.6866 51.5764 41.6227 51.6203 41.5572 51.6621C41.4918 51.7039 41.425 51.7434 41.3569 51.7805C41.2887 51.8177 41.2194 51.8524 41.1488 51.8848C39.9731 52.4374 38.3698 52.6339 37.0861 52.8909C35.5073 53.2043 33.9303 53.526 32.3549 53.8559C32.5641 54.0555 32.7805 54.2164 33.0296 54.3637C33.2788 54.5109 34.177 54.8534 34.2826 55.0612C34.2741 55.1709 34.2683 55.1891 34.2063 55.2799C34.1503 55.3062 34.0995 55.3281 34.0363 55.3291C33.3706 55.3389 32.3249 54.5459 31.881 54.0754C31.85 54.04 31.8201 54.0036 31.7913 53.9663C31.6791 53.8179 31.6498 53.6709 31.6825 53.4886C31.7966 52.8524 32.4663 52.2715 32.9631 51.9095C33.2013 51.736 33.5175 51.506 33.8244 51.5555C33.8706 51.5946 33.8986 51.6009 33.9099 51.664C33.9195 51.7177 33.9191 51.8102 33.8923 51.8597C33.7643 52.0952 33.2834 52.3089 33.069 52.4846C32.9908 52.5477 32.9153 52.6138 32.8425 52.683C32.7697 52.7522 32.6998 52.8242 32.6328 52.8991C32.5658 52.9739 32.502 53.0514 32.4413 53.1314C32.3806 53.2114 32.3232 53.2938 32.2691 53.3784C33.1544 53.1548 34.052 52.9971 34.9477 52.8223L38.015 52.1991C38.7973 52.0391 39.6033 51.9114 40.3646 51.668C40.759 51.5418 41.1584 51.3655 41.4931 51.1187C42.2849 50.5348 42.4924 49.7913 42.6391 48.8672Z" fill="white"/>
<path d="M9.31982 25.6784C10.0763 25.6184 10.8732 25.3925 11.6144 25.2227C11.8055 26.6498 12.0944 28.0621 12.2879 29.488L10.0945 29.9444C9.85222 28.5195 9.59399 27.0975 9.31982 25.6784Z" fill="#F2C94C"/>
<path d="M31.7657 15.7835C31.8597 15.7804 31.9579 15.7758 32.0511 15.7903C32.2543 15.8218 32.4618 15.9776 32.5742 16.146C32.6759 16.2985 32.7041 16.4771 32.6636 16.6549C32.6347 16.7822 32.5747 16.8902 32.4947 16.9926C32.1286 17.4616 29.9005 19.7455 29.4664 20.0351C29.2914 20.0394 29.1171 20.0239 28.9425 20.0124C28.5279 19.6825 28.1629 19.2699 27.7697 18.9119C27.4897 18.6506 26.9715 18.2666 26.9319 17.8586C26.9118 17.6522 26.9872 17.4489 27.1247 17.2953C27.2633 17.1407 27.4554 17.036 27.666 17.0332C28.2111 17.0264 28.8848 17.9077 29.2368 18.2695C29.7739 17.7112 31.1625 16.121 31.7657 15.7835Z" fill="white"/>
<path d="M58.5822 13.9434C58.6339 13.9661 58.6843 13.9977 58.7338 14.0251C58.7787 14.1195 58.7834 14.1241 58.7636 14.226C58.5417 14.5385 57.2135 15.0762 56.7873 15.3452L56.7349 15.3786C57.3081 15.6002 57.9037 15.7643 58.4777 15.9877C60.9631 16.9553 63.1738 18.3545 64.5902 20.6886C65.4663 22.1324 66.0341 23.9086 65.6125 25.5961C65.3196 26.7688 64.5985 27.7275 63.562 28.346C63.1791 28.5745 61.5872 29.3573 61.1666 29.1887C61.0717 29.1506 61.0525 29.1153 61.0159 29.0293C61.051 28.9565 61.0624 28.9209 61.1374 28.8805C61.3547 28.7636 61.6767 28.7325 61.9176 28.6501C62.3486 28.5026 62.7547 28.3036 63.1591 28.0959C64.0071 27.6173 64.6653 26.971 65.0336 26.0562C65.5622 24.7434 65.3539 23.2764 64.8069 22.0044C64.4977 21.2854 64.0752 20.6047 63.5949 19.9879C61.8192 17.7078 59.3175 16.7834 56.737 15.7447C56.9253 16.2471 57.6446 17.5077 57.5883 17.9623C57.5149 18.033 57.5028 18.052 57.4046 18.0724C57.3651 18.0531 57.3594 18.0535 57.3228 18.0177C57.1578 17.8562 56.2935 15.8637 56.1769 15.5429C56.1397 15.4405 56.1132 15.3611 56.1274 15.2506C56.4663 14.8508 58.0339 14.1635 58.5822 13.9434Z" fill="white"/>
<path d="M29.3229 12.1251C30.2996 12.0106 31.3455 12.2389 32.2257 12.6626C32.3057 12.7011 32.3847 12.7416 32.4627 12.784C32.5406 12.8264 32.6175 12.8707 32.6934 12.9169C32.7691 12.963 32.8438 13.0111 32.9173 13.061C32.9907 13.1108 33.0629 13.1624 33.1337 13.2158C33.2046 13.2692 33.2742 13.3244 33.3424 13.3812C33.4106 13.438 33.4773 13.4965 33.5427 13.5567C33.608 13.6168 33.6718 13.6785 33.7341 13.7417C33.7963 13.805 33.857 13.8697 33.9161 13.936C33.9752 14.0022 34.0326 14.0699 34.0884 14.1389C34.1441 14.208 34.1982 14.2785 34.2505 14.3502C34.3028 14.4219 34.3533 14.4949 34.4019 14.5691C34.4506 14.6433 34.4975 14.7187 34.5425 14.7952C34.5875 14.8717 34.6306 14.9493 34.6717 15.028C34.7129 15.1066 34.7521 15.1862 34.7894 15.2667C34.8266 15.3474 34.8619 15.4288 34.8952 15.5111C34.9284 15.5934 34.9596 15.6765 34.9887 15.7603C35.0045 15.8047 35.0198 15.8492 35.0344 15.8938C35.0491 15.9385 35.0633 15.9834 35.0768 16.0285C35.0903 16.0735 35.1033 16.1187 35.1157 16.1641C35.1281 16.2094 35.1399 16.255 35.1511 16.3006C35.1623 16.3464 35.173 16.3922 35.1831 16.4381C35.1932 16.4841 35.2027 16.5301 35.2116 16.5763C35.2205 16.6225 35.2288 16.6688 35.2365 16.7153C35.2442 16.7616 35.2514 16.8081 35.258 16.8547C35.2645 16.9013 35.2705 16.9479 35.2759 16.9946C35.2812 17.0414 35.286 17.0882 35.2902 17.135C35.2943 17.1819 35.2979 17.2288 35.3009 17.2757C35.3039 17.3227 35.3063 17.3697 35.3081 17.4167C35.3099 17.4637 35.3111 17.5107 35.3117 17.5577C35.3123 17.6048 35.3124 17.6518 35.3118 17.6988C35.3112 17.7459 35.31 17.7929 35.3083 17.8399C35.3065 17.8869 35.3041 17.9339 35.3012 17.9809C35.2982 18.0278 35.2946 18.0747 35.2905 18.1216C35.2863 18.1684 35.2815 18.2152 35.2762 18.262C35.2709 18.3087 35.2649 18.3554 35.2584 18.402C35.2519 18.4485 35.2447 18.495 35.237 18.5414C35.2293 18.5878 35.221 18.6341 35.2122 18.6803C35.2033 18.7265 35.1938 18.7726 35.1837 18.8185C35.1737 18.8645 35.1631 18.9104 35.1519 18.956C35.1407 19.0017 35.1289 19.0472 35.1166 19.0926C35.1042 19.138 35.0912 19.1832 35.0777 19.2283C35.0642 19.2733 35.0501 19.3182 35.0355 19.3629C35.0208 19.4076 35.0056 19.4522 34.9898 19.4964C34.9741 19.5407 34.9577 19.5849 34.9409 19.6288C34.9239 19.6727 34.9065 19.7163 34.8884 19.7598C34.8705 19.8033 34.8519 19.8465 34.8328 19.8895C34.8137 19.9325 34.7941 19.9752 34.7739 20.0177C34.7537 20.0602 34.733 20.1024 34.7117 20.1444C34.0691 21.4382 32.9353 22.3468 31.569 22.7936C30.0097 23.3036 28.5144 23.0084 27.0825 22.2831C27.0441 22.0997 27.035 21.9148 27.0216 21.7282C28.1517 22.4989 29.4928 22.8017 30.848 22.5593C32.1894 22.3192 33.3114 21.5571 34.0824 20.448C34.3198 20.0806 34.5105 19.6694 34.651 19.2556C34.6774 19.1763 34.7019 19.0963 34.7244 19.0157C34.7468 18.9351 34.7673 18.8541 34.7859 18.7725C34.8043 18.691 34.8209 18.609 34.8354 18.5266C34.8499 18.4442 34.8623 18.3615 34.8728 18.2785C34.8832 18.1955 34.8916 18.1123 34.898 18.0288C34.9043 17.9455 34.9086 17.862 34.9109 17.7784C34.9132 17.6947 34.9135 17.6111 34.9116 17.5274C34.9098 17.4438 34.9059 17.3603 34.9 17.2769C34.8941 17.1934 34.8861 17.1101 34.8761 17.0271C34.8661 16.9441 34.8541 16.8613 34.84 16.7788C34.8259 16.6964 34.8099 16.6143 34.7918 16.5327C34.7737 16.451 34.7536 16.3698 34.7316 16.2891C34.7095 16.2084 34.6855 16.1283 34.6595 16.0488C34.6335 15.9693 34.6056 15.8905 34.5758 15.8123C34.5459 15.7342 34.5142 15.6568 34.4805 15.5803C34.4469 15.5036 34.4114 15.4279 34.3741 15.3531C34.337 15.2768 34.2981 15.2014 34.2573 15.1271C34.2165 15.0528 34.1738 14.9795 34.1294 14.9074C34.0848 14.8351 34.0385 14.7641 33.9905 14.6942C33.9424 14.6244 33.8926 14.5558 33.8411 14.4885C33.7896 14.4211 33.7364 14.3551 33.6816 14.2904C33.6267 14.2257 33.5703 14.1625 33.5122 14.1006C33.4542 14.0388 33.3946 13.9785 33.3335 13.9196C33.2725 13.8608 33.21 13.8035 33.146 13.7478C33.0821 13.6922 33.0167 13.6381 32.9501 13.5857C32.8834 13.5333 32.8155 13.4826 32.7462 13.4336C32.677 13.3847 32.6066 13.3374 32.535 13.292C32.4634 13.2466 32.3907 13.203 32.3169 13.1612C32.2431 13.1194 32.1683 13.0795 32.0925 13.0415C32.0167 13.0035 31.9399 12.9674 31.8623 12.9332C31.7847 12.8991 31.7063 12.8669 31.627 12.8367C31.5478 12.8065 31.4679 12.7783 31.3872 12.7521C31.3078 12.7263 31.2278 12.7024 31.1473 12.6806C31.0667 12.6587 30.9856 12.6389 30.9041 12.6211C30.8225 12.6033 30.7405 12.5875 30.6582 12.5738C30.5759 12.5601 30.4932 12.5485 30.4103 12.5389C30.3274 12.5293 30.2443 12.5218 30.161 12.5164C30.0777 12.511 29.9943 12.5076 29.9109 12.5063C29.8274 12.5051 29.7439 12.5059 29.6605 12.5088C29.577 12.5118 29.4937 12.5168 29.4105 12.5238C29.3274 12.5309 29.2444 12.54 29.1617 12.5513C29.079 12.5625 28.9966 12.5757 28.9145 12.591C28.8325 12.6064 28.7509 12.6238 28.6697 12.6431C28.5885 12.6626 28.5078 12.684 28.4277 12.7074C28.3476 12.7309 28.2681 12.7563 28.1893 12.7837C28.1104 12.8111 28.0323 12.8404 27.9549 12.8717C27.8775 12.9031 27.801 12.9363 27.7252 12.9714C27.6495 13.0066 27.5747 13.0436 27.5009 13.0824C26.035 13.8406 24.9628 15.3563 24.766 17.0036C24.712 17.4556 24.8574 18.0031 24.7237 18.4297C24.6406 18.4646 24.5755 18.4748 24.4858 18.4815C24.3864 18.3834 24.3866 18.2555 24.3719 18.1191C24.2183 16.6854 24.6903 15.2548 25.5889 14.1412C26.5259 12.9801 27.8412 12.2835 29.3229 12.1251Z" fill="white"/>
<path d="M66.121 28.9947C66.6503 28.9677 67.1303 29.0355 67.5907 29.3241C67.6243 29.3454 67.6573 29.3675 67.6899 29.3905C67.7224 29.4134 67.7543 29.4372 67.7856 29.4618C67.8169 29.4864 67.8476 29.5117 67.8777 29.5377C67.9078 29.5638 67.9372 29.5907 67.9659 29.6182C67.9946 29.6458 68.0227 29.674 68.05 29.703C68.0774 29.7319 68.104 29.7615 68.1298 29.7918C68.1557 29.8221 68.1808 29.8529 68.205 29.8845C68.2294 29.916 68.2529 29.9481 68.2757 29.9808C68.2984 30.0134 68.3203 30.0467 68.3414 30.0805C68.3624 30.1142 68.3826 30.1485 68.402 30.1833C68.4214 30.2181 68.4399 30.2533 68.4575 30.289C68.4751 30.3247 68.4918 30.3608 68.5076 30.3973C68.5234 30.4339 68.5383 30.4708 68.5523 30.508C68.5663 30.5453 68.5793 30.5829 68.5914 30.6209C68.6035 30.6588 68.6147 30.697 68.6249 30.7355C68.6351 30.7739 68.6443 30.8126 68.6526 30.8516C68.6606 30.888 68.6676 30.9247 68.6737 30.9615C68.6798 30.9983 68.685 31.0352 68.6893 31.0723C68.6935 31.1093 68.6968 31.1465 68.6992 31.1838C68.7016 31.221 68.703 31.2583 68.7036 31.2956C68.7041 31.3329 68.7037 31.3702 68.7023 31.4075C68.701 31.4448 68.6987 31.482 68.6954 31.5192C68.6923 31.5564 68.6881 31.5935 68.683 31.6305C68.6779 31.6674 68.6719 31.7042 68.665 31.7409C68.658 31.7775 68.6502 31.814 68.6414 31.8503C68.6327 31.8866 68.623 31.9226 68.6125 31.9584C68.6019 31.9942 68.5904 32.0297 68.5781 32.0649C68.5657 32.1001 68.5525 32.135 68.5384 32.1695C68.5243 32.2041 68.5094 32.2383 68.4936 32.2721C68.4777 32.3059 68.4611 32.3392 68.4436 32.3722C68.4261 32.4052 68.4078 32.4377 68.3887 32.4698C68.3695 32.5018 68.3496 32.5333 68.3289 32.5644C67.9369 33.1472 67.4075 33.406 66.7339 33.5365C66.1624 33.5871 65.6225 33.522 65.1351 33.192C64.6179 32.8416 64.2343 32.2547 64.1222 31.6402C64.1158 31.6035 64.1104 31.5668 64.1058 31.5299C64.1012 31.493 64.0976 31.4561 64.0949 31.419C64.0922 31.3819 64.0904 31.3448 64.0895 31.3077C64.0886 31.2705 64.0887 31.2333 64.0897 31.1962C64.0906 31.159 64.0925 31.1219 64.0954 31.0848C64.0982 31.0478 64.1019 31.0108 64.1065 30.9739C64.1112 30.937 64.1168 30.9003 64.1232 30.8637C64.1298 30.8271 64.1372 30.7907 64.1454 30.7545C64.1537 30.7183 64.1629 30.6823 64.1729 30.6465C64.183 30.6107 64.194 30.5752 64.2058 30.54C64.2177 30.5047 64.2304 30.4698 64.244 30.4352C64.2576 30.4007 64.272 30.3664 64.2873 30.3325C64.3026 30.2986 64.3187 30.2652 64.3357 30.2321C64.3526 30.199 64.3704 30.1663 64.3889 30.1341C64.4075 30.102 64.4268 30.0702 64.447 30.039C64.4671 30.0078 64.4881 29.9771 64.5097 29.9469C64.9043 29.3984 65.4665 29.1022 66.121 28.9947Z" fill="white"/>
<path d="M66.1438 29.4209C66.6076 29.3882 67.0335 29.44 67.4328 29.6961C67.8531 29.9658 68.1479 30.4194 68.2515 30.9053C68.2581 30.9356 68.2638 30.966 68.2688 30.9966C68.2738 31.0271 68.278 31.0578 68.2814 31.0885C68.2848 31.1193 68.2875 31.1502 68.2893 31.181C68.2911 31.2119 68.2921 31.2428 68.2924 31.2738C68.2927 31.3048 68.2921 31.3357 68.2908 31.3667C68.2895 31.3976 68.2874 31.4284 68.2845 31.4592C68.2817 31.4901 68.278 31.5208 68.2735 31.5514C68.2691 31.5821 68.2638 31.6126 68.2578 31.6429C68.2518 31.6733 68.245 31.7035 68.2374 31.7335C68.2299 31.7635 68.2215 31.7933 68.2125 31.8229C68.2034 31.8525 68.1936 31.8819 68.183 31.911C68.1725 31.94 68.1611 31.9688 68.149 31.9974C68.137 32.0259 68.1243 32.054 68.1108 32.0819C68.0973 32.1098 68.0831 32.1373 68.0682 32.1644C68.0533 32.1915 68.0378 32.2183 68.0215 32.2446C68.0053 32.271 67.9884 32.2969 67.9708 32.3224C67.65 32.7924 67.1924 33.0146 66.6497 33.12C66.2232 33.1567 65.8192 33.0993 65.4433 32.8841C65.4159 32.8684 65.389 32.852 65.3624 32.835C65.3358 32.8179 65.3096 32.8002 65.284 32.7818C65.2583 32.7635 65.2331 32.7445 65.2083 32.7249C65.1837 32.7052 65.1594 32.685 65.1357 32.6641C65.112 32.6433 65.0888 32.6218 65.0662 32.5998C65.0436 32.5778 65.0215 32.5553 65 32.5321C64.9785 32.509 64.9576 32.4853 64.9373 32.4611C64.917 32.437 64.8973 32.4123 64.8783 32.3871C64.8592 32.362 64.8408 32.3364 64.823 32.3103C64.8052 32.2842 64.7881 32.2576 64.7716 32.2307C64.7552 32.2037 64.7394 32.1764 64.7244 32.1486C64.7093 32.1209 64.695 32.0928 64.6813 32.0643C64.6676 32.0358 64.6547 32.007 64.6425 31.9779C64.6303 31.9488 64.6188 31.9194 64.6081 31.8897C64.5974 31.86 64.5874 31.83 64.5782 31.7999C64.569 31.7697 64.5605 31.7392 64.5528 31.7086C64.5455 31.6788 64.5389 31.6488 64.5331 31.6186C64.5273 31.5885 64.5222 31.5582 64.5178 31.5278C64.5135 31.4973 64.5099 31.4669 64.507 31.4363C64.5042 31.4057 64.5021 31.375 64.5008 31.3443C64.4995 31.3136 64.4989 31.2829 64.499 31.2522C64.4993 31.2215 64.5002 31.1908 64.5019 31.1601C64.5036 31.1294 64.5061 31.0988 64.5093 31.0683C64.5125 31.0377 64.5164 31.0073 64.5211 30.9769C64.5258 30.9465 64.5313 30.9163 64.5375 30.8862C64.5436 30.8561 64.5506 30.8263 64.5583 30.7965C64.5659 30.7667 64.5743 30.7372 64.5834 30.7078C64.5925 30.6785 64.6024 30.6494 64.613 30.6206C64.6235 30.5917 64.6347 30.5632 64.6467 30.5349C64.6587 30.5065 64.6713 30.4785 64.6847 30.4509C64.698 30.4232 64.712 30.3959 64.7267 30.3689C64.7414 30.342 64.7567 30.3153 64.7727 30.2891C65.0879 29.78 65.5794 29.5431 66.1438 29.4209Z" fill="#2D2D2D"/>
<path d="M66.3961 29.585C66.4555 29.6171 66.5067 29.6539 66.5615 29.6931C66.613 29.8578 66.6498 29.9472 66.7888 30.0478C66.8722 30.1082 66.9882 30.1768 67.0403 30.2676C67.0993 30.3704 67.0913 30.5403 67.0322 30.6392C66.9744 30.7359 66.9337 30.7419 66.8331 30.7618C66.7455 30.7206 66.7101 30.6928 66.6603 30.6088C66.5962 30.5009 66.5704 30.4279 66.4541 30.3765L66.353 30.426C66.2974 30.495 66.2573 30.5497 66.271 30.6438C66.3131 30.9333 66.6956 31.0568 66.8986 31.2214C67.0381 31.3346 67.1274 31.4759 67.1385 31.6579C67.1579 31.9768 67.0007 32.2141 66.7851 32.4309C66.6574 32.5593 66.6201 32.6179 66.574 32.8004C66.5696 32.8179 66.5657 32.8356 66.5615 32.8532C66.4837 32.8479 66.4323 32.8251 66.3621 32.7922C66.2286 32.5146 65.8962 32.2995 65.8567 31.9754C65.8434 31.8664 65.8522 31.8532 65.9202 31.7779C65.9614 31.7704 65.9758 31.7654 66.0222 31.7704C66.2059 31.79 66.2644 31.9062 66.3713 32.0393C66.4754 32.0804 66.4746 32.0861 66.5796 32.0507C66.6633 31.945 66.6947 31.8374 66.668 31.7029C66.6225 31.4728 66.3515 31.3708 66.1762 31.2471C66.0167 31.1343 65.8206 30.9622 65.7994 30.7551C65.7676 30.4431 66.0389 30.1496 66.2305 29.9325C66.2465 29.7421 66.2626 29.7087 66.3961 29.585Z" fill="white"/>
<path d="M23.4794 40.8729C23.9877 40.8136 24.5388 40.9382 24.9717 41.2082C25.0059 41.2295 25.0395 41.2516 25.0726 41.2745C25.1057 41.2975 25.1382 41.3212 25.1701 41.3457C25.202 41.3702 25.2332 41.3955 25.2639 41.4216C25.2946 41.4476 25.3246 41.4744 25.354 41.5019C25.3834 41.5295 25.412 41.5577 25.44 41.5866C25.468 41.6156 25.4952 41.6452 25.5218 41.6754C25.5483 41.7057 25.5741 41.7366 25.5991 41.7681C25.6241 41.7996 25.6484 41.8317 25.6719 41.8644C25.6953 41.8971 25.7179 41.9304 25.7398 41.9642C25.7616 41.998 25.7826 42.0324 25.8027 42.0672C25.8229 42.1021 25.8422 42.1374 25.8606 42.1732C25.879 42.2089 25.8965 42.2451 25.9132 42.2818C25.9299 42.3184 25.9456 42.3555 25.9605 42.3928C25.9753 42.4302 25.9892 42.468 26.0022 42.5061C26.0152 42.5442 26.0272 42.5826 26.0384 42.6213C26.0495 42.66 26.0596 42.6989 26.0688 42.7381C26.2221 43.4016 26.0796 44.084 25.7155 44.6549C25.3197 45.2755 24.7705 45.5848 24.0661 45.7421C23.4298 45.7866 22.8502 45.6885 22.3247 45.3102C22.2909 45.2854 22.2578 45.2598 22.2254 45.2334C22.1929 45.207 22.1611 45.1798 22.13 45.1518C22.0989 45.1237 22.0685 45.095 22.0388 45.0655C22.0092 45.036 21.9803 45.0057 21.9521 44.9747C21.9239 44.9438 21.8966 44.9121 21.87 44.8798C21.8434 44.8475 21.8176 44.8145 21.7927 44.7808C21.7678 44.7472 21.7437 44.713 21.7205 44.6782C21.6972 44.6434 21.6749 44.608 21.6534 44.5721C21.632 44.5361 21.6114 44.4997 21.5918 44.4627C21.5721 44.4258 21.5534 44.3883 21.5356 44.3504C21.5179 44.3125 21.501 44.2742 21.4852 44.2355C21.4693 44.1968 21.4544 44.1576 21.4405 44.1182C21.4266 44.0787 21.4136 44.0389 21.4017 43.9988C21.3898 43.9586 21.3789 43.9182 21.369 43.8775C21.3591 43.8369 21.3502 43.796 21.3423 43.7549C21.3345 43.7138 21.3276 43.6725 21.3218 43.6311C21.228 42.99 21.4141 42.3199 21.8052 41.8054C22.2235 41.2551 22.807 40.9682 23.4794 40.8729Z" fill="white"/>
<path d="M23.559 41.3005C23.994 41.264 24.4124 41.3605 24.7852 41.5902C25.24 41.8706 25.5744 42.3109 25.6817 42.8381C25.6886 42.8734 25.6946 42.9089 25.6997 42.9445C25.7047 42.9802 25.7089 43.0159 25.7122 43.0517C25.7156 43.0876 25.718 43.1235 25.7195 43.1595C25.721 43.1954 25.7216 43.2314 25.7214 43.2673C25.7211 43.3033 25.72 43.3393 25.7179 43.3752C25.7158 43.4112 25.7129 43.4471 25.709 43.4829C25.7052 43.5187 25.7004 43.5543 25.6948 43.5899C25.6892 43.6254 25.6827 43.6608 25.6753 43.6961C25.6679 43.7313 25.6596 43.7663 25.6505 43.8011C25.6414 43.8359 25.6314 43.8705 25.6205 43.9049C25.6096 43.9392 25.5979 43.9732 25.5854 44.007C25.5728 44.0407 25.5594 44.074 25.5452 44.1071C25.531 44.1402 25.516 44.1729 25.5001 44.2052C25.4843 44.2375 25.4676 44.2694 25.4501 44.3009C25.4327 44.3324 25.4145 44.3634 25.3955 44.3941C25.3765 44.4246 25.3568 44.4547 25.3363 44.4843C24.9815 44.9981 24.5137 45.2373 23.9154 45.3466C23.4397 45.3679 22.9758 45.2668 22.5801 44.992C22.5524 44.9725 22.5252 44.9525 22.4986 44.9317C22.4719 44.9109 22.4457 44.8895 22.4201 44.8674C22.3944 44.8454 22.3694 44.8227 22.3449 44.7994C22.3204 44.776 22.2965 44.7521 22.2732 44.7277C22.2499 44.7031 22.2272 44.678 22.2051 44.6524C22.1831 44.6267 22.1617 44.6006 22.141 44.5738C22.1203 44.5471 22.1002 44.5199 22.0808 44.4922C22.0615 44.4645 22.0428 44.4363 22.0248 44.4077C22.0068 44.379 21.9895 44.3499 21.973 44.3204C21.9565 44.2909 21.9408 44.261 21.9258 44.2307C21.9107 44.2004 21.8964 44.1697 21.8829 44.1388C21.8695 44.1077 21.8568 44.0764 21.8448 44.0448C21.8329 44.0131 21.8218 43.9812 21.8114 43.949C21.8011 43.9168 21.7915 43.8844 21.7828 43.8516C21.7741 43.819 21.7662 43.7861 21.7591 43.7531C21.752 43.72 21.7458 43.6868 21.7404 43.6534C21.7346 43.6202 21.7298 43.5869 21.7258 43.5534C21.7217 43.52 21.7185 43.4865 21.7162 43.4529C21.7139 43.4193 21.7124 43.3857 21.7118 43.352C21.7112 43.3183 21.7114 43.2847 21.7124 43.251C21.7135 43.2174 21.7154 43.1838 21.7182 43.1502C21.721 43.1167 21.7246 43.0832 21.7291 43.0498C21.7335 43.0165 21.7389 42.9832 21.7451 42.9501C21.7512 42.917 21.7582 42.8841 21.766 42.8513C21.7739 42.8186 21.7825 42.786 21.7919 42.7538C21.8014 42.7214 21.8117 42.6894 21.8229 42.6576C21.834 42.6258 21.8458 42.5943 21.8585 42.5631C21.8712 42.5319 21.8847 42.5011 21.899 42.4706C21.9132 42.4401 21.9283 42.41 21.944 42.3802C21.9598 42.3505 21.9764 42.3212 21.9937 42.2923C22.0109 42.2634 22.0289 42.2349 22.0476 42.2069C22.0663 42.1789 22.0857 42.1514 22.1058 42.1244C22.4762 41.619 22.9562 41.3943 23.559 41.3005Z" fill="#2D2D2D"/>
<path d="M23.619 41.625C23.688 41.6385 23.7314 41.6427 23.7851 41.6921C23.8384 41.7409 23.815 41.8071 23.8146 41.8748C23.9044 42.0245 24.2039 42.0556 24.365 42.1473C24.4568 42.1995 24.4889 42.238 24.5204 42.3365C24.4864 42.424 24.4248 42.4509 24.3492 42.4998C24.1634 42.5062 24.0022 42.3724 23.8484 42.2753C23.8328 42.5508 23.8437 42.8286 23.8479 43.1044C23.9898 43.1181 24.1397 43.1328 24.2761 43.1757C24.4429 43.2282 24.6047 43.3391 24.6753 43.5038C24.739 43.6523 24.7493 43.8335 24.6763 43.9798C24.5466 44.2397 24.3186 44.3873 24.0523 44.473C24.0385 44.4775 24.0244 44.4815 24.0104 44.4857L24.0161 44.545C24.0055 44.6016 23.9996 44.6898 23.9744 44.7401C23.9352 44.8186 23.9422 44.8015 23.8665 44.8202C23.7648 44.7784 23.726 44.6766 23.6728 44.5861L23.6433 44.5354C23.5146 44.4897 23.3806 44.436 23.2721 44.3509C23.1937 44.2895 23.1575 44.2472 23.1406 44.1498L23.2104 44.1017C23.3632 44.0705 23.4868 44.1152 23.6344 44.1559L23.6196 43.484C23.3929 43.473 23.1056 43.5106 22.9336 43.3247C22.7986 43.1788 22.7371 42.8887 22.7436 42.6935C22.7599 42.2085 23.2498 42.1907 23.538 41.9298C23.5455 41.8082 23.551 41.7315 23.619 41.625Z" fill="white"/>
<path d="M23.8707 43.4619C23.9485 43.4667 24.0267 43.475 24.1011 43.5001C24.2245 43.5417 24.273 43.616 24.3265 43.7281C24.3297 43.8568 24.301 43.9068 24.2395 44.015C24.1222 44.075 24.055 44.1236 23.9241 44.0954C23.82 43.9476 23.867 43.6416 23.8707 43.4619Z" fill="#2D2D2D"/>
<path d="M23.3737 42.3594L23.51 42.3931C23.5568 42.4621 23.5701 42.5262 23.584 42.6075C23.6117 42.7698 23.6082 42.9632 23.5118 43.1036L23.3625 43.1297C23.3157 43.1009 23.2665 43.07 23.2265 43.0322C23.2172 43.0235 23.2083 43.0144 23.2001 43.0048C23.1917 42.9951 23.184 42.9851 23.1769 42.9746C23.1697 42.9641 23.1632 42.9532 23.1573 42.942C23.1513 42.9307 23.146 42.9192 23.1414 42.9073C23.1368 42.8955 23.1328 42.8835 23.1295 42.8712C23.1263 42.8589 23.1237 42.8465 23.1219 42.8339C23.12 42.8213 23.1188 42.8086 23.1183 42.7959C23.1179 42.7832 23.1182 42.7705 23.1192 42.7579C23.133 42.583 23.2504 42.4688 23.3737 42.3594Z" fill="#2D2D2D"/>
<path d="M60.5004 57.2029C60.578 57.1979 60.6557 57.1962 60.7334 57.1979C60.8112 57.1995 60.8887 57.2045 60.9661 57.2128C61.0434 57.221 61.1202 57.2326 61.1965 57.2474C61.2729 57.2622 61.3485 57.2802 61.4233 57.3014C61.4981 57.3226 61.5719 57.347 61.6447 57.3746C61.7174 57.4021 61.7888 57.4327 61.859 57.4663C61.9291 57.4999 61.9977 57.5364 62.0647 57.5758C62.1317 57.6153 62.1969 57.6576 62.2604 57.7026C62.8954 58.1573 63.3372 58.8895 63.4605 59.659C63.4683 59.7077 63.4748 59.7565 63.4801 59.8055C63.4855 59.8545 63.4896 59.9036 63.4926 59.9528C63.4955 60.002 63.4972 60.0513 63.4977 60.1005C63.4982 60.1498 63.4974 60.1991 63.4955 60.2483C63.4936 60.2976 63.4904 60.3467 63.4861 60.3958C63.4817 60.4449 63.4761 60.4939 63.4693 60.5427C63.4626 60.5915 63.4546 60.6401 63.4454 60.6885C63.4362 60.7369 63.4258 60.7851 63.4143 60.833C63.4027 60.8809 63.39 60.9285 63.3761 60.9758C63.3622 61.0231 63.3471 61.07 63.3309 61.1165C63.3147 61.163 63.2973 61.2091 63.2788 61.2548C63.2603 61.3005 63.2407 61.3457 63.22 61.3904C63.1992 61.4351 63.1774 61.4793 63.1546 61.5229C63.1317 61.5666 63.1077 61.6096 63.0826 61.6521C63.0576 61.6945 63.0316 61.7364 63.0045 61.7776C62.9774 61.8187 62.9493 61.8592 62.9202 61.899C62.3994 62.6091 61.7446 62.9089 60.8949 63.0451C60.1517 63.08 59.4744 62.9129 58.8794 62.4503C58.842 62.4206 58.8054 62.3901 58.7694 62.3587C58.7335 62.3273 58.6984 62.295 58.664 62.2618C58.6297 62.2287 58.5962 62.1948 58.5636 62.16C58.5309 62.1252 58.4991 62.0896 58.4683 62.0533C58.4373 62.0169 58.4073 61.9798 58.3782 61.942C58.3491 61.9041 58.321 61.8656 58.2938 61.8264C58.2666 61.7872 58.2404 61.7474 58.2151 61.7068C58.1899 61.6663 58.1657 61.6252 58.1425 61.5836C58.1192 61.5418 58.0971 61.4996 58.0759 61.4568C58.0548 61.414 58.0347 61.3708 58.0157 61.327C57.9967 61.2833 57.9788 61.239 57.9619 61.1943C57.9451 61.1497 57.9294 61.1047 57.9147 61.0593C57.9001 61.0139 57.8866 60.9681 57.8743 60.922C57.8619 60.8759 57.8506 60.8296 57.8405 60.7829C57.8304 60.7363 57.8215 60.6894 57.8137 60.6423C57.8059 60.5952 57.7993 60.548 57.7938 60.5006C57.7047 59.7326 57.9164 58.915 58.4 58.3075C58.9128 57.6632 59.6922 57.2892 60.5004 57.2029Z" fill="white"/>
<path d="M60.4894 57.6289C61.0317 57.5756 61.6351 57.7427 62.0731 58.0666C62.63 58.4786 62.9671 59.0946 63.0642 59.7768C63.1615 60.4606 62.9988 61.146 62.5736 61.6941C62.1157 62.2844 61.4766 62.5579 60.7522 62.6432C60.2052 62.6745 59.597 62.4715 59.1567 62.1515C59.1246 62.1278 59.0931 62.1033 59.0621 62.078C59.0312 62.0527 59.0009 62.0267 58.9713 61.9999C58.9416 61.9731 58.9126 61.9456 58.8843 61.9175C58.856 61.8893 58.8284 61.8604 58.8016 61.8308C58.7746 61.8013 58.7485 61.7711 58.7231 61.7403C58.6977 61.7094 58.6731 61.678 58.6492 61.646C58.6253 61.6139 58.6022 61.5813 58.58 61.5482C58.5577 61.515 58.5363 61.4813 58.5157 61.4471C58.4951 61.4128 58.4753 61.3781 58.4564 61.3429C58.4375 61.3078 58.4195 61.2721 58.4023 61.236C58.3851 61.2 58.3689 61.1636 58.3535 61.1267C58.3382 61.0898 58.3237 61.0526 58.3102 61.015C58.2966 60.9774 58.2839 60.9395 58.2723 60.9013C58.2606 60.8631 58.2499 60.8246 58.2401 60.7859C58.2302 60.7471 58.2214 60.7082 58.2135 60.669C58.2056 60.6299 58.1987 60.5905 58.1927 60.551C58.1865 60.5104 58.1812 60.4696 58.177 60.4287C58.1727 60.3878 58.1695 60.3468 58.1673 60.3057C58.165 60.2646 58.1638 60.2235 58.1636 60.1824C58.1634 60.1413 58.1642 60.1002 58.166 60.059C58.1679 60.018 58.1708 59.977 58.1746 59.936C58.1785 59.895 58.1833 59.8542 58.1892 59.8135C58.1951 59.7728 58.202 59.7322 58.2099 59.6918C58.2177 59.6515 58.2266 59.6113 58.2364 59.5714C58.2463 59.5315 58.2572 59.4918 58.269 59.4524C58.2808 59.413 58.2936 59.3739 58.3074 59.3351C58.3211 59.2964 58.3358 59.258 58.3514 59.22C58.3671 59.1819 58.3837 59.1442 58.4012 59.107C58.4187 59.0698 58.4371 59.0331 58.4564 58.9968C58.4757 58.9604 58.4959 58.9246 58.517 58.8893C58.5381 58.8539 58.5601 58.8192 58.5829 58.785C58.6057 58.7507 58.6294 58.7171 58.6538 58.684C59.109 58.0606 59.7385 57.7407 60.4894 57.6289Z" fill="#2D2D2D"/>
<path d="M59.4944 59.0035C59.8094 58.438 59.9627 58.637 60.3114 58.3086C60.3693 58.254 60.3676 58.1 60.3737 58.025C60.4352 57.9476 60.4679 57.9208 60.5701 57.9123C60.6796 57.9033 60.7779 57.9213 60.8698 57.9822C60.9316 58.0822 60.9384 58.1678 60.9506 58.2814C61.2131 58.4423 61.5474 58.4269 61.6448 58.7874C61.6714 58.8856 61.6804 59.0305 61.6115 59.1137C61.5392 59.2009 61.4918 59.2037 61.3883 59.2149C61.1139 59.1234 60.7684 58.6853 60.4669 58.8229C60.3459 58.8782 60.2412 59.0202 60.2069 59.1467C60.1737 59.2687 60.1866 59.3989 60.2568 59.5062C60.6242 60.0669 62.0423 59.9396 61.8953 60.9316C61.8532 61.2157 61.7159 61.5478 61.4731 61.7118C61.3305 61.8081 61.1733 61.8894 61.0148 61.9556C60.9767 61.9716 60.9902 61.9612 60.9675 61.9891C60.9739 62.0751 60.9921 62.2029 60.9568 62.283C60.9136 62.3812 60.8536 62.402 60.764 62.4437C60.6639 62.4422 60.5988 62.4247 60.5225 62.3546C60.418 62.2587 60.4157 62.1362 60.4036 62.0035C60.3953 61.9973 60.3874 61.9904 60.3787 61.9848C60.3351 61.9569 60.3009 61.9491 60.2528 61.9334C59.9955 61.8498 59.6261 61.6239 59.5161 61.3688C59.4839 61.2941 59.4742 61.1514 59.5052 61.0725C59.5248 61.0221 59.5348 61.0141 59.5649 60.9759C59.9816 60.9048 60.6157 61.7972 60.9786 61.3138C61.0756 61.1846 61.1061 61.0144 61.076 60.8578C61.0441 60.6914 60.8761 60.5369 60.7345 60.4588C60.2762 60.2062 59.7605 60.2528 59.558 59.6685C59.4804 59.445 59.4829 59.2355 59.4944 59.0035Z" fill="#F2C94C"/>
<path d="M9.31983 25.6783C9.10569 24.4821 8.9517 23.427 9.6967 22.3703C9.74259 22.3048 9.79077 22.2409 9.84124 22.1787C9.8917 22.1166 9.94433 22.0563 9.99913 21.9979C10.0539 21.9395 10.1107 21.8832 10.1695 21.8289C10.2283 21.7746 10.289 21.7225 10.3515 21.6725C10.4141 21.6225 10.4783 21.5748 10.5443 21.5295C10.6103 21.4841 10.6778 21.4412 10.7468 21.4006C10.8158 21.3601 10.8862 21.3221 10.958 21.2867C11.0297 21.2511 11.1027 21.2182 11.1768 21.188C11.6649 20.9896 12.2243 20.9162 12.7396 20.8138L14.7081 20.4101C16.4125 20.0553 18.1196 19.7143 19.8295 19.3871C20.6005 19.232 21.3658 19.0312 22.1406 18.8988C23.4801 18.6702 24.1858 19.0836 25.2397 19.8357C25.0287 19.8411 24.8176 19.8498 24.608 19.8757C23.8608 19.9682 23.1112 20.1481 22.3715 20.2909L18.306 21.0705L15.1858 21.6756C14.5318 21.7991 13.8251 21.8711 13.199 22.0964C12.7338 22.2639 12.4167 22.5123 12.1166 22.9059C11.5641 23.6306 11.5006 24.3453 11.6144 25.2225C10.8732 25.3924 10.0763 25.6182 9.31983 25.6783Z" fill="white"/>
<path d="M30.6775 55.8076C30.8063 56.1855 30.6566 57.3103 30.517 57.7229C30.1215 58.8927 29.0569 59.7189 27.984 60.2396C25.5652 61.4136 22.608 61.5194 20.0792 60.6362C18.8477 60.2061 17.5707 59.5461 16.9831 58.3246C16.7478 57.6253 16.7659 56.9657 16.7659 56.2359C17.1244 56.818 17.5209 57.2233 18.1004 57.59C20.3546 59.0167 23.5426 59.3443 26.119 58.7448C27.9942 58.3085 29.6393 57.4698 30.6775 55.8076Z" fill="#F2C94C"/>
<path d="M17.106 57.0576C17.4339 57.1968 17.693 57.554 17.9758 57.7724C18.2456 57.9807 18.5583 58.1525 18.8571 58.3153C19.5238 58.6786 20.2007 58.9462 20.9342 59.1386C21.2894 59.2317 21.6839 59.2937 22.0247 59.423C22.2003 59.4896 22.3239 59.5512 22.4049 59.7252C22.4148 59.8607 22.3869 59.9305 22.328 60.0515C22.2781 60.0806 22.2204 60.1168 22.1648 60.1325C21.6068 60.2895 19.5068 59.355 19.0093 59.0535C18.3246 58.6385 17.3061 57.88 17.106 57.0576Z" fill="white"/>
<path d="M30.6679 53.1133C30.782 53.5396 30.6639 54.6332 30.5245 55.0682C30.1493 56.2384 29.1739 56.998 28.1166 57.5401C25.7658 58.7452 22.7689 58.872 20.2725 58.0602C18.97 57.6366 17.6619 57.0069 17.0194 55.7369C16.7507 55.0577 16.7765 54.3847 16.7627 53.6648C17.1867 54.3609 17.8161 54.8014 18.5267 55.1755C21.0243 56.4902 24.3225 56.693 27.0021 55.8395C28.4924 55.3648 29.9278 54.5363 30.6679 53.1133Z" fill="#F2C94C"/>
<path d="M16.9897 54.3252C17.2292 54.4453 17.4769 54.767 17.6876 54.9471C17.9201 55.1459 18.1837 55.3187 18.4481 55.4714C19.1527 55.8784 19.9472 56.2017 20.7409 56.3823C21.1499 56.4754 21.6054 56.5288 21.9988 56.6664C22.1675 56.7253 22.3102 56.7807 22.3929 56.9496C22.408 57.0878 22.3663 57.1805 22.3159 57.3077C22.2951 57.319 22.2748 57.3314 22.2533 57.3416C21.7706 57.5704 20.1088 56.9329 19.6088 56.7198C18.4384 56.221 17.4708 55.534 16.9897 54.3252Z" fill="white"/>
<path d="M30.7006 58.3428C30.7084 58.8138 30.7336 59.2957 30.6898 59.7652C30.5935 60.7997 30.0276 61.6439 29.2383 62.295C27.4304 63.7865 24.6956 64.1579 22.4218 63.9437C20.6605 63.7779 18.5027 63.1632 17.3386 61.7323C16.7434 61.0005 16.6597 60.1142 16.751 59.2C16.7472 59.0924 16.7354 59.0304 16.7856 58.9312C16.9396 59.0242 17.0298 59.2533 17.1426 59.395C17.582 59.8529 18.0371 60.1959 18.5973 60.4969C21.0108 61.7938 24.1453 62.0165 26.7503 61.2166C28.4013 60.7097 29.8688 59.9057 30.7006 58.3428Z" fill="#F2C94C"/>
<path d="M17.0994 59.7236C18.3152 60.7786 19.0874 61.3172 20.6477 61.7708C21.1105 61.9054 21.6572 61.985 22.0927 62.1814C22.2798 62.2657 22.4008 62.3441 22.4171 62.5629C22.3777 62.6803 22.3341 62.7582 22.217 62.8133C21.7675 63.0252 20.5225 62.5031 20.0384 62.3034C18.7837 61.786 17.5824 61.042 17.0293 59.7559L17.0994 59.7236Z" fill="white"/>
<path d="M10.0942 29.9447L12.2877 29.4883C12.5399 30.8904 12.7439 32.3042 12.9818 33.7095C13.1007 34.4119 13.1573 35.2144 13.4351 35.8709C13.6216 36.3116 13.9012 36.6506 14.2968 36.9211C15.0346 37.4253 15.7419 37.3798 16.5781 37.2136C19.1183 36.6903 21.6531 36.1424 24.1827 35.5698C24.9306 35.4026 26.4506 35.1637 27.0741 34.8844C27.5004 34.6934 27.8335 34.3096 28.1171 33.95C27.9829 34.8423 27.5583 35.5495 26.8281 36.0855C26.7048 36.1762 26.5757 36.2577 26.4406 36.3297C26.3056 36.4017 26.166 36.4636 26.022 36.5154C25.4038 36.7362 24.7101 36.8427 24.0683 36.9848L20.1869 37.834C20.0274 39.4318 19.7009 40.7172 18.9252 42.1402C16.6464 46.3204 12.4046 49.0052 12.6145 54.3226C12.6651 55.6042 12.9917 56.8637 13.8198 57.87C13.8886 57.9545 13.9616 58.0354 14.0387 58.1125C14.1158 58.1896 14.1966 58.2626 14.281 58.3315C14.3655 58.4004 14.4533 58.4649 14.5443 58.5249C14.6354 58.5849 14.7292 58.6402 14.8258 58.6906C14.9357 58.7485 15.324 58.897 15.381 59.0003C15.3892 59.0153 15.3978 59.1185 15.3969 59.1279C15.3877 59.2342 15.3463 59.2562 15.2675 59.3106C14.8461 59.3514 14.2558 58.9223 13.9416 58.6668C12.8402 57.7712 12.3138 56.1813 12.1852 54.8152C11.4891 47.4156 19.463 44.4373 19.7376 37.9039L17.1411 38.4427C16.3442 38.6107 15.4702 38.8766 14.6524 38.8459C13.9893 38.8209 13.3115 38.6169 12.7573 38.2499C11.7767 37.6006 11.2848 36.6362 11.0627 35.5058C10.7003 33.6614 10.4732 31.7851 10.0942 29.9447Z" fill="white"/>
<path d="M35.5005 25.6772C35.6583 25.6585 35.8259 25.6595 35.9844 25.6676C37.1124 25.7249 38.2518 25.921 39.3786 26.0256C42.1883 26.2705 44.9964 26.5318 47.803 26.8095C49.1582 26.944 50.5142 27.0694 51.8712 27.1856C52.597 27.2495 53.3927 27.2583 54.1012 27.4185C54.4927 27.5071 54.795 27.7143 55.057 28.0111C55.0887 28.0464 55.1191 28.0828 55.1481 28.1203C55.1772 28.1579 55.2048 28.1964 55.2311 28.2359C55.2573 28.2755 55.2821 28.3159 55.3054 28.3573C55.3287 28.3986 55.3505 28.4407 55.3707 28.4837C55.391 28.5266 55.4096 28.5702 55.4266 28.6145C55.4437 28.6587 55.4592 28.7036 55.473 28.749C55.4867 28.7944 55.4988 28.8403 55.5093 28.8866C55.5198 28.9329 55.5285 28.9795 55.5355 29.0264C55.6261 29.6663 55.5829 30.3559 55.5873 31.0039C55.5926 32.1719 55.6042 33.3398 55.622 34.5076L55.6884 41.7814C55.6987 42.9799 55.7976 44.4224 55.7144 45.5981C55.6423 46.6181 55.0588 47.1849 54.3281 47.8199C54.3495 47.4349 54.3584 47.0556 54.3548 46.6699L54.1204 34.5693L54.084 32.2008C54.0752 31.6618 54.108 31.0745 53.9798 30.5476C53.8355 29.955 53.4702 29.475 52.9486 29.1665C52.6704 29.002 52.3595 28.9359 52.0428 28.8906C50.9248 28.7304 49.7775 28.6671 48.6519 28.5626L42.4396 27.9883L36.3686 27.4241C35.5206 27.3527 34.6633 27.2552 33.813 27.2263C33.4927 27.2154 33.212 27.2293 32.9004 27.3069C33.6605 26.5558 34.4178 25.8522 35.5005 25.6772Z" fill="white"/>
<path d="M23.2206 47.8325L23.2815 47.8284C25.3732 47.6932 27.9496 48.1762 29.5499 49.6037C30.1319 50.1227 30.5693 50.7955 30.6053 51.5924C30.6411 52.3887 30.2884 53.0878 29.7605 53.6644C28.3895 55.1618 26.1508 55.7664 24.1892 55.8622C22.0858 55.9719 19.3539 55.5166 17.7043 54.1095C17.1354 53.6242 16.7603 52.9867 16.7081 52.2318C16.6518 51.4187 16.9703 50.6958 17.5035 50.0959C18.9091 48.5143 21.1909 47.9604 23.2206 47.8325Z" fill="#F2C94C"/>
<path d="M21.4217 49.5869C21.7332 49.5944 22.0853 49.6476 22.3347 49.8496C22.4725 49.9614 22.562 50.1197 22.5709 50.2983C22.5801 50.4822 22.4976 50.6526 22.3748 50.7851C22.0871 51.0956 21.6797 51.1658 21.2787 51.1905C20.9939 51.1699 20.7033 51.1252 20.4578 50.9672C20.3069 50.87 20.181 50.7243 20.1504 50.5429C20.1207 50.3664 20.1834 50.1963 20.2925 50.0588C20.5686 49.711 21.0047 49.6232 21.4217 49.5869Z" fill="white"/>
<path d="M19.5449 51.3145C20.0807 51.3872 20.9038 51.9747 21.221 52.4048C21.3598 52.593 21.4618 52.8277 21.4149 53.0653C21.3687 53.299 21.2088 53.429 21.0236 53.5592C21.0017 53.5689 20.9799 53.5789 20.9579 53.5883C20.6214 53.7309 20.151 53.7777 19.8116 53.6235C19.5663 53.5122 19.3924 53.3066 19.3109 53.0513C19.1452 52.5327 19.3126 51.793 19.5449 51.3145Z" fill="white"/>
<path d="M12.6922 29.3643C12.542 28.4065 12.3821 27.4502 12.2127 26.4955C12.0963 25.8156 11.9191 25.0879 11.9555 24.3964C11.9747 24.0338 12.0717 23.6989 12.2587 23.3865C12.484 23.0104 12.8172 22.6909 13.2253 22.5225C14.0257 22.1923 15.3646 22.0519 16.2581 21.8801L21.4352 20.8777C22.4246 20.6868 23.4243 20.5309 24.4029 20.29C24.8544 20.9341 25.9609 21.7713 26.6533 22.1161C26.7885 22.988 26.9154 23.861 27.0342 24.7352C27.1201 25.335 27.2279 25.9377 27.2945 26.5397C22.4332 27.4989 17.5849 28.5761 12.6922 29.3643Z" fill="#F2C94C"/>
<path d="M16.9695 25.9873C17.0487 26.0075 17.1067 26.0179 17.1554 26.0932C17.2051 26.17 17.1877 26.2075 17.1571 26.2815C16.8484 26.5433 15.299 26.7425 14.8133 26.8346C14.7049 26.8064 14.6004 26.7492 14.5425 26.6548L14.5852 26.5582C14.9257 26.2768 16.4657 26.083 16.9695 25.9873Z" fill="#2D2D2D"/>
<path d="M16.6628 24.422C16.6927 24.4171 16.7278 24.41 16.7578 24.4113C16.8657 24.4159 16.8899 24.44 16.966 24.5083C16.9918 24.605 16.9912 24.6199 16.9635 24.7161C16.7985 24.9092 14.9452 25.1925 14.5791 25.2638C14.5468 25.2683 14.5045 25.2753 14.4727 25.2746C14.3465 25.2715 14.3269 25.2367 14.2381 25.1539C14.2248 25.096 14.2001 25.0674 14.2378 25.0147C14.3903 24.8011 16.2845 24.5058 16.6628 24.422Z" fill="#2D2D2D"/>
<path d="M23.8132 24.346C23.9208 24.3295 24.0025 24.31 24.107 24.3541C24.1842 24.4401 24.2076 24.4491 24.2182 24.5622C24.1398 24.6784 24.0467 24.7164 23.9177 24.756C23.6016 24.8531 23.2659 24.872 22.9432 24.9408C21.6969 25.2062 20.4421 25.4312 19.1953 25.6955C19.1014 25.7098 19.0072 25.7469 18.9257 25.677C18.845 25.6078 18.8371 25.557 18.8286 25.46C18.895 25.366 18.9353 25.347 19.0446 25.3119C19.5716 25.1425 20.1574 25.0654 20.7014 24.9574L23.8132 24.346Z" fill="#2D2D2D"/>
<path d="M23.9412 22.9047C23.949 22.9043 23.9569 22.9027 23.9646 22.9036C24.0728 22.9151 24.083 22.9422 24.1544 23.0204C24.175 23.1223 24.1742 23.1278 24.1314 23.2225C23.894 23.4249 19.5682 24.1799 18.7928 24.3564C18.6532 24.3332 18.6266 24.2986 18.5468 24.1871C18.5432 24.1405 18.5273 24.094 18.5553 24.0529C18.6281 23.9465 18.8194 23.8991 18.9385 23.869C19.2703 23.785 19.6229 23.7673 19.9589 23.6986C21.2825 23.4148 22.61 23.1502 23.9412 22.9047Z" fill="#2D2D2D"/>
<path d="M12.6924 29.3646C17.5851 28.5764 22.4334 27.4993 27.2947 26.54C27.4255 27.5914 27.5711 28.6407 27.7318 29.6879C27.8707 30.5767 28.1595 31.7509 28.0994 32.6223C28.0674 33.0884 27.9216 33.5309 27.6344 33.9034C27.4018 34.2053 27.0772 34.4731 26.7179 34.6049C26.2778 34.7663 25.7873 34.8405 25.3287 34.9361C24.6409 35.0775 23.9544 35.2251 23.2693 35.3789C21.6102 35.7513 19.9492 36.115 18.2864 36.4698C17.4554 36.6462 16.6002 36.8792 15.7574 36.9683C15.2664 37.0203 14.7596 36.8168 14.3855 36.5063C14.1127 36.2797 13.8698 35.9882 13.7464 35.6528C13.4803 34.929 13.4275 34.0261 13.3068 33.2608C13.102 31.962 12.8768 30.6667 12.6924 29.3646Z" fill="white"/>
<path d="M17.0857 32.7051C17.1718 32.7177 17.2088 32.7516 17.2744 32.8065C17.3083 32.9012 17.3139 32.9013 17.2795 32.9947C17.0405 33.2161 15.7524 33.4006 15.3434 33.5058C15.3089 33.4984 15.2641 33.4902 15.2324 33.4759C15.1295 33.4297 15.1112 33.3944 15.0645 33.2993L15.0975 33.2223C15.4602 32.9509 16.5907 32.8088 17.0857 32.7051Z" fill="#2D2D2D"/>
<path d="M25.3718 32.8568C25.4681 32.85 25.5244 32.8693 25.6146 32.8963C25.673 32.9734 25.6674 32.9711 25.6583 33.0683C25.5838 33.1782 25.4805 33.2435 25.3584 33.2925C25.1421 33.3792 24.873 33.3836 24.6425 33.4279C24.3188 33.4903 23.9973 33.5767 23.6773 33.656C23.5629 33.6599 23.5134 33.6661 23.4148 33.5986C23.3634 33.5023 23.3586 33.5049 23.3824 33.3994C23.5834 33.17 24.9931 32.9466 25.3718 32.8568Z" fill="#2D2D2D"/>
<path d="M19.1234 30.9056C19.1368 30.9039 19.1502 30.9005 19.1637 30.9004C19.2925 30.8998 19.3062 30.9213 19.3987 31.0042C19.4111 31.058 19.4343 31.0875 19.4016 31.1375C19.3305 31.2465 19.1797 31.2916 19.0614 31.3284C18.5726 31.4806 18.0391 31.5445 17.537 31.6441C16.735 31.8032 15.936 31.9863 15.1354 32.1534C15.0335 32.1554 14.9448 32.1698 14.8593 32.1042C14.8254 32.004 14.8249 31.9888 14.8479 31.8854C14.9223 31.8076 14.9871 31.7678 15.0917 31.7382C15.4301 31.6424 15.8102 31.6107 16.158 31.5372L19.1234 30.9056Z" fill="#2D2D2D"/>
<path d="M18.8866 29.6201C18.9833 29.6254 19.0387 29.6456 19.1249 29.6889C19.1591 29.7849 19.15 29.7669 19.1181 29.8539C19.0356 29.9346 18.9561 29.9984 18.8472 30.0411C18.5354 30.1632 18.1156 30.2021 17.784 30.2742C16.8229 30.483 15.8636 30.7024 14.8914 30.8532C14.775 30.8565 14.7626 30.8557 14.6638 30.795C14.613 30.6937 14.6083 30.6946 14.6337 30.5852C14.6786 30.5387 14.7165 30.5108 14.7788 30.4911C15.3244 30.3189 15.9436 30.2472 16.5058 30.1314C17.3004 29.9677 18.089 29.7675 18.8866 29.6201Z" fill="#2D2D2D"/>
<path d="M25.0333 28.4486C25.1379 28.4295 25.25 28.4041 25.3538 28.4398C25.485 28.485 25.5774 28.5894 25.6431 28.7076C25.8394 29.0609 26.0372 30.559 26.0539 31.0094C26.0606 31.1916 26.0407 31.355 25.9927 31.5303C25.667 31.8722 22.9675 32.3287 22.3133 32.4804C22.1868 32.4885 22.0491 32.4739 21.9314 32.4233C21.7518 32.3461 21.6501 32.2014 21.5825 32.023C21.4906 31.7801 21.2678 30.2404 21.2562 29.9408C21.2506 29.7926 21.2454 29.5812 21.3261 29.4494C21.4107 29.3112 21.6366 29.221 21.7812 29.1685C22.1302 29.0419 22.5304 28.9884 22.8942 28.9091L25.0333 28.4486Z" fill="#2D2D2D"/>
<path d="M25.0899 28.8408C25.1929 28.8351 25.2057 28.8277 25.2909 28.8828C25.4805 29.2317 25.6653 30.8425 25.6757 31.2906C24.871 31.6077 23.138 31.9124 22.2303 32.0924C22.1455 32.0883 22.1158 32.0778 22.0494 32.0248C21.8325 31.6008 21.6833 30.1741 21.6455 29.6524C22.1569 29.4601 22.7144 29.3588 23.2468 29.2391C23.8594 29.1012 24.4722 28.9544 25.0899 28.8408Z" fill="white"/>
<path d="M61.4728 39.5791C61.8883 39.5856 62.3141 39.6725 62.7239 39.7369C63.7809 39.9031 64.8269 40.1191 65.8776 40.3196C66.784 40.4925 67.7119 40.6002 68.6113 40.7989C68.7792 40.8359 68.9526 40.8784 69.1033 40.9637C69.5028 41.19 69.7654 41.551 69.8882 41.9895C69.9082 42.0586 69.9246 42.1285 69.9374 42.1992C69.9503 42.27 69.9594 42.3412 69.9648 42.4129C69.9703 42.4846 69.972 42.5564 69.97 42.6282C69.9681 42.7001 69.9624 42.7717 69.9531 42.843C69.7889 44.1391 69.4365 45.4423 69.1868 46.7275L68.223 51.7996C68.1006 52.4505 67.7433 54.851 67.4888 55.2804C67.2046 55.7597 66.8757 56.0201 66.3375 56.1671C65.751 56.2246 65.1268 56.0582 64.548 55.9657C63.6079 55.8176 62.6693 55.6605 61.7321 55.4944C60.8355 55.3409 59.9062 55.2343 59.0225 55.0207C58.8646 54.9825 58.7148 54.9258 58.5763 54.84C58.2364 54.6294 57.9793 54.2581 57.8964 53.8686C57.8667 53.7293 57.8617 53.61 57.8794 53.4688C58.1225 51.5296 58.5328 49.5922 58.8376 47.6596L59.4691 43.6782C59.5879 42.8842 59.6678 42.0761 59.8205 41.2882C59.8783 40.9897 59.9235 40.7424 60.0912 40.4859C60.4203 39.9829 60.8935 39.6979 61.4728 39.5791Z" fill="#4FDB40"/>
<path d="M61.4255 40.8215C61.5299 40.8125 61.6327 40.8088 61.737 40.8227C63.1825 41.0154 64.633 41.376 66.0657 41.654C66.7329 41.7835 67.6876 41.8682 68.2944 42.0872C68.5795 42.1901 68.7238 42.4 68.8504 42.6622C68.8123 43.163 68.6628 43.676 68.5596 44.1679C68.3999 44.9444 68.2455 45.7221 68.0964 46.5008L66.9213 52.6773C66.8309 53.1448 66.7679 53.6187 66.6703 54.0846C66.5794 54.5182 66.4355 54.6992 66.0648 54.9407C65.9415 54.9726 65.8277 54.9928 65.6994 54.9833C65.2851 54.9529 64.8622 54.8576 64.4516 54.7887C63.6565 54.657 62.8627 54.5173 62.0703 54.3698C61.2406 54.2176 60.374 54.1247 59.5565 53.9249C59.2305 53.8451 59.006 53.6822 58.8381 53.3868C58.716 53.1718 58.6828 52.9315 58.7072 52.6876C58.7694 52.0662 58.9489 51.4269 59.0724 50.8138L59.7154 47.4748C59.9582 46.1049 60.2108 44.7368 60.4733 43.3706C60.5944 42.7136 60.6658 41.9824 60.8637 41.3461C60.9546 41.0539 61.1753 40.9568 61.4255 40.8215Z" fill="white"/>
<path d="M63.496 41.9885C63.8242 41.9799 65.5999 42.2199 65.8271 42.3627C65.9092 42.4144 65.9526 42.4831 65.9628 42.5802C65.9749 42.6968 65.8932 42.8037 65.8261 42.8879C65.5178 42.9848 63.8885 42.6917 63.5374 42.5509C63.4603 42.5201 63.4171 42.4751 63.3937 42.3941C63.3507 42.2451 63.4191 42.1111 63.496 41.9885Z" fill="#4FDB40"/>
<path d="M62.6707 52.5444C62.7905 52.5383 62.9181 52.5366 63.0336 52.5737C63.2537 52.6443 63.445 52.8032 63.54 53.0153C63.5509 53.0392 63.5604 53.0636 63.5686 53.0885C63.5768 53.1134 63.5837 53.1387 63.5892 53.1643C63.5948 53.19 63.5989 53.2158 63.6017 53.2419C63.6044 53.268 63.6058 53.2941 63.6058 53.3204C63.6058 53.3466 63.6044 53.3727 63.6016 53.3988C63.5988 53.4249 63.5946 53.4508 63.5891 53.4764C63.5835 53.502 63.5766 53.5273 63.5684 53.5522C63.5602 53.5771 63.5506 53.6015 63.5398 53.6254C63.42 53.8916 63.214 54.0013 62.9525 54.0983C62.7827 54.1016 62.614 54.078 62.457 54.0097C62.2594 53.9237 62.0948 53.7614 62.0204 53.5577C62.0117 53.5342 62.0043 53.5104 61.998 53.4861C61.9918 53.4619 61.9869 53.4374 61.9832 53.4126C61.9796 53.3879 61.9773 53.363 61.9762 53.338C61.9752 53.313 61.9754 53.288 61.977 53.263C61.9786 53.238 61.9814 53.2132 61.9856 53.1886C61.9898 53.1639 61.9952 53.1395 62.0019 53.1154C62.0086 53.0913 62.0166 53.0676 62.0258 53.0444C62.035 53.0211 62.0454 52.9984 62.057 52.9762C62.188 52.728 62.4114 52.6174 62.6707 52.5444Z" fill="#4FDB40"/>
<path d="M61.0896 42.8652C63.401 43.3038 65.7313 43.6563 68.0365 44.1273C67.7745 45.3085 67.5732 46.5053 67.3531 47.6951C67.0552 49.3229 66.7426 50.948 66.4154 52.5702C65.9861 52.5936 65.0344 52.359 64.5449 52.2769L61.884 51.8128C61.0925 51.6805 60.2956 51.5695 59.5103 51.404C60.0099 48.553 60.601 45.7166 61.0896 42.8652Z" fill="#4FDB40"/>
<path d="M66.1244 46.1185C66.1427 46.1186 66.161 46.1175 66.1791 46.1188C66.3225 46.1284 66.3984 46.2061 66.492 46.3026C66.5087 46.3576 66.5354 46.4008 66.5155 46.4584C66.4225 46.7261 63.0998 49.1529 62.6916 49.3181C62.2723 48.8959 61.9868 48.279 61.6356 47.7934C61.4955 47.5938 61.3207 47.3935 61.3233 47.1384C61.3611 47.0542 61.4107 46.9747 61.4972 46.9315C61.558 46.901 61.6198 46.8984 61.6836 46.9142C62.0343 47.0016 62.6569 48.1599 62.8707 48.4972C63.9458 47.6914 65.0304 46.8985 66.1244 46.1185Z" fill="white"/>
<path d="M43.6958 11.8122C44.2817 11.7245 44.9754 11.8265 45.5363 12.0068C48.4851 12.9539 49.4702 16.0542 51.8789 17.6845C53.5132 18.7907 55.4716 19.0938 57.2247 19.9279C58.8241 20.6888 60.2061 22.0987 60.7961 23.7836C61.4637 25.6898 61.1277 27.8922 60.2582 29.6817C59.3837 31.4815 57.9436 32.7634 56.0541 33.4148L56.0467 32.3539C56.0377 31.7251 56.0321 31.0963 56.0298 30.4675C56.0227 29.4752 56.1063 28.4987 55.4086 27.6975C55.1155 27.3609 54.7164 27.0927 54.2798 26.9857C53.691 26.8412 53.0407 26.8234 52.4372 26.7689L49.2461 26.4836L43.1162 25.9021C41.9434 25.7896 40.769 25.6574 39.5939 25.5762C38.4937 24.3517 37.6126 22.3745 37.4228 20.7577C37.1545 18.474 37.9281 16.1611 39.3501 14.3779C40.4218 13.034 41.9649 12.0078 43.6958 11.8122Z" fill="#4FDB40"/>
<path d="M47.6412 51.125C47.653 51.1251 47.6646 51.1249 47.6763 51.1252C47.7872 51.1284 47.8665 51.1455 47.959 51.2088C48.3288 51.4619 48.6703 51.787 49.0265 52.0633L51.4801 53.9416L54.0815 55.9391C54.6114 56.3477 55.2021 56.7434 55.6591 57.232C55.6636 57.4565 55.6915 57.6814 55.6886 57.906C55.6839 58.2637 55.5864 58.4479 55.3356 58.6965C55.3157 59.5142 55.2106 61.2993 55.3405 62.0247C55.3684 62.1809 55.4584 62.3341 55.5308 62.474C55.4974 62.7439 55.4323 62.9954 55.3292 63.2465C55.0601 63.4713 54.7294 63.647 54.4346 63.838C53.9126 64.1788 53.393 64.5234 52.8759 64.8717C51.7104 65.6611 50.5858 66.5537 49.3835 67.282C49.2245 67.3783 49.0861 67.4529 48.8971 67.4678C48.7535 67.4791 48.588 67.4674 48.4579 67.4014C48.1028 67.2212 47.7683 66.9125 47.456 66.6674C46.937 66.2603 46.4094 65.8599 45.9109 65.4277C44.5139 66.4214 43.0399 67.3077 41.6607 68.3307C41.2841 68.5996 40.658 69.1816 40.1715 69.0891C39.9775 69.0521 39.7065 68.8595 39.5444 68.7456C38.9647 68.3388 38.4259 67.8677 37.8604 67.4403C37.186 66.9307 33.4251 64.2679 33.1769 63.8259C33.074 63.6427 33.0363 63.364 33.0172 63.1548C32.9582 62.5105 32.9353 59.2103 33.0826 58.7569C33.2594 58.5507 33.4982 58.389 33.7295 58.2491C34.929 57.5231 36.2076 56.9036 37.4238 56.2008C38.0898 55.8098 38.7536 55.4152 39.4152 55.017C39.8227 54.7731 40.2465 54.4723 40.6944 54.3126C41.1526 54.5309 41.5897 55.0314 41.9669 55.379L46.0596 52.3051C46.5855 51.9141 47.0934 51.4829 47.6412 51.125Z" fill="url(#paint0_linear_1096_35685)"/>
<path d="M41.6762 62.1807C41.9456 62.4148 42.2287 62.6346 42.5065 62.8586C42.0131 63.1864 41.5111 63.4932 41.034 63.8455C40.8435 63.9864 40.6767 64.1439 40.5063 64.3078C40.5096 64.1254 40.5124 63.9422 40.5235 63.7601C40.5661 63.0547 41.1927 62.6143 41.6762 62.1807Z" fill="#2D2D2D"/>
<path d="M42.9463 63.1631C43.1111 63.2879 43.2585 63.4393 43.4094 63.5807C42.5632 64.2025 41.6398 64.7381 40.7513 65.2973L40.4849 65.4755C40.4928 65.2574 40.488 65.0395 40.4851 64.8214C41.3054 64.2625 42.1066 63.6951 42.9463 63.1631Z" fill="#2D2D2D"/>
<path d="M33.4346 59.5059C34.2826 60.069 35.1773 60.5407 36.0541 61.0551C36.92 61.5648 37.7675 62.1036 38.5966 62.6713C39.0405 62.9702 39.5697 63.2595 39.9216 63.6659C39.9706 63.8623 39.9813 64.0691 40.0018 64.2702C39.4735 63.8137 38.8661 63.4271 38.288 63.037C37.3542 62.3994 36.4059 61.784 35.4432 61.1907C34.9169 60.8637 33.8881 60.3028 33.4833 59.8959C33.4118 59.824 33.4347 59.6079 33.4346 59.5059Z" fill="#2D2D2D"/>
<path d="M43.7872 63.9023C44.0086 63.9712 44.2865 64.2325 44.4805 64.3731C43.3278 65.17 42.1405 65.9134 40.9908 66.7152C40.8306 66.8285 40.6705 66.9349 40.5015 67.0352L40.5076 66.0213C40.9334 65.8105 41.3414 65.513 41.7419 65.2545C42.4316 64.8158 43.1134 64.3651 43.7872 63.9023Z" fill="#2D2D2D"/>
<path d="M44.8895 64.6865C45.0975 64.7893 45.3155 64.9952 45.5049 65.1359C44.9972 65.515 44.4271 65.8357 43.8983 66.1874L40.9559 68.1862C40.825 68.2743 40.6835 68.3473 40.5457 68.4238L40.5439 67.5644C41.1462 67.309 41.7318 66.8528 42.2736 66.487C43.1543 65.8994 44.0262 65.2993 44.8895 64.6865Z" fill="#2D2D2D"/>
<path d="M33.4791 60.3721C35.6026 61.9539 37.9039 63.2886 40.0448 64.8429L40.0417 65.4715C39.5061 65.224 38.6271 64.4492 38.076 64.072C37.3172 63.5426 36.5506 63.0245 35.7763 62.5179C35.0067 62.0164 34.2159 61.5333 33.4731 60.9932L33.4791 60.3721Z" fill="#2D2D2D"/>
<path d="M33.4731 63.0205C33.8988 63.2053 34.7723 63.9275 35.1999 64.2289C36.1042 64.8672 37.0136 65.498 37.9281 66.1215C38.6228 66.6026 39.308 67.0993 40.0283 67.5416L40.0176 68.3494C39.9063 68.3514 39.8132 68.2727 39.7267 68.2123C38.7574 67.5362 37.8414 66.764 36.8866 66.0636C35.8503 65.3036 34.7369 64.5952 33.758 63.7629C33.4987 63.5425 33.4978 63.3387 33.4731 63.0205Z" fill="#2D2D2D"/>
<path d="M55.0688 57.7705L55.0954 57.7943C55.1428 57.9366 55.1049 58.1306 55.0942 58.2799C54.1467 58.9503 53.0947 59.5158 52.1088 60.1332C51.1158 60.755 50.1678 61.4378 49.1973 62.0932C49.1926 62.0872 49.1872 62.0819 49.1834 62.0755C49.0504 61.8536 49.2109 61.2043 49.2838 60.9621C49.7149 60.6811 50.1999 60.4711 50.6468 60.2139C51.422 59.7679 52.179 59.2946 52.9643 58.8653C53.6584 58.4858 54.3759 58.1524 55.0688 57.7705Z" fill="#2D2D2D"/>
<path d="M33.4819 61.6523C34.0507 61.9159 34.7824 62.5009 35.3209 62.8644L40.0245 66.0971L40.0161 66.8645C39.9383 66.8643 39.883 66.8259 39.8197 66.784C39.4634 66.5484 39.1231 66.2803 38.7737 66.0337L36.4837 64.4266C35.4881 63.7191 34.4727 63.0419 33.4826 62.3264L33.4819 61.6523Z" fill="#2D2D2D"/>
<path d="M54.8435 60.4756C54.9391 60.5987 54.8745 61.2536 54.8723 61.4332C54.3596 61.6899 53.8744 62.0271 53.396 62.3419C52.6206 62.853 51.8492 63.37 51.0817 63.893C50.438 64.3297 49.8056 64.7786 49.1151 65.14C49.0037 65.0018 49.0601 64.4115 49.0609 64.2129C49.9298 63.9259 51.4441 62.7283 52.2704 62.1655C53.1237 61.5955 53.9814 61.0321 54.8435 60.4756Z" fill="#2D2D2D"/>
<path d="M41.7797 57.334C43.0578 58.4112 44.3594 59.4593 45.6844 60.4783C46.6432 61.2206 47.5932 61.9484 48.6259 62.586L48.6157 63.5832C47.8111 63.1438 47.054 62.4175 46.3502 61.8252L43.8994 59.7737C43.1944 59.1754 42.5034 58.5577 41.7633 58.0024C41.7602 57.7778 41.763 57.5581 41.7797 57.334Z" fill="#2D2D2D"/>
<path d="M54.87 58.9385C54.9211 59.26 54.8855 59.6285 54.8843 59.9555C54.2251 60.2881 53.6057 60.7039 52.9854 61.103C52.23 61.5864 51.4792 62.0769 50.7331 62.5744C50.2 62.9337 49.675 63.3322 49.1095 63.6386C49.0381 63.3348 49.0947 62.9258 49.1003 62.6103C49.7499 62.3622 50.6088 61.6863 51.211 61.2936L54.87 58.9385Z" fill="#2D2D2D"/>
<path d="M54.7885 61.9863C54.9136 62.131 54.8993 62.692 54.9125 62.89C54.6233 63.1611 54.2334 63.3751 53.9018 63.5917C53.3089 63.9791 52.7119 64.3616 52.1246 64.7575C51.1367 65.4236 50.1943 66.2064 49.1564 66.791C49.1196 66.7949 49.1456 66.7945 49.0811 66.7712C49.0207 66.474 49.0571 66.1256 49.0592 65.8214C49.8836 65.3818 50.6513 64.8176 51.4219 64.2909L54.7885 61.9863Z" fill="#2D2D2D"/>
<path d="M41.7407 60.5576C42.1056 60.8202 42.4404 61.1619 42.7938 61.445C43.7356 62.1995 44.7013 62.929 45.6521 63.6729C46.6051 64.4187 47.5619 65.2329 48.6251 65.8171L48.5965 66.7488C48.4698 66.7567 48.3652 66.6798 48.2649 66.6079C47.3051 65.9196 46.4066 65.1033 45.4865 64.3585C44.2503 63.3578 42.9821 62.3974 41.7464 61.3946L41.7407 60.5576Z" fill="#2D2D2D"/>
<path d="M41.7558 58.7656C42.0696 58.9595 42.8702 59.7559 43.2277 60.0568C44.1508 60.8258 45.0855 61.5806 46.0317 62.3211C46.862 62.9777 47.7027 63.6884 48.6351 64.1962L48.6207 65.1588C48.1996 65.0614 43.077 60.8664 42.3473 60.2136C42.1243 60.0141 41.9227 59.8237 41.7538 59.5754C41.7501 59.3057 41.755 59.0353 41.7558 58.7656Z" fill="#2D2D2D"/>
<path d="M40.579 54.9483C40.593 54.9485 40.6072 54.9477 40.6211 54.9491C40.9393 54.9838 41.2791 55.4427 41.4887 55.6702C41.2562 55.9121 41.1279 56.1513 41.034 56.4723C40.5298 56.422 40.0425 56.3737 39.5387 56.4595C38.7404 56.5952 36.1734 57.7489 35.5719 58.218C34.9158 58.7298 35.5277 59.1612 35.4026 59.7809C35.3801 59.8919 35.3392 59.9248 35.2518 59.9902C35.1219 60.0146 35.0587 59.9905 34.9422 59.9415C34.4269 59.6644 33.9537 59.3696 33.5718 58.9205C34.0105 58.5945 34.4974 58.3298 34.9747 58.0654C35.675 57.6742 36.3859 57.3035 37.1074 56.9531C37.8579 56.5898 38.6262 56.25 39.3544 55.8428C39.7865 55.6012 40.1649 55.2263 40.579 54.9483Z" fill="#2D2D2D"/>
<path d="M38.014 58.1543C38.0719 58.153 38.1334 58.151 38.1905 58.1629C38.3841 58.203 38.5004 58.4125 38.6087 58.5615C38.8809 58.4723 39.2338 58.3488 39.52 58.3575C39.7177 58.3634 40.0289 58.4122 40.1569 58.5842C40.1947 58.6351 40.2124 58.6914 40.2029 58.7533C40.1471 59.1157 39.4721 59.1757 39.2274 59.391C39.1504 59.4589 39.1345 59.4975 39.126 59.5973C39.1752 59.6854 39.2436 59.7697 39.341 59.8096C39.6518 59.9371 40.5735 59.3885 41.0477 59.7657C41.1319 59.8326 41.1741 59.8982 41.1883 60.0057C41.2195 60.2415 41.0222 60.5862 40.8676 60.7535C41.0932 61.0153 41.2341 61.215 41.2662 61.5657C41.1267 61.886 40.9203 62.0732 40.5981 62.2068C40.4454 62.2703 40.1652 62.3497 40.0101 62.2564C39.91 62.1962 39.9 62.1255 39.8674 62.0225C39.9079 61.8415 40.0812 61.7538 40.188 61.6096C40.2484 61.5282 40.2389 61.479 40.2205 61.3853C39.8655 60.9856 38.9069 61.1442 38.2981 60.7516C38.0094 60.5654 37.7699 60.2804 37.7012 59.9371C37.615 59.5058 37.813 59.1982 38.0493 58.8641C37.9317 58.7203 37.7888 58.5833 37.7934 58.3871C37.8372 58.2656 37.9125 58.2237 38.014 58.1543Z" fill="#2D2D2D"/>
<path d="M47.3832 54.8164C47.6498 54.8183 47.9845 54.8802 48.2083 55.0309C48.7177 55.3738 48.4498 55.8907 48.5506 56.358C48.6295 56.7241 49.4971 56.8079 49.802 56.992C50.0044 57.1142 50.1595 57.2772 50.208 57.5145C50.2733 57.8347 50.1684 58.2077 49.9889 58.4746C49.8254 58.7177 49.5619 58.9498 49.2641 58.9991C49.1201 59.023 49.0184 58.9978 48.9002 58.9087C48.8741 58.8475 48.8509 58.8191 48.8598 58.7503C48.8816 58.5821 48.9849 58.5181 49.1113 58.4204L49.1541 58.3877C49.1758 58.3663 49.2143 58.3309 49.2287 58.305C49.2691 58.232 49.2541 58.1316 49.2183 58.0595C49.1684 57.959 49.0859 57.9072 48.9826 57.8732C48.4824 57.7085 47.8932 57.9075 47.4464 58.1225C47.2426 58.0431 47.0074 57.985 46.8816 57.7947C46.8645 57.5193 47.0741 57.3509 47.2441 57.1553C46.9916 56.9711 46.6831 56.8804 46.425 56.7031C46.2263 56.5664 46.0637 56.363 46.0248 56.1197C45.9856 55.8737 46.0832 55.6382 46.23 55.4448C46.5217 55.0605 46.9197 54.8841 47.3832 54.8164Z" fill="#2D2D2D"/>
<path d="M47.343 55.5C47.4789 55.5009 47.5512 55.5054 47.6666 55.5799C47.7212 55.6653 47.7542 55.7063 47.7284 55.8146C47.7008 55.9302 47.604 56.007 47.5163 56.0773C47.4227 56.067 47.2826 56.0519 47.208 55.9866C47.1206 55.91 47.1244 55.8772 47.1187 55.7695C47.1642 55.6423 47.2436 55.584 47.343 55.5Z" fill="#F2C94C"/>
<path d="M47.658 51.8672C47.8774 51.8907 48.2995 52.4223 48.4944 52.5684C48.8928 52.867 49.3536 53.0952 49.7677 53.3749C50.5771 53.9215 51.359 54.5187 52.1491 55.0934C53.0035 55.7149 54.2038 56.5363 54.9211 57.2885C54.5968 57.5218 54.165 57.7378 53.7732 57.8261C53.5654 57.873 53.2617 57.8877 53.084 57.7444C53.0045 57.6802 52.9638 57.6092 52.9623 57.5052C52.9579 57.2091 53.247 56.8613 53.4453 56.658C52.9423 56.1891 49.6848 53.802 49.1562 53.5982C48.728 53.433 48.2214 53.4876 47.7704 53.4198C47.3642 53.3586 46.9696 53.2509 46.5585 53.2205C45.8656 53.5466 43.6825 55.2334 43.2387 55.8291C43.0682 56.0578 43.1099 56.323 43.1524 56.5894C43.6322 57.8603 47.201 60.0061 48.391 60.957L48.4296 60.9884C48.5617 61.3608 48.5899 61.6815 48.5951 62.0752C47.8537 61.394 46.992 60.8173 46.1984 60.1973C45.117 59.3524 44.0763 58.4647 43.0261 57.5823C42.5749 57.2032 41.991 56.8377 41.6177 56.3851C41.9716 55.9672 42.4676 55.6352 42.8956 55.2974C44.4406 54.0784 46.0666 53.0175 47.658 51.8672Z" fill="#2D2D2D"/>
<path d="M33.2949 27.6256C34.0668 27.5763 34.9146 27.7342 35.6875 27.8043L40.5075 28.2489L47.8487 28.9267C49.226 29.0512 50.6328 29.1325 52.001 29.3242C52.2964 29.3656 52.5688 29.4259 52.8228 29.5929C53.247 29.872 53.4748 30.2784 53.5783 30.7635C53.7346 31.4952 53.6864 33.1675 53.6978 33.982L53.7908 40.1658L53.8788 44.5567C53.9047 45.4456 53.9869 46.3617 53.9415 47.2481C53.9205 47.658 53.8497 48.0636 53.6149 48.4101C53.281 48.9031 52.7645 49.1685 52.1963 49.2866C51.3903 49.3891 50.0801 49.1574 49.2348 49.067L43.52 48.4297L36.3826 47.6309C35.3905 47.5138 34.3729 47.4363 33.3893 47.2701C33.128 47.2259 32.871 47.1469 32.6392 47.0168C32.2796 46.8149 32.0492 46.4767 31.9553 46.0778C31.8082 45.4523 31.8765 44.2261 31.8648 43.5433L31.7582 38.3194L31.6127 32.1577C31.5975 31.3149 31.5298 30.4424 31.5704 29.6015C31.5911 29.1711 31.6402 28.853 31.8812 28.4875C32.2132 27.9838 32.7187 27.7327 33.2949 27.6256Z" fill="white"/>
<path d="M45.7936 36.0977C46.0297 36.1083 46.2784 36.1067 46.5112 36.1452C46.6518 36.1684 46.7295 36.2003 46.8125 36.3177C46.8175 36.4449 46.7882 36.4877 46.7232 36.5912C46.5007 36.5912 46.2355 36.5686 46.0179 36.5238C45.8904 36.4977 45.8074 36.4623 45.7311 36.3513C45.7218 36.229 45.7369 36.2084 45.7936 36.0977Z" fill="#2D2D2D"/>
<path d="M45.7853 37.915C46.0838 37.93 46.5671 37.8981 46.7871 38.1133C46.8264 38.2397 46.8037 38.2834 46.7726 38.4095C46.579 38.4115 46.3799 38.3967 46.1867 38.3834C46.0212 38.372 45.8716 38.3479 45.7583 38.2166C45.7277 38.0891 45.7514 38.0396 45.7853 37.915Z" fill="#2D2D2D"/>
<path d="M45.819 39.7393C46.0635 39.7883 46.3112 39.7704 46.5535 39.8129C46.6652 39.8325 46.738 39.8615 46.8073 39.9548C46.8213 40.0894 46.7996 40.1211 46.7458 40.2415C46.5251 40.26 46.2568 40.2495 46.0384 40.2142C45.8966 40.1913 45.8166 40.1497 45.7315 40.0341C45.7118 39.9104 45.7608 39.8425 45.819 39.7393Z" fill="#2D2D2D"/>
<path d="M48.3709 39.9971C48.6649 40.0012 51.2114 40.2021 51.3378 40.2827C51.3723 40.3046 51.3977 40.3382 51.4275 40.3659C51.4625 40.4862 51.4403 40.549 51.402 40.6621C50.8254 40.6891 49.1919 40.5482 48.5914 40.4447C48.4598 40.4221 48.4083 40.395 48.3304 40.2871C48.3077 40.1622 48.327 40.1111 48.3709 39.9971Z" fill="#2D2D2D"/>
<path d="M48.3456 38.164C48.7116 38.1479 51.0069 38.3426 51.2903 38.4347C51.3794 38.4636 51.3851 38.4965 51.4233 38.5744C51.4187 38.6905 51.3852 38.7442 51.3287 38.842C50.7605 38.8254 50.1847 38.7497 49.6175 38.6987C49.2341 38.6643 48.8123 38.6582 48.4361 38.5764C48.3337 38.5542 48.3092 38.5196 48.2526 38.4353C48.2463 38.3189 48.2879 38.2592 48.3456 38.164Z" fill="#2D2D2D"/>
<path d="M48.3876 36.2871C49.2408 36.2937 50.1968 36.3997 51.0449 36.5113C51.227 36.5353 51.3477 36.5381 51.4663 36.6946C51.4708 36.825 51.4503 36.846 51.3868 36.9554C51.2743 36.963 51.1666 36.9549 51.0541 36.947C50.6505 36.9182 48.6223 36.8291 48.3933 36.6794C48.3587 36.6567 48.3391 36.6168 48.312 36.5855C48.3015 36.4542 48.3348 36.4056 48.3876 36.2871Z" fill="#2D2D2D"/>
<path d="M38.4372 33.335C39.4774 33.2451 40.5935 33.6398 41.4129 34.2669C42.4243 35.041 43.1229 36.1575 43.2861 37.4297C43.4346 38.587 43.1634 39.7922 42.44 40.7198C41.6431 41.7418 40.5629 42.2697 39.2955 42.4261C38.1511 42.5434 37.0195 42.1722 36.1236 41.4654C35.1274 40.6797 34.5075 39.6079 34.3595 38.3428C34.2206 37.155 34.4938 35.9349 35.2485 34.9931C36.0516 33.9909 37.1794 33.4708 38.4372 33.335Z" fill="#2D2D2D"/>
<path d="M38.4232 33.8442C39.3263 33.7542 40.2852 34.0483 41.0222 34.5642C41.0802 34.6056 41.1372 34.6484 41.1931 34.6925C41.249 34.7367 41.3038 34.7822 41.3575 34.8291C41.4112 34.876 41.4637 34.9241 41.515 34.9735C41.5664 35.023 41.6165 35.0736 41.6653 35.1255C41.7142 35.1774 41.7617 35.2305 41.808 35.2846C41.8542 35.3388 41.8991 35.3942 41.9427 35.4506C41.9863 35.507 42.0284 35.5644 42.0692 35.6229C42.1099 35.6814 42.1492 35.7408 42.187 35.8012C42.2248 35.8616 42.2612 35.9229 42.296 35.985C42.3309 36.0472 42.3642 36.1102 42.3959 36.174C42.4276 36.2378 42.4578 36.3023 42.4864 36.3676C42.515 36.4329 42.542 36.4988 42.5674 36.5654C42.5927 36.632 42.6164 36.6992 42.6385 36.767C42.6606 36.8347 42.681 36.903 42.6998 36.9717C42.7185 37.0405 42.7356 37.1097 42.751 37.1792C42.7663 37.2488 42.78 37.3187 42.7919 37.389C42.8023 37.4534 42.8112 37.518 42.8185 37.5828C42.8257 37.6477 42.8314 37.7126 42.8355 37.7778C42.8395 37.8429 42.842 37.9081 42.843 37.9733C42.8439 38.0386 42.8432 38.1038 42.8409 38.169C42.8386 38.2342 42.8347 38.2993 42.8292 38.3643C42.8237 38.4293 42.8166 38.4942 42.808 38.5588C42.7993 38.6235 42.7891 38.6879 42.7773 38.752C42.7655 38.8162 42.7521 38.88 42.7371 38.9435C42.7222 39.0071 42.7057 39.0702 42.6877 39.1329C42.6697 39.1956 42.6501 39.2578 42.629 39.3195C42.608 39.3813 42.5854 39.4425 42.5613 39.5031C42.5372 39.5638 42.5117 39.6238 42.4847 39.6832C42.4577 39.7426 42.4292 39.8013 42.3993 39.8592C42.3694 39.9173 42.3381 39.9745 42.3055 40.031C42.2728 40.0874 42.2387 40.143 42.2033 40.1978C42.1679 40.2526 42.1312 40.3065 42.0931 40.3595C41.4235 41.2792 40.4506 41.7746 39.3459 41.951C38.2219 42.0085 37.2606 41.7756 36.3713 41.0574C35.4688 40.3287 34.9191 39.3157 34.8044 38.1601C34.6995 37.1024 35.0153 35.9911 35.6998 35.1712C36.3851 34.3502 37.3768 33.9386 38.4232 33.8442Z" fill="#F2C94C"/>
<path d="M41.0068 36.1182C41.1387 36.1459 41.1856 36.1839 41.2588 36.291C41.2652 36.3661 41.2583 36.4032 41.2252 36.4734C41.1163 36.7044 38.8751 38.8817 38.5265 39.1783C38.4307 39.2599 38.3419 39.3275 38.2228 39.3704C37.8381 39.2541 36.7768 38.2039 36.4387 37.9068C36.3523 37.8268 36.2224 37.7225 36.1713 37.6145C36.131 37.5289 36.1513 37.4661 36.1758 37.3794C36.2267 37.343 36.2369 37.32 36.3041 37.3247C36.6823 37.3514 37.8967 38.5651 38.2146 38.8826L39.939 37.1446C40.2842 36.7975 40.6218 36.4207 41.0068 36.1182Z" fill="#2D2D2D"/>
</g>
<defs>
<linearGradient id="paint0_linear_1096_35685" x1="44.0044" y1="69.0997" x2="44.5405" y2="51.0754" gradientUnits="userSpaceOnUse">
<stop stop-color="#FFD02E"/>
<stop offset="1" stop-color="#FCE28C"/>
</linearGradient>
<clipPath id="clip0_1096_35685">
<rect width="80" height="80" fill="white"/>
</clipPath>
</defs>
</svg>
