<svg width="52" height="52" viewBox="0 0 52 52" fill="none" xmlns="http://www.w3.org/2000/svg">
<rect width="52" height="52" rx="16" fill="#2D2D2D"/>
<path d="M11.4946 25.4874L17.9463 27.9568L20.4436 36.1925C20.6033 36.72 21.2323 36.915 21.6498 36.5649L25.2461 33.5584C25.6231 33.2434 26.16 33.2277 26.554 33.521L33.0405 38.3503C33.4871 38.6832 34.1198 38.4323 34.2318 37.8789L38.9835 14.4398C39.1058 13.8353 38.5265 13.331 37.9652 13.5536L11.487 24.0285C10.8336 24.2869 10.8393 25.2356 11.4946 25.4874ZM20.0411 26.6423L32.6503 18.6784C32.8769 18.5356 33.11 18.8499 32.9154 19.035L22.5092 28.9546C22.1434 29.3037 21.9075 29.771 21.8407 30.2782L21.4862 32.9721C21.4392 33.3318 20.9465 33.3675 20.8497 33.0194L19.4864 28.107C19.3303 27.5467 19.5578 26.9482 20.0411 26.6423Z" fill="white"/>
</svg>
