<svg width="101" height="100" viewBox="0 0 101 100" fill="none" xmlns="http://www.w3.org/2000/svg">
<g clip-path="url(#clip0_1874_4240)">
<path d="M59.5632 70.0503C59.6341 70.0691 59.7 70.1005 59.7676 70.1287C59.8292 70.2627 59.8009 70.3065 59.7718 70.4479C59.6734 70.4171 59.5943 70.3781 59.505 70.3269C59.4678 70.1902 59.4977 70.1785 59.5632 70.0503Z" fill="white"/>
<path d="M59.5289 69.4028C59.6103 69.4157 59.6895 69.4357 59.7698 69.4546C59.8576 69.5829 59.8287 69.6566 59.8215 69.8091C59.7389 69.7951 59.6589 69.7736 59.5778 69.7532C59.4914 69.6267 59.5209 69.553 59.5289 69.4028Z" fill="white"/>
<path d="M65.7048 59.0576C65.7794 59.0792 65.8944 59.1192 65.9516 59.1764C66.0569 59.2814 66.0436 59.321 66.0323 59.4571C65.8857 59.464 65.867 59.4612 65.7392 59.3896C65.674 59.2446 65.6826 59.2173 65.7048 59.0576Z" fill="#F2C94C"/>
<path d="M14.7113 59.9048C14.7211 59.9084 14.7316 59.9104 14.7405 59.9157C14.8687 59.9932 14.9342 60.0405 14.9559 60.1855L14.7919 60.2929C14.7787 60.2938 14.7655 60.2977 14.7524 60.2957C14.6458 60.2806 14.6176 60.2589 14.5542 60.1807C14.5622 60.0344 14.6149 60.0107 14.7113 59.9048Z" fill="white"/>
<path d="M59.6875 68.6377C59.7861 68.6975 59.8131 68.7449 59.8638 68.8473C59.8662 69 59.843 69.0597 59.7727 69.1891C59.6706 69.1373 59.6176 69.0982 59.5464 69.0083C59.5502 68.841 59.6041 68.7801 59.6875 68.6377Z" fill="white"/>
<path d="M65.274 58.5161C65.3738 58.5716 65.4508 58.6443 65.5344 58.7205C65.5611 58.8846 65.5289 58.8889 65.4371 59.02C65.3227 58.9721 65.2612 58.926 65.1741 58.8378C65.1546 58.6679 65.1848 58.6553 65.274 58.5161Z" fill="#F2C94C"/>
<path d="M66.2994 59.4937C66.4245 59.5301 66.4953 59.5429 66.5838 59.6448C66.5657 59.8083 66.5038 59.861 66.4065 59.9907C66.3018 59.9465 66.2581 59.9037 66.1861 59.8165C66.1842 59.6541 66.2151 59.6271 66.2994 59.4937Z" fill="#F2C94C"/>
<path d="M66.9876 60.0898C67.0932 60.1477 67.1076 60.1869 67.1715 60.2913C67.1603 60.4716 67.1494 60.4759 67.0311 60.6144C66.9144 60.554 66.8485 60.5199 66.7681 60.4117C66.7958 60.2558 66.8802 60.2031 66.9876 60.0898Z" fill="#F2C94C"/>
<path d="M31.7021 61.1147L31.9339 61.455C31.9167 61.5422 31.8998 61.6123 31.8617 61.6937C31.8516 61.715 31.8403 61.7357 31.8297 61.7568L31.9242 61.9873C31.8291 61.9805 31.7387 61.968 31.6449 61.9506C31.5908 61.8778 31.5416 61.8 31.5178 61.7112C31.4508 61.4601 31.5747 61.3135 31.7021 61.1147Z" fill="white"/>
<path d="M20.5178 53.5776C20.6189 53.6504 20.6803 53.81 20.7212 53.9228C20.7261 53.9364 20.7308 53.9503 20.7356 53.964L20.9462 54.0218C20.6614 54.1436 20.635 54.2561 20.5127 54.5265L20.4831 54.4537C20.4622 54.4014 20.4432 54.3478 20.4161 54.2981C20.3485 54.1741 20.205 54.068 20.0728 54.0233L20.0866 54.1198L19.9888 54.0231C20.1036 54.0221 20.194 54.0077 20.3048 53.9774L20.3021 53.8666C20.3807 53.7734 20.4486 53.6778 20.5178 53.5776Z" fill="white"/>
<path d="M70.5681 81.772C70.6601 81.7792 70.7752 81.7951 70.8532 81.8475C70.9508 81.913 71.003 82.0072 71.0009 82.1247C70.9982 82.2705 70.8938 82.3749 70.8014 82.4737C70.7243 82.4583 70.6335 82.4454 70.5622 82.4124C70.4446 82.3581 70.4195 82.272 70.3818 82.1587C70.4041 81.9891 70.4653 81.9062 70.5681 81.772Z" fill="white"/>
<path d="M23.3462 61.98C22.9918 62.6146 21.989 63.4602 21.4044 63.9339L21.2781 63.8468L21.2197 63.8011C21.3247 63.7087 21.4068 63.6031 21.4935 63.4942C22.136 63.0148 22.745 62.5104 23.3462 61.98Z" fill="#14BC32"/>
<path d="M76.1727 75.6821C76.3942 75.7064 76.6372 75.7513 76.771 75.9526C76.857 76.0822 76.888 76.2149 76.8495 76.3677C76.7856 76.6214 76.6281 76.7248 76.4117 76.8488C76.3833 76.8469 76.3548 76.8454 76.3265 76.8428C76.1397 76.8256 75.9687 76.733 75.8598 76.5787C75.7683 76.4491 75.7398 76.2909 75.7746 76.1367C75.8291 75.8945 75.9708 75.7997 76.1727 75.6821Z" fill="white"/>
<path d="M15.7731 52.437C15.8117 52.4396 15.8503 52.442 15.8889 52.4457C16.0954 52.466 16.267 52.5268 16.3937 52.7002C16.4846 52.8245 16.5119 52.9778 16.4796 53.1275C16.4229 53.3914 16.2716 53.5156 16.0535 53.6556C15.9742 53.6562 15.8964 53.6574 15.8182 53.6418C15.6647 53.611 15.5195 53.4963 15.4373 53.365C15.3402 53.2103 15.3217 53.0202 15.3751 52.8465C15.4411 52.6315 15.5846 52.5399 15.7731 52.437Z" fill="white"/>
<path d="M70.3581 65.3823L70.4441 65.4173C70.5572 65.69 70.6803 65.9587 70.7468 66.2472L70.6891 66.272L70.6096 66.1531C70.4707 66.222 70.053 66.8878 69.9165 67.0572L69.5977 67.4247C69.6705 66.8235 69.7344 66.2227 69.7901 65.6197C69.9819 65.5469 70.1696 65.4634 70.3581 65.3823Z" fill="white"/>
<path d="M50.8278 11.8706C51.0427 13.0717 51.2279 15.4191 51.013 16.5896L50.6865 16.5874C50.5246 15.4949 50.6851 13.0056 50.8278 11.8706Z" fill="#4FDB40"/>
<path d="M73.7765 79.0576C73.9021 79.0612 74.0425 79.0589 74.1621 79.1006C74.3327 79.1603 74.4788 79.2981 74.5572 79.4598C74.6421 79.6351 74.6456 79.8347 74.5729 80.0148C74.4749 80.2574 74.301 80.3657 74.072 80.4695C73.973 80.4652 73.8704 80.4625 73.7727 80.4445C73.5936 80.4114 73.4262 80.2831 73.3319 80.1299C73.2338 79.9706 73.2078 79.7772 73.2608 79.5978C73.3449 79.3126 73.5239 79.1889 73.7765 79.0576Z" fill="white"/>
<path d="M73.7178 30.416C74.0255 30.6426 74.3092 30.9209 74.5774 31.1933C76.2124 32.8526 77.0623 35.006 77.0514 37.333C77.0221 37.3115 76.9508 37.2455 76.9325 37.2153C76.8593 37.0945 76.8024 36.3356 76.7619 36.1406C76.5885 35.306 76.3305 34.4578 75.9713 33.6836C75.7233 33.1488 75.414 32.6464 75.0407 32.1896C74.5716 31.6155 73.9982 31.1196 73.7178 30.416Z" fill="#4FDB40"/>
<path d="M26.6568 31.249L26.6829 31.3066C26.5013 31.5973 25.1782 32.5893 24.829 32.9353C22.4071 35.3346 21.4575 38.8986 22.8798 42.0824C23.063 42.4927 23.8758 43.7042 23.8457 44.0394C23.8439 44.0598 23.837 44.0794 23.8327 44.0994C23.544 43.6809 23.2814 43.2195 23.0289 42.7775C21.9928 40.9643 21.7478 38.85 22.301 36.8369C22.9032 34.6455 24.6851 32.3729 26.6568 31.249Z" fill="#4FDB40"/>
<path d="M15.2856 73.6997C15.5984 74.5144 15.802 75.3155 16.2709 76.0691C17.0694 77.3524 18.4594 78.2981 19.9221 78.6584C20.3637 78.7672 20.8328 78.7667 21.2679 78.8801C21.2867 78.885 21.3052 78.8914 21.3237 78.897C23.2539 78.942 25.2084 78.8159 27.0598 78.2146C27.6342 78.0281 28.1572 77.6934 28.7415 77.53C26.8266 78.826 22.4738 79.3265 20.1957 78.9979C19.02 78.7933 17.8274 78.232 16.943 77.4261C15.8676 76.4461 15.3608 75.13 15.2856 73.6997Z" fill="#4FDB40"/>
<path d="M32.6943 67.1211C33.1107 67.3788 33.4934 67.735 33.8702 68.048C35.1235 69.0893 36.2219 70.111 37.0604 71.5305C37.26 71.868 37.4751 72.2444 37.5824 72.6237L37.5286 72.659L37.5369 72.6495L37.4834 72.6044C37.0598 71.9561 36.4404 71.405 35.8709 70.8851C34.7064 69.8222 33.3174 68.604 32.6943 67.1211Z" fill="#FA8A16"/>
<path d="M17.5117 56.9458C17.7056 56.9604 17.9007 56.9886 18.0724 57.0851C18.3345 57.2322 18.5201 57.4748 18.6004 57.7638C18.6857 58.0712 18.6353 58.4135 18.468 58.6846C18.2729 59.0006 18.0197 59.1212 17.6707 59.2072C17.431 59.2015 17.2169 59.1776 17.0054 59.0549C16.7456 58.9041 16.5576 58.6544 16.4873 58.3621C16.4174 58.0717 16.4656 57.7545 16.6235 57.5005C16.836 57.1585 17.1303 57.0248 17.5117 56.9458Z" fill="white"/>
<path d="M30.4852 76.1577L30.4481 76.1841C30.4119 76.1601 30.3943 76.1522 30.3656 76.1128C30.2033 75.8907 30.112 75.5334 30.0141 75.2761C29.3748 73.5959 29.1529 72.1721 29.5844 70.3848C29.6883 69.9546 30.2076 68.18 30.5771 67.9536C30.6284 68.0677 30.5897 68.1683 30.5642 68.285L30.551 68.3438C30.1494 70.7521 29.6874 73.7938 30.4852 76.1577Z" fill="#FA8A16"/>
<path d="M46.0701 79.6851C45.9195 79.3769 46.3603 78.2298 46.4794 77.88C47.059 76.1788 47.8542 75.5038 49.1136 74.3109C49.3738 74.0645 49.7176 73.6432 50.0256 73.4927C50.0666 73.5706 49.9892 73.7321 49.9637 73.8194C48.9111 75.9446 46.8471 77.6886 46.0701 79.6851Z" fill="#F2C94C"/>
<path d="M71.6191 27.3892C71.8956 27.4494 72.199 27.6072 72.4535 27.7322C74.8177 28.8932 77.2052 31.1137 78.0604 33.6443C78.817 35.8826 78.6564 37.6859 77.6288 39.7747L77.5558 39.8506L77.5029 39.8196C77.5204 39.3594 77.8843 38.8202 77.9952 38.3521C78.5062 36.1965 78.1426 33.9862 76.9915 32.0992C76.0096 30.4897 74.1117 28.6756 72.2384 28.2182C72.0403 27.9353 71.8134 27.6752 71.6191 27.3892Z" fill="#4FDB40"/>
<path d="M72.7271 28.7891C72.7573 28.7963 72.7881 28.8018 72.8179 28.8106C73.2357 28.9356 73.6369 29.2396 73.9783 29.4989C75.118 30.3651 76.0781 31.3882 76.7642 32.655C77.754 34.4829 77.9903 36.5267 77.4097 38.5123C77.3823 38.6045 77.4094 38.5687 77.3294 38.6203C77.2385 38.213 77.3749 37.668 77.4128 37.2483C77.5397 35.8426 77.1654 34.4335 76.5335 33.1849C75.9744 32.0802 74.5887 30.2022 73.3721 29.7989C73.1478 29.4669 72.9288 29.1354 72.7271 28.7891Z" fill="#4FDB40"/>
<path d="M69.2833 67.5889L69.3069 67.6053L69.3138 67.6823C69.0674 68.0092 68.7426 68.3016 68.4463 68.5841C67.1135 69.8551 65.5614 70.8244 64.2166 72.0761L64.1763 72.0173C64.2809 71.6809 64.4943 71.3353 64.6709 71.0294C65.6135 69.3967 67.475 68.0646 69.2833 67.5889Z" fill="#FA8A16"/>
<path d="M51.585 73.5205C51.6162 73.536 51.6703 73.5613 51.7022 73.5818C52.0523 73.8077 52.3586 74.1871 52.6824 74.4609C54.7091 76.1746 54.9622 76.9027 55.4709 79.5022C55.1265 79.0895 54.9151 78.5158 54.5926 78.0721C53.5107 76.584 52.0509 75.3756 51.585 73.5205Z" fill="#F2C94C"/>
<path d="M25.3669 33.6367C25.0673 34.3203 24.7567 34.9885 24.4916 35.6875C24.0097 37.4849 23.9347 38.7971 23.9909 40.635C24.0354 40.9064 24.196 41.4313 24.0469 41.6632C24.1671 41.9628 24.166 42.3374 24.1712 42.6565C23.9322 42.0822 23.7102 41.4637 23.5523 40.8623C23.4616 40.6183 23.3907 40.3545 23.3602 40.0963C23.329 39.9939 23.3018 39.8934 23.2823 39.788C23.0021 38.2724 23.2529 36.609 24.1443 35.3291C24.5289 34.7508 24.9521 34.1938 25.3669 33.6367Z" fill="#4FDB40"/>
<path d="M24.1989 35.5898L24.218 35.7632C23.7791 37.3015 23.6417 38.9037 23.7564 40.4983L23.787 40.6818C23.7168 40.5814 23.678 40.4788 23.631 40.3665C23.6215 40.205 23.5715 40.0457 23.5325 39.8887C23.5211 39.5521 23.4342 39.2065 23.4116 38.8661C23.3343 37.7037 23.6127 36.5943 24.1989 35.5898Z" fill="#2D2D2D"/>
<path d="M71.0783 67.3336C71.0326 67.1476 70.9845 66.9626 70.9342 66.7778C72.1989 68.3173 72.7033 70.5272 72.5186 72.4847C72.3849 73.9008 71.9389 75.1463 71.2476 76.3791C71.0767 76.684 70.86 77.0859 70.608 77.3277C70.5594 77.3744 70.5501 77.3766 70.4995 77.4056L70.5022 77.3283C71.4726 75.6185 72.1235 72.8499 71.7834 70.8912C71.7919 69.7299 71.4189 68.4358 71.0783 67.3336Z" fill="#FA8A16"/>
<path d="M41.7176 70.6333L41.9195 70.6664C42.2154 70.8561 42.4122 71.4683 42.585 71.7862C42.9586 71.8968 43.3492 71.967 43.7299 72.0507C43.4546 72.381 43.1336 72.667 42.8646 73.0045L42.9202 74.2329C42.5563 74.0637 42.2117 73.8515 41.8648 73.6498C41.492 73.8744 41.1172 74.0752 40.7244 74.2627C40.7165 73.8611 40.7657 73.4541 40.7978 73.0539C40.4986 72.698 40.1862 72.3521 39.8838 71.9988C40.2721 71.9376 40.6581 71.8692 41.0442 71.7959C41.3195 71.4543 41.5132 71.0197 41.7176 70.6333Z" fill="#F2C94C"/>
<path d="M21.2782 63.8467L21.4044 63.9338C20.6045 64.6155 19.7404 65.2146 18.9319 65.8846C16.6703 67.7587 15.2957 69.8103 15.0585 72.7892C14.9171 74.5666 15.34 76.3744 16.5288 77.7485C16.8927 78.1692 17.311 78.586 17.7366 78.9445C18.0185 79.182 18.3702 79.3864 18.605 79.6698C18.5477 79.691 18.5234 79.6751 18.4651 79.6623C17.616 79.1761 16.8357 78.6154 16.1946 77.8683C14.9412 76.4074 14.4804 74.3842 14.631 72.4959C14.8812 69.3571 16.3773 67.4463 18.8552 65.6331C19.6357 65.0619 20.4862 64.5336 21.2164 63.9009L21.2782 63.8467Z" fill="#4FDB40"/>
<path d="M81.0397 31.8785C80.422 30.5593 79.7668 29.4005 78.7585 28.3301C78.4408 27.9929 77.6285 27.3328 77.4341 27.0015C77.721 27.0948 77.978 27.3625 78.2018 27.5621C79.2692 28.5139 80.146 29.577 80.8 30.8536C80.963 31.1718 81.19 31.5579 81.2694 31.9057C81.9643 33.2619 82.2946 35.5612 82.1858 37.0769C81.9594 40.2317 80.2258 43.6654 77.8468 45.7184L77.8238 44.8939C79.0369 43.9318 80.0043 42.554 80.6754 41.1655C82.0953 38.2277 82.0895 34.9228 81.0397 31.8785Z" fill="#4FDB40"/>
<path d="M59.4103 70.6514C59.5054 70.6486 59.5869 70.6442 59.6807 70.664C59.9285 70.7163 60.1641 71.5131 60.3213 71.7577L60.3569 71.8121C60.7498 71.9355 61.2002 71.9737 61.6077 72.0427C61.3925 72.3509 61.1629 72.6345 60.9154 72.9174C60.9824 73.321 61.0831 73.719 61.176 74.1171C60.8213 74.0012 60.4731 73.9172 60.1062 73.8505C59.9844 74.1641 59.837 74.4599 59.6847 74.7596C59.4401 74.5694 59.2408 74.1155 59.0829 73.8429L58.0558 74.0806L58.4166 72.9939C58.1562 72.6873 57.9117 72.3747 57.6748 72.0495C58.071 71.9319 58.5073 71.8882 58.9152 71.8243C59.1292 71.4511 59.2723 71.0573 59.4103 70.6514Z" fill="#F2C94C"/>
<path d="M68.936 24.6733C71.3311 25.2325 72.5519 26.2666 74.3877 27.752C75.0999 28.3283 75.8361 28.8878 76.52 29.4974C78.2709 31.058 79.7307 33.2175 79.8595 35.6201C79.9733 37.7422 79.1858 39.847 77.7791 41.4204L77.6843 41.5257L77.6166 41.5183C77.5531 41.2354 78.5521 39.8843 78.7382 39.4987C79.0549 38.8426 79.27 38.092 79.3775 37.3727C79.5396 36.2878 79.532 35.1709 79.2406 34.1068C79.0437 33.3876 78.6836 32.7103 78.3008 32.0747C77.1206 30.1159 75.732 28.8016 73.7441 27.6856C73.2581 27.4128 72.7458 27.1618 72.2242 26.9643C71.7629 26.7896 71.2082 26.6576 70.7903 26.3968C70.3845 26.1436 70.0368 25.7748 69.6921 25.4463C69.4629 25.2277 69.1627 24.9944 68.98 24.7372C68.965 24.7161 68.9507 24.6946 68.936 24.6733Z" fill="#4FDB40"/>
<path d="M31.4053 62.1717C31.7809 62.132 32.0784 62.1595 32.4163 62.3352C32.9066 62.59 33.3095 63.0796 33.4605 63.6116C33.5872 64.0575 33.5302 64.5403 33.2967 64.9417C33.0399 65.383 32.6529 65.5989 32.1765 65.7279C31.8254 65.7616 31.4749 65.7621 31.1383 65.6441C30.6924 65.4877 30.3461 65.1577 30.1533 64.7276C29.9574 64.2902 29.9236 63.7835 30.0983 63.3337C30.3311 62.7345 30.8398 62.4102 31.4053 62.1717Z" fill="white"/>
<path d="M31.4741 62.5502C31.7754 62.5315 32.0395 62.5713 32.3074 62.7178C32.6827 62.923 32.9734 63.277 33.078 63.6945C33.1541 63.9989 33.123 64.3248 32.9592 64.5958C32.7457 64.9489 32.426 65.0848 32.0426 65.1831C31.7581 65.199 31.4638 65.2144 31.1927 65.111C30.8699 64.9879 30.6072 64.7598 30.4672 64.4408C30.3276 64.1227 30.3315 63.7576 30.4619 63.4376C30.6533 62.9681 31.029 62.7356 31.4741 62.5502Z" fill="#2D2D2D"/>
<path d="M31.3568 63.1562C31.4335 63.1807 31.5007 63.2376 31.5672 63.2827C31.6521 63.2893 31.7149 63.2998 31.7951 63.2639C31.8378 63.2447 31.8777 63.2202 31.9195 63.1993C32.036 63.2357 32.1309 63.2696 32.2208 63.3557C32.3409 63.4706 32.3922 63.6317 32.3949 63.7948C32.4001 64.0955 32.3126 64.2472 32.109 64.4584C31.9908 64.5141 31.8802 64.5643 31.7489 64.5791C31.5534 64.6012 31.3303 64.5306 31.1913 64.3887C31.0533 64.2478 30.9924 64.0383 30.9912 63.8452C30.9895 63.5325 31.152 63.3718 31.3568 63.1562Z" fill="white"/>
<path d="M31.3979 63.6805C31.6232 63.6732 31.8434 63.6357 32.0205 63.8041C32.0799 63.8606 32.0943 63.9171 32.0869 64.0004C32.0746 64.1381 31.9509 64.2599 31.8637 64.3586C31.6912 64.3891 31.5561 64.4102 31.4078 64.2972C31.3129 64.2249 31.2453 64.1413 31.2414 64.0169C31.2368 63.8624 31.303 63.7866 31.3979 63.6805Z" fill="#2D2D2D"/>
<path d="M50.5481 69.4929C50.9923 69.4633 51.4392 69.4749 51.8409 69.6922C52.2185 69.8964 52.4712 70.2526 52.5788 70.6647C52.7088 71.1626 52.636 71.7193 52.3735 72.1628C52.0749 72.6671 51.6409 72.9106 51.0881 73.0439C50.7018 73.0844 50.3923 73.0121 50.0533 72.8132C49.5655 72.5269 49.1967 72.0257 49.0577 71.4787C48.9509 71.0585 48.9903 70.6226 49.2267 70.2522C49.5365 69.7665 50.0145 69.6055 50.5481 69.4929Z" fill="white"/>
<path d="M50.855 69.8442C51.2455 69.8656 51.5719 69.921 51.8701 70.1952C52.1302 70.4346 52.2584 70.7774 52.2717 71.1258C52.2863 71.5053 52.1693 71.8957 51.9048 72.1748C51.5974 72.499 51.2762 72.5634 50.8506 72.582C50.5314 72.5279 50.2585 72.4355 50.0021 72.2324C49.6739 71.9724 49.443 71.5825 49.4096 71.1613C49.3851 70.8524 49.4769 70.5492 49.6843 70.3168C49.9959 69.9677 50.4109 69.8804 50.855 69.8442Z" fill="#2D2D2D"/>
<path d="M50.4744 70.3945L50.5042 70.422C50.5158 70.5184 50.523 70.4813 50.489 70.571C50.4012 70.8027 50.3152 70.9528 50.4173 71.1993C50.5182 71.3073 50.6133 71.3762 50.7598 71.4127C50.8756 71.4415 50.9996 71.4289 51.0975 71.3564C51.2696 71.2291 51.3338 71.0272 51.3658 70.8249C51.3818 70.7246 51.386 70.6874 51.4334 70.5941L51.4981 70.6079C51.696 70.7866 51.777 70.9495 51.8192 71.2125C51.7748 71.3362 51.7159 71.4767 51.6312 71.578C51.4707 71.7696 51.2088 71.8832 50.9619 71.8939C50.7144 71.9048 50.4531 71.8208 50.2741 71.6456C50.1359 71.5103 50.0559 71.3304 50.0608 71.1357C50.0685 70.8259 50.2617 70.5979 50.4744 70.3945Z" fill="white"/>
<path d="M50.7503 8.46338C51.1584 8.53937 51.2905 9.43696 51.4065 9.79524C52.2918 12.53 53.955 14.9641 56.0703 16.8964C56.7432 17.5112 57.4748 18.0543 58.1608 18.6534C57.9168 18.5734 57.6857 18.4745 57.4569 18.358C55.2288 17.2235 53.0854 14.5607 51.9573 12.3522C51.494 11.4453 51.1592 10.514 50.8442 9.54734L50.6106 10.2167C50.3834 10.8574 50.1173 11.4703 49.8039 12.0729C48.3976 14.7772 45.825 17.9876 42.8525 18.9278C43.3131 18.587 43.7941 18.2794 44.2463 17.9256C46.6049 16.0803 48.4969 13.8682 49.7299 11.1214C50.0042 10.5104 50.4339 8.85352 50.7503 8.46338Z" fill="#4FDB40"/>
<path d="M21.4934 63.4941C21.4067 63.603 21.3246 63.7086 21.2196 63.801C20.1846 64.5658 19.0645 65.2181 18.0359 65.9903C16.1413 67.4131 14.5624 69.4796 14.2017 71.8702C13.9113 73.7948 14.2687 75.8667 15.4456 77.445C15.9351 78.1015 17.1258 79.3726 17.917 79.6106C18.4736 79.9447 19.085 80.1211 19.7077 80.2897C20.3353 80.3913 20.9596 80.4839 21.5974 80.4755C24.7643 80.434 28.0854 78.8763 30.6049 77.0141C30.6364 76.9908 30.6675 76.9669 30.6982 76.9426C30.7862 77.0809 30.8719 77.2215 30.9675 77.3546C28.0569 79.4838 23.9165 81.2612 20.2628 80.6815C19.9752 80.6359 19.6076 80.5865 19.3415 80.4722C17.5629 80.0897 15.8408 78.7103 14.87 77.2038C13.7735 75.5022 13.5746 73.3561 13.9988 71.4103C14.8933 67.3071 18.2759 65.5633 21.4934 63.4941Z" fill="#4FDB40"/>
<path d="M30.8753 67.5767L30.8843 67.6601C31.0053 68.8229 30.9333 70.0207 30.9849 71.1909C31.1474 74.8729 31.9064 77.2525 34.5143 79.9148C35.0104 80.4213 35.5531 80.8746 36.0656 81.3628C33.9876 80.3723 31.6647 78.9867 30.8685 76.6834C30.7857 76.4438 30.7067 76.1939 30.6528 75.946C29.9943 73.4729 30.3462 70.8334 30.7413 68.3512C30.8007 68.0934 30.8402 67.8386 30.8753 67.5767Z" fill="#FA8A16"/>
<path d="M50.0209 73.9315L50.2882 73.5039C50.0629 74.9341 49.3975 76.282 48.7403 77.5561C46.9702 80.9874 46.2255 83.7477 47.2344 87.6272C46.0514 85.602 45.3879 82.9722 46.0027 80.6532C46.1057 80.2649 46.2463 79.8811 46.4064 79.5128C47.3524 77.4983 49.0242 75.9198 50.0209 73.9315Z" fill="#F2C94C"/>
<path d="M27.5097 29.9272L27.6317 29.9484C27.6242 30.0456 27.5928 30.053 27.5189 30.1105C27.1397 30.4057 26.6609 30.6428 26.2489 30.8987C25.4974 31.3654 24.8251 31.8725 24.1737 32.4737C21.1383 35.2758 19.9979 39.1457 22.2825 42.8331C22.5435 43.2544 22.8398 43.6528 23.1592 44.0315C23.3622 44.2722 23.6197 44.5194 23.7838 44.7881C23.8391 44.8784 23.8729 44.9549 23.8685 45.0628L23.7768 45.0583C23.2893 44.7541 22.7936 44.1863 22.4481 43.7269C21.1781 42.0381 20.4496 39.7572 20.7745 37.6473C21.1457 35.2374 22.5638 33.2605 24.4563 31.792C24.9324 31.4225 25.4533 31.1327 25.9362 30.7776L25.9819 30.7436C25.1026 31.0501 24.3201 31.5742 23.6103 32.1673C23.0418 32.6567 22.48 33.1638 22.0046 33.7462C20.5335 35.5481 19.6692 38.1479 19.9136 40.4742C20.1058 42.3033 21.142 43.9765 22.5246 45.1586C22.942 45.5154 23.4897 45.8046 23.8732 46.1852C23.9858 46.2969 23.972 46.3673 23.9867 46.5145L23.9266 46.555C23.8624 46.5377 23.8467 46.536 23.7786 46.5023C23.5207 46.3747 23.2544 46.1577 23.0213 45.9889C21.6426 44.9904 20.4815 43.6631 19.899 42.0457C19.1456 39.9538 19.4827 37.6004 20.4248 35.6294C21.9945 32.3455 24.2187 31.0867 27.5097 29.9272Z" fill="#4FDB40"/>
<path d="M51.3716 73.3335C51.4112 73.3628 51.4602 73.3826 51.4905 73.4215C51.5656 73.5176 51.6132 73.9688 51.6696 74.1295C51.8154 74.5446 52.0148 74.9409 52.2304 75.3238C53.3296 77.2758 55.1994 78.618 55.5831 81.0914C55.9406 83.3958 55.06 85.7258 54.0039 87.7257C54.7415 83.8741 54.0317 81.4853 52.5291 78.0335C52.2942 77.4939 52.0444 76.6495 51.7874 76.1845C51.5519 75.2287 51.4156 74.3147 51.3716 73.3335Z" fill="#F2C94C"/>
<path d="M37.4867 77.123C36.936 75.7194 36.2862 74.4077 35.3806 73.1933C33.9846 71.3212 31.9264 69.8923 31.3506 67.5159C31.2694 67.1808 31.119 66.4204 31.2959 66.13C31.4992 66.0281 31.768 66.0498 31.9923 66.0405C32.178 66.4088 32.3212 66.8109 32.4819 67.1915C33.4535 69.0139 34.577 69.9709 36.0194 71.3424C36.2538 71.5651 36.5154 71.9562 36.7745 72.1257C36.9824 72.3759 37.192 72.626 37.3792 72.8923C38.7872 74.8939 38.477 77.3468 38.0842 79.6165C37.5042 75.6502 37.639 73.9355 34.6245 70.7906C34.1928 70.3401 33.782 69.8302 33.3131 69.4209C33.7124 70.06 34.3068 70.5986 34.7996 71.1673C36.3 72.8983 37.2203 74.8419 37.4867 77.123Z" fill="#FA8A16"/>
<path d="M65.5425 22.0728C66.0929 22.0932 68.0113 22.9153 68.6304 23.1663C69.8848 23.675 71.1821 24.0777 72.4278 24.6036C74.32 25.4024 76.1595 26.6725 77.6572 28.0761C79.8571 30.1378 81.0048 32.6628 81.1008 35.6819C81.198 38.7383 80.1535 41.7041 78.0651 43.9422L77.7837 44.2297L77.7706 42.8216C78.2726 42.214 78.7949 41.6059 79.214 40.9371C80.489 38.9022 80.8807 36.2652 80.335 33.9427C80.0696 32.8134 79.6166 31.6836 78.9737 30.7149C77.4014 28.3452 73.887 25.7613 71.2558 24.6815C70.6853 24.4474 70.0788 24.2334 69.4813 24.0785C68.9759 23.9475 68.4002 23.89 67.9279 23.6658C67.2832 23.3597 66.246 22.5085 65.5425 22.0728Z" fill="#4FDB40"/>
<path d="M26.6596 56.4351C26.6665 56.2333 26.6569 56.0402 26.7332 55.8501C26.997 56.93 26.7738 58.8482 26.5028 59.9006C26.3634 60.3965 26.2234 60.8953 26.0067 61.3642C25.6369 62.2365 25.1102 63.1431 24.4876 63.8621C23.9173 64.6343 23.1198 65.3101 22.4307 65.9787C22.2527 66.1514 21.951 66.369 21.8243 66.5687C20.1753 67.9558 18.7183 69.6604 18.5139 71.8874C18.3968 73.1627 18.6482 74.6016 19.4748 75.6213C19.5636 75.7309 19.664 75.8321 19.7659 75.9294C18.8029 74.2276 18.4656 72.833 18.9999 70.9021C19.1704 70.2863 19.4327 69.6717 19.7883 69.1394C20.0319 68.7294 20.3123 68.3641 20.6347 68.0132C21.0801 67.3939 21.739 66.918 22.3133 66.4229C22.9576 66.0146 23.5083 65.4522 24.1687 65.0696C24.4706 64.8074 24.8316 64.5864 25.1544 64.3481C26.176 63.5942 27.1352 62.7135 27.6065 61.5028C27.811 60.9776 27.8496 60.3812 28.068 59.8773C28.1521 60.0822 28.09 60.4464 28.0568 60.6663C27.789 62.4375 26.3398 63.8133 24.9653 64.8194C23.8411 65.7164 22.594 66.5261 21.6161 67.5869C22.2634 67.2626 22.8905 66.7617 23.5002 66.3608C25.7012 64.9141 27.2454 63.954 28.3687 61.4511C28.3673 61.4652 28.3663 61.4795 28.3646 61.4937C28.2034 62.8783 26.6986 64.4161 25.6555 65.2191C23.0532 67.2225 20.2051 68.2397 19.7244 71.9832C19.5602 73.2612 19.8333 74.5888 20.6331 75.6199C21.5222 76.7663 22.8149 77.2097 24.2158 77.3758C25.7811 77.5614 27.2907 77.1174 28.6941 76.452C29.1868 76.2185 29.6907 75.9185 30.2058 75.7456C29.6032 76.536 28.3374 76.9771 27.44 77.3517C26.1413 77.6388 25.5688 77.8844 24.1487 77.7779C22.801 77.677 21.3819 77.1865 20.486 76.1385C20.0414 75.5755 19.6631 74.9358 19.4594 74.2446C19.0086 72.7147 19.2845 70.8367 20.037 69.4446C20.3197 68.9215 20.6917 68.4523 20.9791 67.9319C20.8859 67.9467 20.7738 68.1298 20.71 68.2062C20.4478 68.5774 20.1828 68.9469 19.9349 69.328C19.1266 70.7997 18.6344 72.402 19.1127 74.0711C19.3499 74.8989 19.754 75.677 20.3361 76.3142L20.3381 76.3509L20.2847 76.3873C20.0072 76.2037 19.736 75.9926 19.4831 75.7763C18.6545 75.0674 18.2454 73.9692 18.1729 72.9017C18.1281 72.2424 18.2203 71.571 18.3898 70.9342C19.0542 68.4379 21.0219 67.0501 22.7948 65.3618C23.3517 64.8314 23.8583 64.2372 24.3618 63.6562C25.0023 62.8104 25.5133 61.9667 25.924 60.9867C26.0621 60.616 26.1699 60.2383 26.2788 59.8583C26.5666 58.7162 26.6717 57.6095 26.6596 56.4351Z" fill="#4FDB40"/>
<path d="M20.5629 78.3406C19.8856 78.2252 19.2368 78.0159 18.638 77.6762C17.289 76.9108 16.3782 75.71 15.9732 74.2181C15.1187 71.0702 16.879 68.2769 19.1253 66.2274C20.2479 65.2029 21.4899 64.3266 22.5475 63.2281C23.2357 62.5136 23.8023 61.7138 24.2744 60.8415C24.7991 59.8718 25.2447 58.7506 25.4774 57.6669C25.621 56.9982 25.7166 56.3192 25.7777 55.6384C25.8049 55.336 25.7529 54.6462 25.8865 54.4111L25.9438 54.4404C26.0334 54.952 25.9847 55.5563 25.9641 56.0764C25.839 59.2318 24.4619 61.9433 22.1929 64.1036C21.8337 64.4458 21.4609 64.7803 21.0832 65.1019C20.7659 65.372 20.2846 65.6335 20.056 65.9754L20.1245 66.0092C20.9113 65.554 21.6949 65.0067 22.4184 64.4571C25.4372 62.1641 25.842 60.092 26.3383 56.5079L26.3861 56.5009L26.4201 56.7742C26.0874 60.0533 25.721 62.1247 23.0319 64.3149C22.1451 65.0372 21.1942 65.7151 20.1797 66.2474C19.8803 66.453 19.5573 66.636 19.2791 66.8691C17.9494 67.9833 16.6723 69.7688 16.3507 71.4996C16.0867 72.92 16.3306 74.6257 17.1597 75.8314C18.1231 77.2323 19.5569 77.8722 21.1659 78.2243L22.631 78.3227C22.8744 78.3187 23.1165 78.303 23.3593 78.2878C23.1553 78.203 22.8094 78.2087 22.584 78.1771C22.0244 78.2205 21.3126 78.0414 20.7768 77.8855C19.3985 77.4841 18.2248 76.5646 17.5354 75.2987C16.9543 74.2317 16.5749 72.6419 16.9238 71.4469C17.0299 70.513 17.5466 69.6074 18.1868 68.9372C17.9492 69.4606 17.6982 69.9117 17.5497 70.4738L17.5621 70.5439C17.7706 71.7817 17.5655 72.5597 18.0008 73.9075C18.215 74.5711 18.9961 75.5392 19.0518 76.0819C17.9507 74.8183 17.4439 73.7333 17.394 72.0286C17.3817 71.6117 17.4422 71.1831 17.4158 70.7705L17.2316 71.5368C17.0716 73.1024 17.4003 74.618 18.4092 75.8552C19.6028 77.3186 21.4548 77.8148 23.2659 77.9924C23.6117 78.0263 23.9563 78.0362 24.3036 78.0375C25.4537 77.9912 26.5377 77.8099 27.6322 77.4518C28.3722 77.1633 29.0584 76.8426 29.7469 76.4469C29.8712 76.3755 29.9799 76.2945 30.1238 76.273C30.1806 76.3709 30.1873 76.4144 30.1778 76.527C29.1314 77.7142 25.1283 78.389 23.528 78.4877C23.4052 78.4952 23.2834 78.501 23.1604 78.5023C22.2882 78.526 21.4265 78.4559 20.5629 78.3406Z" fill="#4FDB40"/>
<path d="M70.4439 66.6313L70.5287 66.6914C70.6659 67.1901 70.6147 67.8423 70.4467 68.327C69.9405 69.7874 68.8314 71.0817 67.9342 72.3224C67.258 73.2573 66.6121 74.2071 66.0561 75.2196C65.6061 76.0395 65.2288 76.9067 64.9312 77.7933C64.7666 78.2841 64.6399 78.7875 64.4588 79.2726L64.4367 79.3305C64.5536 76.9454 65.4017 74.5243 66.4349 72.3929C64.705 74.489 64.0153 78.1138 63.9643 80.748C63.5879 79.7844 63.389 78.7427 63.2858 77.7168C63.2049 74.2959 65.1803 72.6758 67.6988 70.8359C67.9908 70.6227 68.6739 70.1892 68.8375 69.9032L68.7754 69.9002L68.8146 69.9404L68.7448 70.0256L68.7261 69.9491L68.7036 69.9448C66.8614 71.3086 64.6793 72.494 63.7094 74.69C63.4901 75.1863 63.4038 75.7187 63.2334 76.2306C63.2403 72.1223 65.2018 72.0253 67.7008 69.6669C68.7017 68.7223 69.4782 67.5967 70.4439 66.6313Z" fill="#FA8A16"/>
<path d="M18.4767 80.9673C16.5276 80.5039 14.8922 79.2074 13.8482 77.5136C12.6239 75.5273 12.1987 73.1503 12.756 70.8783C14.3457 64.398 22.036 64.2935 24.4281 58.8662C24.9533 57.6744 25.2524 56.3215 25.3793 55.03C25.43 54.5142 25.393 53.9514 25.4976 53.4473C25.8181 54.3412 25.3493 56.8993 25.0887 57.8737C24.9382 58.4366 24.7488 58.9933 24.4987 59.5201C23.1385 62.3862 19.9115 63.6534 17.4585 65.3736C16.5293 66.0253 15.6745 66.7922 14.9401 67.6579C14.1106 68.6359 13.4964 69.7284 13.1718 70.9735C12.7613 72.5483 12.8582 74.1472 13.3947 75.6783C14.1401 77.8059 15.599 79.3793 17.6386 80.3399C18.2087 80.6084 18.8013 80.7927 19.4101 80.9495L19.9287 81.0579C22.9766 81.5527 24.4102 80.8265 27.1198 79.7637C26.7134 80.0919 26.1969 80.3141 25.7232 80.5311C23.5234 81.5391 20.9925 82.1755 18.5652 81.9162C16.4918 81.6947 14.6238 80.6535 13.328 79.0188C11.7913 77.0801 11.2852 74.5124 11.5695 72.093C11.9313 69.0136 13.5344 66.3481 15.9594 64.4485C17.2675 63.424 18.8264 62.7655 20.2438 61.9127C20.8158 61.5686 21.3045 61.0964 21.8765 60.7594C20.4164 62.1643 18.6594 63.0736 17.0036 64.2105C13.9762 66.2892 11.9714 69.472 11.9045 73.1978C11.8648 75.4068 12.5487 77.6944 14.1127 79.2982C15.5753 80.7979 17.4923 81.5943 19.5826 81.6159C20.2954 81.6233 21.0257 81.5762 21.7295 81.4621C21.1412 81.2865 20.4137 81.302 19.8011 81.2396C19.3629 81.1783 18.8909 81.1313 18.4767 80.9673Z" fill="#4FDB40"/>
<path d="M31.2135 68.0547C31.2303 68.0715 31.2497 68.086 31.2639 68.1051C31.3837 68.2653 31.477 68.5699 31.5644 68.7559C31.8002 69.2576 32.0615 69.752 32.3963 70.1956C33.0405 71.0486 33.8304 71.805 34.5155 72.6276C36.4609 74.9635 37.8899 77.8119 37.8506 80.9144C37.185 78.6752 36.0812 75.5975 34.4278 73.9128C34.0991 73.5779 33.7367 73.3285 33.3364 73.087C34.9352 74.8015 35.9171 76.7662 36.7252 78.945C37.0313 79.7246 37.2968 80.5041 37.5333 81.3076C36.7964 80.2708 36.0007 79.2894 35.2973 78.2256C34.7929 77.4629 34.3839 76.644 33.8954 75.8715C34.4014 77.5817 35.1118 78.84 36.1742 80.2582C36.5656 80.7808 36.9855 81.2784 37.3531 81.8188C36.208 81.3738 35.2685 80.4342 34.442 79.548C33.5696 78.6127 32.8008 77.5886 32.2796 76.4142C31.2377 74.0675 31.1294 70.5843 31.2135 68.0547Z" fill="#FA8A16"/>
<path d="M70.8568 68.0182C70.8822 67.8782 70.9131 67.7575 70.9666 67.6255C71.4658 68.8346 71.5964 70.3397 71.6529 71.6443C71.5988 73.575 71.2292 75.4872 70.4026 77.2435C69.6312 78.7104 68.342 79.8263 66.9916 80.7521C66.6003 81.0205 64.8724 82.21 64.5314 82.1197C64.4529 82.0989 64.4406 82.0458 64.3982 81.9827C64.2942 81.077 66.4565 77.9178 67.0724 77.1301C65.9384 78.0699 65.3189 79.1304 64.6358 80.4098C65.0853 77.7806 66.339 75.0957 67.7967 72.8794C68.3555 72.0297 69.0016 71.2395 69.5694 70.3962C69.7719 70.0953 69.9654 69.783 70.1356 69.4627C70.292 69.1683 70.4207 68.7799 70.634 68.5277L70.6979 68.9093C70.8737 72.8828 70.2397 75.9355 67.6587 79.1076C67.1223 79.7669 66.2747 80.3747 65.8522 80.9351C66.4106 80.7454 67.2827 79.8501 67.7018 79.4237C69.7103 77.3799 70.8394 74.3463 70.948 71.5113C70.9928 70.3425 70.864 69.1853 70.8568 68.0182Z" fill="#FA8A16"/>
<path d="M68.9808 73.5698L69.0345 73.6371C68.9977 74.5391 68.6367 75.8305 68.1136 76.5624H68.1028C68.0655 76.4104 68.2896 75.9519 68.3401 75.767C68.4752 75.2723 68.5211 74.7594 68.6775 74.2671C68.7554 74.0219 68.8615 73.7971 68.9808 73.5698Z" fill="#2D2D2D"/>
<path d="M50.4455 73.1382L51.1384 73.1629L51.2034 73.9751C51.278 74.7788 51.364 75.5972 51.5912 76.3742C51.7907 77.2237 52.1575 78.0641 52.4733 78.8758C53.1513 80.6186 53.7605 82.3718 53.8883 84.2546C54.0104 86.0547 53.8146 88.2044 52.5784 89.6163C52.6871 89.3211 52.7912 89.0243 52.8819 88.7229C53.4013 86.9969 53.3217 85.1346 52.4695 83.535C52.5134 83.707 52.5538 83.88 52.5919 84.0534C53.11 86.414 52.8434 88.7343 51.5185 90.7929C51.3319 91.0827 50.9984 91.6797 50.6386 91.7565C50.5234 91.7071 50.4758 91.6628 50.4142 91.5512C49.5188 89.9273 50.4336 86.5405 50.9541 84.847C50.0248 86.1456 49.8107 87.808 49.687 89.3584C48.7528 86.2332 48.7737 83.9756 49.4609 80.8313C49.3949 80.9577 49.3296 81.0846 49.2689 81.2138C47.9319 84.058 48.6082 87.7874 49.6464 90.6229C49.3647 90.363 49.1098 90.0831 48.8725 89.7821C47.9354 88.5936 47.463 87.2918 47.2544 85.8011C46.9112 83.3478 47.5011 80.8863 48.5093 78.6523C49.338 76.8156 50.2036 75.1801 50.4455 73.1382Z" fill="#F2C94C"/>
<path d="M31.1294 13.5456C34.2412 13.2313 38.0516 13.9533 40.9587 15.0633C42.2528 15.5573 43.4828 16.1678 44.7491 16.7235C42.6629 18.3698 40.3261 19.4352 38.038 20.7464C34.4774 22.7868 31.2927 25.5683 28.625 28.6714C27.6373 28.9968 26.6421 29.316 25.6888 29.7343C23.2192 30.8177 20.7767 32.61 19.3311 34.913C18.1722 36.7595 17.6515 38.917 18.1493 41.0652C18.7904 43.8317 20.7785 45.6624 23.0962 47.117L24.0545 47.6755C24.3359 49.3413 24.767 50.9217 25.3015 52.522C23.0597 51.5564 20.9536 50.472 19.0823 48.8798C14.9862 45.3945 12.2996 40.5199 11.8699 35.1341C11.4454 29.8135 13.2244 24.6085 16.6868 20.5673C20.339 16.3046 25.5945 13.976 31.1294 13.5456Z" fill="#4FDB40"/>
<path d="M70.0489 11.2538C71.1657 11.2191 72.3241 11.3425 73.4151 11.5804C77.4799 12.4669 81.0119 15.2941 83.2229 18.7598C86.3105 23.5994 86.7554 29.0703 85.0046 34.4748C84.2449 36.8199 83.1968 39.0991 82.6708 41.5148C81.7257 45.8558 83.228 48.6996 86.0952 51.7985C87.2472 53.0437 88.4253 54.2024 89.3421 55.6425C90.6161 57.6436 91.0881 59.8417 90.5598 62.1756C89.9142 65.0272 88.1199 67.5024 85.6512 69.0549C83.0784 70.6728 79.9442 71.3226 76.9605 70.6246C75.4311 70.2668 73.9486 69.5153 72.6562 68.6315C72.3427 68.4172 71.9488 68.174 71.745 67.8468C71.5842 67.5403 71.4418 67.2305 71.3051 66.9126C72.2808 64.8662 73.4631 62.9379 74.4633 60.9072C76.5612 56.6483 77.6889 51.7691 77.839 47.0295C78.4916 46.5414 79.0732 45.8963 79.6015 45.276C81.9538 42.5135 83.2603 38.9292 82.9632 35.2895C82.581 30.6066 79.892 26.8291 75.5576 24.9779C74.4585 24.5085 73.3027 24.1879 72.1613 23.8404C70.685 23.3909 69.2004 22.9288 67.752 22.3952C63.5241 20.8377 59.3021 18.868 55.8442 15.9371C56.8486 15.576 57.8496 15.2781 58.8347 14.8567C62.6396 13.2287 65.7926 11.3992 70.0489 11.2538Z" fill="white"/>
<path d="M50.6861 16.5874L51.0127 16.5896C51.6088 16.7183 52.0964 16.9843 52.4445 17.5042C52.7687 17.9883 52.8777 18.5824 52.7571 19.1515C52.6268 19.7674 52.2637 20.248 51.755 20.6047C53.0598 20.762 54.3591 20.9343 55.6423 21.2237C61.2887 22.4974 66.2136 25.4648 69.7983 30.0242C73.8983 35.239 75.928 42.2678 75.132 48.8616C74.6613 52.7612 73.0699 56.7399 70.6756 59.8579C70.1788 60.5047 69.6494 61.1703 69.0126 61.6832C69.6982 61.6402 70.336 61.749 70.8751 62.2109C71.2374 62.5214 71.4879 62.9607 71.5261 63.4402C71.5573 63.8324 71.4332 64.1921 71.175 64.4881C70.7308 64.9972 69.9096 65.3928 69.2392 65.4203C68.8239 65.4374 68.4268 65.3339 68.1233 65.0389C67.8269 64.7508 67.6667 64.33 67.6778 63.9188C67.6879 63.5437 67.8521 63.1808 68.1272 62.9254C68.3736 62.6969 68.6881 62.5706 69.0259 62.5964C69.3551 62.6216 69.7104 62.7809 69.9154 63.0449C70.0711 63.2452 70.1453 63.5097 70.1146 63.7619C70.0881 63.9783 69.9496 64.1667 69.7723 64.2872C69.586 64.4138 69.3586 64.4786 69.1362 64.4204C68.9958 64.3837 68.8895 64.2915 68.8187 64.1669C68.7482 64.0429 68.7385 63.9443 68.7577 63.803C68.8371 63.6938 68.8556 63.6962 68.9859 63.6536C69.1011 63.708 69.0508 63.6642 69.1149 63.7808C69.1699 63.8812 69.2223 63.9206 69.323 63.9765C69.4657 63.9787 69.4797 63.9769 69.5997 63.9002C69.6981 63.7438 69.7322 63.6037 69.6904 63.4194C69.655 63.2636 69.5632 63.148 69.4249 63.0707C69.21 62.9506 68.9308 62.9569 68.7018 63.0307C68.4648 63.107 68.2523 63.2674 68.1511 63.4994C68.035 63.7654 68.0236 64.0709 68.1381 64.3393C68.259 64.6229 68.4716 64.8281 68.7608 64.9353C69.2497 65.1164 69.8174 64.9833 70.2682 64.757C70.6096 64.5857 70.9449 64.3236 71.0633 63.945C71.1553 63.651 71.0921 63.344 70.9414 63.0814C70.7111 62.6802 70.2704 62.385 69.8277 62.269C69.6585 62.2248 69.5119 62.2155 69.3402 62.2438L69.1588 62.4281L69.0679 62.4271C68.932 62.2323 68.8392 62.0187 68.7387 61.8044C68.5684 61.8657 68.2176 62.013 68.0566 61.9553C68.0413 61.6699 68.354 61.4385 68.2979 61.1524L68.1018 61.1802L68.0725 61.1301C68.1527 60.9901 68.1811 61.0038 68.3294 60.9568L68.3835 60.803C68.5184 59.6999 68.7714 58.6092 68.9722 57.5169C69.2494 56.0084 69.4757 54.4344 69.5776 52.9037C69.6084 52.441 69.5554 51.9368 69.7194 51.4984C69.7453 51.4293 69.7537 51.3852 69.7541 51.3116C69.4667 51.6021 69.1907 52.3229 68.9586 52.6988C68.0198 54.219 67.0253 55.6612 65.8913 57.0429C65.609 57.3868 65.2954 57.8082 64.9492 58.0844C64.9235 58.105 64.897 58.1248 64.8708 58.145L64.8611 58.3075C64.8359 58.3202 64.8112 58.334 64.7856 58.3457C64.4051 58.5191 62.7866 60.038 62.2688 60.4376C61.2338 61.236 60.1405 61.9606 59.0685 62.7078C61.4893 62.548 65.7986 62.0549 68.0625 61.2559C67.975 61.7105 67.6209 62.3034 67.7186 62.7368C67.6512 62.8921 67.5315 63.0155 67.4164 63.1374C63.7198 67.0523 57.829 69.5435 52.472 69.7033C52.1162 69.3914 51.7545 69.1615 51.2806 69.0784C50.4266 68.9287 49.733 69.2239 49.0447 69.696C44.4383 69.6237 39.7704 67.7593 36.1434 64.9715C33.9511 63.2863 31.9053 61.2774 30.3287 58.9995C28.3389 56.1244 26.9257 52.3856 26.4738 48.9212C25.6295 42.4477 27.587 35.4991 31.5709 30.3424C34.9436 25.977 39.8412 22.7759 45.1929 21.4336C46.8105 21.0278 48.4191 20.8445 50.0681 20.6314C49.4758 20.2751 49.0953 19.8951 48.9288 19.1927C48.7975 18.6384 48.8804 18.0444 49.1831 17.559C49.5401 16.9862 50.0479 16.7236 50.6861 16.5874Z" fill="white"/>
<path d="M50.5263 17.048C50.833 17.0338 51.1024 17.023 51.3941 17.1424C51.7945 17.3062 52.0963 17.6278 52.2565 18.0275C52.4319 18.4651 52.4356 18.9782 52.2394 19.4096C52.0159 19.9011 51.6461 20.1154 51.1653 20.2944C50.8283 20.3329 50.5104 20.3419 50.1921 20.2054C49.8011 20.0377 49.5108 19.706 49.3669 19.3087C49.198 18.842 49.2301 18.3033 49.4606 17.8631C49.6962 17.413 50.0536 17.1913 50.5263 17.048Z" fill="#2D2D2D"/>
<path d="M33.0885 37.6938C33.0832 37.9849 32.6064 39.1231 32.4923 39.5048C32.3101 40.1143 32.159 40.7409 32.0295 41.3636C31.4928 43.9442 31.2439 46.9777 31.1884 49.6248C30.7159 48.9132 30.3148 48.1321 29.895 47.3873C29.0503 45.9728 28.2403 44.5022 27.5874 42.9883C29.3993 41.2065 31.2429 39.4409 33.0885 37.6938Z" fill="#2D2D2D"/>
<path d="M50.7608 21.811C51.1006 21.9221 53.0773 23.5288 53.5371 23.8624C54.689 24.6981 55.86 25.5109 57.0325 26.3175C55.0366 26.2628 53.0389 26.4005 51.0406 26.377C48.9077 26.3405 46.7731 26.3245 44.6421 26.4313C46.8293 25.202 48.8195 23.389 50.7608 21.811Z" fill="#2D2D2D"/>
<path d="M68.8477 38.2861C70.4163 40.3592 72.667 41.8772 74.1143 44.0414C74.1925 44.2288 74.2611 44.3595 74.1816 44.5619C74.1733 44.5832 74.1629 44.6035 74.1534 44.6243C72.8759 46.8056 71.5405 48.97 69.982 50.9646C70.0337 49.8146 70.1316 48.6678 70.1169 47.5155C70.077 44.4018 69.5398 41.3129 68.8477 38.2861Z" fill="#2D2D2D"/>
<path d="M51.1401 21.5889C55.1146 21.9525 58.7774 22.8914 62.2818 24.8372C63.2767 25.3896 64.2661 25.9958 65.1533 26.7109C63.4643 26.7389 59.1426 26.8298 57.7085 26.3148C57.0975 26.0954 55.9645 25.1531 55.3989 24.745C53.9726 23.7159 52.4946 22.7118 51.1401 21.5889Z" fill="#2D2D2D"/>
<path d="M41.4281 27.029C41.9313 26.9997 42.4388 27.0027 42.9428 26.9937C39.364 29.1729 36.9097 32.0097 34.4563 35.3725L33.873 36.2138C33.9134 35.5118 34.0252 34.8016 34.1094 34.1031C34.3642 31.9895 34.709 29.929 35.1983 27.8559C35.4936 27.6266 35.793 27.4034 36.0937 27.1813C37.8691 27.0604 39.6501 27.0862 41.4281 27.029Z" fill="#2D2D2D"/>
<path d="M49.9743 21.6499C50.1057 21.6349 50.2322 21.6076 50.3601 21.6528C49.0375 22.7793 45.0243 26.1533 43.5487 26.5192C42.6515 26.7417 41.5676 26.6665 40.6441 26.6835L36.905 26.7593C36.8138 26.7622 36.7271 26.7614 36.6366 26.751L36.5498 26.7406L36.5502 26.7426L36.6965 26.6998L36.5964 26.6824C37.0998 26.3024 37.6468 25.9644 38.1749 25.6188C42.0375 23.0909 45.4381 22.1977 49.9743 21.6499Z" fill="#2D2D2D"/>
<path d="M74.2989 45.0698C74.3482 49.9409 73.0774 54.7466 70.2056 58.7241C69.7636 59.3362 69.3134 60.0036 68.7731 60.5341C68.7571 60.5498 68.7398 60.5642 68.7231 60.5792C69.153 58.688 69.4896 56.7809 69.7261 54.8556C69.8571 53.789 69.9982 52.6886 69.9175 51.614C70.5491 50.8999 71.0805 50.1061 71.6208 49.323C72.5808 47.9318 73.4722 46.5441 74.2989 45.0698Z" fill="#2D2D2D"/>
<path d="M58.2266 26.835C59.2953 26.9572 60.3624 27.052 61.4379 27.088C62.1295 27.1111 65.4622 27.0451 65.8834 27.1934C66.0546 27.3499 66.1311 27.5663 66.2266 27.7734C66.5339 28.7237 66.711 29.7085 66.9126 30.6852L67.7243 34.6942C67.8829 35.4894 68.0037 36.3242 68.2498 37.0964C67.9311 36.8379 67.5722 36.1992 67.3113 35.8511C66.8403 35.2227 66.3557 34.5998 65.8468 34.0016C63.6151 31.3778 61.0171 28.8646 58.2266 26.835Z" fill="#2D2D2D"/>
<path d="M27.3837 43.4824C27.7257 43.8877 28.1846 45.0092 28.4585 45.5295C28.985 46.5295 29.5602 47.5063 30.1257 48.4846C30.4723 49.084 30.8017 49.7173 31.1984 50.2844C31.2159 51.9741 31.3156 55.7804 31.8473 57.2001C32.3531 58.5504 33.1385 59.7637 33.7458 61.0606L33.7078 61.1262C33.1701 61.0001 32.8707 60.5714 32.5518 60.1518C29.6795 56.374 27.9372 52.7941 27.4004 48.0324C27.2331 46.5491 27.1818 44.9643 27.3837 43.4824Z" fill="#2D2D2D"/>
<path d="M57.6055 63.1546C57.6853 63.1399 57.7489 63.1444 57.8295 63.149C57.7972 63.2831 57.642 63.3909 57.5351 63.4768C56.3148 64.4571 54.9958 65.3291 53.7312 66.2517C52.8081 66.9249 51.9307 67.6588 51.0039 68.3256C49.6018 67.403 48.2332 66.4234 46.8556 65.4645C45.7977 64.7342 44.7223 64.011 43.709 63.2196C44.9044 63.2521 46.1076 63.3757 47.3053 63.4247C50.7298 63.565 54.2013 63.5672 57.6055 63.1546Z" fill="#2D2D2D"/>
<path d="M31.6045 50.8677C31.9097 51.1575 32.1775 51.6946 32.4079 52.0581C32.9755 52.9531 33.5509 53.8487 34.0743 54.7704C34.5668 55.6377 35 56.5809 35.6093 57.3714C37.0494 59.2401 40.1683 61.0741 42.135 62.5512C41.4452 62.4938 40.741 62.3668 40.0532 62.2775C38.4134 62.0647 35.7524 61.823 34.2955 61.1988C33.8496 60.5905 33.512 59.8909 33.1746 59.2184C32.7774 58.4262 32.3294 57.5815 32.0791 56.7301C31.6823 55.3797 31.5757 52.3211 31.6045 50.8677Z" fill="#2D2D2D"/>
<path d="M34.7077 28.3135C34.721 28.6995 34.5221 29.249 34.4397 29.6374C34.3111 30.2434 34.1957 30.8515 34.0964 31.463C33.8045 33.2617 33.6531 35.0799 33.3956 36.8833C32.5873 37.5546 31.856 38.3577 31.1045 39.0955L27.5631 42.5381C27.5593 42.5079 27.5531 42.4779 27.5519 42.4476C27.5308 41.9341 27.815 40.9094 27.9342 40.3678C28.9413 35.7933 31.4025 31.6002 34.7077 28.3135Z" fill="#2D2D2D"/>
<path d="M66.6938 28.0283C70.2104 31.6638 72.5002 35.4301 73.6333 40.4005C73.8551 41.3733 74.126 42.4457 74.1477 43.4463C73.1757 42.0763 71.7955 40.9255 70.6153 39.7332C69.9683 39.0794 69.3974 38.3658 68.757 37.7084C68.3389 36.1166 68.0464 34.4985 67.7165 32.8872C67.3845 31.2659 67.0161 29.6513 66.6938 28.0283Z" fill="#2D2D2D"/>
<path d="M67.0296 61.9727L67.0983 61.9737C67.0803 62.061 67.1005 62.0262 67.0412 62.0848C62.7321 66.3373 57.423 68.6757 51.3579 68.6562L51.2922 68.6438L51.272 68.5932C51.6888 68.1614 52.7038 67.5054 53.2246 67.1155C55.0191 65.7719 56.8408 64.4666 58.6227 63.1056C61.4324 62.9325 64.2787 62.5752 67.0296 61.9727Z" fill="#2D2D2D"/>
<path d="M33.917 61.5122C34.46 61.5681 35.0253 61.825 35.5638 61.9443C36.5221 62.1567 37.5224 62.2922 38.4937 62.4321C39.3252 62.552 42.1703 62.8241 42.7306 63.039C42.9383 63.1186 50.588 68.5187 50.7033 68.6353C50.4764 68.6825 50.2411 68.6935 50.0097 68.6952C45.6128 68.7266 41.0812 67.2447 37.5254 64.6735C36.2103 63.7226 35.0693 62.6498 33.917 61.5122Z" fill="#2D2D2D"/>
<path d="M31.5808 50.2246C31.548 49.2574 31.5968 48.2871 31.6631 47.3222C31.876 44.2272 32.2939 40.0516 33.7369 37.2535C34.4634 35.8448 35.4691 34.5778 36.4671 33.355C37.5649 32.0097 38.682 30.7107 39.9958 29.5698C40.8678 28.8126 42.8413 27.2779 43.8849 26.9528C45.2977 26.5127 50.199 26.7338 51.9464 26.7416C53.8195 26.75 55.655 26.6433 57.5282 26.7767C58.5408 27.4592 59.4476 28.2435 60.3665 29.0438C62.316 30.7417 64.1561 32.543 65.8175 34.5266C66.2835 35.0831 66.7275 35.6573 67.1599 36.2403C67.4492 36.6305 67.8601 37.3501 68.2082 37.6359C68.3034 37.562 68.3767 37.4824 68.457 37.3932L68.5605 37.5523C68.4961 37.6574 68.4019 37.6725 68.2914 37.7211C69.3181 41.0893 69.8335 45.3197 69.7492 48.8453C69.73 49.6481 69.7854 50.4896 69.3998 51.2195C68.4507 53.0162 67.251 54.7527 65.9883 56.342C65.5555 56.8868 64.9793 57.3815 64.5894 57.9462C63.1496 59.2888 61.6623 60.4784 60.0418 61.5965C59.5619 61.9276 58.9851 62.4161 58.4264 62.595C56.1189 63.3344 45.9703 63.276 43.453 62.7959C42.5305 62.6199 41.6717 61.7481 40.915 61.2044C39.4552 60.1551 37.8268 59.1733 36.5702 57.8839C35.3098 56.5903 34.5312 54.8001 33.5993 53.2622C32.9693 52.2224 32.2594 51.2328 31.5808 50.2246Z" fill="#2D2D2D"/>
<path d="M46.1777 48.8232C47.3937 49.7313 48.759 50.3075 50.0524 51.0779C50.039 51.0775 50.0255 51.0774 50.012 51.0768C49.7085 51.0594 49.4639 50.8758 49.1696 50.845C48.5472 50.7802 47.1712 50.9849 46.5489 51.1312C46.3935 50.3684 46.3104 49.5907 46.1777 48.8232Z" fill="#F2C94C"/>
<path d="M46.5488 51.1311C47.1711 50.9847 48.5471 50.78 49.1695 50.8449C49.4638 50.8756 49.7084 51.0592 50.0119 51.0766C50.0254 51.0773 50.0389 51.0774 50.0523 51.0778L50.1281 51.1489C49.9365 51.4553 47.4472 52.5573 46.9307 52.7732L46.5488 51.1311Z" fill="white"/>
<path d="M45.4442 43.1616C45.5538 43.3586 45.4524 43.9959 45.4437 44.2405C45.4026 45.3998 45.429 46.5532 45.5025 47.7105C45.0185 47.3425 44.5474 46.9632 44.0809 46.5731C43.6601 46.2239 43.2556 45.855 42.8477 45.4909C43.6951 44.6931 44.56 43.9186 45.4442 43.1616Z" fill="#F2C94C"/>
<path d="M46.8297 38.3398C47.9665 38.6795 49.0604 39.1298 50.1554 39.5825C49.4999 39.95 48.8232 40.2751 48.1721 40.6529C47.4957 41.0627 46.8451 41.4879 46.2217 41.9754C46.3683 40.7531 46.5541 39.5398 46.8297 38.3398Z" fill="#F2C94C"/>
<path d="M56.2938 43.2598C57.2343 44.03 58.1595 44.7803 59.0398 45.6209C58.6634 45.9569 58.2763 46.278 57.8868 46.5984C57.3636 47.017 56.8351 47.4206 56.2894 47.8095C56.3363 46.9345 56.3537 46.0633 56.3329 45.1872C56.3178 44.5516 56.256 43.8933 56.2938 43.2598Z" fill="white"/>
<path d="M55.5046 49.0142L55.5616 49.0931C55.5132 50.2274 55.1912 51.4511 54.9402 52.5582L52.7291 51.6605L51.5791 51.1609C52.9474 50.5658 54.2567 49.8294 55.5046 49.0142Z" fill="white"/>
<path d="M54.863 38.3818L54.946 38.3904C55.2478 38.8296 55.4984 41.4428 55.5924 42.1088C54.9862 41.579 54.2781 41.1469 53.5922 40.7288C52.9225 40.3235 52.239 39.943 51.5439 39.583C52.6277 39.0843 53.7168 38.7111 54.863 38.3818Z" fill="#F2C94C"/>
<path d="M55.7586 44.9146C55.7676 46.0345 55.7408 47.14 55.6719 48.2576C54.3633 49.1063 52.3601 50.3798 50.8979 50.8607C51.1139 50.4766 51.6456 50.0897 51.9643 49.7734C52.4135 49.3275 52.8585 48.8737 53.2664 48.3894C54.1846 47.2993 54.955 46.089 55.7586 44.9146Z" fill="white"/>
<path d="M44.7505 54.1304C45.3735 53.9521 45.9806 53.7166 46.5895 53.4956C47.512 56.2631 48.6729 58.8489 50.4374 61.1888C49.1936 61.1429 47.9469 60.978 46.739 60.6739C45.8379 58.8016 45.1919 56.1855 44.7505 54.1304Z" fill="white"/>
<path d="M55.5264 38.1913C58.1351 37.5015 60.8922 37.2573 63.5812 37.4518C63.0134 37.7624 62.5002 38.1696 61.9836 38.557C60.189 39.9027 58.4721 41.411 57.0796 43.18C56.7687 42.9826 56.4737 42.719 56.1754 42.4984C56.0801 41.0518 55.8049 39.612 55.5264 38.1913Z" fill="#F2C94C"/>
<path d="M63.5812 37.4521C63.9109 37.4674 64.241 37.48 64.5703 37.5043C63.4188 40.3866 61.7042 43.1073 59.4348 45.2455C58.6815 44.5136 57.9034 43.8325 57.0796 43.1804C58.4721 41.4113 60.189 39.903 61.9836 38.5573C62.5002 38.1699 63.0134 37.7627 63.5812 37.4521Z" fill="white"/>
<path d="M37.6128 54.0132C37.7482 54.1142 37.8854 54.2097 38.0335 54.2913C39.8798 55.3089 42.847 54.7036 44.7506 54.1308C45.192 56.1859 45.838 58.8019 46.7391 60.6743C44.0528 60.0364 41.3892 58.5292 39.5119 56.516C38.7922 55.7441 38.1938 54.8909 37.6128 54.0132Z" fill="#F2C94C"/>
<path d="M50.8604 51.4616C50.8969 51.4568 50.9222 51.4505 50.9608 51.4623C51.3448 51.5784 51.7738 51.8481 52.1513 52.0131C53.0274 52.3963 53.9205 52.7513 54.8185 53.0795C53.9012 56.2911 52.8874 58.3267 51.0299 61.0651C50.8409 60.9638 50.6081 60.5218 50.4771 60.333C48.9697 58.1594 47.9254 55.7957 47.1021 53.286C48.3882 52.7479 49.6196 52.0949 50.8604 51.4616Z" fill="white"/>
<path d="M59.4237 46.0303C59.7444 46.2152 60.1107 46.7384 60.358 47.0255C62.0875 49.0333 63.5723 51.3604 64.3135 53.9241C63.0128 54.0899 61.7479 54.1451 60.4422 53.9967C59.1982 54.0035 56.6792 53.1996 55.4824 52.742C55.7687 51.3495 55.982 49.9592 56.1816 48.5523C57.3101 47.7669 58.3876 46.9341 59.4237 46.0303Z" fill="white"/>
<path d="M38.8045 37.3266C41.287 37.1896 43.9214 37.5516 46.3123 38.2115C45.9587 39.5783 45.7991 40.9966 45.6101 42.3927C44.9005 42.932 44.2168 43.5036 43.5444 44.0882L42.4332 45.1393C40.1808 43.073 37.9752 40.3686 36.9414 37.4642C37.5565 37.3636 38.1828 37.3503 38.8045 37.3266Z" fill="#F2C94C"/>
<path d="M42.4129 45.9087C43.4575 46.7665 44.4578 47.6144 45.5525 48.4122C45.6966 49.2049 45.7942 50.0115 45.9062 50.8095C46.0526 51.5464 46.2412 52.2729 46.4257 53.0008C45.8333 53.2262 45.2013 53.3843 44.6197 53.6256C44.3347 53.7174 44.0445 53.7987 43.7542 53.872C41.8276 54.358 39.544 54.5858 37.7725 53.5295C38.7312 50.4758 40.2934 48.261 42.4129 45.9087Z" fill="#F2C94C"/>
<path d="M44.6116 50.7706C44.7649 50.6585 44.9371 50.5796 45.1063 50.4946L45.906 50.8093C46.0524 51.5462 46.2409 52.2727 46.4254 53.0006C45.833 53.226 45.201 53.3841 44.6194 53.6254C44.5168 52.66 44.4969 51.7366 44.6116 50.7706Z" fill="white"/>
<path d="M50.9075 29.2485C51.2464 29.4923 51.54 29.916 51.7791 30.2532C53.3351 32.4484 54.2077 35.2013 54.8761 37.7813C53.5028 38.1861 52.2136 38.679 50.8978 39.2403C50.7166 39.2524 49.9238 38.8583 49.6936 38.7675C48.795 38.4129 47.8778 38.1109 46.9624 37.8034C47.6448 34.9887 48.8364 31.3463 50.9075 29.2485Z" fill="#F2C94C"/>
<path d="M55.3345 53.3135C58.2971 54.2987 60.8993 54.9074 64.0522 54.5152C62.7913 56.4058 60.134 58.9556 58.0198 59.7503C57.1312 60.2636 55.8016 60.6904 54.7908 60.8501C53.7315 61.0615 52.6799 61.1675 51.6011 61.1975C53.3303 58.7361 54.485 56.1959 55.3345 53.3135Z" fill="white"/>
<path d="M54.7905 60.8503C54.8216 60.8208 54.8426 60.7984 54.8763 60.7739C55.2056 60.5343 57.6542 59.6914 58.0195 59.7505C57.131 60.2638 55.8013 60.6907 54.7905 60.8503Z" fill="#F2C94C"/>
<path d="M51.5161 29.0459C52.6783 29.0704 53.8756 29.3277 54.9925 29.6418C58.7845 30.7081 62.6001 33.4438 64.5463 36.9192C64.2528 36.8851 63.9576 36.8726 63.6627 36.8562C60.8958 36.6353 58.0908 36.9742 55.4098 37.6522C54.6871 34.555 53.5809 31.508 51.5161 29.0459Z" fill="#F2C94C"/>
<path d="M65.117 37.8662C65.4698 38.1294 65.9409 39.5434 66.1067 40.0455C67.2422 43.4828 67.263 47.2151 66.0167 50.6285C65.6885 51.5275 65.2584 52.3726 64.8292 53.226C64.5129 52.5283 64.1765 51.8412 63.839 51.1536C62.8209 49.1268 61.4419 47.235 59.8306 45.639C62.2351 43.1962 63.679 40.9677 65.117 37.8662Z" fill="white"/>
<path d="M49.7626 29.0729C49.9429 29.0479 50.1365 29.0521 50.3188 29.0435C48.2169 31.3348 47.1863 34.6955 46.4236 37.6435C43.8328 36.9965 41.3115 36.6861 38.6361 36.7469C38.1073 36.7605 37.5853 36.7805 37.0586 36.8339C37.4547 36.1217 38.0024 35.4143 38.5266 34.7902C41.3748 31.3995 45.3814 29.4565 49.7626 29.0729Z" fill="#F2C94C"/>
<path d="M36.4627 37.9238C36.5638 38.0214 37.6735 40.2636 37.9316 40.6778C39.0624 42.4926 40.5006 44.0882 42.0686 45.5331C40.3991 47.1105 39.102 49.1052 38.0807 51.1487C37.7528 51.8629 37.4974 52.5692 37.3046 53.3312C36.3889 52.1038 35.6693 50.6602 35.2161 49.2014C34.0439 45.4279 34.6376 41.3791 36.4627 37.9238Z" fill="#F2C94C"/>
<path d="M50.9113 39.8555C52.5682 40.6812 54.1013 41.7241 55.6333 42.7557C55.6981 43.4708 55.7438 44.1965 55.7588 44.9146C54.9552 46.089 54.1848 47.2993 53.2666 48.3894C52.8587 48.8737 52.4137 49.3275 51.9644 49.7734C51.6458 50.0897 51.114 50.4766 50.8981 50.8607C50.3542 50.7739 46.7572 48.5946 46.1015 48.153C45.9248 46.3282 45.9746 44.4749 46.1057 42.6493C46.8263 42.2356 47.5105 41.7408 48.2174 41.302C49.087 40.7623 49.9896 40.2989 50.9113 39.8555Z" fill="#F2C94C"/>
</g>
<defs>
<clipPath id="clip0_1874_4240">
<rect width="100" height="100" fill="white" transform="translate(0.833008)"/>
</clipPath>
</defs>
</svg>
