<svg width="80" height="80" viewBox="0 0 80 80" fill="none" xmlns="http://www.w3.org/2000/svg">
<g clip-path="url(#clip0_1096_35684)">
<path d="M48.5742 17.8986C48.9542 17.8893 49.3356 17.8756 49.7156 17.876C49.9257 17.8761 50.1481 17.8705 50.3027 18.0275C50.3107 18.1451 50.2977 18.1693 50.2465 18.277C49.7635 18.2864 49.2442 18.3386 48.7653 18.2842C48.6368 18.2696 48.5663 18.2504 48.4856 18.1487C48.482 18.0324 48.5132 17.9922 48.5742 17.8986Z" fill="#F2C94C"/>
<path d="M53.646 17.8945C53.6847 17.8896 53.7236 17.8842 53.7625 17.8811C54.1055 17.8543 55.3143 17.7867 55.5591 18.0022C55.587 18.1181 55.5668 18.1519 55.5318 18.2631C55.5018 18.266 55.4718 18.2693 55.4418 18.2711C55.1065 18.2911 53.8592 18.3601 53.6177 18.1523C53.5893 18.0345 53.6082 18.0063 53.646 17.8945Z" fill="#F2C94C"/>
<path d="M54.3107 14.9863C54.3396 14.9977 54.3753 15.0099 54.4004 15.028C54.484 15.088 54.4919 15.1136 54.5014 15.2078C54.3368 15.6141 53.6012 16.2051 53.2542 16.4972C53.1977 16.4917 53.1515 16.4718 53.0984 16.4527C53.0216 16.3614 53.02 16.3665 53.0234 16.2479C53.2275 15.833 53.942 15.2819 54.3107 14.9863Z" fill="#F2C94C"/>
<path d="M51.828 13.7236C51.8871 13.7575 51.9299 13.79 51.9816 13.8332C52.1104 14.1369 52.0551 14.6418 52.0525 14.9732C52.0498 15.2974 52.1101 15.675 51.8674 15.9137C51.8132 15.8747 51.7627 15.8314 51.7111 15.7891C51.651 15.6504 51.6447 15.5146 51.6408 15.3654C51.6325 15.0396 51.58 14.1018 51.7121 13.8458C51.7314 13.8085 51.7971 13.7562 51.828 13.7236Z" fill="#F2C94C"/>
<path d="M49.181 14.8174C49.5371 14.9763 50.3886 15.8493 50.5753 16.1931C50.5507 16.3236 50.4908 16.3682 50.4048 16.4672C50.0653 16.2633 49.2411 15.4076 49.0396 15.0645C49.0569 14.9507 49.1104 14.9064 49.181 14.8174Z" fill="#F2C94C"/>
<path d="M51.7195 20.4249C51.7049 19.9404 51.5722 18.7674 51.7257 18.3639C51.8193 18.2973 51.8218 18.3015 51.9374 18.3083C52.0285 18.3756 52.0539 18.3853 52.0767 18.503C52.1491 18.8767 52.0647 20.1187 52.0236 20.5468C51.9144 20.5165 51.8206 20.4744 51.7195 20.4249Z" fill="#F2C94C"/>
<path d="M11.0697 39.9014C11.2964 40.0421 11.5741 40.3582 11.7108 40.5882C11.7982 40.7351 11.8487 40.9061 11.9062 41.0664C12.0778 41.5439 12.2504 42.0381 12.4905 42.486C12.7477 42.9656 13.1193 43.4547 13.2954 43.9673C13.1336 43.8535 12.9919 43.717 12.8557 43.5739C12.0433 42.7212 11.0482 41.1221 11.0697 39.9014Z" fill="#FEF1C1"/>
<path d="M9.41821 38.8027C9.70657 38.9762 9.68485 39.4728 9.71962 39.7836C9.88329 41.2461 10.3702 42.6453 11.0046 43.9676C11.2133 44.4026 11.4906 44.8338 11.6691 45.2781C11.7055 45.3684 11.7127 45.3805 11.676 45.466C10.8142 44.5823 10.1763 43.2767 9.75962 42.117C9.46977 41.3102 9.03727 39.616 9.41821 38.8027Z" fill="#FEF1C1"/>
<path d="M7.95076 35.9854C8.03584 36.018 8.08693 36.0544 8.13498 36.1342C8.25967 36.3411 8.17115 36.7736 8.15584 37.0082C8.06084 38.4586 8.03061 39.914 8.25772 41.3546C8.32574 41.768 8.40993 42.178 8.51029 42.5847C8.61061 42.9914 8.7268 43.3936 8.85889 43.7911C9.02592 44.2821 9.20537 44.7749 9.39951 45.2559C9.4867 45.472 9.7917 46.0534 9.81248 46.2138C9.81514 46.2338 9.80389 46.2532 9.79967 46.273L9.73014 46.2582C9.57428 46.0518 9.43717 45.8385 9.30818 45.6143C7.94475 43.2439 7.44763 40.3061 7.699 37.6047C7.749 37.0673 7.81144 36.5071 7.95076 35.9854Z" fill="#FEF1C1"/>
<path d="M27.6436 14.9377C27.6624 14.9358 27.6812 14.9301 27.7 14.932C27.8036 14.9427 27.725 14.9613 27.7917 14.9403L27.7264 14.9319L27.7329 14.9692C23.5193 16.2186 19.8458 17.9384 16.455 20.7762C15.3701 21.6841 14.3752 22.6708 13.3489 23.6415L13.2409 23.7182L13.2197 23.6872C13.2526 23.6141 13.2889 23.5518 13.3356 23.4867C15.5942 20.3403 19.9067 17.3899 23.5023 16.0218C24.8321 15.5159 26.2404 15.1659 27.6436 14.9377Z" fill="#FEF1C1"/>
<path d="M27.6501 13.1201L27.6682 13.1337C21.2251 14.6303 14.7862 18.652 10.9427 24.0738C7.35015 29.1418 5.56916 35.7984 6.54184 41.9693C6.7184 43.0769 6.96824 44.1678 7.29139 45.2418C7.44285 45.7489 7.70458 46.2926 7.79203 46.8077L7.75066 46.7452C7.54135 46.3432 7.38397 45.8906 7.23076 45.464C7.05978 44.9916 6.9061 44.5136 6.76972 44.03C6.63334 43.5465 6.51461 43.0586 6.41354 42.5664C6.31247 42.0743 6.22931 41.5792 6.16409 41.081C6.09886 40.5828 6.05172 40.0829 6.02267 39.5814C5.64918 32.9679 8.17702 26.3918 12.5633 21.4865C12.6658 21.3719 12.7693 21.2583 12.8738 21.1455C12.9783 21.0327 13.0838 20.9209 13.1902 20.81C13.2967 20.699 13.4041 20.589 13.5124 20.48C13.6208 20.3709 13.7301 20.2628 13.8404 20.1557C13.9506 20.0485 14.0618 19.9423 14.1739 19.8371C14.286 19.7319 14.399 19.6276 14.5129 19.5244C14.6268 19.4212 14.7416 19.3189 14.8573 19.2177C14.973 19.1164 15.0896 19.0162 15.207 18.917C15.3245 18.8178 15.4428 18.7196 15.5619 18.6225C15.6811 18.5253 15.8011 18.4292 15.9219 18.3341C16.0428 18.239 16.1644 18.1451 16.2869 18.0521C16.4094 17.9592 16.5326 17.8673 16.6567 17.7765C16.7808 17.6857 16.9056 17.5961 17.0312 17.5075C17.1569 17.4188 17.2833 17.3313 17.4105 17.2449C17.5376 17.1585 17.6656 17.0732 17.7942 16.989C17.9229 16.9049 18.0522 16.8218 18.1823 16.7399C18.3124 16.658 18.4432 16.5771 18.5747 16.4975C18.7062 16.4178 18.8384 16.3393 18.9712 16.262C19.1041 16.1846 19.2376 16.1085 19.3719 16.0335C19.5061 15.9585 19.6409 15.8846 19.7764 15.812C19.9119 15.7393 20.048 15.6679 20.1848 15.5975C20.3215 15.5273 20.4588 15.4582 20.5967 15.3903C20.7347 15.3224 20.8732 15.2557 21.0123 15.1902C21.1514 15.1247 21.2911 15.0605 21.4313 14.9974C21.5715 14.9344 21.7123 14.8725 21.8536 14.8119C21.9949 14.7513 22.1367 14.692 22.279 14.6339C22.4213 14.5757 22.5642 14.5189 22.7075 14.4632C22.8508 14.4076 22.9946 14.3532 23.1389 14.3001C23.2832 14.247 23.4279 14.1951 23.573 14.1445C23.7182 14.0939 23.8639 14.0446 24.0099 13.9965C24.156 13.9485 24.3024 13.9017 24.4492 13.8561C24.5961 13.8107 24.7433 13.7664 24.8909 13.7235C25.7397 13.4799 26.7712 13.17 27.6501 13.1201Z" fill="#FEF1C1"/>
<path d="M15.9947 46.3867L16.1904 46.9949C13.3758 48.3546 9.1338 50.6224 8.04395 53.7726C7.73368 54.6694 7.71811 55.571 8.14778 56.4323C9.01005 58.1607 11.0613 59.0008 12.8 59.5693C15.4675 60.4416 18.26 60.9223 20.979 61.6028C24.3275 62.441 27.6076 63.5539 31.0192 64.1207C31.4803 64.1973 32.05 64.3312 32.5114 64.2788C32.9081 64.4515 33.3457 64.634 33.7143 64.8584C32.7747 65.0695 30.0483 64.6228 29.0313 64.4234C26.5527 63.9373 24.1254 63.1116 21.6738 62.4967C19.985 62.0734 18.2925 61.6655 16.5963 61.273C14.7393 60.8335 12.8972 60.4233 11.1382 59.6633C9.63309 59.0129 8.01708 58.0134 7.3958 56.4157C6.97362 55.33 7.09698 54.1864 7.56535 53.139C8.86872 50.2243 13.0778 47.512 15.9947 46.3867Z" fill="#4FDB40"/>
<path d="M32.5114 64.278C32.05 64.3305 31.4803 64.1965 31.0192 64.1199C27.6076 63.5531 24.3275 62.4402 20.979 61.602C18.26 60.9215 15.4675 60.4408 12.8 59.5685C11.0613 59 9.01003 58.1599 8.14777 56.4315C7.7181 55.5702 7.73367 54.6686 8.04394 53.7718C9.13378 50.6216 13.3758 48.3538 16.1904 46.9941C16.5664 48.02 16.9513 49.0333 17.45 50.0072C19.0041 53.0428 21.2463 55.7365 23.7061 58.0768C24.1064 58.4577 24.5035 58.8672 24.9277 59.2202C23.0303 59.0458 20.8726 58.5859 18.9914 58.1887C18.3904 58.0619 17.709 57.9765 17.1275 57.788L17.1403 57.8205C17.7478 58.0519 18.4404 58.1995 19.0715 58.3545C20.4524 58.6949 21.8418 58.9956 23.2398 59.2566C23.8703 59.3766 24.5736 59.4213 25.1815 59.6159C25.7236 59.7894 26.6687 60.6636 27.1639 61.0319C27.7365 61.4525 28.3175 61.8611 28.907 62.2578C29.7156 62.7923 30.5809 63.2609 31.4353 63.7175C31.7856 63.9047 32.1785 64.0652 32.5114 64.278Z" fill="#2D2D2D"/>
<path d="M65.4778 41.4532C65.5771 40.9748 65.6047 40.5011 65.7362 40.0208C66.0643 38.823 66.6426 37.7675 67.2195 36.6789C67.3763 36.3831 67.5098 36.0528 67.7033 35.7803L67.7479 35.7871C67.5976 36.3416 67.4087 36.8934 67.2828 37.4532C67.1533 37.8537 67.0524 38.2496 67.0269 38.6715C66.9881 40.1521 67.5771 41.27 68.5856 42.3256C69.3481 43.1236 70.2284 43.7814 71.0586 44.5039C72.9178 46.1221 74.1428 48.0721 74.0981 50.605C74.0963 50.6809 74.0936 50.7568 74.0899 50.8326C74.0862 50.9084 74.0816 50.9842 74.076 51.0599C74.0705 51.1356 74.064 51.2112 74.0567 51.2868C74.0493 51.3623 74.0409 51.4377 74.0317 51.5131C74.0224 51.5884 74.0123 51.6637 74.0012 51.7387C73.9902 51.8138 73.9782 51.8888 73.9653 51.9636C73.9523 52.0384 73.9385 52.113 73.9238 52.1875C73.909 52.2619 73.8934 52.3362 73.8769 52.4103C73.8603 52.4844 73.8429 52.5583 73.8246 52.6319C73.8062 52.7056 73.7869 52.779 73.7667 52.8521C73.7466 52.9253 73.7256 52.9983 73.7036 53.071C73.6817 53.1436 73.6589 53.216 73.6352 53.2881C73.6115 53.3602 73.5869 53.432 73.5614 53.5036C73.536 53.5751 73.5097 53.6463 73.4824 53.7171C73.4553 53.788 73.4272 53.8585 73.3983 53.9287C73.3694 53.9989 73.3396 54.0687 73.309 54.1382C73.2783 54.2076 73.2468 54.2767 73.2146 54.3454C73.1822 54.4141 73.1491 54.4823 73.1151 54.5502C73.0811 54.6181 73.0463 54.6855 73.0106 54.7525C72.975 54.8196 72.9386 54.8861 72.9013 54.9522C72.864 55.0184 72.826 55.084 72.787 55.1493C72.7482 55.2145 72.7085 55.2792 72.6681 55.3434C72.6277 55.4076 72.5864 55.4713 72.5444 55.5346C72.5024 55.5978 72.4596 55.6605 72.416 55.7226C72.3725 55.7848 72.3282 55.8464 72.2831 55.9075C72.2381 55.9686 72.1923 56.0292 72.1458 56.0892C72.0992 56.1491 72.052 56.2085 72.004 56.2673C71.956 56.3262 71.9073 56.3844 71.8579 56.442C71.8085 56.4996 71.7584 56.5566 71.7076 56.613C71.6568 56.6694 71.6053 56.7252 71.5531 56.7804C71.501 56.8355 71.4481 56.89 71.3946 56.9439C71.3411 56.9977 71.287 57.0508 71.2322 57.1034C70.6077 57.7006 69.9218 58.244 69.1461 58.631C68.2651 59.0704 67.283 59.3492 66.3537 59.673C65.2503 60.0693 64.1527 60.4808 63.0608 60.9078C61.8503 61.3848 60.6594 61.9189 59.4592 62.4219C57.82 63.1047 56.1674 63.7533 54.5014 64.3677C52.7901 65.0051 51.0872 65.6229 49.3147 66.0731C48.7612 66.215 48.2036 66.3382 47.6418 66.4427C47.08 66.5472 46.5154 66.6329 45.9478 66.6996C45.3803 66.7662 44.8112 66.8139 44.2406 66.8425C43.6699 66.871 43.0989 66.8804 42.5275 66.8707C41.7628 66.8514 41.0107 66.7971 40.2526 66.6939C39.8163 66.6345 39.1898 66.4617 38.7671 66.4823C38.3199 66.5042 37.8328 66.6929 37.4014 66.8106C36.6607 67.0126 35.9152 67.2096 35.1555 67.3269C32.4328 67.7476 29.8353 66.9488 27.2911 66.0563C26.4827 65.7727 25.6619 65.5016 24.8683 65.1788C25.7149 65.3343 26.5483 65.6026 27.3753 65.8392C30.6295 66.77 32.6788 67.5664 36.1565 66.7314C36.7385 66.5917 37.3388 66.4561 37.9021 66.2527C37.1845 66.0839 36.476 65.883 35.7766 65.65C35.0772 65.4171 34.3897 65.153 33.7142 64.8578C33.3456 64.6333 32.908 64.4508 32.5113 64.2782C32.1785 64.0653 31.7855 63.9048 31.4353 63.7176C30.5808 63.2611 29.7155 62.7925 28.9069 62.2579C28.3174 61.8613 27.7364 61.4526 27.1638 61.032C26.6686 60.6637 25.7235 59.7896 25.1814 59.6161C24.5735 59.4214 23.8703 59.3768 23.2397 59.2567C21.8417 58.9957 20.4523 58.695 19.0714 58.3546C18.4403 58.1996 17.7477 58.052 17.1403 57.8207L17.1274 57.7881C17.7089 57.9766 18.3903 58.062 18.9913 58.1889C20.8725 58.5861 23.0302 59.0459 24.9276 59.2203C25.2506 59.2408 25.6924 59.479 26.01 59.5851C26.6237 59.7864 27.2392 59.9817 27.8567 60.1708C29.8189 60.7647 31.8521 61.2141 33.8989 61.3708C37.3257 61.6332 41.1408 60.2634 44.1771 58.7726C45.0228 58.3573 46.3679 57.511 47.2592 57.3569L47.3156 57.3475L47.3503 57.3606C47.4296 57.3061 47.4995 57.2457 47.5981 57.2362C47.6592 57.3391 47.6333 57.5393 47.6359 57.6621C47.8599 57.7825 48.0771 57.8523 48.3244 57.9031C48.4372 58.9989 48.8646 59.9586 49.6435 60.7455C50.174 61.2815 50.9032 61.7214 51.6815 61.7015C52.2228 61.6877 53.7213 61.069 54.1894 60.7502C54.3691 60.6278 54.5134 60.4716 54.6616 60.3142C55.4275 60.4942 56.1765 60.8583 56.9017 61.1622C58.2714 60.5949 59.5999 59.9568 60.9564 59.3632C62.2807 58.7839 63.6239 58.2468 64.9503 57.67L67.2645 56.6798C67.761 56.4689 68.2914 56.2798 68.7526 55.9996C68.8828 55.5168 68.7487 53.8914 68.7299 53.2804L68.636 49.8064C68.3146 49.4182 67.9145 48.8296 67.7092 48.3703C67.54 47.9917 67.4325 47.5736 67.3068 47.178L66.6479 45.1064C66.2605 43.9003 65.7608 42.6849 65.4778 41.4532Z" fill="white"/>
<path d="M53.6415 21.2177C53.6626 21.2135 53.6839 21.2097 53.7051 21.2052C54.0368 21.1343 54.4259 20.9081 54.7374 20.7663C55.2109 20.5478 55.6888 20.3393 56.1711 20.1408C59.5658 18.7322 63.3551 17.779 66.7327 19.8494C68.6701 21.037 69.479 22.5573 70.0526 24.678C71.4529 24.857 72.9479 25.1784 73.8529 26.3649C74.4458 27.1423 74.5828 28.0778 74.4509 29.0275C73.9559 32.5944 69.6633 36.4502 67.0268 38.672C67.0522 38.2502 67.1532 37.8542 67.2827 37.4537C67.4086 36.8939 67.5975 36.3421 67.7478 35.7876L67.7032 35.7808C67.5097 36.0533 67.3762 36.3836 67.2194 36.6794C66.6425 37.768 66.0642 38.8235 65.7361 40.0213C65.6046 40.5016 65.5769 40.9753 65.4777 41.4537C65.3279 41.0855 65.2526 40.6691 65.0679 40.3177C64.9716 40.1345 64.8376 40.0398 64.6633 39.9355C64.2469 39.6862 63.784 39.4938 63.3434 39.2905L61.2899 38.3472L59.2324 37.4109C58.8024 37.2166 58.3724 36.9987 57.9219 36.8562C56.9765 37.1333 55.7937 37.7171 54.8551 38.1066L55.4304 32.076C55.5748 30.5656 55.7352 29.0543 55.8321 27.54L55.8337 27.1116C55.7548 27.021 55.6772 26.9716 55.5705 26.9166C54.658 26.4454 53.6758 26.077 52.7288 25.6794C51.2511 25.0587 49.7594 24.4206 48.3101 23.7381C49.0236 23.4558 49.7223 23.1046 50.42 22.7836C51.5011 22.2861 52.5996 21.7938 53.6415 21.2177Z" fill="#4FDB40"/>
<path d="M55.8336 27.1111C56.4623 27.0862 57.6017 26.7723 58.2502 26.633C62.0347 25.8204 66.1223 24.186 70.0371 24.7054C70.0569 24.8303 70.0969 24.9556 70.033 25.0722C69.8833 25.141 69.6638 25.0678 69.4958 25.0707C69.1885 25.0005 68.8131 25.0224 68.4966 25.0255C66.0764 25.0492 63.7451 25.6995 61.4181 26.2956C60.2611 26.5907 59.0986 26.8627 57.9307 27.1115C57.3727 27.2322 56.3721 27.556 55.832 27.5395L55.8336 27.1111Z" fill="white"/>
<path d="M70.1237 25.5157L70.1536 25.324C70.2554 25.2547 70.3433 25.2574 70.463 25.2839C71.4952 25.5133 72.8605 25.9861 73.4265 26.9434C73.8774 27.706 73.859 28.6409 73.6393 29.4738C72.9629 32.0375 70.4616 34.549 68.5854 36.3379C68.3197 36.5911 67.6358 37.323 67.3391 37.4424C67.3214 37.4496 67.3015 37.4498 67.2827 37.4536C67.4086 36.8938 67.5975 36.342 67.7478 35.7875C67.9904 35.2613 68.1554 34.6504 68.3547 34.1033C69.2411 31.6692 70.0208 29.239 70.1549 26.6338C70.1722 26.2989 70.2227 25.8328 70.1237 25.5157Z" fill="#2D2D2D"/>
<path d="M15.2413 42.1727C14.9223 42.1089 14.5954 42.0063 14.2998 41.87C13.7511 41.617 13.2735 41.1943 12.8158 40.8052C11.2376 39.4639 9.90951 37.9991 9.19006 36.0145C8.33545 33.6572 8.446 30.717 9.51655 28.4446C10.1581 27.0827 11.0578 25.8938 12.2387 24.9551C16.5121 21.558 21.3451 24.0027 25.6097 20.8399C28.6751 18.5664 29.3072 14.599 33.3865 13.1356C36.6887 11.9509 40.1048 13.1149 42.9586 14.8712C44.2644 15.6748 45.491 16.6144 46.7559 17.4807C48.3378 18.5641 49.9875 19.6003 51.7198 20.4243C51.8209 20.4738 51.9147 20.5159 52.0239 20.5462C52.5568 20.7783 53.0904 21.0326 53.6416 21.217C52.5998 21.7931 51.5013 22.2854 50.4201 22.7829C49.7225 23.1039 49.0237 23.4551 48.3102 23.7374C46.3679 22.9013 44.446 22.0093 42.5107 21.1561C41.7469 20.8195 40.7724 20.3188 39.995 20.0724C39.232 20.3424 38.4869 20.6802 37.7355 20.9826C35.5465 21.8837 33.364 22.8001 31.188 23.7318L25.3062 26.2216C24.4192 26.5973 23.5194 26.9525 22.643 27.3513C22.4413 27.443 22.1012 27.5707 21.9617 27.745C21.8532 28.3437 21.8719 29.0077 21.8434 29.6173L21.6805 33.3134C19.9318 33.4402 18.2971 33.9816 17.1158 35.344C15.6215 37.0672 15.1417 39.9331 15.2413 42.1727Z" fill="white"/>
<path d="M21.6802 33.3143L21.8432 29.6182C21.8717 29.0086 21.853 28.3446 21.9615 27.7459C22.1009 27.5716 22.4411 27.4439 22.6427 27.3521C23.5191 26.9534 24.419 26.5982 25.3059 26.2225L31.1877 23.7327C33.3638 22.8011 35.5463 21.8847 37.7352 20.9835C38.4866 20.6811 39.2318 20.3433 39.9948 20.0732C40.7722 20.3197 41.7467 20.8203 42.5105 21.157C44.4458 22.0102 46.3677 22.9022 48.31 23.7383C49.7593 24.4208 51.251 25.0589 52.7288 25.6796C53.6758 26.0772 54.658 26.4456 55.5705 26.9168C55.6771 26.9718 55.7548 27.0212 55.8336 27.1118L55.832 27.5402C55.7352 29.0545 55.5748 30.5658 55.4304 32.0762L54.8551 38.1068C55.7936 37.7173 56.9764 37.1335 57.9218 36.8564C58.3723 36.9989 58.8023 37.2168 59.2323 37.4111L61.2898 38.3474L63.3434 39.2907C63.7839 39.494 64.2469 39.6864 64.6633 39.9357C64.8375 40.04 64.9716 40.1346 65.0679 40.3179C65.2525 40.6693 65.3279 41.0857 65.4777 41.4539C65.7606 42.6856 66.2603 43.901 66.6477 45.1071L67.3066 47.1787C67.4323 47.5743 67.5398 47.9924 67.709 48.3711C67.9143 48.8303 68.3145 49.4189 68.6358 49.8071L68.7297 53.2811C68.7485 53.8921 68.8827 55.5175 68.7524 56.0004C68.2912 56.2805 67.7609 56.4696 67.2644 56.6805L64.9502 57.6707C63.6237 58.2475 62.2805 58.7846 60.9562 59.3639C59.5997 59.9575 58.2712 60.5956 56.9016 61.1629C56.1763 60.859 55.4273 60.4949 54.6614 60.3149C54.5132 60.4723 54.3689 60.6285 54.1892 60.7509C53.7212 61.0697 52.2227 61.6884 51.6813 61.7022C50.903 61.7221 50.1738 61.2822 49.6434 60.7462C48.8645 59.9593 48.437 58.9996 48.3242 57.9038C48.077 57.853 47.8597 57.7832 47.6357 57.6628C47.6331 57.54 47.6591 57.3398 47.598 57.2369C47.4993 57.2464 47.4294 57.3068 47.3502 57.3613L47.3155 57.3482L47.259 57.3576C46.3677 57.5117 45.0227 58.358 44.1769 58.7733C41.1406 60.2641 37.3255 61.6339 33.8988 61.3715C31.8519 61.2148 29.8188 60.7654 27.8566 60.1715C27.2391 59.9824 26.6235 59.7871 26.0098 59.5858C25.6922 59.4797 25.2504 59.2415 24.9274 59.221C24.5032 58.868 24.1062 58.4585 23.7059 58.0776C21.246 55.7373 19.0038 53.0436 17.4497 50.008C16.951 49.0341 16.5662 48.0208 16.1902 46.995L15.9945 46.3868C15.7059 45.4774 15.498 44.5057 15.383 43.5586C15.3271 43.0984 15.3123 42.6314 15.2411 42.1736C15.1415 39.934 15.6213 37.0681 17.1155 35.3449C18.2969 33.9825 19.9316 33.4411 21.6802 33.3143Z" fill="#2D2D2D"/>
<path d="M30.5836 48.958C30.8505 49.0889 31.1026 49.2321 31.3551 49.3889L30.8107 49.627L30.2241 49.8919C30.3612 49.5867 30.4715 49.2729 30.5836 48.958Z" fill="#F2C94C"/>
<path d="M36.4319 52C36.8527 52.1472 37.2706 52.3773 37.6718 52.5734C37.4631 52.6844 37.2376 52.7646 37.0183 52.8522C36.6878 52.9878 36.3541 53.1147 36.0171 53.2327C36.1974 52.8327 36.3189 52.4228 36.4319 52Z" fill="#F2C94C"/>
<path d="M62.0674 41.8096C62.9155 41.3871 63.817 41.0644 64.6897 40.6963L64.8811 41.2753C64.265 41.5168 63.6375 41.8115 63.0082 42.0113C62.7134 41.8907 62.3734 41.9082 62.0674 41.8096Z" fill="#4FDB40"/>
<path d="M37.7837 35.1357C37.7985 36.2323 37.8282 37.3335 37.807 38.43C37.5405 38.3506 37.2858 38.2379 37.0293 38.1311C37.0547 37.2156 37.0917 36.3005 37.1403 35.3859C37.3595 35.3168 37.5712 35.2229 37.7837 35.1357Z" fill="white"/>
<path d="M32.8346 50.127C33.4397 50.4367 34.0424 50.7509 34.6429 51.0695C34.5843 51.3702 34.5109 51.6212 34.3535 51.886C34.312 51.9226 34.2695 51.9584 34.224 51.9898C34.0806 52.0887 33.864 52.1213 33.6953 52.0815C33.4265 52.018 33.2171 51.7689 33.0805 51.5434C32.8181 51.1102 32.7173 50.6207 32.8346 50.127Z" fill="#F2C94C"/>
<path d="M55.4012 58.1797C55.8411 58.3293 56.263 58.4998 56.6745 58.7164C56.6856 59.3097 56.6741 59.9048 56.672 60.4983C56.2355 60.3626 55.8015 60.1671 55.375 60.0005L55.4012 58.1797Z" fill="white"/>
<path d="M26.0969 46.6895C26.6091 46.9355 27.1389 47.1645 27.5972 47.5045C27.6399 47.9817 27.6745 48.4574 27.3738 48.861C27.3337 48.8877 27.3406 48.8844 27.2892 48.9111C27.1042 49.0071 26.8968 49.0241 26.7 48.9519C26.4434 48.8577 26.2702 48.5855 26.1632 48.3484C25.927 47.8252 25.8918 47.2266 26.0969 46.6895Z" fill="#F2C94C"/>
<path d="M68.1526 54.1797L68.2087 54.1973C68.307 54.6191 68.2446 55.2752 68.248 55.7237C67.4627 56.025 66.6991 56.3814 65.9143 56.6855C65.847 56.5938 65.8676 55.3752 65.8574 55.1481C66.6124 54.8066 67.3913 54.5087 68.1526 54.1797Z" fill="white"/>
<path d="M65.3015 55.9355C65.3539 55.9425 65.3263 55.9327 65.3787 55.9775C65.4055 56.2847 65.3654 56.6067 65.3462 56.9145L61.3251 58.6292C61.2007 58.4688 61.2438 57.8784 61.2382 57.6576C62.598 57.0961 63.9524 56.5221 65.3015 55.9355Z" fill="white"/>
<path d="M62.0677 41.8096C62.3738 41.9082 62.7138 41.8907 63.0086 42.0113C61.8519 42.5332 60.6501 42.9918 59.4739 43.4693L55.1838 45.2207L55.0703 44.7209L62.0677 41.8096Z" fill="#FEF1C1"/>
<path d="M31.8565 49.6318C32.0653 49.7314 32.2686 49.8484 32.4723 49.9582C32.4128 50.5745 32.4371 51.1185 32.7332 51.6759C32.9315 52.0495 33.2543 52.4043 33.6746 52.5199C33.9055 52.5834 34.1427 52.558 34.3471 52.4304C34.7741 52.1637 34.8884 51.6913 34.9807 51.2327C35.1913 51.3405 35.3986 51.4564 35.607 51.5685C35.5885 51.7782 35.5407 51.9785 35.4936 52.183C35.3997 52.5902 35.1968 53.0314 34.8598 53.2901C34.6114 53.4808 34.3127 53.5493 34.0041 53.5046C33.3789 53.4141 32.8373 52.95 32.4822 52.449C31.9139 51.6471 31.696 50.596 31.8565 49.6318Z" fill="#F2C94C"/>
<path d="M25.142 46.1729L25.761 46.49C25.7413 46.5467 25.7226 46.6028 25.7061 46.6605C25.5165 47.3257 25.562 48.068 25.9196 48.6717C26.1768 49.1058 26.5155 49.3136 26.9905 49.4337C27.2345 49.3785 27.4549 49.3033 27.6353 49.1213C28.0172 48.7359 27.9713 48.1399 27.9687 47.6393C28.1899 47.7521 28.3988 47.8789 28.6093 48.0105C28.6311 48.2375 28.6263 48.4656 28.6267 48.6933L28.6056 48.8711C28.5406 49.4033 28.4174 49.9885 27.9586 50.3276C27.7133 50.5089 27.421 50.5575 27.1246 50.4997C26.5026 50.3785 25.9619 49.8904 25.6181 49.3779C24.9524 48.3851 24.9253 47.3082 25.142 46.1729Z" fill="#F2C94C"/>
<path d="M53.6011 26.5771C54.0566 26.7821 54.5119 26.994 54.9799 27.1688C54.0388 27.5723 46.9436 30.7129 46.5192 30.7111L46.4023 30.655C47.2967 30.3327 48.1348 29.6872 48.9615 29.2144L51.5712 27.7225C52.2482 27.343 52.9392 26.9824 53.6011 26.5771Z" fill="#4FDB40"/>
<path d="M60.7691 57.2646L60.8287 57.285C60.8493 57.7909 60.8967 58.2942 60.9708 58.795C59.7827 59.3457 58.5774 59.8579 57.3823 60.3934L57.2458 60.4393L57.1938 60.4054C57.1502 59.8977 57.2 59.3563 57.2136 58.8457C58.3904 58.2982 59.597 57.8224 60.7691 57.2646Z" fill="white"/>
<path d="M48.5631 43.5205C49.7939 44.1166 51.0888 44.5801 52.3181 45.1822C51.9306 45.3776 51.498 45.5112 51.0914 45.6636L48.3989 46.6805C48.4592 45.6272 48.4895 44.5731 48.5631 43.5205Z" fill="#F2C94C"/>
<path d="M46.6539 47.7305L46.6831 47.74C46.7855 47.9324 46.6345 50.7428 46.618 51.2126L43.8423 50.0344C43.4014 49.8559 42.9585 49.6824 42.5137 49.5138C43.8887 48.9143 45.292 48.3554 46.6539 47.7305Z" fill="#F2C94C"/>
<path d="M41.8792 49.8008C42.2488 49.8639 42.7896 50.1535 43.1471 50.2997C44.2989 50.7692 45.4482 51.2449 46.5949 51.727C46.5889 52.4459 46.5498 53.1665 46.523 53.8851C46.1581 53.6762 45.7872 53.4825 45.413 53.2909C43.6158 52.354 41.7451 51.5504 39.9263 50.6567C40.5681 50.3502 41.2241 50.0772 41.8792 49.8008Z" fill="#F2C94C"/>
<path d="M37.0293 38.1309C37.2858 38.2376 37.5405 38.3503 37.8071 38.4297C37.8429 40.7543 37.7821 43.0953 37.7358 45.4198C37.7004 47.2027 37.733 49.5411 37.3667 51.2555C37.1699 51.3532 36.9142 51.5132 36.6948 51.531C36.6102 51.5379 36.599 51.5285 36.5376 51.4776C36.4694 51.0699 36.534 50.5757 36.547 50.1606L36.644 47.3639C36.767 44.2893 36.8433 41.2012 37.0293 38.1309Z" fill="#F2C94C"/>
<path d="M67.2139 48.749C67.4283 48.8223 67.7865 49.56 67.9193 49.7818L57.3807 54.0596C57.3064 54.0819 57.2941 54.0834 57.2223 54.0725C56.996 53.8068 56.881 53.3506 56.7598 53.0213C57.9427 52.506 59.1659 52.0571 60.3618 51.57C62.6508 50.6417 64.9348 49.7013 67.2139 48.749Z" fill="#F2C94C"/>
<path d="M50.2254 55.7865C50.6139 55.773 50.9281 55.8603 51.2465 56.0881C51.9699 56.606 52.3777 57.5895 52.5019 58.4441C52.5999 59.118 52.5721 59.9304 52.1318 60.487C51.9025 60.7769 51.6367 60.9093 51.2768 60.9581C51.0041 60.9456 50.7648 60.8899 50.5213 60.7625C49.8208 60.3961 49.2841 59.6064 49.0493 58.867C48.8203 58.146 48.8404 57.2428 49.209 56.5692C49.4361 56.1542 49.7746 55.9093 50.2254 55.7865Z" fill="white"/>
<path d="M50.2805 56.4912C50.4476 56.4921 50.6048 56.5015 50.7642 56.5564C51.2354 56.7188 51.5602 57.156 51.7578 57.595C52.0133 58.1629 52.1657 58.9419 51.9234 59.5366C51.7798 59.8889 51.5611 60.0762 51.2151 60.2157C51.0025 60.2161 50.8256 60.1959 50.6319 60.1013C50.1305 59.8564 49.7913 59.3575 49.6112 58.8422C49.4174 58.2878 49.3679 57.5631 49.6428 57.0278C49.7856 56.7497 49.9839 56.5797 50.2805 56.4912Z" fill="#2D2D2D"/>
<path d="M50.2698 56.9136C50.3645 56.9067 50.4657 56.8966 50.5596 56.9138C50.8326 56.9638 51.083 57.2011 51.2403 57.417C51.5637 57.8609 51.7664 58.5052 51.668 59.0513C51.6105 59.3702 51.4757 59.5806 51.209 59.7602C51.1386 59.7682 51.0668 59.7767 50.9959 59.7754C50.7324 59.7707 50.465 59.5764 50.2982 59.3864C49.9368 58.9747 49.7394 58.3328 49.7963 57.7906C49.8369 57.4026 49.975 57.1604 50.2698 56.9136Z" fill="white"/>
<path d="M39.3205 50.9766C39.9499 51.1412 41.2225 51.8421 41.8886 52.1645C43.4159 52.9037 45.0288 53.5864 46.488 54.4513L46.4413 56.123L45.1456 55.5257C42.5339 54.2563 39.8919 53.0469 37.2695 51.7995C37.9558 51.5316 38.6395 51.2573 39.3205 50.9766Z" fill="#F2C94C"/>
<path d="M57.9149 37.4102C59.3497 37.9902 60.7531 38.6698 62.1584 39.3184C62.8496 39.6376 63.7135 39.9623 64.3548 40.3504C63.1114 40.7852 61.9341 41.3753 60.7075 41.8508C60.347 41.6186 59.7406 41.4922 59.3288 41.3564C57.2261 40.6466 55.0989 40.0199 52.9473 39.4763C53.5714 39.1327 54.3059 38.8891 54.9674 38.6149C55.9452 38.2097 56.9188 37.7673 57.9149 37.4102Z" fill="#4FDB40"/>
<path d="M52.8351 45.4678C53.0299 45.4895 53.258 45.6218 53.4399 45.6989L54.848 52.4573C53.8166 51.9463 52.7783 51.4497 51.733 50.9676C50.5763 50.4418 49.4091 49.9068 48.2793 49.3254C48.3266 48.6213 48.3442 47.914 48.3652 47.2086C49.2918 46.8712 50.2156 46.5263 51.1366 46.1739C51.7041 45.9572 52.3038 45.7636 52.8351 45.4678Z" fill="#F2C94C"/>
<path d="M52.9472 39.4766C55.0989 40.0202 57.2261 40.6469 59.3288 41.3567C59.7406 41.4925 60.3469 41.6189 60.7075 41.8511C58.7351 42.6909 56.7554 43.513 54.7684 44.3176C53.686 43.7604 52.5432 43.2949 51.4309 42.8002C50.3775 42.3316 49.3264 41.8184 48.249 41.4091C49.8279 40.8015 51.3766 40.1064 52.9472 39.4766Z" fill="#F2C94C"/>
<path d="M68.0536 50.2695L68.1217 50.2983C68.2108 50.6411 68.1544 51.1409 68.1592 51.5001C68.1665 52.2098 68.1842 52.9192 68.2123 53.6284C66.2027 54.3954 64.2261 55.2441 62.2399 56.0691L57.3536 58.07C57.3275 58.0803 57.279 58.083 57.2506 58.0873C57.1597 57.9086 57.2342 55.1475 57.2458 54.6637C58.8302 54.0809 60.3942 53.395 61.9548 52.7491L68.0536 50.2695Z" fill="white"/>
<path d="M58.8352 54.8509C59.0354 54.8345 59.2128 54.8274 59.3986 54.9169C59.5948 55.0114 59.7254 55.177 59.7854 55.385C59.8993 55.78 59.796 56.2386 59.5907 56.5858C59.3857 56.9325 59.1141 57.1576 58.7263 57.2629C58.5753 57.2688 58.4301 57.27 58.2843 57.2243C58.0872 57.1625 57.9178 57.0329 57.8275 56.8447C57.6836 56.5448 57.7265 56.1522 57.8368 55.8492C58.0171 55.3539 58.3686 55.0577 58.8352 54.8509Z" fill="#2D2D2D"/>
<path d="M58.8407 55.3491C58.915 55.3405 58.9827 55.3317 59.0571 55.3481C59.1534 55.3694 59.2476 55.4292 59.2978 55.5157C59.3774 55.6528 59.3592 55.8343 59.3215 55.9807C59.2292 56.3384 59.0516 56.5697 58.7398 56.7576C58.7142 56.7581 58.6887 56.7593 58.6631 56.7591C58.5202 56.758 58.3963 56.7288 58.3025 56.6115C58.2212 56.5097 58.2108 56.3814 58.2274 56.2572C58.2809 55.8589 58.5304 55.5758 58.8407 55.3491Z" fill="white"/>
<path d="M66.7863 51.4502C66.9879 51.4401 67.1384 51.4677 67.3208 51.56C67.5507 51.6765 67.699 51.8551 67.7762 52.1011C67.8943 52.4774 67.8287 52.881 67.6499 53.2267C67.4219 53.6678 67.1009 53.9235 66.638 54.0729C66.4415 54.0906 66.2711 54.0904 66.0861 54.0108C65.8627 53.9145 65.712 53.7461 65.6315 53.5177C65.4943 53.1281 65.5584 52.6725 65.7395 52.3083C65.966 51.853 66.3128 51.599 66.7863 51.4502Z" fill="#2D2D2D"/>
<path d="M66.6537 51.9593C66.7743 51.9424 66.9053 51.9349 67.0228 51.9716C67.1602 52.0144 67.2745 52.0998 67.3384 52.2309C67.4297 52.418 67.4058 52.6604 67.3426 52.8521C67.2284 53.1978 67.0305 53.4125 66.7096 53.5718C66.6076 53.5798 66.5074 53.5867 66.4066 53.5652C66.2599 53.5337 66.1273 53.4535 66.0504 53.322C65.946 53.1432 65.9644 52.9046 66.02 52.7132C66.1262 52.3475 66.323 52.1324 66.6537 51.9593Z" fill="white"/>
<path d="M22.3921 28.1992C25.0836 29.4892 27.7176 30.9057 30.3902 32.2341C31.7408 32.8979 33.0864 33.5717 34.4269 34.2555C35.15 34.6218 35.9043 34.9606 36.5962 35.3824C36.5677 36.2617 36.5304 37.1406 36.4844 38.0191C36.1014 37.801 35.6596 37.6524 35.2512 37.4868L33.1248 36.6267C30.8067 35.6852 28.4697 34.5923 26.05 33.9437C24.7758 33.6023 23.4951 33.4084 22.1851 33.2747C22.2533 31.5835 22.3768 29.8919 22.3921 28.1992Z" fill="white"/>
<path d="M47.5299 41.6953C48.2928 41.9166 49.0578 42.3183 49.7889 42.6325C50.8625 43.0939 51.9215 43.5857 52.9911 44.0558C53.508 44.283 54.0358 44.4845 54.5508 44.7161C54.7471 45.5062 54.8641 46.3314 55.0251 47.1314C55.4222 49.1067 55.8101 51.0867 56.2372 53.0556C55.9626 52.9138 55.6681 52.7991 55.3849 52.6747C55.2152 51.3896 54.8631 50.1047 54.5994 48.8338C54.3612 47.6863 54.1951 46.4795 53.8739 45.3545C53.4662 45.0624 52.9529 44.8821 52.4943 44.6826L50.3886 43.7735C49.8234 43.5279 49.2698 43.2284 48.6969 43.0053C48.5465 42.9467 48.3137 42.8509 48.1572 42.9182C47.9576 43.4515 47.9824 45.1855 47.9538 45.8688L47.7939 49.6395C48.5392 50.0882 49.3941 50.4313 50.1828 50.8046L55.1772 53.151C55.5827 53.3291 55.9857 53.5102 56.4076 53.6468C56.4969 53.8988 56.6689 54.1718 56.7253 54.4246C56.8347 54.9148 56.7599 57.4837 56.723 58.1312C56.17 57.9024 55.603 57.6102 55.0359 57.4297C54.8688 57.6957 54.9219 59.3923 54.9011 59.8266C54.439 59.6629 53.9738 59.4729 53.5301 59.2648C53.3724 57.8237 53.1444 56.3787 52.3012 55.1567C51.8376 54.4848 51.1702 53.8553 50.3361 53.7167C49.7973 53.6273 49.274 53.7725 48.8398 54.0987C48.0639 54.6814 47.7603 55.6255 47.6312 56.5474C47.4026 56.6089 47.1649 56.6504 46.9331 56.6993C47.0187 53.1054 47.1367 49.5127 47.2871 45.9209C47.3564 44.5195 47.3582 43.0879 47.5299 41.6953Z" fill="#F2C94C"/>
<path d="M64.9055 41.7568L65.0152 41.7641C65.6823 43.9327 66.3791 46.0916 67.1058 48.241C66.1131 48.6848 65.1011 49.0707 64.0969 49.4859C61.839 50.4296 59.5717 51.3501 57.2948 52.2471L56.6616 52.515C56.4736 51.7734 56.3561 51.0132 56.2046 50.2635L55.2715 45.724C56.2323 45.2858 57.2349 44.9246 58.2125 44.523L64.9055 41.7568Z" fill="white"/>
<path d="M55.2196 27.6162L55.2667 27.6214C55.2786 27.6396 55.2957 27.6554 55.3023 27.6761C55.3391 27.7914 54.3998 37.5258 54.3308 38.3492C52.7527 38.9857 51.182 39.6398 49.6186 40.3116C48.9408 40.5967 48.2262 40.8429 47.5623 41.1559C47.4121 41.2267 47.2454 41.3144 47.1222 41.4266C47.0499 41.4925 47.0443 41.5974 47.0317 41.6894C46.9601 42.2148 46.9639 42.7715 46.9352 43.3018L46.7513 47.1489C46.473 47.2488 46.2012 47.384 45.9305 47.5038L45.8986 47.492C45.8073 47.2811 46.5796 32.8983 46.6801 31.2502L55.2196 27.6162Z" fill="#4FDB40"/>
<path d="M40.0194 20.6025C44.5334 22.6243 49.0607 24.6159 53.6012 26.5774C52.9394 26.9826 52.2484 27.3432 51.5714 27.7227L48.9616 29.2146C48.135 29.6874 47.2969 30.3329 46.4025 30.6553C45.5355 30.2907 44.7002 29.8446 43.8502 29.4423C41.7835 28.4604 39.7241 27.4639 37.6718 26.4526C36.6199 25.9364 35.5637 25.429 34.5033 24.9305C33.7589 24.5762 32.9963 24.2311 32.2812 23.8204C33.1558 23.3553 34.4749 22.8745 35.4257 22.4782C36.9462 21.8443 38.4683 21.1551 40.0194 20.6025Z" fill="white"/>
<path d="M30.4817 24.5693C30.509 24.5851 30.5366 24.6006 30.5634 24.6174C30.9363 24.8499 31.3488 25.0304 31.7433 25.2246L33.6312 26.1523L40.3951 29.444C41.7428 30.091 43.408 30.8123 44.6686 31.5784L36.9695 34.9218C36.8881 34.924 36.8552 34.9059 36.784 34.87L28.4284 30.6422C26.551 29.7004 24.6512 28.79 22.7905 27.8165C23.9273 27.3031 25.0909 26.8453 26.2391 26.3575C27.6512 25.7575 29.0547 25.1333 30.4817 24.5693Z" fill="white"/>
<path d="M37.7838 35.1353C40.2125 34.1721 42.6028 33.0681 44.9879 32.001L44.4187 43.5037L44.2708 46.4074C44.2357 47.0025 44.1728 47.6065 44.1747 48.2025L40.2975 49.9336C39.3206 50.377 38.357 50.8417 37.3667 51.2553C37.733 49.5409 37.7004 47.2025 37.7358 45.4196C37.7821 43.0951 37.8429 40.7541 37.8071 38.4295C37.8283 37.333 37.7986 36.2318 37.7838 35.1353Z" fill="#4FDB40"/>
<path d="M22.1853 33.2744C23.4953 33.4082 24.7761 33.602 26.0502 33.9435C28.47 34.592 30.8069 35.6849 33.125 36.6264L35.2514 37.4865C35.6598 37.6521 36.1016 37.8007 36.4846 38.0189C36.3399 42.4113 36.1699 46.8027 35.9745 51.1932L21.7432 43.8698L22.0086 37.5591C22.0638 36.1318 22.096 34.6999 22.1853 33.2744Z" fill="#F2C94C"/>
<path d="M25.9269 34.895C26.1787 34.8733 26.4449 34.9018 26.6914 34.9569C27.4547 35.1276 28.1458 35.5823 28.5642 36.2469C28.9299 36.8279 29.0906 37.5436 28.9291 38.2187C28.6164 39.5262 27.2623 39.8582 26.2542 40.4929C26.9596 40.8657 27.7192 41.1786 28.4444 41.5145C28.4033 41.9723 28.3653 42.4279 28.3487 42.8875C28.0125 42.7183 27.6612 42.5709 27.3188 42.414C26.3135 41.9464 25.3137 41.4725 24.2915 41.042C24.3274 40.6557 24.3554 40.2692 24.3936 39.883C24.9389 39.3845 25.6778 39.0122 26.313 38.6363C26.5432 38.5 26.824 38.3705 27.0185 38.1882C27.1513 38.0638 27.2522 37.8968 27.3181 37.7282C27.4201 37.4678 27.4238 37.185 27.3068 36.929C27.1772 36.6454 26.9286 36.4492 26.6391 36.3447C26.2034 36.1873 25.8106 36.2381 25.4042 36.4393C25.2469 36.0108 25.0621 35.6173 24.8403 35.2179C25.2019 35.0613 25.5371 34.9542 25.9269 34.895Z" fill="#2D2D2D"/>
<path d="M32.0864 37.5293C32.4833 37.5995 33.2112 38.0246 33.5952 38.2166C33.4335 39.5832 33.3278 40.9598 33.2014 42.3303L33.7173 42.5728L33.6087 43.7942L33.0484 43.5511C33.0408 43.9858 33.0264 44.4203 33.005 44.8545C32.5273 44.5928 32.0382 44.3545 31.5376 44.1397L31.4486 44.0955C31.322 43.8527 31.4791 43.1078 31.5095 42.8185C30.6016 42.4061 29.691 41.9489 28.7598 41.5948C28.806 41.1516 28.826 40.7044 28.8545 40.2596C29.9323 39.3511 31.0287 38.461 32.0864 37.5293Z" fill="#2D2D2D"/>
<path d="M31.7111 39.9531C31.7868 40.4513 31.6679 41.0634 31.6207 41.5649L30.9641 41.2684L30.5381 41.0398C30.9146 40.6647 31.3194 40.3124 31.7111 39.9531Z" fill="#F2C94C"/>
<path d="M15.2411 42.1728C15.1415 39.9332 15.6213 37.0672 17.1155 35.344C18.2969 33.9817 19.9316 33.4402 21.6802 33.3135L21.3664 40.9955C21.3254 42.065 21.2441 43.1391 21.2286 44.2085C22.3731 44.6863 23.6009 45.3821 24.7172 45.9597C24.3761 47.0981 24.4288 48.2704 25.0007 49.3312C25.4178 50.1049 26.0988 50.8043 26.9602 51.0564C28.2378 51.4301 30.1049 50.366 31.3183 49.9632C31.3041 51.1968 31.6436 52.3893 32.5216 53.2921C33.0164 53.801 33.8546 54.2334 34.5752 54.2431C35.2905 54.2527 37.4838 53.1461 38.2986 52.8527C39.6435 53.4658 40.9683 54.13 42.3056 54.7607C43.6489 55.3941 45.0187 56.0002 46.3422 56.6729C46.4073 56.8572 46.4384 57.0258 46.6323 57.1135C46.8518 57.2127 47.1019 57.2389 47.3155 57.3473L47.259 57.3568C46.3677 57.5108 45.0227 58.3572 44.1769 58.7725C41.1406 60.2632 37.3255 61.633 33.8988 61.3707C31.8519 61.2139 29.8188 60.7646 27.8566 60.1707C27.2391 59.9815 26.6235 59.7863 26.0098 59.585C25.6922 59.4789 25.2504 59.2407 24.9274 59.2201C24.5032 58.8671 24.1062 58.4576 23.7059 58.0768C21.246 55.7364 19.0038 53.0428 17.4497 50.0071C16.951 49.0332 16.5662 48.02 16.1902 46.9941L15.9945 46.3859C15.7059 45.4765 15.498 44.5049 15.383 43.5577C15.3271 43.0975 15.3123 42.6305 15.2411 42.1728Z" fill="#F2C94C"/>
</g>
<defs>
<clipPath id="clip0_1096_35684">
<rect width="80" height="80" fill="white"/>
</clipPath>
</defs>
</svg>
