<svg width="80" height="80" viewBox="0 0 80 80" fill="none" xmlns="http://www.w3.org/2000/svg">
<g clip-path="url(#clip0_1114_54866)">
<path d="M38.2888 37.0742C38.4343 37.1919 38.5819 37.3066 38.7158 37.4374C38.5554 37.4927 38.3954 37.5516 38.233 37.6008L38.2026 37.5758C38.2022 37.4237 38.2703 37.2343 38.2888 37.0742Z" fill="white"/>
<path d="M35.5859 43.7891C35.7453 43.9903 35.9028 44.193 36.0583 44.3972C35.9391 44.4557 35.8233 44.5266 35.707 44.5909L35.5859 43.7891Z" fill="#F2C94C"/>
<path d="M64.5638 60.6699C64.6462 60.8279 64.7507 60.9878 64.7694 61.1674L64.7249 61.2322C64.5063 61.259 64.4589 61.1967 64.2854 61.0951C64.2728 61.0877 64.2579 61.0855 64.2441 61.0808C64.1807 60.9843 64.111 60.8878 64.0639 60.7821C64.0564 60.7652 64.0493 60.748 64.0421 60.7309L64.0361 60.7566L64.0589 60.7192L64.037 60.7598L64.0668 60.7189C64.1964 60.7365 64.3943 60.7436 64.5158 60.6923C64.5321 60.6855 64.5478 60.6773 64.5638 60.6699Z" fill="#4FDB40"/>
<path d="M24.7612 44.7171C25.3494 44.4254 25.8601 44.1174 26.4952 43.917C26.5461 44.0062 26.5804 44.0288 26.5648 44.1352L26.4314 44.2654C26.0009 44.4596 25.2398 44.5946 24.7612 44.7171Z" fill="#FADE95"/>
<path d="M26.9224 38.8164C27.4159 38.9782 27.915 39.1201 28.4197 39.2421C28.7241 39.3129 29.073 39.3403 29.3626 39.4439L29.3114 39.4927L28.6061 39.3643L28.5713 39.2872L28.5442 39.3773L28.4572 39.339L28.5559 39.3544L28.4736 39.352C28.7306 39.4506 29.2404 39.4302 29.4189 39.6188C28.6577 39.5623 27.7449 39.2811 27.0266 39.0263L27.0496 38.9631C27.0734 38.9705 27.0974 38.977 27.1209 38.9852C27.2043 39.0141 27.2831 39.0435 27.3683 39.0686C27.2366 38.9547 27.0035 38.9534 26.9224 38.8164Z" fill="#FADE95"/>
<path d="M26.4216 39.207C27.2806 39.5093 28.1662 39.7249 29.0513 39.9359C28.9697 39.9704 28.9728 39.9509 28.9341 40.0389C28.0099 39.9026 27.1129 39.6059 26.1724 39.4783C26.1809 39.4662 26.1874 39.4526 26.1979 39.4423C26.2861 39.356 26.3493 39.3123 26.4216 39.207Z" fill="#FADE95"/>
<path d="M33.8975 42.7089C34.1432 42.43 34.4244 42.1859 34.6993 41.9365L35.0461 43.3154C34.68 43.2326 34.2304 42.8991 33.8975 42.7089Z" fill="white"/>
<path d="M33.6991 42.2656C33.7208 42.2817 33.7094 42.2694 33.718 42.3122C32.7776 43.342 32.1093 44.636 31.9683 46.0343C31.9218 46.4959 31.9705 47.0007 31.87 47.4505C31.8676 47.4613 31.8648 47.4718 31.8623 47.4825C31.5116 46.5252 31.9176 44.2447 32.1651 43.2543C32.6326 42.88 33.1887 42.5803 33.6991 42.2656Z" fill="white"/>
<path d="M28.9344 40.0385C28.9731 39.9505 28.97 39.97 29.0516 39.9355C30.2778 40.1734 31.778 40.4231 33.0113 40.1155C32.4077 40.5177 31.8265 40.951 31.3041 41.4562C30.9655 41.7838 30.6627 42.1556 30.3095 42.4664C29.238 43.4095 27.7871 43.8918 26.4316 44.2655L26.5651 44.1354C26.5806 44.029 26.5463 44.0064 26.4955 43.9172C26.7409 43.8701 26.9977 43.7709 27.2362 43.6939C28.7441 43.207 29.7202 42.5463 30.8924 41.5111C31.2727 41.1752 31.6626 40.8399 32.0042 40.4642C30.9422 40.4845 29.96 40.288 28.9344 40.0385Z" fill="url(#paint0_linear_1114_54866)"/>
<path d="M27.208 31.8932L27.3464 31.876C28.5869 34.5319 30.4011 35.6426 32.9108 36.9014C33.4069 37.1504 34.2388 37.4843 34.6554 37.7976L34.6504 37.8458C34.6595 37.861 34.6689 37.8759 34.6777 37.8912C34.7132 37.9541 34.7043 37.9272 34.7084 37.9948C34.6668 38.0343 34.683 38.0347 34.6336 38.0343C34.5388 38.0335 34.4682 37.9879 34.3696 37.9886C34.3571 37.9852 34.3442 37.9826 34.3319 37.9783C33.9222 37.8361 33.5137 37.6063 33.1224 37.4169C31.4674 36.6163 29.6963 35.6825 28.5307 34.2199C27.9706 33.5172 27.6007 32.695 27.208 31.8932Z" fill="url(#paint1_linear_1114_54866)"/>
<path d="M33.9217 33.3896L34.0712 33.4237C34.8059 35.1511 35.9366 36.5582 36.9904 38.0902C36.763 38.1836 36.5349 38.2891 36.3035 38.3705L34.7073 39.1424C34.3798 39.3047 34.052 39.5043 33.7109 39.6351C32.868 39.9583 31.8627 39.9065 30.9782 39.8336C30.51 39.795 29.924 39.7846 29.4754 39.6412C29.456 39.635 29.4377 39.6261 29.4187 39.6186C29.2402 39.43 28.7304 39.4504 28.4734 39.3518L28.5557 39.3542L28.457 39.3388L28.5441 39.3771L28.5711 39.287L28.6059 39.3641L29.3112 39.4925L29.3624 39.4437C29.7516 39.4735 30.1367 39.5424 30.5283 39.5654C31.7681 39.6382 32.8753 39.3761 34.0519 39.0228C34.4905 38.8911 34.9723 38.7819 35.382 38.5756C35.0807 38.3404 34.7062 38.1687 34.3695 37.9884C34.468 37.9877 34.5386 38.0333 34.6334 38.0342C34.6828 38.0346 34.6666 38.0341 34.7082 37.9946C34.7041 37.9271 34.713 37.9539 34.6775 37.8911C34.6688 37.8757 34.6593 37.8608 34.6502 37.8457L34.6552 37.7975C35.0825 37.9788 35.8302 38.4912 36.278 38.3383C36.3435 38.0566 35.8798 37.536 35.7184 37.2928C34.894 36.0497 34.337 34.8188 33.9217 33.3896Z" fill="white"/>
<path d="M36.2705 40.9365C36.7649 41.1342 37.2481 41.3079 37.721 41.5589C39.0353 42.2561 40.2673 43.135 41.4966 43.9707C42.1935 44.4446 43.0505 44.9553 43.6404 45.5466C42.5628 44.934 41.5003 44.3831 40.3613 43.8928C39.0743 43.3886 36.6848 42.4675 35.3256 42.5182C35.2602 42.1986 35.2018 41.8777 35.1504 41.5555C36.0829 41.7757 37.141 42.4682 38.0062 42.6184C38.1103 42.6364 38.167 42.6522 38.2573 42.5893C38.2423 42.5034 38.198 42.4524 38.139 42.3912C37.5191 41.7485 36.4843 41.2705 35.5966 41.2611L36.2705 40.9365Z" fill="white"/>
<path d="M38.7461 39.9416C38.7828 39.9415 38.7931 39.9402 38.8327 39.9465C39.0676 39.9833 39.4231 40.3527 39.6118 40.5138C40.0328 40.8776 40.4433 41.2528 40.8433 41.6395C41.2432 42.0263 41.6321 42.4239 42.0098 42.8324C42.3874 43.241 42.7534 43.6597 43.1076 44.0887C43.4619 44.5178 43.8038 44.9564 44.1334 45.4046C42.8546 44.3395 41.3331 43.5127 39.9577 42.5729C38.9224 41.858 37.8645 41.2349 36.6992 40.7562C37.1285 40.5714 37.5633 40.4003 38.0035 40.243C38.7699 41.1387 39.6023 42.0977 40.7162 42.5614C40.8249 42.6067 40.9048 42.6257 41.0138 42.5792C40.9798 42.1479 38.7508 40.6297 38.6198 40.0598L38.7461 39.9416Z" fill="white"/>
<path d="M36.2354 44.6177C37.7868 44.1997 39.6653 44.548 41.0483 45.3389C43.1286 46.5287 44.7187 49.1843 45.3193 51.4503C46.375 55.4325 45.9165 59.438 44.7369 63.3287C44.546 63.9484 44.3363 64.5617 44.1076 65.1684C43.879 65.7752 43.6319 66.3744 43.3663 66.9659C43.1008 67.5574 42.8173 68.1403 42.5158 68.7144C42.2143 69.2884 41.8955 69.8527 41.5593 70.4071C41.4151 70.6501 41.1898 71.1566 40.9696 71.2965L40.8851 71.2637C40.8711 71.1748 40.8765 71.1392 40.9123 71.0529C41.0306 70.7679 41.2382 70.5027 41.3973 70.2384C41.6426 69.8309 41.8703 69.4094 42.0961 68.9908C43.0031 67.3089 43.8161 65.5398 44.3664 63.7066C44.6262 63.0591 44.7971 62.3278 44.9645 61.651C45.8462 58.0841 46.0511 53.8677 44.7236 50.3793C44.0207 48.532 42.4877 46.343 40.6383 45.5259C39.38 44.97 38.6274 45.148 37.4004 45.6227C37.0259 45.2704 36.6468 44.9266 36.2354 44.6177Z" fill="white"/>
<path d="M31.5693 43.6465C31.3962 44.513 31.2475 45.362 31.2533 46.2505C31.2581 47.0077 31.3879 47.7955 31.2499 48.5441C30.8512 48.8531 30.4538 48.9999 29.9516 49.0426L29.8891 49.0388C29.861 49.037 29.833 49.034 29.8049 49.0334C29.7435 49.0323 29.6923 49.0353 29.6323 49.021C29.0858 48.8905 28.0262 48.4472 27.7363 47.947C28.2153 47.2787 28.7466 46.6564 29.2768 46.0288C29.9865 45.1886 30.6902 44.3177 31.5693 43.6465Z" fill="#FADE95"/>
<path d="M61.1104 59.2139C60.9662 59.0972 60.8115 58.9847 60.6771 58.8571L60.6381 58.8523L60.6843 58.8328L60.6428 58.806C60.695 58.8368 60.7467 58.8686 60.7978 58.9014L60.8444 58.8805C61.4693 58.6066 62.277 58.5608 62.9222 58.8088C63.3832 58.9859 63.7625 59.3211 64.0347 59.7293C64.1409 59.88 64.2419 60.0263 64.3258 60.1913C64.4172 60.3474 64.4928 60.5033 64.5637 60.6697C64.5477 60.6771 64.532 60.6852 64.5158 60.6921C64.3943 60.7433 64.1964 60.7362 64.0667 60.7186L64.0369 60.7596L64.0589 60.719L64.0361 60.7563L64.042 60.7307C64.0493 60.7477 64.0563 60.7649 64.0639 60.7818C64.1109 60.8875 64.1807 60.984 64.244 61.0805L64.2196 61.1226L64.3751 61.2632C64.5268 61.3132 64.69 61.33 64.8475 61.3545C64.995 61.7168 65.0872 62.1063 65.2284 62.4736C64.1975 62.6995 62.8162 63.0377 61.8203 62.5796C61.1842 62.2869 60.6853 61.6883 60.4482 61.0353C60.2143 60.3915 60.3369 59.8654 60.6129 59.2684C60.7311 59.3611 60.8361 59.46 60.9427 59.5658C60.8525 60.2655 60.952 60.7524 61.3442 61.3403C61.1918 60.7353 61.14 60.3159 61.075 59.6993C61.3025 59.8036 61.5115 60.0106 61.6928 60.1829C61.9045 61.0222 62.0608 61.7289 62.5733 62.4497C62.3767 61.7183 62.0809 61.0344 61.9033 60.2909C62.2215 60.5673 62.7648 60.8951 62.962 61.255C63.1696 61.6654 63.3561 62.0893 63.6603 62.4392C63.5473 62.0213 63.4169 61.6318 63.1762 61.2675L63.1796 61.2297L63.3267 61.2666C63.4892 61.5254 63.9488 61.8182 64.2061 61.9828L64.2315 61.9776C64.0576 61.8193 63.8622 61.6772 63.7148 61.4933C63.948 61.4949 64.3904 61.9757 64.6088 62.1141C64.7349 62.194 64.9007 62.24 65.0416 62.2892C64.7153 62.029 64.212 61.7801 64.0473 61.3803C63.9147 61.2699 63.6829 61.2038 63.5247 61.1292C63.2362 60.9931 62.9843 60.8537 62.7275 60.6638L62.3881 60.3938C62.7219 60.4001 63.03 60.3947 63.363 60.4308C63.463 60.4417 63.5714 60.4647 63.6525 60.4001C63.4336 60.1827 62.5615 60.2436 62.2392 60.235L61.9166 60.0069C62.0528 59.911 62.2394 59.8725 62.3977 59.8231C62.7141 59.7293 63.0462 59.7761 63.3674 59.6944C63.5004 59.7563 63.6256 59.8273 63.775 59.8322L63.7518 59.7815C63.3617 59.5812 62.894 59.5377 62.4669 59.6307C62.2475 59.6645 62.0386 59.6942 61.8347 59.788C61.6013 59.7258 61.445 59.5562 61.2761 59.3918C61.7581 59.3223 62.2893 59.2027 62.7202 58.9696C62.1773 58.9894 61.6465 59.135 61.1104 59.2139Z" fill="#4FDB40"/>
<path d="M64.326 60.1915L64.2211 60.2107C64.1212 60.1432 63.9899 60.0585 63.9298 59.9521C63.887 59.8763 63.888 59.8594 63.9073 59.7802L64.0349 59.7295C64.1412 59.8802 64.2422 60.0265 64.326 60.1915Z" fill="#4FDB40"/>
<path d="M24.527 39.6387C26.0432 39.753 27.4567 40.1005 28.935 40.4224C29.5722 40.5612 30.2153 40.6641 30.8539 40.7931C29.5393 42.1167 28.764 42.8026 26.9666 43.4548C26.5692 43.5991 26.1253 43.768 25.6972 43.769C25.4222 43.7696 25.1048 43.6696 24.9045 43.4724C24.6009 42.7359 24.3988 40.4413 24.527 39.6387Z" fill="#FADE95"/>
<path d="M35.376 42.7979C38.4171 43.3663 41.0979 44.4683 43.7538 46.0449C44.1624 46.2875 44.7386 46.4939 45.0049 46.8933C45.4048 47.4935 45.7041 48.3825 45.9686 49.0607C47.6724 53.4296 47.7401 57.8625 46.7771 62.4161C46.2998 65.1383 45.5118 67.8525 44.597 70.4585C44.2387 71.4792 43.8658 72.521 43.4141 73.5038C43.3287 73.5514 43.33 73.5559 43.235 73.5375C43.1839 73.4564 43.1885 73.4964 43.2082 73.4071C43.2648 73.1507 43.4443 72.8876 43.5402 72.6376C43.8696 71.7794 44.1749 70.905 44.4691 70.0339C44.8785 68.8193 45.2495 67.593 45.5821 66.3551C45.9146 65.1172 46.2082 63.8702 46.4627 62.6139C46.6332 61.6375 46.8276 60.6646 46.9411 59.6792C47.2644 56.8736 47.0701 53.8889 45.9993 51.2509C44.9684 48.7114 42.9604 45.6589 40.3629 44.58C39.0538 44.0362 37.3913 43.851 36.0579 44.397C35.9024 44.1928 35.745 43.9901 35.5856 43.7889C35.5161 43.4587 35.4523 43.1264 35.376 42.7979Z" fill="white"/>
<path d="M39.209 39.8082L40.35 39.4346C41.0852 40.035 41.7663 40.6868 42.4504 41.3441C44.8887 43.687 46.3916 45.7193 47.3877 48.991C47.5829 49.6357 47.7473 50.2881 47.8809 50.9482C48.0146 51.6084 48.1169 52.2734 48.1879 52.9432C48.5092 56.1078 48.2553 59.4092 47.7969 62.5504C47.6052 63.8735 47.3177 65.1879 47.0634 66.5004C46.9862 66.5468 46.9987 66.5557 46.9025 66.5435C46.8527 66.4671 46.851 66.4041 46.8595 66.3161C46.8966 65.9321 47.0147 65.5221 47.0859 65.1397C47.2527 64.2569 47.409 63.3721 47.5547 62.4856C47.7162 61.2007 47.8693 59.9035 47.9192 58.6089C48.0351 55.6033 47.6568 52.4482 46.6571 49.6032C46.3539 48.7403 45.9683 47.915 45.5908 47.083C45.849 47.2578 46.2155 47.5144 46.5433 47.4656L46.6162 47.4011C46.6134 47.2916 46.6139 47.2803 46.5323 47.1994C46.0819 46.7529 45.4517 46.4879 45.0122 46.0188C44.502 45.4743 44.1116 44.7694 43.6444 44.1822C42.3313 42.5321 40.9045 41.0606 39.209 39.8082Z" fill="white"/>
<path d="M30.8616 42.6365C31.5579 41.5077 32.653 40.7872 33.7815 40.1384C36.1415 38.7816 38.7075 37.8741 41.3256 37.1558C43.4038 36.5857 45.546 36.1164 47.4997 35.1865C47.6057 35.5581 47.7496 35.8767 47.9439 36.2107C48.0127 36.3288 48.1511 36.4997 48.1917 36.6249C48.2006 36.6523 48.1896 36.6825 48.1885 36.7112C48.0079 36.8992 47.7507 37.0078 47.5092 37.0977C46.6921 37.4017 45.81 37.58 44.9621 37.777C43.6111 38.0908 42.2542 38.3854 40.9169 38.7539C39.6715 39.0971 38.4221 39.4919 37.2215 39.9707C35.4982 40.6581 33.9651 41.5446 32.4261 42.57C31.9139 42.9114 31.3925 43.2461 30.9057 43.6232C30.8278 43.605 30.7798 43.5719 30.7218 43.5187C30.5648 43.3748 30.5153 43.1912 30.5073 42.9851C30.2725 43.0187 30.1408 43.0718 29.9653 43.2303L29.8638 43.1425C30.2074 42.8621 30.4106 42.6852 30.8616 42.6365Z" fill="white"/>
<path d="M25.7423 32.4404C26.3237 32.6871 26.9742 32.9536 27.4282 33.4051C27.6922 33.6676 27.8889 34.0195 28.1033 34.3225C28.3422 34.6571 28.609 34.9679 28.9037 35.2546C30.2939 36.6237 32.7381 37.89 34.5871 38.4884C33.6672 38.7255 32.7269 38.9802 31.7802 39.0777C29.5778 39.3046 27.1945 38.643 25.1988 37.7297C24.9843 37.4355 24.7401 37.1628 24.5347 36.8626C24.5365 36.1363 25.3694 33.0546 25.7423 32.4404Z" fill="#FADE95"/>
<path d="M60.1273 56.6729L59.9597 56.6938C59.8784 56.6084 59.8764 56.5184 59.8825 56.4036C59.9304 55.4837 60.5403 54.2086 61.2355 53.6054C62.6509 52.3774 64.4371 52.1621 66.2402 52.3266C67.4397 52.4361 68.6199 52.664 69.8103 52.8361C68.7933 54.9882 67.721 57.4103 65.3126 58.2744C64.1353 58.6968 63.0346 58.8234 61.8908 58.2689C61.4972 58.0781 60.5272 57.3441 60.2392 57.2876L60.0942 57.1723C60.5737 56.8381 61.5388 56.7022 62.1141 56.5646C62.5457 56.7234 63.0494 56.896 63.5056 56.9544C63.9318 57.0091 65.3976 57.0355 65.7319 56.7757C64.6332 56.8314 63.7074 56.7626 62.6791 56.353C63.1921 56.2013 63.6974 55.9957 64.191 55.7901C64.5543 55.639 64.9243 55.4474 65.3118 55.3724C65.5692 55.3226 65.8743 55.4029 66.1378 55.4055C66.7785 55.4119 67.3908 55.2583 68.0004 55.0792C67.2964 55.1268 66.5885 55.1334 65.8833 55.1609C67.153 54.5414 67.1432 54.4997 68.5444 54.3589C67.8743 54.283 67.2139 54.3055 66.5778 54.5313C66.7847 54.0379 67.0546 53.6395 67.1635 53.1043C66.897 53.6312 66.5821 54.4703 66.0615 54.7877C65.8153 54.9377 65.5258 55.0269 65.259 55.1341C64.6903 55.3626 64.1233 55.5926 63.5473 55.8021C64.3965 54.7038 65.3424 53.8222 66.2628 52.8012C65.0491 53.6035 63.9897 54.6848 63.1528 55.8666C62.5165 56.1062 61.825 56.2726 61.1596 56.4087C61.6359 55.6312 62.186 54.902 62.6942 54.1455C61.8931 54.8574 61.2138 55.6067 60.6866 56.546C60.4978 56.579 60.3131 56.6265 60.1273 56.6729Z" fill="#4FDB40"/>
<path d="M6.71875 51.812C7.17016 49.3878 8.02405 46.2556 10.1181 44.7298C11.4505 43.7591 12.9033 44.0158 14.4273 44.2506L14.4175 44.3117L14.4582 44.5962L14.5087 45.0606L14.5745 45.5528C14.4707 45.5983 14.3859 45.6315 14.3344 45.7408C14.1864 46.0558 14.2508 46.5797 14.2556 46.928C14.294 47.0165 14.3251 47.0933 14.3476 47.187C14.3759 47.3048 14.4829 47.4418 14.5781 47.5159C14.6419 47.508 14.6794 47.5216 14.7209 47.4657C14.7766 47.3904 14.7759 47.319 14.7861 47.23L14.8059 47.0594C14.9089 47.5681 15.0042 48.0819 15.1253 48.5865L15.1848 48.8289C15.0198 48.9647 14.8569 49.1112 14.6804 49.2317C13.1749 50.3405 11.2631 50.9404 9.44281 51.2651C8.71132 51.3956 7.94757 51.4756 7.23138 51.6712L6.71875 51.812Z" fill="#4FDB40"/>
<path d="M14.2559 46.9277C14.2942 47.0162 14.3253 47.093 14.3478 47.1867C14.3762 47.3045 14.4831 47.4415 14.5784 47.5156C14.6422 47.5077 14.6797 47.5213 14.7212 47.4654C14.7769 47.3902 14.7762 47.3187 14.7863 47.2297L14.8061 47.0591C14.9091 47.5678 15.0045 48.0816 15.1255 48.5862C15.0229 48.5168 14.9615 48.4741 14.8322 48.4705C14.7361 48.504 14.67 48.5782 14.6247 48.6688C14.6063 48.7055 14.599 48.7473 14.5791 48.7832C14.5656 48.8076 14.539 48.8332 14.5193 48.8536C14.5068 48.7091 14.48 48.5384 14.5028 48.3948C14.5443 48.1334 14.8121 47.9372 14.7565 47.6643C14.6965 47.5923 14.6686 47.5571 14.5808 47.5179C14.4808 47.4732 14.386 47.4271 14.2891 47.3752C14.2553 47.2315 14.2615 47.0752 14.2559 46.9277Z" fill="#1CA03F"/>
<path d="M14.4584 44.5959C14.2241 44.6232 13.9782 44.6496 13.7546 44.7267C13.5583 44.7944 13.351 44.913 13.1489 44.9473C12.7235 45.0194 12.1725 44.5454 11.8291 44.3168L11.8804 44.2891C12.1722 44.3804 12.6782 44.6845 13.0314 44.8209C13.495 44.5894 13.9054 44.4123 14.4177 44.3114L14.4584 44.5959Z" fill="#2D2D2D"/>
<path d="M10.8039 44.5703C11.1781 44.6563 11.4669 44.8198 11.7471 45.0789C12.6663 45.038 13.5888 45.1142 14.509 45.0605L14.5748 45.5527C14.471 45.5982 14.3861 45.6313 14.3347 45.7407C14.1867 46.0556 14.2511 46.5796 14.2559 46.9279C14.2615 47.0754 14.2554 47.2316 14.2892 47.3753C14.3218 48.1682 14.1964 48.8431 13.729 49.5018L13.6462 49.6184C13.7686 49.2481 13.8901 48.8898 13.9413 48.5009C14.0113 47.9693 13.9429 47.4467 13.9268 46.9151C13.9157 46.5503 13.9482 46.1851 13.9789 45.8219C13.6583 46.0016 13.316 46.1685 13.0645 46.4424C12.7418 48.2344 12.8617 48.6 11.652 50.0754L11.6759 50.0274C11.8419 49.6997 12.0837 49.3969 12.2162 49.0563C12.4721 48.3986 12.4139 47.3907 12.5887 46.6513C12.1869 46.9429 11.5868 47.3457 11.3448 47.791C10.972 48.4772 11.1395 49.2759 10.5543 50.2055C10.4296 50.4037 10.271 50.614 10.0097 50.5867L10.0519 50.5509C10.9189 49.8024 10.485 48.7896 10.8985 47.8436C10.5376 48.1699 10.0644 48.4757 9.78871 48.8772C9.37621 49.4778 9.39723 50.1809 8.80879 50.6912C9.02301 50.1401 9.22715 49.582 9.45684 49.0373C8.99019 49.5631 8.4609 50.0453 7.92465 50.4994C8.22676 50.051 8.6034 49.6651 8.97277 49.2725C8.42371 49.4477 7.97301 49.7395 7.45215 49.962C7.93496 49.5608 8.44137 49.2799 9.01043 49.0184C9.27184 48.8888 9.44644 48.6673 9.6316 48.4494C9.43551 48.5444 9.24043 48.6362 9.03863 48.7187L9.02863 48.7108L9.02387 48.6563C9.24113 48.4962 9.51754 48.454 9.76332 48.3475L9.78707 48.2828C9.32473 48.1112 8.47184 48.4135 8.00605 48.5503C8.3898 48.3173 8.80371 48.1254 9.24324 48.0266C9.6377 47.938 10.0541 47.9081 10.4195 47.7241C10.7726 47.5462 11.0594 47.2656 11.3514 47.0043C10.9758 47.0454 10.5882 47.0161 10.2158 47.0852C9.7991 47.1624 9.41418 47.3635 9.01262 47.4946C9.34668 47.2511 9.75746 47.173 10.0343 46.9566C9.71801 46.83 9.10473 47.1566 8.84645 47.0442L8.85215 47.0038C9.12223 46.8379 9.53269 46.7762 9.83879 46.695C9.61871 46.5802 9.45191 46.4722 9.28934 46.281C9.33863 46.3088 9.38871 46.3358 9.4377 46.3642C9.74066 46.54 10.0351 46.6257 10.3807 46.6653C10.7702 46.71 11.2257 46.7377 11.6088 46.6448C12.2193 46.4967 13.1456 45.8218 13.6529 45.4236C13.0195 45.448 12.3873 45.3913 11.7584 45.4184C11.0577 45.4487 10.2289 45.6351 9.56285 45.8554C10.0282 45.3728 11.0329 45.2296 11.6798 45.0929L10.8039 44.5703Z" fill="#2D2D2D"/>
<path d="M9.27846 35.2986C9.64166 34.4736 10.0756 33.716 10.6508 33.0192C12.0164 31.3649 14.2783 29.9128 16.4558 29.6982C16.2388 30.2925 16.0474 30.8942 15.8547 31.4967L15.7445 31.8708L15.6642 32.1211L15.4863 32.7804C15.4131 33.0218 15.3507 33.2627 15.2943 33.5085C15.1938 34.0618 15.107 34.6231 14.9771 35.1701C14.7875 36.5754 14.6254 37.9839 14.4908 39.3955C13.8356 39.9159 13.2133 40.2386 12.4191 40.4997C11.0937 41.0104 8.92643 41.1284 7.5415 40.8692C8.03244 39.7339 8.23463 38.4832 8.56041 37.2946C8.74697 36.6139 9.01814 35.9536 9.27846 35.2986Z" fill="#4FDB40"/>
<path d="M13.5469 31.3179C14.252 31.2266 15.1685 31.313 15.8545 31.4969L15.7442 31.8711C15.4686 31.5243 14.032 31.3931 13.5469 31.3179Z" fill="#2D2D2D"/>
<path d="M15.6643 32.1211L15.4865 32.7804C14.0948 32.7345 12.8638 32.903 11.5757 33.4296C12.036 33.0698 12.5212 32.8064 13.0654 32.5967C12.8063 32.499 12.5872 32.3801 12.3543 32.2323C12.5972 32.3186 12.8501 32.3861 13.0971 32.4609C14.0261 32.2135 14.739 32.2214 15.6643 32.1211Z" fill="#2D2D2D"/>
<path d="M15.294 33.5088C15.1936 34.0621 15.1067 34.6234 14.9769 35.1704C14.3707 35.6125 13.9765 35.9121 13.8525 36.6969C13.724 37.5107 13.8904 39.0224 13.3307 39.6729L13.2913 39.6736C13.3415 39.4228 13.4341 39.1746 13.4633 38.9215C13.5044 38.5663 13.4834 38.2086 13.5321 37.8532C13.2994 38.4075 12.8619 39.3169 12.4797 39.7675C12.2662 39.9211 11.854 40.1858 11.6004 40.2239C11.6379 40.1956 11.6746 40.1667 11.7117 40.1378C12.592 39.4541 13.1379 37.2784 13.5785 36.2012C13.1354 36.5154 12.5283 36.8125 12.1763 37.2217C11.5146 37.9908 11.9699 39.1994 11.0319 40.151L11.0153 40.1185C11.3921 39.6022 11.4633 39.1496 11.4731 38.5272C10.94 39.4264 10.5658 39.8594 9.70865 40.4451C9.99756 40.0882 10.3037 39.7354 10.5662 39.3584C10.9941 38.7442 11.3453 38.0724 11.7087 37.4187C11.2315 37.7469 10.6686 38.1038 10.2975 38.5544C9.61545 39.3824 9.76654 40.0311 8.62232 40.5463C8.98576 40.2141 9.24998 39.8598 9.51998 39.4513C9.16021 39.6935 8.78498 39.881 8.39795 40.0738C8.50811 39.9558 8.62529 39.8281 8.75857 39.7361C8.99639 39.5718 9.40459 39.4408 9.59021 39.2336C9.67006 39.1446 9.72889 39.0166 9.78521 38.9114C9.55584 39.1121 9.34631 39.2719 9.07717 39.4133C9.11936 39.3588 9.16303 39.3058 9.20623 39.2522C9.47311 38.9207 9.8024 38.6623 10.1045 38.3654C10.5215 37.9554 10.8975 37.5265 11.3394 37.14C10.3401 37.3471 9.69357 37.7586 8.92889 38.4145C9.70232 37.3773 10.3208 37.2182 11.4997 36.8376C11.6348 36.794 11.8115 36.7236 11.8795 36.5904L11.8444 36.5455C11.3927 36.3654 10.7549 36.5249 10.276 36.5348L10.2794 36.5071C10.9474 36.2576 11.6765 36.308 12.369 36.3879C13.2107 35.8546 14.0098 35.2305 14.8279 34.66C13.0664 34.6178 11.6904 34.909 10.0687 35.5875C11.069 34.7942 12.1582 34.3943 13.405 34.1534C13.7449 34.0878 14.1122 34.0953 14.4404 33.9843C14.728 33.8871 14.9847 33.6593 15.2608 33.5246L15.294 33.5088Z" fill="#2D2D2D"/>
<path d="M34.6365 21.5341C34.6581 21.5464 34.6795 21.5589 34.7012 21.5709C34.7321 21.588 34.7642 21.6028 34.7946 21.6209C34.9607 21.7202 35.0451 21.7352 35.2403 21.7452C35.8298 21.7734 36.4187 21.7645 37.0071 21.7186C37.4746 21.685 40.3867 21.3369 40.6055 21.1409C40.6559 20.9852 40.5244 20.748 40.4668 20.6035L40.5143 20.582C41.2465 22.1345 41.6009 25.5998 41.0239 27.1879C40.0887 29.7623 37.0651 30.3468 36.6277 33.2155C36.5153 33.9529 36.6175 34.662 36.926 35.3395C37.1747 35.8859 37.493 36.2807 37.9118 36.7078C38.0207 36.8188 38.2009 36.9511 38.2888 37.0741C38.2703 37.2342 38.2023 37.4236 38.2027 37.5757L38.233 37.6007C37.9631 37.7262 37.6691 37.8216 37.391 37.9293C37.1396 37.4279 36.8065 36.9664 36.4897 36.5052C35.7482 35.4255 34.8779 34.2575 34.4219 33.0204C34.3952 32.9477 34.3703 32.8745 34.3473 32.8005C34.3242 32.7267 34.303 32.6523 34.2837 32.5773C34.2643 32.5024 34.2468 32.427 34.2313 32.3512C34.2157 32.2753 34.202 32.1992 34.1903 32.1227C34.1785 32.0461 34.1686 31.9694 34.1606 31.8924C34.1527 31.8154 34.1467 31.7383 34.1426 31.661C34.1385 31.5837 34.1364 31.5064 34.1361 31.429C34.1359 31.3515 34.1376 31.2742 34.1413 31.1969C34.1449 31.1195 34.1504 31.0423 34.1579 30.9653C34.1654 30.8883 34.1748 30.8115 34.1861 30.7349C34.1974 30.6584 34.2106 30.5821 34.2258 30.5062C34.2409 30.4303 34.2579 30.3548 34.2768 30.2797C34.2957 30.2046 34.3164 30.1301 34.339 30.0561C34.3617 29.982 34.3861 29.9086 34.4124 29.8359C34.4387 29.763 34.4667 29.6909 34.4966 29.6195C34.5265 29.5481 34.5581 29.4775 34.5915 29.4077C35.3743 27.7448 36.8793 26.7557 38.6544 26.4178C39.2067 26.3127 39.8203 26.3034 40.348 26.1101C40.3624 26.1048 40.3765 26.0991 40.3908 26.0937C39.8725 26.0856 39.3556 26.087 38.8403 26.1492C37.1551 26.3527 35.7813 27.1027 34.7338 28.4315C35.3914 26.752 36.7525 24.203 38.5054 23.4898C38.8085 23.3665 39.5352 23.2577 39.7324 23.0219L39.6736 23.0252L39.6887 22.9821L39.6611 23.0263C39.4445 23.0555 39.2217 23.1245 39.0086 23.1762C39.356 22.9534 39.6788 22.7465 39.9611 22.442C39.3147 22.7302 38.6417 23.0012 38.032 23.3614C36.5206 24.2545 35.4174 25.7837 34.6884 27.3556C33.7435 29.3927 33.2814 31.2596 34.0713 33.4234L33.9218 33.3893C33.5505 32.3459 33.3732 31.1975 33.1056 30.1214C32.8794 29.2118 32.55 28.2992 32.4017 27.3743C32.0678 25.2928 32.5853 23.9945 33.7992 22.3331C34.2871 21.754 34.8192 21.1952 35.4696 20.7981C35.3756 20.958 34.8149 21.3841 34.6365 21.5341Z" fill="url(#paint2_linear_1114_54866)"/>
<path d="M18.5864 28.341C18.7056 28.0597 18.8305 27.7809 18.9609 27.5046C20.9683 23.2878 25.5708 17.9315 30.0821 16.3503C32.3138 15.5681 34.7028 15.4489 36.8714 16.4977C36.9239 16.5234 36.9761 16.5498 37.028 16.5768C37.0799 16.6037 37.1314 16.6313 37.1826 16.6595C37.2338 16.6877 37.2847 16.7166 37.3352 16.746C37.3857 16.7755 37.4358 16.8055 37.4856 16.8362C37.5354 16.8669 37.5848 16.8982 37.6338 16.93C37.6828 16.9619 37.7315 16.9943 37.7797 17.0274C37.8279 17.0604 37.8757 17.094 37.9231 17.1282C37.9706 17.1624 38.0176 17.1972 38.0642 17.2325C38.1108 17.2678 38.1569 17.3037 38.2026 17.3402C38.2483 17.3766 38.2936 17.4137 38.3385 17.4512C38.3832 17.4888 38.4276 17.5268 38.4715 17.5654C38.5154 17.6041 38.5588 17.6432 38.6017 17.6828C38.6447 17.7225 38.6872 17.7627 38.7292 17.8035C38.7711 17.8441 38.8126 17.8853 38.8535 17.9271C38.8945 17.9687 38.935 18.0109 38.9749 18.0536C39.0149 18.0963 39.0544 18.1394 39.0933 18.1831C39.1322 18.2267 39.1706 18.2708 39.2084 18.3154C39.2462 18.36 39.2836 18.405 39.3203 18.4505C39.3571 18.496 39.3933 18.5419 39.4289 18.5882C39.4646 18.6345 39.4996 18.6813 39.5342 18.7285C39.5687 18.7757 39.6026 18.8233 39.636 18.8713C39.6693 18.9193 39.7021 18.9677 39.7343 19.0165C39.7665 19.0654 39.7981 19.1146 39.8291 19.1641C39.8601 19.2137 39.8905 19.2636 39.9203 19.3139C39.95 19.3642 39.9792 19.4149 40.0078 19.4659C40.0363 19.5169 40.0643 19.5683 40.0916 19.62C40.1189 19.6717 40.1456 19.7237 40.1717 19.776C40.1977 19.8284 40.2231 19.881 40.2479 19.9339C40.2727 19.9869 40.2968 20.0402 40.3203 20.0937C40.3438 20.1472 40.3667 20.201 40.3889 20.2551C40.4111 20.3092 40.4327 20.3636 40.4535 20.4182C40.4744 20.4728 40.4946 20.5277 40.5142 20.5828L40.4667 20.6043C40.5242 20.7487 40.6557 20.986 40.6053 21.1417C40.3865 21.3376 37.4745 21.6857 37.0069 21.7193C36.4186 21.7653 35.8297 21.7741 35.2402 21.746C35.0449 21.7359 34.9606 21.721 34.7944 21.6217C34.7641 21.6035 34.732 21.5887 34.701 21.5716C34.6793 21.5596 34.6579 21.5471 34.6363 21.5349C34.8147 21.3849 35.3755 20.9587 35.4694 20.7989C34.819 21.1959 34.2869 21.7547 33.7991 22.3339C32.5851 23.9952 32.0676 25.2935 32.4015 27.375C32.5499 28.3 32.8792 29.2125 33.1054 30.1221C33.3731 31.1982 33.5503 32.3467 33.9217 33.39C34.337 34.8192 34.8939 36.0501 35.7184 37.2932C35.8797 37.5364 36.3435 38.057 36.2779 38.3387C35.8301 38.4916 35.0824 37.9792 34.6552 37.7978C34.2385 37.4846 33.4067 37.1506 32.9106 36.9017C30.4008 35.6428 28.5867 34.5321 27.3462 31.8762L27.2078 31.8935C26.9419 31.3598 26.6531 30.8388 26.3413 30.3306C26.0776 30.0507 25.849 29.7342 25.5634 29.4753C24.0664 28.1184 21.9692 28.0737 20.0712 28.1668C21.0985 26.0862 22.7526 24.2587 24.4127 22.6586C24.9459 22.1446 25.5074 21.6625 26.0391 21.1464C25.6924 21.2689 25.1565 21.8022 24.8474 22.0585C22.6697 23.8637 20.9376 25.6289 19.6829 28.1957C19.3187 28.2207 18.9486 28.291 18.5864 28.341Z" fill="#F2C94C"/>
<path d="M33.4842 22.4172C33.9213 21.7893 34.744 21.0855 35.4358 20.7461L35.4695 20.7983C34.8191 21.1953 34.287 21.7541 33.7992 22.3333C32.5852 23.9946 32.0677 25.293 32.4016 27.3745C32.55 28.2994 32.8794 29.212 33.1055 30.1216C33.3732 31.1977 33.5504 32.3461 33.9218 33.3895C34.3371 34.8186 34.894 36.0495 35.7185 37.2926C35.8798 37.5358 36.3436 38.0564 36.278 38.3381C35.8302 38.491 35.0826 37.9786 34.6553 37.7973C34.2387 37.484 33.4068 37.15 32.9107 36.9011C30.4009 35.6423 28.5868 34.5316 27.3463 31.8756C27.0912 31.2894 26.8225 30.7095 26.5405 30.1358C26.5355 30.121 26.5312 30.106 26.5254 30.0916C26.0965 29.0285 25.0166 27.7189 24.0583 27.0917C23.7172 26.8684 23.3682 26.7289 22.9915 26.5801L22.9741 26.5348C23.1483 26.5103 23.3519 26.5779 23.5197 26.6275C25.1375 27.1057 26.1296 28.5668 26.8937 29.974C27.1344 29.7577 27.1726 29.4587 27.3253 29.1877C27.4058 29.0448 27.4769 29.0203 27.6241 28.9747C27.5964 27.4422 27.2169 25.8431 26.3832 24.5489C26.064 24.0534 25.677 23.5967 25.3076 23.138C25.414 23.1937 25.518 23.2525 25.6151 23.3237C27.1022 24.4149 27.6475 26.4435 27.9237 28.1673C28.0894 29.8316 28.0881 31.5006 28.4482 33.1423C30.4322 35.4175 32.6258 36.1655 35.2146 37.4802C34.6504 36.5983 34.1602 35.7236 33.8137 34.7298C32.7922 31.8 32.7447 28.2477 30.6064 25.8544C30.5121 25.6589 30.2751 25.4373 30.1223 25.2781C29.2486 24.3673 28.319 23.8034 27.1561 23.3461C27.3324 23.372 27.5117 23.3963 27.6846 23.4405C29.2865 23.8495 31.06 25.5614 31.8979 26.9737C31.684 25.5287 32.0529 24.1828 31.8943 22.7871C31.8181 22.1164 31.5496 21.5249 31.3678 20.8833C32.2661 21.9148 32.2865 23.2798 32.2283 24.571C32.4614 23.8622 32.9109 22.9117 33.4842 22.4172Z" fill="#2D2D2D"/>
<path d="M26.8936 29.9739C27.1342 29.7576 27.1725 29.4586 27.3251 29.1876C27.4056 29.0448 27.4767 29.0202 27.6239 28.9746C27.6993 29.981 27.7009 31.021 27.8557 32.017C27.5111 31.3471 27.2432 30.6416 26.8936 29.9739Z" fill="#FADE95"/>
<path d="M32.8141 19.5492C31.3399 19.6484 28.9187 20.3556 27.5828 20.0083C27.4549 19.975 27.3852 19.9376 27.3169 19.8245C27.3267 19.7465 27.3432 19.6893 27.3871 19.6245C27.5391 19.3995 27.7692 19.2075 27.9722 19.0309C29.1949 17.9673 30.8072 17.2891 32.3824 16.9545C33.6874 16.6772 35.4259 16.5275 36.5984 17.304C37.0023 17.5715 37.3763 17.9772 37.4654 18.4672C37.5292 18.818 37.4294 19.0576 37.2364 19.3445C36.8078 19.73 36.3111 19.7865 35.757 19.7543C34.7713 19.697 33.8079 19.4593 32.8141 19.5492Z" fill="#2D2D2D"/>
<path d="M28.0195 19.6133C28.5458 19.2535 29.2185 18.983 29.8123 18.7653C32.1109 17.9224 34.963 17.5944 37.2354 18.6525L37.2659 18.6354C37.1965 18.54 37.1016 18.5072 36.9962 18.4618C34.4137 17.3509 31.3661 18.0054 28.8458 18.9923C28.5127 19.1227 28.2315 19.337 27.9078 19.4664L27.8979 19.4373C28.0787 19.2518 28.3031 19.1068 28.513 18.9561C29.7904 18.0391 31.3642 17.4329 32.9051 17.1348C34.0346 16.9164 35.7427 16.8207 36.7367 17.5236C37.0711 17.7601 37.3456 18.1245 37.4066 18.5373C37.4523 18.8459 37.3711 19.0546 37.1889 19.2988L36.9719 19.4767C36.222 19.9372 34.869 19.5145 34.0322 19.4349C33.554 19.3894 33.0852 19.3869 32.6063 19.4201C31.1074 19.4699 29.6658 19.9241 28.1569 19.8798C28.3637 19.8313 28.5694 19.7783 28.781 19.7566C30.2592 19.6095 31.7221 19.1531 33.2033 19.1014C34.1623 19.0679 36.0472 19.6209 36.7965 19.3942C36.703 19.2998 36.2126 19.3398 36.0463 19.3247C35.1501 19.2431 34.2897 18.99 33.3809 18.9825C32.4383 18.9746 31.5061 19.1627 30.58 19.3157C29.9176 19.4251 29.247 19.5187 28.5911 19.6605L28.6372 19.6398C30.1113 18.991 31.91 18.5111 33.5212 18.5527C33.9497 18.5674 34.3757 18.6082 34.7992 18.6752C35.212 18.7373 36.8529 19.1661 37.1266 18.9946L37.1248 18.9575C37.1133 18.9581 37.1019 18.959 37.0903 18.9594C36.6662 18.9738 36.1983 18.8311 35.7822 18.7455C34.7688 18.5372 33.7936 18.368 32.7528 18.4552C31.7822 18.5365 30.7973 18.7682 29.8672 19.0558C29.2815 19.2369 28.6326 19.5819 28.0195 19.6133Z" fill="#F2C94C"/>
<path d="M30.6065 25.8545C32.7448 28.2478 32.7923 31.8001 33.8138 34.7299C34.1603 35.7237 34.6505 36.5984 35.2147 37.4803C32.6259 36.1657 30.4323 35.4176 28.4483 33.1424C28.0882 31.5007 28.0895 29.8317 27.9238 28.1674C27.967 28.2401 27.9568 28.2117 27.9777 28.2858C27.9908 28.3324 28.0031 28.3788 28.017 28.4251L28.089 28.4463L28.0001 28.3896L28.1056 28.4417C28.8305 28.1582 29.2599 27.6282 29.7785 27.0811C30.0824 26.7604 30.3977 26.4479 30.6734 26.1023C30.6431 26.0343 30.6184 25.9795 30.6098 25.9045C30.6079 25.8879 30.6076 25.8711 30.6065 25.8545Z" fill="#FADE95"/>
<path d="M64.0645 33.4014L64.0761 34.4533C64.3163 34.4147 64.5392 34.4946 64.7878 34.429C65.0355 34.4249 65.2939 34.435 65.5397 34.4086L65.568 34.4191C65.5444 34.5708 65.5461 34.7141 65.5498 34.8672L65.5039 34.8889C65.5995 36.5892 65.3583 39.5658 64.9188 41.2169C64.0163 44.8424 62.6456 48.986 59.2401 51.0237C57.327 52.1685 55.1443 52.3629 53.0035 51.8101C51.248 51.3569 49.6579 50.2086 48.7451 48.6311C47.8845 47.1439 47.7898 45.3564 48.2345 43.7207C48.4304 43.0002 48.74 42.3179 49.0595 41.6453C49.412 40.9032 51.0478 38.2111 50.5654 37.5316C50.4654 37.3907 50.2541 37.3591 50.0948 37.3521C49.1459 37.3107 47.5734 38.0517 46.5823 38.3011C45.6172 38.5406 44.6428 38.7336 43.6591 38.88C43.0473 38.9714 42.4137 39.0254 41.8092 39.1511L41.8552 39.1925C42.4502 39.7241 43.1279 40.1754 43.7532 40.6722C45.0171 41.6761 46.812 43.3403 47.638 44.7182C47.1609 46.0739 47.4414 47.3049 48.0568 48.5779C48.1485 48.7638 48.2484 48.9451 48.3567 49.1219C48.4649 49.2987 48.581 49.4702 48.7049 49.6364C48.8289 49.8025 48.9601 49.9627 49.0987 50.1169C49.2373 50.2711 49.3826 50.4186 49.5346 50.5595C50.071 51.0488 50.7992 51.3732 51.1002 52.0681C51.4068 52.7757 51.4813 53.5907 51.6017 54.3465C51.6843 54.8507 51.7779 55.3529 51.8826 55.853C51.4231 55.5535 51.1588 55.168 51.0482 54.6275C50.8647 53.7308 50.9941 52.4654 50.3179 51.757C50.058 51.4847 49.7062 51.2688 49.4001 51.0495C49.7337 52.1713 50.3306 54.6184 50.9542 55.4593C51.1846 55.77 51.504 56.0156 51.8432 56.1975C53.4407 57.054 58.2409 57.2985 60.0941 57.1719L60.239 57.2872L60.1759 57.3092L60.1352 57.3087C59.5561 57.3061 58.9763 57.3883 58.3951 57.3929C56.4366 57.4084 53.9001 57.2216 52.0127 56.6974C52.5628 60.6982 52.7955 64.811 52.1018 68.8058C52.0598 69.0472 51.9368 69.9612 51.7952 70.1104C51.7873 70.1188 51.7769 70.1243 51.7677 70.1312C51.6956 70.0947 51.709 70.1185 51.6847 70.0443C51.6073 69.8075 51.9071 68.5261 51.9566 68.1785C52.0549 67.4923 52.127 66.8034 52.1727 66.1118C52.2184 65.4201 52.2377 64.7277 52.2305 64.0346C52.229 63.6862 52.2485 63.2971 52.1927 62.9533C52.2136 61.4161 51.9989 59.8418 51.7915 58.3207C51.7081 57.7095 51.5814 57.0819 51.5462 56.4669C50.8743 56.1258 50.3875 55.4849 50.0317 54.8343C50.502 57.6002 50.5107 60.4136 50.3315 63.209C50.2573 63.9131 50.227 64.6191 50.1412 65.3232C49.8595 67.6364 49.3503 70.1872 48.5884 72.3939C48.482 72.7017 48.3666 73.2042 48.1722 73.4579L48.1038 73.4554C47.9278 73.2293 48.3657 72.2986 48.4577 72.0128C49.3927 69.1063 49.8673 66.1271 50.0766 63.0897C50.2222 60.653 50.2942 57.5649 49.8138 55.1818C49.646 54.3501 49.3802 53.5291 49.0649 52.7423C49.5283 55.9996 49.3198 59.5399 48.8867 62.7893C48.645 64.654 48.3115 66.5021 47.8863 68.3336C47.8116 68.6449 47.7652 69.0314 47.6151 69.3133C47.531 69.3437 47.557 69.3508 47.4634 69.3106C47.3991 69.134 47.7552 67.8769 47.8122 67.61C48.1571 65.9938 48.4078 64.3661 48.648 62.7315C49.0897 59.3189 49.2635 55.6959 48.7278 52.286C48.5787 51.3372 48.3434 50.393 48.107 49.4625C47.9426 48.8203 47.7497 48.1868 47.528 47.562C47.4252 47.278 47.2549 46.9818 47.1808 46.6931C47.1543 46.5897 47.1931 46.5177 47.2405 46.4297C47.2459 46.4197 47.2516 46.4098 47.2573 46.3998L47.2236 46.3568L47.0982 46.4248C46.9334 46.3346 46.7882 45.9271 46.6945 45.7569C46.3279 45.0911 45.8933 44.4497 45.428 43.8492C44.5187 42.6757 43.4927 41.5801 42.432 40.5424C41.9843 40.1045 41.5151 39.6895 41.0703 39.2486C41.7098 39.1175 42.3439 38.9199 42.9809 38.7704C44.5264 38.4077 47.1795 37.9564 48.453 37.0715C48.5179 36.9139 48.5198 36.7327 48.536 36.5641L48.5027 36.4286C49.5109 36.6477 50.5533 36.5893 51.5673 36.7607C52.683 36.8157 53.7088 36.6242 54.8126 36.5375C55.6757 36.4697 56.5147 36.5173 57.3746 36.6056C55.4795 35.6587 53.9437 36.4171 52.0064 36.4193C51.023 36.4204 50.0858 36.1885 49.0952 36.2508C49.4634 36.1145 49.8404 36.0305 50.1949 35.8541C50.5516 35.6765 50.8848 35.4342 51.2263 35.2282C52.0099 34.7558 52.8407 34.404 53.7362 34.2081C57.2355 33.4426 57.879 35.4599 59.2639 38.0852C59.637 38.7925 60.0485 39.4802 60.7403 39.9171C61.3853 40.3245 62.0212 40.3357 62.7388 40.1713C62.2975 40.092 61.8495 40.07 61.4348 39.8832C59.9262 39.2039 59.5675 37.0113 58.7173 35.7384C58.4147 35.2853 58.0421 34.9296 57.6122 34.5996C58.2227 34.779 58.6559 35.2221 59.1984 35.5368C60.3855 36.2254 61.8134 36.595 63.1661 36.2345C61.0985 35.9833 60.6001 35.8738 58.8195 34.7941C60.5546 35.0021 62.5358 34.1825 64.0645 33.4014Z" fill="white"/>
<path d="M54.6748 49.2456C54.6796 49.1902 54.6712 49.2195 54.7098 49.1611C55.4339 49.4683 56.7947 50.2897 57.5095 50.3224C57.5002 50.3284 57.4914 50.3352 57.4816 50.3404C57.1331 50.5287 56.555 50.4763 56.1875 50.3775C55.5684 50.2111 54.9989 49.8013 54.6748 49.2456Z" fill="#4FDB40"/>
<path d="M65.5401 34.4082L65.5684 34.4187C65.5448 34.5704 65.5465 34.7137 65.5502 34.8668L65.5043 34.8884C65.1229 34.9084 64.7412 34.9197 64.3592 34.9224L64.0935 34.928C63.0661 34.8866 62.056 34.9184 61.0298 34.925C62.0496 34.6823 63.0314 34.539 64.0765 34.4529C64.3167 34.4143 64.5396 34.4941 64.7882 34.4286C65.0359 34.4245 65.2943 34.4346 65.5401 34.4082Z" fill="#4FDB40"/>
<path d="M64.0934 34.9284L64.3591 34.9229C64.3259 35.4721 64.34 36.0247 64.3065 36.5748C64.2335 37.7728 64.0538 38.9326 63.7854 40.1012C63.7178 40.3961 63.6729 40.7727 63.5369 41.0411L63.49 40.9946C63.4545 40.0919 63.7242 39.1268 63.8385 38.2285C63.9779 37.1321 64.0355 36.0313 64.0934 34.9284Z" fill="#4FDB40"/>
<path d="M48.5361 36.5645C48.5923 36.6473 48.5941 36.6504 48.6977 36.6677C49.287 36.7663 49.9116 36.7247 50.5066 36.8013C50.884 36.8499 51.2629 36.9846 51.6255 37.0968C52.2759 37.4257 52.8547 37.773 53.3484 38.3121C53.6645 38.6574 54.0244 38.6569 54.4269 38.8375C55.9111 39.5036 57.2487 40.281 58.9247 40.3775C57.027 40.8121 55.563 39.7673 53.9256 39.0255C54.9498 40.6485 55.5778 42.4851 57.0314 43.8069C55.9736 43.4891 55.5395 42.5508 54.8763 41.7698L54.8527 41.7424C54.9936 42.737 55.0309 43.7539 55.0305 44.7576C54.668 43.5458 54.7043 42.1637 54.3033 41.007C54.0227 40.1977 53.4553 39.4121 52.9725 38.7079C52.5805 39.5309 52.2141 40.3913 51.8916 41.2435C51.66 41.8553 51.4683 42.5052 51.1809 43.092C51.4297 41.4113 52.0448 39.9438 52.6753 38.3809C51.7654 37.5613 50.712 37.1435 49.492 37.0755C49.1453 37.0563 48.7998 37.0812 48.4531 37.0719C48.518 36.9142 48.5198 36.733 48.5361 36.5645Z" fill="#4FDB40"/>
<path d="M61.9027 40.608C62.2188 40.7063 62.6137 40.9118 62.9318 40.9555L62.894 40.9264L62.8811 40.9456L62.8344 40.9286L62.8452 40.8953C62.6556 40.7819 62.4261 40.6755 62.2791 40.509L62.302 40.4689C62.5281 40.4522 62.7138 40.4834 62.8891 40.6362C63.155 40.8678 63.3742 41.2932 63.438 41.6383C63.4792 42.7228 62.8137 44.9529 62.285 45.9068C61.6093 47.5462 60.0574 49.3482 58.3917 50.0514C58.1233 50.1647 57.8007 50.2943 57.5098 50.3222C56.8855 49.9168 55.7814 49.5013 55.0631 49.1458C54.9195 49.0747 54.5974 48.9451 54.5449 48.7908C54.6756 48.7632 54.8295 48.7925 54.9582 48.8286C55.1816 48.8913 55.393 49.0042 55.6122 49.0816C55.956 49.203 58.3148 49.9728 58.4193 49.9526C58.3263 49.7469 56.1583 49.1616 55.8108 49.0475C55.623 48.9858 55.4448 48.8865 55.2592 48.815C55.531 48.7378 55.8166 49.0901 56.1085 49.0508C55.9958 48.9808 55.8821 48.9122 55.7676 48.8451C56.1966 48.9054 57.0186 49.3229 57.5219 49.4619C56.8155 49.0462 55.1624 48.5059 54.6681 48.0387C54.7873 47.9375 56.6188 48.7041 56.9414 48.7294C56.7632 48.534 55.095 48.0435 54.777 47.7622C55.2075 47.7261 57.03 48.7282 57.5596 48.9422C58.0816 49.1546 58.617 49.3249 59.1659 49.4529C58.7208 49.2246 58.2315 49.0731 57.7725 48.8729C57.5295 48.7668 54.9847 47.5214 54.9528 47.4886L54.9691 47.4327C55.0559 47.3933 55.0785 47.3794 55.1753 47.4005C55.3317 47.4347 55.483 47.5192 55.6357 47.5698C56.6236 47.897 57.6083 48.4233 58.637 48.5885C58.3963 48.5113 58.1862 48.3726 57.9547 48.2733C57.3673 48.0215 56.6513 47.849 56.1359 47.4668C57.4602 47.85 58.6263 48.6423 59.9741 48.9429C59.0782 48.4001 57.664 47.8388 56.674 47.4166C56.3459 47.2767 56.0021 47.0803 55.6586 46.9893C55.5657 46.9647 55.557 46.9704 55.4857 46.9008L55.5062 46.851C55.8827 46.8194 57.6482 47.4858 58.1016 47.6548C58.3516 47.7479 58.7784 47.9741 59.037 47.9635C58.7305 47.7682 58.378 47.639 58.0495 47.4837C57.5497 47.3707 56.3984 46.7625 55.9252 46.4888L55.9444 46.4469C56.6098 46.3429 57.271 46.8715 57.8245 47.1744C58.6527 47.4885 59.5733 47.9187 60.4283 48.1139C60.0898 47.8929 59.6856 47.743 59.3243 47.558C58.6721 47.224 58.032 46.8665 57.3783 46.5354C57.1678 46.4288 56.6459 46.2245 56.5011 46.073C56.4758 46.0465 56.4673 46.0081 56.4503 45.9757C56.6308 45.9466 56.8411 45.9879 57.0153 46.0366C57.3743 46.1372 57.7323 46.3083 58.0804 46.4435C58.653 46.6661 59.2323 46.863 59.8082 47.0756C60.2603 47.2425 60.7111 47.4387 61.1783 47.559L61.238 47.574C60.7952 47.3155 60.3146 47.104 59.8582 46.8683C59.1766 46.5163 58.5045 46.1406 57.817 45.8011C57.6061 45.6969 57.3519 45.6673 57.1581 45.5623C57.2171 45.5277 57.2608 45.4983 57.3097 45.4492C57.3233 45.4355 57.3361 45.4211 57.3493 45.4071C57.5291 45.3579 60.151 46.3983 60.5372 46.5503C60.8151 46.6597 61.1595 46.8727 61.4548 46.9005C61.3897 46.7881 59.8341 45.9958 59.5705 45.8129C59.7299 45.9678 59.9053 46.0905 60.0869 46.2176C59.9045 46.1916 57.8206 45.2162 57.4954 45.0439C58.1917 45.1144 58.8434 45.4962 59.4941 45.732L59.5283 45.68C58.9758 45.3242 58.3892 45.0919 57.8258 44.7677C58.5316 44.8172 59.2001 45.119 59.8412 45.4019C60.5004 45.6204 61.1388 45.9244 61.7862 46.1788L61.7706 46.1552L61.8742 46.2079C61.8391 46.1564 61.804 46.1059 61.7666 46.0559C61.6387 46.0625 58.7355 44.7405 58.399 44.5549L58.4028 44.5179C58.4792 44.481 58.5373 44.469 58.6225 44.48C59.0478 44.5344 59.5 44.7402 59.9041 44.8809C60.4477 45.0703 60.9987 45.2497 61.5368 45.4543C61.8099 45.5581 62.0535 45.6953 62.3407 45.7622L62.3952 45.7746C61.873 45.4811 61.3171 45.2385 60.7873 44.956C60.2503 44.6696 59.7324 44.3394 59.1866 44.0708C59.1732 44.0642 59.1595 44.0579 59.1459 44.0515L59.1695 43.9755C59.1802 43.9703 59.1903 43.9636 59.2016 43.9598C59.4971 43.8597 60.7622 44.4259 61.1142 44.5551C60.762 44.2999 59.9247 43.9144 59.5152 43.7359L59.6137 43.7504L59.515 43.7254C59.5403 43.7181 59.5646 43.7025 59.5909 43.7034C59.7009 43.7074 61.8652 44.813 62.2873 44.9749L62.2597 44.9529C61.6197 44.4335 60.8067 44.1518 60.1102 43.7116L60.1271 43.709C60.0257 43.6192 59.907 43.57 59.7858 43.5129L59.7893 43.4637L59.9259 43.4009C60.3042 43.5251 61.4086 43.9953 61.6762 44.0128L61.7655 43.9669C62.0757 44.1001 62.3988 44.2803 62.7303 44.3463L62.7367 44.3055C62.559 44.1766 62.3564 44.1267 62.1601 44.0348C61.7191 43.8286 60.7945 43.3508 60.4352 43.054C60.3734 43.0029 60.3321 42.9847 60.3246 42.904C60.7173 42.8699 62.0502 43.552 62.6187 43.6639C62.6349 43.6671 62.6512 43.6697 62.6675 43.6727C62.0669 43.3845 60.9636 42.9597 60.479 42.561C61.0747 42.7478 61.6872 43.0121 62.2409 43.3009C62.3705 43.3686 62.6987 43.5962 62.8294 43.5801C62.6534 43.2558 61.0529 42.6926 60.6876 42.2845L60.6974 42.2164C60.7732 42.1872 60.8285 42.1801 60.9091 42.2018C61.4073 42.3355 61.8021 42.584 62.3565 42.6862C61.8763 42.4805 61.3977 42.2781 60.9355 42.034C61.5597 42.055 62.5288 42.8681 62.9734 42.7813C62.8606 42.6733 62.6836 42.6247 62.5399 42.5676C61.9981 42.2846 61.3186 42.0358 60.8444 41.6593C61.358 41.7528 62.5262 42.3423 62.7766 42.3304C62.4145 42.1385 61.5298 41.8416 61.3 41.534C61.6763 41.6261 62.0762 41.8334 62.4105 42.0276C62.6348 42.1579 62.8398 42.3437 63.0963 42.4077C62.8767 42.0408 61.8536 41.4781 61.464 41.2579C61.6587 41.1772 62.3261 41.5442 62.5716 41.5943C62.3209 41.3885 61.8619 41.3027 61.6749 41.041C62.0697 41.1701 62.4792 41.2835 62.8669 41.4317C63.0267 41.4929 63.1742 41.5783 63.3352 41.6357C63.1534 41.4012 62.2537 40.9858 61.9027 40.608Z" fill="#4FDB40"/>
<path d="M39.3122 36.6381C41.0067 36.6433 43.4372 35.7982 45.0269 35.2284C46.2495 34.79 47.7735 34.1395 48.3406 32.8739C49.2128 30.9274 47.0651 29.2264 46.0224 27.8728C45.9087 27.7254 45.8006 27.5741 45.6981 27.4189C45.5956 27.2636 45.499 27.1048 45.4081 26.9424C45.3172 26.78 45.2325 26.6145 45.1538 26.4459C45.0751 26.2773 45.0027 26.106 44.9366 25.9321C44.1028 23.6991 44.4629 21.0316 45.4527 18.8981C46.1998 17.2876 47.5661 15.9153 49.2531 15.3113C51.3639 14.5556 53.7492 15.0132 55.7228 15.959C58.4999 17.2899 61.0691 19.8321 62.5824 22.5006C63.1798 23.5537 63.6209 24.6744 64.0231 25.8133L64.0871 25.8628C65.1105 25.4734 66.0193 25.0441 67.0803 24.6964C67.6637 24.5244 68.248 24.3671 68.8442 24.2457C70.1985 23.97 71.7769 23.8538 72.885 22.9388C73.5555 26.2291 74.5404 29.1253 73.7884 32.523C73.7517 32.6893 73.7112 32.8547 73.6669 33.0191C73.6226 33.1836 73.5745 33.3469 73.5228 33.5092C73.471 33.6714 73.4155 33.8324 73.3563 33.9921C73.2972 34.1517 73.2344 34.31 73.168 34.4668C73.1016 34.6236 73.0316 34.7789 72.9581 34.9325C72.8846 35.0861 72.8076 35.238 72.727 35.3881C72.6466 35.5381 72.5627 35.6863 72.4754 35.8325C72.3882 35.9788 72.2976 36.1229 72.2037 36.265C70.7423 38.4692 68.2835 40.5951 65.6356 41.1164C65.4007 41.1627 65.1573 41.1956 64.9188 41.2171C65.3583 39.566 65.5995 36.5894 65.5039 34.8891L65.5498 34.8674C65.5461 34.7143 65.5444 34.571 65.568 34.4193L65.5397 34.4089C65.2939 34.4353 65.0355 34.4251 64.7878 34.4292C64.5392 34.4948 64.3163 34.4149 64.0761 34.4535L64.0645 33.4016C62.5358 34.1828 60.5546 35.0023 58.8195 34.7943C60.6001 35.874 61.0985 35.9835 63.1661 36.2347C61.8134 36.5952 60.3855 36.2256 59.1984 35.5371C58.6559 35.2223 58.2227 34.7792 57.6122 34.5998C58.0421 34.9298 58.4147 35.2855 58.7174 35.7386C59.5675 37.0115 59.9263 39.2041 61.4348 39.8835C61.8495 40.0702 62.2975 40.0922 62.7388 40.1715C62.0213 40.3359 61.3853 40.3247 60.7403 39.9173C60.0485 39.4804 59.637 38.7928 59.2639 38.0854C57.879 35.4601 57.2356 33.4428 53.7362 34.2083C52.8407 34.4042 52.0099 34.756 51.2263 35.2285C50.8848 35.4344 50.5517 35.6767 50.1949 35.8543C49.8404 36.0307 49.4635 36.1147 49.0952 36.251C50.0858 36.1887 51.023 36.4206 52.0064 36.4196C53.9438 36.4173 55.4796 35.6589 57.3746 36.6058C56.5147 36.5175 55.6757 36.4699 54.8126 36.5377C53.7088 36.6244 52.6831 36.816 51.5674 36.7609C50.5533 36.5896 49.5109 36.6479 48.5027 36.4288C48.4282 36.3308 48.374 36.2087 48.316 36.0997L48.2249 35.8937L48.1156 35.5672L47.9589 35.2613C48.491 34.9355 48.9552 34.5439 49.2217 33.966C50.1885 31.87 48.1089 28.9646 47.1447 27.1755C46.9059 26.7249 46.6986 26.2602 46.5229 25.7814C45.7175 23.5525 45.9525 21.46 46.9379 19.3412L46.9103 19.2676C46.9475 19.1698 46.977 19.0813 47.0535 19.0068C47.1235 18.9385 47.0949 18.9807 47.1341 18.8867L47.1109 18.8814C46.9706 18.9678 46.9269 19.1324 46.7947 19.2296C46.7772 19.2424 46.759 19.2544 46.7412 19.2668C45.7064 21.137 45.526 23.4183 46.1149 25.4601C46.1982 25.7469 46.2955 26.0289 46.4067 26.3061C46.5179 26.5834 46.6424 26.8544 46.7803 27.1193C47.6399 28.7996 49.867 31.9886 48.8704 33.8761C48.6381 34.3163 48.2693 34.6344 47.8755 34.9264C47.7927 34.8099 47.7298 34.7026 47.5999 34.6364C47.5342 34.6273 47.4883 34.6299 47.4254 34.6525C46.7874 34.8829 46.2154 35.2114 45.5274 35.4396C44.6563 35.7286 43.7568 35.9526 42.8706 36.1911C41.6808 36.507 40.4944 36.8353 39.3116 37.176C38.3347 36.4896 37.7144 35.6979 37.313 34.5781C37.3811 34.5591 37.4492 34.5419 37.5179 34.525C37.7702 35.4088 38.5586 36.1548 39.3122 36.6381Z" fill="white"/>
<path d="M46.7412 19.2664C46.8832 18.9514 47.1088 18.6651 47.3153 18.3906L47.505 18.5331C47.364 18.7193 47.0766 19.2286 46.9379 19.3408L46.9104 19.2672C46.9475 19.1694 46.9771 19.0809 47.0535 19.0064C47.1236 18.938 47.095 18.9803 47.1341 18.8863L47.1109 18.8809C46.9706 18.9673 46.9269 19.132 46.7947 19.2291C46.7772 19.242 46.759 19.254 46.7412 19.2664Z" fill="#2F7545"/>
<path d="M60.829 25.2246C60.4022 25.4356 59.959 25.6102 59.532 25.8199C59.1437 26.0106 58.7737 26.2327 58.3883 26.4277L58.3347 26.4137C58.463 26.1439 58.9881 26.1748 59.121 25.8615C58.8393 25.763 58.5044 26.1805 58.2143 26.1609C58.1958 26.1596 58.1779 26.1548 58.1597 26.1517C59.0107 25.7218 59.8985 25.4265 60.829 25.2246Z" fill="url(#paint3_linear_1114_54866)"/>
<path d="M47.3154 18.3908C47.8169 17.7712 48.437 17.219 49.1681 16.8887L49.1747 16.9528C48.9039 17.1074 47.9848 17.651 47.8918 17.9034C47.8875 17.915 47.8866 17.9276 47.8839 17.9397L47.9208 17.9875L47.9537 17.9595C48.1693 17.7784 48.9465 17.1833 49.2206 17.194L49.2246 17.2325C48.547 17.5826 48.0159 17.965 47.5051 18.5333L47.3154 18.3908Z" fill="#1CA03F"/>
<path d="M61.4531 23.6709C62.0764 24.4379 62.707 25.344 62.9986 26.3008C63.0048 26.3895 63.0104 26.4739 63.027 26.5614C62.9915 26.6293 62.9864 26.6332 62.9253 26.6713C62.8552 26.6111 62.8139 26.5483 62.7629 26.4722C62.6061 26.0958 62.4723 25.7129 62.2925 25.3459C62.0175 24.7845 61.6959 24.248 61.4531 23.6709Z" fill="#2D2D2D"/>
<path d="M61.8091 27.4277C62.0422 27.641 62.1944 27.9734 62.3501 28.2467C63.0195 29.4223 63.6535 30.733 63.7053 32.113C63.7067 32.1483 63.7047 32.1836 63.7036 32.2189C63.4667 31.7613 63.2985 30.803 63.0761 30.2441C62.6998 29.2982 62.0938 28.4009 61.8091 27.4277Z" fill="#4FDB40"/>
<path d="M49.1679 16.8886C50.2787 16.2242 52.4429 16.3529 53.6497 16.6543C55.3804 17.0865 56.8755 18.1214 58.2683 19.1908C58.7063 19.5272 59.1954 19.8421 59.4883 20.3233C59.6072 20.5186 59.6665 20.7218 59.713 20.9438C59.6249 21.2081 59.5353 21.4531 59.2628 21.5791C58.999 21.7011 58.6729 21.6616 58.397 21.6033C57.3139 21.3739 56.2907 20.8283 55.2138 20.5442C54.3472 20.3156 53.4499 20.2193 52.5653 20.0857C51.9558 19.9882 51.3493 19.8749 50.7457 19.746C50.3646 19.6641 49.9369 19.6061 49.5979 19.407C49.3122 19.2758 49.0368 19.0841 48.8722 18.8101C48.7513 18.6086 48.7033 18.3637 48.7737 18.136C48.8818 17.7868 49.1575 17.6228 49.4632 17.4693C49.7047 17.3581 49.9493 17.2705 50.2009 17.1852C50.3739 17.1372 50.5532 17.105 50.7289 17.0671C51.1143 17.0016 51.5038 16.9874 51.8939 17.0061C52.2811 17.0246 52.7721 17.124 53.1481 17.0363C52.4697 16.8857 51.2153 16.771 50.5367 16.9109C50.0831 16.94 49.6475 17.0716 49.2245 17.2325L49.2204 17.194C48.9464 17.1833 48.1692 17.7783 47.9536 17.9594L47.9207 17.9875L47.8838 17.9397C47.8864 17.9276 47.8874 17.915 47.8917 17.9033C47.9846 17.651 48.9038 17.1074 49.1746 16.9528L49.1679 16.8886Z" fill="#4FDB40"/>
<path d="M51.1791 31.7102C52.0365 29.7905 52.5459 27.4477 51.7654 25.4291C51.4975 24.7363 51.0704 24.117 50.8216 23.4171C50.4548 22.3855 50.4129 21.1573 50.8858 20.1523C50.663 21.6299 50.8272 22.7508 51.5859 24.0462C51.9845 24.7269 52.3173 25.3173 52.545 26.0782C52.6385 25.6987 52.7353 25.3199 52.8747 24.9541C53.4059 23.5595 53.807 22.9694 53.4566 21.426C53.8974 22.246 53.895 22.8463 53.7623 23.7496C54.7084 22.8053 55.9418 22.3209 57.1948 21.9273C56.4486 22.4423 55.5804 22.7149 54.8514 23.2852C53.205 24.5732 52.9634 25.6865 53.0145 27.6851C53.0291 28.2591 53.0586 28.8328 52.9931 29.405C52.8866 30.337 52.4834 31.2376 52.1884 32.1223C53.2961 31.2166 54.0952 29.9205 54.9647 28.8041C55.2502 28.4376 55.8688 27.8522 55.9946 27.4205C56.2061 26.6946 55.9248 25.9311 56.0934 25.1877C56.277 24.3792 56.8997 23.4777 57.6002 23.0348C56.9963 23.8007 56.3402 24.5784 56.3691 25.6113C56.3838 26.1397 56.4434 26.6623 56.4448 27.1923C56.983 26.7967 57.5359 26.4035 58.1594 26.1527C58.1776 26.1557 58.1955 26.1605 58.214 26.1618C58.5041 26.1815 58.839 25.7639 59.1207 25.8624C58.9878 26.1757 58.4627 26.1448 58.3345 26.4147L58.388 26.4286C57.6434 26.9374 56.8488 27.487 56.2879 28.2028C55.9568 28.6254 55.7994 29.1961 55.5232 29.659C54.7938 30.8812 53.9764 31.9865 53.0328 33.0501C53.6312 32.9003 54.2436 32.7941 54.837 32.6297C55.6026 32.4177 56.3031 32.107 57.0126 31.7546C56.5277 32.2062 56.0102 32.5249 55.4307 32.8427C56.1935 32.8933 56.8191 33.1327 57.4998 33.4657C57.9392 33.6806 58.348 34.0203 58.8105 34.1732C60.4653 34.7201 62.6202 33.5675 64.0696 32.7843C64.0074 31.6687 63.9773 30.5559 63.7268 29.4616C63.5287 28.5957 63.2024 27.7727 62.9214 26.9323L62.8667 26.8361C62.592 26.8533 62.0397 27.2563 61.8089 27.4279C61.0533 27.9563 60.3115 28.5035 59.5835 29.0695C59.6313 29.5102 60.4117 29.7782 60.6077 30.222C60.658 30.3355 60.6808 30.4612 60.6373 30.5782C60.4874 30.5137 60.2176 30.5415 60.1041 30.4666C59.8258 30.2832 59.7281 29.744 59.4286 29.5731C59.3247 29.5139 59.3038 29.5258 59.1963 29.5569L59.1773 29.4959L59.2268 29.5418L59.2045 29.5384C59.1803 29.5003 59.1555 29.4671 59.1276 29.4319L58.993 29.4277C59.0052 29.4067 59.014 29.3834 59.0296 29.3647C59.1115 29.2669 59.2241 29.2611 59.3366 29.2703C59.3946 29.1631 59.4577 29.0851 59.5408 28.9962C60.4673 27.9944 61.5923 27.1651 62.7629 26.4731C62.8139 26.5492 62.8552 26.612 62.9253 26.6722C62.9864 26.6341 62.9915 26.6302 63.027 26.5623C63.0104 26.4748 63.0048 26.3904 62.9986 26.3017C63.3363 26.1273 63.6719 25.9598 64.0231 25.8135L64.0872 25.863C65.1105 25.4736 66.0194 25.0443 67.0803 24.6966C67.6637 24.5246 68.248 24.3673 68.8443 24.2459C70.1985 23.9702 71.777 23.854 72.8851 22.939C73.5555 26.2293 74.5405 29.1255 73.7884 32.5232C73.7517 32.6895 73.7112 32.8549 73.667 33.0193C73.6226 33.1838 73.5746 33.3471 73.5228 33.5094C73.471 33.6716 73.4156 33.8326 73.3564 33.9923C73.2972 34.152 73.2345 34.3102 73.168 34.467C73.1016 34.6239 73.0317 34.7791 72.9581 34.9327C72.8846 35.0863 72.8076 35.2382 72.7271 35.3883C72.6466 35.5383 72.5628 35.6865 72.4755 35.8327C72.3882 35.979 72.2977 36.1232 72.2038 36.2652C70.7423 38.4694 68.2836 40.5953 65.6356 41.1166C65.4008 41.1629 65.1573 41.1959 64.9188 41.2173C65.3584 39.5662 65.5995 36.5896 65.504 34.8893L65.5498 34.8677C65.5462 34.7145 65.5445 34.5712 65.568 34.4195L65.5398 34.4091C65.294 34.4355 65.0355 34.4253 64.7879 34.4295C64.5393 34.495 64.3164 34.4152 64.0762 34.4538L64.0645 33.4018C62.5359 34.183 60.5547 35.0025 58.8195 34.7945C60.6002 35.8742 61.0986 35.9837 63.1662 36.2349C61.8134 36.5954 60.3855 36.2259 59.1984 35.5373C58.6559 35.2225 58.2227 34.7795 57.6123 34.6C58.0422 34.93 58.4148 35.2857 58.7174 35.7388C59.5676 37.0117 59.9263 39.2043 61.4348 39.8837C61.8495 40.0704 62.2976 40.0924 62.7389 40.1717C62.0213 40.3361 61.3854 40.3249 60.7404 39.9175C60.0486 39.4806 59.6371 38.793 59.264 38.0856C57.8791 35.4603 57.2356 33.443 53.7362 34.2085C52.8408 34.4045 52.01 34.7562 51.2264 35.2287C50.8848 35.4346 50.5517 35.677 50.195 35.8545C49.8405 36.0309 49.4635 36.1149 49.0952 36.2513C50.0859 36.1889 51.023 36.4209 52.0065 36.4198C53.9438 36.4175 55.4796 35.6591 57.3747 36.606C56.5148 36.5177 55.6758 36.4702 54.8127 36.5379C53.7089 36.6246 52.6831 36.8162 51.5674 36.7611C50.5534 36.5898 49.5109 36.6481 48.5027 36.429C48.4283 36.331 48.3741 36.2089 48.316 36.0999L48.225 35.8939L48.1156 35.5674C48.3525 35.4229 48.5849 35.2763 48.795 35.0938C49.7988 34.2222 50.3627 32.4477 50.4534 31.1577C50.6227 28.7511 49.5723 27.5752 48.0996 25.8763C47.268 24.9171 46.7639 23.843 46.856 22.5523C46.8647 22.6218 46.8749 22.691 46.8866 22.76C46.8984 22.829 46.9116 22.8977 46.9264 22.9661C46.9411 23.0345 46.9574 23.1026 46.9752 23.1703C46.9929 23.238 47.0121 23.3052 47.0328 23.3721C47.0535 23.4389 47.0757 23.5053 47.0993 23.5712C47.1229 23.6371 47.1479 23.7024 47.1745 23.7672C47.201 23.832 47.2289 23.8961 47.2582 23.9597C47.2875 24.0232 47.3182 24.0861 47.3502 24.1483C47.3823 24.2105 47.4158 24.272 47.4505 24.3327C47.4853 24.3935 47.5214 24.4534 47.5588 24.5125C47.5962 24.5717 47.6349 24.63 47.6749 24.6874C47.7149 24.7449 47.7561 24.8014 47.7985 24.857C47.841 24.9127 47.8847 24.9673 47.9295 25.021C47.9744 25.0748 48.0204 25.1275 48.0676 25.1791C48.1148 25.2309 48.1631 25.2815 48.2125 25.331C48.2619 25.3806 48.3123 25.4291 48.3639 25.4764C48.9158 25.9782 49.5066 26.4283 49.9879 27.003C51.2389 28.4973 51.3426 29.8488 51.1791 31.7102Z" fill="#4FDB40"/>
<path d="M69.6766 33.7979C68.6655 34.4143 66.7288 34.8421 65.55 34.8673C65.5463 34.7142 65.5446 34.5709 65.5682 34.4192C66.9527 34.3875 68.334 34.12 69.6766 33.7979Z" fill="#2D2D2D"/>
<path d="M65.4465 32.749C65.5436 33.2971 65.4941 33.8562 65.5401 34.4084C65.2944 34.4348 65.0359 34.4246 64.7883 34.4288C64.6724 34.435 64.5551 34.4571 64.45 34.3984C64.27 34.1479 64.3666 33.6239 64.3335 33.3104C64.6385 33.0886 65.1067 32.9318 65.4465 32.749Z" fill="white"/>
<path d="M55.0244 29.4502C55.0246 29.4918 55.0155 29.5298 55.0007 29.569C54.746 30.245 52.8943 32.734 52.3238 33.2346C52.0451 33.4792 51.655 33.6429 51.3241 33.8069C51.2977 33.4126 52.6823 32.2005 52.9743 31.9049C53.321 31.5537 53.6631 31.1919 53.9864 30.8189C54.3602 30.3877 54.6787 29.9043 55.0244 29.4502Z" fill="white"/>
<path d="M54.5549 33.1804C55.8008 33.0841 57.0346 33.5599 58.0719 34.2129C57.3548 34.0937 56.6756 33.8564 55.9742 33.6777C54.8744 33.3975 53.7642 33.6025 52.704 33.9416C52.2083 34.1356 51.7221 34.3434 51.2607 34.6115C50.8181 34.8686 50.4045 35.1708 49.9517 35.4109C50.0279 35.3334 50.1057 35.2576 50.1852 35.1834C50.2647 35.1092 50.3457 35.0368 50.4282 34.9661C50.5108 34.8954 50.5948 34.8265 50.6803 34.7594C50.7659 34.6923 50.8528 34.6271 50.941 34.5637C51.0294 34.5003 51.119 34.4389 51.2099 34.3793C51.3009 34.3198 51.393 34.2623 51.4864 34.2067C51.5799 34.1511 51.6744 34.0975 51.7701 34.046C51.8658 33.9944 51.9625 33.9449 52.0604 33.8975C52.1582 33.8502 52.257 33.8049 52.3567 33.7617C52.4565 33.7186 52.5571 33.6775 52.6586 33.6386C52.7601 33.5998 52.8624 33.5631 52.9655 33.5286C53.0686 33.4942 53.1724 33.4619 53.2768 33.4319C53.3813 33.4019 53.4863 33.3741 53.592 33.3486C53.6977 33.323 53.8038 33.2997 53.9105 33.2787C54.0171 33.2577 54.1241 33.239 54.2316 33.2226C54.339 33.2062 54.4468 33.1921 54.5549 33.1804Z" fill="white"/>
<path d="M48.2251 35.8938C50.0325 34.5857 51.5025 32.5129 52.1135 30.3593C52.1738 30.1468 52.4349 28.9829 52.4886 28.9189C52.5724 29.9564 51.8752 32.0103 51.377 32.9443C51.0828 33.4957 50.7108 34.0123 50.3074 34.4886C49.8671 35.0085 49.2916 35.61 48.692 35.9437C48.5728 36.0101 48.4391 36.0428 48.3161 36.0998L48.2251 35.8938Z" fill="white"/>
<path d="M63.0933 26.6129L64.0901 26.1553C64.1953 26.3858 64.2947 26.6189 64.3881 26.8545C64.4815 27.0901 64.569 27.3279 64.6504 27.5679C64.7318 27.8079 64.807 28.0498 64.8762 28.2936C64.9453 28.5374 65.0083 28.7829 65.065 29.0299C65.1217 29.2769 65.1721 29.5251 65.2163 29.7747C65.2604 30.0243 65.2982 30.2748 65.3297 30.5263C65.3612 30.7777 65.3863 31.0299 65.405 31.2826C65.4237 31.5353 65.436 31.7884 65.4419 32.0418C65.0761 32.1725 64.7256 32.3828 64.3828 32.5648C64.379 30.3211 64.0967 28.9471 63.1765 26.8772L63.0933 26.6129Z" fill="white"/>
<path d="M66.9046 30.8737C68.0445 29.7569 69.1547 28.623 70.1863 27.4041C70.7474 26.741 71.2346 25.9933 71.8255 25.3613C70.975 27.2745 69.4663 29.1765 67.9687 30.6255C69.3751 30.4125 70.7115 29.9046 72.0875 29.5631C71.1534 30.0345 70.1507 30.4304 69.1576 30.7568C68.5352 30.9613 67.8637 31.1016 67.2772 31.398C66.6126 31.7338 66.0148 32.2213 65.4362 32.6865C65.3761 32.4644 65.4012 32.2645 65.442 32.0416C65.4678 32.028 65.4915 32.0109 65.5155 31.9943C66.7711 31.1261 67.0999 28.758 67.3446 27.3409C67.3642 27.0296 67.3869 26.7202 67.4227 26.4104C67.5412 26.6189 67.5516 27.6775 67.5085 27.9425C67.4747 28.9098 67.2183 29.9573 66.9046 30.8737Z" fill="#2D2D2D"/>
<path d="M16.4557 29.6985C16.8065 28.7706 17.1592 27.8509 17.6121 26.9666C19.7981 22.6984 24.0336 17.5289 28.4963 15.5099C31.07 14.3454 34.2432 14.0211 36.9092 15.0268C38.7515 15.7218 40.475 17.3643 41.2853 19.1544C42.0133 20.7628 42.5303 23.7298 42.4922 25.5114C42.4724 26.4371 42.3351 27.3848 42.008 28.2546C41.6951 29.0861 41.1928 29.7724 40.5172 30.3474C40.0416 30.7522 39.5013 31.0481 38.9995 31.4143C37.9629 32.1709 37.353 33.2224 37.5181 34.5252C37.4494 34.5421 37.3813 34.5592 37.3132 34.5783C37.16 33.9942 37.1337 33.4265 37.2511 32.8333C37.3379 32.3946 37.4887 31.9569 37.7334 31.5802C38.0698 31.0622 38.5358 30.6784 38.9944 30.2753C39.8373 29.5347 40.7156 28.676 41.1694 27.6347C42.0444 25.6271 41.5746 22.314 40.7728 20.3136C40.0077 18.4047 38.6659 16.8328 36.7494 16.0259C34.5174 15.0863 31.6068 15.3725 29.4018 16.2792C25.5953 17.8446 21.9153 21.7507 19.8014 25.2056C19.1666 26.2429 18.6621 27.2874 18.1972 28.4109C17.9298 28.4813 17.648 28.5428 17.3886 28.6378C17.2728 28.6802 17.1804 28.7266 17.124 28.8421L17.1544 28.8878C17.4169 28.9496 17.7983 28.8212 18.058 28.7659C17.1719 31.2913 16.5733 33.8349 16.1237 36.4713C15.8284 38.2024 15.59 39.9209 15.5708 41.6799C15.556 43.0321 15.6453 44.3645 15.793 45.7083C16.2718 50.0635 17.6046 54.0985 20.7304 57.2867C22.5969 59.1906 26.286 61.6945 28.9781 61.7061C29.2601 61.7074 29.7734 61.695 29.9683 61.4692C30.0035 61.4283 29.9926 61.4331 29.9891 61.3771C29.9047 61.2643 29.7478 61.202 29.6098 61.1851C29.3668 61.1555 29.1045 61.2085 28.8572 61.2007C28.1655 61.1789 27.5736 61.0425 26.9213 60.8242C22.7862 59.4407 20.0826 57.0173 18.1484 53.1168C17.266 51.3374 16.7484 49.4361 16.4112 47.4861C16.0727 45.5292 15.8919 43.4964 15.9434 41.5096C15.9787 40.1504 16.1518 38.8149 16.3572 37.4723C16.467 36.7267 16.5934 35.9839 16.7365 35.2439C16.8795 34.504 17.0391 33.7676 17.2151 33.0348C17.3911 32.3019 17.5833 31.5734 17.7919 30.8492C18.0005 30.1249 18.2252 29.4058 18.4659 28.6916C18.8241 28.651 19.1807 28.5993 19.5356 28.5365C18.7956 30.2001 18.3108 31.9345 17.8758 33.6972C17.3651 35.7676 16.9409 37.8321 16.8437 39.9699C16.77 41.593 16.885 43.231 17.0065 44.8496C17.155 46.8291 17.4017 48.8151 17.9844 50.7192C18.6516 52.8997 19.7465 54.7909 21.2938 56.4639C21.6312 56.8287 22.0359 57.29 22.4764 57.5246C22.506 57.4403 22.4864 57.4053 22.4442 57.3301C22.0598 56.6452 21.4607 56.106 20.9519 55.5168C20.1268 54.5614 19.4323 53.3921 18.963 52.2199C17.969 49.7368 17.5516 47.1656 17.3683 44.5088C17.262 42.9675 17.1658 41.4087 17.2391 39.8639C17.3346 37.8555 17.7233 35.9344 18.1955 33.9855C18.6507 32.1069 19.1657 30.2965 19.9259 28.5149C21.0855 28.3709 22.3548 28.3592 23.4802 28.6985C24.9438 29.1398 25.7676 30.016 26.4682 31.3365L27.1808 32.8177C26.7766 32.5454 26.3502 32.3256 25.8795 32.1906C24.9894 31.918 23.9133 31.8638 22.9979 32.0163C23.9541 32.049 24.8318 32.1184 25.7422 32.4405C25.3692 33.0546 24.5363 36.1363 24.5345 36.8627C23.4536 35.4062 22.5663 33.9176 20.9883 32.9248L20.9555 32.9476L20.9563 32.8774L20.9218 32.9123C21.0775 33.0951 21.28 33.226 21.4545 33.39C21.7258 33.6449 21.9737 33.9564 22.2055 34.2477C23.0173 35.2673 23.6819 36.4034 24.4749 37.4374C24.1203 37.207 23.7697 36.9724 23.4326 36.7167C22.8221 36.2539 20.8104 34.5777 20.2305 34.4107C20.3551 34.6078 20.6675 34.7871 20.852 34.9464C21.9778 35.9181 23.0675 36.8751 24.269 37.7549C24.7958 37.9557 25.3165 38.1802 25.8423 38.3853C26.1929 38.5221 26.5918 38.6396 26.9222 38.8166C27.0033 38.9535 27.2364 38.9549 27.3681 39.0688C27.2829 39.0437 27.2041 39.0143 27.1207 38.9854C27.0972 38.9772 27.0732 38.9706 27.0494 38.9633L27.0264 39.0265C26.1809 38.791 25.1509 38.4581 24.365 38.073C23.7969 37.8627 23.2491 37.5671 22.6978 37.3143L19.0469 35.6349C20.134 36.4506 21.2938 37.0083 22.4806 37.6559C21.3657 37.4305 19.4301 37.1874 18.3198 37.52C19.679 37.548 20.9344 37.6947 22.2648 37.9688C20.9871 38.296 18.88 38.8839 18.184 40.1133C18.133 40.2036 18.0986 40.2764 18.1018 40.3825L18.1497 40.4191C18.1549 40.4002 18.1595 40.3811 18.1655 40.3625C18.3395 39.8139 19.2616 39.33 19.74 39.112C20.6769 38.6848 22.3844 38.1106 23.4358 38.2124C23.8516 38.2526 24.2553 38.4124 24.6441 38.5553C25.235 38.776 25.8243 39.0048 26.4217 39.2071C26.3494 39.3124 26.2862 39.3561 26.198 39.4424C26.1876 39.4527 26.181 39.4663 26.1725 39.4784C25.6423 39.4318 25.1132 39.3824 24.5809 39.3673C23.7777 39.3221 22.907 39.334 22.1112 39.4558C22.9062 39.5755 23.7262 39.5417 24.5269 39.6388C24.3987 40.4414 24.6008 42.736 24.9044 43.4725C23.7838 42.7727 23.0185 41.6001 21.9085 40.8806C22.2762 41.5699 23.7698 43.2182 24.4065 43.6634C24.6964 43.866 24.996 43.9749 25.3284 44.087C24.9988 44.3179 24.6519 44.5171 24.2501 44.5883C23.8523 44.6588 23.4183 44.6099 23.0163 44.583C21.6105 44.4886 20.1413 44.1378 18.7355 44.306C20.0949 44.4778 21.4626 44.7844 22.8265 44.8751C21.5796 45.0604 20.2315 45.2286 19.1545 45.9348C19.0618 45.9956 18.891 46.0802 18.821 46.1624C18.8098 46.1757 18.8041 46.1929 18.7956 46.2081C19.0101 46.1806 19.3399 45.9446 19.5558 45.8556C19.8388 45.7389 20.1272 45.6545 20.4248 45.5832C21.5497 45.3136 22.614 45.3014 23.7358 45.1385C22.7945 45.7753 21.7744 46.4674 20.9669 47.2682C22.1253 46.6648 23.286 45.6454 24.4619 45.146C24.784 45.0092 25.1248 44.9256 25.4645 44.8463C27.0271 44.4663 28.5198 44.0719 29.8637 43.1431L29.9651 43.2309C30.1407 43.0724 30.2724 43.0193 30.5072 42.9857C30.5152 43.1918 30.5647 43.3754 30.7217 43.5193C30.7797 43.5725 30.8276 43.6056 30.9056 43.6238C30.0889 44.3747 29.4227 45.2585 28.7272 46.1187C28.1579 46.8227 27.5563 47.5067 27.0865 48.2832C26.5833 49.222 26.2697 50.193 25.8848 51.1807C25.6691 51.7343 25.4109 52.268 25.1715 52.8113C25.9844 52.0667 26.8512 49.3565 27.5602 48.2267L27.7365 47.9477C28.0263 48.4478 29.0859 48.8912 29.6324 49.0217C29.6924 49.036 29.7437 49.0329 29.8051 49.0341C29.8331 49.0346 29.8612 49.0376 29.8892 49.0395L29.9518 49.0432C30.454 49.0006 30.8513 48.8538 31.2501 48.5447C30.9837 49.9543 29.636 51.2614 29.9946 52.7707L30.0344 52.7752C30.2019 52.401 30.1889 51.963 30.3487 51.5846C30.7022 50.7474 31.2406 49.9961 31.6274 49.1733C31.8165 50.394 31.6226 51.4254 31.2326 52.5747C32.3333 51.269 32.0519 49.5617 31.9849 47.9968C32.2948 48.8704 32.6922 49.6873 33.0641 50.5335C33.2638 50.9878 33.4293 51.4831 33.6839 51.9074C33.6282 51.5796 33.5585 51.2548 33.4749 50.933C33.3913 50.6112 33.2941 50.2935 33.1832 49.98C32.8251 48.9466 32.2544 47.9151 32.3098 46.7966C32.3903 45.9088 32.5094 45.1293 32.8734 44.3064C33.0587 43.7577 33.5357 43.1552 33.8975 42.7089C34.2304 42.8992 34.68 43.2327 35.0462 43.3155C35.0499 43.3262 35.0538 43.3369 35.0575 43.3477C35.2591 43.9449 35.3633 45.9742 35.7118 46.2886L35.7568 46.2569C35.808 45.8578 35.7691 45.2406 35.7155 44.8351C35.8777 44.7684 36.0889 44.7098 36.2352 44.6182C36.6467 44.9272 37.0258 45.271 37.4003 45.6232C40.0136 47.8481 42.0869 50.5991 42.3817 54.1334C42.5716 56.411 41.9555 58.7485 40.4588 60.5064C38.8008 62.454 35.8708 63.8374 33.3319 64.0335C33.1131 64.0499 32.8939 64.0587 32.6744 64.06C32.455 64.0613 32.2358 64.0549 32.0168 64.041C31.7978 64.0271 31.5795 64.0057 31.362 63.9767C31.1445 63.9477 30.9283 63.9111 30.7133 63.8671C27.7032 63.2607 23.658 61.1121 21.328 59.1018C21.179 58.9728 21.032 58.8415 20.887 58.7078C20.7421 58.5742 20.5994 58.4383 20.4587 58.3001C20.3181 58.1619 20.1797 58.0216 20.0435 57.8791C19.9073 57.7365 19.7734 57.5919 19.6418 57.4451C19.5102 57.2983 19.3809 57.1495 19.254 56.9987C19.127 56.8478 19.0025 56.695 18.8805 56.5402C18.7584 56.3854 18.6388 56.2287 18.5216 56.0702C18.4045 55.9116 18.2899 55.7512 18.1779 55.589C18.0658 55.4268 17.9563 55.2629 17.8494 55.0973C17.7426 54.9316 17.6383 54.7643 17.5367 54.5953C17.4351 54.4264 17.3362 54.2559 17.24 54.0838C17.1438 53.9118 17.0503 53.7382 16.9596 53.5632C16.8689 53.3882 16.7809 53.2117 16.6958 53.0339C16.6107 52.8561 16.5283 52.677 16.4488 52.4967C16.3693 52.3162 16.2927 52.1346 16.219 51.9518C16.1452 51.769 16.0744 51.585 16.0065 51.3999C15.689 50.5567 15.4476 49.6904 15.1851 48.8295L15.1255 48.5871C15.0044 48.0825 14.9091 47.5687 14.8061 47.0599L14.7863 47.2306C14.7762 47.3196 14.7769 47.391 14.7212 47.4663C14.6797 47.5222 14.6422 47.5086 14.5783 47.5165C14.4831 47.4424 14.3762 47.3054 14.3478 47.1876C14.3253 47.0938 14.2942 47.0171 14.2558 46.9286C14.251 46.5803 14.1866 46.0563 14.3347 45.7414C14.3861 45.6321 14.4709 45.5989 14.5748 45.5534L14.509 45.0612L14.4584 44.5967L14.4177 44.3123L14.4275 44.2512C14.2798 42.6501 14.4357 40.9994 14.4907 39.3958C14.6253 37.9842 14.7874 36.5757 14.977 35.1704C15.1069 34.6234 15.1937 34.0621 15.2942 33.5088C15.3506 33.263 15.413 33.0221 15.4862 32.7807L15.664 32.1214L15.7444 31.8711L15.8546 31.497C16.0473 30.8945 16.2387 30.2928 16.4557 29.6985Z" fill="#F2C94C"/>
<path d="M32.8737 44.3057C32.9944 44.5326 32.5071 46.2986 32.4005 46.6516C32.3821 46.7129 32.3545 46.7509 32.3101 46.7958C32.3905 45.908 32.5097 45.1286 32.8737 44.3057Z" fill="#FADE95"/>
<path d="M14.5748 45.5527C14.6445 46.0395 14.7878 46.5741 14.8061 47.0593L14.7863 47.2299C14.7762 47.319 14.7769 47.3904 14.7212 47.4656C14.6797 47.5216 14.6422 47.508 14.5783 47.5159C14.4831 47.4417 14.3762 47.3048 14.3478 47.187C14.3253 47.0932 14.2942 47.0164 14.2558 46.928C14.251 46.5797 14.1866 46.0557 14.3347 45.7408C14.3861 45.6314 14.4709 45.5983 14.5748 45.5527Z" fill="#4FDB40"/>
<path d="M30.5073 42.9854C30.5153 43.1914 30.5648 43.375 30.7218 43.5189C30.7798 43.5721 30.8277 43.6053 30.9057 43.6235C30.089 44.3743 29.4228 45.2581 28.7273 46.1183C28.158 46.8223 27.5564 47.5063 27.0866 48.2829C27.0405 48.2338 27.0034 48.1754 26.9641 48.1207C26.0269 49.1946 25.1272 50.2203 24.0139 51.1236C24.5448 50.3223 25.2764 49.6201 25.8892 48.8775C24.5975 49.5404 23.1109 49.6297 21.6914 49.4224C22.1253 49.31 22.5877 49.2779 23.0303 49.2046C23.9502 49.0524 25.6413 48.6571 26.3881 48.0999C26.6652 47.8932 26.8752 47.6207 27.0941 47.3562C27.6799 46.6206 28.2364 45.8355 28.7492 45.0476C29.1831 44.381 29.457 43.8695 29.9652 43.2305C30.1408 43.072 30.2725 43.0189 30.5073 42.9854Z" fill="#2D2D2D"/>
<path d="M30.5071 42.9854C30.5151 43.1914 30.5646 43.375 30.7216 43.5189C30.7796 43.5721 30.8275 43.6053 30.9055 43.6235C30.0888 44.3743 29.4226 45.2581 28.7271 46.1183C28.1578 46.8223 27.5562 47.5063 27.0864 48.2829C27.0403 48.2338 27.0032 48.1754 26.9639 48.1207C27.8756 46.9922 28.6859 45.7897 29.4918 44.5852C29.8332 44.0747 30.25 43.5436 30.5071 42.9854Z" fill="url(#paint4_linear_1114_54866)"/>
<path d="M29.8635 43.1426L29.965 43.2303C29.4567 43.8693 29.1829 44.3808 28.749 45.0474C28.2362 45.8353 27.6797 46.6204 27.0938 47.356C27.0053 47.3051 26.9119 47.2543 26.8301 47.193C26.3958 46.868 25.5363 45.3845 25.4644 44.8457C27.0269 44.4658 28.5196 44.0713 29.8635 43.1426Z" fill="#FADE95"/>
</g>
<defs>
<linearGradient id="paint0_linear_1114_54866" x1="27.0075" y1="41.6803" x2="32.1054" y2="42.6814" gradientUnits="userSpaceOnUse">
<stop stop-color="#FFE499"/>
<stop offset="1" stop-color="#FFFFFE"/>
</linearGradient>
<linearGradient id="paint1_linear_1114_54866" x1="30.7979" y1="36.2118" x2="31.5894" y2="35.2728" gradientUnits="userSpaceOnUse">
<stop stop-color="#FFDF8B"/>
<stop offset="1" stop-color="#FFF6CE"/>
</linearGradient>
<linearGradient id="paint2_linear_1114_54866" x1="39.3025" y1="20.6296" x2="33.3569" y2="36.2666" gradientUnits="userSpaceOnUse">
<stop stop-color="#FAD775"/>
<stop offset="1" stop-color="#F6DDA9"/>
</linearGradient>
<linearGradient id="paint3_linear_1114_54866" x1="59.1809" y1="25.6983" x2="59.8418" y2="25.707" gradientUnits="userSpaceOnUse">
<stop stop-color="#297F3B"/>
<stop offset="1" stop-color="#3B6A49"/>
</linearGradient>
<linearGradient id="paint4_linear_1114_54866" x1="29.7774" y1="45.9949" x2="29.0114" y2="43.6537" gradientUnits="userSpaceOnUse">
<stop stop-color="#FFE78A"/>
<stop offset="1" stop-color="#FFF7D5"/>
</linearGradient>
<clipPath id="clip0_1114_54866">
<rect width="80" height="80" fill="white"/>
</clipPath>
</defs>
</svg>
