<svg width="80" height="80" viewBox="0 0 80 80" fill="none" xmlns="http://www.w3.org/2000/svg">
<g clip-path="url(#clip0_1061_3024)">
<path d="M46.9843 56.04C47.0411 56.0551 47.0938 56.0802 47.1479 56.1028C47.1972 56.21 47.1745 56.245 47.1512 56.3581C47.0725 56.3335 47.0093 56.3023 46.9378 56.2613C46.908 56.152 46.9319 56.1426 46.9843 56.04Z" fill="white"/>
<path d="M46.9568 55.5225C47.0219 55.5328 47.0853 55.5488 47.1495 55.5639C47.2197 55.6665 47.1966 55.7255 47.1909 55.8475C47.1248 55.8363 47.0608 55.8191 46.9959 55.8028C46.9268 55.7015 46.9504 55.6426 46.9568 55.5225Z" fill="white"/>
<path d="M51.8973 47.2461C51.957 47.2634 52.049 47.2954 52.0948 47.3411C52.179 47.4252 52.1684 47.4568 52.1593 47.5657C52.0421 47.5712 52.0271 47.569 51.9249 47.5116C51.8727 47.3957 51.8796 47.3738 51.8973 47.2461Z" fill="#F2C94C"/>
<path d="M11.1023 47.9238C11.1101 47.9267 11.1185 47.9283 11.1256 47.9326C11.2282 47.9945 11.2805 48.0324 11.2979 48.1484L11.1667 48.2343C11.1562 48.2351 11.1456 48.2381 11.1352 48.2366C11.0498 48.2245 11.0273 48.2071 10.9766 48.1445C10.983 48.0275 11.0252 48.0086 11.1023 47.9238Z" fill="white"/>
<path d="M47.0836 54.9102C47.1625 54.958 47.1841 54.9959 47.2246 55.0778C47.2266 55.2 47.208 55.2477 47.1517 55.3512C47.0701 55.3098 47.0277 55.2785 46.9707 55.2066C46.9738 55.0728 47.0169 55.0241 47.0836 54.9102Z" fill="white"/>
<path d="M51.5527 46.8125C51.6325 46.8569 51.6941 46.9151 51.761 46.976C51.7823 47.1073 51.7566 47.1107 51.6832 47.2156C51.5916 47.1773 51.5424 47.1404 51.4728 47.0698C51.4572 46.9339 51.4813 46.9238 51.5527 46.8125Z" fill="#F2C94C"/>
<path d="M52.3729 47.5947C52.473 47.6239 52.5296 47.6341 52.6004 47.7157C52.586 47.8464 52.5364 47.8886 52.4586 47.9924C52.3749 47.957 52.3399 47.9228 52.2823 47.853C52.2807 47.7231 52.3055 47.7015 52.3729 47.5947Z" fill="#F2C94C"/>
<path d="M52.9237 48.0723C53.0081 48.1185 53.0197 48.1499 53.0708 48.2334C53.0618 48.3777 53.0531 48.3811 52.9584 48.4919C52.8651 48.4436 52.8124 48.4163 52.748 48.3298C52.7702 48.205 52.8377 48.1629 52.9237 48.0723Z" fill="#F2C94C"/>
<path d="M24.6952 48.8916L24.8806 49.1638C24.8668 49.2336 24.8533 49.2897 24.8228 49.3547C24.8148 49.3718 24.8057 49.3884 24.7972 49.4053L24.8728 49.5896C24.7967 49.5842 24.7245 49.5742 24.6494 49.5603C24.6061 49.5021 24.5667 49.4398 24.5478 49.3688C24.4942 49.1679 24.5932 49.0506 24.6952 48.8916Z" fill="white"/>
<path d="M15.7479 42.8623C15.8288 42.9205 15.8779 43.0482 15.9106 43.1384C15.9146 43.1493 15.9183 43.1604 15.9222 43.1714L16.0906 43.2176C15.8628 43.3151 15.8417 43.405 15.7438 43.6214L15.7202 43.5632C15.7035 43.5213 15.6882 43.4785 15.6666 43.4387C15.6125 43.3395 15.4977 43.2546 15.3919 43.2189L15.403 43.2961L15.3247 43.2187C15.4166 43.2178 15.4889 43.2064 15.5775 43.1821L15.5753 43.0935C15.6382 43.0189 15.6926 42.9425 15.7479 42.8623Z" fill="white"/>
<path d="M55.7877 65.418C55.8613 65.4238 55.9534 65.4365 56.0158 65.4784C56.0938 65.5308 56.1356 65.6062 56.1339 65.7002C56.1318 65.8168 56.0483 65.9003 55.9743 65.9794C55.9127 65.967 55.84 65.9567 55.783 65.9303C55.6889 65.8869 55.6688 65.818 55.6387 65.7273C55.6565 65.5916 55.7055 65.5253 55.7877 65.418Z" fill="white"/>
<path d="M18.0103 49.584C17.7267 50.0916 16.9245 50.7681 16.4568 51.1471L16.3558 51.0774L16.3091 51.0409C16.3931 50.967 16.4588 50.8825 16.5281 50.7954C17.0421 50.4118 17.5293 50.0083 18.0103 49.584Z" fill="#14BC32"/>
<path d="M60.2714 60.5459C60.4486 60.5654 60.643 60.6012 60.75 60.7623C60.8188 60.866 60.8436 60.9721 60.8128 61.0943C60.7617 61.2973 60.6357 61.38 60.4626 61.4793C60.4398 61.4777 60.417 61.4765 60.3944 61.4744C60.245 61.4607 60.1082 61.3866 60.021 61.2632C59.9478 61.1595 59.9251 61.0329 59.9529 60.9096C59.9965 60.7158 60.1098 60.64 60.2714 60.5459Z" fill="white"/>
<path d="M11.9518 41.9492C11.9826 41.9512 12.0136 41.9532 12.0444 41.9562C12.2096 41.9724 12.3469 42.021 12.4483 42.1598C12.521 42.2592 12.5428 42.3819 12.517 42.5016C12.4716 42.7127 12.3506 42.8121 12.1761 42.9241C12.1126 42.9245 12.0504 42.9255 11.9879 42.913C11.8651 42.8884 11.7489 42.7966 11.6831 42.6916C11.6054 42.5678 11.5907 42.4158 11.6334 42.2768C11.6861 42.1048 11.801 42.0316 11.9518 41.9492Z" fill="white"/>
<path d="M55.6201 52.3057L55.6889 52.3336C55.7794 52.5518 55.8778 52.7668 55.931 52.9975L55.8848 53.0174L55.8212 52.9223C55.7102 52.9774 55.376 53.51 55.2668 53.6456L55.0117 53.9396C55.07 53.4586 55.1211 52.9779 55.1657 52.4956C55.3191 52.4373 55.4693 52.3705 55.6201 52.3057Z" fill="white"/>
<path d="M39.9954 9.49707C40.1674 10.4579 40.3155 12.3359 40.1436 13.2723L39.8824 13.2705C39.7529 12.3965 39.8813 10.405 39.9954 9.49707Z" fill="#4FDB40"/>
<path d="M58.355 63.2461C58.4555 63.249 58.5678 63.2471 58.6634 63.2805C58.7999 63.3282 58.9168 63.4384 58.9795 63.5678C59.0475 63.7081 59.0503 63.8677 58.9921 64.0119C58.9137 64.2059 58.7746 64.2926 58.5914 64.3756C58.5122 64.3722 58.4301 64.37 58.3519 64.3556C58.2087 64.3291 58.0748 64.2265 57.9993 64.1039C57.9209 63.9765 57.9001 63.8218 57.9424 63.6782C58.0097 63.4501 58.1529 63.3511 58.355 63.2461Z" fill="white"/>
<path d="M58.3076 24.333C58.5538 24.5143 58.7807 24.7369 58.9953 24.9548C60.3033 26.2823 60.9832 28.005 60.9745 29.8666C60.9511 29.8494 60.894 29.7966 60.8794 29.7725C60.8208 29.6758 60.7754 29.0687 60.7429 28.9127C60.6042 28.245 60.3978 27.5664 60.1104 26.9471C59.9121 26.5193 59.6646 26.1173 59.366 25.7519C58.9907 25.2926 58.532 24.8959 58.3076 24.333Z" fill="#4FDB40"/>
<path d="M20.6592 24.999L20.6801 25.0451C20.5349 25.2776 19.4763 26.0712 19.197 26.348C17.2595 28.2675 16.4998 31.1187 17.6376 33.6657C17.7842 33.9939 18.4344 34.9632 18.4103 35.2313C18.4089 35.2476 18.4034 35.2633 18.3999 35.2793C18.169 34.9445 17.9589 34.5754 17.7569 34.2218C16.9281 32.7712 16.732 31.0798 17.1746 29.4693C17.6563 27.7162 19.0819 25.8982 20.6592 24.999Z" fill="#4FDB40"/>
<path d="M11.5625 58.96C11.8127 59.6117 11.9755 60.2526 12.3507 60.8555C12.9895 61.8821 14.1015 62.6387 15.2716 62.9269C15.6249 63.0139 16.0002 63.0136 16.3483 63.1043C16.3634 63.1082 16.3781 63.1133 16.393 63.1178C17.9371 63.1538 19.5007 63.0529 20.9818 62.5719C21.4413 62.4227 21.8598 62.1549 22.3272 62.0242C20.7952 63.061 17.313 63.4614 15.4905 63.1986C14.55 63.0348 13.5959 62.5858 12.8884 61.9411C12.028 61.1571 11.6227 60.1042 11.5625 58.96Z" fill="#4FDB40"/>
<path d="M25.4888 53.6973C25.8219 53.9034 26.128 54.1884 26.4295 54.4388C27.4321 55.2718 28.3108 56.0892 28.9817 57.2248C29.1413 57.4948 29.3134 57.7959 29.3992 58.0994L29.3562 58.1276L29.3628 58.12L29.32 58.0839C28.9811 57.5653 28.4856 57.1244 28.03 56.7084C27.0985 55.8581 25.9872 54.8836 25.4888 53.6973Z" fill="#FA8A16"/>
<path d="M13.3431 45.5566C13.4981 45.5683 13.6542 45.5909 13.7916 45.668C14.0013 45.7858 14.1498 45.9798 14.214 46.211C14.2823 46.457 14.2419 46.7308 14.1081 46.9477C13.952 47.2005 13.7495 47.297 13.4703 47.3658C13.2785 47.3612 13.1072 47.3421 12.938 47.2439C12.7302 47.1233 12.5798 46.9235 12.5235 46.6897C12.4676 46.4573 12.5062 46.2036 12.6325 46.0004C12.8025 45.7268 13.0379 45.6198 13.3431 45.5566Z" fill="white"/>
<path d="M23.7219 60.9266L23.6922 60.9477C23.6632 60.9285 23.6491 60.9222 23.6262 60.8906C23.4963 60.713 23.4233 60.4271 23.345 60.2212C22.8335 58.8771 22.656 57.738 23.0012 56.3082C23.0843 55.9641 23.4998 54.5444 23.7954 54.3633C23.8364 54.4545 23.8055 54.535 23.7851 54.6284L23.7745 54.6755C23.4532 56.6021 23.0836 59.0355 23.7219 60.9266Z" fill="#FA8A16"/>
<path d="M36.1893 63.7478C36.0689 63.5013 36.4215 62.5836 36.5168 62.3038C36.9805 60.9428 37.6167 60.4028 38.6242 59.4486C38.8323 59.2514 39.1074 58.9143 39.3538 58.7939C39.3866 58.8563 39.3247 58.9855 39.3043 59.0553C38.4622 60.7555 36.811 62.1507 36.1893 63.7478Z" fill="#F2C94C"/>
<path d="M56.6289 21.9111C56.8501 21.9593 57.0928 22.0856 57.2964 22.1856C59.1877 23.1143 61.0977 24.8907 61.782 26.9153C62.3872 28.7059 62.2587 30.1486 61.4366 31.8196L61.3782 31.8803L61.3359 31.8555C61.3499 31.4873 61.641 31.056 61.7298 30.6815C62.1385 28.957 61.8477 27.1888 60.9268 25.6792C60.1413 24.3916 58.623 22.9403 57.1243 22.5743C56.9659 22.3481 56.7843 22.14 56.6289 21.9111Z" fill="#4FDB40"/>
<path d="M57.5151 23.0312C57.5394 23.037 57.564 23.0414 57.5878 23.0485C57.9221 23.1485 58.243 23.3916 58.5162 23.5991C59.4279 24.2921 60.196 25.1105 60.7448 26.124C61.5367 27.5863 61.7258 29.2213 61.2612 30.8098C61.2394 30.8836 61.261 30.8549 61.197 30.8962C61.1243 30.5704 61.2334 30.1344 61.2637 29.7987C61.3653 28.6741 61.0658 27.5468 60.5603 26.5479C60.113 25.6641 59.0044 24.1618 58.0312 23.8391C57.8517 23.5735 57.6765 23.3083 57.5151 23.0312Z" fill="#4FDB40"/>
<path d="M54.7599 54.0713L54.7788 54.0844L54.7843 54.1461C54.5872 54.4075 54.3274 54.6414 54.0903 54.8675C53.0241 55.8843 51.7824 56.6597 50.7066 57.6611L50.6743 57.614C50.758 57.3449 50.9288 57.0684 51.07 56.8237C51.8241 55.5175 53.3133 54.4518 54.7599 54.0713Z" fill="#FA8A16"/>
<path d="M40.6016 58.8164C40.6266 58.8288 40.6698 58.8491 40.6954 58.8655C40.9755 59.0462 41.2205 59.3497 41.4795 59.5688C43.1009 60.9397 43.3034 61.5222 43.7103 63.6017C43.4348 63.2716 43.2657 62.8127 43.0077 62.4577C42.1422 61.2672 40.9743 60.3005 40.6016 58.8164Z" fill="#F2C94C"/>
<path d="M19.6269 26.9092C19.3872 27.4561 19.1387 27.9906 18.9267 28.5498C18.5411 29.9877 18.4811 31.0375 18.5261 32.5078C18.5617 32.725 18.6902 33.1448 18.5709 33.3304C18.6671 33.57 18.6662 33.8697 18.6704 34.125C18.4792 33.6656 18.3015 33.1707 18.1752 32.6897C18.1027 32.4944 18.046 32.2834 18.0215 32.0768C17.9966 31.9949 17.9748 31.9145 17.9593 31.8302C17.7351 30.6177 17.9357 29.287 18.6488 28.2631C18.9565 27.8004 19.2951 27.3548 19.6269 26.9092Z" fill="#4FDB40"/>
<path d="M18.6927 28.4717L18.708 28.6104C18.3569 29.841 18.247 31.1228 18.3387 32.3985L18.3632 32.5453C18.3071 32.465 18.276 32.3829 18.2384 32.293C18.2308 32.1638 18.1908 32.0364 18.1596 31.9107C18.1505 31.6415 18.081 31.365 18.0629 31.0927C18.0011 30.1628 18.2238 29.2753 18.6927 28.4717Z" fill="#2D2D2D"/>
<path d="M56.1964 53.8665C56.1599 53.7177 56.1214 53.5697 56.0811 53.4219C57.0929 54.6534 57.4964 56.4214 57.3486 57.9873C57.2417 59.1202 56.8849 60.1166 56.3318 61.1029C56.1951 61.3468 56.0218 61.6684 55.8202 61.8618C55.7813 61.8991 55.7739 61.9009 55.7334 61.9241L55.7356 61.8623C56.5118 60.4944 57.0326 58.2795 56.7605 56.7126C56.7673 55.7835 56.4689 54.7483 56.1964 53.8665Z" fill="#FA8A16"/>
<path d="M32.7078 56.5068L32.8693 56.5333C33.106 56.685 33.2635 57.1748 33.4017 57.4292C33.7006 57.5176 34.0131 57.5738 34.3176 57.6407C34.0974 57.905 33.8406 58.1338 33.6253 58.4038L33.6699 59.3865C33.3787 59.2511 33.1031 59.0814 32.8256 58.92C32.5273 59.0997 32.2274 59.2603 31.9132 59.4103C31.9069 59.0891 31.9463 58.7635 31.9719 58.4433C31.7326 58.1586 31.4827 57.8819 31.2407 57.5993C31.5513 57.5503 31.8602 57.4956 32.1691 57.4369C32.3893 57.1636 32.5442 56.816 32.7078 56.5068Z" fill="#F2C94C"/>
<path d="M16.3558 51.0771L16.4569 51.1468C15.8169 51.6922 15.1256 52.1715 14.4788 52.7075C12.6695 54.2068 11.5698 55.848 11.3801 58.2311C11.267 59.6531 11.6053 61.0993 12.5563 62.1986C12.8475 62.5352 13.1821 62.8686 13.5226 63.1554C13.7481 63.3454 14.0294 63.5089 14.2173 63.7357C14.1715 63.7526 14.152 63.7399 14.1054 63.7296C13.4261 63.3407 12.8019 62.8921 12.289 62.2944C11.2862 61.1257 10.9176 59.5071 11.0381 57.9965C11.2383 55.4855 12.4351 53.9568 14.4175 52.5063C15.0419 52.0493 15.7222 51.6267 16.3064 51.1205L16.3558 51.0771Z" fill="#4FDB40"/>
<path d="M64.1653 25.5032C63.6711 24.4478 63.1469 23.5208 62.3403 22.6645C62.0861 22.3947 61.4363 21.8666 61.2808 21.6016C61.5103 21.6762 61.7159 21.8904 61.8949 22.0501C62.7489 22.8115 63.4503 23.662 63.9735 24.6833C64.1039 24.9378 64.2855 25.2467 64.349 25.5249C64.9049 26.6099 65.1692 28.4494 65.0822 29.6619C64.901 32.1858 63.5141 34.9327 61.6109 36.5751L61.5926 35.9155C62.563 35.1459 63.3369 34.0436 63.8738 32.9328C65.0097 30.5826 65.0051 27.9386 64.1653 25.5032Z" fill="#4FDB40"/>
<path d="M46.8615 56.5215C46.9376 56.5193 47.0028 56.5158 47.0778 56.5316C47.2761 56.5734 47.4645 57.2109 47.5903 57.4065L47.6188 57.45C47.9331 57.5488 48.2935 57.5793 48.6195 57.6346C48.4473 57.8811 48.2636 58.108 48.0656 58.3343C48.1192 58.6572 48.1998 58.9756 48.2741 59.2941C47.9903 59.2014 47.7118 59.1342 47.4182 59.0808C47.3208 59.3317 47.2029 59.5683 47.081 59.8081C46.8854 59.6559 46.726 59.2928 46.5996 59.0747L45.7779 59.2649L46.0666 58.3955C45.8582 58.1502 45.6627 57.9001 45.4731 57.64C45.7901 57.5459 46.1392 57.511 46.4655 57.4598C46.6367 57.1613 46.7511 56.8462 46.8615 56.5215Z" fill="#F2C94C"/>
<path d="M54.4824 19.7383C56.3984 20.1856 57.3751 21.0129 58.8438 22.2012C59.4135 22.6623 60.0025 23.1098 60.5496 23.5975C61.9503 24.846 63.1181 26.5736 63.2212 28.4957C63.3123 30.1934 62.6823 31.8772 61.5569 33.1359L61.481 33.2202L61.4269 33.2142C61.3761 32.988 62.1753 31.907 62.3241 31.5986C62.5775 31.0737 62.7496 30.4732 62.8356 29.8977C62.9653 29.0298 62.9592 28.1363 62.7261 27.2851C62.5685 26.7097 62.2805 26.1678 61.9742 25.6594C61.0301 24.0923 59.9192 23.0409 58.3289 22.1481C57.9401 21.9298 57.5302 21.7291 57.113 21.571C56.7439 21.4312 56.3002 21.3257 55.9659 21.117C55.6412 20.9145 55.363 20.6195 55.0873 20.3566C54.9039 20.1818 54.6638 19.9952 54.5176 19.7894C54.5056 19.7725 54.4941 19.7553 54.4824 19.7383Z" fill="#4FDB40"/>
<path d="M24.4576 49.7374C24.7582 49.7056 24.9961 49.7276 25.2664 49.8681C25.6587 50.072 25.981 50.4637 26.1018 50.8893C26.2032 51.246 26.1575 51.6322 25.9707 51.9534C25.7653 52.3064 25.4557 52.4791 25.0746 52.5823C24.7937 52.6093 24.5133 52.6097 24.244 52.5153C23.8873 52.3902 23.6103 52.1262 23.4561 51.782C23.2993 51.4321 23.2723 51.0268 23.4121 50.667C23.5983 50.1876 24.0053 49.9281 24.4576 49.7374Z" fill="white"/>
<path d="M24.5126 50.0405C24.7537 50.0256 24.965 50.0574 25.1793 50.1746C25.4795 50.3388 25.7121 50.622 25.7958 50.956C25.8567 51.1995 25.8318 51.4602 25.7008 51.677C25.53 51.9595 25.2742 52.0682 24.9675 52.1469C24.7399 52.1596 24.5044 52.1719 24.2876 52.0892C24.0293 51.9907 23.8191 51.8082 23.7072 51.553C23.5955 51.2986 23.5986 51.0065 23.7029 50.7505C23.856 50.3748 24.1566 50.1889 24.5126 50.0405Z" fill="#2D2D2D"/>
<path d="M24.419 50.5254C24.4803 50.5449 24.5341 50.5905 24.5873 50.6266C24.6551 50.6318 24.7054 50.6402 24.7696 50.6115C24.8037 50.5962 24.8357 50.5766 24.8691 50.5598C24.9623 50.589 25.0382 50.6161 25.1101 50.6849C25.2062 50.7769 25.2473 50.9058 25.2494 51.0363C25.2536 51.2768 25.1836 51.3981 25.0207 51.5671C24.9262 51.6116 24.8376 51.6518 24.7326 51.6637C24.5762 51.6813 24.3977 51.6248 24.2866 51.5113C24.1762 51.3986 24.1274 51.231 24.1265 51.0766C24.1251 50.8264 24.2551 50.6978 24.419 50.5254Z" fill="white"/>
<path d="M24.452 50.9444C24.6322 50.9386 24.8084 50.9086 24.9501 51.0433C24.9976 51.0885 25.0091 51.1337 25.0032 51.2003C24.9933 51.3104 24.8944 51.4079 24.8247 51.4869C24.6866 51.5113 24.5786 51.5282 24.4599 51.4378C24.384 51.3799 24.3299 51.313 24.3268 51.2135C24.3231 51.0899 24.3761 51.0293 24.452 50.9444Z" fill="#2D2D2D"/>
<path d="M39.7719 55.5945C40.1273 55.5708 40.4848 55.5801 40.8062 55.7539C41.1083 55.9173 41.3105 56.2023 41.3966 56.532C41.5005 56.9303 41.4423 57.3757 41.2323 57.7304C40.9934 58.1339 40.6462 58.3287 40.204 58.4353C39.8949 58.4677 39.6473 58.4099 39.3762 58.2507C38.9859 58.0217 38.6908 57.6207 38.5797 57.1832C38.4942 56.847 38.5258 56.4982 38.7148 56.202C38.9627 55.8134 39.3451 55.6846 39.7719 55.5945Z" fill="white"/>
<path d="M40.0177 55.875C40.3302 55.8921 40.5913 55.9364 40.8299 56.1558C41.038 56.3473 41.1405 56.6216 41.1512 56.9002C41.1628 57.2038 41.0692 57.5162 40.8576 57.7395C40.6117 57.9988 40.3548 58.0503 40.0142 58.0652C39.7589 58.022 39.5406 57.948 39.3355 57.7855C39.0729 57.5775 38.8882 57.2656 38.8615 56.9287C38.8419 56.6816 38.9153 56.439 39.0813 56.253C39.3305 55.9737 39.6625 55.9039 40.0177 55.875Z" fill="#2D2D2D"/>
<path d="M39.7134 56.3154L39.7373 56.3374C39.7466 56.4145 39.7523 56.3849 39.7251 56.4566C39.6548 56.642 39.586 56.7621 39.6677 56.9593C39.7484 57.0457 39.8245 57.1007 39.9417 57.13C40.0344 57.153 40.1336 57.1429 40.2119 57.085C40.3495 56.9831 40.4009 56.8215 40.4266 56.6597C40.4393 56.5795 40.4427 56.5497 40.4806 56.4751L40.5323 56.4861C40.6907 56.6291 40.7555 56.7594 40.7892 56.9698C40.7537 57.0688 40.7066 57.1811 40.6388 57.2622C40.5105 57.4155 40.3009 57.5064 40.1034 57.515C39.9054 57.5236 39.6964 57.4564 39.5532 57.3163C39.4426 57.208 39.3786 57.0641 39.3825 56.9084C39.3887 56.6605 39.5433 56.4781 39.7134 56.3154Z" fill="white"/>
<path d="M39.9339 6.77051C40.2604 6.8313 40.3661 7.54937 40.4589 7.836C41.1671 10.0238 42.4977 11.9711 44.1899 13.5169C44.7282 14.0087 45.3135 14.4433 45.8624 14.9226C45.6671 14.8585 45.4823 14.7794 45.2992 14.6862C43.5167 13.7786 41.802 11.6483 40.8996 9.88155C40.5289 9.15608 40.261 8.411 40.0091 7.63768L39.8222 8.17319C39.6404 8.68569 39.4275 9.17608 39.1768 9.65811C38.0517 11.8215 35.9937 14.3899 33.6157 15.142C33.9842 14.8694 34.369 14.6233 34.7307 14.3403C36.6176 12.864 38.1312 11.0944 39.1176 8.89694C39.3371 8.40811 39.6808 7.08262 39.9339 6.77051Z" fill="#4FDB40"/>
<path d="M16.5283 50.7949C16.459 50.882 16.3933 50.9665 16.3093 51.0404C15.4812 51.6523 14.5852 52.1741 13.7623 52.7919C12.2466 53.9301 10.9835 55.5833 10.6949 57.4958C10.4627 59.0355 10.7485 60.693 11.6901 61.9556C12.0816 62.4808 13.0342 63.4977 13.6672 63.6881C14.1125 63.9554 14.6016 64.0965 15.0998 64.2314C15.6018 64.3127 16.1013 64.3867 16.6115 64.38C19.145 64.3468 21.8019 63.1006 23.8175 61.6109C23.8427 61.5923 23.8676 61.5731 23.8922 61.5537C23.9626 61.6643 24.0311 61.7768 24.1076 61.8833C21.7791 63.5866 18.4668 65.0086 15.5438 64.5448C15.3138 64.5084 15.0197 64.4688 14.8068 64.3773C13.3839 64.0714 12.0063 62.9678 11.2296 61.7627C10.3524 60.4014 10.1933 58.6845 10.5327 57.1278C11.2482 53.8453 13.9543 52.4502 16.5283 50.7949Z" fill="#4FDB40"/>
<path d="M24.0337 54.0615L24.041 54.1282C24.1378 55.0585 24.0801 56.0168 24.1214 56.9529C24.2514 59.8985 24.8586 61.8022 26.9449 63.9321C27.3418 64.3372 27.776 64.6999 28.186 65.0904C26.5235 64.298 24.6653 63.1896 24.0283 61.3469C23.9621 61.1552 23.8989 60.9553 23.8557 60.757C23.3289 58.7785 23.6104 56.6669 23.9265 54.6811C23.9741 54.4749 24.0057 54.2711 24.0337 54.0615Z" fill="#FA8A16"/>
<path d="M39.3502 59.1458L39.5641 58.8037C39.3838 59.9479 38.8515 61.0262 38.3257 62.0454C36.9096 64.7905 36.3139 66.9987 37.121 70.1023C36.1746 68.4821 35.6438 66.3783 36.1357 64.5232C36.2181 64.2125 36.3305 63.9054 36.4586 63.6108C37.2154 61.9993 38.5528 60.7364 39.3502 59.1458Z" fill="#F2C94C"/>
<path d="M21.3415 23.9414L21.4391 23.9584C21.433 24.0361 21.408 24.042 21.3488 24.088C21.0455 24.3241 20.6624 24.5138 20.3328 24.7186C19.7316 25.092 19.1937 25.4976 18.6726 25.9786C16.2444 28.2202 15.332 31.3162 17.1597 34.2661C17.3685 34.6031 17.6055 34.9219 17.8611 35.2248C18.0234 35.4173 18.2294 35.6152 18.3608 35.8301C18.405 35.9023 18.432 35.9635 18.4285 36.0498L18.3551 36.0462C17.9651 35.8029 17.5686 35.3487 17.2922 34.9811C16.2762 33.6301 15.6933 31.8054 15.9533 30.1174C16.2502 28.1895 17.3848 26.608 18.8987 25.4332C19.2796 25.1376 19.6963 24.9058 20.0826 24.6217L20.1192 24.5945C19.4158 24.8397 18.7898 25.259 18.2219 25.7334C17.7671 26.125 17.3177 26.5306 16.9373 26.9966C15.7605 28.4381 15.0691 30.518 15.2646 32.379C15.4183 33.8423 16.2473 35.1808 17.3533 36.1265C17.6873 36.412 18.1255 36.6433 18.4323 36.9477C18.5223 37.0371 18.5113 37.0934 18.523 37.2113L18.475 37.2436C18.4236 37.2298 18.4111 37.2284 18.3566 37.2015C18.1502 37.0994 17.9372 36.9258 17.7507 36.7907C16.6478 35.992 15.7189 34.9301 15.2529 33.6362C14.6501 31.9627 14.9198 30.0799 15.6735 28.5031C16.9293 25.876 18.7087 24.869 21.3415 23.9414Z" fill="#4FDB40"/>
<path d="M40.4312 58.667C40.4629 58.6904 40.502 58.7063 40.5263 58.7374C40.5864 58.8143 40.6244 59.1752 40.6696 59.3038C40.7862 59.6359 40.9458 59.9529 41.1182 60.2593C41.9976 61.8208 43.4934 62.8946 43.8004 64.8733C44.0864 66.7168 43.3819 68.5808 42.537 70.1807C43.1271 67.0995 42.5593 65.1885 41.3572 62.427C41.1693 61.9954 40.9694 61.3198 40.7638 60.9478C40.5754 60.1832 40.4664 59.452 40.4312 58.667Z" fill="#F2C94C"/>
<path d="M29.3229 61.698C28.8823 60.5752 28.3625 59.5258 27.638 58.5542C26.5212 57.0566 24.8746 55.9134 24.414 54.0123C24.3491 53.7442 24.2287 53.1359 24.3702 52.9036C24.5329 52.8221 24.7479 52.8395 24.9273 52.832C25.0759 53.1266 25.1905 53.4484 25.3191 53.7528C26.0963 55.2107 26.9951 55.9763 28.1491 57.0735C28.3366 57.2517 28.5458 57.5646 28.7531 57.7002C28.9194 57.9003 29.0871 58.1004 29.2369 58.3134C30.3633 59.9148 30.1151 61.877 29.8009 63.6928C29.3369 60.5198 29.4447 59.148 27.0331 56.6321C26.6877 56.2717 26.3591 55.8637 25.984 55.5363C26.3034 56.0476 26.779 56.4785 27.1732 56.9334C28.3735 58.3183 29.1098 59.8731 29.3229 61.698Z" fill="#FA8A16"/>
<path d="M51.7676 17.6582C52.2079 17.6745 53.7427 18.3323 54.2379 18.533C55.2414 18.94 56.2793 19.2622 57.2759 19.6829C58.7896 20.322 60.2612 21.338 61.4594 22.4609C63.2193 24.1102 64.1374 26.1302 64.2142 28.5455C64.292 30.9906 63.4564 33.3633 61.7857 35.1537L61.5605 35.3837L61.5501 34.2573C61.9516 33.7712 62.3695 33.2847 62.7048 32.7497C63.7248 31.1218 64.0381 29.0122 63.6016 27.1541C63.3893 26.2507 63.0269 25.3469 62.5126 24.572C61.2547 22.6762 58.4432 20.6091 56.3382 19.7452C55.8818 19.5579 55.3966 19.3867 54.9187 19.2628C54.5143 19.158 54.0538 19.112 53.6759 18.9327C53.1602 18.6877 52.3304 18.0068 51.7676 17.6582Z" fill="#4FDB40"/>
<path d="M20.6612 45.1486C20.6667 44.9872 20.659 44.8328 20.7201 44.6807C20.9311 45.5446 20.7525 47.0792 20.5357 47.9211C20.4242 48.3178 20.3122 48.7168 20.1388 49.0919C19.843 49.7898 19.4217 50.515 18.9236 51.0903C18.4674 51.708 17.8293 52.2486 17.2781 52.7836C17.1356 52.9217 16.8943 53.0958 16.7929 53.2555C15.4738 54.3652 14.3081 55.7289 14.1446 57.5105C14.051 58.5307 14.252 59.6818 14.9134 60.4976C14.9844 60.5853 15.0647 60.6663 15.1462 60.7441C14.3758 59.3827 14.106 58.267 14.5335 56.7223C14.6698 56.2296 14.8796 55.7379 15.1642 55.3121C15.359 54.9841 15.5834 54.6918 15.8413 54.4111C16.1976 53.9157 16.7247 53.535 17.1842 53.1389C17.6995 52.8123 18.1402 52.3624 18.6685 52.0563C18.9099 51.8465 19.1988 51.6697 19.457 51.4791C20.2743 50.876 21.0417 50.1714 21.4187 49.2029C21.5823 48.7827 21.6131 48.3055 21.7879 47.9025C21.8552 48.0664 21.8055 48.3577 21.7789 48.5336C21.5647 49.9506 20.4053 51.0512 19.3057 51.8561C18.4063 52.5737 17.4087 53.2214 16.6263 54.0701C17.1442 53.8107 17.6459 53.41 18.1337 53.0893C19.8945 51.9318 21.1298 51.1638 22.0285 49.1614C22.0274 49.1728 22.0265 49.1842 22.0252 49.1955C21.8962 50.3032 20.6924 51.5335 19.8579 52.1759C17.776 53.7786 15.4976 54.5924 15.113 57.5871C14.9817 58.6096 15.2002 59.6716 15.84 60.4965C16.5513 61.4136 17.5854 61.7683 18.7061 61.9012C19.9584 62.0497 21.166 61.6945 22.2888 61.1622C22.6829 60.9754 23.086 60.7354 23.4981 60.5971C23.016 61.2294 22.0035 61.5822 21.2855 61.8819C20.2465 62.1116 19.7885 62.3081 18.6524 62.2229C17.5743 62.1422 16.439 61.7498 15.7223 60.9114C15.3666 60.461 15.064 59.9493 14.901 59.3963C14.5404 58.1724 14.7611 56.67 15.3631 55.5563C15.5892 55.1378 15.8869 54.7625 16.1168 54.3461C16.0422 54.3579 15.9525 54.5044 15.9015 54.5655C15.6917 54.8625 15.4797 55.1581 15.2814 55.463C14.6348 56.6404 14.241 57.9222 14.6237 59.2575C14.8135 59.9197 15.1367 60.5422 15.6024 61.0519L15.604 61.0813L15.5613 61.1104C15.3392 60.9636 15.1223 60.7946 14.92 60.6216C14.2571 60.0545 13.9298 59.176 13.8718 58.3219C13.836 57.7945 13.9097 57.2574 14.0453 56.7479C14.5769 54.7509 16.151 53.6407 17.5693 52.29C18.0149 51.8657 18.4202 51.3904 18.8229 50.9255C19.3353 50.2489 19.7442 49.5739 20.0727 48.79C20.1831 48.4934 20.2694 48.1912 20.3565 47.8872C20.5868 46.9736 20.6709 46.0882 20.6612 45.1486Z" fill="#4FDB40"/>
<path d="M15.7841 62.6729C15.2423 62.5805 14.7232 62.4131 14.2442 62.1413C13.165 61.5291 12.4363 60.5684 12.1124 59.3748C11.4288 56.8566 12.837 54.6219 14.634 52.9823C15.5321 52.1627 16.5257 51.4616 17.3718 50.5829C17.9224 50.0113 18.3756 49.3714 18.7533 48.6736C19.1731 47.8978 19.5295 47.0009 19.7157 46.1339C19.8306 45.599 19.907 45.0558 19.956 44.5111C19.9777 44.2692 19.9361 43.7173 20.043 43.5293L20.0888 43.5527C20.1605 43.962 20.1216 44.4455 20.1051 44.8615C20.005 47.3859 18.9033 49.555 17.0881 51.2833C16.8007 51.557 16.5025 51.8246 16.2003 52.0819C15.9465 52.298 15.5615 52.5072 15.3786 52.7807L15.4334 52.8077C16.0628 52.4436 16.6897 52.0058 17.2685 51.5661C19.6835 49.7316 20.0074 48.074 20.4045 45.2067L20.4427 45.2011L20.4699 45.4198C20.2037 48.043 19.9106 49.7002 17.7593 51.4523C17.0499 52.0302 16.2892 52.5725 15.4775 52.9983C15.2381 53.1628 14.9796 53.3092 14.757 53.4957C13.6933 54.387 12.6717 55.8154 12.4143 57.2001C12.2031 58.3364 12.3983 59.7009 13.0616 60.6655C13.8323 61.7862 14.9793 62.2981 16.2665 62.5798L17.4386 62.6585C17.6333 62.6553 17.827 62.6428 18.0213 62.6306C17.8581 62.5628 17.5813 62.5673 17.401 62.542C16.9533 62.5768 16.3838 62.4335 15.9552 62.3088C14.8526 61.9877 13.9136 61.252 13.3621 60.2394C12.8972 59.3858 12.5937 58.1139 12.8728 57.1579C12.9577 56.4108 13.3711 55.6863 13.8832 55.1502C13.6931 55.5689 13.4924 55.9298 13.3735 56.3795L13.3835 56.4355C13.5502 57.4258 13.3862 58.0481 13.7344 59.1264C13.9058 59.6573 14.5306 60.4317 14.5752 60.8659C13.6943 59.855 13.2889 58.987 13.249 57.6233C13.2392 57.2898 13.2875 56.9469 13.2664 56.6168L13.1191 57.2298C12.991 58.4823 13.254 59.6948 14.0612 60.6845C15.016 61.8552 16.4976 62.2522 17.9465 62.3943C18.2231 62.4214 18.4988 62.4294 18.7767 62.4304C19.6967 62.3934 20.5639 62.2483 21.4395 61.9618C22.0316 61.731 22.5805 61.4745 23.1313 61.1579C23.2307 61.1008 23.3177 61.036 23.4328 61.0187C23.4783 61.0971 23.4836 61.1319 23.476 61.222C22.6389 62.1717 19.4364 62.7116 18.1562 62.7905C18.058 62.7966 17.9605 62.8012 17.8621 62.8023C17.1643 62.8212 16.475 62.7651 15.7841 62.6729Z" fill="#4FDB40"/>
<path d="M55.6888 53.3047L55.7567 53.3527C55.8664 53.7517 55.8255 54.2734 55.691 54.6612C55.2861 55.8295 54.3988 56.865 53.681 57.8575C53.1401 58.6055 52.6234 59.3653 52.1786 60.1753C51.8185 60.8312 51.5167 61.525 51.2787 62.2342C51.147 62.6269 51.0456 63.0296 50.9007 63.4177L50.8831 63.464C50.9766 61.5559 51.655 59.6191 52.4816 57.9139C51.0977 59.5908 50.546 62.4906 50.5051 64.598C50.204 63.8271 50.0449 62.9937 49.9624 62.173C49.8976 59.4363 51.4779 58.1402 53.4927 56.6684C53.7263 56.4977 54.2728 56.1509 54.4037 55.9222L54.354 55.9198L54.3853 55.9519L54.3296 56.0201L54.3145 55.9589L54.2966 55.9555C52.8228 57.0465 51.0771 57.9948 50.3012 59.7516C50.1258 60.1487 50.0567 60.5746 49.9204 60.9841C49.926 57.6974 51.4951 57.6198 53.4943 55.7331C54.295 54.9774 54.9163 54.077 55.6888 53.3047Z" fill="#FA8A16"/>
<path d="M14.1149 64.7738C12.5556 64.4031 11.2473 63.3659 10.4121 62.0109C9.4326 60.4219 9.09244 58.5202 9.5383 56.7027C10.81 51.5184 16.9623 51.4348 18.876 47.093C19.2961 46.1395 19.5354 45.0572 19.637 44.024C19.6775 43.6113 19.6479 43.1611 19.7316 42.7578C19.988 43.473 19.6129 45.5195 19.4045 46.299C19.2841 46.7493 19.1325 47.1946 18.9324 47.6161C17.8443 49.909 15.2627 50.9227 13.3003 52.2989C12.5569 52.8202 11.8731 53.4338 11.2856 54.1263C10.622 54.9088 10.1306 55.7827 9.87096 56.7788C9.54252 58.0387 9.62002 59.3177 10.0492 60.5427C10.6456 62.2447 11.8127 63.5034 13.4444 64.272C13.9005 64.4867 14.3746 64.6341 14.8616 64.7596L15.2764 64.8463C17.7148 65.2422 18.8617 64.6612 21.0293 63.8109C20.7042 64.0735 20.291 64.2513 19.9121 64.4248C18.1522 65.2313 16.1275 65.7404 14.1856 65.533C12.5269 65.3558 11.0325 64.5228 9.99588 63.215C8.76651 61.6641 8.36166 59.6099 8.58909 57.6744C8.87854 55.2109 10.161 53.0785 12.101 51.5588C13.1475 50.7392 14.3946 50.2124 15.5285 49.5302C15.9861 49.2548 16.3771 48.8771 16.8347 48.6075C15.6666 49.7314 14.261 50.4589 12.9364 51.3684C10.5145 53.0313 8.91065 55.5776 8.85713 58.5582C8.82534 60.3255 9.37244 62.1555 10.6237 63.4386C11.7938 64.6383 13.3274 65.2755 14.9996 65.2927C15.5698 65.2987 16.1541 65.2609 16.7171 65.1697C16.2464 65.0292 15.6645 65.0416 15.1744 64.9916C14.8239 64.9427 14.4462 64.905 14.1149 64.7738Z" fill="#4FDB40"/>
<path d="M24.3047 54.4443C24.3182 54.4578 24.3336 54.4694 24.345 54.4846C24.4408 54.6129 24.5155 54.8565 24.5854 55.0053C24.774 55.4067 24.9831 55.8022 25.251 56.1571C25.7663 56.8395 26.3982 57.4446 26.9463 58.1027C28.5026 59.9714 29.6458 62.2501 29.6144 64.7321C29.0819 62.9407 28.1989 60.4786 26.8761 59.1308C26.6132 58.8629 26.3232 58.6634 26.003 58.4702C27.2821 59.8418 28.0676 61.4136 28.714 63.1566C28.9589 63.7803 29.1714 64.4039 29.3605 65.0467C28.771 64.2172 28.1345 63.4321 27.5717 62.5811C27.1682 61.9709 26.841 61.3158 26.4502 60.6978C26.855 62.066 27.4233 63.0726 28.2732 64.2071C28.5864 64.6252 28.9223 65.0233 29.2164 65.4557C28.3003 65.0996 27.5487 64.3479 26.8875 63.639C26.1896 62.8907 25.5746 62.0714 25.1575 61.1319C24.324 59.2546 24.2374 56.468 24.3047 54.4443Z" fill="#FA8A16"/>
<path d="M56.0189 54.4147C56.0393 54.3028 56.064 54.2062 56.1068 54.1006C56.5062 55.0679 56.6106 56.2719 56.6558 57.3157C56.6126 58.8602 56.3169 60.39 55.6555 61.795C55.0384 62.9685 54.0071 63.8612 52.9268 64.6019C52.6137 64.8166 51.2314 65.7682 50.9586 65.696C50.8959 65.6793 50.886 65.6368 50.852 65.5864C50.7688 64.8618 52.4987 62.3344 52.9914 61.7043C52.0842 62.4561 51.5886 63.3045 51.0421 64.328C51.4017 62.2246 52.4047 60.0768 53.5709 58.3037C54.0179 57.6239 54.5348 56.9918 54.989 56.3171C55.151 56.0764 55.3059 55.8266 55.4419 55.5704C55.5671 55.3348 55.6701 55.0241 55.8407 54.8224L55.8918 55.1276C56.0325 58.3064 55.5252 60.7486 53.4605 63.2863C53.0313 63.8137 52.3533 64.3 52.0152 64.7482C52.4619 64.5965 53.1597 63.8803 53.4949 63.5392C55.1017 61.9041 56.005 59.4772 56.0919 57.2093C56.1277 56.2742 56.0247 55.3484 56.0189 54.4147Z" fill="#FA8A16"/>
<path d="M54.5183 58.8555L54.5612 58.9093C54.5318 59.6309 54.2429 60.664 53.8245 61.2495H53.8158C53.786 61.1279 53.9653 60.7611 54.0057 60.6132C54.1137 60.2174 54.1504 59.8071 54.2756 59.4133C54.3379 59.2171 54.4228 59.0373 54.5183 58.8555Z" fill="#2D2D2D"/>
<path d="M39.69 58.5107L40.2443 58.5305L40.2963 59.1803C40.356 59.8232 40.4248 60.4779 40.6066 61.0996C40.7662 61.7792 41.0596 62.4514 41.3123 63.1008C41.8546 64.495 42.342 65.8976 42.4442 67.4039C42.5419 68.8439 42.3853 70.5637 41.3963 71.6932C41.4833 71.4571 41.5666 71.2196 41.6391 70.9786C42.0546 69.5977 41.9909 68.1079 41.3092 66.8282C41.3443 66.9658 41.3766 67.1042 41.4071 67.2429C41.8216 69.1314 41.6084 70.9876 40.5484 72.6345C40.3991 72.8664 40.1323 73.3439 39.8444 73.4054C39.7523 73.3659 39.7142 73.3304 39.665 73.2411C38.9487 71.9421 39.6805 69.2326 40.0969 67.8778C39.3534 68.9167 39.1822 70.2466 39.0832 71.4869C38.3359 68.9868 38.3526 67.1807 38.9023 64.6652C38.8495 64.7664 38.7973 64.8679 38.7487 64.9712C37.6791 67.2466 38.2201 70.2301 39.0507 72.4986C38.8254 72.2906 38.6214 72.0667 38.4316 71.8259C37.6819 70.875 37.304 69.8336 37.1371 68.6411C36.8626 66.6784 37.3344 64.7093 38.141 62.922C38.804 61.4527 39.4965 60.1443 39.69 58.5107Z" fill="#F2C94C"/>
<path d="M24.2368 10.8365C26.7263 10.585 29.7745 11.1627 32.1003 12.0506C33.1356 12.4459 34.1195 12.9342 35.1326 13.3788C33.4636 14.6958 31.5942 15.5481 29.7637 16.5971C26.9152 18.2295 24.3674 20.4546 22.2333 22.9371C21.4431 23.1974 20.647 23.4528 19.8843 23.7874C17.9087 24.6542 15.9546 26.088 14.7982 27.9304C13.871 29.4076 13.4545 31.1336 13.8527 32.8521C14.3656 35.0653 15.9561 36.5299 17.8102 37.6936L18.5769 38.1404C18.802 39.4731 19.1469 40.7374 19.5745 42.0176C17.781 41.2451 16.0962 40.3776 14.5992 39.1038C11.3223 36.3156 9.17298 32.416 8.82923 28.1073C8.48962 23.8508 9.91283 19.6868 12.6827 16.4538C15.6045 13.0437 19.8089 11.1808 24.2368 10.8365Z" fill="#4FDB40"/>
<path d="M55.373 9.00363C56.2665 8.9759 57.1932 9.07457 58.066 9.26488C61.3178 9.9741 64.1434 12.2359 65.9122 15.0084C68.3823 18.8801 68.7382 23.2568 67.3376 27.5804C66.7298 29.4565 65.8913 31.2799 65.4705 33.2125C64.7144 36.6852 65.9163 38.9603 68.2101 41.4394C69.1316 42.4355 70.0741 43.3625 70.8076 44.5146C71.8268 46.1154 72.2044 47.8739 71.7817 49.7411C71.2652 52.0224 69.8298 54.0025 67.8548 55.2445C65.7966 56.5388 63.2893 57.0586 60.9023 56.5003C59.6788 56.214 58.4928 55.6129 57.4588 54.9058C57.208 54.7343 56.8929 54.5398 56.7299 54.278C56.6012 54.0329 56.4873 53.785 56.3779 53.5307C57.1585 51.8936 58.1044 50.3509 58.9045 48.7264C60.5829 45.3193 61.485 41.4159 61.6051 37.6242C62.1272 37.2337 62.5925 36.7176 63.0151 36.2214C64.8969 34.0114 65.9421 31.1439 65.7044 28.2322C65.3987 24.4859 63.2475 21.4639 59.78 19.9829C58.9007 19.6074 57.9761 19.3509 57.0629 19.0729C55.8819 18.7133 54.6942 18.3436 53.5355 17.9168C50.1532 16.6707 46.7756 15.095 44.0093 12.7503C44.8128 12.4614 45.6136 12.2231 46.4016 11.886C49.4455 10.5836 51.9679 9.11996 55.373 9.00363Z" fill="white"/>
<path d="M39.8826 13.2705L40.1439 13.2723C40.6207 13.3752 41.0108 13.588 41.2893 14.0039C41.5486 14.3912 41.6359 14.8665 41.5394 15.3218C41.4351 15.8145 41.1446 16.199 40.7377 16.4843C41.7815 16.6102 42.821 16.748 43.8475 16.9796C48.3646 17.9985 52.3046 20.3725 55.1723 24.02C58.4523 28.1918 60.0761 33.8148 59.4393 39.0899C59.0628 42.2096 57.7896 45.3925 55.8742 47.8869C55.4767 48.4043 55.0532 48.9368 54.5438 49.3471C55.0922 49.3128 55.6025 49.3998 56.0338 49.7693C56.3236 50.0177 56.524 50.3692 56.5546 50.7528C56.5796 51.0665 56.4803 51.3543 56.2737 51.5911C55.9183 51.9983 55.2614 52.3148 54.725 52.3368C54.3928 52.3505 54.0751 52.2677 53.8323 52.0317C53.5952 51.8012 53.4671 51.4646 53.476 51.1356C53.484 50.8355 53.6153 50.5452 53.8354 50.3409C54.0325 50.1581 54.2842 50.0571 54.5544 50.0777C54.8178 50.0979 55.102 50.2253 55.266 50.4365C55.3906 50.5968 55.4499 50.8083 55.4253 51.0101C55.4042 51.1832 55.2934 51.3339 55.1515 51.4304C55.0025 51.5316 54.8206 51.5835 54.6427 51.5369C54.5303 51.5075 54.4453 51.4338 54.3886 51.3341C54.3322 51.2349 54.3245 51.1561 54.3399 51.043C54.4034 50.9557 54.4182 50.9575 54.5224 50.9235C54.6146 50.967 54.5743 50.9319 54.6256 51.0252C54.6696 51.1055 54.7115 51.1371 54.7921 51.1818C54.9063 51.1836 54.9174 51.1821 55.0135 51.1207C55.0921 50.9956 55.1195 50.8836 55.086 50.7361C55.0577 50.6114 54.9842 50.519 54.8736 50.4571C54.7017 50.3611 54.4783 50.3661 54.2951 50.4251C54.1055 50.4862 53.9355 50.6145 53.8546 50.8001C53.7617 51.0129 53.7526 51.2573 53.8442 51.472C53.9409 51.6989 54.111 51.8631 54.3424 51.9488C54.7335 52.0937 55.1876 51.9872 55.5482 51.8062C55.8214 51.6692 56.0896 51.4595 56.1843 51.1566C56.2579 50.9214 56.2074 50.6758 56.0868 50.4657C55.9026 50.1447 55.55 49.9086 55.1959 49.8158C55.0605 49.7804 54.9432 49.773 54.8059 49.7956L54.6607 49.9431L54.588 49.9423C54.4793 49.7864 54.405 49.6155 54.3246 49.4441C54.1884 49.4932 53.9078 49.611 53.7789 49.5648C53.7667 49.3365 54.0169 49.1514 53.972 48.9225L53.8151 48.9447L53.7917 48.9046C53.8558 48.7927 53.8785 48.8036 53.9972 48.7661L54.0405 48.643C54.1484 47.7605 54.3508 46.8879 54.5114 46.0141C54.7332 44.8073 54.9142 43.5481 54.9957 42.3236C55.0204 41.9534 54.978 41.55 55.1092 41.1993C55.13 41.144 55.1367 41.1087 55.137 41.0499C54.9071 41.2822 54.6863 41.8589 54.5006 42.1596C53.7496 43.3758 52.9539 44.5296 52.0467 45.6349C51.8209 45.91 51.57 46.2472 51.2931 46.4681C51.2725 46.4846 51.2513 46.5004 51.2303 46.5166L51.2226 46.6466C51.2024 46.6568 51.1827 46.6678 51.1621 46.6771C50.8578 46.8159 49.563 48.031 49.1487 48.3507C48.3207 48.9894 47.4461 49.5691 46.5885 50.1668C48.5251 50.0389 51.9726 49.6445 53.7837 49.0053C53.7137 49.369 53.4304 49.8433 53.5085 50.19C53.4546 50.3143 53.3589 50.413 53.2668 50.5105C50.3096 53.6425 45.5969 55.6353 41.3113 55.7632C41.0267 55.5137 40.7373 55.3298 40.3582 55.2633C39.675 55.1436 39.1201 55.3797 38.5695 55.7574C34.8843 55.6996 31.15 54.208 28.2484 51.9778C26.4946 50.6297 24.8579 49.0225 23.5967 47.2002C22.0048 44.9001 20.8742 41.9091 20.5128 39.1375C19.8373 33.9587 21.4033 28.3999 24.5904 24.2745C27.2885 20.7821 31.2067 18.2213 35.488 17.1475C36.7821 16.8229 38.0689 16.6762 39.3882 16.5057C38.9143 16.2207 38.61 15.9167 38.4767 15.3547C38.3717 14.9113 38.438 14.4361 38.6802 14.0478C38.9658 13.5896 39.372 13.3795 39.8826 13.2705Z" fill="white"/>
<path d="M39.7545 13.6386C39.9999 13.6272 40.2154 13.6186 40.4488 13.7141C40.7691 13.8452 41.0105 14.1024 41.1387 14.4222C41.279 14.7723 41.282 15.1828 41.125 15.5279C40.9463 15.921 40.6504 16.0925 40.2657 16.2357C39.9962 16.2665 39.7418 16.2737 39.4872 16.1646C39.1744 16.0303 38.9421 15.765 38.827 15.4471C38.6919 15.0738 38.7176 14.6428 38.902 14.2906C39.0905 13.9306 39.3764 13.7532 39.7545 13.6386Z" fill="#2D2D2D"/>
<path d="M25.8047 30.1553C25.8004 30.3881 25.419 31.2987 25.3277 31.604C25.1819 32.0916 25.0611 32.5929 24.9575 33.0911C24.5281 35.1556 24.329 37.5824 24.2846 39.7C23.9066 39.1307 23.5858 38.5059 23.2499 37.91C22.5741 36.7785 21.9262 35.602 21.4038 34.3908C22.8533 32.9654 24.3282 31.5529 25.8047 30.1553Z" fill="#2D2D2D"/>
<path d="M39.9424 17.4492C40.2142 17.538 41.7956 18.8234 42.1634 19.0903C43.0849 19.7589 44.0217 20.4091 44.9597 21.0544C43.363 21.0106 41.7648 21.1208 40.1662 21.102C38.4599 21.0728 36.7522 21.06 35.0474 21.1454C36.7971 20.162 38.3893 18.7116 39.9424 17.4492Z" fill="#2D2D2D"/>
<path d="M54.4116 30.6289C55.6665 32.2873 57.4671 33.5018 58.6249 35.2331C58.6875 35.383 58.7424 35.4876 58.6788 35.6495C58.6722 35.6666 58.6638 35.6828 58.6562 35.6995C57.6342 37.4445 56.5659 39.176 55.3191 40.7716C55.3605 39.8517 55.4388 38.9342 55.427 38.0124C55.3951 35.5214 54.9654 33.0503 54.4116 30.6289Z" fill="#2D2D2D"/>
<path d="M40.2456 17.2705C43.4251 17.5614 46.3554 18.3125 49.159 19.8692C49.9548 20.3111 50.7464 20.7961 51.4562 21.3682C50.1049 21.3905 46.6476 21.4632 45.5003 21.0513C45.0115 20.8757 44.1051 20.1219 43.6526 19.7954C42.5115 18.9721 41.3292 18.1689 40.2456 17.2705Z" fill="#2D2D2D"/>
<path d="M32.4762 21.623C32.8787 21.5996 33.2847 21.602 33.6879 21.5947C30.8249 23.3382 28.8614 25.6075 26.8988 28.2978L26.4321 28.9708C26.4644 28.4093 26.5538 27.8411 26.6212 27.2823C26.825 25.5914 27.1009 23.943 27.4924 22.2845C27.7285 22.1011 27.9681 21.9225 28.2086 21.7449C29.629 21.6482 31.0538 21.6688 32.4762 21.623Z" fill="#2D2D2D"/>
<path d="M39.3128 17.3193C39.4179 17.3074 39.5192 17.2855 39.6214 17.3217C38.5634 18.2228 35.3529 20.9221 34.1724 21.2148C33.4546 21.3928 32.5875 21.3326 31.8487 21.3462L28.8574 21.4068C28.7844 21.4092 28.7151 21.4085 28.6427 21.4003L28.5732 21.3919L28.5736 21.3935L28.6906 21.3592L28.6105 21.3453C29.0132 21.0413 29.4508 20.771 29.8733 20.4945C32.9634 18.4721 35.6839 17.7576 39.3128 17.3193Z" fill="#2D2D2D"/>
<path d="M58.7726 36.0557C58.8121 39.9525 57.7954 43.7971 55.4979 46.9791C55.1444 47.4688 54.7842 48.0027 54.352 48.4271C54.3392 48.4396 54.3254 48.4511 54.312 48.4632C54.6559 46.9502 54.9251 45.4245 55.1144 43.8843C55.2192 43.031 55.3321 42.1507 55.2675 41.291C55.7728 40.7197 56.1979 40.0847 56.6301 39.4582C57.3981 38.3453 58.1112 37.2351 58.7726 36.0557Z" fill="#2D2D2D"/>
<path d="M45.9146 21.4678C46.7696 21.5656 47.6232 21.6414 48.4836 21.6702C49.0369 21.6887 51.7031 21.6359 52.04 21.7545C52.177 21.8797 52.2381 22.0529 52.3145 22.2186C52.5604 22.9788 52.7021 23.7666 52.8634 24.5479L53.5128 27.7552C53.6396 28.3913 53.7363 29.0592 53.9331 29.6769C53.6781 29.4701 53.391 28.9592 53.1824 28.6807C52.8056 28.1779 52.4178 27.6796 52.0107 27.2011C50.2254 25.1021 48.147 23.0914 45.9146 21.4678Z" fill="#2D2D2D"/>
<path d="M21.2408 34.7861C21.5144 35.1104 21.8815 36.0075 22.1006 36.4238C22.5218 37.2238 22.9819 38.0053 23.4344 38.7879C23.7116 39.2674 23.9751 39.774 24.2925 40.2277C24.3065 41.5795 24.3862 44.6245 24.8116 45.7603C25.2162 46.8405 25.8446 47.8111 26.3305 48.8487L26.3001 48.9011C25.8699 48.8003 25.6304 48.4573 25.3752 48.1216C23.0774 45.0994 21.6836 42.2355 21.2541 38.4261C21.1203 37.2395 21.0792 35.9716 21.2408 34.7861Z" fill="#2D2D2D"/>
<path d="M45.418 50.5237C45.4818 50.5119 45.5327 50.5155 45.5972 50.5192C45.5713 50.6265 45.4472 50.7128 45.3616 50.7814C44.3855 51.5657 43.3302 52.2633 42.3185 53.0014C41.5801 53.5399 40.8781 54.1271 40.1367 54.6605C39.015 53.9224 37.9202 53.1387 36.818 52.3716C35.9717 51.7874 35.1114 51.2088 34.3008 50.5756C35.2571 50.6017 36.2197 50.7006 37.1778 50.7398C39.9174 50.852 42.6946 50.8538 45.418 50.5237Z" fill="#2D2D2D"/>
<path d="M24.6173 40.6943C24.8615 40.9262 25.0757 41.3559 25.26 41.6467C25.7141 42.3627 26.1744 43.0792 26.5932 43.8165C26.9872 44.5104 27.3337 45.2649 27.8211 45.8973C28.9732 47.3923 31.4683 48.8595 33.0417 50.0411C32.4898 49.9953 31.9265 49.8936 31.3762 49.8222C30.0644 49.652 27.9356 49.4586 26.7701 48.9593C26.4134 48.4726 26.1433 47.9129 25.8734 47.3749C25.5556 46.7411 25.1972 46.0654 24.997 45.3843C24.6795 44.3039 24.5943 41.8571 24.6173 40.6943Z" fill="#2D2D2D"/>
<path d="M27.0995 22.6504C27.1102 22.9592 26.9511 23.3988 26.8851 23.7095C26.7823 24.1943 26.69 24.6808 26.6105 25.17C26.377 26.609 26.2559 28.0635 26.0499 29.5063C25.4033 30.0433 24.8182 30.6858 24.217 31.276L21.3839 34.0301C21.3809 34.0059 21.3759 33.982 21.3749 33.9577C21.358 33.5469 21.5854 32.7271 21.6808 32.2938C22.4864 28.6342 24.4554 25.2798 27.0995 22.6504Z" fill="#2D2D2D"/>
<path d="M52.689 22.4229C55.5022 25.3312 57.334 28.3443 58.2405 32.3206C58.4179 33.0989 58.6347 33.9568 58.652 34.7572C57.8744 33.6612 56.7703 32.7406 55.8262 31.7868C55.3085 31.2637 54.8518 30.6929 54.3395 30.1669C54.005 28.8935 53.771 27.599 53.5071 26.31C53.2415 25.0129 52.9468 23.7212 52.689 22.4229Z" fill="#2D2D2D"/>
<path d="M52.9572 49.5781L53.0121 49.579C52.9977 49.6488 53.0139 49.6209 52.9665 49.6678C49.5192 53.0698 45.2719 54.9405 40.4198 54.9249L40.3672 54.915L40.3511 54.8745C40.6845 54.5291 41.4965 54.0043 41.9132 53.6924C43.3488 52.6175 44.8062 51.5733 46.2316 50.4845C48.4794 50.346 50.7565 50.0602 52.9572 49.5781Z" fill="#2D2D2D"/>
<path d="M26.4673 49.21C26.9017 49.2546 27.3539 49.4602 27.7847 49.5557C28.5513 49.7256 29.3516 49.8339 30.1286 49.9459C30.7938 50.0418 33.0699 50.2595 33.5181 50.4314C33.6843 50.495 39.8041 54.8152 39.8963 54.9085C39.7148 54.9462 39.5266 54.955 39.3414 54.9564C35.8239 54.9814 32.1986 53.796 29.354 51.739C28.3019 50.9782 27.3892 50.12 26.4673 49.21Z" fill="#2D2D2D"/>
<path d="M24.5982 40.1801C24.572 39.4063 24.611 38.6301 24.6641 37.8582C24.8344 35.3822 25.1687 32.0417 26.3231 29.8032C26.9043 28.6762 27.7089 27.6626 28.5073 26.6844C29.3855 25.6082 30.2792 24.569 31.3302 23.6562C32.0278 23.0505 33.6066 21.8227 34.4415 21.5626C35.5717 21.2105 39.4928 21.3874 40.8907 21.3937C42.3892 21.4004 43.8576 21.3151 45.3562 21.4218C46.1662 21.9677 46.8916 22.5952 47.6268 23.2355C49.1864 24.5937 50.6584 26.0348 51.9876 27.6217C52.3604 28.0669 52.7156 28.5262 53.0615 28.9926C53.293 29.3048 53.6216 29.8805 53.9002 30.1091C53.9763 30.05 54.0349 29.9863 54.0992 29.915L54.182 30.0423C54.1305 30.1263 54.0551 30.1384 53.9667 30.1773C54.788 32.8719 55.2004 36.2562 55.133 39.0766C55.1176 39.7189 55.1619 40.3921 54.8534 40.976C54.0941 42.4133 53.1344 43.8026 52.1242 45.074C51.778 45.5098 51.317 45.9056 51.0051 46.3573C49.8533 47.4314 48.6634 48.3831 47.367 49.2776C46.9831 49.5425 46.5216 49.9333 46.0747 50.0764C44.2287 50.6679 36.1098 50.6212 34.096 50.2371C33.358 50.0963 32.6709 49.3989 32.0656 48.9639C30.8977 48.1244 29.595 47.339 28.5898 46.3075C27.5814 45.2726 26.9585 43.8405 26.213 42.6101C25.7091 41.7783 25.1411 40.9866 24.5982 40.1801Z" fill="#2D2D2D"/>
<path d="M36.2759 39.0586C37.2486 39.7851 38.3409 40.246 39.3756 40.8623C39.3649 40.862 39.3541 40.862 39.3433 40.8614C39.1005 40.8475 38.9048 40.7006 38.6694 40.676C38.1714 40.6241 37.0706 40.7879 36.5728 40.905C36.4485 40.2947 36.3821 39.6726 36.2759 39.0586Z" fill="#F2C94C"/>
<path d="M36.5728 40.9049C37.0706 40.7878 38.1713 40.624 38.6693 40.6759C38.9047 40.7005 39.1004 40.8474 39.3432 40.8613C39.354 40.8618 39.3648 40.8619 39.3756 40.8622L39.4362 40.9191C39.2829 41.1642 37.2914 42.0458 36.8782 42.2185L36.5728 40.9049Z" fill="white"/>
<path d="M35.6886 34.5293C35.7762 34.6869 35.6952 35.1967 35.6882 35.3924C35.6553 36.3198 35.6764 37.2426 35.7352 38.1684C35.348 37.874 34.9711 37.5705 34.5979 37.2585C34.2612 36.9791 33.9377 36.684 33.6113 36.3927C34.2893 35.7545 34.9812 35.1348 35.6886 34.5293Z" fill="#F2C94C"/>
<path d="M36.7974 30.6719C37.7069 30.9436 38.582 31.3038 39.458 31.666C38.9336 31.96 38.3923 32.2201 37.8713 32.5223C37.3303 32.8502 36.8098 33.1903 36.311 33.5803C36.4283 32.6025 36.577 31.6319 36.7974 30.6719Z" fill="#F2C94C"/>
<path d="M44.3685 34.6084C45.1209 35.2246 45.8611 35.8248 46.5653 36.4973C46.2642 36.7661 45.9545 37.023 45.6429 37.2793C45.2244 37.6142 44.8016 37.9371 44.365 38.2482C44.4025 37.5482 44.4164 36.8512 44.3998 36.1504C44.3877 35.6418 44.3383 35.1152 44.3685 34.6084Z" fill="white"/>
<path d="M43.7371 39.2109L43.7827 39.2741C43.7439 40.1816 43.4864 41.1605 43.2856 42.0462L41.5167 41.328L40.5967 40.9284C41.6913 40.4523 42.7388 39.8631 43.7371 39.2109Z" fill="white"/>
<path d="M43.2241 30.7051L43.2905 30.712C43.5319 31.0633 43.7324 33.1538 43.8076 33.6866C43.3227 33.2628 42.7562 32.9171 42.2074 32.5827C41.6717 32.2584 41.1249 31.954 40.5688 31.666C41.4359 31.267 42.3071 30.9685 43.2241 30.7051Z" fill="#F2C94C"/>
<path d="M43.9408 35.9316C43.948 36.8276 43.9265 37.712 43.8714 38.6061C42.8245 39.285 41.2219 40.3038 40.0522 40.6886C40.225 40.3812 40.6504 40.0718 40.9053 39.8188C41.2647 39.462 41.6207 39.099 41.947 38.7115C42.6815 37.8395 43.2979 36.8712 43.9408 35.9316Z" fill="white"/>
<path d="M35.1338 43.3047C35.6322 43.1621 36.1179 42.9737 36.605 42.7969C37.343 45.0109 38.2717 47.0795 39.6833 48.9514C38.6882 48.9147 37.6909 48.7828 36.7246 48.5395C36.0037 47.0416 35.4869 44.9488 35.1338 43.3047Z" fill="white"/>
<path d="M43.7549 30.5534C45.8418 30.0016 48.0475 29.8062 50.1987 29.9618C49.7445 30.2103 49.3339 30.5361 48.9207 30.846C47.485 31.9226 46.1114 33.1292 44.9975 34.5444C44.7488 34.3865 44.5128 34.1756 44.2741 33.9991C44.1979 32.8418 43.9777 31.69 43.7549 30.5534Z" fill="#F2C94C"/>
<path d="M50.1988 29.9619C50.4626 29.9741 50.7267 29.9842 50.9901 30.0036C50.069 32.3095 48.6972 34.4861 46.8817 36.1966C46.2791 35.6111 45.6566 35.0662 44.9976 34.5445C46.1115 33.1293 47.4851 31.9226 48.9208 30.8461C49.334 30.5361 49.7446 30.2104 50.1988 29.9619Z" fill="white"/>
<path d="M29.4238 43.21C29.5322 43.2907 29.6419 43.3671 29.7604 43.4325C31.2374 44.2465 33.6112 43.7623 35.1341 43.304C35.4872 44.9482 36.004 47.041 36.7248 48.5389C34.5759 48.0286 32.4449 46.8228 30.9431 45.2122C30.3673 44.5947 29.8886 43.9121 29.4238 43.21Z" fill="#F2C94C"/>
<path d="M40.0219 41.1689C40.051 41.165 40.0712 41.16 40.1022 41.1694C40.4094 41.2623 40.7526 41.4781 41.0545 41.6101C41.7555 41.9167 42.4699 42.2007 43.1883 42.4632C42.4544 45.0325 41.6434 46.661 40.1574 48.8517C40.0062 48.7707 39.82 48.4171 39.7152 48.266C38.5093 46.5272 37.6738 44.6361 37.0151 42.6284C38.044 42.1979 39.0292 41.6755 40.0219 41.1689Z" fill="white"/>
<path d="M46.8723 36.8242C47.1288 36.9722 47.4219 37.3907 47.6197 37.6204C49.0033 39.2266 50.1911 41.0884 50.7841 43.1393C49.7435 43.272 48.7317 43.3161 47.687 43.1973C46.6919 43.2028 44.6767 42.5597 43.7192 42.1936C43.9482 41.0796 44.1189 39.9673 44.2786 38.8419C45.1813 38.2135 46.0434 37.5473 46.8723 36.8242Z" fill="white"/>
<path d="M30.3772 29.8619C32.3632 29.7523 34.4707 30.0419 36.3834 30.5698C36.1005 31.6632 35.9729 32.7979 35.8216 33.9148C35.254 34.3462 34.707 34.8034 34.1691 35.2712L33.2802 36.112C31.4782 34.459 29.7138 32.2955 28.8867 29.972C29.3788 29.8915 29.8798 29.8809 30.3772 29.8619Z" fill="#F2C94C"/>
<path d="M33.2636 36.7266C34.0993 37.4128 34.8996 38.0911 35.7753 38.7294C35.8906 39.3635 35.9687 40.0088 36.0583 40.6472C36.1754 41.2367 36.3263 41.8179 36.4738 42.4002C35.9999 42.5805 35.4943 42.707 35.0291 42.9001C34.801 42.9735 34.5689 43.0386 34.3367 43.0972C32.7954 43.486 30.9685 43.6683 29.5513 42.8232C30.3183 40.3802 31.568 38.6084 33.2636 36.7266Z" fill="#F2C94C"/>
<path d="M35.0228 40.6163C35.1454 40.5266 35.2832 40.4635 35.4185 40.3955L36.0583 40.6472C36.1754 41.2368 36.3262 41.8179 36.4738 42.4003C35.9999 42.5806 35.4943 42.7071 35.0291 42.9001C34.9469 42.1278 34.931 41.3891 35.0228 40.6163Z" fill="white"/>
<path d="M40.0594 23.3994C40.3305 23.5944 40.5654 23.9334 40.7567 24.2032C42.0014 25.9593 42.6996 28.1616 43.2343 30.2257C42.1357 30.5495 41.1043 30.9438 40.0516 31.3929C39.9067 31.4025 39.2725 31.0872 39.0882 31.0146C38.3694 30.7309 37.6357 30.4893 36.9033 30.2433C37.4493 27.9915 38.4025 25.0776 40.0594 23.3994Z" fill="#F2C94C"/>
<path d="M43.601 42.6504C45.9711 43.4386 48.0529 43.9255 50.5752 43.6118C49.5664 45.1242 47.4406 47.1641 45.7493 47.7998C45.0384 48.2105 43.9746 48.552 43.1661 48.6797C42.3186 48.8488 41.4773 48.9336 40.6143 48.9576C41.9976 46.9885 42.9214 44.9563 43.601 42.6504Z" fill="white"/>
<path d="M43.166 48.6801C43.1909 48.6565 43.2077 48.6385 43.2346 48.6189C43.4981 48.4272 45.457 47.753 45.7492 47.8002C45.0384 48.2108 43.9746 48.5523 43.166 48.6801Z" fill="#F2C94C"/>
<path d="M40.5464 23.2363C41.4762 23.2559 42.434 23.4618 43.3275 23.713C46.3611 24.5661 49.4136 26.7547 50.9705 29.535C50.7358 29.5077 50.4996 29.4977 50.2637 29.4846C48.0501 29.3078 45.8061 29.579 43.6613 30.1214C43.0832 27.6436 42.1982 25.206 40.5464 23.2363Z" fill="#F2C94C"/>
<path d="M51.4274 30.293C51.7096 30.5035 52.0865 31.6347 52.2192 32.0364C53.1275 34.7862 53.1442 37.7721 52.1471 40.5028C51.8846 41.222 51.5405 41.898 51.1972 42.5808C50.9441 42.0227 50.675 41.473 50.405 40.9229C49.5905 39.3014 48.4873 37.788 47.1982 36.5112C49.1218 34.557 50.277 32.7741 51.4274 30.293Z" fill="white"/>
<path d="M39.1437 23.2589C39.2879 23.2389 39.4428 23.2423 39.5887 23.2354C37.9071 25.0684 37.0827 27.757 36.4725 30.1154C34.3998 29.5978 32.3828 29.3495 30.2425 29.3981C29.8195 29.409 29.4018 29.425 28.9805 29.4677C29.2973 28.8979 29.7355 28.332 30.1548 27.8328C32.4334 25.1202 35.6387 23.5658 39.1437 23.2589Z" fill="#F2C94C"/>
<path d="M28.504 30.3389C28.585 30.4169 29.4727 32.2107 29.6792 32.5421C30.5838 33.9939 31.7344 35.2704 32.9888 36.4263C31.6532 37.6882 30.6155 39.2839 29.7985 40.9188C29.5361 41.4901 29.3318 42.0552 29.1775 42.6648C28.445 41.6828 27.8693 40.5279 27.5067 39.3609C26.569 36.3421 27.0439 33.1031 28.504 30.3389Z" fill="#F2C94C"/>
<path d="M40.0627 31.8848C41.3883 32.5453 42.6147 33.3797 43.8403 34.2049C43.8922 34.777 43.9288 35.3576 43.9407 35.932C43.2978 36.8716 42.6815 37.8398 41.947 38.7119C41.6206 39.0994 41.2646 39.4624 40.9052 39.8191C40.6503 40.0722 40.2249 40.3816 40.0522 40.689C39.617 40.6195 36.7395 38.8761 36.2149 38.5228C36.0735 37.063 36.1134 35.5803 36.2183 34.1198C36.7947 33.7889 37.3421 33.393 37.9076 33.042C38.6033 32.6102 39.3254 32.2395 40.0627 31.8848Z" fill="#F2C94C"/>
</g>
<defs>
<clipPath id="clip0_1061_3024">
<rect width="80" height="80" fill="white"/>
</clipPath>
</defs>
</svg>
