<svg width="80" height="80" viewBox="0 0 80 80" fill="none" xmlns="http://www.w3.org/2000/svg">
<g clip-path="url(#clip0_1061_3025)">
<path d="M54.0306 67.1494C54.13 67.1518 54.2366 67.1666 54.3294 67.2043C54.4855 67.268 54.6119 67.4091 54.662 67.5693C54.7073 67.7143 54.6884 67.8742 54.6182 68.008C54.5156 68.2038 54.3717 68.2625 54.1706 68.3311C54.1036 68.3202 54.0382 68.3049 53.9733 68.2846C53.7998 68.23 53.639 68.1175 53.5612 67.9492C53.4981 67.8123 53.5 67.6645 53.5618 67.5273C53.6536 67.3241 53.8331 67.2275 54.0306 67.1494Z" fill="white"/>
<path d="M51.4954 65.792C51.8579 65.747 52.2407 65.7664 52.566 65.9494C52.873 66.122 53.0029 66.3509 53.1026 66.677C53.0713 66.8236 53.0385 66.9842 52.9689 67.1177C52.8133 67.4161 52.5299 67.517 52.2311 67.6147C51.9165 67.6542 51.5911 67.6554 51.2909 67.5406C51.0372 67.4435 50.8101 67.2628 50.7093 67.0044C50.6311 66.8042 50.6352 66.5939 50.7236 66.398C50.8687 66.0765 51.1789 65.9041 51.4954 65.792Z" fill="#FEEEC0"/>
<path d="M49.1619 62.3529C49.7048 62.3126 50.2284 62.3872 50.6978 62.6822C51.0158 62.8821 51.2896 63.1785 51.3687 63.5551C51.4455 63.92 51.3196 64.3134 51.1138 64.6148C50.7695 65.119 50.2358 65.3533 49.6573 65.4608C49.1036 65.5283 48.4849 65.4715 48.0037 65.1686C47.6929 64.9729 47.4635 64.6844 47.3933 64.3192C47.3215 63.9458 47.413 63.5514 47.6275 63.2395C47.98 62.7272 48.5698 62.4631 49.1619 62.3529Z" fill="#FEEEC0"/>
<path d="M45.1766 57.2025C46.1021 57.1425 47.0566 57.2016 47.9038 57.6139C48.4369 57.8735 48.9217 58.2767 49.1094 58.8596C49.2617 59.3323 49.1717 59.8422 48.9317 60.2698C48.472 61.0886 47.5055 61.5383 46.6427 61.7905C46.5032 61.8224 46.3629 61.8549 46.2213 61.8764C45.3286 62.0117 44.3251 61.8041 43.6006 61.2532C43.1267 60.8929 42.7571 60.3766 42.6837 59.774C42.6134 59.1973 42.8075 58.5636 43.1722 58.1142C43.6776 57.4914 44.4124 57.2845 45.1766 57.2025Z" fill="white"/>
<path d="M24.6559 14.7212C24.7959 14.5501 24.9396 14.3837 25.0926 14.224C26.7666 12.476 29.3832 11.4181 31.7876 11.3721C33.5067 11.3392 35.4379 11.7168 36.7074 12.9402C37.7519 12.1285 38.8781 11.5867 40.2153 11.4979C41.8653 11.3884 43.2942 11.907 44.5354 12.9903C44.5459 12.9843 44.556 12.9776 44.5667 12.9721C44.901 12.8001 45.3753 12.6957 45.7389 12.6122C48.0146 12.089 50.6299 12.2269 52.8507 12.9517C54.3214 12.1204 56.3164 11.9365 57.9409 12.3804C59.5935 12.832 61.1759 13.9733 62.0186 15.4796C62.1356 15.6887 62.2445 15.9086 62.3449 16.1262C65.0757 16.6603 68.3031 18.0268 69.9147 20.4027C71.0076 22.0139 71.2745 23.807 70.8906 25.7019C70.8587 25.8597 70.82 26.0163 70.7806 26.1724C72.1691 26.5475 73.5507 27.1575 74.292 28.4643C75.1728 30.0169 75.1504 31.9035 74.6781 33.5782C74.4943 34.23 74.2487 34.8594 73.9681 35.4752C74.3031 36.045 74.5872 36.643 74.8614 37.2441C75.6785 39.0361 76.2746 40.8982 75.7574 42.8737C75.3007 44.6185 74.091 46.0472 72.7046 47.1544C72.2182 47.5429 71.6947 47.8857 71.2156 48.2834C71.2913 51.0202 70.6783 53.1782 68.7674 55.2096C67.4013 56.6619 65.9878 57.303 64.064 57.6789C63.6075 58.1483 63.1401 58.6007 62.6082 58.9858C61.0996 60.0782 59.1051 60.7496 57.2449 60.771C55.2944 60.7934 53.1657 60.2794 51.7414 58.8748C50.6892 57.8373 50.2046 56.5489 49.7828 55.1675C49.3976 55.1071 48.9842 54.9518 48.6111 54.8353C47.2862 54.421 45.9728 53.9244 44.6942 53.3835C44.1706 53.1619 43.6391 52.8303 43.0871 52.6976C43.1418 54.1546 42.5975 56.2383 41.7693 57.4318C40.5453 59.1954 38.8473 59.8949 36.8024 60.2537C34.4719 62.7393 31.0943 63.972 27.7364 64.1514C24.7 64.3138 21.609 63.8482 19.0595 62.078C18.4015 61.6212 17.848 61.0856 17.2563 60.5533C15.9105 60.2772 14.6616 59.8896 13.4757 59.1786C11.8114 58.1805 10.7629 56.7057 10.2965 54.8324C9.28964 54.4546 8.26019 54.0458 7.37326 53.4278C6.41468 52.7599 5.75692 51.8321 5.55894 50.6698C5.25023 48.8577 5.94434 46.77 6.61606 45.0989C6.77261 44.7094 6.92482 44.2468 7.1693 43.9038C6.73716 42.8455 6.42531 41.6789 6.38346 40.5345C6.29349 38.0743 7.52636 35.825 9.15636 34.0732C8.71925 31.9676 8.85151 29.8992 9.61589 27.88C10.7832 24.7971 13.3852 22.3439 16.3608 21.0082C16.3601 20.8449 16.3771 20.685 16.3964 20.5231C16.5842 18.9489 17.3121 17.5934 18.5689 16.6126C19.9813 15.5105 22.832 14.4972 24.6559 14.7212Z" fill="white"/>
<path d="M69.2651 26.248C69.6157 26.3062 69.9687 26.3581 70.3176 26.4251C70.0979 27.1135 69.827 27.9634 69.3999 28.5459C69.3813 27.7484 69.4289 27.0427 69.2651 26.248Z" fill="#2D2D2D"/>
<path d="M32.4478 58.9695C34.4799 58.7836 36.3585 58.2234 38.2288 57.4297C37.7742 58.3217 37.2453 59.1416 36.6163 59.9214C36.3568 59.9142 36.1003 59.936 35.8406 59.9223C34.6657 59.8605 33.4728 59.5588 32.4478 58.9695Z" fill="#2D2D2D"/>
<path d="M68.2039 31.8408C70.327 32.3525 72.17 33.1908 73.3443 35.1146C73.411 35.2239 73.4773 35.3337 73.5409 35.4449C73.2577 35.9767 72.9146 36.5333 72.528 36.9984C72.3612 36.5638 72.2173 36.1168 72.0126 35.6979C71.1627 33.9596 69.71 32.9113 68.0039 32.1017L68.2039 31.8408Z" fill="#2D2D2D"/>
<path d="M18.5277 51.3662C18.7731 52.6268 19.3225 53.7017 20.0471 54.7495C19.4004 54.7989 18.7427 54.9477 18.1015 55.0509C17.3659 55.1693 16.6223 55.2452 15.8794 55.3005C15.9067 54.8433 16.0318 54.3689 16.1985 53.9432C16.6113 52.8885 17.473 51.8279 18.5277 51.3662Z" fill="#2D2D2D"/>
<path d="M38.7391 57.194C39.1105 56.9198 39.5404 56.7234 39.918 56.4479C40.708 55.8715 41.4369 55.1538 41.9919 54.3469C42.2255 54.0071 42.4222 53.6374 42.664 53.3049L42.7087 53.2441C42.6546 54.9947 42.0027 56.8809 40.7152 58.1015C39.694 59.0697 38.4805 59.5735 37.1172 59.8428C37.7605 58.9968 38.3048 58.1681 38.7391 57.194Z" fill="#2D2D2D"/>
<path d="M57.8696 17.0867C59.2702 16.6562 60.6327 16.2218 62.1241 16.4856C62.4658 17.4832 62.6981 18.9693 62.3569 19.9912C61.608 19.5908 59.8357 19.395 58.9792 19.3742C58.7299 18.5696 58.2742 17.822 57.8696 17.0867Z" fill="#2D2D2D"/>
<path d="M12.9172 45.4854C14.1744 46.7661 16.0065 47.7705 17.8365 47.7909C18.1723 47.7946 18.5062 47.7656 18.8349 47.6955C18.7501 48.0227 18.6792 48.3629 18.5725 48.6832C18.5047 48.7177 18.4358 48.7453 18.3642 48.7706C16.2087 49.5338 13.3962 48.8561 11.3921 47.8946C11.8623 47.0588 12.339 46.2521 12.9172 45.4854Z" fill="#2D2D2D"/>
<path d="M13.8328 31.5947C13.8211 32.4941 14.0104 33.3462 14.3835 34.1615C13.3136 34.6742 12.3863 35.2947 11.6767 36.2654C11.4618 36.5593 11.2902 36.8802 11.0813 37.1754C10.3934 36.2196 9.90012 35.2642 9.53613 34.1425C10.8587 32.9414 12.1496 32.1911 13.8328 31.5947Z" fill="#2D2D2D"/>
<path d="M36.959 13.1631C37.7784 12.5025 38.7152 12.0565 39.7567 11.8812C41.5415 11.5811 42.8236 12.146 44.2464 13.1553C43.2615 13.8231 42.5061 14.6156 41.8333 15.597C40.8586 14.7689 39.6754 14.2601 38.445 13.9369C38.1205 13.8517 37.7009 13.8567 37.4069 13.7091C37.2891 13.4898 37.143 13.327 36.959 13.1631Z" fill="#2D2D2D"/>
<path d="M10.7036 54.9453C12.2929 55.3999 13.8563 55.6436 15.5112 55.6316C15.4851 57.2377 16.0057 58.8378 16.9628 60.1242C16.8048 60.1494 16.5778 60.056 16.4192 60.012C15.3519 59.7156 14.3017 59.307 13.3694 58.7023C12.0619 57.8541 11.0359 56.4777 10.7036 54.9453Z" fill="#2D2D2D"/>
<path d="M10.4484 40.0244C10.528 41.169 10.7387 42.4659 11.39 43.4386C11.6604 44.0727 12.1844 44.6743 12.6187 45.2064C12.4209 45.5643 12.1654 45.9007 11.9454 46.2462C11.6403 46.7253 11.3623 47.22 11.0856 47.7157C9.54704 46.7334 8.46415 45.4806 7.58154 43.8997C8.36853 42.4382 9.34736 41.2543 10.4484 40.0244Z" fill="#2D2D2D"/>
<path d="M53.1855 13.0916C54.9289 12.3899 56.8534 12.2385 58.6154 12.9865C60.0218 13.5835 61.3307 14.6899 61.9489 16.112C60.4442 16.0492 59.0498 16.2153 57.6659 16.8399C57.5155 16.5149 57.2336 16.1907 57.0045 15.9189C55.9061 14.6163 54.7081 13.8227 53.1855 13.0916Z" fill="#2D2D2D"/>
<path d="M24.8587 15.0692C26.2619 15.0195 27.7578 15.4632 29.0302 16.0399C27.0573 17.7035 25.9285 19.7484 25.3704 22.2509C25.2709 22.219 25.1374 22.1585 25.036 22.148C24.3955 21.2146 23.8567 20.2124 23.7024 19.0763C23.5018 17.5984 23.9675 16.2421 24.8587 15.0692Z" fill="#2D2D2D"/>
<path d="M7.39368 43.505C7.00178 42.5046 6.7418 41.4498 6.72401 40.3707C6.68821 38.2009 7.77216 36.0076 9.26147 34.4678C9.50202 35.2829 10.3048 36.8931 10.928 37.5122C10.7439 38.1184 10.5987 38.7193 10.4887 39.3436C10.4723 39.5465 8.86882 41.3 8.60187 41.6468C8.14741 42.2372 7.75685 42.8551 7.39368 43.505Z" fill="#2D2D2D"/>
<path d="M64.1845 51.4596C64.2927 51.4244 64.4288 51.3548 64.5407 51.3929C64.6793 51.6441 64.7373 51.9531 64.7959 52.2316C65.0364 53.374 65.042 54.562 64.7109 55.6888C64.5251 56.3215 64.218 56.9411 63.7443 57.408C61.2694 57.642 58.995 57.2365 56.9453 55.7653C56.9791 55.7618 57.0129 55.758 57.0466 55.7536C59.2499 55.4711 61.7947 54.4828 63.3004 52.806C63.6537 52.4126 63.8297 51.9048 64.1495 51.5027C64.161 51.4882 64.1729 51.474 64.1845 51.4596Z" fill="#2D2D2D"/>
<path d="M25.1011 14.7206C26.7845 12.9248 29.02 11.8866 31.478 11.7364C33.2051 11.6308 35.1288 11.9858 36.455 13.1537C36.2889 13.332 36.1251 13.5119 35.9624 13.6933L35.9027 13.6997C35.4153 13.7486 34.9241 13.7394 34.4358 13.8067C32.596 14.0605 30.9329 14.7936 29.3867 15.7934C28.003 15.323 26.5894 14.7294 25.1011 14.7206Z" fill="#2D2D2D"/>
<path d="M64.1641 46.0555C65.9677 46.0984 68.1965 45.8423 69.6876 44.7344C70.3276 45.7773 70.6286 46.8798 70.8852 48.0632C69.0125 49.4084 66.9405 50.345 64.7353 50.9941C64.6558 50.8581 64.5749 50.7251 64.5124 50.5802C64.4841 50.4711 64.6392 49.1526 64.6198 48.8022C64.5686 47.879 64.3546 46.9577 64.1641 46.0555Z" fill="#2D2D2D"/>
<path d="M70.8746 48.5146C70.9165 48.5238 70.8924 48.5132 70.9307 48.5704C70.8512 50.3146 70.667 51.7161 69.7842 53.279C68.7815 55.054 67.0413 56.5863 65.0531 57.1241C64.918 57.1607 64.4599 57.3102 64.3599 57.2528L64.4113 57.1559C64.5013 57.0086 64.5924 56.8607 64.6727 56.7079C65.5617 55.0158 65.3934 53.0404 64.8473 51.2789C66.3604 50.9243 67.8691 50.2803 69.219 49.5164C69.7803 49.1989 70.3179 48.8405 70.8746 48.5146Z" fill="#2D2D2D"/>
<path d="M70.6961 26.4863C72.011 26.8478 73.3321 27.4237 74.0332 28.6665C74.8398 30.0959 74.8047 31.9312 74.3603 33.4672C74.196 34.0348 73.9815 34.5952 73.7451 35.1366C72.4525 33.0382 70.9972 32.1856 68.6051 31.6183L68.3975 31.5697C68.8614 30.8955 68.978 30.0411 69.3898 29.3379C69.9147 28.4206 70.3495 27.4853 70.6961 26.4863Z" fill="#2D2D2D"/>
<path d="M7.36326 44.248C7.61267 44.5053 7.78355 44.9516 7.98918 45.2573C8.75777 46.3996 9.76066 47.3407 10.9579 48.0222C10.7518 48.459 10.542 48.8952 10.3879 49.3538C9.85144 50.9498 9.80254 52.8038 10.1961 54.4357L9.86324 54.301C9.65543 54.2245 9.45059 54.1352 9.24715 54.0474C7.95543 53.4899 6.63643 52.707 6.10085 51.3356C5.25633 49.1732 6.48808 46.2473 7.36326 44.248Z" fill="#2D2D2D"/>
<path d="M73.773 35.7725C74.9048 38.1238 76.2087 40.5519 75.2835 43.222C74.5792 45.2545 72.892 46.6883 71.1654 47.8588C70.954 46.6255 70.5838 45.6696 70.002 44.5737C70.9634 43.97 71.9917 42.8643 72.4366 41.8107C72.8806 40.7589 73.0248 38.4023 72.5945 37.3507C73.0843 36.8904 73.423 36.3399 73.773 35.7725Z" fill="#2D2D2D"/>
<path d="M20.269 55.0225C21.4515 56.5418 23.4474 57.7866 25.304 58.3107C25.1345 58.4493 24.938 58.5691 24.753 58.6875C23.1434 59.7183 21.4289 60.1823 19.537 60.3108C18.8655 60.3564 18.1681 60.3678 17.5077 60.2217C17.4845 60.2018 17.462 60.1811 17.4401 60.1598C17.1641 59.8896 16.9482 59.5267 16.7631 59.1905C16.1366 58.0529 15.8513 56.9158 15.8496 55.6172C17.3327 55.5179 18.8147 55.3373 20.269 55.0225Z" fill="#2D2D2D"/>
<path d="M62.4868 16.498C65.1834 17.0532 68.1763 18.4002 69.7296 20.7566C70.6628 22.1724 70.9228 23.7882 70.5701 25.4405C70.5221 25.6653 70.4684 25.8898 70.409 26.1119C70.0006 26.0372 69.5909 25.977 69.1802 25.9172C69.0856 25.5879 68.9703 25.2607 68.8288 24.9486C67.7315 22.5278 65.1034 20.9898 62.7112 20.0819C62.9029 18.8702 62.8608 17.6771 62.4868 16.498Z" fill="#2D2D2D"/>
<path d="M50.1582 55.2861L50.1914 55.2919C50.5975 55.3661 50.9909 55.5136 51.3945 55.6035C52.7722 55.91 54.1915 56.0596 55.6002 55.9561C55.8341 55.9389 56.2486 55.96 56.4555 55.852C58.8416 57.5132 60.6298 57.8935 63.5055 57.7623C62.5846 58.7361 61.3566 59.4427 60.1036 59.897C57.9986 60.6601 55.5391 60.6403 53.4972 59.6799C51.5006 58.7408 50.8656 57.2417 50.1582 55.2861Z" fill="#2D2D2D"/>
<path d="M11.2567 48.2119C12.7883 49.0128 14.8218 49.5096 16.5603 49.4328C17.2172 49.4037 17.8554 49.2793 18.4954 49.1382C18.3817 49.7071 18.3213 50.3917 18.4427 50.9647C18.1917 51.1235 17.9363 51.2711 17.6961 51.4466C16.3376 52.4392 15.7814 53.6889 15.531 55.3071C13.8071 55.3264 12.2212 55.0253 10.5744 54.5507C10.1317 53.0222 10.1654 51.1936 10.6401 49.6826C10.8004 49.1724 11.0285 48.6942 11.2567 48.2119Z" fill="#2D2D2D"/>
<path d="M9.44683 33.7405C8.99926 31.8982 9.28683 29.6407 9.97644 27.8948C10.9139 25.5211 12.7025 23.5856 14.8361 22.2231C15.3008 21.9263 15.7807 21.6334 16.2878 21.415C16.3146 22.5898 16.698 23.9254 17.3829 24.8858C15.7607 25.8835 14.5128 27.6137 14.0713 29.46C13.9385 30.0154 13.8105 30.6622 13.8467 31.234C12.1747 31.7916 10.7919 32.5957 9.44683 33.7405Z" fill="#2D2D2D"/>
<path d="M17.6243 24.7132C17.0878 23.9949 16.7157 22.6864 16.6571 21.7961C16.5583 20.2932 17.0003 18.7801 18.0005 17.6452C19.6224 15.8048 22.128 15.1547 24.4879 14.999C23.9956 15.7318 23.6075 16.5084 23.419 17.3764C23.0524 19.0648 23.692 20.7389 24.5914 22.1458C22.4692 22.4246 20.4254 23.0293 18.5592 24.0959C18.2772 24.257 17.8399 24.4696 17.6243 24.7132Z" fill="#2D2D2D"/>
<path d="M25.7449 58.4531C27.3293 58.8555 30.1577 59.2726 31.7544 59.0113C32.1127 59.1383 32.4531 59.3615 32.7987 59.5241C33.9121 60.0481 35.0024 60.2938 36.2346 60.2662C36.1354 60.3748 36.0343 60.4818 35.9307 60.5862C33.5193 63.0135 29.6598 63.8541 26.3504 63.8622C23.2921 63.8698 20.0386 62.8235 17.8428 60.6408C20.8271 60.7803 23.2904 60.2281 25.7449 58.4531Z" fill="#2D2D2D"/>
<path d="M20.7288 32.6592C20.7544 32.9498 20.8053 33.2285 20.8942 33.5068C19.6641 34.057 18.6644 35.0946 18.1819 36.3592C17.7253 37.5561 17.6748 38.9726 18.2054 40.1525C18.857 41.6012 20.1915 42.5136 21.6396 43.0565C23.0641 43.5906 24.6076 43.7397 26.1065 43.4767C26.0658 44.4257 26.2338 45.1771 26.8968 45.8897C27.6677 46.7184 28.8473 47.0964 29.9215 47.3321C29.4419 48.3764 29.5168 49.3754 29.603 50.4913L29.5121 50.4157C29.0651 49.8381 28.7233 49.2418 28.3461 48.6213C27.6955 48.7541 27.0442 48.8473 26.3786 48.8518C23.4851 48.8714 20.384 47.7776 18.3178 45.704C17.1198 44.5018 16.4017 42.9153 16.4019 41.2087L16.4175 40.608C16.605 38.5207 17.3274 36.4118 18.6515 34.7593C19.2726 33.9843 19.9931 33.3215 20.7288 32.6592Z" fill="#4FDB40"/>
<path d="M46.0981 48.3623C46.1228 48.3591 46.1475 48.3568 46.172 48.3529C46.7386 48.2627 47.3874 48.5453 48.0206 48.468C48.954 48.3541 49.7387 47.7476 50.6497 47.5549C51.1588 47.4472 51.6796 47.465 52.1967 47.4418C53.1398 47.3995 54.0628 47.268 54.9624 46.9715C56.8488 46.3498 59.7541 44.688 60.914 43.0586C61.3014 42.5144 61.5378 41.8612 61.7499 41.2327C61.9022 40.7816 62.0473 40.3204 62.1557 39.8565C62.2644 39.3916 62.2808 38.8629 62.4995 38.4351C62.5065 38.4215 62.5138 38.408 62.5209 38.3945C63.4432 38.8265 64.1556 39.4636 64.5056 40.4412C64.7938 41.2459 64.7932 42.0855 64.4171 42.8602C64.1799 43.3491 63.838 43.6972 63.45 44.0674C63.616 44.9378 63.4702 45.7519 62.9665 46.4899C62.3956 47.3264 61.4855 47.852 60.4966 48.026C60.1319 48.0902 59.765 48.0991 59.3971 48.0584C59.1952 49.0414 58.6793 49.8632 57.8381 50.4232C56.9708 51.0006 55.9508 51.1623 54.9373 50.9462C54.3723 50.8258 53.8973 50.581 53.4067 50.2841C52.7566 51.0762 51.7649 51.6075 50.7446 51.7142C49.5678 51.8372 48.3431 51.4941 47.4238 50.7436C46.7581 50.2001 46.1881 49.3809 46.1068 48.5049C46.1024 48.4574 46.1 48.4099 46.0981 48.3623Z" fill="#F2C94C"/>
<path d="M35.6082 20.4529C37.8211 18.6935 40.557 19.0087 43.1903 19.2379C44.3061 19.3351 45.4215 19.4119 46.5346 19.5397C48.3487 19.748 50.948 20.2295 52.4394 21.3032C52.8061 21.5671 53.1455 21.8565 53.4793 22.16C53.7333 22.391 53.9887 22.6677 54.2813 22.8473C54.6684 23.0849 55.1013 23.2464 55.5057 23.4521C56.6142 24.0158 57.6839 24.7865 58.4615 25.7657C58.8936 26.3097 59.2358 26.9117 59.483 27.561C59.6025 27.8749 59.6911 28.2202 59.8551 28.5136C60.0812 28.9178 60.4954 29.1847 60.7618 29.5649C61.3717 30.4357 61.8392 31.4568 62.0789 32.4953C62.1633 32.861 62.2035 33.2362 62.2887 33.601C62.9045 34.1867 63.204 35.0514 63.2287 35.8905C63.2551 36.7873 62.9295 37.6142 62.5208 38.3949C62.5137 38.4084 62.5064 38.4218 62.4994 38.4354C62.2807 38.8632 62.2643 39.3919 62.1556 39.8568C62.0472 40.3207 61.9021 40.7819 61.7498 41.2331C61.5377 41.8616 61.3013 42.5147 60.9139 43.0589C59.754 44.6884 56.8487 46.3502 54.9623 46.9718C54.0626 47.2683 53.1397 47.3999 52.1965 47.4421C51.6795 47.4653 51.1587 47.4475 50.6496 47.5553C49.7386 47.7479 48.9539 48.3544 48.0205 48.4684C47.3872 48.5457 46.7385 48.2631 46.1719 48.3532C46.1474 48.3571 46.1226 48.3595 46.098 48.3626C45.7731 48.4448 45.4487 48.5303 45.1221 48.6058C42.7749 51.277 40.0881 52.9489 36.4637 53.1829C36.1763 53.2015 35.8884 53.2148 35.6005 53.2223C35.1592 53.7317 34.7273 54.2474 34.3002 54.7688C33.5576 55.6753 32.826 56.7656 31.544 56.8582C30.9179 56.9035 30.1026 56.6492 29.6364 56.2264C29.2471 55.8733 29.0371 55.307 29.0319 54.7855C29.0304 54.6302 29.049 54.4735 29.0739 54.3204C29.308 53.0103 29.8469 51.8746 29.6029 50.491C29.5166 49.3751 29.4418 48.3761 29.9214 47.3318C28.8472 47.096 27.6676 46.7181 26.8966 45.8894C26.2337 45.1768 26.0656 44.4253 26.1063 43.4764C24.6075 43.7394 23.064 43.5903 21.6394 43.0562C20.1914 42.5133 18.8569 41.6009 18.2053 40.1522C17.6747 38.9723 17.7251 37.5557 18.1818 36.3589C18.6643 35.0942 19.664 34.0567 20.894 33.5065C20.8051 33.2282 20.7542 32.9495 20.7287 32.6589C20.6062 30.2578 21.3533 28.5046 22.9539 26.7333C23.9082 25.6773 25.1398 24.9189 26.4672 24.427C27.1315 22.9091 28.0759 21.7865 29.6387 21.1696C31.1709 20.5646 34.0115 20.0421 35.6082 20.4529Z" fill="#2D2D2D"/>
<path d="M60.0337 33.0397C60.0358 33.0282 60.038 33.0168 60.0399 33.0052C60.043 32.986 60.0454 32.9667 60.0486 32.9475C60.0911 32.6964 60.0347 32.4741 60.0222 32.2243C60.0147 32.0743 60.0284 32.0532 60.1331 31.9443C60.1743 32.1664 60.363 32.8037 60.2551 33.0038C60.2495 33.0143 60.2408 33.0229 60.2337 33.0324C60.1653 33.0381 60.1023 33.0436 60.0337 33.0397Z" fill="#F2C94C"/>
<path d="M37.0192 30.5492C37.0629 30.5519 37.0331 30.5529 37.1052 30.5253L37.1371 30.3591L37.2266 30.3115C37.378 30.4731 38.0491 30.6607 38.2903 30.7628C38.1306 30.7907 38.0385 30.6886 37.9166 30.6971L37.9088 30.8706C37.7518 31.0106 37.4518 30.9754 37.2551 30.9639C37.1043 30.9552 36.946 30.9638 36.8228 30.8672C37.1263 30.8519 37.531 30.9539 37.8144 30.8475L37.7872 30.7963C37.6611 30.7353 37.5539 30.6964 37.4149 30.6772L36.9638 30.6131L37.0192 30.5492Z" fill="#209F3B"/>
<path d="M47.7176 43.9121C48.0918 43.9115 48.4606 43.9069 48.8339 43.874C48.4162 44.1957 47.9939 44.5632 47.5137 44.7879C47.5641 44.4914 47.6417 44.2028 47.7176 43.9121Z" fill="#F2C94C"/>
<path d="M58.3569 43.6155C59.2269 43.4471 60.1046 42.9496 60.718 42.3145C60.5589 42.7524 60.1872 43.2252 59.768 43.4305C59.3476 43.6366 58.8356 43.6245 58.3773 43.6455L58.3569 43.6155Z" fill="#F2C94C"/>
<path d="M32.3303 46.8269C32.8683 46.8347 33.4092 46.8502 33.947 46.8292C34.6808 46.8006 35.4118 46.7289 36.1463 46.7119C35.7755 47.0334 32.1906 47.0258 31.5099 46.9804C31.446 46.9762 31.3821 46.9676 31.3188 46.9585C31.6514 46.916 32.0113 46.9373 32.3472 46.9352C32.2934 46.8656 32.2954 46.8813 32.2147 46.8659L32.3389 46.8544L32.3303 46.8269Z" fill="#209F3B"/>
<path d="M42.6875 19.7471C43.2617 19.75 46.423 19.9632 46.8342 20.1361C46.3216 20.1936 45.8136 20.201 45.2984 20.202C44.7654 20.1762 44.2409 20.1109 43.7139 20.0285C43.3738 19.9237 43.0225 19.8697 42.6875 19.7471Z" fill="white"/>
<path d="M53.2759 26.036C53.7127 25.9504 55.379 26.6057 55.8123 26.8352C55.0613 26.7406 54.3449 26.7211 53.5898 26.764C53.5193 26.5086 53.4107 26.2633 53.2759 26.036Z" fill="#F2C94C"/>
<path d="M50.061 46.9956C50.283 46.9657 50.4664 47.0326 50.6716 47.1045C49.7444 47.3484 48.8973 47.9001 47.9595 48.0517C47.6952 48.0538 47.4284 48.0223 47.165 48.0003C48.1463 47.693 49.0586 47.2533 50.061 46.9956Z" fill="#F2C94C"/>
<path d="M61.0934 31.8252C61.1829 31.9415 61.2714 32.0804 61.384 32.1748C61.3974 32.2064 61.4104 32.2382 61.4245 32.2696C61.5862 32.6256 61.6511 32.9658 61.6963 33.3525C61.2959 33.2092 60.8766 33.1261 60.4594 33.0501L60.207 31.8429C60.5144 31.8814 60.7866 31.8966 61.0934 31.8252Z" fill="#F2C94C"/>
<path d="M55.5644 46.1953C54.7533 46.8129 52.1537 47.139 51.1242 46.9992C50.9515 46.9758 50.6826 46.9352 50.5308 46.8525L50.5819 46.8384L50.5462 46.8318L50.9412 46.7625C51.4598 46.7513 52.0087 46.6516 52.5249 46.5897C53.5387 46.4681 54.554 46.343 55.5644 46.1953Z" fill="#F2C94C"/>
<path d="M38.7545 48.2568C38.671 48.6004 37.8131 48.9953 37.5933 49.4963C37.3196 49.8128 37.0346 50.1193 36.7613 50.4358C36.3892 50.8612 34.8103 52.6294 34.7085 53.0458C34.8099 53.1257 34.9172 53.1304 35.0405 53.1475C34.7109 53.5568 34.3501 53.944 34.0146 54.3493C33.5894 54.863 33.1835 55.4282 32.6919 55.8801C33.0364 55.1098 33.5048 54.4528 33.9945 53.7733C34.316 53.3275 34.6176 52.8675 34.952 52.4311C35.3588 51.9 35.7996 51.3954 36.2066 50.8643C36.4373 50.7074 36.695 50.3261 36.8613 50.0978L37.0813 49.8429C37.4425 49.5036 37.7767 49.1202 38.1216 48.763C38.3274 48.585 38.5322 48.4139 38.7545 48.2568Z" fill="white"/>
<path d="M46.5497 46.84C47.5672 46.8219 48.3047 46.5586 49.3937 46.7055C48.1127 47.1662 46.8354 47.7151 45.5049 48.0165C45.7982 47.7216 46.0666 47.4066 46.3167 47.0743C46.3894 46.9891 46.4668 46.9152 46.5497 46.84Z" fill="#F2C94C"/>
<path d="M33.6036 52.9131C33.7954 52.9415 33.9844 52.9706 34.1786 52.9775C33.6639 53.5729 33.2241 54.251 32.8427 54.9389C32.648 55.2901 32.4784 55.6827 32.2512 56.0125C32.0492 56.3058 31.7229 56.3362 31.3994 56.4017C31.9841 55.2952 32.7746 53.8475 33.6036 52.9131Z" fill="white"/>
<path d="M43.6611 21.6982C44.041 21.9918 44.2296 22.4036 44.2949 22.8711C44.3011 22.9154 44.3043 22.9586 44.3067 23.0032C43.7617 22.9937 43.1953 22.8973 42.6746 22.7359C42.1889 22.5854 41.6393 22.2888 41.1284 22.2968C41.6524 21.9477 42.2726 21.8296 42.8846 21.7451C43.143 21.7245 43.4016 21.6992 43.6611 21.6982Z" fill="white"/>
<path d="M32.459 52.5225C32.6984 52.6029 32.9713 52.6691 33.1967 52.7797C32.321 53.862 31.565 55.0954 30.9257 56.3289C30.7868 56.2352 30.6532 56.1856 30.4951 56.1317C30.8233 54.9182 31.7213 53.5429 32.459 52.5225Z" fill="white"/>
<path d="M29.9058 29.3831C30.0497 29.0948 30.2382 28.8353 30.476 28.6177C31.2819 27.8799 32.3933 27.734 33.4415 27.7844C32.7919 28.254 32.2576 28.6642 31.8183 29.352C31.1767 29.3227 30.546 29.3467 29.9058 29.3831Z" fill="white"/>
<path d="M56.4458 43.4863C56.8376 43.4397 57.2239 43.3944 57.6023 43.2763C59.3592 42.7281 60.5344 40.9865 61.3398 39.4355C61.3992 40.1042 61.3424 40.5728 61.0442 41.18C60.0986 42.5331 59.6438 43.1681 57.9624 43.4912C57.4547 43.5326 56.9527 43.5441 56.4458 43.4863Z" fill="#F2C94C"/>
<path d="M38.8154 48.1416C38.9897 48.2082 39.2353 48.2684 39.3756 48.3904C39.3421 48.435 39.3613 48.4255 39.3301 48.4356C39.2248 48.5783 39.1083 48.6894 38.9761 48.8061C38.6161 49.3683 38.0165 49.8564 37.5401 50.3243C36.6723 51.2364 35.893 52.2224 35.0404 53.1478C34.9172 53.1307 34.8099 53.1261 34.7085 53.0462C34.8102 52.6298 36.3891 50.8616 36.7613 50.4362C37.0346 50.1196 37.3196 49.8132 37.5933 49.4967C37.813 48.9957 38.671 48.6007 38.7545 48.2572L38.8154 48.1416Z" fill="#4FDB40"/>
<path d="M47.8944 42.6103C48.3476 42.3022 49.8953 41.5811 50.4278 41.6707C50.4905 41.6813 50.4902 41.7109 50.5215 41.76C50.5097 42.2637 49.8748 42.9475 49.524 43.2806C48.8451 43.925 48.6054 43.7737 47.7261 43.795C47.8433 43.4228 47.8694 42.9978 47.8944 42.6103Z" fill="#F2C94C"/>
<path d="M37.6775 47.5635C37.9213 47.7164 38.1648 47.8527 38.4238 47.9783C38.2897 48.0963 38.1566 48.2131 38.0309 48.3401C37.9229 48.4341 37.8153 48.5222 37.6988 48.6054L37.7349 48.7021C37.5686 48.9972 37.2964 49.254 37.0785 49.5154C36.9584 49.6445 36.8387 49.7686 36.7402 49.9155C36.4649 50.3802 35.9851 50.8031 35.6195 51.2057C35.1993 51.6682 34.7845 52.1799 34.4277 52.6929C34.3441 52.7874 34.2601 52.8815 34.1784 52.9778C33.9843 52.9708 33.7952 52.9418 33.6035 52.9133L34.2343 52.0752L34.4797 51.8255C35.0436 51.1814 35.8477 50.1961 36.3141 49.484C36.678 49.0697 36.9895 48.5675 37.3098 48.1166C37.4366 47.9352 37.5559 47.7484 37.6775 47.5635Z" fill="#4FDB40"/>
<path d="M30.147 51.0986C30.4104 51.335 30.6821 51.5489 30.9856 51.7318C30.6076 52.4789 29.5951 54.3451 29.7544 55.1354L29.8108 55.2064C29.9094 55.1999 29.9527 55.1782 30.0205 55.1032C30.2248 54.8767 30.3563 54.2004 30.4701 53.8819C30.7127 53.2032 31.0256 52.5407 31.3486 51.8969L32.0398 52.3904C31.291 53.4998 30.5382 54.6637 30.1164 55.9401C30.018 55.8583 29.9206 55.7739 29.838 55.6756C29.0812 54.775 29.883 53.3288 30.0778 52.3625C30.1601 51.9539 30.1204 51.515 30.147 51.0986Z" fill="white"/>
<path d="M60.5317 33.4355C60.7708 33.4846 61.0108 33.519 61.2385 33.6109C61.8138 33.8432 62.2469 34.2633 62.4883 34.8385C62.9098 35.843 62.6203 36.8662 62.227 37.8276L61.9546 38.3341C61.9253 36.1588 60.8765 35.2843 60.5317 33.4355Z" fill="#F2C94C"/>
<path d="M51.3669 45.4027C53.1664 44.7714 54.607 45.9491 56.6147 45.5741L56.8314 45.5645L56.8443 45.6056C56.5795 45.8942 55.849 45.9832 55.4776 46.0718C53.8397 46.3027 52.1854 46.4226 50.5504 46.658C50.3143 46.687 50.0829 46.6993 49.8452 46.7055C50.1529 46.3722 50.4937 46.0791 50.851 45.8003C51.0122 45.6746 51.2387 45.56 51.3669 45.4027Z" fill="#F2C94C"/>
<path d="M33.4416 27.7842C34.612 27.961 35.7354 28.3214 36.4605 29.3175C36.6777 29.6158 36.8165 29.9268 36.9417 30.272C36.8187 30.2995 35.5223 29.8497 35.2534 29.7807C34.1264 29.4914 32.9771 29.3979 31.8184 29.3518C32.2577 28.664 32.792 28.2538 33.4416 27.7842Z" fill="#F2C94C"/>
<path d="M53.7365 27.2624C55.6865 27.1694 58.1044 27.7626 59.5731 29.1107C60.3049 29.7824 60.8464 30.5796 61.2238 31.4956C61.2962 31.6713 61.4099 31.9179 61.4111 32.1107C61.4114 32.1536 61.4112 32.1424 61.384 32.1754C61.1825 31.7236 60.8744 31.3585 60.5572 30.9847C59.7671 30.0534 58.9438 29.2907 57.7862 28.8475C56.5013 28.3555 55.0698 28.2309 53.7136 28.0582C53.702 27.8817 53.6162 27.398 53.7205 27.2688L53.7365 27.2624Z" fill="url(#paint0_linear_1061_3025)"/>
<path d="M33.8164 47.5067C34.4508 47.4562 35.086 47.4104 35.7197 47.3525C35.0119 48.3505 34.2648 49.3198 33.5453 50.3093C33.0457 50.9963 32.572 51.7306 32.0393 52.3904L31.3481 51.8968C32.058 50.4278 32.9906 48.9259 33.8164 47.5067Z" fill="#4FDB40"/>
<path d="M35.9863 47.3306C36.2904 47.3063 37.0201 47.1535 37.289 47.2827C37.3413 47.3079 37.3343 47.3447 37.3481 47.3958C37.2618 47.8609 36.4489 48.7913 36.1705 49.2773L36.1545 49.3059C35.7501 49.8422 35.3336 50.3601 34.8954 50.8692C34.625 51.1834 34.3137 51.4962 34.072 51.8314C33.7612 52.125 33.5227 52.5058 33.1966 52.7799C32.9712 52.6692 32.6984 52.603 32.459 52.5226C32.6795 52.0784 33.0338 51.6422 33.3151 51.2327L34.9457 48.8803C35.3029 48.3695 35.6805 47.8748 35.9863 47.3306Z" fill="#4FDB40"/>
<path d="M30.2923 47.3877C30.6806 47.4489 31.6492 47.4165 31.941 47.5414C31.7583 47.8007 31.4643 48.1598 31.5085 48.4907L31.5534 48.5001C31.7723 48.2824 31.8904 47.9204 32.0577 47.6579C32.1989 47.5043 32.2769 47.502 32.4831 47.494C32.8463 47.48 33.2077 47.5049 33.5706 47.505C32.7353 48.9306 31.8322 50.3133 30.9852 51.7312C30.6817 51.5482 30.4099 51.3343 30.1466 51.098C30.0024 49.9154 29.8527 48.5125 30.2923 47.3877Z" fill="#4FDB40"/>
<path d="M47.4106 21.8815C47.8265 21.823 48.2289 21.7131 48.6283 21.5847C49.2937 21.3707 50.1438 20.9213 50.852 21.0755C51.3817 21.1909 51.8778 21.5461 52.3027 21.8666C52.683 22.1535 53.0357 22.4599 53.3658 22.8033C51.9497 22.4273 49.8367 22.158 48.4039 22.4633C47.8908 22.5726 47.4124 22.7737 46.9596 23.0362C46.8194 23.1174 46.6831 23.2037 46.5486 23.2939C45.8904 23.2502 45.2326 23.0325 44.5736 22.9486C44.4934 22.5346 44.3866 22.1517 44.1548 21.7944C44.1116 21.7278 44.1208 21.7675 44.137 21.679C44.6812 21.7683 45.3326 21.8799 45.8824 21.8776C46.342 21.973 46.9481 21.9646 47.4106 21.8815Z" fill="white"/>
<path d="M53.7055 28.1475C54.2803 28.2425 54.8607 28.2925 55.4363 28.3817C58.0292 28.7831 59.4641 29.5376 61.0098 31.704C61.0384 31.7441 61.0661 31.7847 61.0935 31.8256C60.7868 31.897 60.5145 31.8818 60.2072 31.8432C60.146 31.704 60.0902 31.5567 60.014 31.425C60.0538 31.5968 60.1034 31.771 60.1334 31.9443C60.0287 32.0532 60.0151 32.0743 60.0226 32.2243C60.0351 32.4741 60.0914 32.6964 60.0489 32.9475C60.0457 32.9667 60.0434 32.986 60.0402 33.0052C60.0384 33.0168 60.0362 33.0282 60.0341 33.0397C59.6328 33.0824 59.2405 33.1536 58.8443 33.2282C58.8732 33.1189 58.8971 33.0038 58.9038 32.8907C58.9355 32.3594 58.1884 31.0345 57.8386 30.6107C57.6166 30.3418 57.3398 30.1147 57.101 29.8604C56.9608 29.7111 56.8392 29.5413 56.708 29.3836C55.6883 29.0557 54.6887 28.8703 53.6211 28.786L53.7055 28.1475Z" fill="white"/>
<path d="M50.7859 41.8428C51.3379 42.0642 51.8731 42.3831 52.416 42.6339C54.0429 43.3857 55.8726 43.8686 57.6738 43.8295C57.2365 44.1647 56.7527 44.4165 56.2459 44.6286C53.8221 45.4336 51.9083 44.2897 49.7163 43.4738C50.2104 42.972 50.5055 42.4836 50.7859 41.8428Z" fill="#F2C94C"/>
<path d="M46.761 23.623C46.9403 23.6964 47.1145 23.6473 47.2989 23.6827L47.306 23.7755L47.3142 23.8551C47.5995 24.0271 48.0729 24.0548 48.399 24.128C49.6169 24.4015 50.9213 24.938 51.8275 25.8234C51.9945 26.0238 52.4842 26.0203 52.7418 26.0516C52.8835 26.0838 53.0538 26.1433 53.1988 26.1273C53.3383 26.3292 53.4024 26.5551 53.4743 26.7865C52.4092 26.9833 51.4992 27.1222 50.6767 27.8841C50.6484 27.7903 50.6198 27.6967 50.5886 27.6039C50.2521 26.6016 49.2706 25.869 48.3596 25.4203C47.3391 24.9177 46.5175 24.7459 45.4282 25.1177C45.7789 24.4784 46.1789 24.0594 46.761 23.623Z" fill="#F2C94C"/>
<path d="M47.3057 23.7754C48.289 23.4782 49.7109 23.7976 50.7225 23.9535C50.9646 23.9908 51.2967 24.002 51.5225 24.0874C51.5314 24.0907 51.539 24.0968 51.5472 24.1014C53.3676 24.1586 55.3946 24.7911 56.6708 26.1438C57.0061 26.4991 57.3593 26.9007 57.5711 27.3442C56.9852 27.1739 56.4059 26.977 55.8121 26.8358C55.3788 26.6064 53.7125 25.951 53.2757 26.0366C53.0772 25.8175 52.94 25.5351 52.7422 25.3085C52.462 24.9873 52.1138 24.7207 51.8481 24.3889L51.6778 24.177L51.6089 24.1913C51.8265 24.6186 52.2041 24.9191 52.5489 25.2425C52.8246 25.4946 53.0359 25.7911 53.1986 26.1272C53.0535 26.1432 52.8832 26.0837 52.7415 26.0514C52.4839 26.0202 51.9942 26.0237 51.8272 25.8233C50.9211 24.9378 49.6166 24.4014 48.3987 24.1279C48.0726 24.0547 47.5992 24.027 47.3139 23.855L47.3057 23.7754Z" fill="white"/>
<path d="M51.8271 25.8228C51.9338 25.7099 51.8904 25.5243 51.9732 25.3897C52.0343 25.2903 52.0582 25.2935 52.1657 25.2715C52.2874 25.3052 52.3761 25.3395 52.4818 25.4094C52.5757 25.6166 52.6913 25.8284 52.7414 26.0509C52.4839 26.0197 51.9941 26.0232 51.8271 25.8228Z" fill="#FEEEC0"/>
<path d="M59.8138 33.4522C59.9988 33.4244 60.1989 33.4323 60.3863 33.4258C60.5039 34.1724 60.815 34.8306 61.1224 35.5132C61.7927 37.0015 62.037 38.3948 61.5084 39.9718C61.4006 38.8192 60.9271 37.8969 60.173 37.0317C60.1544 37.0117 60.1357 36.9916 60.1166 36.9721C58.7346 35.5589 56.9084 35.4715 55.0488 35.4613C55.8035 35.2913 56.5524 35.0317 57.2345 34.6639C58.1348 34.1784 58.7587 33.5739 59.8138 33.4522Z" fill="#F2C94C"/>
<path d="M46.7607 23.6226C48.3418 22.4286 49.8101 22.6053 51.6615 22.8623C52.2954 22.9504 52.9403 23.0395 53.5539 23.2251C55.1728 23.7146 57.0742 24.8559 58.1011 26.2082C58.5529 26.8031 58.896 27.4495 59.1579 28.1477C58.6532 27.847 58.1509 27.5825 57.6086 27.3528C57.1148 26.1395 55.9058 25.208 54.727 24.7136C53.5521 24.2208 52.3836 24.1202 51.1457 23.9298C49.8942 23.7373 48.5572 23.3866 47.2987 23.6822C47.1143 23.6469 46.94 23.6959 46.7607 23.6226Z" fill="white"/>
<path d="M49.6357 43.5566C51.7082 44.4726 54.0757 45.6155 56.3641 44.7284C56.9216 44.5122 57.4084 44.1788 57.8863 43.8253C58.4412 43.82 58.994 43.8117 59.5481 43.7806C58.8574 44.3782 58.0805 45.0605 57.1924 45.3219C56.8929 45.4101 56.5869 45.4345 56.2868 45.508C55.8078 45.5223 55.3213 45.5288 54.8465 45.4564C53.7233 45.2852 52.4829 44.7337 51.3625 45.2282C50.6577 45.5227 50.1623 46.1485 49.5635 46.5948C48.7256 46.4637 47.328 46.4324 46.5488 46.7945C46.7841 46.1446 47.9852 45.6409 48.5352 45.2318L48.5824 45.1964C47.9232 45.3492 47.413 45.7349 46.8609 46.1069C46.9595 45.9044 47.0733 45.7095 47.1835 45.5131C47.2198 45.4374 47.2593 45.3564 47.3237 45.3005C47.5788 45.0789 47.9366 44.9148 48.2201 44.7237C48.7084 44.3945 49.218 43.9719 49.6357 43.5566Z" fill="#F2C94C"/>
<path d="M40.6747 22.4828C40.5249 22.7576 40.4692 22.983 40.4885 23.2988C40.5045 23.5601 40.594 24.0786 40.826 24.2391C40.9017 24.2915 40.9657 24.3048 41.0546 24.2932L41.0548 24.2289C40.7801 23.8986 40.602 23.5864 40.641 23.1397C40.6717 22.7893 40.8199 22.5512 41.0853 22.3312L41.1284 22.2961C41.6392 22.2881 42.1888 22.5847 42.6746 22.7352C43.1953 22.8966 43.7617 22.993 44.3067 23.0025C44.2012 23.5448 43.9871 23.9395 43.5208 24.2601C43.2797 24.4258 43.0014 24.5369 42.7372 24.6602C42.0128 24.9982 41.5269 25.4508 41.2334 26.2038C41.0585 26.1574 40.653 25.6343 40.4325 25.5017C39.2306 24.7785 37.7851 24.5277 36.4087 24.3836C36.4767 24.2917 36.5471 24.2219 36.641 24.1557C37.1749 23.7792 40.1378 22.3924 40.6747 22.4828Z" fill="#F2C94C"/>
<path d="M29.9059 29.383C30.5462 29.3467 31.1769 29.3227 31.8184 29.352C32.9772 29.398 34.1265 29.4916 35.2535 29.7809C35.5224 29.8499 36.8187 30.2997 36.9418 30.2722C36.9682 30.3637 37 30.4563 37.0194 30.5494L36.964 30.6133C36.0419 30.6034 35.037 30.665 34.1884 31.0579C33.5529 31.3521 32.9165 31.8775 32.6828 32.5582C32.5238 33.0213 32.6225 33.3665 32.8268 33.7855C32.3608 33.7805 31.9466 33.6573 31.5336 33.4476C30.7389 33.0439 29.9837 32.4284 29.7008 31.5555C29.4645 30.8265 29.5587 30.0593 29.9059 29.383Z" fill="#4FDB40"/>
<path d="M24.1976 33.1413C24.231 33.1396 24.2642 33.1376 24.2976 33.1367C25.3863 33.1062 27.1618 33.1685 27.9849 33.9727C28.2353 34.2174 28.3721 34.5327 28.3665 34.8843C28.3623 35.1526 28.2644 35.5735 28.0719 35.7637C27.7074 35.8411 27.3514 35.0046 26.9326 34.8176C26.6531 34.6928 26.3356 34.7091 26.056 34.8254C25.5663 35.0291 25.1954 35.3565 24.9998 35.8544L24.9801 35.9058C24.8475 36.4522 24.9347 36.949 25.0762 37.4815C24.6382 37.4318 24.1885 37.3478 23.7863 37.1611C22.4206 36.5269 21.8447 34.9658 21.3716 33.6455C22.3185 33.3229 23.2071 33.2051 24.1976 33.1413Z" fill="#4FDB40"/>
<path d="M18.4141 37.4639C18.6687 37.9489 18.6263 38.4818 18.9122 38.9537C19.0452 39.0614 19.1765 39.1731 19.3134 39.2757C19.2146 39.0661 18.7763 38.3675 18.7816 38.213L18.8082 38.2088L18.7545 38.2511L18.8406 38.2307C19.0979 38.5904 19.2826 39.2083 19.5831 39.4941C20.6657 40.52 21.9395 40.9596 23.4263 40.914C23.8895 40.8998 24.3791 40.8396 24.8225 40.7008C24.9483 40.6813 25.0532 40.6647 25.1673 40.6064L25.1213 40.5522C25.2053 40.4955 25.2916 40.4768 25.3919 40.4936C25.7227 40.5493 26.0361 40.7142 26.3685 40.7772C26.8613 40.8707 27.3612 40.8564 27.8565 40.9105L27.7105 41.0121C27.555 41.1746 27.3458 41.3504 27.2228 41.5354C26.9983 41.8504 26.7902 42.1739 26.5826 42.4998L26.3653 42.8506C25.9333 42.9293 25.504 43.0117 25.0662 43.0514C23.6782 43.2697 21.4794 42.6286 20.3526 41.8144C19.8113 41.6257 19.2293 40.9354 18.9373 40.4617C18.4667 39.6982 18.1915 38.5973 18.3973 37.7092L18.4141 37.4639Z" fill="#4FDB40"/>
<path d="M18.4138 37.4639C18.6684 37.9489 18.626 38.4818 18.9119 38.9537C19.0449 39.0614 19.1762 39.1731 19.3131 39.2757C19.2143 39.0661 18.776 38.3675 18.7813 38.213L18.8079 38.2088L18.7542 38.2511L18.8403 38.2307C19.0976 38.5904 19.2824 39.2083 19.5828 39.4941C20.6654 40.52 21.9392 40.9596 23.426 40.914C23.8892 40.8998 24.3788 40.8396 24.8222 40.7008C24.9481 40.6813 25.0529 40.6647 25.1671 40.6064L25.121 40.5522C25.205 40.4955 25.2913 40.4768 25.3916 40.4936C25.7224 40.5493 26.0358 40.7142 26.3682 40.7772C26.861 40.8707 27.361 40.8564 27.8562 40.9105L27.7103 41.0121C26.9348 40.9765 26.2006 40.8357 25.4492 40.6534C25.091 40.7961 24.7497 40.92 24.3708 40.9969C23.9331 41.0654 23.4891 41.1004 23.0462 41.0799C21.4756 41.0074 19.9862 40.2782 18.9307 39.1145C19.02 39.8664 19.7445 40.8379 20.3254 41.298C22.2186 42.7975 24.3638 42.2988 26.5823 42.4998L26.365 42.8506C25.933 42.9293 25.5037 43.0117 25.0659 43.0514L25.1171 42.9736C25.3581 42.9864 25.5896 42.9372 25.8253 42.8929C25.9846 42.8629 26.145 42.8453 26.2428 42.7023C25.7822 42.5878 25.2438 42.6127 24.7681 42.595C24.0466 42.568 23.322 42.5417 22.6043 42.4595C22.0227 42.4425 21.5871 42.1486 21.0775 41.9193L21.0056 41.8871C20.7754 41.7175 20.5094 41.6038 20.2795 41.425C19.4115 40.7498 18.8409 39.6478 18.5941 38.5907C18.5309 38.32 18.5528 37.9396 18.397 37.7092L18.4138 37.4639Z" fill="white"/>
<path d="M18.3973 37.71C18.553 37.9404 18.5312 38.3207 18.5944 38.5915C18.8412 39.6486 19.4118 40.7506 20.2798 41.4258C20.5097 41.6046 20.7757 41.7182 21.0058 41.8879L21.0778 41.92C21.5873 42.1494 22.023 42.4433 22.6046 42.4603C23.3223 42.5425 24.0469 42.5688 24.7683 42.5957C25.2441 42.6135 25.7825 42.5886 26.2431 42.7031C26.1453 42.8461 25.9848 42.8637 25.8256 42.8936C25.5898 42.938 25.3583 42.9871 25.1173 42.9744L25.0662 43.0522C23.6782 43.2704 21.4794 42.6293 20.3526 41.8152C19.8113 41.6265 19.2293 40.9362 18.9373 40.4625C18.4667 39.699 18.1915 38.5981 18.3973 37.71Z" fill="#4FDB40"/>
<path d="M39.8499 48.4844C41.5649 49.0477 43.3789 48.9645 45.1221 48.6053C42.775 51.2765 40.0882 52.9484 36.4638 53.1824C36.1764 53.201 35.8885 53.2143 35.6006 53.2218C37.0167 51.6399 38.387 50.0256 39.8499 48.4844Z" fill="#4FDB40"/>
<path d="M30.2186 26.3252C31.2351 25.5528 32.3196 25.0204 33.5747 24.7722C33.8854 24.7108 35.4105 24.4938 35.6608 24.6626L35.6012 24.7455C35.6734 24.7486 35.6561 24.7562 35.711 24.7351C35.7546 24.7185 35.7969 24.6977 35.8411 24.6825C36.2626 24.5376 38.3819 25.042 38.8859 25.1995C39.1961 25.2965 39.4901 25.416 39.7776 25.5669C38.2036 25.6307 36.6425 25.8509 35.0762 25.9911C34.2522 26.0649 33.399 26.0038 32.5915 26.1867C32.2483 26.2644 31.7581 26.4719 31.51 26.7265L31.5155 26.7965C31.5918 26.8023 31.5569 26.8135 31.609 26.7707C32.298 26.2044 33.4628 26.1158 34.3124 26.2091C34.5715 26.2376 34.8307 26.2725 35.0884 26.3105C34.4419 26.7437 33.9228 27.5175 33.0719 27.4732C31.9777 27.5096 30.868 27.7498 30.0888 28.5787C29.8384 28.8451 29.663 29.1475 29.5062 29.4754C28.3928 29.5632 27.2 29.7489 26.1541 30.1479C26.135 30.0168 26.1222 29.879 26.1287 29.7467C26.1466 29.3822 26.32 29.0055 26.5348 28.7168C27.5388 27.3673 29.4597 27.6579 29.7815 27.3647C29.8006 27.2813 29.8033 27.283 29.7635 27.2079C29.5088 27.1338 29.2355 27.2929 28.9827 27.2336C28.8705 27.2072 28.8595 27.1828 28.797 27.0936C28.7684 26.8864 28.8463 26.651 28.8887 26.4473C29.3295 26.454 29.7815 26.3792 30.2186 26.3252Z" fill="white"/>
<path d="M47.8942 42.6104C47.8692 42.9979 47.8431 43.4228 47.7259 43.795L47.7174 43.9115C47.6415 44.2022 47.5639 44.4909 47.5135 44.7873C47.2617 44.9081 46.5522 45.1631 46.4266 45.3861L46.4923 45.4662C46.3091 45.5507 46.0808 45.6243 45.9104 45.7287C45.3494 45.9426 44.7936 46.1678 44.217 46.3373C43.9446 46.4173 42.6474 46.6808 42.5361 46.7932L42.5329 46.8732C42.8282 46.9854 45.2547 46.2271 45.631 46.0269C45.6418 46.0211 45.6516 46.0135 45.662 46.0068C46.166 45.8386 46.6579 45.593 47.1444 45.3781L47.1831 45.5132C47.0729 45.7096 46.9591 45.9045 46.8606 46.107C47.4127 45.735 47.9228 45.3493 48.5821 45.1965L48.5349 45.2319C47.9848 45.6411 46.7837 46.1447 46.5485 46.7946L46.5497 46.84C46.4668 46.9152 46.3894 46.989 46.3167 47.0743C45.8849 47.1277 45.1531 47.9422 44.6477 48.1508C43.3153 48.7008 40.6966 48.3329 39.3927 47.8693C38.7705 47.6479 38.2155 47.3085 37.6118 47.0504C39.3421 46.9582 41.1453 46.2909 42.5984 45.3815C43.1775 45.0191 43.7108 44.5878 44.3213 44.2759C44.9582 43.9505 45.6239 43.7038 46.2781 43.4175C46.8311 43.1755 47.3642 42.8986 47.8942 42.6104Z" fill="#4FDB40"/>
<path d="M56.9613 35.9847L56.8441 35.8728C57.1296 35.73 58.0003 36.0304 58.3022 36.1327C59.4645 36.5265 60.4481 37.4796 60.9748 38.5754C61.0847 38.804 61.1774 39.0332 61.243 39.2784C60.5565 40.7694 59.346 42.4743 57.7474 43.0673C55.8636 43.7661 53.7846 43.0231 52.0538 42.215C51.7038 42.0515 51.3464 41.8783 51.0298 41.6557C51.6925 41.5906 52.3802 41.5882 53.0317 41.4453C53.3238 41.3812 53.5874 41.223 53.8788 41.1615C54.2085 41.0918 54.5448 41.0549 54.8735 40.98C55.7836 40.7728 56.8076 40.335 57.4119 39.5954C57.5166 39.4672 57.6045 39.3333 57.6783 39.1851C57.9154 38.8532 57.9606 38.2372 57.9349 37.8355C57.8878 37.0972 57.5078 36.4622 56.9613 35.9847Z" fill="#F2C94C"/>
<path d="M18.4141 37.4641C18.6455 36.1385 19.4237 35.0352 20.5202 34.272C20.6756 34.1637 20.8337 34.0592 20.9917 33.9551C21.3295 35.2227 21.955 36.5139 23.1326 37.1966C23.7804 37.5722 24.4608 37.6915 25.1932 37.7819C25.7793 38.9528 26.5258 39.7237 27.7917 40.1439C28.08 40.2395 28.3768 40.3067 28.6725 40.3749L27.8565 40.9107C27.3612 40.8566 26.8613 40.8709 26.3685 40.7774C26.0361 40.7144 25.7227 40.5495 25.3919 40.4938C25.2916 40.477 25.2053 40.4957 25.1213 40.5524L25.1673 40.6066C25.0532 40.6649 24.9484 40.6815 24.8225 40.701C24.3791 40.8398 23.8895 40.9 23.4263 40.9142C21.9395 40.9598 20.6657 40.5202 19.5831 39.4943C19.2827 39.2085 19.0979 38.5906 18.8406 38.2309L18.7545 38.2513L18.8082 38.209L18.7816 38.2132C18.7763 38.3677 19.2146 39.0663 19.3134 39.2759C19.1765 39.1733 19.0452 39.0616 18.9122 38.9539C18.6263 38.482 18.6687 37.9491 18.4141 37.4641Z" fill="#4FDB40"/>
<path d="M23.2879 38.6694L23.5065 38.5625L23.6037 38.6215V38.6137C23.5073 38.743 23.4161 38.8695 23.3352 39.0091C23.2988 39.2961 23.3832 39.5708 23.5557 39.803C23.8915 40.2548 24.5003 40.4762 25.044 40.5455C25.0696 40.5488 25.0954 40.5504 25.1211 40.5529L25.1671 40.6071C25.0529 40.6654 24.9481 40.682 24.8222 40.7015C24.3204 40.5465 23.8921 40.4981 23.5165 40.0789C23.2404 39.7708 23.1442 39.418 23.1654 39.0124L23.2879 38.6694Z" fill="#2D2D2D"/>
<path d="M44.5737 22.9482C45.2327 23.0321 45.8905 23.2499 46.5487 23.2936C45.963 23.7251 45.5415 24.2013 45.1794 24.8314C45.1012 24.9674 44.994 25.1344 44.9729 25.2911C44.9629 25.365 44.9687 25.4028 44.9954 25.4701C45.0666 25.5294 45.0608 25.55 45.158 25.5453L45.2036 25.5071C45.5766 25.199 46.1618 25.092 46.6387 25.1402C47.7772 25.2553 49.1018 25.9925 49.8116 26.8879C50.1419 27.3044 50.3677 27.8238 50.3128 28.3648C50.2449 29.0332 49.8103 29.5813 49.2969 29.981C48.4099 30.6716 47.2758 31.0727 46.2248 31.4411C46.1744 30.8288 46.0413 30.3434 45.5466 29.9314C44.448 29.0163 42.8424 29.0943 41.7833 27.8692C41.7176 27.4671 41.6643 26.7796 41.3732 26.4812C41.3613 26.469 41.3454 26.4615 41.3315 26.4517C41.9413 24.869 42.8894 25.1523 43.9006 24.288C44.3231 23.9268 44.5274 23.4974 44.5737 22.9482Z" fill="#F2C94C"/>
<path d="M46.8359 38.2845C47.1398 37.9817 47.4239 37.5557 47.775 37.3154C48.484 36.8303 50.8726 36.2775 51.7577 36.119C53.0595 35.8861 55.8026 35.317 56.9202 36.0947C57.4388 36.5821 57.7699 37.2093 57.7805 37.9315C57.7873 38.3948 57.6395 38.7636 57.4334 39.1655C57.2866 39.3232 57.1622 39.5045 57.0066 39.6532C56.2972 40.3305 55.2702 40.629 54.3351 40.8136C54.7791 40.35 55.1479 39.9124 55.1393 39.2286C55.1335 38.7705 54.9575 38.3116 54.6206 37.9954C54.3196 37.7127 53.9206 37.5732 53.5094 37.5943C53.1483 37.6129 52.7577 37.7468 52.5211 38.0329C52.4468 38.1227 52.3986 38.2038 52.3952 38.3226L52.4505 38.3432C52.5296 38.2879 52.5938 38.2318 52.6637 38.1653C52.9012 37.9393 53.1771 37.8315 53.5063 37.8502C53.8809 37.8715 54.2414 38.0453 54.4796 38.337C54.7153 38.6258 54.8097 39.0013 54.7563 39.3686C54.6788 39.9016 54.3038 40.3291 53.8806 40.6346C52.9561 41.3019 51.613 41.3432 50.5079 41.3856C50.3291 41.293 50.1617 41.1945 49.9927 41.0856C49.5755 40.723 49.2334 40.3937 49.182 39.8083C49.1684 39.6535 49.177 39.4897 49.1842 39.3347C49.4333 39.2761 49.8484 39.1528 49.9904 38.9268L49.9664 38.8527L49.9209 38.8428C49.6019 39.068 49.3578 39.1993 48.9505 39.1212C48.4796 39.031 48.0662 38.691 47.5973 38.5604C47.9912 38.9119 48.5043 39.192 49.0177 39.3225C49.0366 40.0085 49.1314 40.5087 49.6505 41.0035C49.7228 41.0725 49.7962 41.1369 49.8759 41.1974C49.9173 41.2372 49.9455 41.2651 49.9752 41.3149C49.291 41.5279 48.6408 41.7347 47.9834 42.0257C47.8305 41.1497 47.7108 40.2899 47.3874 39.4523C47.2375 39.064 47.0048 38.7128 46.8516 38.3253L46.8359 38.2845Z" fill="#F2C94C"/>
<path d="M39.7774 25.5664C40.4475 25.9191 41.0214 26.3308 41.2526 27.094C41.3074 27.2752 41.3257 27.4488 41.341 27.6361L41.3458 27.6909L41.3483 27.7238C40.3948 27.2702 39.2377 26.8636 38.1819 27.2214C37.9038 27.3155 37.6318 27.4924 37.5021 27.7653C37.4564 27.8615 37.4415 27.9495 37.4816 28.0509C37.5076 28.1164 37.544 28.1282 37.5987 28.1675L37.6853 28.1578C37.7277 28.078 37.7236 28.0695 37.7266 27.9841C37.7308 27.8597 37.7475 27.7754 37.8434 27.6871C38.2953 27.2709 39.1927 27.3165 39.7545 27.4026C40.1736 27.4667 40.5793 27.5895 40.9576 27.7818C41.5989 28.1078 42.0405 28.6938 42.6847 29.0354C43.5134 29.4748 44.9658 29.7319 45.5205 30.4857C45.7768 30.8339 45.85 31.257 45.7826 31.6789C45.655 32.4777 45.0721 33.2428 44.5159 33.8005C44.0916 33.7859 43.7227 33.7792 43.3097 33.8855C42.1541 32.8462 40.4519 31.5975 39.0099 31.039C38.9154 31.0528 38.8495 31.0743 38.7619 31.0265L38.7448 30.9314C38.6094 30.8509 38.44 30.8113 38.2902 30.7628C38.0491 30.6607 37.378 30.4731 37.2266 30.3116C37.2431 29.8322 36.8083 29.2033 36.4949 28.8544C35.6251 27.8861 34.3282 27.5419 33.0717 27.4727C33.9226 27.517 34.4416 26.7432 35.0882 26.31C34.8305 26.272 34.5713 26.237 34.3122 26.2086C33.4626 26.1153 32.2978 26.2039 31.6088 26.7702C31.5567 26.813 31.5916 26.8018 31.5153 26.796L31.5098 26.726C31.7579 26.4714 32.2481 26.2639 32.5913 26.1862C33.3988 26.0033 34.252 26.0644 35.0759 25.9905C36.6423 25.8504 38.2034 25.6302 39.7774 25.5664Z" fill="#F2C94C"/>
<path d="M38.7446 30.932C39.7711 30.1532 41.0371 29.5393 42.3637 29.7218C42.8538 29.7893 43.3721 30.0004 43.6692 30.4123C43.8504 30.6636 43.9232 30.9754 43.8725 31.2811C43.8112 31.6503 43.5621 31.959 43.2549 32.1614C43.0975 32.2652 42.9163 32.3408 42.7449 32.419C42.4359 32.3454 42.0868 32.2868 41.7935 32.1649C42.0733 32.0906 42.4453 32.2114 42.7205 32.2745C43.0936 32.113 43.4757 31.9313 43.6414 31.53C43.7545 31.2561 43.7417 30.9046 43.6249 30.6339C43.5023 30.3497 43.258 30.1681 42.9739 30.0624C42.0042 29.7014 40.7999 30.0095 39.9051 30.44C39.5854 30.5937 39.2549 30.7786 39.0097 31.0396C38.9152 31.0534 38.8493 31.0749 38.7617 31.0271L38.7446 30.932Z" fill="#2D2D2D"/>
<path d="M34.8568 21.9013C35.1295 21.4506 35.5677 21.0946 35.9907 20.792C37.5548 19.6731 39.4969 19.3782 41.3758 19.7061C42.0351 19.8211 42.6775 20.0254 43.3379 20.1346L43.3889 20.1426C43.9718 20.2733 44.6252 20.3403 45.2226 20.3507C45.8267 20.3668 46.3938 20.3364 46.9869 20.2191C47.8094 20.093 49.3454 20.6059 50.1959 20.8369C49.184 21.0866 48.1112 21.6718 47.0676 21.6884C46.7938 21.7397 46.5026 21.7206 46.2247 21.7184C45.6429 21.6435 45.0242 21.5465 44.4395 21.5285C44.2292 21.5039 44.0153 21.4704 43.8041 21.4575C42.4337 20.5124 39.9494 20.0137 38.3216 20.3151C37.3619 20.4929 36.1057 20.9636 35.5358 21.815C35.5123 21.8501 35.5073 21.8615 35.4846 21.9024C35.6051 21.9582 35.7637 21.7522 35.8441 21.6733C36.4319 21.0976 37.1298 20.7624 37.928 20.5697C39.615 20.1622 42.0062 20.6443 43.4664 21.5471L42.8494 21.6418C42.0833 21.7175 41.2428 21.9354 40.6747 22.483C40.1377 22.3926 37.1749 23.7794 36.6409 24.156C36.5471 24.2222 36.4767 24.2919 36.4087 24.3838C34.6111 24.2939 33.1944 24.3982 31.5697 25.2639C31.031 25.5508 30.3244 26.1727 29.7619 26.2954C29.4962 26.3533 29.1946 26.3461 28.9221 26.358C29.2531 25.3296 29.7644 24.3829 30.6576 23.7404C31.5751 23.0803 32.7568 22.6682 33.8919 22.8678C34.4623 22.968 35.1398 23.2744 35.477 23.7643C35.543 23.8602 35.6113 23.9787 35.6891 24.0646C35.7643 24.1475 35.8426 24.125 35.9457 24.1275C35.9491 24.0205 35.9092 23.9159 35.8651 23.8195C35.5649 23.1635 35.0168 22.8291 34.3661 22.5782C33.0335 22.307 31.8093 22.5793 30.6736 23.3257C29.5269 24.0793 28.869 25.1939 28.5998 26.5297C28.5631 26.7121 28.5302 26.8953 28.4979 27.0786C27.8013 26.7592 27.2223 26.5188 26.8612 25.7866C26.826 25.6238 26.8117 25.4638 26.8244 25.2971C26.9059 24.22 27.7144 23.0994 28.515 22.4223C29.9766 21.1859 33.2437 20.7129 35.1451 20.8696C35.0185 21.0069 34.9001 21.1528 34.7791 21.295C34.6317 21.5802 34.248 22.1755 34.3548 22.4872C34.3623 22.5089 34.3709 22.5303 34.379 22.5518C34.5805 22.439 34.7051 22.0861 34.8568 21.9013Z" fill="white"/>
<path d="M26.9551 25.7135C26.957 25.6918 26.9587 25.6701 26.961 25.6485C27.0573 24.7719 27.7305 23.6605 28.4135 23.1059C29.4912 22.2307 33.1671 20.805 34.578 20.9959C34.6631 21.0074 34.6706 21.0029 34.7225 21.0749C34.6192 21.1511 34.5045 21.1413 34.3782 21.1556C33.888 21.2011 33.3955 21.2367 32.9143 21.3448C31.5384 21.6541 28.8658 22.6387 27.9589 23.7165C27.6241 24.1145 27.3951 24.6275 27.2086 25.1084C27.1345 25.2994 27.081 25.5582 26.9551 25.7135Z" fill="#2D2D2D"/>
<path d="M26.3675 25.0049C26.3365 25.3796 26.3339 25.7499 26.4764 26.1054C26.7483 26.7834 27.4475 27.1107 28.0778 27.3757C27.3424 27.5614 26.6555 27.9497 26.2172 28.5832C25.8854 29.0626 25.7803 29.559 25.884 30.1268C26.0791 30.5207 26.3275 30.7836 26.7586 30.9281C26.9014 30.9759 27.0557 31.0102 27.2018 30.9608L27.2074 30.8988C26.7896 30.7482 26.3841 30.6657 26.1823 30.2135C26.1725 30.1916 26.1636 30.1693 26.1541 30.1473C27.2 29.7483 28.3928 29.5626 29.5061 29.4749C29.1635 30.3039 29.1145 31.0692 29.4579 31.9072C29.5465 32.1235 29.6932 32.3402 29.7672 32.5561C29.3193 32.6323 28.8479 32.7443 28.5768 33.1496C28.4893 33.2804 28.4354 33.6892 28.4686 33.8464C28.4756 33.8793 28.4894 33.9184 28.5 33.9507C28.8348 33.4816 28.4896 32.9612 29.5085 32.7897C29.5807 32.7775 29.6536 32.77 29.7264 32.761L29.9213 32.7362C30.2599 33.2579 31.4043 33.8004 31.9744 34.0211C31.1869 34.4804 30.6225 35.1941 30.3926 36.0828C30.2345 36.6943 30.2136 37.4135 30.5558 37.9677C30.9929 38.6754 31.7207 38.8988 32.4716 39.1157C31.2924 39.218 30.1463 39.6114 29.082 40.1168C27.7311 39.7905 26.524 39.4018 25.7582 38.1547C25.685 38.0354 25.6196 37.9136 25.5586 37.7875C26.1435 37.7053 26.8525 37.7126 27.2393 37.1918C27.3162 37.0882 27.3844 36.977 27.4529 36.8678C27.3359 36.8844 27.0621 36.8861 26.9946 36.9735L27.0871 37.1074C26.8172 37.4218 26.3125 37.4666 25.9211 37.4954C25.7568 37.5075 25.594 37.5106 25.4293 37.5076C25.2484 36.9236 25.1242 36.3149 25.4182 35.7388C25.5738 35.4339 25.8321 35.1807 26.1634 35.0784C26.3721 35.0139 26.7637 34.9737 26.9616 35.0789C27.3131 35.2658 27.6008 36.1163 28.1113 35.9659C28.2993 35.9104 28.4058 35.6729 28.47 35.5068C28.6314 35.089 28.7199 34.6184 28.5267 34.1957C28.2687 33.6311 27.651 33.3266 27.0918 33.1355C25.8282 32.7037 24.2984 32.7089 22.992 32.8684L22.3377 33.0027C22 33.1002 21.6668 33.2 21.3367 33.3213C21.3234 32.9771 21.3194 32.5867 21.2457 32.2514C21.1127 31.6729 21.4463 30.2336 21.6659 29.6625C22.2843 28.0543 23.6376 26.5457 25.0928 25.643C25.5001 25.3904 25.9303 25.1979 26.3675 25.0049Z" fill="#4FDB40"/>
<path d="M26.3675 25.0049C26.3365 25.3796 26.3339 25.7499 26.4764 26.1054C26.7483 26.7834 27.4475 27.1107 28.0778 27.3757C27.3424 27.5614 26.6555 27.9497 26.2172 28.5832C25.8854 29.0626 25.7803 29.559 25.884 30.1268C24.8886 30.4797 23.2118 31.0186 22.4399 31.7167L22.2592 31.8775L22.2278 31.3469C21.9504 30.9906 21.7792 30.673 21.8405 30.2029C21.9529 29.3414 22.649 28.3817 23.3357 27.8792C23.8053 27.5354 24.9446 27.0818 25.5139 27.2079C25.6169 27.2307 25.6396 27.2636 25.7021 27.3404C25.7171 27.4792 25.7038 27.5489 25.6173 27.6614C25.3637 27.9908 24.9586 28.2369 24.6364 28.4986C24.1282 28.9115 23.0338 29.9633 22.8157 30.5948C22.7314 30.8391 22.6021 31.1463 22.6265 31.4071C22.7099 31.3709 22.7295 31.3043 22.7588 31.2212C22.8439 30.98 22.8775 30.6716 23.0025 30.4509C23.286 29.9503 23.8061 29.4529 24.2191 29.0572C24.5028 28.7855 25.9967 27.6813 25.8462 27.2984C25.8105 27.2075 25.7066 27.1557 25.6183 27.1296C25.0645 26.9657 24.0132 27.2514 23.5156 27.5435C22.721 28.0099 21.9735 29.0543 21.7464 29.9439C21.6893 30.1679 21.6507 30.4214 21.7032 30.6496C21.7667 30.9261 22.3729 31.6971 22.0868 31.9022C21.8598 32.0649 21.4985 32.0893 21.2457 32.2514C21.1127 31.6729 21.4463 30.2336 21.6659 29.6625C22.2843 28.0543 23.6376 26.5457 25.0928 25.643C25.5001 25.3904 25.9303 25.1979 26.3675 25.0049Z" fill="white"/>
<path d="M53.0915 27.3168L53.5661 27.2666C53.5956 27.6785 53.6238 28.0972 53.5702 28.5081L53.5084 28.8696C53.4688 29.1004 53.2778 29.5254 53.2921 29.7032L53.3449 29.6817C53.5313 29.4129 53.5684 29.1015 53.6209 28.7864C54.6885 28.8707 55.6881 29.0561 56.7078 29.384C56.839 29.5418 56.9606 29.7115 57.1008 29.8609C57.3395 30.1152 57.6164 30.3423 57.8384 30.6112C58.1882 31.035 58.9353 32.3599 58.9036 32.8912C58.8969 33.0043 58.873 33.1194 58.8441 33.2286C58.1749 33.2904 57.4458 33.1581 56.8128 32.9443C56.2674 32.7601 55.6527 32.4579 55.3999 31.9084C55.2584 31.6008 55.272 31.2673 55.3956 30.9564C55.6009 30.4404 55.9703 30.0989 56.5284 30.0596C56.6769 30.0491 56.8547 30.0622 56.9913 30.0054C56.8851 29.9623 56.7846 29.9422 56.6699 29.9332C56.3188 29.906 55.9642 30.0472 55.7008 30.275C55.3877 30.546 55.2008 30.9255 55.1748 31.3377C55.1502 31.7286 55.274 32.0801 55.5369 32.3703C56.3595 33.2781 57.9323 33.4078 59.0745 33.4453C58.3738 33.7336 57.79 34.2071 57.1206 34.55C55.6251 35.3162 54.0316 35.5004 52.388 35.6961C52.5068 35.4914 52.6247 35.287 52.7156 35.0681C52.9741 34.4463 52.9484 33.8008 52.6895 33.1835C52.4727 32.6666 52.0752 32.2359 51.5482 32.0274C51.0774 31.8411 50.5756 31.8664 50.1206 32.0824C49.7763 32.2458 49.517 32.5732 49.4013 32.9322C49.3492 33.0939 49.2715 33.3196 49.3517 33.4793L49.4267 33.5036C49.6047 33.2806 49.6602 32.9604 49.8255 32.7174C50.0111 32.4446 50.3033 32.2339 50.6317 32.1762C51.0465 32.1033 51.503 32.2979 51.8267 32.546C52.1929 32.8267 52.4194 33.3 52.4829 33.7491C52.5992 34.5704 52.2775 35.1271 51.8099 35.757C50.4719 36.0107 49.2003 36.2626 47.9341 36.7844C47.8808 36.5876 47.8291 36.3884 47.7467 36.2014C47.2089 34.9811 46.0754 34.4086 44.8931 33.956C45.5642 33.3543 45.91 32.6608 46.2102 31.8293C46.5848 31.5945 47.0142 31.459 47.4257 31.3048C48.3943 30.942 49.4297 30.4905 50.1037 29.6719C50.4999 29.1908 50.5423 28.6011 50.8814 28.1834C51.4044 27.5394 52.3231 27.4153 53.0915 27.3168Z" fill="#F2C94C"/>
<path d="M52.8054 28.3809C53.0591 28.429 53.3128 28.4836 53.5702 28.5078L53.5084 28.8694C53.3106 28.8688 53.0437 28.907 52.878 28.7905C52.7876 28.6714 52.8059 28.5233 52.8054 28.3809Z" fill="#FEEEC0"/>
<path d="M53.0913 27.3168L53.566 27.2666C53.5954 27.6785 53.6236 28.0972 53.57 28.5081C53.3126 28.4839 53.0589 28.4293 52.8052 28.3811C52.8428 28.0157 52.9749 27.6631 53.0913 27.3168Z" fill="white"/>
<path d="M36.8229 30.8679C36.9462 30.9645 37.1045 30.9559 37.2553 30.9646C37.452 30.9761 37.752 31.0113 37.909 30.8713L37.9168 30.6978C38.0386 30.6893 38.1307 30.7914 38.2904 30.7635C38.4402 30.812 38.6096 30.8515 38.745 30.9321L38.7621 31.0271C38.8497 31.075 38.9156 31.0535 39.0101 31.0396C40.4521 31.5982 42.1543 32.8468 43.3099 33.8861C43.4187 34.0297 43.5195 34.1616 43.6955 34.2204C44.5425 34.0722 45.6165 34.6381 46.2912 35.1131C46.9265 35.5604 47.3769 36.145 47.5653 36.9048C47.2608 37.2141 46.9491 37.5379 46.5969 37.7928C46.0975 38.1864 45.5981 38.5885 45.0632 38.9335C43.5867 39.8856 41.7629 40.5846 40.015 40.7967C38.3718 40.996 36.9615 40.3735 35.6893 39.3786C36.3609 39.1921 37.0595 38.9657 37.7535 38.8911C38.0801 38.856 38.9115 38.9926 39.1541 38.7871C39.2036 38.7453 39.1826 38.704 39.1809 38.6453C39.1476 38.5835 39.125 38.5517 39.0642 38.5127C38.4656 38.1282 36.4978 38.7458 35.8009 38.9148C34.6172 39.2018 32.5344 38.9426 31.4952 38.2985C31.1138 38.0621 30.8218 37.7224 30.7306 37.2743C30.5916 36.5915 30.876 35.7457 31.2672 35.1876C31.7171 34.5457 32.2889 34.3078 33.043 34.1778C34.1209 35.143 35.2869 35.7268 36.7572 35.7176C38.0319 35.7096 39.9787 35.1233 40.866 34.16C40.9397 34.0799 40.9795 34.0391 40.9768 33.9289C40.8879 33.8693 40.7754 33.8861 40.6758 33.9105C40.4034 33.9771 40.1007 34.2819 39.8559 34.4342C39.0065 34.9623 37.9161 35.2733 36.9201 35.32C35.7922 35.3728 34.4893 34.9284 33.659 34.1537C33.3343 33.8507 33.0272 33.4285 33.0272 32.9677C33.0273 32.5455 33.2915 32.1628 33.5847 31.8793C34.4403 31.0524 35.6793 30.8495 36.8229 30.8679Z" fill="#4FDB40"/>
<path d="M45.3923 36.0164L45.4698 36.0317C45.8986 36.113 46.2105 36.1014 46.6229 36.302C46.2798 36.2817 45.915 36.1911 45.5757 36.2196C45.4359 36.2653 45.2283 36.2667 45.0792 36.2816C44.7104 36.3185 44.2891 36.7127 43.9563 36.6621L43.9277 36.6035L43.9752 36.5185C44.4233 36.2767 44.8623 35.9987 45.3923 36.0164Z" fill="#2D2D2D"/>
<path d="M38.1197 32.8578C38.1781 32.8509 38.2037 32.8602 38.259 32.8768L38.2715 32.9453C38.2501 32.9625 38.2187 32.9894 38.1937 33.0045C38.0472 33.0923 37.8471 33.1356 37.6847 33.1884C36.6684 33.5185 35.7309 33.4763 34.6956 33.2871C34.6219 33.2741 34.5956 33.2546 34.5347 33.2139L34.5526 33.1666C34.9112 33.0399 35.6001 33.2647 36.0184 33.2717C36.7412 33.2838 37.4325 33.0532 38.1197 32.8578Z" fill="#2D2D2D"/>
<path d="M43.6953 34.2203C44.5423 34.0721 45.6163 34.638 46.291 35.113C46.9263 35.5603 47.3767 36.145 47.5651 36.9047C47.2606 37.214 46.9489 37.5378 46.5967 37.7927C46.2781 37.2576 45.9172 36.7414 45.5758 36.2203C45.9151 36.1918 46.2798 36.2824 46.623 36.3026C46.2106 36.1021 45.8987 36.1136 45.4699 36.0324L45.3923 36.0171C44.9948 35.3404 44.2891 34.7327 43.6953 34.2203Z" fill="#F2C94C"/>
<path d="M41.0509 41.1197C41.3774 40.9115 42.2535 40.7911 42.6802 40.6405C44.1753 40.1128 45.5979 39.2692 46.8356 38.2842L46.8513 38.325C47.0045 38.7125 47.2371 39.0637 47.387 39.452C47.7104 40.2896 47.8302 41.1493 47.9831 42.0254C47.345 42.3468 46.7085 42.6907 46.0538 42.9761C45.414 43.2548 44.7465 43.4844 44.1267 43.8061C42.5563 44.6214 41.3645 45.8908 39.5398 46.2375C38.9547 46.3884 38.3566 46.4996 37.7554 46.5604C37.4216 46.5941 36.3815 46.6339 36.1462 46.7122C35.4116 46.7292 34.6806 46.8009 33.9468 46.8295C33.409 46.8505 32.8681 46.835 32.3302 46.8272L32.3388 46.8547L32.2145 46.8662C32.2952 46.8816 32.2932 46.8659 32.347 46.9355C32.0111 46.9376 31.6513 46.9163 31.3187 46.9588C31.0461 46.9636 30.7705 46.9229 30.4995 46.8937C30.2459 46.8506 29.9931 46.804 29.7416 46.7498C28.7321 46.5321 27.4912 46.0356 26.9149 45.1227C26.6129 44.6443 26.5112 44.0113 26.6377 43.4581C26.6827 43.271 26.7634 43.0958 26.8371 42.9186C26.8785 42.8118 26.9411 42.7154 26.9992 42.6172C27.1047 42.4011 27.2461 42.191 27.3914 41.9997C28.4941 40.5489 30.5265 39.7184 32.2984 39.4852C32.8693 39.41 34.6359 39.3153 35.1706 39.5554C35.4375 39.6753 35.6603 39.9195 35.8923 40.0951C37.4279 41.2576 38.9606 41.4096 40.8044 41.1531C41.2168 41.4681 41.6406 41.7413 41.8084 42.2604C41.9638 42.7415 41.8809 43.2763 41.6238 43.7086C41.549 43.8344 41.4391 43.9323 41.3724 44.0621C41.4014 44.1431 41.3837 44.1315 41.4662 44.1815C41.6291 44.0985 41.7647 43.8182 41.8556 43.6567C42.0892 43.2413 42.1701 42.7172 42.0295 42.2556C41.8748 41.7475 41.5067 41.3711 41.0509 41.1197Z" fill="#4FDB40"/>
<path d="M31.4058 42.0461C31.4335 42.0404 31.4582 42.0344 31.487 42.033C31.5856 42.0283 31.6081 42.029 31.6817 42.0874C31.476 42.2998 30.6685 42.3059 30.3608 42.3336C30.2931 42.3422 30.2314 42.3586 30.1656 42.3329C30.1196 42.3147 30.1248 42.2795 30.1118 42.2365C30.2329 42.1164 31.1652 42.0761 31.4058 42.0461Z" fill="#2D2D2D"/>
<path d="M32.3568 44.1805C32.3705 44.1793 32.3846 44.1795 32.3982 44.1769C32.7287 44.1154 33.0432 43.7991 33.397 43.7109C34.4109 43.4583 35.3779 43.3933 36.4095 43.5935C36.6621 43.6425 36.9503 43.6987 37.1713 43.8351C37.2592 43.8894 37.3483 43.9689 37.3734 44.0736C37.4017 44.1912 37.3408 44.3125 37.2683 44.4009C36.9849 44.7465 36.0058 45.192 35.5562 45.2754C35.5498 45.2766 35.5432 45.2755 35.5366 45.2756L35.2997 45.3731C34.7065 45.4972 34.0356 45.519 33.4383 45.4088C32.884 45.3065 32.4903 45.0439 32.1733 44.5837C32.2308 44.4477 32.2947 44.3144 32.3568 44.1805Z" fill="#2D2D2D"/>
<path d="M34.7525 43.6491C35.3943 43.5527 36.312 43.6716 36.9254 43.884C37.0655 43.9325 37.1896 43.9773 37.257 44.1174C37.2449 44.1936 37.2491 44.2145 37.2004 44.2795C36.8361 44.7661 35.4149 45.1734 34.825 45.2619C34.1803 45.3237 33.3976 45.344 32.7987 45.059C32.6343 44.9807 32.4428 44.8535 32.397 44.664C32.3684 44.5455 32.4122 44.4313 32.487 44.3407C32.9365 43.796 34.1069 43.7047 34.7525 43.6491Z" fill="#4FDB40"/>
<path d="M26.8371 42.9189C27.729 43.0426 28.7023 43.3176 29.6009 43.2741L29.6488 43.2734C30.0516 43.2637 30.3721 43.1514 30.7505 43.032C30.8109 43.0129 30.7904 43.0189 30.8633 43.0267C30.7938 43.1512 30.4041 43.2482 30.2616 43.2882C30.0548 43.3464 29.8513 43.3957 29.6349 43.395C29.1686 43.3933 27.117 42.9582 26.8903 43.0398C26.8616 43.0502 26.8463 43.082 26.8241 43.1032C26.7773 43.2942 26.8288 43.4914 26.8594 43.6828C27.6873 44.0033 28.9503 44.0499 29.8449 44.0319C30.1415 44.026 30.5056 43.937 30.792 44.005C30.4439 44.2543 27.9965 44.022 27.4606 43.933C27.2498 43.8979 27.0496 43.8474 26.8466 43.7817C26.9598 43.9742 27.1043 44.2972 27.2955 44.4211C27.4207 44.6197 27.5838 44.7534 27.777 44.883C28.51 44.9098 29.2357 44.9218 29.957 44.7619C30.2777 44.6909 30.5881 44.57 30.9063 44.5006C31.1215 44.4143 31.3345 44.3309 31.5563 44.2623C31.5186 44.3627 31.4981 44.3725 31.4019 44.4164C30.4536 44.8496 29.4426 45.0265 28.4058 45.0222C28.2986 45.0218 27.9857 44.9839 27.9381 45.0715C28.1695 45.1482 28.4344 45.2648 28.6729 45.3045C29.4255 45.4296 30.4083 45.1958 31.1435 44.9988C31.4046 44.9288 31.6823 44.7906 31.9492 44.7663C32.0392 44.7581 32.0058 44.7463 32.0641 44.7922L32.0324 44.85L31.9838 44.8601C31.5936 44.9444 31.2162 45.0763 30.8276 45.1673C30.2466 45.3034 29.6504 45.3788 29.0588 45.4511C28.8403 45.5151 28.4807 45.3969 28.2575 45.3536C29.7797 46.4479 31.6127 46.2564 33.3758 46.0843C33.0286 45.8891 32.4384 45.6271 32.2328 45.2708C32.2524 45.28 32.2722 45.2887 32.2916 45.2981C32.7408 45.5152 33.1181 45.9047 33.5798 46.1212C34.408 46.5096 35.5959 46.1343 36.5077 46.2161C36.8977 46.2186 37.3138 46.2306 37.7002 46.2822C38.2235 46.3083 38.6686 46.3106 39.1856 46.2049C38.4688 46.1408 37.7907 45.8716 37.0937 45.7082C36.5031 45.5697 35.8953 45.4886 35.2997 45.3731L35.5366 45.2756C35.9855 45.492 36.5884 45.5046 37.0775 45.6174C37.8995 45.8071 38.7214 46.0304 39.5398 46.2378C38.9547 46.3887 38.3566 46.5 37.7554 46.5607C37.4216 46.5944 36.3815 46.6342 36.1462 46.7125C35.4116 46.7295 34.6806 46.8012 33.9468 46.8298C33.409 46.8508 32.8681 46.8354 32.3302 46.8275L32.3388 46.855L32.2145 46.8665C32.2952 46.8819 32.2932 46.8662 32.347 46.9358C32.0111 46.9379 31.6513 46.9166 31.3187 46.9591C31.0461 46.9639 30.7705 46.9232 30.4995 46.894C30.2459 46.8509 29.9931 46.8043 29.7416 46.7501C28.7321 46.5324 27.4912 46.0359 26.9149 45.123C26.6129 44.6446 26.5112 44.0116 26.6377 43.4584C26.6827 43.2713 26.7634 43.0961 26.8371 42.9189Z" fill="white"/>
<path d="M26.6377 43.458C26.8172 44.3991 27.4816 45.0086 28.2427 45.5304C29.8156 46.6089 31.6315 46.3989 33.4195 46.169C34.2365 46.5632 35.1631 46.3835 36.0401 46.3331C36.581 46.3957 37.1312 46.3493 37.6683 46.4355L37.6888 46.4665C37.3726 46.4924 37.0559 46.4824 36.7394 46.506C35.2639 46.6161 33.8234 46.7065 32.3419 46.6904C31.5706 46.6819 30.8338 46.6718 30.0703 46.5432C30.3638 46.6859 30.7766 46.6667 31.003 46.7866C31.4437 46.7999 31.8905 46.7987 32.3302 46.8271L32.3388 46.8546L32.2145 46.8661C32.2952 46.8815 32.2932 46.8658 32.347 46.9354C32.0111 46.9375 31.6513 46.9162 31.3187 46.9587C31.0461 46.9636 30.7705 46.9228 30.4995 46.8936C30.2459 46.8505 29.9931 46.8039 29.7416 46.7497C28.7321 46.532 27.4912 46.0355 26.9149 45.1226C26.6129 44.6442 26.5112 44.0112 26.6377 43.458Z" fill="#4FDB40"/>
</g>
<defs>
<linearGradient id="paint0_linear_1061_3025" x1="55.0474" y1="26.3992" x2="59.8486" y2="32.6562" gradientUnits="userSpaceOnUse">
<stop stop-color="#FFEBAD"/>
<stop offset="1" stop-color="white"/>
</linearGradient>
<clipPath id="clip0_1061_3025">
<rect width="80" height="80" fill="white"/>
</clipPath>
</defs>
</svg>
