<svg width="80" height="80" viewBox="0 0 80 80" fill="none" xmlns="http://www.w3.org/2000/svg">
<g clip-path="url(#clip0_1087_8893)">
<path d="M58.2817 37.7402C58.3974 37.7757 58.5123 37.8195 58.6341 37.8244C58.645 37.9206 58.6625 37.9808 58.7078 38.0664C58.7879 38.1104 58.7472 38.1055 58.8284 38.0898L58.7768 38.7041L58.7103 38.7434C58.506 38.4639 58.3988 38.0652 58.2817 37.7402Z" fill="#70F882"/>
<path d="M57.7857 48.0498L57.8088 48.1089C57.8361 48.1795 57.8562 48.25 57.876 48.323C57.9538 48.3637 57.9555 48.3583 58.0423 48.34L58.2653 48.2625C58.3141 48.3569 58.3629 48.4469 58.399 48.5472C58.1216 48.6456 57.8517 48.7456 57.5604 48.7943C57.4533 48.7349 57.289 48.7054 57.1708 48.6675C57.1682 48.5334 57.177 48.5033 57.2583 48.4026L57.2943 48.4028C57.3073 48.4192 57.3175 48.4382 57.3334 48.4519C57.4091 48.5172 57.4499 48.5114 57.5388 48.4965C57.6665 48.3766 57.7187 48.2082 57.7857 48.0498Z" fill="#CFFAD0"/>
<path d="M54.3712 64.2206C54.4809 64.209 54.5941 64.1959 54.7027 64.223C54.8335 64.2558 54.9555 64.3489 55.0241 64.4644C55.0896 64.5746 55.1051 64.7016 55.0732 64.8252C55.0223 65.0216 54.9056 65.1149 54.7406 65.2195C54.7275 65.2194 54.7143 65.2198 54.7012 65.2194C54.4978 65.214 54.3059 65.1677 54.1697 65.0055C54.1593 64.9933 54.1495 64.9805 54.1405 64.9673C54.1314 64.954 54.123 64.9403 54.1154 64.9262C54.1078 64.912 54.101 64.8975 54.0949 64.8826C54.0889 64.8677 54.0836 64.8526 54.0791 64.8372C54.0747 64.8218 54.0711 64.8061 54.0683 64.7903C54.0655 64.7745 54.0636 64.7586 54.0626 64.7426C54.0615 64.7265 54.0612 64.7105 54.0619 64.6944C54.0625 64.6784 54.064 64.6624 54.0663 64.6466C54.0958 64.441 54.2116 64.3385 54.3712 64.2206Z" fill="#4FDB40"/>
<path d="M70.7128 50.7402C70.7999 50.7556 70.8929 50.7697 70.9713 50.813C71.105 50.887 71.2071 51.0317 71.2476 51.1773C71.2875 51.3204 71.2621 51.4798 71.1844 51.6059C71.0839 51.769 70.9513 51.7993 70.7734 51.84C70.6995 51.8269 70.6276 51.8112 70.5577 51.7836C70.427 51.7319 70.3256 51.6371 70.272 51.5062C70.2203 51.3798 70.2279 51.2429 70.2798 51.118C70.3654 50.9117 70.5134 50.8202 70.7128 50.7402Z" fill="#4FDB40"/>
<path d="M57.7865 9.96272C57.8659 9.96061 57.9386 9.96154 58.0165 9.97951C58.1871 10.019 58.3369 10.123 58.4241 10.2766C58.5139 10.435 58.5251 10.6254 58.4658 10.7964C58.3921 11.0087 58.2484 11.119 58.0566 11.2204C57.9587 11.2244 57.8603 11.2288 57.7644 11.2051C57.6108 11.1672 57.4591 11.0611 57.378 10.9244C57.2853 10.7683 57.2829 10.5846 57.3373 10.4146C57.4126 10.179 57.5816 10.0786 57.7865 9.96272Z" fill="#F2C94C"/>
<path d="M58.7766 38.7044C58.9109 38.6981 58.9783 38.6639 59.0917 38.5938C59.0733 39.3368 59.0084 40.0834 58.959 40.8252C58.913 41.5171 58.8844 42.2211 58.7919 42.9081C58.694 42.8519 58.5765 42.8277 58.4686 42.7961L58.4624 42.7816C58.5202 42.065 58.547 41.3437 58.5958 40.6261C58.6384 40.002 58.7071 39.3692 58.7101 38.7437L58.7766 38.7044Z" fill="#FFF37A"/>
<path d="M58.4686 42.7959C58.5766 42.8275 58.694 42.8517 58.792 42.9079L58.7938 43.2768C58.7769 43.4082 58.7547 43.5411 58.7486 43.6736C58.6134 44.5022 58.4919 45.3211 58.2944 46.1382C58.1549 46.7157 57.9128 47.3375 57.8315 47.92L57.7858 48.0498C57.7188 48.2082 57.6666 48.3766 57.539 48.4965C57.4501 48.5114 57.4092 48.5172 57.3335 48.4519C57.3176 48.4382 57.3075 48.4192 57.2944 48.4028C57.4413 48.0979 57.5094 47.714 57.5974 47.3862C57.9336 46.1342 58.1922 44.9077 58.3657 43.6217L58.3661 43.581C58.4278 43.3366 58.4343 43.0484 58.4686 42.7959Z" fill="#F2C94C"/>
<path d="M53.9961 45.3394L54.022 45.2955L54.0871 45.3613C54.2053 45.3205 54.2303 45.3167 54.3082 45.2213L54.2979 45.129L54.3522 45.1113C54.6456 45.5369 56.2345 47.6145 56.5282 47.7205L56.5323 47.6728C56.3693 47.3402 56.1937 47.0023 56.0746 46.6515L56.1508 46.6741C56.2089 46.8259 56.2516 47.0456 56.3878 47.1365C56.4509 47.1234 56.4963 47.1156 56.553 47.0841C56.5474 47.0744 56.5416 47.0648 56.5361 47.0551C56.468 46.936 56.4269 46.818 56.3862 46.6875L56.4198 46.6478C56.5532 46.9245 56.6647 47.2102 56.7789 47.4952C56.8856 47.7367 57.0507 48.2572 57.2583 48.4031C57.177 48.5038 57.1682 48.5339 57.1708 48.668C56.1154 48.0379 54.5378 46.4436 53.9961 45.3394Z" fill="#70F882"/>
<path d="M17.1284 63.6403C17.4226 63.6099 17.6867 63.6249 17.9582 63.7542C17.9978 63.7732 18.0363 63.794 18.0738 63.8168C18.1113 63.8395 18.1475 63.8641 18.1826 63.8904C18.2176 63.9168 18.2513 63.9449 18.2835 63.9746C18.3157 64.0043 18.3464 64.0356 18.3755 64.0684C18.4046 64.1012 18.432 64.1354 18.4577 64.1709C18.4834 64.2064 18.5073 64.2431 18.5294 64.281C18.5514 64.319 18.5715 64.3579 18.5896 64.3978C18.6078 64.4377 18.6239 64.4785 18.6379 64.52C18.7583 64.8667 18.7397 65.2479 18.5693 65.5745C18.3732 65.95 18.0566 66.1339 17.6701 66.2629C17.4008 66.2978 17.1476 66.2858 16.8917 66.1862C16.8512 66.1706 16.8115 66.153 16.7728 66.1334C16.734 66.1138 16.6964 66.0922 16.6598 66.0689C16.6233 66.0454 16.5879 66.0202 16.5539 65.9932C16.5199 65.9663 16.4873 65.9376 16.4562 65.9074C16.425 65.8771 16.3955 65.8454 16.3676 65.8121C16.3396 65.7789 16.3134 65.7443 16.289 65.7084C16.2645 65.6725 16.242 65.6355 16.2212 65.5973C16.2006 65.5591 16.1818 65.52 16.1651 65.48C16.1562 65.4588 16.1479 65.4375 16.1401 65.4159C16.1324 65.3943 16.1252 65.3726 16.1185 65.3507C16.1119 65.3287 16.1058 65.3066 16.1003 65.2844C16.0948 65.2622 16.0899 65.2398 16.0855 65.2172C16.0812 65.1947 16.0775 65.1721 16.0743 65.1495C16.0711 65.1268 16.0685 65.104 16.0665 65.0811C16.0646 65.0583 16.0632 65.0354 16.0623 65.0125C16.0615 64.9897 16.0613 64.9668 16.0617 64.9439C16.0621 64.9209 16.063 64.8981 16.0646 64.8752C16.0662 64.8523 16.0683 64.8295 16.0711 64.8068C16.0738 64.784 16.0772 64.7613 16.0811 64.7387C16.085 64.7162 16.0895 64.6937 16.0946 64.6714C16.0996 64.649 16.1053 64.6268 16.1115 64.6047C16.1177 64.5827 16.1245 64.5608 16.1319 64.5391C16.1393 64.5174 16.1472 64.4959 16.1557 64.4746C16.1641 64.4533 16.1731 64.4323 16.1827 64.4114C16.3758 63.9886 16.7112 63.791 17.1284 63.6403Z" fill="#F2C94C"/>
<path d="M53.6149 22.7432L53.6358 22.8095C53.4925 23.0342 53.1941 23.2168 53.0989 23.444C53.032 23.6039 53.086 23.8268 53.0296 24C52.9796 24.1533 52.8997 24.2973 52.8515 24.4526C52.6681 25.0441 52.5488 25.6741 52.3797 26.2729C52.2828 26.6161 52.1406 26.9462 52.0402 27.2886C51.8726 27.8604 51.7898 28.4966 51.7276 29.0894C51.6915 29.4245 51.6775 29.7606 51.6856 30.0975C51.6902 30.3179 51.7775 31.0086 51.7453 31.1434C51.7346 31.1885 51.7037 31.2262 51.6829 31.2676C51.7357 31.4553 51.8749 31.6265 51.9148 31.8072C51.9496 31.9647 51.8742 32.1204 51.9314 32.2811C52.021 32.5332 52.3797 33.0297 52.3292 33.2787C51.4052 32.0429 50.8717 29.9501 50.944 28.4178C51.0432 26.3155 52.0523 24.1579 53.6149 22.7432Z" fill="#4FDB40"/>
<path d="M58.7937 43.2774C58.8838 42.9995 59.1178 42.7616 59.2702 42.5123C59.4957 42.1435 59.706 41.764 59.9582 41.4123C60.6737 40.4146 61.8207 39.1945 62.9028 38.6327C63.0571 38.5525 63.2418 38.4738 63.4153 38.5363C63.4789 38.5591 63.4814 38.5852 63.516 38.6384C63.5386 39.2088 61.9078 41.2342 61.5109 41.6617C60.9835 42.2298 59.5104 43.5753 58.7485 43.6742C58.7546 43.5417 58.7768 43.4089 58.7937 43.2774Z" fill="#4FDB40"/>
<path d="M62.7162 39.2988C62.7183 39.3227 62.7201 39.3281 62.7135 39.3564C62.6046 39.8196 61.0552 41.5915 60.6714 41.9495C60.2634 42.3301 59.7972 42.6615 59.3569 43.0045L59.3564 42.9463C60.2436 41.605 61.3403 40.1698 62.7162 39.2988Z" fill="#2D2D2D"/>
<path d="M58.1271 43.3532C58.1047 43.3354 58.082 43.3179 58.0604 43.2992C56.804 42.2117 55.3284 40.2512 54.6818 38.7392C54.578 38.4965 54.4378 38.203 54.4286 37.9357C54.4243 37.8098 54.4569 37.7299 54.5436 37.6371C54.6591 37.5941 54.7234 37.5803 54.8395 37.6316C55.0844 37.7397 55.3126 37.9849 55.502 38.1695C56.5895 39.2293 57.3944 40.518 57.9856 41.912C58.1387 42.1965 58.267 42.527 58.4625 42.782L58.4687 42.7965C58.4343 43.049 58.4278 43.3372 58.3661 43.5816L58.1271 43.3532Z" fill="#4FDB40"/>
<path d="M57.9856 41.9121C58.1387 42.1966 58.267 42.5271 58.4625 42.782L58.4687 42.7966C58.4343 43.0491 58.4278 43.3373 58.3661 43.5816L58.1271 43.3533C58.1546 43.2316 58.1969 43.0905 58.1913 42.9657C58.1847 42.8217 58.0983 42.7229 57.993 42.6339C57.8633 42.3966 57.7201 42.1656 57.5889 41.9287C57.8089 41.9929 57.8789 42.4551 58.101 42.5639L58.1824 42.5099C58.1895 42.332 58.042 42.1349 57.9628 41.9733L57.9856 41.9121Z" fill="#70F882"/>
<path d="M57.9928 42.6332C57.4339 42.2291 55.939 39.7342 55.4948 39.0221C55.3386 38.7717 55.16 38.5366 55.0063 38.2842L55.0435 38.2879C55.9088 39.024 56.4942 40.0084 57.0431 40.9877C57.2053 41.2771 57.3566 41.6235 57.5563 41.8863C57.567 41.9004 57.5779 41.9141 57.5887 41.928C57.7199 42.165 57.8631 42.3959 57.9928 42.6332Z" fill="#2D2D2D"/>
<path d="M14.7478 38.2725C15.6439 38.6256 19.9142 43.2656 20.323 44.1095C18.6423 43.8078 17.0351 42.3762 16.0177 41.0807C15.5187 40.4453 14.6469 39.1275 14.7478 38.2725Z" fill="#4FDB40"/>
<path d="M53.9963 45.3389C53.3217 44.3846 52.9503 42.6194 53.1732 41.4725C53.1983 41.3431 53.2314 41.2582 53.323 41.1636C53.4256 41.1394 53.4718 41.137 53.5646 41.1947C54.2568 41.6246 56.11 45.7 56.42 46.6473L56.3864 46.687C56.4271 46.8175 56.4682 46.9355 56.5363 47.0546C56.5418 47.0643 56.5476 47.0739 56.5532 47.0836C56.4964 47.1151 56.451 47.1229 56.388 47.136C56.2518 47.0451 56.2091 46.8254 56.151 46.6736L56.0748 46.651C56.1939 47.0018 56.3695 47.3397 56.5325 47.6723L56.5284 47.72C56.2347 47.6139 54.6457 45.5364 54.3524 45.1108L54.2981 45.1285L54.3084 45.2207C54.2305 45.3162 54.2055 45.32 54.0873 45.3607L54.0222 45.295L53.9963 45.3389Z" fill="#4FDB40"/>
<path d="M53.511 41.7266C54.0508 42.6001 54.5736 43.49 55.0164 44.4172C55.3646 45.1466 55.6612 45.9614 56.0748 46.6513C56.1939 47.002 56.3695 47.34 56.5325 47.6726L56.5284 47.7203C56.2347 47.6142 54.6457 45.5366 54.3524 45.1111C53.7406 43.9905 53.4853 43.0062 53.511 41.7266Z" fill="#2D2D2D"/>
<path d="M57.8313 47.9203C58.2715 47.4188 58.6441 46.874 59.1151 46.3957C59.8135 45.6864 62.3941 43.5887 63.3174 43.4742C63.4191 43.4617 63.4606 43.4826 63.5448 43.5361C63.5863 43.6595 63.589 43.7285 63.5328 43.8486C63.3935 44.1465 63.1632 44.4347 62.9831 44.7107C61.7988 46.525 60.3645 47.6764 58.3989 48.5475C58.3628 48.4473 58.3141 48.3573 58.2653 48.2629L58.0423 48.3403C57.9554 48.3587 57.9537 48.3641 57.876 48.3234C57.8561 48.2504 57.836 48.1799 57.8088 48.1092L57.7856 48.0502L57.8313 47.9203Z" fill="#70F882"/>
<path d="M58.0425 48.3399C58.0452 48.3241 58.0463 48.308 58.0507 48.2926C58.1187 48.052 58.4076 47.7476 58.5717 47.5596C59.8207 46.1276 61.3855 45.0204 62.9728 43.9971C61.5855 45.9558 60.5112 47.2202 58.2654 48.2625L58.0425 48.3399Z" fill="#2D2D2D"/>
<path d="M58.9059 65.21C59.322 65.2196 59.724 65.3214 60.0634 65.5715C60.0879 65.5897 60.1118 65.6084 60.1353 65.6278C60.1589 65.6471 60.1819 65.6671 60.2044 65.6875C60.2269 65.7081 60.2489 65.7291 60.2704 65.7507C60.2919 65.7724 60.3127 65.7945 60.3331 65.8171C60.3534 65.8398 60.3732 65.863 60.3924 65.8866C60.4116 65.9103 60.4302 65.9344 60.4481 65.959C60.4662 65.9836 60.4835 66.0086 60.5002 66.034C60.517 66.0595 60.533 66.0854 60.5484 66.1116C60.5639 66.1379 60.5786 66.1645 60.5927 66.1915C60.6069 66.2186 60.6203 66.2459 60.633 66.2736C60.6457 66.3012 60.6577 66.3292 60.669 66.3575C60.6803 66.3857 60.6909 66.4143 60.7008 66.4431C60.7107 66.4719 60.7199 66.501 60.7283 66.5303C60.7367 66.5595 60.7444 66.589 60.7513 66.6186C60.7583 66.6483 60.7645 66.6781 60.7699 66.7081C60.7754 66.738 60.7801 66.7681 60.7841 66.7983C60.8534 67.3108 60.7188 67.8543 60.3892 68.257C60.0383 68.6857 59.5547 68.8727 59.0177 68.9242C58.5764 68.9161 58.1827 68.8223 57.8289 68.5442C57.8042 68.5245 57.78 68.5043 57.7563 68.4836C57.7325 68.4627 57.7093 68.4413 57.6866 68.4194C57.6639 68.3975 57.6418 68.375 57.6202 68.3521C57.5986 68.329 57.5775 68.3055 57.557 68.2815C57.5365 68.2575 57.5166 68.233 57.4974 68.208C57.478 68.1831 57.4593 68.1576 57.4413 68.1318C57.4232 68.1059 57.4058 68.0796 57.389 68.0528C57.3722 68.0261 57.356 67.999 57.3406 67.9715C57.3251 67.944 57.3103 67.9162 57.2961 67.8879C57.282 67.8597 57.2686 67.8312 57.2558 67.8023C57.243 67.7735 57.231 67.7443 57.2196 67.7148C57.2083 67.6854 57.1976 67.6557 57.1877 67.6257C57.1778 67.5957 57.1686 67.5655 57.1602 67.5351C57.1517 67.5047 57.1439 67.4742 57.137 67.4434C57.13 67.4126 57.1238 67.3817 57.1183 67.3506C57.1128 67.3195 57.108 67.2883 57.1041 67.257C57.1007 67.2265 57.0981 67.1959 57.0962 67.1653C57.0943 67.1346 57.0932 67.104 57.0929 67.0733C57.0925 67.0426 57.093 67.012 57.0942 66.9814C57.0954 66.9507 57.0973 66.9201 57.1 66.8895C57.1027 66.8589 57.1062 66.8285 57.1105 66.7981C57.1147 66.7677 57.1197 66.7374 57.1254 66.7073C57.1311 66.6771 57.1376 66.6471 57.1449 66.6173C57.1521 66.5875 57.1601 66.5579 57.1688 66.5285C57.1775 66.4991 57.187 66.4699 57.1971 66.4409C57.2073 66.412 57.2182 66.3833 57.2298 66.3549C57.2414 66.3265 57.2537 66.2984 57.2667 66.2706C57.2797 66.2428 57.2934 66.2153 57.3077 66.1882C57.3221 66.1611 57.3371 66.1344 57.3528 66.108C57.3686 66.0817 57.3849 66.0557 57.4019 66.0301C57.4189 66.0046 57.4365 65.9795 57.4547 65.9548C57.473 65.9302 57.4918 65.906 57.5113 65.8822C57.8845 65.4282 58.3406 65.2668 58.9059 65.21Z" fill="#4FDB40"/>
<path d="M17.7097 33.3506C18.0962 33.4346 18.3901 33.6707 18.6478 33.9612C20.3895 35.9248 20.8737 39.2682 20.7211 41.7995C20.3503 40.2232 19.3875 36.3792 18.3509 35.2489C18.4145 35.5305 18.5097 35.7947 18.6127 36.0639C19.2298 37.5966 19.7041 39.1251 20.1503 40.7136C20.3326 41.3626 20.5624 42.0202 20.6109 42.6948C19.1623 40.5546 17.9493 38.3122 17.6098 35.7087C17.5392 35.1681 17.3774 33.7799 17.7097 33.3506Z" fill="#4FDB40"/>
<path d="M62.9612 10.1304C63.0289 10.1255 63.0968 10.1234 63.1647 10.1242C63.2326 10.1249 63.3004 10.1285 63.368 10.135C63.4356 10.1415 63.5029 10.1508 63.5697 10.1629C63.6365 10.1751 63.7027 10.19 63.7683 10.2077C63.8338 10.2254 63.8986 10.2458 63.9624 10.2689C64.0263 10.2921 64.0891 10.3179 64.1508 10.3464C64.2124 10.3748 64.2728 10.4058 64.3319 10.4393C64.391 10.4728 64.4486 10.5088 64.5046 10.5472C64.537 10.5692 64.5689 10.5921 64.6002 10.6158C64.6315 10.6395 64.6622 10.664 64.6923 10.6893C64.7224 10.7145 64.7518 10.7405 64.7806 10.7672C64.8094 10.7939 64.8374 10.8214 64.8648 10.8495C64.8922 10.8776 64.9188 10.9064 64.9448 10.9359C64.9707 10.9654 64.9959 10.9955 65.0203 11.0263C65.0447 11.057 65.0683 11.0883 65.0912 11.1203C65.114 11.1523 65.1361 11.1848 65.1573 11.2178C65.1785 11.2508 65.1988 11.2844 65.2183 11.3185C65.2378 11.3525 65.2564 11.3871 65.2742 11.4222C65.292 11.4572 65.3088 11.4926 65.3248 11.5285C65.3408 11.5643 65.3559 11.6005 65.37 11.6372C65.3842 11.6738 65.3974 11.7108 65.4097 11.7481C65.422 11.7854 65.4333 11.823 65.4437 11.8608C65.4542 11.8986 65.4636 11.9367 65.4721 11.9751C65.4805 12.0135 65.488 12.052 65.4946 12.0907C65.5018 12.1314 65.5081 12.1723 65.5133 12.2134C65.5186 12.2544 65.5227 12.2956 65.5259 12.3369C65.5291 12.3782 65.5313 12.4195 65.5324 12.4609C65.5336 12.5023 65.5337 12.5436 65.5327 12.585C65.5318 12.6264 65.5299 12.6677 65.5269 12.709C65.524 12.7503 65.52 12.7915 65.5149 12.8325C65.5099 12.8736 65.5039 12.9146 65.4969 12.9554C65.4898 12.9962 65.4818 13.0368 65.4727 13.0772C65.4637 13.1176 65.4536 13.1577 65.4426 13.1976C65.4315 13.2375 65.4195 13.2771 65.4065 13.3164C65.3935 13.3557 65.3795 13.3947 65.3645 13.4332C65.3496 13.4718 65.3337 13.51 65.3169 13.5479C65.3 13.5857 65.2822 13.623 65.2635 13.66C65.2448 13.6969 65.2252 13.7333 65.2048 13.7693C65.1842 13.8053 65.1628 13.8407 65.1405 13.8756C65.1183 13.9105 65.0952 13.9448 65.0712 13.9786C64.6603 14.5515 64.0667 14.8218 63.3881 14.9298C62.8047 14.9795 62.2321 14.8663 61.7448 14.5292C61.2233 14.1683 60.8887 13.6103 60.7825 12.9882C60.7758 12.9479 60.7701 12.9074 60.7655 12.8667C60.7608 12.8261 60.7571 12.7853 60.7544 12.7445C60.7517 12.7037 60.75 12.6628 60.7494 12.6218C60.7487 12.5809 60.749 12.54 60.7504 12.4991C60.7517 12.4582 60.754 12.4174 60.7574 12.3765C60.7607 12.3357 60.7651 12.2951 60.7705 12.2545C60.7758 12.2139 60.7821 12.1735 60.7894 12.1332C60.7968 12.093 60.8051 12.0529 60.8144 12.0131C60.8237 11.9732 60.834 11.9337 60.8452 11.8943C60.8565 11.855 60.8687 11.8159 60.8819 11.7772C60.895 11.7384 60.9092 11.7 60.9243 11.662C60.9393 11.6239 60.9553 11.5862 60.9722 11.5489C60.9891 11.5117 61.0069 11.4749 61.0257 11.4385C61.0444 11.4021 61.064 11.3662 61.0845 11.3307C61.105 11.2953 61.1263 11.2604 61.1485 11.2261C61.1707 11.1917 61.1938 11.1579 61.2176 11.1247C61.6466 10.5342 62.2529 10.2364 62.9612 10.1304Z" fill="#F2C94C"/>
<path d="M39.1625 12.829C40.8613 12.6929 43.9438 12.9686 45.2763 14.0493C45.507 14.2364 45.7154 14.5035 45.7395 14.81C45.7539 14.9946 45.6899 15.1528 45.5646 15.2871C44.812 16.0949 42.1997 16.3082 41.0645 16.3653C39.4484 16.405 35.8514 16.4587 34.5902 15.386C34.4531 15.2695 34.35 15.1237 34.3445 14.9382C34.3374 14.7024 34.4943 14.4648 34.6452 14.2971C35.6225 13.211 37.7564 12.9265 39.1625 12.829Z" fill="white"/>
<path d="M45.7003 15.5908C45.7454 15.6768 45.7374 15.6392 45.7422 15.7328C45.7696 16.2604 45.7745 17.9238 45.6737 18.3851C45.6464 18.5098 45.5938 18.598 45.5054 18.6901C44.6009 19.6326 41.6289 19.8361 40.3064 19.8561C38.7114 19.8802 35.7717 19.8266 34.5843 18.6754C34.5247 18.5921 34.4764 18.5211 34.4564 18.4179C34.3383 17.8086 34.4084 16.3109 34.4242 15.6412C34.9179 16.0573 35.5954 16.2343 36.2133 16.365C38.6757 16.886 43.545 16.9927 45.7003 15.5908Z" fill="white"/>
<path d="M35.2649 16.9912C35.3322 17.0031 35.3698 17.0206 35.4268 17.0579C35.5483 17.3639 35.5133 18.1628 35.3964 18.4729C35.3289 18.4528 35.3551 18.4637 35.2913 18.4321C35.2343 18.4039 35.2316 18.3903 35.2156 18.3299C35.1495 18.0812 35.1389 17.2161 35.2649 16.9912Z" fill="#2D2D2D"/>
<path d="M36.3448 17.1699C36.4328 17.248 36.4628 17.2838 36.4817 17.4018C36.5325 17.7193 36.5705 18.5402 36.3847 18.7994C36.3746 18.792 36.364 18.7852 36.3544 18.7771C36.2483 18.6865 36.2245 18.6305 36.2119 18.4936C36.1792 18.1412 36.1122 17.4491 36.3448 17.1699Z" fill="#2D2D2D"/>
<path d="M37.303 17.3926C37.3262 17.3962 37.3505 17.3956 37.3726 17.4037C37.4499 17.4317 37.4504 17.4694 37.4657 17.5399C37.5296 17.833 37.5353 18.8019 37.386 19.0404C37.3375 19.0288 37.2934 19.0105 37.247 18.9926C37.2266 18.9487 37.211 18.9151 37.2025 18.867C37.1693 18.6794 37.1525 17.6619 37.2149 17.5195C37.2355 17.4723 37.2736 17.4348 37.303 17.3926Z" fill="#2D2D2D"/>
<path d="M38.3966 17.4346C38.4124 17.4396 38.4288 17.4427 38.444 17.4496C38.4935 17.4719 38.5203 17.49 38.536 17.5425C38.6094 17.7882 38.6164 19.032 38.4935 19.2392C38.4702 19.2327 38.4456 19.2299 38.4235 19.2198C38.362 19.1915 38.3416 19.135 38.3282 19.0743C38.2535 18.7351 38.2281 17.7289 38.3966 17.4346Z" fill="#2D2D2D"/>
<path d="M42.7729 17.1943C42.7948 17.2019 42.8178 17.2068 42.8385 17.2172C42.9279 17.2625 42.9424 17.3521 42.9567 17.4424C43.0059 17.7555 43.0543 18.7854 42.8785 19.0338C42.8221 19.0129 42.7873 19.018 42.7617 18.958C42.6354 18.663 42.6661 17.4954 42.7729 17.1943Z" fill="#2D2D2D"/>
<path d="M44.5938 16.8477C44.676 16.8659 44.719 16.8747 44.779 16.9355C44.9076 17.2579 44.8779 18.2493 44.7842 18.5872C44.6958 18.5662 44.6697 18.5647 44.6047 18.5034C44.4886 18.13 44.4999 17.2365 44.5938 16.8477Z" fill="#2D2D2D"/>
<path d="M43.781 17.0518C43.9014 17.0662 43.9614 17.0549 44.0527 17.1379C44.1203 17.6342 44.0835 18.2 44.0551 18.7007C43.9578 18.7079 43.9443 18.7104 43.8594 18.6645C43.692 18.3486 43.7809 17.4468 43.781 17.0518Z" fill="#2D2D2D"/>
<path d="M41.8281 17.3203C41.8425 17.327 41.8582 17.3316 41.8716 17.3402C41.9566 17.395 41.9747 17.466 41.9876 17.5612C42.0157 17.7673 42.05 18.9308 41.9708 19.0852C41.9488 19.1282 41.9148 19.1641 41.8868 19.2035C41.8727 19.1955 41.8575 19.1891 41.8444 19.1795C41.7782 19.1307 41.7606 19.0861 41.7444 19.0068C41.6779 18.6793 41.6414 17.5958 41.8281 17.3203Z" fill="#2D2D2D"/>
<path d="M39.4652 17.4307C39.5553 17.4445 39.6122 17.4452 39.6777 17.5129C39.7444 17.8925 39.7572 19.0093 39.6532 19.3617C39.5982 19.349 39.5562 19.3312 39.5049 19.3082C39.3616 19.0152 39.421 17.7886 39.4652 17.4307Z" fill="#2D2D2D"/>
<path d="M40.6009 17.4307C40.6744 17.4394 40.7178 17.4489 40.7811 17.4878C40.9484 17.8392 40.8589 18.865 40.8258 19.2782C40.7472 19.274 40.6924 19.2618 40.6192 19.233C40.4834 18.9901 40.555 17.7466 40.6009 17.4307Z" fill="#2D2D2D"/>
<path d="M31.9796 19.126C32.0733 19.2376 32.1482 19.3681 32.2528 19.4689C32.9214 20.1136 34.0288 20.3848 34.9104 20.5717C37.7584 21.1754 43.5548 21.2085 46.301 20.2304C46.6784 20.0959 47.0111 19.9179 47.3461 19.6996C47.3778 19.9519 47.3869 20.1989 47.3906 20.453C46.5869 21.1592 44.8919 21.5099 43.8352 21.6486C43.5768 21.6825 42.997 21.6529 42.801 21.7873C42.7614 21.8145 42.7699 21.8618 42.7639 21.9057C42.8221 21.9665 42.839 21.986 42.926 22.0007C43.1955 22.0465 43.5346 21.9703 43.8019 21.9318C45.0397 21.7536 46.3774 21.4833 47.4109 20.7421L47.4162 20.7783C47.4931 21.3346 47.6062 22.203 47.2404 22.6655C46.5018 23.5994 44.2499 24.0971 43.095 24.2357C40.5682 24.6207 35.1446 24.7904 32.91 23.5517C32.2874 23.2066 32.0101 22.7886 31.8132 22.115C32.4443 22.4946 33.9025 23.3736 34.5701 23.4261L34.6306 23.3587C34.5473 22.9631 32.1414 22.2972 31.8614 21.6299C31.8186 21.5279 31.8286 21.4965 31.8581 21.3969C31.9421 21.3764 31.9664 21.3769 32.0494 21.4143C32.2584 21.5086 32.4524 21.6783 32.6515 21.7957C32.9995 22.001 33.4571 22.2127 33.8423 22.3364C33.966 22.3762 34.0743 22.4118 34.1967 22.3517C34.2192 22.274 34.2424 22.2783 34.1717 22.2079C34.0913 22.1275 33.8589 22.051 33.7519 21.9988C33.2118 21.7352 31.9894 21.2502 31.7798 20.6699C31.7887 20.5754 31.794 20.562 31.8501 20.4854C32.2786 20.7264 33.6276 21.5991 34.0662 21.5907C34.1546 21.5889 34.175 21.5633 34.2348 21.5078C34.1981 21.4233 34.1715 21.4007 34.0906 21.35C33.8797 21.218 33.6081 21.1338 33.3826 21.0199C32.8175 20.7343 32.3124 20.4172 31.8126 20.0311C31.8358 19.7216 31.8817 19.4209 31.9796 19.126Z" fill="white"/>
<path d="M38.4248 21.8417C38.7214 21.8436 39.8574 21.7699 40.0291 21.9117L40.018 22.0102L39.9143 22.059C39.5612 22.1281 38.8201 22.2177 38.4785 22.0796C38.4 22.0478 38.3995 22.0306 38.3721 21.9566L38.4248 21.8417Z" fill="#2D2D2D"/>
<path d="M46.6309 22.1895C46.6675 22.2363 46.6658 22.263 46.6738 22.3205C46.6454 22.3674 46.646 22.372 46.6001 22.4168C46.4095 22.6027 46.0069 22.7349 45.7608 22.8278C43.9964 23.4939 41.929 23.7183 40.0501 23.6276C40.0339 23.6009 40.0225 23.5448 40.0132 23.5141C40.0981 23.3424 40.4538 23.3761 40.6273 23.3688C42.7862 23.2774 44.6208 23.0694 46.6309 22.1895Z" fill="#2D2D2D"/>
<path d="M63.4682 50.476C63.8232 49.7099 64.8175 47.6061 64.942 46.8948C65.0085 46.5148 64.8649 46.094 64.9234 45.6936C65.1357 44.241 65.7689 42.8552 66.655 41.6906C66.8769 41.3987 67.1328 41.074 67.4355 40.8617C67.5311 40.7946 67.6773 40.7121 67.7974 40.7446C67.9043 40.7737 67.9644 40.8372 68.0142 40.9342C68.2122 41.3195 67.8439 42.1821 67.7136 42.5768C67.2252 43.701 66.6603 44.5803 65.9218 45.5536C65.7999 45.7143 65.536 45.9817 65.5164 46.1718L65.5746 46.2394C65.7578 46.1663 65.8528 45.8625 66.0715 45.9173L66.1388 46.0827C66.2949 45.6651 66.5262 45.2964 66.7376 44.9063C67.2256 44.006 67.6692 43.1584 68.3342 42.3651C68.8318 41.885 69.3042 41.5661 69.9375 41.2891C70.0736 41.2295 70.2739 41.1285 70.4231 41.1438C70.5377 41.1556 70.5567 41.1775 70.6337 41.2546C70.7694 41.613 70.2333 42.9918 70.0688 43.3568C69.9661 43.588 69.8525 43.8138 69.7281 44.0341C69.6036 44.2544 69.4689 44.4682 69.3239 44.6755C69.205 44.8448 69.0281 45.0144 68.928 45.1889C68.3053 45.7568 67.3499 46.358 66.4669 46.2987C66.3297 46.2895 66.2784 46.2015 66.1921 46.1083C66.0589 46.2752 65.896 46.4191 65.7622 46.5871C65.3739 47.0744 65.1859 47.66 64.9707 48.2361C65.5554 47.8014 66.159 47.4052 66.756 46.9892C67.4733 46.4894 68.1606 45.9764 68.9151 45.5298C69.2537 45.3707 69.9821 44.9473 70.3457 45.0551C70.4517 45.0865 70.4765 45.1301 70.5239 45.2239C70.519 45.7542 69.8943 46.4239 69.5407 46.7738C68.0307 48.2675 66.66 48.9101 64.5674 49.1486C64.1724 50.0322 63.7144 50.846 63.1982 51.6646C64.2263 50.8739 65.2519 50.3415 66.5588 50.1968C66.8446 50.1652 67.1557 50.1317 67.4424 50.1664C67.6041 50.1861 67.7123 50.2198 67.8271 50.3393C67.863 50.465 67.8681 50.5417 67.8039 50.66C67.4224 51.3638 66.056 51.8777 65.3296 52.0603C64.6483 52.2315 63.6481 52.3587 62.9658 52.1493C62.5281 53.1889 60.6357 54.6852 59.6644 55.3813C60.3805 55.1821 61.1065 55.0232 61.8219 54.8246C62.642 54.5969 65.9475 53.4296 66.5621 53.8093C66.6243 53.8477 66.6324 53.8882 66.665 53.9508C66.6761 54.3566 66.3026 54.8128 66.0326 55.0957C65.2484 55.9174 64.0625 56.3349 62.9409 56.3521C62.2061 56.3634 61.5111 56.2003 60.7939 56.0731C60.3293 55.9907 59.6939 55.8496 59.2294 55.9389C58.3435 56.1091 56.7119 57.8248 56.0445 58.5025C58.5968 57.88 60.4411 57.482 62.817 58.9278C63.1565 59.1345 63.6753 59.4108 63.8489 59.7856C63.8457 59.8901 63.8364 59.9308 63.7558 60.0031C63.1389 60.556 61.4193 60.6885 60.6175 60.5975C59.6807 60.491 58.7058 60.1767 57.8571 59.7706C57.1545 59.4345 56.5128 59.0122 55.7305 58.8946C55.2955 59.4011 54.8878 59.9494 54.5156 60.5039C54.2785 60.8568 54.0335 61.4067 53.744 61.6821C53.6388 61.6813 53.6347 61.6693 53.5502 61.6038C53.5146 61.504 53.5114 61.4754 53.5419 61.3692C53.6263 61.0756 53.7996 60.7793 53.9186 60.4961C54.1541 59.9372 54.3403 59.3624 54.4772 58.7716C53.8362 58.2474 53.0862 57.7258 52.6 57.0518C52.5866 56.8767 52.5928 56.7071 52.6005 56.5321C52.6686 55.9245 52.6029 55.2497 52.5893 54.6358C52.58 54.3949 52.5835 54.1617 52.6002 53.9211C52.6757 53.3777 52.6183 52.7447 52.6181 52.1939L52.6101 48.5438C52.5007 48.2117 52.5785 47.4846 52.6192 47.1203C52.8732 47.3199 52.8078 47.5875 52.9807 47.8248C53.2519 48.1971 53.5793 48.5421 53.8679 48.9025C54.9285 50.2266 55.4042 51.2838 55.7375 52.9377C55.9882 52.2138 57.2149 49.1887 57.171 48.6675C57.2892 48.7054 57.4535 48.7349 57.5606 48.7943C57.3071 49.7076 57.0133 50.6076 56.6791 51.4945C56.452 52.1082 56.1971 52.718 55.9991 53.3416C57.1502 52.1439 58.3666 51.0013 60.0025 50.5314C60.3214 50.4399 60.6734 50.3528 61.0067 50.347C61.1585 50.3443 61.3545 50.3508 61.4655 50.4685C61.5096 50.5153 61.5146 50.5577 61.5134 50.6213C61.5057 51.0181 60.4625 51.8721 60.1513 52.092C59.3481 52.6596 58.3792 52.9761 57.4392 53.2371C56.8733 53.3941 56.346 53.5253 55.8175 53.7904C55.6264 54.5248 55.4071 55.2594 55.2762 56.0071C55.0573 57.2581 54.9551 58.4911 54.5966 59.7182C55.4037 58.6248 56.2017 57.6031 57.2327 56.7074C58.3077 55.7734 59.4721 55.0696 60.548 54.1885C61.3384 53.5411 62.0056 52.8128 62.6258 52.0034C62.6239 52 62.6216 51.9969 62.62 51.9934C62.3646 51.4501 61.8703 48.4828 62.0358 47.9165C62.1117 47.8206 62.1585 47.7657 62.2765 47.7186C62.3793 47.7146 62.4435 47.735 62.521 47.8024C63.1726 48.3682 63.4033 49.6703 63.4682 50.476Z" fill="#F2C94C"/>
<path d="M69.4451 43.7129C69.413 43.9036 69.2279 44.1822 69.126 44.3546C68.6377 45.1811 67.8865 45.5832 66.9863 45.8245L66.989 45.7785C67.8048 45.087 68.5512 44.3069 69.4451 43.7129Z" fill="#2D2D2D"/>
<path d="M62.3531 48.1924C62.6566 48.4322 62.8685 48.982 62.9767 49.343C63.1705 49.9891 63.2967 50.72 62.9649 51.3318C62.9322 51.3997 62.9012 51.4434 62.8486 51.4975L62.8466 51.4535L62.8143 51.4503C62.613 50.5471 62.3052 49.1146 62.3531 48.1924Z" fill="#2D2D2D"/>
<path d="M52.5894 54.6357C53.1891 55.7262 53.9247 56.8258 54.2901 58.0194C53.7137 57.538 53.1701 57.0208 52.6006 56.5321C52.6687 55.9244 52.603 55.2496 52.5894 54.6357Z" fill="#2D2D2D"/>
<path d="M66.7064 50.5602C66.9587 50.5303 67.2095 50.538 67.4629 50.5421C66.662 51.3953 65.4192 51.7166 64.2976 51.8651C64.0065 51.8882 63.7183 51.9015 63.4263 51.9053C64.4588 51.1753 65.4461 50.746 66.7064 50.5602Z" fill="#2D2D2D"/>
<path d="M53.0273 48.6162C53.0496 48.6357 53.0726 48.6547 53.0934 48.6757C53.9838 49.5757 55.3903 51.8425 55.3591 53.0975C55.3483 53.0909 55.3369 53.085 55.3266 53.0775C55.1346 52.9405 54.9507 52.6881 54.8002 52.5047C53.853 51.3508 53.3606 50.0516 53.0273 48.6162Z" fill="#2D2D2D"/>
<path d="M60.9084 50.7176C60.9498 50.7159 60.9214 50.7145 60.9905 50.7415C60.983 50.7719 60.9809 50.7889 60.9624 50.8182C60.2349 51.9673 58.2781 52.6616 57.0059 53.004L56.9531 52.9959C56.9602 52.9766 56.9632 52.9553 56.9745 52.9381C57.083 52.772 57.3484 52.5856 57.5009 52.4459C58.5037 51.5273 59.5436 50.915 60.9084 50.7176Z" fill="#2D2D2D"/>
<path d="M67.6545 41.208L67.6959 41.2701C67.6243 42.0584 66.8954 43.5211 66.467 44.1886C66.1293 44.7146 65.7279 45.2107 65.3517 45.7096C65.2907 45.6311 65.3122 45.5625 65.3243 45.4681C65.4855 44.215 66.6165 41.9709 67.6545 41.208Z" fill="#2D2D2D"/>
<path d="M70.1918 41.6084L70.2157 41.6301C70.2043 41.8355 69.8064 43.1282 69.6951 43.2217C69.5498 43.3436 69.1704 43.4268 68.9756 43.5611C68.242 44.0671 67.4602 44.7979 66.8877 45.4801L66.8477 45.4843C66.8497 45.4724 66.8507 45.4603 66.8538 45.4486C66.918 45.209 67.2515 44.7493 67.3799 44.5133C67.88 43.5945 68.3782 42.61 69.3043 42.0461C69.5744 41.8817 69.8773 41.7853 70.153 41.6305L70.1918 41.6084Z" fill="#2D2D2D"/>
<path d="M70.0399 45.4326L70.0689 45.4647C70.0622 45.6015 69.9618 45.7258 69.884 45.8346C69.1412 46.8742 67.7497 47.8815 66.5673 48.3354C66.0865 48.52 65.5921 48.6155 65.0868 48.7018L65.0562 48.6836L65.0704 48.6289C65.7517 48.0662 66.5165 47.6207 67.2497 47.1312C68.1747 46.5137 68.9984 45.8636 70.0399 45.4326Z" fill="#2D2D2D"/>
<path d="M65.7288 54.1527C65.9039 54.1249 66.0904 54.1278 66.2679 54.1191C66.0327 54.583 65.6919 54.9545 65.262 55.2454C63.9435 56.1376 62.4583 56.0448 60.9689 55.7523C60.6369 55.6751 60.3028 55.6315 59.9644 55.5948C60.5991 55.4822 61.2272 55.3601 61.849 55.188C63.1297 54.8338 64.4174 54.3665 65.7288 54.1527Z" fill="#2D2D2D"/>
<path d="M58.8892 58.4143C58.8999 58.4124 58.9106 58.4098 58.9214 58.4086C60.628 58.2148 62.0408 58.7271 63.3877 59.7515C62.6359 59.9521 61.9306 60.1536 61.1461 60.1589C59.1625 60.1677 58.2392 59.4423 56.5371 58.7257C57.3175 58.703 58.1067 58.4816 58.8892 58.4143Z" fill="#2D2D2D"/>
<path d="M52.61 48.5439C53.0106 50.64 53.5223 52.4387 55.3871 53.7041C55.4178 53.7249 55.4487 53.7452 55.4799 53.765C55.0062 54.8217 54.8138 56.6792 54.6656 57.8392C54.2688 56.8429 53.2826 54.6762 52.6001 53.9213C52.6756 53.3779 52.6182 52.7449 52.618 52.194L52.61 48.5439Z" fill="#2D2D2D"/>
<path d="M53.6151 22.7434C55.3316 20.9514 57.9544 19.9414 60.4077 19.8859C60.4861 19.8847 60.5645 19.8844 60.6429 19.8852C60.7213 19.886 60.7996 19.8877 60.8779 19.8903C60.9563 19.893 61.0346 19.8966 61.1129 19.9011C61.1912 19.9057 61.2694 19.9112 61.3475 19.9177C61.4256 19.9241 61.5036 19.9315 61.5815 19.9399C61.6595 19.9483 61.7373 19.9576 61.8151 19.9679C61.8928 19.9782 61.9703 19.9894 62.0478 20.0016C62.1252 20.0137 62.2025 20.0268 62.2797 20.0409C62.3568 20.0549 62.4337 20.0699 62.5104 20.0859C62.5872 20.1018 62.6638 20.1187 62.7401 20.1365C62.8165 20.1542 62.8926 20.173 62.9685 20.1927C63.0444 20.2123 63.12 20.2329 63.1954 20.2544C63.2708 20.2758 63.3459 20.2982 63.4208 20.3216C63.4956 20.3449 63.5701 20.3691 63.6444 20.3943C63.7186 20.4194 63.7926 20.4455 63.8662 20.4725C63.9397 20.4994 64.013 20.5273 64.086 20.556C64.1589 20.5848 64.2315 20.6144 64.3036 20.6449C64.3759 20.6754 64.4477 20.7068 64.5192 20.7391C64.5906 20.7713 64.6616 20.8044 64.7323 20.8384C64.8029 20.8724 64.8732 20.9073 64.943 20.943C65.0127 20.9787 65.0821 21.0153 65.1509 21.0527C65.2198 21.09 65.2883 21.1283 65.3562 21.1673C65.4242 21.2065 65.4917 21.2463 65.5587 21.287C65.6256 21.3278 65.6921 21.3693 65.7581 21.4116C65.8241 21.454 65.8895 21.4971 65.9544 21.5411C66.0194 21.585 66.0838 21.6297 66.1476 21.6752C66.2114 21.7207 66.2747 21.767 66.3374 21.8141C66.4001 21.8611 66.4622 21.9089 66.5237 21.9575C66.5853 22.006 66.6462 22.0553 66.7065 22.1054C66.7669 22.1554 66.8266 22.2062 66.8857 22.2577C66.9448 22.3092 67.0033 22.3615 67.0611 22.4144C67.1189 22.4674 67.1761 22.521 67.2326 22.5753C69.061 24.3362 69.9816 26.7976 70.0145 29.3126C70.047 31.7912 69.2247 34.1854 67.4797 35.9722C67.4345 36.0188 67.3887 36.0649 67.3423 36.1105C67.296 36.156 67.2491 36.2009 67.2016 36.2453C67.1541 36.2896 67.1061 36.3334 67.0576 36.3766C67.009 36.4197 66.9599 36.4623 66.9103 36.5042C66.8607 36.5462 66.8106 36.5875 66.76 36.6282C66.7093 36.6689 66.6582 36.709 66.6065 36.7484C66.5549 36.7879 66.5028 36.8267 66.4502 36.8648C66.3976 36.903 66.3446 36.9404 66.2911 36.9773C66.2375 37.0141 66.1835 37.0502 66.1291 37.0857C66.0747 37.1212 66.0198 37.156 65.9645 37.1901C65.9093 37.2242 65.8535 37.2577 65.7974 37.2904C65.7413 37.3231 65.6848 37.3552 65.6279 37.3865C65.571 37.4178 65.5137 37.4485 65.456 37.4784C65.3983 37.5083 65.3403 37.5375 65.2819 37.5659C65.2235 37.5944 65.1647 37.6222 65.1057 37.6491C65.0466 37.6762 64.9872 37.7024 64.9275 37.728C64.8677 37.7535 64.8077 37.7783 64.7473 37.8023C64.687 37.8264 64.6263 37.8497 64.5654 37.8723C64.5044 37.8948 64.4432 37.9166 64.3818 37.9376C64.3203 37.9586 64.2585 37.9789 64.1966 37.9984C64.1346 38.0178 64.0724 38.0366 64.01 38.0545C63.9475 38.0724 63.8849 38.0896 63.822 38.106C63.7591 38.1224 63.6961 38.138 63.6328 38.1528C63.5696 38.1677 63.5062 38.1817 63.4426 38.1949C63.379 38.2082 63.3152 38.2207 63.2512 38.2323C63.1873 38.244 63.1233 38.2548 63.0591 38.2649C62.995 38.275 62.9307 38.2842 62.8662 38.2927C62.8018 38.3012 62.7373 38.3089 62.6727 38.3158C62.6081 38.3226 62.5434 38.3287 62.4787 38.334C62.4139 38.3392 62.3491 38.3437 62.2842 38.3474C62.2194 38.3511 62.1545 38.3539 62.0895 38.3559C62.0246 38.358 61.9596 38.3593 61.8947 38.3597C61.4587 38.3617 60.0159 38.2591 59.6912 38.0548L59.4587 38.2159C59.3347 38.3147 59.1313 38.4354 59.0918 38.5938C58.9784 38.664 58.911 38.6982 58.7767 38.7044L58.8283 38.0902C58.7471 38.1059 58.7878 38.1108 58.7076 38.0668C58.6624 37.9812 58.6449 37.921 58.634 37.8248C58.5122 37.8198 58.3972 37.7761 58.2816 37.7406L58.0549 37.6741C57.6941 37.6472 57.2395 37.4571 56.8972 37.3325C55.2572 36.7355 54.0578 35.6994 53.0215 34.3237C52.7754 33.9968 52.5016 33.6505 52.3294 33.279C52.3799 33.03 52.0212 32.5335 51.9315 32.2814C51.8744 32.1207 51.9497 31.965 51.915 31.8075C51.8751 31.6268 51.7359 31.4555 51.6831 31.2679C51.7039 31.2265 51.7347 31.1887 51.7455 31.1437C51.7776 31.0088 51.6904 30.3182 51.6858 30.0978C51.6777 29.7608 51.6917 29.4248 51.7278 29.0897C51.79 28.4969 51.8728 27.8607 52.0404 27.2889C52.1408 26.9465 52.2829 26.6163 52.3799 26.2731C52.549 25.6744 52.6683 25.0444 52.8517 24.4529C52.8999 24.2976 52.9797 24.1536 53.0297 24.0002C53.0862 23.827 53.0322 23.6041 53.0991 23.4443C53.1943 23.2171 53.4926 23.0344 53.636 22.8098L53.6151 22.7434Z" fill="url(#paint0_linear_1087_8893)"/>
<path d="M58.0549 37.6744C57.6717 37.385 57.3346 37.0669 57.0386 36.6874C56.2887 35.7262 55.329 33.7498 55.1813 32.5553C55.1656 32.4282 55.1634 32.3265 55.2352 32.216C55.3361 32.1714 55.3577 32.1574 55.469 32.193C55.6456 32.2494 55.8358 32.4798 55.9654 32.6119C56.9014 33.5649 57.6747 34.8117 58.1458 36.0595C58.3266 36.5385 58.5835 37.3135 58.634 37.8251C58.5122 37.8201 58.3973 37.7764 58.2816 37.7409L58.0549 37.6744Z" fill="white"/>
<path d="M55.4814 32.5605C55.7446 32.7323 55.9835 33.0504 56.1785 33.2962C57.1471 34.5173 57.7829 35.8733 58.2168 37.3612C58.1682 37.3402 58.1213 37.3159 58.0773 37.2863C56.9674 36.5373 55.7761 33.9023 55.4814 32.5605Z" fill="#4FDB40"/>
<path d="M59.2235 34.1457C58.4998 33.1649 58.1082 32.2411 58.2965 31.01C58.3754 30.4942 58.8632 28.8891 59.2738 28.6054C59.3601 28.5458 59.4084 28.5296 59.5103 28.5566C59.7433 28.6185 59.9143 28.9684 59.9951 29.1681C60.4985 30.4134 60.8318 32.0432 60.2807 33.3209C60.1116 33.7131 59.8844 33.9832 59.5455 34.2411C59.4765 35.1657 59.389 36.0796 59.2688 36.9989C59.221 37.3639 59.1998 37.7587 59.0847 38.1095L59.167 38.1482L59.2552 38.107C59.2896 38.0225 59.3081 37.9807 59.3087 37.8878L59.2213 37.8062C59.3073 37.7825 59.368 37.762 59.4261 37.6905C59.598 37.4787 59.7161 37.1779 59.8399 36.935C60.0487 36.5257 60.2616 36.1236 60.5291 35.7486C61.0709 34.9892 61.804 34.2964 62.6009 33.81C62.7834 33.6987 63.0315 33.5018 63.2545 33.5553C63.2977 33.6043 63.3211 33.6145 63.3299 33.6823C63.3986 34.2089 62.2507 36.3925 61.9186 36.8429C61.3566 37.605 60.6125 37.9143 59.6912 38.0548L59.4587 38.216C59.3346 38.3147 59.1313 38.4354 59.0917 38.5939C58.9784 38.664 58.9109 38.6982 58.7766 38.7045L58.8282 38.0903C58.7931 37.4692 58.9614 36.7927 59.0399 36.174C59.1253 35.5007 59.173 34.8224 59.2235 34.1457Z" fill="white"/>
<path d="M59.2812 29.0557C59.3116 29.0881 59.2294 33.2268 59.2224 33.6273L59.0261 33.2372C58.9173 33.0238 58.8105 32.8104 58.7302 32.5843C58.2938 31.3546 58.7559 30.1717 59.2812 29.0557Z" fill="#4FDB40"/>
<path d="M59.519 28.8467C59.554 28.8911 59.5819 28.934 59.6029 28.9868C60.1566 30.3781 60.5579 31.9825 59.9185 33.4063C59.8148 33.5711 59.6916 33.7131 59.5655 33.8606C59.5881 32.1889 59.5726 30.5176 59.519 28.8467Z" fill="#4FDB40"/>
<path d="M60.1005 37.0286C60.8417 35.7346 61.7119 34.6013 63.0282 33.8408C62.8288 34.3957 62.6075 34.9261 62.3447 35.455C62.0563 36.0802 61.7808 36.6779 61.2399 37.1291C60.7499 37.5379 60.3256 37.5889 59.8201 37.8805C59.7273 37.934 59.7231 37.959 59.6913 38.0546L59.4588 38.2157L59.4067 38.1501C59.4636 38.0364 59.5195 37.9152 59.6103 37.824C59.9336 37.4997 60.3234 37.2248 60.6642 36.9151C61.0349 36.5782 61.8838 35.63 62.247 35.4281C62.2995 35.31 62.3359 35.2311 62.3249 35.0976L62.2793 35.0563C62.2479 35.0629 62.2142 35.0625 62.1851 35.076C62.0889 35.1202 60.3703 36.7769 60.1005 37.0286Z" fill="#4FDB40"/>
<path d="M18.8312 43.9096C17.0516 43.5274 15.7645 43.2723 14.2264 42.177C12.606 41.0232 11.4879 39.3732 11.1696 37.3982C10.7819 34.9918 11.8408 32.6923 13.2146 30.7833C14.946 28.3773 18.2323 25.4219 20.9524 24.1948C21.6828 23.8654 22.4788 23.6445 23.2691 23.5184C27.0378 22.9169 30.6753 24.6635 33.6557 26.8236C33.5107 27.2387 33.3458 27.6077 33.0905 27.9676C32.5182 28.7743 31.7205 29.4094 30.9817 30.0568C30.2214 30.7232 29.4645 31.3963 28.7867 32.1485C28.1747 32.8277 27.5955 33.5703 27.2674 34.432C26.6373 36.0876 26.7987 38.2559 26.8508 40.0076C26.8738 40.9439 26.9067 41.8799 26.9498 42.8155C26.3191 43.0964 25.6349 43.3281 24.9616 43.4752C24.9779 41.5716 24.8132 39.7288 24.0203 37.9665C23.8383 37.5619 23.6218 37.1137 23.3118 36.789C23.238 36.7117 23.1144 36.5998 22.9993 36.6101C22.8713 36.6217 22.7745 36.7126 22.7033 36.8132C21.892 37.9583 22.2342 42.5011 22.475 43.9472C22.1274 43.9708 21.7567 44.009 21.4108 43.9605C21.2607 43.636 21.0807 43.2971 20.881 43.0004C21.4248 40.272 20.8241 36.6545 19.2853 34.3445C18.9812 33.8879 18.4587 33.1805 17.8794 33.072C17.8631 33.0691 17.8467 33.067 17.8301 33.0658C17.8136 33.0646 17.797 33.0643 17.7804 33.0648C17.7638 33.0653 17.7473 33.0666 17.7308 33.0688C17.7144 33.0711 17.6981 33.0741 17.6819 33.078C17.6658 33.0819 17.6499 33.0866 17.6343 33.0921C17.6186 33.0976 17.6033 33.1039 17.5883 33.111C17.5733 33.1181 17.5587 33.1259 17.5445 33.1345C17.5303 33.1431 17.5166 33.1524 17.5033 33.1624C17.309 33.3076 17.2576 33.5733 17.2371 33.8002C17.0076 36.3387 18.0751 39.2237 19.3899 41.3647C19.9961 42.3519 20.7099 43.2609 21.3475 44.2253C21.4787 44.5944 21.7639 44.9925 21.9454 45.3483C22.2876 46.0194 22.5933 46.7133 22.9034 47.3999C22.8792 44.9022 21.8904 38.9443 23.0102 36.8858C23.5508 37.4557 23.8658 38.3332 24.1044 39.0662C24.7769 41.1318 25.0005 44.1501 24.4062 46.2322C24.1636 47.0817 23.7681 47.8405 23.372 48.6238C23.657 49.9068 23.8969 51.1027 23.9173 52.4273C23.9958 52.1196 24.0614 51.7887 24.1767 51.4935C24.4851 50.704 25.4107 49.1776 26.0953 48.6744C26.2162 48.5855 26.3171 48.5411 26.4701 48.5684C26.763 48.7309 26.8009 49.2428 26.8314 49.5467C26.9786 51.0131 26.5753 52.7747 26.0511 54.1405C25.8133 54.7601 25.5128 55.3633 25.2415 55.9693C24.8809 56.7744 24.4281 57.7882 24.3 58.6583C24.1424 59.7287 26.1151 62.8489 26.7737 63.8155C26.9654 64.0968 27.5082 64.6979 27.5877 64.973C27.6175 65.0761 27.6087 65.1238 27.5611 65.2166C27.4778 65.2455 27.4525 65.2565 27.3642 65.229C27.0459 65.13 26.853 64.6557 26.6746 64.3969C25.7568 63.0651 25.0311 61.7879 24.2962 60.3488C23.8074 60.3957 23.3031 60.3576 22.8114 60.3613C21.7069 60.3697 20.6047 60.4252 19.511 60.2311C18.8248 60.1093 16.6517 59.4472 16.3056 58.8593C16.2507 58.7659 16.2616 58.7182 16.2873 58.6178C16.509 58.3711 16.9243 58.2971 17.234 58.213C19.089 57.709 20.9855 58.0779 22.6476 58.9948C23.1073 59.2486 23.5166 59.575 23.9719 59.8318L24.0148 59.8555C23.7239 59.376 23.325 58.9242 22.9777 58.4822C22.1925 57.4945 21.3949 56.5168 20.585 55.5493C19.9191 55.7433 19.2188 55.8816 18.5218 55.8331C17.8265 55.7847 15.7584 55.3637 15.351 54.8195C15.2926 54.7415 15.2839 54.693 15.291 54.5986C15.3411 54.554 15.3837 54.5269 15.4483 54.5069C16.8856 54.0623 18.4691 54.0233 19.8382 54.701C19.2382 54.0744 18.6098 53.478 17.9528 52.9115C17.0882 53.2021 16.0486 53.389 15.1348 53.3617C14.3914 53.3394 12.7065 52.9851 12.2116 52.4129C12.15 52.3417 12.1569 52.3236 12.162 52.2348C12.1925 52.1967 12.2191 52.1633 12.2603 52.136C13.3743 51.3985 15.7378 51.5262 16.9664 51.8464C16.4142 51.3691 15.8565 50.8944 15.2641 50.4672C14.3238 50.7262 13.4246 50.8902 12.446 50.777C12.104 50.7399 11.7686 50.6706 11.4399 50.569C11.0185 50.437 9.53343 49.8227 9.311 49.4573C9.25288 49.3617 9.26507 49.3455 9.29632 49.2462C9.8728 48.7056 11.8887 48.9716 12.6761 48.9926C11.4465 48.5722 10.1865 47.7015 9.52132 46.566C9.31093 46.2069 8.87749 45.2789 8.98108 44.8878C9.05772 44.8255 9.09452 44.8048 9.19554 44.8058C9.51975 44.8094 9.95436 45.0142 10.2491 45.1403C12.4405 46.0773 13.0948 47.4793 14.7063 48.9819C14.2705 48.0322 13.4429 47.3072 13.0047 46.3561C12.872 46.0681 12.5424 45.2633 12.6767 44.971C12.7041 44.9113 12.7355 44.9133 12.7912 44.8892C13.0737 44.9115 13.4906 45.2865 13.699 45.4747C14.9883 46.6403 15.5991 48.3758 15.6881 50.0824C16.6287 50.8365 17.5187 51.6463 18.358 52.5119C18.1259 51.9937 17.8083 51.5039 17.5481 50.998C16.9463 49.8285 16.425 48.3273 16.5784 46.9969C17.161 47.4976 17.652 48.0648 18.0069 48.7502C18.5392 49.7785 19.0758 51.6317 18.7123 52.7798C19.1977 53.3765 19.7455 53.8958 20.3074 54.4182C20.0173 52.8843 20.1691 51.1984 20.9988 49.8422C21.3044 50.1709 21.4913 50.5739 21.6023 51.0054C21.9942 52.5292 21.6151 53.904 20.8426 55.2268C21.7669 56.169 23.0719 57.838 23.7834 58.9457C23.7198 58.0549 23.5268 57.1892 23.4937 56.2889C23.4182 54.2344 23.6613 52.0855 23.2781 50.0574C23.1861 49.5703 23.0367 49.1052 22.8812 48.6358C22.4045 48.6294 21.9184 48.5176 21.4685 48.3636C20.5085 48.035 18.0642 46.8449 17.6601 45.9239C17.6133 45.8176 17.6183 45.7449 17.6569 45.636C17.7348 45.5477 17.7981 45.5122 17.9147 45.4999C18.8832 45.398 20.6676 46.4132 21.438 47.0015C21.8872 47.3444 22.2834 47.749 22.716 48.1119C22.3421 47.2323 21.9846 46.3239 21.5411 45.477C20.9642 44.3756 20.1818 43.3686 19.3803 42.4243C18.7188 41.6448 15.4407 37.9187 14.6875 37.9597C14.5708 37.9661 14.5529 37.9936 14.4741 38.0712C14.3987 38.2787 14.4035 38.4629 14.4473 38.6783C14.7369 40.1042 15.8858 41.6218 16.9559 42.5608C17.5374 43.071 18.1791 43.4966 18.8312 43.9096Z" fill="#4FDB40"/>
<path d="M13.2026 45.6582C13.2219 45.667 13.2418 45.6743 13.2604 45.6844C13.457 45.791 13.6597 46.0548 13.7978 46.2292C14.4816 47.0926 15.0392 48.1405 15.2433 49.2309C15.2256 49.2191 15.2076 49.2075 15.1923 49.1927C15.0265 49.0318 14.7688 48.3808 14.6286 48.1434C14.2534 47.5082 13.7637 46.9399 13.4172 46.2889C13.3108 46.0891 13.2193 45.8866 13.2026 45.6582Z" fill="#2D2D2D"/>
<path d="M20.6512 52.2955C20.7473 51.8415 20.8344 51.3745 20.9959 50.9385C21.4349 51.9967 21.3204 53.3232 20.8751 54.3649C20.823 54.4867 20.7647 54.6053 20.7 54.7209C20.7271 54.5537 20.76 54.3854 20.7741 54.2167C20.9337 53.59 21.089 52.8102 20.9923 52.1655L20.9609 52.1508C20.8828 52.2675 20.8595 52.3682 20.8312 52.5047L20.7484 52.9648C20.7164 53.2593 20.663 53.5665 20.661 53.8622C20.6399 53.9865 20.6375 54.1633 20.5609 54.2593C20.419 53.836 20.5331 53.1494 20.5823 52.7138L20.6512 52.2955Z" fill="#2D2D2D"/>
<path d="M18.6797 46.2472C18.6958 46.2469 18.712 46.2455 18.728 46.2464C19.5185 46.2863 22.0921 47.79 22.6651 48.3958C22.5254 48.386 22.3915 48.3696 22.2554 48.3349C22.0005 48.27 21.7442 48.1598 21.5102 48.0406C21.095 47.829 20.7073 47.5539 20.3052 47.3181C19.8334 47.0414 19.3043 46.7936 18.8683 46.4643C18.7838 46.4005 18.7336 46.3372 18.6797 46.2472Z" fill="#2D2D2D"/>
<path d="M17.0625 48.1514C17.0838 48.1665 17.1042 48.1827 17.124 48.1998C17.6291 48.6326 18.1877 50.4457 18.331 51.1117C18.4316 51.5793 18.496 52.0679 18.5109 52.5462C18.2863 52.3297 17.3789 49.6549 17.2593 49.2201C17.1624 48.868 17.072 48.5181 17.0625 48.1514Z" fill="#2D2D2D"/>
<path d="M17.0626 54.6262C18.1478 54.5015 19.2236 54.9651 20.2068 55.3554C19.8809 55.3965 19.5541 55.427 19.2262 55.4467C18.1286 55.5266 17.0844 55.2192 16.1221 54.7144C16.4361 54.6963 16.7497 54.6583 17.0626 54.6262Z" fill="#2D2D2D"/>
<path d="M14.7717 52.0107C15.4647 51.9834 16.2676 52.037 16.9422 52.1937C17.0711 52.2237 17.2155 52.269 17.2886 52.3834C16.9772 52.5384 14.7418 52.0363 14.293 52.3288L14.3048 52.3888C14.6827 52.7107 15.5842 52.6948 16.0577 52.7013C16.4871 52.702 16.9151 52.6675 17.345 52.6791C17.233 52.7152 17.1202 52.7482 17.0064 52.7781C15.6987 53.1154 14.0809 53.0449 12.8945 52.3582C13.4707 52.0413 14.1326 52.0445 14.7717 52.0107Z" fill="#2D2D2D"/>
<path d="M10.0352 49.4435C10.8891 49.1797 11.8657 49.2974 12.7365 49.4484C13.2042 49.4962 13.6416 49.62 14.0906 49.7536C13.5592 49.7249 13.0237 49.6573 12.4929 49.6445C12.3842 49.6839 12.2914 49.7195 12.2258 49.8196L12.2534 49.8925C12.7273 50.2227 14.3137 50.0843 14.9831 50.2209L15.0349 50.2318C14.9277 50.266 14.8196 50.2991 14.7099 50.3246C13.0334 50.7136 11.4719 50.3273 10.0352 49.4435Z" fill="#2D2D2D"/>
<path d="M9.46391 45.3086C10.7756 45.6304 12.5828 47.2301 13.3998 48.3268C12.3001 47.5191 11.3714 46.4061 10.0966 45.8706C10.2951 46.104 10.5498 46.2973 10.7829 46.4956C11.3058 46.9383 11.7623 47.4577 12.2985 47.8851C12.7562 48.2498 13.2983 48.5132 13.7194 48.9216C12.5674 48.6108 11.2984 47.9471 10.4621 47.0865C10.0685 46.6814 9.45797 45.9048 9.46391 45.3086Z" fill="#2D2D2D"/>
<path d="M23.2871 39.2812C23.6249 39.5516 23.6832 43.223 23.7632 43.8398C23.9809 43.815 24.1989 43.7933 24.4171 43.7748C24.4145 43.9405 24.4075 44.1061 24.3959 44.2715C24.3844 44.4368 24.3684 44.6018 24.348 44.7663C24.3276 44.9308 24.3028 45.0946 24.2736 45.2578C24.2443 45.421 24.2107 45.5833 24.1727 45.7446C24.1347 45.906 24.0924 46.0662 24.0458 46.2253C23.9992 46.3844 23.9483 46.5421 23.8932 46.6984C23.8381 46.8548 23.7789 47.0096 23.7154 47.1627C23.652 47.3159 23.5845 47.4672 23.5129 47.6167C23.4402 47.7543 23.3533 47.8875 23.2738 48.0215C23.2152 46.6451 23.1302 45.2703 23.0186 43.8973L23.5321 43.892C23.413 42.8325 23.1436 40.3007 23.2871 39.2812Z" fill="#2D2D2D"/>
<path d="M18.9482 58.376C20.7254 58.4097 22.1082 59.0954 23.6043 59.9885C22.9159 59.9964 22.2275 59.9974 21.5391 59.9914C19.9322 59.9479 18.2732 59.7633 16.9268 58.7989C17.5829 58.514 18.2389 58.4187 18.9482 58.376Z" fill="#2D2D2D"/>
<path d="M26.2881 48.9707C26.3269 48.9902 26.3245 48.982 26.3465 49.0212C26.483 49.2646 26.4636 49.7535 26.4718 50.0284C26.5227 51.7227 25.9287 53.5073 25.2432 55.0422C24.808 56.0164 24.3222 56.9945 24.1152 58.0485C24.1082 58.0428 24.1001 58.0383 24.0941 58.0315C23.8987 57.8081 23.9023 55.3574 23.9057 54.9625C23.9245 52.765 24.7016 50.5305 26.2881 48.9707Z" fill="#2D2D2D"/>
<path d="M47.4144 19.205C47.0957 19.4911 46.793 19.6933 46.3957 19.8543C43.6492 20.9678 36.1185 20.9772 33.3696 19.7935C33.0085 19.638 32.4185 19.3672 32.2781 18.974C32.2333 18.8486 32.2464 18.7203 32.3039 18.6022C32.5683 18.0589 33.5957 17.649 34.1333 17.4619C34.1288 17.9545 34.0544 18.5822 34.4205 18.9707C35.4503 20.0636 38.2874 20.1551 39.7459 20.1684C41.2835 20.1824 44.6495 20.0454 45.7188 18.9372C46.0868 18.5559 46.0182 18.0356 46.0134 17.5499L46.2082 17.6212C46.8825 17.8718 47.5916 18.2826 47.8982 18.9669C48.2222 19.6901 48.3114 21.75 48.0139 22.4793C47.6466 23.3797 46.695 23.7509 45.861 24.0951C45.858 24.1766 45.8555 24.2581 45.8537 24.3396C45.7959 26.8968 46.0313 28.2379 48.2247 29.8375C48.9938 30.3983 49.7432 30.9173 50.4035 31.6132C51.204 32.457 51.9345 33.5036 52.2682 34.6301C52.5259 35.4996 52.53 36.4745 52.5646 37.3757C52.623 38.8986 52.6142 40.4213 52.6177 41.9449C52.6215 43.6685 52.6692 45.3982 52.6192 47.121C52.5785 47.4853 52.5007 48.2123 52.6101 48.5444L52.6181 52.1945C52.6183 52.7453 52.6757 53.3783 52.6002 53.9218C52.5835 54.1623 52.58 54.3955 52.5892 54.6364C52.6029 55.2504 52.6686 55.9251 52.6005 56.5328C52.5928 56.7078 52.5866 56.8773 52.5999 57.0524C52.4879 59.8359 53.5175 62.1145 51.4699 64.5739C49.4733 66.9719 45.6639 67.5689 42.7321 67.8192C40.0186 68.0508 36.8163 68.0261 34.1675 67.3307C33.2017 67.0771 32.2546 66.7032 31.3469 66.29C30.4463 65.88 29.5367 65.4009 28.7811 64.7573C28.0168 64.1063 27.6653 63.3145 27.5874 62.3155C27.5185 61.4341 27.5591 60.5352 27.5622 59.6517L27.5667 55.6686C27.5741 54.1713 27.5076 52.6758 27.4743 51.1791C27.4549 50.302 27.4687 49.4243 27.4584 48.5471C27.4288 46.0319 27.3105 43.512 27.2345 40.9974C27.1925 39.6083 27.1297 38.2059 27.1845 36.8168C27.2163 36.0088 27.3146 35.2235 27.6399 34.4761C28.4143 32.6977 29.961 31.3848 31.4028 30.1521C31.9824 29.6566 32.5824 29.1623 33.0732 28.5758C34.1006 27.3485 34.2636 26.0081 34.1302 24.4623C34.9455 24.68 35.7624 24.9107 36.6004 25.0239C38.8559 25.3287 42.3921 25.1209 44.5579 24.4184C45.1253 24.2343 45.6817 23.9482 46.2217 23.6934C46.7701 23.4345 47.4914 23.0629 47.6953 22.4477C47.8362 22.0222 47.7196 20.1868 47.6184 19.703C47.5807 19.5229 47.4988 19.3664 47.4144 19.205Z" fill="white"/>
<path d="M29.4307 61.8018C29.4474 61.8075 29.4645 61.8122 29.4809 61.8189C29.71 61.9118 30.4114 62.9347 30.6807 63.195C30.9979 63.5016 31.38 63.7599 31.7757 63.9542C33.0241 64.5673 34.5665 64.8582 35.9364 65.0532C39.4176 65.5485 43.5725 65.614 46.943 64.4779C47.6696 64.233 48.3479 63.9069 49.0277 63.5568C49.3447 63.3936 49.665 63.2031 49.9926 63.0643C49.9694 63.1201 49.9466 63.1739 49.9184 63.2273C49.5611 63.9041 47.6043 64.6175 46.8622 64.8547C43.1232 66.0499 38.1702 65.9468 34.3666 65.1343C33.3569 64.9187 32.3145 64.6629 31.3949 64.1824C30.4149 63.6704 29.7591 62.8522 29.4307 61.8018Z" fill="#2D2D2D"/>
<path d="M34.7285 25.3936C34.8072 25.4183 34.945 25.4494 34.9893 25.52C35.1215 25.7312 35.0098 26.3154 34.9904 26.5727C34.9379 27.2664 34.8485 27.9452 34.5349 28.575C33.936 29.778 32.5804 30.7111 31.6069 31.6096C30.7403 32.4096 29.8757 33.3879 29.3111 34.4256C28.7698 35.4203 28.569 36.5143 28.5286 37.6368C28.5194 37.8946 28.5729 38.3519 28.488 38.5846C28.4692 38.6361 28.3365 38.6622 28.2837 38.681C28.1579 38.9267 28.3984 43.6018 28.4143 44.2046C28.4279 44.7163 28.5065 45.352 28.3918 45.8495C28.389 45.8614 28.3858 45.8731 28.3827 45.8849C28.2605 45.8612 28.2158 45.8604 28.1184 45.7788C28.0087 45.465 28.0518 43.4993 28.0385 43.0209C27.983 41.0347 27.8511 39.0458 27.8566 37.0584C27.858 36.5236 27.8625 35.9593 27.9787 35.4364C28.1129 34.8329 28.4011 34.2607 28.7327 33.743C29.955 31.835 31.538 30.9764 33.0658 29.4514C34.3313 28.1882 34.7284 27.1657 34.7285 25.3936Z" fill="#2D2D2D"/>
<path d="M45.1827 24.9229C45.2474 25.0034 45.3581 26.7504 45.4138 27.0119C45.4924 27.3812 45.66 27.7643 45.8479 28.0904C46.9814 30.0576 48.822 30.71 50.2431 32.2682C51.1927 33.3094 51.7246 34.4795 51.9599 35.8659C52.2323 37.4705 52.1066 39.1299 52.0723 40.7476C52.052 42.2374 52.0409 43.7271 52.039 45.2169C52.0564 48.5784 52.0552 51.9399 52.0355 55.3014C52.0335 57.0411 52.0944 58.7816 52.0059 60.5201C51.926 62.0901 51.5048 63.6986 50.2928 64.7824C47.7432 67.0621 41.5497 67.3035 38.2483 67.1142C35.6157 66.9632 31.9206 66.5305 30.0888 64.4484C29.4024 63.6683 28.9394 62.6574 28.6799 61.6586C28.2004 59.8125 28.1495 57.8575 28.069 55.9617C27.9986 54.4264 27.9447 52.8906 27.9074 51.3542C27.8764 49.9766 27.77 48.5465 27.8616 47.1724C27.9438 47.1306 28.0022 47.0881 28.0972 47.1016C28.1678 47.1675 28.1882 47.236 28.1933 47.3304C28.2448 48.2933 28.2503 49.2682 28.276 50.2328C28.3232 52.1845 28.3817 54.1358 28.4515 56.0868C28.4992 57.3242 28.5441 58.5703 28.6755 59.8019C28.8735 61.6575 29.4981 63.5418 31.0042 64.7425C33.8304 66.9957 40.2328 67.007 43.6868 66.6314C45.9796 66.3821 49.056 65.901 50.5691 63.9917C51.1192 63.2975 51.4314 62.3744 51.5669 61.5071C51.7858 60.1054 51.7477 58.6103 51.7634 57.1931C51.7925 55.0641 51.7992 52.935 51.7835 50.8059C51.7727 48.4823 51.7773 46.1587 51.7973 43.8351C51.8034 42.7106 51.8821 41.5553 51.8096 40.4349C51.7592 39.6571 51.5647 38.9028 51.4728 38.1289C51.1268 35.2183 50.6182 33.2549 48.1233 31.4374C47.5353 31.009 46.8528 30.7135 46.2846 30.261C44.7803 29.0626 44.6553 26.9936 44.4475 25.2246C44.6935 25.1267 44.9378 25.0236 45.1827 24.9229Z" fill="#2D2D2D"/>
<path d="M35.621 25.2949C37.8576 25.8046 41.8087 25.7534 44.0735 25.3058L44.1351 26.1062C44.3085 28.2065 44.5619 29.7106 46.4083 30.9514C47.0994 31.4157 47.7121 31.7476 48.3658 32.3029C49.8863 33.5944 50.5157 34.873 50.8937 36.8048C50.9997 37.347 51.1079 37.9005 51.1523 38.4516L51.0744 38.3763C50.7806 38.093 50.4873 37.8229 50.1374 37.6097C48.358 36.5255 44.7196 35.9851 42.6471 35.8778C41.2423 35.8052 39.8233 35.8519 38.4172 35.8782C35.7526 35.9492 33.2865 36.3616 30.7754 37.252C30.9856 36.0189 31.4996 34.6425 32.5822 33.9074C32.7506 33.7931 33.1647 33.6063 33.2536 33.4255C33.2787 33.3745 33.2507 33.3528 33.229 33.3066C33.1681 33.2705 33.1194 33.2455 33.0491 33.2313C32.7935 33.1795 32.6035 33.2141 32.3861 33.3609C32.0942 33.5581 31.8327 33.849 31.6066 34.1165C30.6833 35.209 30.4504 36.2132 30.1762 37.5781C29.7309 37.7841 29.3357 38.0455 28.9331 38.3228C29.2584 34.672 30.1025 33.625 32.7087 31.2405C33.2048 30.7866 33.7619 30.3538 34.2108 29.8552C35.3691 28.5685 35.7057 26.9891 35.621 25.2949Z" fill="#2D2D2D"/>
<path d="M36.355 35.2109C36.4188 35.232 36.4723 35.262 36.5315 35.2934C36.5719 35.4037 36.5562 35.4206 36.5229 35.5354C36.4233 35.5198 36.3655 35.5186 36.2895 35.4463C36.2815 35.338 36.3075 35.3064 36.355 35.2109Z" fill="white"/>
<path d="M43.3498 28.3701C43.4298 28.3889 43.478 28.4176 43.5455 28.4639C43.581 28.5848 43.5643 28.6194 43.5346 28.7388C43.4346 28.7293 43.3861 28.7214 43.305 28.6606C43.2812 28.5368 43.31 28.4878 43.3498 28.3701Z" fill="white"/>
<path d="M41.0832 33.1406C41.1861 33.1532 41.2711 33.152 41.3472 33.2313C41.3663 33.3512 41.345 33.3895 41.3052 33.5016C41.2046 33.4881 41.1544 33.4733 41.0716 33.4141C41.0328 33.2904 41.0499 33.2623 41.0832 33.1406Z" fill="white"/>
<path d="M45.6079 33.6064C45.6212 33.6067 45.6347 33.6062 45.648 33.6071C45.7682 33.6152 45.8219 33.6416 45.8962 33.7298C45.9114 33.8473 45.8765 33.9064 45.8239 34.0063C45.7121 33.982 45.664 33.9702 45.5782 33.888C45.5533 33.7614 45.5699 33.7264 45.6079 33.6064Z" fill="white"/>
<path d="M37.9194 30.8828C37.9892 30.8864 38.0837 30.8909 38.1462 30.9227C38.2301 30.9657 38.2807 31.0343 38.2911 31.128C38.3036 31.2416 38.2276 31.3392 38.1668 31.4268C38.1214 31.4195 38.0519 31.4134 38.0086 31.3932C37.9236 31.3537 37.8541 31.2932 37.833 31.1988C37.8059 31.078 37.8643 30.9841 37.9194 30.8828Z" fill="white"/>
<path d="M38.5084 26.2334C38.6165 26.2465 38.7256 26.2686 38.8096 26.3427C38.8924 26.4158 38.9418 26.511 38.9446 26.623C38.9495 26.8207 38.8619 26.9368 38.7346 27.0775C38.6251 27.0764 38.5321 27.0597 38.4464 26.9848C38.3482 26.8989 38.3042 26.7811 38.3067 26.6521C38.3104 26.4658 38.3828 26.3639 38.5084 26.2334Z" fill="white"/>
<path d="M28.9854 41.8463C29.4763 41.3342 30.2218 40.9257 30.8871 40.6875C33.3071 39.8213 35.518 41.1318 37.6354 42.1402C40.8496 43.6709 44.0293 43.9265 47.1004 41.8421C48.6198 40.8108 49.1149 40.1509 51.005 39.4814C50.9518 41.5479 50.964 43.6167 50.9146 45.6839L50.804 51.1228C50.7895 51.9351 50.7478 52.7519 50.7546 53.5639C51.0152 54.4156 51.3395 55.9046 50.9033 56.7355C50.8875 56.7655 50.8698 56.7943 50.8502 56.822C50.8307 56.8497 50.8094 56.876 50.7865 56.901C50.7636 56.9259 50.7392 56.9493 50.7132 56.9712C50.6873 56.993 50.6601 57.0131 50.6316 57.0314C50.4909 57.4442 50.52 57.9577 50.5043 58.3919C50.464 59.5111 50.5022 62.1208 49.9927 63.0645C49.665 63.2032 49.3448 63.3938 49.0278 63.557C48.3479 63.9071 47.6696 64.2332 46.9431 64.4781C43.5726 65.6142 39.4177 65.5486 35.9364 65.0533C34.5666 64.8584 33.0242 64.5675 31.7758 63.9543C31.3801 63.76 30.9979 63.5018 30.6807 63.1951C30.4114 62.9349 29.7101 61.912 29.481 61.819C29.4646 61.8124 29.4475 61.8076 29.4307 61.8019C29.1692 61.1914 29.2589 57.5459 29.2465 56.7002L29.1322 46.6742C29.094 45.0645 29.0451 43.4552 28.9854 41.8463Z" fill="#F2C94C"/>
<path d="M38.9649 51.3732C38.0275 51.6425 36.5216 51.961 35.5625 51.7537C35.3228 51.7019 35.1255 51.5882 34.9973 51.3739C34.6655 50.8196 34.8641 49.7696 35.0289 49.1809C35.4213 47.779 36.4938 46.5219 37.7622 45.8251C39.0916 45.0948 40.7117 44.8823 42.172 45.3097C43.4593 45.6865 44.9007 46.5937 45.558 47.7937C44.9933 49.1946 42.8933 50.028 41.5864 50.5867C41.7684 52.4025 42.3782 54.1314 42.9216 55.86C43.1619 56.6244 43.3558 57.4188 43.6468 58.1648C44.3137 57.12 44.881 55.9632 45.67 55.0038L45.7132 54.9082C45.544 54.6899 45.2473 54.515 45.0274 54.345C44.4555 53.9027 43.7815 53.3329 43.4292 52.6896C43.298 52.4499 43.2069 52.1871 43.2943 51.9159C43.4192 51.5277 43.9509 51.231 44.3002 51.0599C45.4007 50.5207 46.7375 50.3874 47.8998 50.7999C49.291 51.2935 50.1337 52.2689 50.7545 53.5636C51.0152 54.4153 51.3394 55.9043 50.9033 56.7353C50.8874 56.7652 50.8697 56.794 50.8501 56.8217C50.8306 56.8495 50.8094 56.8758 50.7865 56.9007C50.7636 56.9257 50.7391 56.9491 50.7132 56.971C50.6873 56.9928 50.66 57.0129 50.6316 57.0312C50.4921 57.076 50.3394 57.1341 50.1923 57.1412C49.5041 57.1747 48.6429 56.6992 48.0378 56.3891C47.8432 56.291 47.6513 56.1878 47.4622 56.0795C47.1523 56.5807 46.9587 57.1273 46.6682 57.6296C46.4364 58.271 46.2384 58.9183 46.1205 59.5917C45.9043 60.8268 46.0128 62.5666 45.1248 63.5475C44.8347 63.8678 44.4519 64.0157 44.0249 64.0302C43.2638 64.0561 42.2669 63.8067 41.7121 63.2575C41.4287 62.9769 41.3279 62.7149 41.3187 62.324C41.1901 62.3234 41.0615 62.3205 40.933 62.3152C40.3414 62.2885 39.8409 62.1143 39.435 61.67C39.2605 62.3309 38.8877 62.8948 38.3338 63.3032C37.9489 63.5871 37.4998 63.7342 37.0205 63.6501C35.8638 63.4473 35.3777 62.2337 34.9543 61.2919C34.7052 60.7381 34.4684 60.1746 34.1941 59.6329C33.8059 58.8665 33.3262 58.127 32.8284 57.4276C32.2157 57.8616 31.1335 58.5454 30.3642 58.5601C30.2152 58.563 30.063 58.5294 29.956 58.4191C29.638 58.0914 29.6755 56.7025 29.6912 56.2405C29.7245 55.2564 30.0149 54.313 30.7598 53.6318C31.5578 52.9021 32.7616 52.4893 33.8376 52.5382C34.6262 52.5739 35.7383 52.907 36.2741 53.5198C36.38 53.6408 36.4627 53.7902 36.447 53.9559C36.3848 54.6123 35.1612 55.6036 34.6736 56.0395C35.3159 56.8914 35.9537 57.7578 36.7325 58.4928C37.5967 59.3085 38.3898 59.796 39.1584 60.774C39.0914 60.2561 39.0276 59.7363 39.0318 59.2132C39.0425 57.8786 39.3247 56.5573 39.3685 55.2195C39.4103 53.9447 39.1844 52.6254 38.9649 51.3732Z" fill="#2D2D2D"/>
<path d="M45.4697 59.9135C45.5812 59.9056 45.6668 59.8933 45.771 59.9444C45.8294 60.0509 45.7852 60.1789 45.7655 60.293C45.7009 60.2556 45.6279 60.218 45.5708 60.1699C45.4804 60.0938 45.4797 60.0243 45.4697 59.9135Z" fill="#FFF37A"/>
<path d="M39.0937 51.0336L39.1383 51.0332L39.1309 51.0705C38.3411 51.4088 36.8838 51.5142 36.0136 51.5598L35.958 51.5264C36.1479 51.2919 38.5921 51.1149 39.0937 51.0336Z" fill="#FFF37A"/>
<path d="M43.245 59.2432C43.4635 59.3438 43.7034 59.4107 43.9255 59.5102C44.2661 59.6626 45.5478 60.2984 45.7448 60.5726C45.7354 60.6639 45.7379 60.6776 45.68 60.747C44.9133 60.1329 44.0612 59.8233 43.1518 59.4811C43.1402 59.3895 43.2009 59.3227 43.245 59.2432Z" fill="#FFF37A"/>
<path d="M42.9974 59.6367C43.807 59.9277 44.5213 60.2389 45.2664 60.6722C45.3738 60.7346 45.5835 60.8292 45.6516 60.9303C45.7172 61.0276 45.6864 61.0687 45.6591 61.1747L45.6024 61.1891C44.6736 60.5501 43.8468 60.2048 42.7373 60.0077L42.9974 59.6367Z" fill="#FFF37A"/>
<path d="M42.6267 60.1885C42.8445 60.2633 43.0923 60.2961 43.3184 60.347C43.9763 60.495 44.4905 60.6816 45.0661 61.0329C45.2584 61.1503 45.4745 61.2683 45.61 61.452C45.622 61.5558 45.6166 61.5754 45.5761 61.6724L45.5059 61.6468C44.4009 60.801 43.7197 60.6901 42.3594 60.6135L42.6267 60.1885Z" fill="#F2C94C"/>
<path d="M36.7659 58.9033C36.8757 58.9724 36.9733 59.0693 37.0712 59.1548C36.3477 59.8254 35.7553 60.5204 35.3423 61.4245L35.3045 61.4278C35.202 61.3107 35.1502 61.1511 35.0898 61.0091C35.569 60.1061 35.992 59.5685 36.7659 58.9033Z" fill="#F2C94C"/>
<path d="M42.842 59.2627L42.8527 59.2718C42.8716 59.3783 42.5395 59.799 42.4612 59.9148C41.4113 60.104 40.4509 60.2161 39.3834 60.0781C39.378 60.0715 39.3711 60.0658 39.367 60.0582C39.3215 59.9739 39.3041 59.9146 39.3217 59.8209C39.4448 59.7504 40.5704 59.8379 40.8539 59.8027C41.5526 59.7161 42.1949 59.537 42.842 59.2627Z" fill="#F2C94C"/>
<path d="M36.1453 58.2715L36.2191 58.3796C35.9185 58.9159 34.7971 59.407 34.7893 60.1217L34.8275 60.1857C35.1075 60.0756 35.9252 58.5056 36.5228 58.6489L36.601 58.7287C36.5481 58.9016 35.8807 59.4794 35.7067 59.6896C35.4128 60.0448 35.1823 60.4249 35.0366 60.8634C34.8692 60.5068 34.6976 60.1522 34.522 59.7995C34.7681 59.5441 36.0838 58.437 36.139 58.3202L36.1453 58.2715Z" fill="#FFF37A"/>
<path d="M42.2651 60.7676C42.5543 60.8156 42.8458 60.8791 43.1367 60.9122C43.9978 61.0103 44.2412 61.0096 44.9855 61.5056C45.1504 61.6155 45.333 61.7252 45.4489 61.8895C45.4973 61.9582 45.5242 62.0087 45.5167 62.0951C45.4329 62.132 45.4291 62.1277 45.3477 62.0908C45.2141 62.0302 45.0893 61.913 44.9678 61.8288C44.6047 61.5774 44.2148 61.3953 43.7787 61.3163C44.2234 61.6162 45.1501 61.9687 45.4212 62.4002L45.4278 62.4708L45.3615 62.5393C45.168 62.5276 44.8101 62.2302 44.6308 62.1185C43.8119 61.6542 43.0514 61.1934 42.0769 61.2144C42.052 61.0533 42.1777 60.9012 42.2651 60.7676Z" fill="#F2C94C"/>
<path d="M40.5761 61.5795C40.2918 61.5449 39.7818 61.5291 39.5489 61.3452C39.6573 61.2257 39.943 61.2308 40.1032 61.2227C40.4317 61.2059 40.8097 61.2487 41.128 61.1766C40.8276 60.9046 39.6423 61.3387 39.4384 60.9566L39.4778 60.9048C39.8 60.875 40.6109 60.9938 40.8442 60.7542C40.5465 60.5266 39.4113 61.021 39.3594 60.4602C39.3564 60.4276 39.3673 60.388 39.3745 60.3562C39.6813 60.2899 40.0376 60.3791 40.3537 60.38C41.0308 60.382 41.7214 60.2634 42.3731 60.0859C41.9564 60.7132 41.573 61.351 41.3766 62.0861C40.7185 62.0672 40.2387 61.9944 39.6718 61.6372C39.9674 61.6955 40.265 61.7656 40.5625 61.8109C40.6585 61.8247 40.7618 61.8441 40.859 61.8455C40.9546 61.8469 41.0068 61.8218 41.0751 61.7598L41.0423 61.6905C40.8914 61.5955 40.7489 61.5938 40.5761 61.5795Z" fill="#F2C94C"/>
<path d="M43.0599 57.3076C43.17 57.7044 43.3056 58.0895 43.4436 58.4772C43.0796 59.0399 42.2201 59.2936 41.6012 59.4253C41.4122 59.4657 41.2218 59.4979 41.03 59.522C40.8383 59.5461 40.6459 59.562 40.4527 59.5696C40.2596 59.5771 40.0665 59.5764 39.8734 59.5675C39.6804 59.5585 39.4881 59.5413 39.2965 59.5158C39.2886 59.3261 39.2449 59.1221 39.3594 58.9633C39.4531 58.9308 39.5345 58.9333 39.6318 58.9348C39.639 58.9357 39.6461 58.9371 39.6533 58.9376C40.2152 58.9744 42.6442 58.723 43.0397 58.3762C42.8097 58.2123 40.8502 58.6379 40.4388 58.6793C40.0602 58.7174 39.6781 58.7126 39.2978 58.712C39.3351 58.5482 39.3509 58.375 39.3753 58.2085C40.325 58.2424 41.1701 58.02 42.0754 57.7751C42.3363 57.7045 42.6281 57.6471 42.8734 57.5336C42.9754 57.4864 42.9777 57.4754 43.0164 57.3755L43.0599 57.3076Z" fill="#F2C94C"/>
<path d="M41.9244 61.3604C41.9497 61.3681 41.9749 61.3762 42.0002 61.3836C42.3524 61.4875 42.7407 61.4614 43.0977 61.562C43.6424 61.7154 44.093 62.0611 44.6027 62.2884C44.818 62.4334 45.1892 62.551 45.2545 62.8066C45.2219 62.8889 45.1895 62.9668 45.1481 63.0453C44.4266 62.3914 43.5461 62.0066 42.5964 61.8451C42.4313 61.8171 42.224 61.7626 42.0585 61.7721C41.9768 61.7768 41.9248 61.7949 41.8523 61.8296L41.8246 61.8864C42.0028 62.0884 42.7716 62.0632 43.0656 62.1225C43.6886 62.2483 44.4263 62.6839 44.9254 63.0798C44.9678 63.1135 45.0103 63.1464 45.0521 63.1809L44.809 63.4871C44.5425 63.3092 44.2392 63.1382 43.946 63.0073C43.8699 62.9733 43.8061 62.9402 43.7269 62.9739C43.8767 63.2349 44.4385 63.41 44.6999 63.5718L44.7368 63.595C44.6197 63.6402 44.4972 63.6861 44.3745 63.7131C43.6754 63.8671 42.7143 63.6307 42.1244 63.2406C41.922 63.1067 41.6613 62.895 41.6145 62.6439C41.6408 62.5889 41.6369 62.5649 41.6985 62.5405C42.0824 62.3884 42.9278 62.724 43.297 62.8727L43.3671 62.9014C43.0449 62.5679 42.0352 62.3625 41.5786 62.3304C41.6718 62.0011 41.8075 61.682 41.9244 61.3604Z" fill="#F2C94C"/>
<path d="M41.9883 62.8496C42.52 62.8684 43.6017 63.2975 44.0466 63.5895C44.002 63.5892 43.9975 63.5903 43.9461 63.5834C43.5284 63.5266 42.227 63.1537 41.9883 62.8496Z" fill="#2D2D2D"/>
<path d="M34.4786 56.1992C35.0121 56.9111 35.5938 57.5763 36.1455 58.2718L36.1393 58.3205C35.3779 58.5351 34.9301 58.9844 34.4129 59.5591C34.0587 58.7476 33.5267 57.9384 33.0054 57.2243C33.4921 56.8765 33.9764 56.5245 34.4786 56.1992Z" fill="#FFF37A"/>
<path d="M34.7604 57.7021C34.8277 57.7071 34.8604 57.7152 34.9217 57.7379L34.9183 57.7926C34.7284 57.9498 34.4162 58.0375 34.1909 58.1516L34.1107 58.1789L34.0796 58.1364C34.1021 58.0886 34.1033 58.0802 34.1416 58.0327C34.3029 57.8334 34.5174 57.7468 34.7604 57.7021Z" fill="#2D2D2D"/>
<path d="M45.7532 55.1726C45.8046 55.0994 45.8161 55.0471 45.9067 55.0264C46.3738 55.3414 46.8453 55.6499 47.321 55.9518C46.7666 56.8377 46.0406 58.1305 45.9608 59.173C45.8878 59.3689 45.8669 59.6273 45.8277 59.8345C44.8888 59.4982 44.4387 59.1433 43.3892 58.9987C43.857 58.2965 44.2739 57.5516 44.7229 56.8359C45.0631 56.2936 45.4796 55.7475 45.7532 55.1726Z" fill="#F2C94C"/>
<path d="M44.7539 57.8506C45.1408 57.9537 45.6334 58.1139 45.992 58.284L45.9963 58.3607C45.6825 58.4183 45.2937 58.2757 45.0179 58.123C44.8885 58.0514 44.7987 57.9982 44.7539 57.8506Z" fill="#2D2D2D"/>
<path d="M37.2048 59.3232C37.3688 59.3614 37.5002 59.5101 37.6218 59.6193C37.0955 60.1488 36.2643 61.0827 35.9809 61.758C35.9172 61.9097 35.892 62.0183 35.9574 62.1742C36.0781 62.071 36.243 61.5586 36.368 61.3806C36.7785 60.7957 37.3089 60.2901 37.7589 59.7325C37.9297 59.8735 38.0848 60.0137 38.2341 60.1775C37.6191 60.6685 36.9514 61.477 36.6148 62.1882C36.5255 62.377 36.526 62.596 36.4182 62.7766C36.3777 62.8445 36.3748 62.8326 36.3747 62.9189L36.3877 62.8704L36.4013 62.9082C36.6113 62.5944 36.7642 62.2325 36.9462 61.9002C37.3401 61.3093 37.85 60.7836 38.3352 60.2681C38.5204 60.4564 38.7101 60.6487 38.8571 60.8693C39.0553 61.1668 39.1488 61.5086 39.0752 61.8632C38.9674 62.3818 38.495 62.9159 38.0449 63.1846C37.6852 63.3993 37.281 63.4521 36.8783 63.3333C36.1019 63.1044 35.7371 62.2967 35.3906 61.6396C35.8634 60.7193 36.4525 60.025 37.2048 59.3232Z" fill="#F2C94C"/>
<path d="M33.4996 52.8289C34.0659 52.7957 34.658 52.9097 35.1782 53.1357C35.4699 53.2625 36.0371 53.5685 36.1542 53.8669C36.1243 53.982 36.0649 54.0081 35.9633 54.071C35.6508 54.2647 35.2902 54.3813 34.9731 54.5693C33.9844 55.1555 31.1722 56.9963 30.6091 57.947C30.5601 58.0298 30.5628 58.0438 30.584 58.1319L30.7214 58.1295C31.0248 58.0549 31.3345 57.9257 31.6201 57.7992C31.7889 57.7245 31.9979 57.5592 32.1752 57.536C32.0287 57.7477 31.0085 58.1648 30.7125 58.2358C30.5369 58.2779 30.299 58.3107 30.1455 58.1906C30.0229 58.0947 29.9889 57.9313 29.9761 57.7847C29.867 56.5399 29.8002 55.1484 30.6742 54.1447C31.3749 53.3401 32.4523 52.9045 33.4996 52.8289Z" fill="#F2C94C"/>
<path d="M33.2193 54.4115C33.5915 54.3718 33.8851 54.3951 34.2495 54.477C33.9086 54.5366 33.5637 54.5276 33.2243 54.5857C32.1 54.8326 31.038 55.9706 30.3145 56.8203C30.3536 56.7001 30.3917 56.5746 30.4559 56.465C30.9499 55.6219 32.2572 54.6499 33.2193 54.4115Z" fill="#2D2D2D"/>
<path d="M33.6827 53.1408L33.7256 53.1385C34.1624 53.1176 35.2608 53.2116 35.5608 53.5708C35.6269 53.6501 35.6234 53.6694 35.6095 53.7633C35.4232 53.7529 35.2606 53.5429 35.0925 53.4637C34.4255 53.149 33.234 53.3747 32.5683 53.6137C31.9658 53.8722 31.4733 54.2928 30.9585 54.69C31.0133 54.6152 31.0707 54.5425 31.1307 54.4719C31.8234 53.644 32.6144 53.2332 33.6827 53.1408Z" fill="#2D2D2D"/>
<path d="M33.5899 53.7234C34.1564 53.652 34.6311 53.7151 35.0946 54.0602C34.9187 54.0102 34.7387 53.9577 34.5575 53.9316C33.2964 53.7494 32.3693 54.3042 31.4007 55.0326C31.0757 55.2969 30.7943 55.607 30.46 55.8616C30.5252 55.7469 30.5935 55.6353 30.6707 55.5281C31.3207 54.6246 32.4983 53.9071 33.5899 53.7234Z" fill="#2D2D2D"/>
<path d="M39.2051 51.2807C39.9142 51.0853 40.6202 50.8791 41.323 50.6621C41.4536 51.4938 41.5912 52.3231 41.8087 53.1371C42.184 54.5411 42.6953 55.902 43.0601 57.3077L43.0166 57.3756C42.3265 57.351 41.6013 57.6621 40.9342 57.822C40.4167 57.9461 39.9335 57.984 39.4027 57.9684C39.4102 57.7871 39.4351 57.6107 39.4603 57.4312C40.4416 57.6016 41.6909 57.4702 42.5606 56.967C42.2291 56.9681 41.888 57.0592 41.5623 57.1177C40.867 57.2426 40.1845 57.3169 39.4795 57.2337C39.5127 56.8975 39.4908 56.3894 39.622 56.0831L39.735 56.0405C40.2757 55.9381 40.8722 55.8386 41.3771 55.6125C41.512 55.5521 41.7163 55.4622 41.7731 55.3149C41.628 55.2726 39.9323 55.7652 39.6924 55.8573L39.6184 55.7809C39.7009 54.2478 39.4849 52.784 39.2051 51.2807Z" fill="#FFF37A"/>
<path d="M40.3569 53.0186C40.5271 53.0056 40.7291 52.9887 40.8943 53.0378C40.9645 53.0588 40.9904 53.062 41.0284 53.1267L40.9722 53.2044C40.7998 53.2028 40.609 53.2152 40.4396 53.1848C40.3513 53.169 40.3408 53.1721 40.2905 53.0951L40.3569 53.0186Z" fill="#2D2D2D"/>
<path d="M40.9102 54.5482C41.0399 54.5373 41.168 54.5336 41.2981 54.5322L41.3616 54.6229L41.4332 54.5686L41.4143 54.5554L41.4302 54.5918C41.2234 54.7571 40.926 54.7597 40.6731 54.7854C40.6616 54.7874 40.6502 54.7897 40.6387 54.7915C40.4572 54.8206 40.3388 54.7797 40.1914 54.6754L40.215 54.6295C40.4367 54.5597 40.6793 54.5624 40.9102 54.5482Z" fill="#2D2D2D"/>
<path d="M41.4873 53.376C41.5603 53.3602 41.5713 53.3562 41.6452 53.3811C41.6353 53.3924 41.6263 53.4046 41.6154 53.4149C41.3004 53.7121 40.7271 53.6642 40.3218 53.6822C40.2555 53.6991 40.261 53.711 40.1963 53.6773C40.2116 53.6428 40.2098 53.6414 40.2387 53.6077C40.4204 53.3949 41.2122 53.4075 41.4873 53.376Z" fill="#2D2D2D"/>
<path d="M41.6294 56.2951C41.6785 56.2823 41.7152 56.2878 41.7653 56.2917C41.75 56.3458 41.7376 56.3921 41.6936 56.4313C41.3058 56.7753 40.4522 56.7608 39.9513 56.7928C39.8647 56.7545 39.8476 56.753 39.7983 56.674L39.8301 56.6172C40.2122 56.4738 41.1429 56.41 41.6294 56.2951Z" fill="#2D2D2D"/>
<path d="M50.2823 56.8889C49.8225 56.4353 49.236 56.0633 48.7163 55.6805C47.7156 54.9434 46.7254 54.2024 45.6809 53.5267C45.317 53.2913 43.7221 52.4171 43.5583 52.2109C43.5148 52.1563 43.5154 52.1005 43.5297 52.0313C43.5895 51.7443 44.0611 51.4989 44.3051 51.3746C45.2729 50.8817 46.4283 50.6844 47.4769 51.0212C48.3401 51.2257 49.1327 51.7699 49.6959 52.4463C50.0084 52.7559 50.2429 53.1974 50.4129 53.5994C50.7214 54.3293 51.0223 55.7875 50.6946 56.5352C50.6003 56.7506 50.4919 56.8038 50.2823 56.8889Z" fill="#F2C94C"/>
<path d="M46.6305 52.3893C47.1467 52.3813 47.6949 52.4496 48.1554 52.699C48.1975 52.7214 48.2384 52.7458 48.2781 52.7723C48.3178 52.7987 48.3561 52.827 48.393 52.8572C48.4299 52.8874 48.4653 52.9193 48.499 52.953C48.5328 52.9866 48.5648 53.0218 48.5951 53.0587C48.6254 53.0955 48.6538 53.1337 48.6803 53.1733C48.7068 53.2129 48.7314 53.2537 48.7539 53.2958C48.7764 53.3378 48.7968 53.3808 48.8151 53.4249C48.8334 53.4689 48.8494 53.5137 48.8633 53.5594L48.8267 53.5517C48.3334 52.6698 47.3716 52.7547 46.5592 52.5066L46.5337 52.4523L46.6305 52.3893Z" fill="#2D2D2D"/>
<path d="M46.3291 51.4211C46.3888 51.416 46.4486 51.4129 46.5084 51.4118C46.8368 51.4037 47.4499 51.4173 47.6958 51.6584C47.5015 51.7722 46.8315 51.6347 46.5762 51.6283C46.1058 51.6321 45.6479 51.7447 45.1783 51.7637L45.1538 51.7279C45.3124 51.5268 46.0737 51.4518 46.3291 51.4211Z" fill="#2D2D2D"/>
<path d="M45.7749 52.7008C46.3808 52.6547 47.2138 52.8599 47.7539 53.1441C48.1544 53.3549 48.4703 53.6411 48.606 54.0813C48.3001 53.8967 48.1126 53.5564 47.7743 53.3889C47.1729 53.0912 46.2979 53.0687 45.7749 52.7008Z" fill="#2D2D2D"/>
<path d="M46.6686 51.9292C46.934 51.8948 47.2259 51.9027 47.4922 51.9289C48.1568 51.9943 48.744 52.3 49.1621 52.8237C49.7717 53.5873 49.909 54.7117 49.8137 55.6523C49.6832 55.2186 49.6584 54.7523 49.5458 54.3106C49.3884 53.6921 49.1269 53.0691 48.632 52.6446C48.0606 52.1545 47.2061 52.0623 46.4825 52.172C46.2108 52.2131 45.9409 52.2981 45.6655 52.3122C45.5687 52.3172 45.5108 52.3195 45.439 52.2503C45.6291 52.0915 46.4036 51.9623 46.6686 51.9292Z" fill="#2D2D2D"/>
<path d="M45.7632 51.1321C46.2722 51.0093 46.6722 51.0289 47.1856 51.1049C48.1151 51.3738 48.9194 51.8481 49.5764 52.5642C49.7423 52.7838 49.8862 53.002 50.0061 53.25C50.4165 54.0985 50.5704 55.0802 50.2614 55.9813C50.1555 54.8156 50.1497 53.7767 49.4035 52.7995C49.1546 52.4735 48.8529 52.2003 48.5232 51.9581C47.5976 51.2777 46.8533 51.2768 45.7632 51.1321Z" fill="#2D2D2D"/>
<path d="M40.1377 45.4434C40.7077 45.3468 41.4194 45.4279 41.976 45.5726C43.1916 45.8888 44.5915 46.7699 45.2341 47.8711C44.4572 48.5535 42.0941 48.9059 41.049 49.1736C40.2526 49.3779 39.4655 49.6136 38.6879 49.8806C38.0926 50.1061 37.5005 50.3537 36.9359 50.6489C36.54 50.8558 36.1577 51.0977 35.7545 51.2892C35.6498 51.3389 35.4734 51.4455 35.3642 51.3868C35.2211 51.3099 35.163 51.0948 35.1401 50.947C34.9712 49.8618 35.4416 48.5861 36.0852 47.7293C37.1023 46.3754 38.4859 45.6807 40.1377 45.4434Z" fill="#F2C94C"/>
<path d="M42.9424 46.2832C43.0061 46.2864 43.0682 46.2901 43.1289 46.3113C43.7069 46.5134 44.331 47.2579 44.5819 47.7957C44.5026 47.7766 44.4654 47.7631 44.402 47.7084C44.1851 47.5219 44.0019 47.271 43.7945 47.0699C43.5318 46.8152 43.1421 46.5841 42.9424 46.2832Z" fill="#2D2D2D"/>
<path d="M40.458 47.2042C40.8945 47.1671 41.3165 47.2655 41.7303 47.3899C41.435 47.4331 41.1205 47.4078 40.8216 47.4191C39.9778 47.4512 39.274 47.7097 38.5474 48.1283C38.2615 48.312 37.9876 48.4919 37.6738 48.6255C38.3318 47.8366 39.4445 47.2965 40.458 47.2042Z" fill="#2D2D2D"/>
<path d="M40.1408 46.459C40.4115 46.4284 40.7003 46.4847 40.9683 46.5211C40.627 46.6177 40.266 46.6466 39.9195 46.729C38.8898 46.9738 38.1232 47.559 37.3755 48.2792L36.978 48.7283C37.0829 48.4674 37.2212 48.2374 37.3919 48.0147C38.0598 47.1439 39.0618 46.6074 40.1408 46.459Z" fill="#2D2D2D"/>
<path d="M40.374 45.719C40.4397 45.7129 40.5055 45.7091 40.5715 45.7077C40.6375 45.7063 40.7034 45.7071 40.7692 45.7104C40.8351 45.7136 40.9008 45.7191 40.9663 45.727C41.0318 45.7349 41.0969 45.745 41.1617 45.7575C41.2265 45.77 41.2907 45.7847 41.3544 45.8017C41.4182 45.8187 41.4813 45.838 41.5436 45.8594C41.606 45.8809 41.6675 45.9045 41.7283 45.9303C41.7889 45.9561 41.8486 45.984 41.9074 46.014C42.7039 46.4118 43.4708 47.1447 43.7587 47.9994C43.0933 47.4131 42.6528 46.7065 41.8531 46.2626C40.9892 45.7831 40.1739 45.9353 39.2693 46.1967C38.2959 46.5353 37.4997 46.9698 36.8549 47.7922C36.6389 48.0677 36.4529 48.365 36.2323 48.6372L36.2046 48.6709C36.4016 48.2112 36.6448 47.7932 36.9658 47.4081C37.8221 46.3808 39.0569 45.8433 40.374 45.719Z" fill="#2D2D2D"/>
</g>
<defs>
<linearGradient id="paint0_linear_1087_8893" x1="51.8557" y1="27.9028" x2="69.9223" y2="30.2032" gradientUnits="userSpaceOnUse">
<stop stop-color="#36D83F"/>
<stop offset="1" stop-color="#84FF8F"/>
</linearGradient>
<clipPath id="clip0_1087_8893">
<rect width="80" height="80" fill="white"/>
</clipPath>
</defs>
</svg>
