<svg width="80" height="80" viewBox="0 0 80 80" fill="none" xmlns="http://www.w3.org/2000/svg">
<g clip-path="url(#clip0_1096_35683)">
<path d="M48.041 10.3096C48.0646 10.3113 48.0881 10.3125 48.1116 10.3146C48.2548 10.327 48.3691 10.3607 48.4567 10.4858C48.5165 10.5711 48.5375 10.6686 48.5116 10.7701C48.4722 10.9252 48.3788 10.9911 48.2511 11.0686C48.1071 11.0557 47.991 11.0358 47.8849 10.9261C47.8128 10.8514 47.7805 10.7657 47.791 10.6608C47.808 10.4896 47.917 10.4082 48.041 10.3096Z" fill="white"/>
<path d="M44.4496 10.9746C44.597 10.9837 44.736 10.9958 44.8426 11.113C44.9155 11.1932 44.9329 11.2746 44.9227 11.3798C44.9061 11.5509 44.7791 11.6623 44.6518 11.7592C44.5048 11.7454 44.3767 11.7228 44.2723 11.6073C44.203 11.5303 44.1746 11.4314 44.1877 11.3292C44.2102 11.1525 44.3179 11.0751 44.4496 10.9746Z" fill="white"/>
<path d="M22.1931 40.3486C22.3592 40.3514 22.4943 40.3482 22.6169 40.4821C22.6834 40.5549 22.7198 40.646 22.7111 40.7454C22.6966 40.9089 22.601 41.0074 22.4795 41.1043C22.3248 41.1071 22.192 41.1153 22.0705 41C21.992 40.9255 21.9572 40.8354 21.9662 40.7286C21.9809 40.5556 22.0704 40.4614 22.1931 40.3486Z" fill="white"/>
<path d="M8.35116 37.4229C8.52358 37.4587 8.66991 37.4946 8.75975 37.6639C8.80999 37.7586 8.81249 37.8677 8.77764 37.9676C8.71967 38.1342 8.60608 38.199 8.45506 38.274C8.30303 38.2269 8.18632 38.1864 8.09647 38.0464C8.03108 37.9443 7.99999 37.823 8.03936 37.7041C8.09092 37.5486 8.20842 37.4807 8.35116 37.4229Z" fill="white"/>
<path d="M20.1343 54.7362C20.4104 54.5291 20.6779 54.3202 20.9369 54.0918C20.9183 54.3749 20.8889 54.6624 20.8947 54.946C20.8675 55.1549 20.8554 55.3573 20.8505 55.5676L20.5235 55.2008L20.1343 54.7362Z" fill="white"/>
<path d="M29.0649 29.4688L29.4004 29.714C29.0488 30.6502 29.089 31.6623 29.2169 32.6364L29.1413 32.6343C29.0702 32.5821 29.0113 32.538 28.9704 32.458C28.5941 31.7222 28.7944 30.2302 29.0649 29.4688Z" fill="white"/>
<path d="M61.2117 29.756C61.3962 29.6699 61.5673 29.5796 61.741 29.4727C60.9729 30.2809 60.7153 30.631 59.535 30.6612C58.4996 30.6878 57.446 30.4784 56.4365 30.2718C56.1579 30.2148 55.8703 30.1283 55.5908 30.0861C55.9958 30.0888 56.4084 30.1651 56.808 30.2295C58.0163 30.4243 58.8944 30.4913 60.0969 30.1534C60.4641 30.0502 60.8832 29.9492 61.2117 29.756Z" fill="white"/>
<path d="M46.5336 29.3281L46.5789 29.3449C46.8042 29.6974 46.6568 31.8473 46.6336 32.3563C46.4886 32.5393 46.333 32.6744 46.1529 32.8211C46.0527 32.7248 46.1255 32.3741 46.1348 32.232C46.1906 31.3798 46.2123 30.501 46.0537 29.6593L46.5336 29.3281Z" fill="white"/>
<path d="M48.6174 24.2695C48.8399 24.678 49.1042 25.0648 49.362 25.4516C49.726 25.9685 50.1169 26.4642 50.5348 26.9388C50.9526 27.4133 51.3948 27.8638 51.8615 28.2904C50.8175 27.7684 49.7065 26.5752 48.9389 25.6955C48.6423 25.3581 48.3867 25.0079 48.1567 24.622C48.2985 24.4873 48.4572 24.3805 48.6174 24.2695Z" fill="white"/>
<path d="M51.144 23.4891C51.3674 23.4761 51.5867 23.4691 51.8105 23.4745C52.1501 24.6368 52.482 25.8186 52.8897 26.9583C53.0712 27.4655 53.2927 27.9605 53.494 28.4603C52.6647 27.3504 52.2807 26.023 51.6735 24.8006C51.5108 24.3597 51.3203 23.925 51.144 23.4891Z" fill="white"/>
<path d="M48.7236 24.2067C48.8814 24.1151 49.1255 23.9303 49.3097 23.9474L49.377 24.059C49.7836 25.0172 50.5665 26.2162 51.2128 27.0402C51.3137 27.1688 51.7257 27.6169 51.7036 27.7507L51.5671 27.7047C50.7879 26.9929 50.1269 26.1968 49.4544 25.383C49.1879 25.0136 48.8768 24.6394 48.7236 24.2067Z" fill="white"/>
<path d="M70.6902 22.9336C70.8089 22.9377 70.942 22.9677 71.0503 23.0166C71.077 23.0286 71.1028 23.0421 71.128 23.0569C71.1532 23.0717 71.1775 23.0878 71.201 23.1052C71.2245 23.1226 71.2469 23.1412 71.2684 23.161C71.2899 23.1808 71.3103 23.2017 71.3295 23.2237C71.3488 23.2456 71.3668 23.2685 71.3836 23.2924C71.4004 23.3163 71.4159 23.341 71.4301 23.3666C71.4443 23.3921 71.4571 23.4183 71.4685 23.4452C71.4799 23.4721 71.4898 23.4995 71.4983 23.5275C71.5069 23.5555 71.514 23.5838 71.5196 23.6125C71.5253 23.6413 71.5294 23.6702 71.5319 23.6993C71.5345 23.7285 71.5355 23.7577 71.535 23.787C71.5344 23.8162 71.5323 23.8454 71.5287 23.8744C71.5251 23.9034 71.52 23.9322 71.5133 23.9607C71.5066 23.9892 71.4985 24.0172 71.4889 24.0448C71.4792 24.0725 71.4682 24.0996 71.4557 24.126C71.4432 24.1525 71.4293 24.1782 71.4141 24.2032C71.2751 24.428 71.0766 24.5237 70.8287 24.587C70.6696 24.5782 70.5236 24.5597 70.3797 24.4862C70.1727 24.3806 70.0127 24.1994 69.9527 23.9731C69.9461 23.9479 69.9408 23.9224 69.9368 23.8966C69.9327 23.8709 69.9299 23.8449 69.9285 23.8189C69.927 23.7929 69.9269 23.7669 69.928 23.7408C69.9291 23.7147 69.9316 23.6888 69.9353 23.663C69.939 23.6372 69.944 23.6116 69.9503 23.5863C69.9566 23.561 69.9641 23.5361 69.9728 23.5116C69.9816 23.487 69.9915 23.4629 70.0027 23.4393C70.0139 23.4158 70.0262 23.3928 70.0396 23.3705C70.1903 23.118 70.4168 23.0084 70.6902 22.9336Z" fill="white"/>
<path d="M70.5808 23.238C70.6676 23.2367 70.7569 23.2345 70.8409 23.2592C70.984 23.3013 71.1173 23.4096 71.1868 23.5417C71.2482 23.6585 71.2601 23.7904 71.219 23.9159C71.1582 24.1011 71.0333 24.1853 70.8676 24.2714C70.7903 24.2728 70.7144 24.273 70.638 24.2596C70.4887 24.2334 70.3568 24.1487 70.2752 24.0198C70.2051 23.9091 70.188 23.7764 70.2219 23.6505C70.2763 23.4474 70.4096 23.3442 70.5808 23.238Z" fill="#2D2D2D"/>
<path d="M58.3533 24.6709C58.6392 24.799 58.9102 24.9537 59.1835 25.1061C58.6185 26.3141 57.5627 27.4911 56.5876 28.3964C56.4196 28.5586 56.2283 28.7044 56.0483 28.8536C57.0831 27.568 57.7983 26.2215 58.3533 24.6709Z" fill="white"/>
<path d="M59.2858 25.1709C59.5703 25.2943 59.8518 25.5312 60.0955 25.7226C59.8459 26.0208 59.5849 26.3085 59.3123 26.5858C59.0397 26.8631 58.7565 27.129 58.4626 27.3836C58.1688 27.6383 57.8652 27.8807 57.5519 28.1111C57.2387 28.3414 56.9168 28.5588 56.5861 28.7634C56.4261 28.8589 56.2621 28.9695 56.0885 29.0376C56.0065 29.0698 56.0386 29.075 55.9839 29.0514C56.2552 28.8509 56.5538 28.6841 56.8126 28.4666C57.7693 27.663 58.7317 26.2665 59.2858 25.1709Z" fill="white"/>
<path d="M57.5338 24.3057C57.7757 24.3972 58.0096 24.5091 58.2448 24.6165C57.7224 26.1109 56.9191 27.3595 55.9695 28.6147C55.8282 28.813 55.6634 28.987 55.498 29.165C55.6865 28.7102 55.9628 28.2804 56.1805 27.8371C56.738 26.702 57.2243 25.5339 57.5338 24.3057Z" fill="white"/>
<path d="M47.6421 25.2973C47.7467 25.0438 47.8993 24.8938 48.0928 24.707C48.3222 25.0745 48.5707 25.42 48.8336 25.7637C49.8394 26.9834 51.3382 28.5024 52.8885 28.9719C52.9538 29.0201 53.0108 29.0631 53.0866 29.093C52.8099 29.0834 52.4958 28.9066 52.2376 28.8084C50.2208 28.0421 49.076 26.8316 47.6421 25.2973Z" fill="white"/>
<path d="M29.9031 29.8906L30.612 30.1085C30.5085 30.8273 30.432 31.5545 30.4625 32.2815C30.4728 32.5279 30.6067 33.0753 30.5109 33.2767C30.278 33.1836 30.0533 33.0787 29.8276 32.9695C29.5345 31.9797 29.629 30.8702 29.9031 29.8906Z" fill="white"/>
<path d="M49.4032 24.0165L49.3994 23.8961C49.5814 23.733 49.8854 23.6924 50.1186 23.6367C50.2627 24.0541 50.4254 24.4722 50.6325 24.863C51.065 25.7848 52.5094 28.5055 53.3588 28.9166L53.3564 28.9353C52.2257 28.6784 50.1629 25.0837 49.4227 24.0435L49.4032 24.0165Z" fill="white"/>
<path d="M51.9907 23.4482C52.2738 23.4547 52.5568 23.4634 52.8398 23.4744C52.8921 23.8552 52.9551 24.2342 53.0287 24.6114C53.1556 25.4432 53.3178 26.3008 53.5006 27.1218C53.6274 27.6911 53.7952 28.2443 53.8613 28.826C53.076 27.1093 52.4727 25.2738 51.9907 23.4482Z" fill="white"/>
<path d="M50.2378 23.6157L51.0169 23.499C51.1783 23.9308 51.3448 24.3606 51.5165 24.7884C51.8133 25.5674 52.0987 26.3568 52.4598 27.109C52.7121 27.6344 53.008 28.1273 53.2865 28.6383C52.2462 27.4754 51.4768 26.106 50.7203 24.7495C50.54 24.3764 50.3838 24.0033 50.2378 23.6157Z" fill="white"/>
<path d="M12.3117 43.3506C12.4713 43.5057 12.5995 43.7622 12.7227 43.9519C13.3351 44.8936 13.904 45.8608 14.4295 46.8537C13.7962 46.7092 12.7755 45.9357 12.3041 45.4858C12.2958 44.774 12.2983 44.0623 12.3117 43.3506Z" fill="#4FDB40"/>
<path d="M45.5758 29.8447L45.6128 29.8714C45.8115 30.3775 45.6636 32.4836 45.6192 33.0881C45.3667 33.1908 45.109 33.2798 44.8521 33.3709C44.7491 33.2643 44.8365 32.8801 44.8485 32.7293C44.9188 31.8514 44.8649 30.978 44.7935 30.1025C45.0594 30.0296 45.3165 29.9382 45.5758 29.8447Z" fill="white"/>
<path d="M60.1468 25.7676C60.4006 25.9605 60.6202 26.2102 60.8375 26.4418C59.5291 27.6233 58.3063 28.3924 56.6986 29.1043L55.9854 29.3556C57.3061 28.5651 59.4006 27.1356 60.1468 25.7676Z" fill="white"/>
<path d="M60.7928 41.9736C61.425 42.2993 62.1004 42.5094 62.7322 42.8216C62.1893 43.4578 61.6241 44.0875 61.0414 44.6873C60.7807 43.8379 60.7525 42.8548 60.7928 41.9736Z" fill="white"/>
<path d="M31.1073 30.2344L31.9682 30.4178C31.8983 31.0932 31.8224 31.7896 31.8361 32.4689C31.8438 32.8487 31.9285 33.2346 31.9028 33.6129C31.6375 33.5571 31.376 33.489 31.1137 33.4205C30.8551 32.4168 30.8747 31.2409 31.1073 30.2344Z" fill="white"/>
<path d="M32.4732 30.5371C32.771 30.5983 33.0706 30.6414 33.3714 30.6845C33.2373 31.7397 33.2387 32.7421 33.3304 33.8009C33.0231 33.7703 32.7152 33.7165 32.4094 33.6731C32.3797 33.4126 32.3588 33.1513 32.3466 32.8893C32.3345 32.6273 32.3311 32.3652 32.3364 32.103C32.3417 31.8408 32.3558 31.579 32.3787 31.3177C32.4015 31.0565 32.433 30.7963 32.4732 30.5371Z" fill="white"/>
<path d="M61.545 27.3564L61.8432 27.9287L61.5761 28.2418C60.8952 28.8633 59.3955 29.428 58.5084 29.6306C57.789 29.7223 56.9776 29.6855 56.2813 29.8692L56.0386 29.804C56.9456 29.7079 57.8116 29.4142 58.6264 29.0132C59.7594 28.5475 60.594 28.1686 61.545 27.3564Z" fill="white"/>
<path d="M61.5724 28.4005C61.6775 28.2891 61.7818 28.1785 61.8795 28.0605C61.9706 28.3509 62.142 28.7288 61.9871 29.0257C61.8499 29.2888 61.4869 29.4379 61.2316 29.5692C60.1892 30.0033 59.0793 30.2948 57.9423 30.1936C57.5204 30.1561 57.1 30.0707 56.6787 30.0395L56.7025 29.9978C57.2918 30.0054 58.0882 29.8511 58.666 29.7198C59.6383 29.4451 60.8528 29.1537 61.5724 28.4005Z" fill="white"/>
<path d="M49.8144 28.2687C49.1098 27.8191 47.7182 26.8516 47.5084 26.011C47.4677 25.848 47.4707 25.6564 47.5712 25.5133C47.6061 25.4637 47.6155 25.457 47.6544 25.418C47.8292 25.5466 48.4621 26.3274 48.6825 26.5564C48.8308 26.7106 48.9836 26.8603 49.1409 27.0053C49.2983 27.1504 49.4598 27.2905 49.6255 27.4259C49.7913 27.5612 49.961 27.6914 50.1346 27.8165C50.3081 27.9416 50.4853 28.0614 50.6661 28.1759C50.8469 28.2903 51.0309 28.3993 51.2183 28.5027C51.4056 28.6061 51.5959 28.7038 51.789 28.7958C51.9823 28.8877 52.1781 28.9738 52.3765 29.054C52.5748 29.1342 52.7754 29.2084 52.9783 29.2765C52.2236 29.3436 50.4972 28.608 49.8144 28.2687Z" fill="white"/>
<path d="M55.9673 29.5844C57.7353 29.0654 59.6301 27.8007 60.903 26.5029C61.1025 26.7474 61.2882 26.9946 61.4649 27.2561C60.6331 27.9939 59.6008 28.4673 58.591 28.9087C58.076 29.1295 56.4894 29.7074 55.9673 29.5844Z" fill="white"/>
<path d="M33.8599 30.7393C34.1876 30.7817 34.5164 30.8112 34.8464 30.8278C34.7052 31.8766 34.7315 32.8931 34.816 33.9447C34.4808 33.9081 34.145 33.8789 33.8085 33.8574C33.7185 32.8127 33.6949 31.7786 33.8599 30.7393Z" fill="white"/>
<path d="M42.781 30.5625L42.8062 30.5777C43.0025 30.9257 42.8808 33.2908 42.8473 33.7776L41.9141 33.8807L41.8567 33.8334C41.8858 32.772 41.9144 31.7778 41.8257 30.7149C42.1399 30.6472 42.463 30.6095 42.781 30.5625Z" fill="white"/>
<path d="M35.2727 30.8555C35.6235 30.8729 35.9742 30.8925 36.3248 30.9141C36.2569 31.9422 36.2777 32.9833 36.27 34.0137C35.9566 34.0495 35.5951 33.993 35.2784 33.9748C35.2018 32.9273 35.2162 31.9038 35.2727 30.8555Z" fill="white"/>
<path d="M56.1285 56.293L56.148 56.3163C56.0476 56.5917 55.9069 56.8496 55.8105 57.1278C55.4922 58.0455 55.2554 58.9967 54.973 59.9263C54.5324 60.128 54.1124 60.3702 53.6684 60.5669L53.6538 60.5551C53.7158 60.3009 53.9439 60.0313 54.0559 59.7877C54.442 58.9486 54.7202 58.0041 54.7768 57.0812C55.297 56.8913 55.7032 56.6464 56.1285 56.293Z" fill="white"/>
<path d="M22.1402 49.3125C22.5338 49.6828 22.9671 50.0409 23.3204 50.4495C22.6969 51.6129 22.1215 52.813 21.2271 53.8008C21.2092 53.3896 21.6247 52.1164 21.7406 51.612C21.9184 50.8532 22.0515 50.0867 22.1402 49.3125Z" fill="#4FDB40"/>
<path d="M12.6133 43.2705C13.1622 43.4461 14.3552 44.1849 14.9275 44.5025C14.9231 45.4721 14.9866 46.4422 15.0602 47.4085C14.9941 47.3646 14.9562 47.3061 14.9144 47.24C14.4921 46.5729 14.1358 45.8519 13.733 45.1712C13.3638 44.5472 12.9158 43.9279 12.6133 43.2705Z" fill="#4FDB40"/>
<path d="M44.1672 30.2779C44.2299 30.2685 44.2415 30.2738 44.2987 30.2951C44.545 30.8738 44.3927 32.8329 44.3289 33.5098C44.0352 33.5767 43.7359 33.6273 43.4402 33.6848C43.3593 33.6928 43.3692 33.7078 43.3002 33.6534C43.3694 32.5815 43.4001 31.5493 43.2886 30.4785C43.5854 30.4216 43.8762 30.3598 44.1672 30.2779Z" fill="white"/>
<path d="M54.0867 60.7812C55.0786 60.9752 55.9548 61.6491 56.8023 62.1663C55.6822 61.9998 54.3978 61.7945 53.2716 61.8937C52.4318 61.9364 51.6617 62.2302 50.9482 62.66C50.9983 62.523 51.0493 62.3863 51.101 62.2498C52.087 61.7383 53.0904 61.2713 54.0867 60.7812Z" fill="white"/>
<path d="M41.1047 30.7979C41.1933 30.7819 41.254 30.7788 41.3428 30.7946C41.5539 31.2339 41.4045 33.3224 41.3661 33.9288C41.1061 33.9422 40.8476 33.965 40.5884 33.9889C40.4818 33.9939 40.3762 33.9945 40.2697 33.9935C40.2436 33.9449 40.2081 31.2495 40.1904 30.8648C40.4948 30.8555 40.8011 30.8219 41.1047 30.7979Z" fill="white"/>
<path d="M39.2182 30.9203C39.3959 30.907 39.5756 30.9041 39.7537 30.8965C39.7927 31.94 39.805 32.9838 39.7907 34.0279L39.0332 34.0476L38.5408 34.0592C38.5191 33.0236 38.5245 31.9858 38.5166 30.9498C38.7506 30.9422 38.9844 30.9323 39.2182 30.9203Z" fill="white"/>
<path d="M52.9517 23.4727C53.2035 23.4852 53.4557 23.4945 53.7067 23.52C53.7208 24.0575 53.7531 26.8954 53.8803 27.18C54.0326 26.3869 53.824 24.4283 53.7906 23.5223L54.4396 23.5845C54.409 24.3717 54.391 25.1634 54.3267 25.9485C54.2801 26.5172 54.1856 27.0837 54.15 27.6525C54.131 27.957 54.2112 28.769 54.0786 28.9975C54.0153 28.7112 53.9906 28.4189 53.9173 28.133C53.8217 27.7598 53.6849 27.3977 53.6042 27.0204C53.4279 26.1971 53.3012 25.3555 53.1487 24.5268L52.9517 23.4727Z" fill="white"/>
<path d="M36.7639 30.9326C37.1957 30.9396 37.6278 30.9558 38.0595 30.9675L38.0495 34.0708C37.617 34.0673 37.1852 34.0666 36.7534 34.0372C36.7368 33.0032 36.7546 31.9667 36.7639 30.9326Z" fill="white"/>
<path d="M68.5647 51.0078C68.5976 51.0143 68.5764 51.0074 68.6197 51.0454C68.0877 51.9931 67.5702 52.9443 67.0595 53.9037C66.1331 54.205 65.1469 54.3474 64.1783 54.4142L64.1284 54.3835C64.2722 54.1534 68.0302 51.377 68.5647 51.0078Z" fill="white"/>
<path d="M18.6091 35.0879C18.7277 35.743 18.8655 36.1984 19.2542 36.752C19.4587 36.9225 19.6518 37.0663 19.8971 37.1764C20.0712 37.2546 20.4698 37.2993 20.5832 37.4039C20.39 37.6199 19.693 37.4359 18.9998 38.3941C18.8013 38.8441 18.7245 39.2613 18.6751 39.7489C18.5509 39.2936 18.4495 38.787 18.2045 38.3782C17.8287 37.7507 17.2391 37.5833 16.5801 37.4205C16.9834 37.2995 17.3646 37.212 17.7152 36.9649C18.3586 36.5115 18.4941 35.8091 18.6091 35.0879Z" fill="white"/>
<path d="M17.415 37.4108C17.9803 37.1062 18.3711 36.6918 18.6089 36.0928C18.7242 36.3364 18.8351 36.5803 19.0326 36.7697C19.275 37.0478 19.5747 37.2478 19.907 37.4051C19.5514 37.5846 19.1854 37.779 18.9701 38.1296C18.816 38.3183 18.724 38.5295 18.6215 38.7487C18.3555 38.1287 18.0139 37.7356 17.415 37.4108Z" fill="#2D2D2D"/>
<path d="M68.5184 50.6404L68.5979 50.6318L68.6065 50.6689C68.1315 51.0646 67.6096 51.4133 67.1181 51.79C66.116 52.5671 65.1097 53.3387 64.0994 54.105C64.0583 54.1343 64.0837 54.125 64.019 54.1178C64.0183 53.9631 64.13 53.761 64.1895 53.6166C64.5585 52.7218 65.0216 51.8553 65.6695 51.1284C66.6157 50.9454 67.5653 50.7827 68.5184 50.6404Z" fill="white"/>
<path d="M68.3659 17.1768C68.5412 17.351 68.5848 18.2726 68.8321 18.6409C69.247 19.2589 69.8929 19.3946 70.5685 19.5254C70.1182 19.6127 69.7021 19.7007 69.3282 19.9861C68.6172 20.5287 68.5227 21.3154 68.4174 22.1335C68.3906 22.122 68.3553 22.1218 68.337 22.0992C68.2582 22.0014 68.347 20.9791 67.8536 20.349C67.4208 19.7965 66.8573 19.6894 66.2061 19.6026C66.5882 19.4825 66.9829 19.4412 67.345 19.2564C68.35 18.7434 68.1003 18.0114 68.3557 17.2069C68.3589 17.1968 68.3625 17.1868 68.3659 17.1768Z" fill="white"/>
<path d="M68.4039 18.2773C68.7759 18.9413 68.9843 19.2184 69.6841 19.548C69.0525 19.8682 68.7606 20.2331 68.4348 20.8494C68.341 20.8352 68.2427 20.5959 68.1878 20.5062C67.9317 20.0889 67.6241 19.8281 67.2051 19.5793C67.7779 19.2512 68.1443 18.8933 68.4039 18.2773Z" fill="#2D2D2D"/>
<path d="M14.7676 55.8294C16.492 55.8066 18.3292 55.4684 19.928 54.8145C20.0694 54.9712 20.2117 55.1271 20.355 55.2821L20.6598 55.6541C20.8572 55.8797 21.0528 56.107 21.2527 56.3305C20.2438 56.2419 15.3059 56.4993 14.813 55.8888C14.7973 55.8694 14.7827 55.8491 14.7676 55.8294Z" fill="white"/>
<path d="M21.8155 48.4141C22.2079 48.4777 22.6267 48.6761 23.01 48.797C23.7316 49.0245 24.4489 49.1759 25.2004 49.2648C25.1981 49.907 25.3261 51.7277 25.2063 52.2129C24.4739 51.3088 23.659 50.4815 22.8373 49.6587C22.5099 49.3308 21.9956 48.9843 21.7578 48.5947L21.8155 48.4141Z" fill="white"/>
<path d="M11.0688 28.1123C11.1241 28.1446 11.1453 28.1586 11.1643 28.2236C11.2721 28.5911 11.2241 29.0384 11.3255 29.4241C11.3838 29.6461 11.4992 29.8675 11.621 30.0611C11.9721 30.6193 12.403 30.825 13.0231 30.962L13.0198 31.0199L13.1097 30.9871C13.0446 31.1149 12.4729 31.2265 12.3197 31.3083C11.3835 31.8082 11.4232 32.5121 11.1676 33.3822L11.1112 33.3821C10.9781 32.8289 10.8764 32.2635 10.5346 31.7922C10.0746 31.1579 9.45502 31.0577 8.73486 30.9547C9.13541 30.889 9.53158 30.8467 9.89408 30.648C10.4814 30.3261 10.8504 29.6513 10.9446 29.0007C10.9825 28.739 10.9667 28.4241 11.0473 28.1753C11.0542 28.1542 11.0617 28.1333 11.0688 28.1123Z" fill="white"/>
<path d="M11.0702 29.3652C11.1106 29.413 11.1256 29.4646 11.1505 29.5209C11.4701 30.2439 11.7357 30.7037 12.5063 30.9989C11.8303 31.3205 11.4571 31.7104 11.1683 32.409L11.1346 32.4705C11.0255 32.393 10.9564 32.1255 10.8894 31.998C10.6374 31.5181 10.276 31.2074 9.81104 30.9458C10.4914 30.5287 10.7813 30.1119 11.0702 29.3652Z" fill="#2D2D2D"/>
<path d="M66.1596 39.3403L66.2608 39.3379C66.3781 39.585 65.8427 42.5813 65.762 43.0429C64.7606 43.0619 63.9865 43.0673 62.9888 42.8568C63.4074 42.4137 63.8238 41.9609 64.2101 41.4893C64.4438 41.3484 65.9449 39.6471 66.1596 39.3403Z" fill="#F2C94C"/>
<path d="M15.1295 44.5996C15.8109 44.9984 16.5162 45.3587 17.2 45.7551C17.041 47.2787 17.0282 48.8214 17.0203 50.3517L17.0033 50.411L16.9511 50.3919C16.525 49.7114 15.549 48.3473 15.3178 47.6618C15.179 47.2503 15.1196 45.1153 15.1295 44.5996Z" fill="#4FDB40"/>
<path d="M12.3086 45.8223C13.0164 46.3453 13.7369 46.8664 14.5831 47.1421C15.3669 48.185 16.0855 49.353 16.7433 50.4798C15.2304 49.9372 13.7605 49.141 12.4276 48.2485C12.3635 47.441 12.3239 46.6322 12.3086 45.8223Z" fill="#4FDB40"/>
<path d="M65.3833 51.1855L65.3996 51.1965C65.4004 51.3191 64.9455 51.8184 64.8489 51.9562C64.3282 52.6997 64.0173 53.5405 63.7032 54.3847C62.9335 55.0291 62.061 55.5977 61.2484 56.1888L61.2258 56.1763C61.214 56.1465 61.2061 56.1324 61.2061 56.0966C61.2061 55.8398 61.3265 55.4985 61.394 55.2513C61.7348 54.0031 62.1908 52.7341 63.0515 51.7458C63.8221 51.5313 64.5994 51.3445 65.3833 51.1855Z" fill="white"/>
<path d="M66.8726 54.1494L66.8805 54.1584C66.8994 54.2716 65.9204 56.3456 65.8135 56.5865C64.4343 56.8325 63.0224 56.8843 61.6496 56.5706L61.2476 56.4436C62.0885 55.8336 62.9219 55.205 63.7814 54.6219C64.8395 54.6203 65.8604 54.4579 66.8726 54.1494Z" fill="white"/>
<path d="M54.606 57.124L54.6434 57.1839C54.6554 57.9641 54.2093 59.0925 53.8615 59.7786C53.7112 60.075 53.5184 60.355 53.3886 60.6604C53.3842 60.6709 53.38 60.6814 53.3757 60.6919C52.6523 61.0254 51.9499 61.4122 51.2506 61.7929C51.1871 61.6214 51.3347 61.1253 51.3583 60.904C51.4382 60.1549 51.4498 59.4095 51.4577 58.6567C52.289 57.5612 53.3319 57.3946 54.606 57.124Z" fill="white"/>
<path d="M54.5285 23.5879C54.8128 23.6273 55.0935 23.6759 55.3752 23.7303C55.2969 25.0568 54.9428 26.3322 54.7486 27.6407C54.697 27.9893 54.6094 28.3734 54.631 28.7239C54.6413 28.7093 55.2883 25.3488 55.3409 25.011C55.4066 24.5887 55.4459 24.1656 55.4794 23.7398L56.3642 23.9252C56.1876 24.7844 56.0189 25.6446 55.7821 26.4898C55.6947 26.8016 55.6073 27.1182 55.4975 27.4229C55.3877 27.7278 55.2306 28.0121 55.2057 28.3423L55.2477 28.3602C55.3686 28.2303 55.4148 28.0146 55.4717 27.848C55.9327 26.5568 56.2035 25.2904 56.4693 23.9499C56.7815 24.0484 57.0931 24.1488 57.404 24.2511C57.3149 24.5643 57.2174 24.8749 57.1114 25.1828C57.0055 25.4908 56.8912 25.7956 56.7687 26.0973C56.6461 26.399 56.5155 26.6972 56.3768 26.9918C56.238 27.2864 56.0914 27.5771 55.9368 27.8637C55.6833 28.3287 55.3754 28.7619 55.1277 29.2287L55.1046 29.2727C54.8074 29.1123 54.5507 29.0178 54.2153 28.9687C54.2193 28.5322 54.2092 28.0934 54.2364 27.6576C54.2736 27.0619 54.3628 26.4689 54.4085 25.8735C54.4669 25.1134 54.4941 24.3495 54.5285 23.5879Z" fill="white"/>
<path d="M66.0071 39.2031C65.8343 39.6595 64.4187 40.8812 64.0414 41.4007C63.5889 41.858 63.1684 42.3485 62.7325 42.8218C62.1008 42.5096 61.4254 42.2995 60.7932 41.9738C60.7993 41.9453 60.8098 41.9017 60.81 41.8734C60.8104 41.7841 60.7904 41.7691 60.7289 41.7148C60.639 41.7574 60.6465 41.772 60.6078 41.8655C60.2837 41.5281 59.8804 41.2919 59.5635 40.9309C59.8688 40.7605 60.2233 40.6405 60.5504 40.5154C62.275 39.8559 64.1661 39.3707 66.0071 39.2031Z" fill="#F2C94C"/>
<path d="M61.1898 52.2988L61.2659 52.3099C61.0962 52.5595 60.6598 52.7738 60.4123 52.9704C59.8501 53.4173 59.3398 53.9327 58.9468 54.5362C58.3378 55.4713 57.8632 57.1623 58.0984 58.2678C57.2096 58.8225 56.299 59.3385 55.3664 59.8159L55.2905 59.8409L55.2451 59.8165C55.2397 59.3292 55.9286 57.285 56.1589 56.7143C57.0074 54.612 59.1717 53.1516 61.1898 52.2988Z" fill="white"/>
<path d="M62.7171 51.7949L62.7685 51.8057C62.7787 51.8643 62.1807 52.7208 62.1119 52.8467C61.5036 53.9598 61.205 55.168 60.966 56.4027C60.1697 57.0445 59.2439 57.5669 58.3765 58.106L58.31 58.1094C58.3038 58.0973 58.296 58.0859 58.2913 58.0733C58.2379 57.9313 58.2715 57.6927 58.2794 57.542C58.3253 56.6615 58.486 55.7931 58.889 55.0024C59.4345 53.9325 60.7826 52.6602 61.8564 52.1115C62.1261 51.9737 62.4294 51.888 62.7171 51.7949Z" fill="white"/>
<path d="M19.9848 47.5625C20.6586 48.0601 21.3749 48.5544 21.9572 49.1609C21.8492 49.962 21.732 50.7652 21.5402 51.5514C21.3359 52.3887 21.0431 53.2369 20.9368 54.0926C20.6779 54.3209 20.4104 54.5299 20.1342 54.737C19.8817 54.4138 19.6399 54.0227 19.3385 53.7478C19.3235 52.9216 19.5753 51.6886 19.6766 50.8311C19.805 49.744 19.8497 48.6482 19.9848 47.5625Z" fill="#4FDB40"/>
<path d="M23.3204 50.4502L23.6296 50.7943C23.4786 53.2773 23.3805 55.7314 23.5279 58.2179C22.6432 57.4519 21.8096 56.6339 21.0269 55.7639C21.1016 55.2164 20.9825 54.2695 21.2272 53.8014C22.1215 52.8137 22.6969 51.6136 23.3204 50.4502Z" fill="white"/>
<path d="M23.7949 50.9561C24.2782 51.2564 24.8304 52.0978 25.2417 52.5415C25.3037 54.473 25.3208 56.4048 25.2929 58.3371C25.2891 58.6215 25.332 59.2722 25.267 59.5079C25.2587 59.5382 25.2296 59.5585 25.2109 59.5838C24.6946 59.2114 24.2095 58.7853 23.7172 58.3814C23.5909 55.9007 23.6608 53.4341 23.7949 50.9561Z" fill="white"/>
<path d="M54.0896 29.209C54.472 29.2141 54.7243 29.3038 55.0386 29.5112C54.9746 29.8517 54.8332 30.1997 54.7247 30.5298C54.5442 31.0635 54.3818 31.6027 54.2376 32.1474C54.16 32.4516 54.0886 32.7573 54.0235 33.0645C53.9583 33.3716 53.8995 33.6799 53.8469 33.9895C53.7944 34.2991 53.7481 34.6095 53.7082 34.9209C53.6683 35.2324 53.6348 35.5445 53.6077 35.8573C53.5805 36.1701 53.5597 36.4833 53.5453 36.797C53.531 37.1106 53.5231 37.4244 53.5215 37.7384C53.52 38.0524 53.5248 38.3663 53.5361 38.68C53.5473 38.9938 53.565 39.3072 53.589 39.6202C53.6739 40.6437 53.8318 41.6863 54.0184 42.6956C54.1092 43.1871 54.2642 43.7034 54.2932 44.2022C54.3 44.3188 54.2701 44.3452 54.1923 44.4284C54.03 44.5798 53.8834 44.7518 53.7329 44.9149C53.6702 44.6602 53.6109 44.4048 53.5549 44.1486C53.4988 43.8924 53.4462 43.6355 53.3968 43.378C53.3475 43.1204 53.3014 42.8622 53.2588 42.6034C53.2161 42.3447 53.1768 42.0854 53.1409 41.8256C53.105 41.5659 53.0724 41.3057 53.0432 41.0451C53.0141 40.7845 52.9883 40.5235 52.9659 40.2622C52.9434 40.0009 52.9244 39.7394 52.9088 39.4776C52.8932 39.2158 52.881 38.9538 52.8721 38.6917C52.8633 38.4296 52.8579 38.1674 52.8559 37.9052C52.8539 37.6429 52.8552 37.3807 52.86 37.1185C52.8647 36.8563 52.8729 36.5942 52.8845 36.3322C52.8961 36.0702 52.9111 35.8084 52.9294 35.5468C52.9478 35.2852 52.9696 35.0239 52.9947 34.7628C53.0198 34.5018 53.0483 34.2411 53.0803 33.9808C53.1122 33.7205 53.1475 33.4606 53.1861 33.2013C53.2248 32.9418 53.2668 32.683 53.3121 32.4247C53.4964 31.343 53.7077 30.2406 54.0896 29.209Z" fill="white"/>
<path d="M12.4497 48.5693C12.7899 48.6896 13.7572 49.3218 14.1682 49.5442C15.0731 50.0338 16.0238 50.435 16.9826 50.8057C17.565 51.7707 18.2855 52.6643 18.9581 53.5673C18.5404 53.5197 18.0825 53.3611 17.6754 53.2507C16.6774 52.9801 15.6725 52.6867 14.7082 52.3114C14.1511 52.0946 13.6156 51.8304 13.0621 51.6059C12.7241 50.6593 12.5832 49.5622 12.4497 48.5693Z" fill="#4FDB40"/>
<path d="M17.3884 45.8789C18.2187 46.3653 19.0237 46.8906 19.8032 47.4548C19.6863 48.2187 19.6325 48.998 19.5579 49.7673C19.4577 50.8343 19.3335 51.8985 19.1854 52.9598L19.1273 53.4601C18.4819 52.5436 17.78 51.6844 17.2104 50.7152C17.2505 49.0999 17.3186 47.4927 17.3884 45.8789Z" fill="#4FDB40"/>
<path d="M13.1201 51.8574C14.9882 52.7688 17.0848 53.4184 19.1196 53.8261C19.3412 54.072 19.539 54.3418 19.757 54.5922C19.809 54.6647 19.8607 54.7572 19.9279 54.8152C18.3291 55.4691 16.4919 55.8073 14.7675 55.8301C14.5899 55.5176 14.4222 55.1999 14.2643 54.877C14.1064 54.5541 13.9586 54.2267 13.821 53.8947C13.6833 53.5627 13.556 53.2268 13.4391 52.8869C13.3222 52.547 13.2158 52.2039 13.1201 51.8574Z" fill="#4FDB40"/>
<path d="M61.0752 56.5928C61.3677 56.6216 61.6837 56.8201 61.9871 56.8726C63.2154 57.0849 64.4919 57.0276 65.7111 56.7927C65.2399 57.752 64.7946 58.6268 64.0405 59.4024C63.5505 59.4688 63.0678 59.5264 62.5743 59.5597C61.8998 59.545 61.23 59.5071 60.5636 59.3932C59.5771 59.2246 58.6231 58.953 57.6279 58.81C58.7962 58.0936 59.9464 57.3704 61.0752 56.5928Z" fill="white"/>
<path d="M24.2556 59.1611C24.39 59.1754 25.1107 59.7837 25.2675 59.8954C25.2685 60.695 25.3084 61.4587 25.4958 62.2404C23.5544 62.0568 21.6824 61.9409 19.9058 61.0537C19.0386 60.5847 18.2471 60.0345 17.5259 59.3598C18.7796 59.494 20.046 59.3959 21.3 59.3147C22.2843 59.2454 23.2695 59.1943 24.2556 59.1611Z" fill="white"/>
<path d="M15.0195 56.2246C15.8555 56.3617 16.6822 56.4805 17.5299 56.5119C18.8219 56.5598 20.1098 56.4661 21.4064 56.5284C22.0065 57.1161 22.6018 57.7003 23.2435 58.2433C23.4293 58.4005 23.9207 58.7313 24.0017 58.9437L23.9082 58.9763C21.9208 59.0084 19.2003 59.4281 17.3207 59.1318C16.6385 58.481 15.4359 57.0401 15.0195 56.2246Z" fill="white"/>
<path d="M57.2906 59.0176C58.478 59.1103 59.4256 59.4101 60.5622 59.612C61.6693 59.8087 62.7288 59.7777 63.8359 59.6273C62.8634 60.555 61.7629 61.3399 60.5178 61.8576C59.9761 62.083 59.368 62.223 58.7852 62.283C58.3899 62.3236 57.9659 62.3383 57.5773 62.2419C56.7963 62.048 56.1209 61.4128 55.4174 61.0366C55.0709 60.8513 54.7281 60.7422 54.3477 60.6469C55.3022 60.063 56.3112 59.5598 57.2906 59.0176Z" fill="white"/>
<path d="M62.9889 42.8564C63.9867 43.067 64.7608 43.0615 65.7622 43.0425C65.5017 44.3364 65.2431 45.6179 64.8369 46.876C62.4685 48.0917 61.0828 48.0968 58.5415 48.0129C59.3643 46.9272 60.2838 45.8782 61.201 44.8712C62.5985 45.005 64.2406 44.7992 65.4479 44.0294L65.4457 43.9918C65.397 43.9882 65.3482 43.9879 65.2994 43.9911C65.2506 43.9942 65.2023 44.0008 65.1544 44.0107C65.1065 44.0206 65.0596 44.0337 65.0135 44.0501C64.9674 44.0665 64.9227 44.0861 64.8794 44.1087C63.8846 44.6379 62.4612 44.739 61.3554 44.6875C61.8648 44.0571 62.4337 43.4475 62.9889 42.8564Z" fill="white"/>
<path d="M63.2041 50.668C63.1816 50.9549 62.7639 51.3592 62.6084 51.6207C60.4842 52.2409 58.5013 53.2233 56.996 54.8916C56.501 55.4402 56.163 56.0941 55.5123 56.491C54.4687 57.1275 53.2837 56.9641 52.1699 57.6734C52.168 57.662 52.1644 57.6509 52.1641 57.6393C52.1595 57.4625 52.3934 57.0974 52.4782 56.9227C53.2883 55.2524 54.1588 53.6114 55.2528 52.1067C58.431 52.1446 60.2469 51.7652 63.2041 50.668Z" fill="white"/>
<path d="M64.7219 47.1494C64.7256 47.1609 64.7309 47.1719 64.7329 47.1838C64.7983 47.5793 63.6944 49.8628 63.44 50.3449C62.7668 50.5924 62.1058 50.874 61.4243 51.0984C59.4708 51.7415 57.5189 51.9321 55.4714 51.8917L55.458 51.8356C56.4003 50.5977 57.4043 49.4093 58.3815 48.1993C60.8515 48.3052 62.4383 48.3387 64.7219 47.1494Z" fill="white"/>
<path d="M48.1816 24.2393C49.1855 22.9067 50.4697 21.7509 51.9913 21.0437C53.5287 20.3293 55.1016 20.1044 56.7171 20.698C58.7018 21.4274 60.4486 23.3507 61.3162 25.2421C61.7584 26.1355 62.0526 27.0373 62.2186 28.0202C62.0243 27.6061 61.8141 27.2059 61.6052 26.7993C61.446 26.6036 61.2973 26.3999 61.1377 26.2047C59.4536 24.1441 56.4427 23.3904 53.9059 23.1344C51.9004 22.9321 49.8224 22.8966 48.1816 24.2393Z" fill="white"/>
<path d="M58.7632 22.8096C58.9397 22.8418 59.0484 22.9361 59.1714 23.0629C59.3212 23.2172 59.4281 23.3523 59.4213 23.5707C59.3965 23.5621 59.3702 23.5571 59.3469 23.5448C59.1364 23.4336 58.8235 23.0443 58.7632 22.8096Z" fill="#2D2D2D"/>
<path d="M53.3832 21.2661C53.4829 21.2554 53.5549 21.2506 53.6547 21.2706C53.7348 21.3339 53.7661 21.3316 53.7875 21.4354C53.5974 21.5676 52.8364 21.5621 52.5486 21.6146C52.4886 21.6317 52.4189 21.6578 52.357 21.6633C52.261 21.6719 52.2488 21.6546 52.1826 21.5947L52.1864 21.5235C52.4436 21.2994 53.0579 21.2971 53.3832 21.2661Z" fill="#2D2D2D"/>
<path d="M57.288 21.1367C57.6469 21.2876 57.9971 21.5249 58.3131 21.7509C58.5123 21.8933 58.8405 22.108 58.8832 22.36C58.8694 22.3595 58.8556 22.3598 58.8419 22.3586C58.6427 22.3405 57.4387 21.5215 57.2912 21.3264C57.2477 21.2689 57.2787 21.2038 57.288 21.1367Z" fill="#2D2D2D"/>
<path d="M51.0486 21.6768C51.0581 21.7287 51.0557 21.7721 51.0336 21.8222C50.9612 21.9854 49.6268 23.1452 49.4183 23.3035C49.3414 23.3619 49.2567 23.3994 49.1662 23.4314C49.1605 23.3917 49.1633 23.3493 49.1631 23.3092C49.5086 22.7871 50.5201 22.0164 51.0486 21.6768Z" fill="#2D2D2D"/>
<path d="M61.6292 26.7806C61.2655 25.7979 60.703 24.7941 60.1066 23.9358C59.8716 23.5973 59.601 23.2888 59.3695 22.9458L59.2518 22.99L59.207 22.9316L59.3135 22.8337L59.3027 22.8254C59.3571 22.8094 59.3524 22.8015 59.4029 22.8168C59.9291 22.9763 60.9605 24.8283 61.2484 25.3717C61.4455 25.7685 61.7877 26.3441 61.7862 26.7875L61.7234 26.8247C61.6932 26.8115 61.6559 26.7997 61.6292 26.7806Z" fill="#2D2D2D"/>
<path d="M54.2447 20.4831C54.7831 20.3783 55.9767 20.4863 56.4403 20.8023C56.5113 20.8507 56.5102 20.8663 56.5229 20.9455C56.3994 21.0595 56.3701 21.0378 56.2138 20.9845C55.0433 20.5848 54.3462 20.6086 53.1599 20.9417C52.9345 21.0048 52.7054 21.0786 52.4936 21.1786C52.1151 21.3571 51.6721 21.6958 51.254 21.7313L51.2163 21.6781C51.2307 21.6378 51.2286 21.636 51.259 21.5961C51.3476 21.4798 51.5559 21.3965 51.6862 21.3271C52.5041 20.8917 53.3207 20.5933 54.2447 20.4831Z" fill="#2D2D2D"/>
<path d="M54.3601 44.6035C54.433 44.7202 54.8737 48.6252 54.8906 49.059C54.9245 49.9261 54.8376 51.3177 54.9742 52.1023C54.4133 52.8929 53.8977 53.712 53.4273 54.5596C53.0004 53.3627 52.5482 52.0809 52.3638 50.8209C52.2862 50.2901 52.3187 49.7472 52.2489 49.2177C52.2366 49.1251 52.236 49.0221 52.1592 48.9647L52.1068 49.0129C52.0455 49.2457 52.0627 49.502 52.0651 49.7423C52.0793 51.1762 52.4962 52.4768 52.9481 53.8183C53.0497 54.1468 53.1421 54.4809 53.2871 54.7934C52.9906 55.3659 52.6996 55.9411 52.4141 56.5192C52.1178 57.1201 51.8432 57.7356 51.454 58.2834C51.4297 56.7368 51.4613 55.1855 51.4627 53.6384C51.4478 51.9243 51.4516 50.2103 51.474 48.4964C52.1087 47.4181 52.7756 46.3891 53.5898 45.4357C53.6638 45.6182 53.7329 45.7765 53.8537 45.9351L53.848 45.9181L53.9807 45.939C53.9933 45.667 53.8565 45.422 53.7499 45.1787C53.9728 45.0152 54.1651 44.7995 54.3601 44.6035Z" fill="white"/>
<path d="M59.5633 40.9307C59.8801 41.2917 60.2835 41.5279 60.6076 41.8653C60.5133 42.9121 60.6573 43.9003 60.8604 44.9224C60.3879 45.5015 59.8843 46.0572 59.4009 46.6276C59.0084 47.0909 58.6347 47.5718 58.223 48.0181C58.073 46.787 58.0554 45.5849 58.208 44.3523C58.2488 44.0226 58.5601 42.5051 58.4573 42.3134C58.3776 42.3476 58.3969 42.3256 58.3547 42.3846C58.2442 42.5392 58.2298 42.95 58.1941 43.1524C57.904 44.8001 57.7047 46.5721 58.0633 48.2277C57.7179 48.7146 57.3175 49.1597 56.9395 49.6214C56.3315 50.3635 55.7375 51.1167 55.1574 51.8808C55.1508 50.7675 55.1719 49.6205 55.0897 48.5117C55.0402 47.8434 54.9192 47.1738 54.8478 46.5064C54.7707 45.7854 54.7093 45.0588 54.5835 44.3443C56.1357 42.9105 57.6583 41.8455 59.5633 40.9307Z" fill="white"/>
<path d="M54.5355 44.1096C53.7219 40.005 53.4123 36.4948 54.443 32.3832C54.5588 31.9213 54.7911 30.8787 55.0184 30.5088C55.115 30.3517 55.4476 30.4432 55.5965 30.4803C57.1226 30.8615 58.7352 31.1528 60.3089 30.905C60.3027 30.9304 60.297 30.956 60.2903 30.9812C60.1461 31.5268 59.7351 32.0801 59.4936 32.5943C58.5178 34.671 57.4344 37.572 58.6382 39.7456C58.8428 40.115 59.1024 40.451 59.3629 40.7821C59.14 40.8849 58.9193 40.9924 58.701 41.1047C58.4826 41.217 58.2668 41.3339 58.0534 41.4554C57.8401 41.577 57.6294 41.7031 57.4215 41.8336C57.2135 41.9642 57.0084 42.0991 56.8063 42.2385C56.6041 42.3778 56.405 42.5215 56.209 42.6693C56.0131 42.8172 55.8203 42.9692 55.6308 43.1253C55.4413 43.2815 55.2552 43.4416 55.0726 43.6058C54.89 43.7699 54.7109 43.9379 54.5355 44.1096Z" fill="white"/>
<path d="M37.1813 25.2911C39.4712 25.2201 43.5231 25.2808 45.3553 26.7917C45.7771 27.1394 46.2872 27.7055 46.3274 28.2776C46.3399 28.4574 46.2916 28.6126 46.1695 28.7461C45.1348 29.8778 40.3447 30.2352 38.7927 30.3016C36.7774 30.3533 31.2148 30.0394 29.561 28.9997C29.5623 28.2627 29.7267 27.6583 30.2417 27.1099C31.776 25.4762 35.0667 25.36 37.1813 25.2911Z" fill="white"/>
<path d="M33.6033 27.5494C33.6534 27.5442 33.6904 27.553 33.7395 27.5624L33.7819 27.6566C33.7317 27.7336 33.7043 27.752 33.6164 27.7892C33.3556 27.8997 33.0548 27.959 32.7819 28.0371C32.3431 28.1628 31.9375 28.3145 31.5296 28.5198C31.5134 28.5181 31.4964 28.5201 31.481 28.5148C31.4004 28.4871 31.3778 28.4453 31.3423 28.376C31.6706 27.9299 33.0582 27.6591 33.6033 27.5494Z" fill="#2D2D2D"/>
<path d="M40.0579 29.1036C40.1462 29.0984 40.1182 29.0936 40.1936 29.1095C40.2613 29.1236 40.2567 29.1446 40.2933 29.1988L40.2715 29.2614C40.0984 29.4141 39.8253 29.4652 39.6061 29.5239C38.2516 29.8871 36.9617 29.8522 35.5764 29.7983C35.5633 29.7971 35.5501 29.7974 35.5373 29.7948C35.4345 29.7739 35.4079 29.779 35.3506 29.6899L35.3811 29.5998C35.5729 29.4787 36.5749 29.5703 36.8561 29.5721C37.9816 29.5797 38.9835 29.4349 40.0579 29.1036Z" fill="#2D2D2D"/>
<path d="M35.3426 25.9541C35.5785 25.9377 35.851 25.8966 36.0855 25.9245C36.1885 25.9368 36.2385 25.9534 36.3013 26.0346C36.236 26.2164 35.8557 26.1723 35.6813 26.1856C33.9421 26.3189 31.9847 26.657 30.6914 27.9199C30.5605 28.0766 30.4145 28.2986 30.1987 28.331L30.1743 28.2724C30.2299 28.0488 30.3456 27.8759 30.4946 27.702C31.5549 26.466 33.7878 26.0713 35.3426 25.9541Z" fill="#2D2D2D"/>
<path d="M7.37259 50.8193C7.36971 50.7999 7.36707 50.7804 7.36397 50.7609C7.29696 50.3409 7.06889 49.8959 6.96038 49.4754C6.412 47.3501 5.78201 44.4373 7.12565 42.5045C7.78603 41.5547 8.80386 41.0377 9.92471 40.8431C12.4346 40.4073 16.7127 41.8167 18.7742 43.2867C20.2776 44.3587 21.1476 45.8802 21.4432 47.6882C21.4851 47.945 21.5232 48.2019 21.5439 48.4614C19.0657 46.4388 16.2738 44.9263 13.4571 43.4393C13.1167 43.2597 12.5466 42.8215 12.1774 42.8006C11.9189 43.0978 12.086 47.0442 12.1358 47.7539C12.2757 49.7453 12.7284 51.8531 13.5077 53.694C13.7063 54.1609 13.9195 54.621 14.1472 55.0745C14.2709 55.3249 14.4325 55.5913 14.5248 55.8526C14.11 55.8099 13.6991 55.7432 13.2921 55.6525C12.8851 55.5618 12.4847 55.4478 12.091 55.3104C9.6612 54.4431 8.4462 53.0875 7.37259 50.8193Z" fill="#4FDB40"/>
<path d="M66.8301 26.0783C68.5934 25.9475 70.1311 26.0932 71.527 27.2987C72.7823 28.3826 73.4248 29.8879 73.5382 31.5234C73.6873 33.6762 73.0004 36.7176 72.0537 38.6604C71.717 39.3514 71.3125 39.9734 70.8047 40.5522C70.6514 40.7245 70.4938 40.8928 70.3319 41.057C69.1345 42.2255 67.5916 42.77 65.9694 43.0126C66.1482 42.1397 66.2627 41.2505 66.38 40.3675C66.431 39.9835 66.5173 39.5694 66.5173 39.1837C66.5173 39.0708 66.5234 39.0556 66.4442 38.9778C66.1052 38.8817 65.6277 39.0149 65.2846 39.0704C63.2211 39.404 61.2842 39.959 59.3633 40.7816C59.1027 40.4505 58.8431 40.1146 58.6385 39.7451C57.4348 37.5715 58.5181 34.6706 59.4939 32.5938C59.7355 32.0797 60.1465 31.5264 60.2906 30.9808C60.2973 30.9555 60.303 30.93 60.3092 30.9046C60.9638 30.7704 61.4698 30.5266 61.9127 30.0147C62.3704 29.4856 62.6854 28.88 62.6313 28.1651C63.0612 28.0279 63.7503 27.3319 64.1851 27.0577C64.9871 26.552 65.9204 26.3073 66.8301 26.0783Z" fill="#F2C94C"/>
<path d="M45.1601 15.0283C46.5932 14.7304 47.9629 14.0698 49.2935 13.4772C50.3952 12.9778 51.5135 12.5185 52.6483 12.0994C55.5271 11.0342 58.4134 10.423 61.1778 12.2352C62.2578 12.9432 63.5462 14.3181 63.7824 15.6381C63.8859 16.2167 63.7161 17.0128 63.7068 17.6196C63.6692 20.0851 63.675 22.7477 65.3614 24.7311C65.7994 25.2462 66.3123 25.6509 66.8301 26.0787C65.9203 26.3077 64.9871 26.5524 64.185 27.0581C63.7503 27.3322 63.0612 28.0283 62.6313 28.1655C62.4829 26.5183 61.6593 24.7569 60.6928 23.423C59.505 21.7839 57.8045 20.3556 55.7517 20.0403C53.7482 19.7325 51.7642 20.5169 50.1698 21.6878C49.0932 22.4784 47.2792 24.324 47.097 25.6744C47.0179 26.2611 47.2398 26.8282 47.5911 27.2887C48.8587 28.9505 51.4821 29.8236 53.4979 30.1047C53.2339 31.1459 53.0545 32.222 52.9064 33.2854C52.321 37.489 52.615 41.0351 53.508 45.1754C52.7397 46.0638 52.0912 47.0336 51.4684 48.0267C51.4197 47.2882 51.4454 46.5332 51.4438 45.7926C51.4444 44.4572 51.4377 43.1217 51.4237 41.7863C51.4101 40.6887 51.4665 39.5447 51.1497 38.4825C50.9648 37.8625 50.5907 37.2811 50.1478 36.814C49.798 36.4452 49.3562 36.1511 48.945 35.8547C48.0547 35.2131 47.0761 34.4629 46.4954 33.5177C46.4876 33.5051 46.4802 33.4923 46.4726 33.4796C46.7154 33.2925 46.9325 33.1125 47.0949 32.8458C47.2071 32.6616 47.2722 32.4635 47.3059 32.2512C47.3958 31.6837 47.3947 29.6175 47.2468 29.0937C47.1579 28.7788 46.9682 28.504 46.8044 28.2243C46.2957 27.356 45.822 26.6599 44.9268 26.145C45.1246 25.5679 45.4202 25.0258 45.6129 24.4398C46.3996 22.0474 46.6125 19.5307 45.9092 17.0861C45.7049 16.3763 45.4133 15.7183 45.1601 15.0283Z" fill="white"/>
<path d="M58.6203 15.5845C58.5144 15.5401 58.4032 15.4799 58.349 15.3733C58.3003 15.2774 58.2794 15.139 58.3206 15.0376C58.3553 14.9521 58.4184 14.8988 58.5074 14.8713C58.6327 14.8327 58.8028 14.8505 58.9119 14.927C58.9909 14.9823 59.0418 15.0611 59.0478 15.159C59.0585 15.3373 58.8618 15.4848 58.7417 15.5848C58.7472 15.9501 58.6982 16.41 58.7969 16.7606C58.949 16.7673 59.3304 16.4676 59.483 16.375C59.5815 16.302 59.6796 16.23 59.7822 16.163C59.7866 16.1477 59.7908 16.1325 59.7955 16.1173C59.8475 15.9485 59.9229 15.7963 60.0897 15.715C60.1576 15.682 60.1917 15.6925 60.2648 15.6951C60.3713 15.7597 60.4335 15.8216 60.4657 15.9463C60.4872 16.0295 60.4915 16.1327 60.448 16.2097C60.3989 16.2967 60.3181 16.3406 60.2232 16.3589C60.1131 16.3801 59.9814 16.3574 59.8715 16.3441C59.7671 16.3866 59.7004 16.4334 59.6135 16.5027C59.4002 16.6915 59.1809 16.8652 58.9524 17.0352C59.2257 17.1243 59.4489 17.3255 59.6647 17.5091C59.6796 17.512 59.6942 17.5157 59.7092 17.5175C59.786 17.5268 59.851 17.5181 59.9272 17.5114C60.0821 17.4978 60.2346 17.488 60.3543 17.6109C60.4211 17.6793 60.441 17.7806 60.4304 17.8729C60.4167 17.9928 60.3451 18.125 60.2367 18.1849C60.1567 18.2291 60.0702 18.225 59.9902 18.1837C59.7221 18.0454 59.8119 17.7393 59.6248 17.568C59.3571 17.4694 59.1356 17.3201 58.8494 17.2663C58.7653 17.3844 58.7869 17.5427 58.7787 17.6821L58.7821 18.4033L58.8246 18.4299C58.9503 18.5097 59.0797 18.5845 59.1167 18.7409C59.1195 18.7523 59.1215 18.7639 59.1228 18.7755C59.1242 18.7871 59.1248 18.7988 59.1248 18.8105C59.1248 18.8222 59.1241 18.8339 59.1228 18.8455C59.1213 18.8571 59.1193 18.8686 59.1166 18.8799C59.1139 18.8913 59.1105 18.9025 59.1064 18.9135C59.1024 18.9245 59.0978 18.9352 59.0924 18.9456C59.0872 18.9561 59.0813 18.9662 59.0748 18.9759C59.0683 18.9857 59.0613 18.995 59.0538 19.004C58.9819 19.0898 58.8861 19.1191 58.7782 19.1182C58.6972 19.1175 58.6439 19.0968 58.5731 19.0573C58.4917 18.9297 58.4834 18.8328 58.5174 18.6856C58.5652 18.4781 58.672 18.3588 58.6662 18.1323C58.626 17.8413 58.6441 17.5242 58.6386 17.2296L57.8966 17.6298C57.7571 17.7445 57.7405 17.9529 57.6338 18.1018C57.5738 18.1856 57.5144 18.2288 57.4121 18.2473C57.2983 18.2214 57.2078 18.1776 57.1312 18.0852C57.0669 18.0074 57.0427 17.8809 57.0621 17.7811C57.0824 17.6762 57.1116 17.625 57.2051 17.5709C57.313 17.5084 57.5567 17.512 57.6691 17.5549C57.7555 17.5879 57.7323 17.583 57.8119 17.5578C58.0366 17.3315 58.2577 17.1595 58.542 17.0146C58.2369 16.7522 57.9097 16.5212 57.5603 16.3216C57.5501 16.3295 57.5405 16.3382 57.5297 16.3452C57.4302 16.4095 57.2989 16.435 57.186 16.3931C57.0938 16.3588 57.0252 16.2834 56.9881 16.1931C56.9544 16.1106 56.9609 16.0098 57.006 15.9329C57.0528 15.8531 57.1674 15.7653 57.2631 15.7513C57.3263 15.742 57.3821 15.7377 57.4355 15.7755C57.5548 15.8597 57.5975 15.9993 57.6266 16.1357C57.6291 16.1475 57.6313 16.1593 57.6337 16.1712L57.6896 16.2107C57.9904 16.3815 58.2918 16.6145 58.6039 16.7523C58.6401 16.3688 58.6085 15.9713 58.6203 15.5845Z" fill="#4FDB40"/>
<path d="M70.3317 41.0566C70.943 42.8528 71.7967 44.548 72.5154 46.3008C73.3041 48.224 74.0603 50.2048 74.5881 52.216C75.4756 55.5984 75.8857 59.7977 74.2888 63.0263C73.4496 64.7231 72.0663 66.09 70.2548 66.7031C66.6248 67.9316 62.0442 65.8374 58.4622 65.0626C56.1623 64.565 53.7411 64.4584 51.3988 64.662C50.8824 64.707 50.3356 64.7498 49.8306 64.8662C50.2907 64.247 50.6352 63.6258 50.8874 62.8947C51.359 62.6503 51.8256 62.3962 52.3434 62.2627C53.0609 62.0777 53.7991 62.0907 54.5328 62.1358C57.8065 62.3371 59.3199 63.1334 62.3288 61.1055C63.2731 60.469 64.2274 59.6422 64.8795 58.7034C65.849 57.3074 66.4062 55.6423 67.1721 54.1326C67.6117 53.2605 68.075 52.4012 68.562 51.5547C68.7892 51.1653 69.1087 50.7766 69.285 50.366L69.2675 50.3062C69.0637 50.2281 68.4828 50.4306 68.2376 50.4737C66.4595 50.7862 64.6777 51.0593 62.9335 51.5372C63.2581 51.0346 63.5893 50.5367 63.8647 50.0048C64.9769 47.8567 65.5431 45.3766 65.9692 43.0123C67.5915 42.7696 69.1344 42.2252 70.3317 41.0566Z" fill="white"/>
<path d="M63.0391 62.5054C63.2688 62.4903 63.489 62.5102 63.6963 62.6188C63.7253 62.634 63.7534 62.6505 63.7807 62.6685C63.808 62.6865 63.8343 62.7058 63.8598 62.7264C63.8851 62.747 63.9094 62.7688 63.9327 62.7918C63.9559 62.8147 63.9779 62.8388 63.9987 62.864C64.0196 62.8893 64.0391 62.9154 64.0573 62.9426C64.0756 62.9697 64.0924 62.9977 64.1078 63.0265C64.1233 63.0553 64.1373 63.0848 64.1498 63.115C64.1623 63.1451 64.1733 63.1759 64.1827 63.2072C64.1931 63.2422 64.2018 63.2776 64.2086 63.3135C64.2154 63.3494 64.2203 63.3855 64.2234 63.4219C64.2264 63.4583 64.2276 63.4947 64.2269 63.5313C64.2262 63.5678 64.2236 63.6042 64.2192 63.6405C64.2147 63.6767 64.2084 63.7126 64.2003 63.7482C64.1922 63.7838 64.1822 63.8189 64.1705 63.8535C64.1587 63.8881 64.1453 63.922 64.13 63.9551C64.1148 63.9883 64.0979 64.0206 64.0793 64.0521C63.921 64.316 63.6827 64.452 63.39 64.5175C63.1359 64.5312 62.8881 64.5057 62.6649 64.374C62.6362 64.3573 62.6084 64.3392 62.5815 64.3197C62.5546 64.3002 62.5288 64.2794 62.504 64.2573C62.4791 64.2352 62.4555 64.2119 62.4331 64.1874C62.4107 64.1629 62.3895 64.1373 62.3696 64.1107C62.3498 64.0841 62.3313 64.0565 62.3142 64.028C62.2971 63.9995 62.2815 63.9702 62.2673 63.9401C62.2532 63.91 62.2406 63.8793 62.2296 63.848C62.2186 63.8167 62.2091 63.7849 62.2013 63.7526C62.1377 63.4908 62.177 63.2023 62.3202 62.9728C62.4926 62.6962 62.7327 62.5808 63.0391 62.5054Z" fill="#4FDB40"/>
<path d="M7.37245 50.8193C8.44606 53.0875 9.66106 54.4431 12.0909 55.3104C12.4846 55.4478 12.8849 55.5619 13.2919 55.6525C13.699 55.7432 14.1099 55.8099 14.5247 55.8526C14.6832 56.0465 14.8116 56.2979 14.9519 56.5087C15.2761 56.9956 15.6083 57.47 15.9732 57.9275C17.5857 59.9494 19.554 61.5283 22.1475 62.0534C23.2558 62.2778 24.4288 62.34 25.5545 62.4678C25.8665 63.5714 26.4267 64.5755 27.3073 65.3272C30.0349 67.6554 36.638 68.065 40.0804 67.8511C40.8337 67.8013 41.5838 67.7217 42.3308 67.6121C42.8718 67.5322 43.4192 67.4219 43.964 67.3794L44.015 67.3758C40.242 68.6845 36.446 70.1538 32.4942 70.8386C30.5879 71.1689 28.675 71.4218 26.7369 71.4344C21.6213 71.4677 15.414 69.8804 11.2018 66.9086C8.4045 64.935 6.07581 62.0668 5.49234 58.6159C5.02411 55.8467 5.75237 53.0946 7.37245 50.8193Z" fill="white"/>
<path d="M23.9689 66.6875C24.0144 66.6934 24.0456 66.696 24.0887 66.7055C24.2631 66.7441 24.5628 66.9089 24.6362 67.0834C24.6835 67.1959 24.6606 67.2166 24.6121 67.3205C24.5305 67.3124 24.447 67.3003 24.3688 67.2746C24.1632 67.207 23.9684 67.0642 23.8716 66.8701C23.8798 66.7547 23.881 66.7642 23.9689 66.6875Z" fill="#4FDB40"/>
<path d="M20.8525 64.8787C21.0636 64.8607 21.2276 64.8737 21.4136 64.9873C21.5988 65.1004 21.6968 65.2767 21.7472 65.4817C21.4907 65.4767 21.2129 65.4384 21.0157 65.2554C20.8946 65.1429 20.8549 65.0411 20.8525 64.8787Z" fill="#4FDB40"/>
<path d="M21.4675 66.6377C21.5721 66.6436 21.6317 66.6551 21.7243 66.7049C21.7473 66.775 21.7603 66.7663 21.7361 66.824C21.6392 67.0545 21.3644 67.1957 21.1432 67.273C21.0603 67.2707 20.9853 67.2732 20.9092 67.2353C20.8532 67.2074 20.8634 67.1827 20.8491 67.1272C20.9647 66.8885 21.2447 66.7596 21.4675 66.6377Z" fill="#4FDB40"/>
<path d="M24.4904 64.8438C24.5934 64.8594 24.6468 64.8663 24.7317 64.932C24.7432 65.009 24.7343 65.0272 24.6937 65.0926C24.5593 65.3088 24.2666 65.4136 24.036 65.4772C23.9351 65.4673 23.8825 65.4606 23.8003 65.3997C23.7909 65.3428 23.7752 65.3238 23.8075 65.2705C23.9431 65.046 24.2484 64.9091 24.4904 64.8438Z" fill="#4FDB40"/>
<path d="M22.6681 67.0791C22.6962 67.0839 22.7342 67.0889 22.7595 67.1015C22.8623 67.1527 22.902 67.2541 22.9223 67.3608C22.9292 67.3977 22.9344 67.4348 22.9378 67.4721C22.9412 67.5095 22.9429 67.547 22.9428 67.5845C22.9428 67.622 22.941 67.6594 22.9375 67.6968C22.934 67.7341 22.9287 67.7712 22.9217 67.8081C22.9147 67.8449 22.9061 67.8814 22.8958 67.9175C22.8854 67.9535 22.8734 67.989 22.8598 68.0239C22.8461 68.0589 22.8309 68.0931 22.814 68.1266C22.7972 68.1601 22.7788 68.1928 22.759 68.2247C22.7388 68.2149 22.7184 68.2057 22.6986 68.1954C22.6078 68.1482 22.5626 68.0816 22.5332 67.9836C22.4467 67.6954 22.5195 67.3343 22.6681 67.0791Z" fill="#4FDB40"/>
<path d="M22.6267 63.7295C22.6739 63.7379 22.7154 63.749 22.7574 63.774C22.8342 63.8197 22.87 63.8835 22.8909 63.9687C22.9574 64.238 22.8866 64.568 22.7517 64.8039C22.6995 64.7891 22.6462 64.7736 22.6008 64.7423C22.4821 64.6606 22.4331 64.476 22.4281 64.3387C22.4195 64.0984 22.472 63.9111 22.6267 63.7295Z" fill="#4FDB40"/>
<path d="M22.5802 65.5106C22.6699 65.5062 22.7633 65.4996 22.8528 65.5079C22.9966 65.5214 23.1539 65.6349 23.231 65.7535C23.3126 65.879 23.3247 66.0253 23.2828 66.1674C23.2195 66.3817 23.0645 66.4834 22.8796 66.5884C22.7756 66.5977 22.6559 66.6095 22.5539 66.5815C22.4137 66.5431 22.2806 66.4333 22.2113 66.3066C22.2023 66.29 22.1943 66.2729 22.1872 66.2554C22.1801 66.2379 22.174 66.2201 22.1689 66.202C22.1637 66.1838 22.1595 66.1654 22.1564 66.1468C22.1532 66.1282 22.151 66.1095 22.1499 66.0906C22.1487 66.0718 22.1486 66.0529 22.1496 66.0341C22.1504 66.0152 22.1523 65.9965 22.1553 65.9778C22.1582 65.9592 22.1621 65.9408 22.1671 65.9225C22.172 65.9043 22.1778 65.8865 22.1847 65.8688C22.2588 65.675 22.4016 65.5959 22.5802 65.5106Z" fill="#4FDB40"/>
<path d="M15.0138 60.868C15.2408 60.8495 15.4573 60.8604 15.6705 60.9467C15.9641 61.0656 16.1998 61.29 16.3193 61.5852C16.4358 61.8728 16.4254 62.1927 16.3044 62.4769C16.1462 62.8485 15.8689 63.0385 15.5104 63.1855C15.264 63.2156 15.0306 63.2196 14.799 63.118C14.7638 63.1025 14.7294 63.0852 14.6959 63.0662C14.6625 63.0472 14.6301 63.0265 14.5987 63.0042C14.5673 62.9819 14.5371 62.9581 14.5082 62.9328C14.4792 62.9075 14.4516 62.8807 14.4253 62.8526C14.399 62.8245 14.3743 62.7951 14.351 62.7644C14.3277 62.7338 14.306 62.702 14.2859 62.6692C14.2659 62.6364 14.2475 62.6026 14.2308 62.5679C14.2142 62.5332 14.1993 62.4978 14.1862 62.4616C14.0698 62.1484 14.0793 61.792 14.2298 61.4916C14.4008 61.1502 14.6626 60.9865 15.0138 60.868Z" fill="#4FDB40"/>
<path d="M29.8666 33.7869C29.3819 34.2728 28.5754 34.9361 27.9725 35.2472C26.947 35.7763 24.0028 35.2937 22.9532 34.9602C22.8671 34.9324 22.7813 34.9037 22.6959 34.8739C22.6105 34.844 22.5254 34.8131 22.4408 34.7812C22.3561 34.7493 22.2719 34.7164 22.188 34.6825C22.1041 34.6486 22.0207 34.6136 21.9376 34.5776C21.8546 34.5417 21.7721 34.5047 21.69 34.4668C21.6078 34.4287 21.5262 34.3898 21.4451 34.3498C21.3639 34.3099 21.2832 34.2689 21.203 34.227C21.1228 34.1851 21.0432 34.1423 20.964 34.0984C20.8849 34.0545 20.8063 34.0097 20.7283 33.9639C20.6502 33.9182 20.5727 33.8715 20.4958 33.8239C20.4189 33.7763 20.3426 33.7277 20.2669 33.6782C20.1911 33.6287 20.116 33.5783 20.0415 33.527C19.9669 33.4757 19.8931 33.4235 19.8198 33.3704C19.7466 33.3172 19.674 33.2632 19.6021 33.2084C19.5302 33.1535 19.4589 33.0977 19.3883 33.0411C19.3177 32.9846 19.2478 32.9271 19.1787 32.8688C19.1095 32.8105 19.041 32.7514 18.9733 32.6914C18.9055 32.6314 18.8385 32.5707 18.7722 32.5091C18.7059 32.4475 18.6404 32.3851 18.5757 32.3219C18.5109 32.2587 18.447 32.1948 18.3837 32.13C18.3206 32.0654 18.2582 31.9999 18.1965 31.9336C18.1349 31.8674 18.0741 31.8004 18.0141 31.7326C17.9541 31.6649 17.895 31.5965 17.8366 31.5273C17.7783 31.4581 17.7208 31.3883 17.6642 31.3177C17.6076 31.2472 17.5518 31.176 17.4969 31.104C17.442 31.0321 17.388 30.9595 17.3348 30.8863C17.2817 30.8131 17.2295 30.7393 17.1781 30.6647C17.1268 30.5903 17.0764 30.5151 17.0269 30.4394C16.9773 30.3637 16.9287 30.2874 16.8811 30.2105C16.8334 30.1336 16.7866 30.0562 16.7408 29.9782C16.6951 29.9001 16.6502 29.8215 16.6064 29.7424C16.5625 29.6633 16.5196 29.5836 16.4776 29.5035C15.3375 27.2736 14.9023 24.5049 15.6862 22.0943C17.1163 17.6968 22.9653 13.6046 26.8902 11.5918C30.5016 9.73989 34.8494 8.27379 38.8833 9.58457C41.555 10.4527 43.8792 12.5341 45.1599 15.0283C45.4131 15.7182 45.7047 16.3763 45.909 17.0861C46.6123 19.5307 46.3994 22.0474 45.6126 24.4398C45.42 25.0257 45.1244 25.5679 44.9265 26.145C44.5161 25.9514 44.1004 25.771 43.6687 25.6295C42.8687 25.3674 42.0119 25.2018 41.1755 25.1043C39.9742 24.9642 38.7397 24.9645 37.5318 24.9857C35.446 25.0222 32.9984 25.0427 31.104 26.0209C29.8704 26.6578 29.4811 27.369 29.0667 28.6458C28.8482 28.8095 28.5846 29.0097 28.4551 29.2532C27.9964 30.1154 27.9662 31.7326 28.2965 32.6387C28.5377 33.3 29.2769 33.5252 29.8666 33.7869Z" fill="#4FDB40"/>
<path d="M31.1971 34.1382C34.584 34.8649 38.2993 34.8676 41.7414 34.5838C43.0836 34.4731 44.6817 34.3289 45.9203 33.7705C46.4547 34.6163 47.1636 35.2757 47.9413 35.8941C49.0172 36.7496 50.1877 37.3564 50.5872 38.778C50.7626 39.4029 50.7606 40.0544 50.7704 40.6982C49.0928 41.6043 47.3013 42.0532 45.4258 42.3311C44.1047 42.5218 42.777 42.6308 41.4425 42.6583C41.2126 42.6627 40.2806 42.6041 40.1242 42.712L40.1003 42.819C40.1725 42.9084 40.1758 42.9135 40.2957 42.9257C40.8433 42.9814 41.457 42.9193 42.0104 42.9003C44.9451 42.8 48.1701 42.4064 50.7819 40.9793C50.8423 45.3951 50.8749 49.8111 50.8795 54.2273L50.8557 57.4357C50.8512 58.7503 50.8862 60.0845 50.6419 61.3818C50.4212 62.5534 49.9964 63.6375 49.1661 64.5118C49.04 64.642 48.9083 64.7661 48.7708 64.8842C48.6333 65.0023 48.4908 65.1139 48.3431 65.2189C48.1954 65.3239 48.0432 65.4219 47.8865 65.513C47.7298 65.6041 47.5693 65.6877 47.4049 65.764C45.3361 66.7077 41.4415 67.1077 39.1804 67.1532C36.2314 67.2127 29.8471 66.7551 27.6279 64.6389C26.3951 63.4634 26.0465 61.743 26.0198 60.1074C26.004 59.1304 26.088 58.1532 26.0814 57.1757C26.0346 54.2561 25.9677 51.3369 25.8808 48.4182C25.8204 46.6069 25.7222 44.7947 25.636 42.9845C25.5872 41.9604 25.4128 40.8298 25.5898 39.8181C25.7986 38.6244 26.5031 37.5949 27.3327 36.7401C28.1054 35.9439 29.0166 35.4004 29.8506 34.6871C30.0533 34.5137 30.2505 34.1361 30.4683 34.0204C30.5515 34.0546 30.5481 34.0343 30.5875 34.1238C30.5383 34.4755 30.4894 34.8035 30.3173 35.1214C30.0833 35.5542 29.6979 35.8682 29.3202 36.1705C28.1034 37.1441 26.9485 37.9101 26.4452 39.4637C26.319 39.8536 26.2963 40.3024 26.2918 40.7093C26.2744 42.2657 26.3472 43.8332 26.3718 45.3906L26.474 54.2896C26.4779 55.4643 26.462 56.6388 26.4265 57.8129C26.3996 58.7885 26.3354 59.7607 26.4499 60.7336C26.5773 61.8168 26.9808 63.117 27.6392 63.9993C27.9922 64.4724 28.5418 64.8053 29.0758 65.0375C30.5382 65.6732 33.2942 66.1127 34.9344 66.3392C36.2644 66.5143 37.6001 66.6013 38.9416 66.6002C41.0768 66.5795 44.6921 66.1445 46.7104 65.3589C46.9554 65.2649 47.1926 65.1542 47.4221 65.0269C47.6516 64.8996 47.871 64.7569 48.0805 64.5988C49.2087 63.7381 49.9608 62.3406 50.1452 60.9408C50.2022 60.5084 50.273 59.3727 50.0433 58.9989C50.0221 58.9645 50.0057 58.957 49.9758 58.9369C49.9046 58.9713 49.902 59.0034 49.8756 59.075C49.7841 59.3233 49.7516 59.6145 49.7106 59.8754C49.5808 61.2409 49.0108 62.6906 48.0273 63.6691C47.9114 63.7824 47.7902 63.8897 47.6637 63.9911C47.5373 64.0925 47.4063 64.1875 47.2705 64.2761C47.1347 64.3647 46.995 64.4465 46.8513 64.5214C46.7076 64.5963 46.5605 64.6641 46.4101 64.7246C44.4554 65.5225 40.6582 65.8736 38.5368 65.8757C36.1406 65.8782 34.2986 65.5591 31.9819 65.1079C31.1315 64.9422 30.2212 64.8032 29.4169 64.4733C29.0336 64.3161 28.6765 64.1047 28.3842 63.8085C28.1072 63.5278 27.919 63.1876 27.7443 62.8372C26.8088 60.9611 27.0217 58.8107 27.0856 56.7839C27.1142 55.8425 27.1256 54.9009 27.1195 53.959C27.095 52.9167 27.1129 51.8727 27.0886 50.8297C27.0143 47.6491 26.9038 44.4593 26.9047 41.2782C27.5131 41.542 28.1377 41.7593 28.7785 41.9301C29.4883 42.1222 33.7372 42.9358 34.1858 42.6779C34.2106 42.5706 34.1993 42.5471 34.1657 42.4404C31.803 42.315 29.0679 41.9656 26.9076 40.9399C26.9066 40.4663 26.9104 40.0196 27.0138 39.5543C30.6699 41.6991 39.9213 41.5677 44.1479 41.1181C45.4062 40.9843 46.6523 40.7875 47.8779 40.4693C48.3806 40.3389 49.6915 40.0352 50.0421 39.7207C50.1364 39.4259 49.8762 38.9814 49.7429 38.7214C49.1753 37.6139 48.4279 36.8479 47.4851 36.0575C47.2736 35.8803 47.013 35.6237 46.7479 35.5364C46.6419 35.5016 46.5894 35.5136 46.4861 35.548C46.4336 35.6277 46.3968 35.6683 46.4138 35.7706C46.4593 36.0427 48.0776 37.337 48.3924 37.6929C48.8458 38.2053 49.1634 38.8025 49.4572 39.4162C48.1124 39.9232 46.6865 40.2518 45.2658 40.457C41.1262 41.055 35.6583 41.0139 31.5199 40.3693C30.3497 40.1871 29.1045 39.9659 28.0205 39.4738C27.7464 39.3493 27.4865 39.204 27.2286 39.0493C27.6224 38.3904 28.099 37.8943 28.6867 37.403C29.4067 36.8011 30.4276 36.2243 30.8686 35.3779C31.0745 34.9829 31.1414 34.5757 31.1971 34.1382Z" fill="white"/>
<path d="M49.8691 57.0459C49.8943 57.0509 49.9203 57.0529 49.9448 57.0608C50.0409 57.0918 50.0609 57.1468 50.1095 57.2276C50.1195 57.3518 50.117 57.3946 50.051 57.5069C50.0282 57.5027 50.0049 57.5007 49.9826 57.4943C49.8724 57.4627 49.8543 57.4391 49.7956 57.348C49.7929 57.2218 49.816 57.1607 49.8691 57.0459Z" fill="#2D2D2D"/>
<path d="M27.6821 43.6855C27.7596 43.7365 27.8135 43.7569 27.8403 43.8527C27.8953 44.0495 27.8913 48.7388 27.8346 49.166C27.8197 49.2785 27.7705 49.3605 27.7057 49.4515L27.5803 49.3531C27.5551 49.3062 27.5414 49.2681 27.539 49.2144C27.4932 48.165 27.5281 47.097 27.5239 46.0453C27.5213 45.3978 27.4464 44.5374 27.5491 43.9177C27.5683 43.8018 27.6089 43.7694 27.6821 43.6855Z" fill="#2D2D2D"/>
<path d="M45.0263 35.4805C45.0711 35.4881 45.1297 35.495 45.1717 35.5153C45.3226 35.5882 47.1021 37.486 47.3098 37.7347C47.3694 37.806 47.4266 37.8812 47.4491 37.9737C47.4879 38.1331 47.4351 38.2418 47.3413 38.3651C47.2643 38.3555 47.1985 38.3481 47.1274 38.3147C46.8469 38.1832 44.9616 36.1606 44.8967 35.836C44.8698 35.7011 44.9544 35.5858 45.0263 35.4805Z" fill="#2D2D2D"/>
<path d="M31.8637 35.8027C31.9327 35.8076 31.9892 35.813 32.0536 35.8417C32.1412 35.8808 32.2139 35.983 32.2247 36.0761C32.2353 36.168 32.2038 36.2479 32.1504 36.3206C31.7302 36.8919 31.1721 37.3966 30.6882 37.9161C30.3514 38.2777 30.0519 38.6722 29.7072 39.0258C29.5771 39.0173 29.5112 39.0042 29.3969 38.942C29.3638 38.8916 29.3276 38.8588 29.3276 38.7956C29.3273 38.4384 31.5115 36.185 31.8637 35.8027Z" fill="#2D2D2D"/>
<path d="M49.6723 43.0225C49.7755 43.062 49.8033 43.0661 49.8697 43.1521C49.9575 44.2778 49.8795 45.5707 49.8782 46.7134C49.8762 48.4107 49.9262 50.1196 49.881 51.815C49.8787 51.8992 49.8637 51.9588 49.8359 52.0373C49.7755 52.015 49.679 51.9852 49.6507 51.9241C49.6069 51.8296 49.5569 43.9541 49.6094 43.2563C49.6164 43.1646 49.6342 43.105 49.6723 43.0225Z" fill="#2D2D2D"/>
<path d="M35.7047 50.9499C35.4245 50.9021 35.0682 50.9929 34.7868 51.0417C33.7732 51.2172 31.8526 51.7761 30.906 51.4136C30.4414 51.2357 30.0455 50.8889 29.8448 50.4298C29.4106 49.4366 29.8502 48.2773 30.2061 47.3335C30.7995 45.7597 31.9769 44.0632 33.5626 43.3603C34.6031 42.8993 36.0715 43.1722 37.0934 43.5698C38.5468 44.1354 40.4069 45.0876 41.0489 46.5892C41.2398 47.0356 41.3118 47.5519 41.1203 48.0108C40.7951 48.791 39.9659 49.0949 39.2507 49.4064C38.6731 49.6482 38.0921 49.8819 37.5079 50.1075C37.158 50.243 36.8068 50.3749 36.4542 50.5031C36.6432 51.6395 36.8497 52.8013 37.2014 53.9004C38.4518 54.2741 39.6828 54.6379 40.8702 55.1883C41.5271 55.4928 42.7728 56.283 43.3442 56.4363L43.397 56.289C43.5478 55.7904 43.6956 55.2931 43.7745 54.7772C43.0652 54.1275 41.9825 54.043 41.1392 53.6169C40.6802 53.385 40.3465 53.0146 40.1975 52.5175C40.0831 52.1357 40.1633 51.7821 40.3577 51.44C40.8064 50.6504 42.6332 49.2761 43.5288 49.0536C44.4693 48.8198 45.5406 48.8618 46.3837 49.373C47.6317 50.1297 48.5926 51.6399 48.9327 53.0396C49.0543 53.54 49.1139 54.2564 48.8198 54.7065C48.1349 55.7547 45.6771 54.6596 44.5864 54.8871C44.5705 54.8904 44.5547 54.8943 44.5389 54.8978C44.4563 55.255 44.3785 55.6319 44.2371 55.9704C44.18 56.239 44.1069 56.5007 44.0303 56.7644C43.4719 58.4111 42.741 59.6805 41.9114 61.1899C41.674 61.6216 41.4729 62.1251 41.2016 62.5317C41.0404 62.8902 41.0809 63.1802 41.1021 63.5622C41.1021 63.7636 41.1135 63.9736 41.1009 64.1742C41.1393 64.5068 41.2114 65.0619 41.0824 65.3682C41.0328 65.4861 40.9478 65.5647 40.8285 65.6121C40.7105 65.659 40.516 65.6487 40.4092 65.5832C40.2857 65.5075 40.2435 65.3621 40.231 65.2264C40.2034 64.9289 40.2701 64.5955 40.288 64.296C40.3438 63.3625 40.3684 62.4295 40.1304 61.5173C39.7429 59.9329 38.6328 58.6131 37.8314 57.2226C37.6769 56.9545 37.532 56.6813 37.3968 56.4029C37.2615 56.1245 37.1363 55.8418 37.021 55.5546C36.9058 55.2673 36.8008 54.9764 36.7062 54.6818C36.6116 54.3871 36.5275 54.0895 36.4539 53.7889L35.7047 50.9499Z" fill="#2D2D2D"/>
<path d="M34.1718 49.9341C34.3573 49.965 34.5336 50.0132 34.7139 50.0648L34.6805 50.0548L34.7553 50.105C34.1748 50.1945 33.4643 50.135 32.874 50.1137C32.9936 50.0891 33.1203 50.0781 33.2416 50.0616L33.2794 50.0048C33.4672 49.9588 33.66 50.0405 33.827 49.9277L34.1224 49.9804C34.1724 49.945 34.1643 49.966 34.1718 49.9341Z" fill="#7F7A6F"/>
<path d="M45.9603 54.3555C46.3632 54.2746 46.7675 54.1887 47.1755 54.1375C47.5065 54.0959 47.9252 54.1255 48.2348 54.0118L48.2355 53.9778C47.4291 53.9003 46.587 54.159 45.7876 54.236C46.1563 53.8998 47.6651 53.9232 48.1347 53.7135C48.0844 53.666 48.0292 53.6786 47.9609 53.6802C47.5911 53.6884 46.608 53.7667 46.2975 53.9325C46.1426 54.0153 46.0468 54.0747 45.8738 54.0402L45.8768 54.0284C46.5206 53.795 47.4749 53.4062 48.1438 53.334C48.3701 53.6777 48.6007 54.082 48.5203 54.513C48.4935 54.6564 48.4177 54.783 48.289 54.857C48.1638 54.9291 48.0485 54.953 47.9065 54.9648C47.1671 55.0798 46.4645 54.8475 45.7625 54.638C46.4107 54.6901 47.1289 54.839 47.7726 54.7877C47.3896 54.6634 45.5248 54.6573 45.4468 54.5817C45.9646 54.4084 46.6362 54.5045 47.1807 54.4656C47.4985 54.443 47.7882 54.3773 48.1108 54.3851L48.1486 54.3042L48.2062 54.3546C48.1966 54.3523 48.1872 54.3492 48.1774 54.3476C47.7664 54.2808 47.3436 54.3622 46.9322 54.3842C46.6103 54.4014 46.2817 54.3734 45.9603 54.3555Z" fill="white"/>
<path d="M43.5817 56.3144C43.6931 55.7302 43.9544 54.8685 44.1243 54.2801C44.1621 54.1492 44.1993 54.0955 44.3166 54.0283C44.4123 54.0421 44.4336 54.0227 44.4964 54.1017C44.3966 54.6314 44.2579 55.153 44.1512 55.6814C43.8736 56.6347 43.6056 57.589 43.1813 58.4902C42.5412 59.85 41.6912 61.0961 41.0596 62.4615L40.9861 62.334C40.9752 62.1622 40.9704 62.031 41.0334 61.8685C41.174 61.7448 42.772 58.4749 42.9477 58.0653C43.1811 57.4903 43.3779 56.9004 43.5817 56.3144Z" fill="white"/>
<path d="M36.6201 53.8252L36.988 53.8429C37.5172 55.3825 38.2289 56.7697 39.1028 58.1417L39.2757 58.4454C39.9528 59.4169 40.4803 60.6743 40.721 61.8285C40.755 62.0065 40.7905 62.1836 40.8127 62.3636C40.862 62.813 40.859 63.2937 40.9337 63.7357C40.9268 64.188 40.9265 64.6403 40.9326 65.0926C40.9082 65.22 40.8962 65.2957 40.7993 65.3911C40.7054 65.4195 40.7004 65.42 40.6078 65.3879C40.5069 65.2898 40.4589 65.2095 40.443 65.067C40.4053 64.7273 40.4877 64.3468 40.5058 64.0046C40.5185 63.7728 40.5214 63.541 40.5147 63.309C40.5079 63.0771 40.4915 62.8458 40.4654 62.6152C40.4393 62.3846 40.4036 62.1555 40.3583 61.9279C40.3131 61.7003 40.2584 61.475 40.1943 61.252C39.8614 60.1168 39.2157 59.1774 38.6133 58.1754C37.7648 57.1182 36.9736 55.1407 36.6201 53.8252Z" fill="url(#paint0_linear_1096_35683)"/>
<path d="M43.8332 49.2728C44.6408 49.1523 45.5275 49.2571 46.2206 49.7076C47.1518 50.3129 48.3482 51.9744 48.5843 53.0653C48.2036 52.526 47.6417 52.0636 47.0911 51.7084C47.0102 51.6605 46.9286 51.6139 46.8462 51.5685C44.9836 50.5455 43.1948 50.3015 41.1377 50.8947C41.9464 50.1557 42.6989 49.4098 43.8332 49.2728Z" fill="white"/>
<path d="M34.3488 43.7321C34.4307 43.7241 34.5129 43.7183 34.5952 43.7147C36.0032 43.6465 38.6677 44.834 39.7044 45.7715C37.7966 44.9107 35.6468 45.4864 33.7438 46.0914C32.4076 46.5194 31.0455 47.248 30.3696 48.5293C30.5984 47.5549 31.0466 46.57 31.6437 45.7651C32.211 45.0003 33.17 43.9079 34.1812 43.7771C34.1904 43.7759 34.2705 43.7685 34.2829 43.7642C34.306 43.7561 34.3268 43.7428 34.3488 43.7321Z" fill="white"/>
<path d="M36.0933 46.0503C36.1222 46.0014 36.1247 45.9646 36.1822 45.9504C37.3665 45.6592 38.8479 45.7622 39.9009 46.4084C40.2926 46.6488 40.6908 46.99 40.8074 47.4529C40.8819 47.7487 40.812 48.04 40.6527 48.2952C40.3383 48.7989 39.8333 48.8265 39.4176 49.1541C39.3667 49.2482 39.3203 49.3247 39.2504 49.4068C38.6728 49.6487 38.0919 49.8824 37.5076 50.1079C37.4658 49.8943 37.2077 50.1219 37.0904 50.0375C37.2022 49.9733 37.3106 49.9084 37.4168 49.8352C37.3099 49.7936 37.1712 49.8561 37.0512 49.8415C37.204 49.7662 37.3276 49.6973 37.4603 49.5911L37.4989 49.5598C38.0615 49.2995 38.5766 48.9543 39.1334 48.6837L39.1333 48.6566C38.6404 48.7639 37.8417 49.24 37.3994 49.5079C37.3626 49.5511 37.3106 49.5897 37.2682 49.6281L37.2266 49.618C37.2644 49.5461 37.3086 49.4954 37.3008 49.4129C37.2042 49.4218 37.2479 49.4315 37.1685 49.3899C37.5904 48.9188 38.0102 48.4339 38.4922 48.0232C38.7566 47.7979 39.0838 47.6395 39.329 47.3992L39.2987 47.38C39.0707 47.5467 38.8324 47.689 38.5887 47.8315C38.898 47.4558 39.2412 47.1112 39.5486 46.7334C39.2125 46.9019 38.7641 47.5341 38.4855 47.8162C38.015 48.2928 37.5201 48.7504 37.0429 49.2214C37.4132 48.5724 37.917 48.0062 38.4133 47.4518C38.7437 47.0829 39.1409 46.7258 39.3522 46.2734C38.719 46.9378 38.0879 47.614 37.4954 48.3148C37.6829 47.832 37.9544 47.3628 38.2387 46.9293C38.3686 46.7312 38.518 46.5523 38.6271 46.3409L38.6132 46.3069C38.1191 46.8058 37.2927 48.2896 36.8812 48.9391C37.0859 48.2974 37.2792 47.6179 37.5925 47.0199C37.7994 46.6251 38.0635 46.2578 38.2966 45.8776C37.9643 46.1454 37.753 46.4226 37.5141 46.7754C37.5474 46.4892 37.5967 46.2033 37.639 45.9183C37.2995 46.5701 37.1521 47.3805 36.9369 48.0826C36.7788 48.5985 36.5587 49.0925 36.3389 49.5844C36.329 49.4116 36.3304 49.2404 36.2698 49.0765C36.1872 48.1071 36.4107 46.9751 36.0933 46.0503Z" fill="white"/>
<path d="M37.1685 49.3898C37.5023 49.1773 37.7862 48.8757 38.0956 48.6284C38.5686 48.2502 39.6424 47.5037 40.2189 47.377L40.2359 47.413C39.4697 47.8457 38.7477 48.2683 38.0557 48.8197L38.1129 48.7984C38.8078 48.5362 39.7106 47.8891 40.3778 47.7473C39.7621 48.1531 37.6454 48.9345 37.3993 49.5077C37.3625 49.551 37.3106 49.5896 37.2681 49.628L37.2266 49.6179C37.2643 49.5459 37.3085 49.4953 37.3007 49.4128C37.2042 49.4216 37.2478 49.4314 37.1685 49.3898Z" fill="#5E5B56"/>
<path d="M37.499 49.5598C37.8299 49.5706 38.1221 49.2668 38.4395 49.1801C38.7738 49.0887 39.2961 48.8253 39.6006 48.7891L39.5432 48.825C39.5415 48.8261 39.5396 48.8269 39.5378 48.8279C39.1046 49.0677 38.608 49.1483 38.1767 49.392C38.0738 49.4502 37.6534 49.678 37.6303 49.763C38.2417 49.5892 38.8286 49.3954 39.4178 49.1541C39.3668 49.2481 39.3204 49.3247 39.2505 49.4068C38.6729 49.6487 38.092 49.8824 37.5078 50.1079C37.4659 49.8943 37.2078 50.1219 37.0905 50.0374C37.2023 49.9732 37.3107 49.9084 37.4169 49.8352C37.31 49.7936 37.1713 49.8561 37.0513 49.8415C37.2041 49.7662 37.3277 49.6973 37.4604 49.5911L37.499 49.5598Z" fill="url(#paint1_linear_1096_35683)"/>
<path d="M41.0813 53.2839C40.7499 53.0762 40.459 52.7764 40.3743 52.3805C40.3318 52.1818 40.3693 51.9802 40.4882 51.8141C40.8746 51.2744 41.95 51.1506 42.5521 51.0737C44.2328 50.8588 45.8609 51.3116 47.2039 52.3548C47.5404 52.6162 47.8314 52.9186 48.098 53.2501C47.5424 53.3916 46.9692 53.5169 46.4234 53.6899C46.0788 53.7991 45.7178 54.0466 45.3591 54.0812C45.3565 54.085 45.3548 54.0897 45.3513 54.0928C45.2765 54.1578 45.2682 54.151 45.1744 54.138L45.1539 54.0723C45.2178 54.0372 45.2485 54.0184 45.2985 53.963L45.2747 53.9163L45.1122 53.9658C45.1485 53.8744 45.1786 53.8641 45.2525 53.8034C45.6562 53.2036 45.8114 52.4444 45.9753 51.7502C45.883 51.9219 45.7886 52.0893 45.6841 52.2541L45.7545 52.2602C45.8311 52.5782 45.3821 53.398 45.2101 53.6641C45.1407 53.7714 45.05 53.8712 44.9664 53.9679C45.0606 53.7587 45.164 53.5603 45.2766 53.3606C45.2662 53.0838 45.2989 52.8543 45.3732 52.5861C45.3886 52.3661 45.4485 52.1541 45.4617 51.9319C45.266 52.2364 45.2455 52.7687 45.2328 53.121C45.1553 53.485 44.975 53.7346 44.7555 54.0255C44.8127 53.8497 44.9672 53.5162 44.9459 53.344C44.9275 52.9718 45.2029 52.1848 45.4317 51.8796L45.4493 51.7552L45.4098 51.7367C45.2162 52.0348 45.0796 52.4465 44.9868 52.791C44.915 53.0569 44.912 53.42 44.7416 53.6384L44.6864 53.6411C44.5243 53.0262 44.9797 52.0397 45.1036 51.4227C44.7207 52.0948 44.5992 52.9613 44.4747 53.7146C44.3922 52.7509 44.4931 52.3798 44.7068 51.4424L44.7389 51.4109L44.695 51.3823L44.681 51.4131L44.66 51.399C44.6603 51.41 44.6614 51.4209 44.6609 51.4319C44.6469 51.7402 44.4745 52.2199 44.3585 52.5109C44.3015 52.1649 44.477 51.7926 44.3685 51.4444C44.23 51.6109 44.2116 52.6808 44.1862 52.9487C44.1215 52.5344 44.1489 51.6195 44.0716 51.3431C43.8668 51.8406 44.135 53.3837 44.1544 53.9776C43.9153 53.4001 43.6605 52.8089 43.4964 52.2051C43.436 51.9827 43.3434 51.305 43.1774 51.1832C43.1335 51.892 43.6481 53.0003 43.9269 53.6566C43.9181 53.6476 43.9092 53.6388 43.9005 53.6297C43.569 53.2823 42.9093 51.8275 42.9222 51.3488C42.9232 51.317 42.9246 51.2852 42.9263 51.2534C42.8675 51.3295 42.8507 51.4768 42.8632 51.5717C42.9148 51.9638 43.5047 53.239 43.7066 53.6527C43.1438 52.9399 42.8487 52.0788 42.3153 51.3605C42.285 51.4509 42.5001 51.8362 42.5503 51.9359C42.6819 52.1972 42.8508 52.4362 42.9653 52.706C42.9556 52.6969 42.9459 52.688 42.9364 52.6789C42.6308 52.386 42.41 51.9594 42.0904 51.6992C42.0825 51.6927 42.0768 51.6839 42.0701 51.6762C42.0776 51.6855 42.0853 51.6947 42.0925 51.7042C42.1414 51.769 42.0989 51.7131 42.1472 51.8088C42.3689 52.2471 42.9381 52.7288 43.2285 53.2989C42.9552 53.0075 42.0782 52.1038 41.776 51.9206C42.1632 52.5266 42.843 52.9178 43.2746 53.4987C42.9823 53.271 41.9699 52.4473 41.683 52.393C41.7724 52.6294 43.2392 53.3887 43.2985 53.7448C43.1171 53.6605 42.983 53.513 42.8215 53.3975C42.5379 53.1948 42.2108 52.9957 41.891 52.8578C42.2995 53.1819 42.7342 53.4858 43.1247 53.8306C42.7038 53.6062 42.3468 53.4978 41.8748 53.4221C42.348 53.6523 42.7631 53.7149 43.1715 54.0905C42.4695 53.8262 41.7532 53.6244 41.0813 53.2839Z" fill="white"/>
<path d="M45.2521 53.8026C45.2684 53.7995 45.285 53.7982 45.3008 53.7932C45.395 53.7634 46.7903 52.7262 47.0265 52.5713L47.0753 52.5992C47.0364 52.8009 46.2298 53.3714 46.0299 53.5062C45.8027 53.6575 45.578 53.8125 45.3559 53.9711C45.848 53.7844 46.3508 53.4854 46.7926 53.2006C46.9673 53.088 47.171 52.9124 47.3587 52.8323C47.3905 52.8187 47.4109 52.8218 47.4422 52.8228C47.4272 52.9166 47.3076 52.9863 47.231 53.0414C47.0586 53.165 46.7913 53.37 46.5766 53.3866L46.5548 53.4142C46.831 53.4742 47.6043 53.0154 47.6709 53.0923C47.4531 53.19 47.247 53.3171 47.025 53.4039C46.5003 53.6089 45.8066 53.7222 45.3587 54.0804C45.3561 54.0843 45.3544 54.0889 45.3509 54.0921C45.2761 54.1571 45.2678 54.1503 45.174 54.1372L45.1535 54.0716C45.2174 54.0364 45.2481 54.0177 45.2981 53.9623L45.2743 53.9156L45.1118 53.965C45.1481 53.8736 45.1782 53.8634 45.2521 53.8026Z" fill="#5E5B56"/>
<path d="M34.6046 46.3075C35.0238 46.1931 35.4894 46.0321 35.9199 45.9948C36.0172 45.9864 36.0006 45.9964 36.0699 46.0538C35.9673 46.5918 36.0896 47.9854 36.0883 48.6316C35.8407 48.2396 35.8361 47.3132 35.7553 46.8373C35.7087 46.5631 35.6353 46.3064 35.5592 46.0396C35.5928 47.0813 35.9559 48.099 35.9808 49.1467C35.824 48.8788 35.8036 48.4771 35.7274 48.1752C35.5976 47.6611 35.4361 47.1552 35.275 46.6501C35.2434 46.5512 35.2055 46.4961 35.1403 46.4182L35.1159 46.4311C35.3503 47.327 35.6751 48.2 35.8202 49.1186C35.7461 48.9857 35.6779 48.8351 35.5707 48.7261C35.6435 48.8739 35.7053 49.0068 35.743 49.1676C35.6079 49.0164 35.5286 48.8251 35.4119 48.6596C35.2805 48.4732 35.1251 48.2964 34.9751 48.1243L34.9577 48.1635C35.1087 48.358 35.2487 48.5509 35.3706 48.7652C35.4947 48.9836 35.6 49.2711 35.7671 49.4556C35.8528 49.4638 35.9322 49.4721 36.016 49.4931C36.2394 49.8372 36.4416 51.5036 36.5468 52.0049C36.6761 52.62 36.8175 53.2374 36.9882 53.8425L36.6203 53.8248C36.4143 52.8597 36.1538 51.8711 35.8494 50.933C35.779 50.6736 35.5268 49.912 35.5952 49.6878C35.6161 49.6192 35.6708 49.5391 35.704 49.4737C35.3043 49.1193 35.0451 48.6853 34.6842 48.3C34.7741 48.7109 35.4394 49.0452 35.4702 49.462L35.4099 49.4871C35.1205 49.3011 34.8658 48.9201 34.6211 48.6702C34.2345 48.2754 33.2461 47.3947 32.8023 47.1414C32.8015 47.2834 34.1583 48.3825 34.3636 48.5887C34.6263 48.8503 34.8633 49.1334 35.0743 49.4382C34.3988 49.0052 33.0215 47.6066 32.3459 47.4276C32.522 47.6077 32.7789 47.7324 32.9833 47.8809C33.5216 48.272 34.099 48.7075 34.5566 49.1913C34.123 48.9724 32.2206 47.6267 31.9272 47.6158C31.9488 47.7103 32.0061 47.7473 32.0834 47.8009C32.3454 47.983 32.6582 48.1223 32.935 48.2869C33.3827 48.5533 33.7936 48.862 34.1966 49.1907L34.2571 49.2411C34.196 49.2476 34.1354 49.2531 34.0741 49.2578C34.0804 49.3241 34.0923 49.3372 34.1413 49.3816C34.2092 49.4432 34.2986 49.4826 34.378 49.5272C34.4428 49.5636 34.4201 49.5438 34.459 49.5915C34.4063 49.6427 34.2847 49.6493 34.2098 49.6454C33.9507 49.6318 33.7618 49.4193 33.4853 49.4337L33.464 49.4346C33.6506 49.5168 33.8312 49.5993 34.0079 49.7021C33.3423 49.5579 32.7043 49.2939 32.0447 49.1178C31.7688 49.0903 31.3386 48.9874 31.0762 49.0421L31.0345 49.0995L30.9536 49.0483L30.9601 49.0617C31.662 49.258 32.4058 49.3111 33.1342 49.5186L33.0661 49.5217C32.8121 49.5318 31.3197 49.4107 31.2555 49.4751C31.8576 49.5539 32.4745 49.5719 33.0716 49.6644C33.4425 49.7219 33.8102 49.8343 34.1718 49.9338C34.1643 49.9657 34.1724 49.9446 34.1224 49.98L33.827 49.9274C33.6601 50.0402 33.4672 49.9584 33.2794 50.0044L33.2416 50.0612C33.1203 50.0778 32.9936 50.0887 32.874 50.1133C32.52 50.1181 32.1424 50.1987 31.8178 50.3386C32.7247 50.2297 33.6369 50.1604 34.5383 50.3407C33.8158 50.3503 32.6872 50.3315 32.0322 50.6054C31.9392 50.6443 31.8453 50.6808 31.7516 50.7182C32.4428 50.61 33.1111 50.3995 33.8214 50.4971C33.8362 50.4991 33.8511 50.5017 33.8659 50.5039C33.6292 50.5332 32.5104 50.5962 32.3557 50.6805C32.3758 50.6828 32.3957 50.6861 32.4158 50.6872C32.7162 50.7032 33.0158 50.7468 33.317 50.7433C33.8852 50.7368 34.433 50.6689 35.0045 50.7154C34.1004 50.9239 33.1277 51.1569 32.2021 51.2353C31.6701 51.2803 31.0878 51.2211 30.6714 50.8513C30.3818 50.594 30.2824 50.26 30.2575 49.8839C30.247 49.726 30.231 49.3296 30.3554 49.2186C30.3961 49.1822 30.4094 49.2384 30.4765 49.1618C30.435 49.0755 30.4454 49.1207 30.4443 49.0264C31.2978 47.4507 32.9947 46.8227 34.6033 46.3012C34.6505 47.017 35.0079 48.0308 35.4701 48.5814C35.0839 47.8509 34.8434 47.0944 34.6046 46.3075Z" fill="white"/>
<path d="M33.2792 50.0047C32.4482 49.9516 32.052 50.0516 31.2368 50.2046L31.2382 50.1859C31.4067 50.1028 32.7863 49.7391 32.9382 49.7432C33.237 49.7511 33.5438 49.8384 33.8268 49.9276C33.6599 50.0405 33.467 49.9587 33.2792 50.0047Z" fill="#5E5B56"/>
<path d="M31.5909 47.999C32.3219 48.1717 32.8815 48.4767 33.5329 48.8379C33.734 48.9493 33.9798 49.1329 34.1966 49.1914L34.2571 49.2418C34.196 49.2483 34.1354 49.2538 34.0741 49.2585C34.0804 49.3248 34.0923 49.3379 34.1413 49.3823C34.2092 49.4439 34.2986 49.4833 34.378 49.5279C34.4428 49.5643 34.4201 49.5445 34.459 49.5922C34.4063 49.6434 34.2847 49.65 34.2098 49.6461C33.9507 49.6325 33.7619 49.42 33.4853 49.4344L33.464 49.4354C33.4618 49.4346 33.4595 49.4339 33.4574 49.4329C33.0252 49.2143 32.6337 49.0543 32.1585 48.9536C31.9196 48.9165 31.2716 48.8735 31.1069 48.7597C31.5971 48.6599 32.7199 48.9836 33.2712 49.0842C33.4233 49.1119 33.9305 49.4141 34.0252 49.3524C33.6001 49.0521 33.2009 48.9861 32.729 48.8124C32.4991 48.7277 32.2842 48.6069 32.047 48.5411C31.8479 48.4859 31.4433 48.4947 31.2905 48.3874C31.5754 48.2818 32.0119 48.3664 32.2831 48.4878C32.3037 48.497 32.324 48.5069 32.3447 48.5161C32.535 48.6012 32.7259 48.6874 32.9179 48.7685C32.9697 48.7904 32.9976 48.7894 33.0517 48.7818L33.0496 48.789L33.0132 48.7405L32.9898 48.8077L32.9746 48.8086L32.9723 48.7427C32.767 48.5317 32.0094 48.388 31.5909 47.999Z" fill="#5E5B56"/>
<path d="M37.2012 53.9004C38.4516 54.2741 39.6827 54.6379 40.87 55.1883C41.527 55.4928 42.7726 56.283 43.344 56.4362C43.223 56.9473 43.008 57.4422 42.8135 57.9294C42.2514 59.2552 41.518 60.4868 40.9078 61.7881L40.8467 61.5261C40.4941 60.2405 39.8968 59.1267 39.2121 57.9967C38.3931 56.6974 37.6414 55.3806 37.2012 53.9004Z" fill="#F2C94C"/>
<path d="M41.0501 57.3672C41.1163 57.3712 41.2036 57.3713 41.2654 57.397C41.3624 57.4372 41.3874 57.4893 41.4286 57.5762C41.4329 57.7137 41.3942 57.7819 41.326 57.8991C41.2535 57.9068 41.1618 57.9123 41.0938 57.8815C41.0845 57.8773 41.0756 57.8726 41.067 57.8673C41.0583 57.862 41.05 57.8562 41.0421 57.8499C41.0342 57.8436 41.0267 57.8368 41.0197 57.8295C41.0127 57.8223 41.0061 57.8146 41 57.8065C40.9939 57.7984 40.9884 57.79 40.9834 57.7812C40.9783 57.7724 40.9739 57.7633 40.97 57.754C40.9661 57.7446 40.9628 57.7351 40.9602 57.7253C40.9575 57.7155 40.9554 57.7056 40.954 57.6956C40.9359 57.5755 40.9955 57.4685 41.0501 57.3672Z" fill="#2D2D2D"/>
<path d="M27.1194 53.9592C27.8314 53.8175 28.5428 53.6564 29.2613 53.5514C31.8456 53.1735 33.8965 53.403 36.4538 53.7896C36.5274 54.0902 36.6115 54.3878 36.7061 54.6825C36.8007 54.9771 36.9057 55.268 37.0209 55.5553C37.1362 55.8425 37.2614 56.1253 37.3967 56.4036C37.5319 56.682 37.6768 56.9552 37.8313 57.2233C38.6327 58.6138 39.7428 59.9336 40.1303 61.518C40.3683 62.4302 40.3437 63.3632 40.2879 64.2967C40.27 64.5962 40.2033 64.9297 40.2309 65.2271C40.2434 65.3628 40.2856 65.5082 40.4091 65.584C40.5159 65.6494 40.7104 65.6597 40.8284 65.6129C40.9477 65.5654 41.0327 65.4868 41.0823 65.3689C41.2113 65.0626 41.1392 64.5075 41.1008 64.1749C41.1134 63.9743 41.102 63.7643 41.102 63.5629C41.0808 63.1809 41.0403 62.8909 41.2015 62.5324C41.4728 62.1258 41.6739 61.6223 41.9113 61.1906C42.7409 59.6812 43.4718 58.4118 44.0302 56.7651C44.7743 57.3206 45.6302 57.7269 46.4299 58.1925C47.4953 58.8129 48.462 59.644 49.7105 59.8756C49.5807 61.2411 49.0107 62.6907 48.0272 63.6693C47.9113 63.7825 47.7901 63.8899 47.6636 63.9913C47.5372 64.0927 47.4061 64.1877 47.2704 64.2763C47.1346 64.3649 46.9949 64.4467 46.8512 64.5216C46.7074 64.5965 46.5604 64.6642 46.41 64.7247C44.4552 65.5227 40.6581 65.8737 38.5367 65.8759C36.1405 65.8784 34.2985 65.5593 31.9818 65.108C31.1313 64.9424 30.2211 64.8033 29.4167 64.4735C29.0334 64.3163 28.6764 64.1049 28.3841 63.8086C28.1071 63.5279 27.9188 63.1878 27.7442 62.8373C26.8087 60.9613 27.0216 58.8108 27.0855 56.7841C27.1141 55.8427 27.1254 54.9011 27.1194 53.9592Z" fill="#F2C94C"/>
<path d="M43.5829 64.8555C43.6918 64.8802 43.7619 64.8923 43.8421 64.9773C43.8587 65.0972 43.832 65.1165 43.7746 65.2194C43.7638 65.2192 43.753 65.2196 43.7423 65.2189C43.6244 65.2114 43.5691 65.1909 43.4898 65.1088C43.4889 64.9844 43.518 64.9584 43.5829 64.8555Z" fill="#5E5B56"/>
<path d="M44.2715 58.8105C44.3789 58.8279 44.4672 58.8306 44.5453 58.9148C44.5796 59.0246 44.546 59.1002 44.5121 59.2044C44.371 59.1947 44.3158 59.1859 44.2196 59.0851C44.2011 58.9666 44.2257 58.9167 44.2715 58.8105Z" fill="#2D2D2D"/>
<path d="M43.4222 61.7324C43.5533 61.7561 43.6164 61.7728 43.7011 61.8737C43.7233 61.9927 43.688 62.0635 43.6432 62.1704C43.6306 62.169 43.618 62.1682 43.6055 62.1661C43.4825 62.1455 43.4283 62.1119 43.3579 62.0152C43.3427 61.8974 43.3736 61.8353 43.4222 61.7324Z" fill="#5E5B56"/>
<path d="M45.0405 60.25C45.1616 60.3183 45.2225 60.3574 45.2843 60.4859C45.2798 60.6094 45.2219 60.6754 45.1524 60.7709C45.0208 60.7234 44.983 60.6895 44.9238 60.5673C44.9258 60.4353 44.9758 60.3595 45.0405 60.25Z" fill="#5E5B56"/>
<path d="M42.518 64.9375C42.6601 64.9473 42.77 64.9759 42.8767 65.0741C42.9079 65.2056 42.8835 65.216 42.8227 65.3315C42.7848 65.3416 42.7163 65.3654 42.6746 65.363C42.562 65.3565 42.5428 65.3325 42.4745 65.2536C42.4513 65.1251 42.4746 65.0552 42.518 64.9375Z" fill="#2D2D2D"/>
<path d="M46.2831 59.3955C46.3581 59.4155 46.4218 59.4406 46.4917 59.4743C46.4342 59.5161 46.3691 59.5447 46.3056 59.5766C46.2776 59.6875 46.4514 59.7241 46.5302 59.8788C46.4998 59.8999 46.4451 59.944 46.4068 59.9538C46.3051 59.9796 46.265 59.9682 46.1761 59.9271C46.1192 59.8561 46.1043 59.8037 46.1035 59.7144C46.1023 59.572 46.192 59.4909 46.2831 59.3955Z" fill="#2D2D2D"/>
<path d="M41.3766 64.9746C41.4134 64.9846 41.4487 64.9916 41.4812 65.0139C41.5602 65.0683 41.6157 65.1632 41.6216 65.2586C41.6294 65.3852 41.5801 65.4442 41.5047 65.5338C41.4477 65.5107 41.3831 65.488 41.3316 65.4542C41.2434 65.3964 41.2289 65.3359 41.2051 65.239C41.2343 65.1148 41.2902 65.0613 41.3766 64.9746Z" fill="#2D2D2D"/>
<path d="M48.9583 59.9893C49.0297 60.0913 49.0401 60.1129 49.0525 60.2364C48.9787 60.4563 48.77 60.5365 48.5778 60.6321C48.5281 60.573 48.5196 60.5758 48.5073 60.4947C48.6207 60.2943 48.7937 60.1473 48.9583 59.9893Z" fill="#2D2D2D"/>
<path d="M46.9319 59.4297C47.032 59.443 47.1299 59.449 47.2136 59.511C47.2665 59.5503 47.2563 59.568 47.267 59.6271L47.1843 59.7087L47.1856 59.7662C47.207 59.7769 47.2281 59.7887 47.2502 59.7982C47.2746 59.8087 47.3 59.8171 47.3249 59.8265L47.3285 59.9436C47.2734 59.9622 47.2084 59.9822 47.1495 59.983C47.0456 59.9845 46.9952 59.9561 46.9177 59.8925C46.8413 59.7206 46.8776 59.5991 46.9319 59.4297Z" fill="#5E5B56"/>
<path d="M30.6264 63.2744C30.7378 63.2768 30.858 63.2739 30.9484 63.3512C31.0227 63.4149 31.0605 63.4907 31.0581 63.5896C31.0549 63.7195 30.9745 63.8114 30.8942 63.9039C30.8028 63.9039 30.7029 63.9086 30.6213 63.8611C30.6117 63.8556 30.6025 63.8496 30.5936 63.843C30.5847 63.8364 30.5762 63.8294 30.5681 63.8218C30.56 63.8143 30.5524 63.8063 30.5453 63.7979C30.5382 63.7894 30.5316 63.7806 30.5255 63.7714C30.5193 63.7622 30.5137 63.7527 30.5087 63.7429C30.5037 63.733 30.4993 63.7228 30.4955 63.7125C30.4917 63.7021 30.4885 63.6916 30.4859 63.6808C30.4833 63.6701 30.4814 63.6592 30.4801 63.6482C30.4612 63.4911 30.5334 63.3887 30.6264 63.2744Z" fill="#2D2D2D"/>
<path d="M46.0118 61.5266C46.1426 61.5147 46.2835 61.4911 46.3943 61.5808C46.4692 61.6413 46.4957 61.7174 46.491 61.8122C46.4849 61.9323 46.3992 62.0208 46.3242 62.1054C46.2243 62.1102 46.1184 62.1203 46.0263 62.0731C45.9513 62.0346 45.89 61.9662 45.8748 61.8816C45.8484 61.735 45.9279 61.6334 46.0118 61.5266Z" fill="#2D2D2D"/>
<path d="M34.7185 62.9521C34.8203 62.9671 34.9224 62.9812 35.0047 63.0485C35.0778 63.1082 35.1213 63.1927 35.1204 63.2877C35.1189 63.4499 35.0258 63.5416 34.9182 63.6458C34.8356 63.6357 34.7481 63.6303 34.6789 63.5783C34.5954 63.5156 34.5443 63.447 34.5379 63.3394C34.5279 63.1711 34.6129 63.0681 34.7185 62.9521Z" fill="#2D2D2D"/>
<path d="M37.182 61.5601C37.3057 61.556 37.4377 61.5418 37.5392 61.6276C37.609 61.6865 37.652 61.7577 37.6491 61.851C37.645 61.9814 37.5659 62.0668 37.4827 62.1569C37.3861 62.1764 37.2766 62.1915 37.1855 62.1443C37.1022 62.1012 37.0516 62.0234 37.042 61.9307C37.0256 61.7737 37.0924 61.6771 37.182 61.5601Z" fill="#2D2D2D"/>
<path d="M29.176 62.4894C29.3052 62.4882 29.4178 62.4958 29.5268 62.572C29.6153 62.6339 29.6708 62.7165 29.6836 62.8246C29.7043 62.9991 29.6231 63.1048 29.5207 63.2336C29.3693 63.2533 29.2399 63.2729 29.116 63.1594C29.036 63.0861 29.0085 63.0033 29.0023 62.8975C28.9925 62.7326 29.0711 62.6069 29.176 62.4894Z" fill="#2D2D2D"/>
<path d="M46.1372 63.4326C46.1943 63.4332 46.252 63.4327 46.3087 63.4407C46.4482 63.4603 46.5919 63.5336 46.6684 63.6556C46.7207 63.7389 46.7324 63.8377 46.7039 63.9315C46.6541 64.0948 46.5343 64.1612 46.397 64.243C46.3396 64.2484 46.3332 64.2504 46.2692 64.2487C46.1282 64.245 45.9773 64.185 45.8925 64.0683C45.8272 63.9785 45.8177 63.8782 45.837 63.7719C45.8674 63.6039 46.0032 63.516 46.1372 63.4326Z" fill="#2D2D2D"/>
<path d="M47.1619 62.7569C47.359 62.7556 47.5603 62.7772 47.7068 62.9238C47.7881 63.0053 47.8382 63.1067 47.8221 63.2251C47.7992 63.3928 47.6877 63.4881 47.5599 63.5831C47.3865 63.621 47.2116 63.6447 47.0584 63.5317C46.976 63.471 46.9401 63.3854 46.9275 63.2866C46.9001 63.0734 47.0314 62.9063 47.1619 62.7569Z" fill="#2D2D2D"/>
<path d="M44.3325 63.87C44.4086 63.8632 44.485 63.8572 44.5614 63.8622C44.6998 63.8711 44.8085 63.9369 44.8926 64.0461C44.9699 64.1464 44.9986 64.267 44.9781 64.3915C44.9445 64.5952 44.8223 64.703 44.6587 64.8126C44.5982 64.8132 44.5375 64.8138 44.4771 64.8106C44.3475 64.8038 44.2197 64.7499 44.1376 64.6452C44.0608 64.5472 44.0255 64.4433 44.0413 64.3183C44.0671 64.1124 44.1767 63.9947 44.3325 63.87Z" fill="#2D2D2D"/>
<path d="M47.6167 60.5801C47.6681 60.5828 47.7197 60.5856 47.7708 60.593C47.9106 60.6131 48.0338 60.6985 48.1113 60.8161C48.1874 60.9314 48.2061 61.0656 48.1768 61.1995C48.1307 61.4108 48.0196 61.4904 47.8418 61.5983C47.6747 61.5952 47.5253 61.5883 47.3993 61.4644C47.2946 61.3615 47.2577 61.22 47.276 61.0776C47.3058 60.8448 47.4336 60.7112 47.6167 60.5801Z" fill="#2D2D2D"/>
<path d="M47.643 60.915C47.6937 60.9446 47.7316 60.9793 47.7755 61.0178C47.805 61.1293 47.7844 61.1659 47.7529 61.2746C47.6648 61.2536 47.6327 61.2398 47.573 61.1711C47.5549 61.0689 47.5987 61.0031 47.643 60.915Z" fill="#F2C94C"/>
</g>
<defs>
<linearGradient id="paint0_linear_1096_35683" x1="38.0466" y1="59.7649" x2="40.0919" y2="59.2712" gradientUnits="userSpaceOnUse">
<stop stop-color="#FFFB23"/>
<stop offset="1" stop-color="white"/>
</linearGradient>
<linearGradient id="paint1_linear_1096_35683" x1="38.4091" y1="49.8554" x2="38.0562" y2="49.4535" gradientUnits="userSpaceOnUse">
<stop stop-color="#4F514C"/>
<stop offset="1" stop-color="#6A605D"/>
</linearGradient>
<clipPath id="clip0_1096_35683">
<rect width="80" height="80" fill="white"/>
</clipPath>
</defs>
</svg>
