<svg width="170" height="80" viewBox="0 0 170 80" fill="none" xmlns="http://www.w3.org/2000/svg">
<mask id="mask0_1062_16171" style="mask-type:luminance" maskUnits="userSpaceOnUse" x="10" y="10" width="60" height="60">
<path d="M70 10H10V70H70V10Z" fill="white"/>
</mask>
<g mask="url(#mask0_1062_16171)">
<path d="M54.8371 64.0091C54.7361 63.8442 54.5689 63.5754 54.4678 63.4105L53.7096 62.1846C53.6086 62.0197 53.4413 61.7509 53.3403 61.586L52.5819 60.3578C52.4809 60.1929 52.3148 59.924 52.2127 59.7603L51.4546 58.5345C51.3537 58.3707 51.1875 58.1006 51.0854 57.937L50.3279 56.7063C50.277 56.6267 50.198 56.5691 50.1067 56.5449C50.0153 56.5207 49.9182 56.5316 49.8345 56.5756L46.5632 58.1192C46.4758 58.1558 46.4053 58.2241 46.3659 58.3103C46.3265 58.3966 46.321 58.4945 46.3505 58.5846L47.5095 61.9742C47.5723 62.1573 47.6781 62.4572 47.7362 62.6396L48.2026 64.0046L48.4305 64.67L48.8957 66.035C48.9108 66.0778 48.917 66.1233 48.9137 66.1685C48.9105 66.2138 48.8979 66.2579 48.8769 66.2981C48.8557 66.3382 48.8265 66.3736 48.791 66.402C48.7556 66.4303 48.7147 66.4511 48.6709 66.4628C48.6709 66.4628 45.0344 67.4816 42.9098 67.705C40.8349 67.925 38.7419 67.912 36.6699 67.666C34.5732 67.4152 30.9342 66.3368 30.9342 66.3368C30.8907 66.3241 30.8502 66.3025 30.8153 66.2735C30.7804 66.2446 30.7518 66.2087 30.7313 66.1682C30.7108 66.1278 30.6989 66.0835 30.6962 66.0382C30.6935 65.9929 30.7001 65.9476 30.7156 65.9049L31.2021 64.5482C31.2666 64.3658 31.3744 64.0681 31.4388 63.8858L31.9302 62.5297C31.9947 62.3473 32.1012 62.0498 32.167 61.8685L32.6535 60.5117C32.7182 60.3305 32.8246 60.0318 32.8904 59.8505L33.3753 58.4892C33.4058 58.3997 33.4015 58.302 33.3634 58.2154C33.3253 58.1289 33.256 58.0598 33.1694 58.0218L29.9226 56.4261C29.8396 56.3808 29.7426 56.3684 29.651 56.3914C29.5593 56.4144 29.4796 56.471 29.4277 56.55L28.6527 57.7628C28.5519 57.9254 28.3774 58.1923 28.2743 58.3552L27.4992 59.5785C27.4752 59.6171 27.4435 59.6502 27.406 59.6759C27.3686 59.7016 27.3263 59.7193 27.2817 59.7279C27.2372 59.7364 27.1913 59.7357 27.147 59.7257C27.1027 59.7156 27.061 59.6966 27.0244 59.6697L23.4657 56.7882C23.4317 56.758 23.4044 56.7212 23.3854 56.68C23.3664 56.6388 23.3561 56.594 23.3552 56.5487C23.3543 56.5033 23.3628 56.4582 23.3802 56.4163C23.3975 56.3743 23.4234 56.3364 23.4561 56.3049L24.4832 55.2931L24.984 54.7998L26.0089 53.7894C26.0755 53.7222 26.1143 53.6325 26.1177 53.538C26.1211 53.4436 26.0888 53.3513 26.0272 53.2796L23.7909 50.4358C23.7358 50.3589 23.6538 50.3055 23.5612 50.2863C23.4686 50.267 23.3722 50.2832 23.291 50.3316L22.065 51.0886L21.4675 51.4578L20.2411 52.2113L19.6425 52.5806L18.4166 53.3388L17.818 53.7081L16.5921 54.4663L15.9912 54.8358L14.7746 55.593C14.7358 55.6164 14.7023 55.6475 14.6761 55.6844C14.6499 55.7214 14.6316 55.7634 14.6225 55.8077C14.6133 55.8521 14.6134 55.8978 14.6228 55.9422C14.6322 55.9865 14.6506 56.0284 14.677 56.0652C14.677 56.0652 17.0604 59.4674 18.6289 61.0605C21.7941 64.2711 25.6403 66.7294 29.8833 68.2537C31.9966 69.0108 34.1886 69.5273 36.4176 69.7935C40.8952 70.3207 45.4339 69.8434 49.7037 68.3963C51.8574 67.6643 55.4719 65.6981 55.4719 65.6981C55.5119 65.6766 55.5471 65.6471 55.5751 65.6115C55.6032 65.5759 55.6237 65.5349 55.6353 65.491C55.647 65.4472 55.6496 65.4014 55.6427 65.3565C55.6359 65.3117 55.62 65.2687 55.5959 65.2302L54.8371 64.0091ZM25.1908 63.1866C25.1669 63.2251 25.1353 63.2582 25.098 63.2839C25.0607 63.3096 25.0185 63.3273 24.974 63.3358C24.9295 63.3444 24.8837 63.3436 24.8395 63.3336C24.7954 63.3236 24.7537 63.3045 24.7173 63.2777L20.4114 59.7913C20.3776 59.7612 20.3503 59.7245 20.3313 59.6834C20.3123 59.6422 20.3021 59.5976 20.3012 59.5523C20.3003 59.507 20.3088 59.462 20.3261 59.4202C20.3435 59.3784 20.3693 59.3406 20.402 59.3092L21.428 58.2975C21.4966 58.2324 21.5871 58.1952 21.6817 58.1933C21.7764 58.1914 21.8683 58.225 21.9395 58.2873L25.8705 61.4702C25.9463 61.5268 25.9982 61.6098 26.016 61.7027C26.0339 61.7957 26.0164 61.8919 25.9669 61.9726L25.1908 63.1866Z" fill="#F2C94C"/>
<path d="M69.8357 36.8621C70.072 39.0969 70.0582 41.3512 69.7944 43.5829C69.5264 45.8417 68.3552 49.7862 68.3552 49.7862C68.3425 49.8298 68.3209 49.8703 68.2919 49.9052C68.2629 49.9401 68.227 49.9686 68.1866 49.9891C68.1461 50.0096 68.1019 50.0215 68.0566 50.0243C68.0114 50.027 67.966 50.0204 67.9233 50.0049L66.571 49.5167L65.9087 49.28L64.552 48.7934L63.8896 48.5567L62.5305 48.0704L61.8692 47.8335L60.5124 47.347C60.4229 47.3165 60.3252 47.3208 60.2386 47.3589C60.1521 47.397 60.083 47.4663 60.0451 47.5529L58.2367 51.2309C58.1916 51.3139 58.1794 51.4109 58.2023 51.5025C58.2253 51.5941 58.2818 51.6738 58.3607 51.7257L59.5758 52.5018L60.1683 52.8814L61.3822 53.6551L61.9746 54.0335L63.1886 54.8096L63.781 55.188L64.9949 55.963C65.0334 55.9869 65.0665 56.0187 65.0922 56.056C65.1179 56.0934 65.1357 56.1357 65.1442 56.1804C65.1528 56.225 65.152 56.2709 65.1419 56.3151C65.1319 56.3594 65.113 56.4011 65.0861 56.4377L61.2983 61.1157C61.2682 61.1497 61.2312 61.1769 61.1901 61.1959C61.1489 61.215 61.1041 61.2253 61.0587 61.2262C61.0133 61.2271 60.9683 61.2186 60.9264 61.2012C60.8844 61.1839 60.8464 61.158 60.8151 61.1253L59.8044 60.0992C59.6721 59.9611 59.4459 59.7362 59.3112 59.5984L58.2988 58.5784C58.1665 58.4403 57.9414 58.2154 57.8056 58.0777L56.7961 57.0515L56.3015 56.5497L55.2898 55.5224C55.1574 55.3843 54.9322 55.1595 54.7964 55.0218L53.786 53.9967C53.7209 53.9282 53.6836 53.8377 53.6817 53.743C53.6798 53.6483 53.7134 53.5565 53.7758 53.4853C53.7758 53.4853 55.4783 51.6012 56.2576 50.3833C57.0362 49.1667 57.6754 47.8661 58.1629 46.5065C58.6446 45.1596 59.0922 42.6487 59.0922 42.6487C59.1098 42.5556 59.162 42.4725 59.2381 42.416C59.3143 42.3595 59.409 42.3338 59.5033 42.3439L63.0598 42.7723L63.7577 42.8556L65.19 43.0279L65.888 43.1112L67.3201 43.2834C67.3651 43.2893 67.4108 43.2859 67.4544 43.2733C67.498 43.2607 67.5385 43.2392 67.5735 43.2102C67.6084 43.1812 67.6369 43.1453 67.6573 43.1047C67.6777 43.0642 67.6894 43.0198 67.6919 42.9745C67.6919 42.9745 67.9318 39.2057 67.7084 37.0811C67.4849 34.9565 66.4662 31.32 66.4662 31.32C66.4543 31.2762 66.4337 31.2353 66.4053 31.1999C66.3769 31.1644 66.3415 31.1352 66.3013 31.1141C66.2611 31.093 66.217 31.0804 66.1718 31.0772C66.1265 31.0739 66.081 31.08 66.0383 31.0952L64.6733 31.5604L64.0079 31.7883L62.643 32.2547L61.9774 32.4813L60.6125 32.9478L59.952 33.1882L58.587 33.6546C58.4969 33.6841 58.3989 33.6786 58.3127 33.6392C58.2266 33.5998 58.1582 33.5294 58.1215 33.4419L56.578 30.1706C56.5341 30.0869 56.5231 29.9897 56.5473 29.8985C56.5715 29.8071 56.6291 29.7282 56.7087 29.6773L57.9348 28.9203L58.5323 28.5511L59.76 27.788L60.3574 27.4188L61.5833 26.6607L62.182 26.2913L63.4078 25.5332C63.4466 25.5098 63.4801 25.4787 63.5063 25.4417C63.5325 25.4048 63.5507 25.3628 63.5599 25.3185C63.5691 25.2741 63.5689 25.2283 63.5596 25.184C63.5502 25.1397 63.5317 25.0978 63.5054 25.061C63.5054 25.061 61.3064 21.9222 59.8501 20.4445C58.3849 18.9576 56.7575 17.6398 54.9983 16.516C53.2505 15.4037 49.7223 13.9011 49.7223 13.9011C49.635 13.8626 49.5656 13.7926 49.5276 13.7052C49.4896 13.6177 49.4858 13.5191 49.5171 13.429L50.0047 12.0815C50.0195 12.0387 50.0429 11.9994 50.0736 11.9661C50.1043 11.9328 50.1416 11.9062 50.1831 11.888C50.2246 11.8698 50.2693 11.8604 50.3146 11.8604C50.3599 11.8604 50.4047 11.8697 50.4462 11.8878C50.4462 11.8878 54.2697 13.5113 56.1543 14.7141C59.9531 17.1421 63.1578 20.3927 65.5315 24.2258C66.7116 26.1354 67.673 28.1719 68.3971 30.2968C69.1195 32.4249 69.6019 34.6269 69.8357 36.8621Z" fill="#F2C94C"/>
<path d="M44.2621 39.5513C44.2959 39.8704 44.2942 40.1923 44.2569 40.511C44.232 40.7142 44.1921 40.9154 44.1376 41.1127C44.0816 41.2977 44.0374 41.4496 44.0374 41.4496L43.8996 41.7741C43.8175 41.9602 43.7218 42.14 43.6133 42.312C43.4403 42.5823 43.2378 42.8324 43.0094 43.0578C42.8638 43.1998 42.7078 43.3308 42.5428 43.4498L42.2539 43.651L41.9451 43.8178C41.7636 43.9129 41.5753 43.9942 41.3816 44.0609C40.7716 44.2665 40.1237 44.3346 39.4842 44.2604C39.2809 44.2355 39.0797 44.1952 38.8824 44.1399L38.5548 44.04L38.2305 43.9021C38.0444 43.8201 37.8646 43.7244 37.6925 43.6158C37.4223 43.4428 37.1722 43.2403 36.9468 43.012C36.8048 42.8663 36.6737 42.7103 36.5547 42.5453L36.3485 42.2536C36.3485 42.2536 36.2738 42.1141 36.1806 41.9448C36.0862 41.7631 36.0053 41.5747 35.9386 41.3811C35.7331 40.7711 35.6648 40.1232 35.739 39.4838C35.7639 39.2805 35.8038 39.0794 35.8584 38.882C35.9143 38.697 35.9585 38.5451 35.9585 38.5451L36.0965 38.2207C36.1785 38.0346 36.2742 37.8548 36.3828 37.6827C36.5557 37.4125 36.7583 37.1624 36.9866 36.937C37.1323 36.795 37.2881 36.664 37.4531 36.545L37.7418 36.3426L38.0505 36.1746C38.2322 36.0802 38.4207 35.9994 38.6143 35.9327C39.2243 35.7271 39.8722 35.659 40.5117 35.7332C40.7149 35.7581 40.916 35.798 41.1134 35.8525L41.4502 35.9526L41.7747 36.0905C41.9609 36.1726 42.1406 36.2683 42.3126 36.3768C42.5828 36.5498 42.833 36.7523 43.0584 36.9807C43.2003 37.1263 43.3314 37.2823 43.4503 37.4473L43.6527 37.7359C43.6527 37.7359 43.7276 37.8754 43.8208 38.0447C43.9152 38.2264 43.996 38.4148 44.0626 38.6084C44.1641 38.9143 44.2309 39.2305 44.2621 39.5513Z" fill="#F2C94C"/>
<path d="M45.7834 23.8553C44.5751 23.4212 43.3213 23.1261 42.0463 22.9757C40.7973 22.8302 38.5588 22.9348 38.5588 22.9348C38.5135 22.9365 38.4689 22.9475 38.4281 22.9672C38.3872 22.9869 38.3508 23.0148 38.3212 23.0493C38.2917 23.0837 38.2695 23.1239 38.2562 23.1672C38.2429 23.2106 38.2387 23.2563 38.2439 23.3014L38.8426 28.9946C38.8538 29.0887 38.8999 29.1751 38.9719 29.2368C39.0439 29.2984 39.1364 29.3307 39.2311 29.3273L40.9278 29.3374C40.9731 29.3398 41.0174 29.3515 41.058 29.3719C41.0985 29.3923 41.1345 29.4208 41.1635 29.4557C41.1925 29.4906 41.214 29.5311 41.2266 29.5747C41.2392 29.6183 41.2426 29.664 41.2367 29.709L41.0656 31.141C41.0434 31.3331 41.0011 31.6474 40.9823 31.8391L40.8101 33.2712C40.8003 33.3653 40.8261 33.4596 40.8826 33.5355C40.939 33.6114 41.0219 33.6634 41.1148 33.6811L41.8273 33.8453C41.9182 33.8712 42.0156 33.8618 42.1 33.8191C42.1844 33.7764 42.2496 33.7035 42.2826 33.6148L42.7681 32.2593L43.006 31.5968L43.4915 30.2414C43.5064 30.1985 43.5299 30.1592 43.5607 30.1258C43.5915 30.0925 43.6289 30.0659 43.6705 30.0477C43.712 30.0295 43.7569 30.0201 43.8023 30.0201C43.8477 30.02 43.8926 30.0294 43.9342 30.0475L45.4575 30.7958C45.5403 30.8415 45.6373 30.8543 45.7291 30.8315C45.8208 30.8087 45.9006 30.7522 45.9525 30.6731L46.7286 29.459L47.107 28.8666L47.8818 27.6516L48.2602 27.0591L49.0363 25.8451C49.0611 25.8071 49.0778 25.7644 49.0854 25.7196C49.093 25.6748 49.0912 25.629 49.0803 25.5849C49.0694 25.5408 49.0495 25.4995 49.0218 25.4634C48.9942 25.4274 48.9595 25.3975 48.9197 25.3754C48.9197 25.3754 46.9993 24.2907 45.7834 23.8553ZM44.4562 27.5605C44.423 27.6493 44.3577 27.7224 44.2732 27.7653C44.1887 27.8082 44.0911 27.8179 43.9998 27.7923L41.8805 27.2929C41.7877 27.2747 41.705 27.2224 41.6488 27.1463C41.5926 27.0702 41.5669 26.9759 41.5769 26.8818L41.7479 25.4498C41.753 25.4048 41.7672 25.3612 41.7899 25.322C41.8125 25.2827 41.8429 25.2485 41.8794 25.2216C41.9158 25.1946 41.9574 25.1755 42.0016 25.1654C42.0457 25.1552 42.0915 25.1543 42.1361 25.1627L44.7228 25.7709C44.7665 25.7832 44.8072 25.8044 44.8423 25.8332C44.8773 25.862 44.9061 25.8978 44.9266 25.9383C44.9471 25.9787 44.959 26.023 44.9616 26.0684C44.9641 26.1137 44.9572 26.159 44.9414 26.2015L44.4562 27.5605Z" fill="#4FDB40"/>
<path d="M55.0082 24.7209C55.0421 24.7511 55.0694 24.7879 55.0884 24.8292C55.1074 24.8704 55.1177 24.9151 55.1186 24.9605C55.1195 25.0059 55.111 25.0509 55.0936 25.0929C55.0763 25.1348 55.0504 25.1727 55.0177 25.2042L53.9928 26.2146C53.9241 26.2798 53.8336 26.3169 53.739 26.3188C53.6444 26.3207 53.5525 26.2872 53.4813 26.2248C53.4813 26.2248 51.6019 24.5218 50.384 23.7426C47.9432 22.1797 45.1803 21.1897 42.3024 20.8466C40.8979 20.6796 38.3351 20.8031 38.3351 20.8031C38.2404 20.8062 38.148 20.7738 38.0761 20.7123C38.0042 20.6507 37.958 20.5644 37.9466 20.4704L37.1235 12.6444C37.1192 12.5992 37.1056 12.5554 37.0835 12.5158C37.0615 12.4761 37.0315 12.4414 36.9954 12.4139C36.9593 12.3864 36.9179 12.3666 36.8738 12.3559C36.8298 12.3451 36.7839 12.3436 36.7392 12.3513L31.3257 13.5369C31.2819 13.5487 31.241 13.5695 31.2055 13.5978C31.1701 13.6262 31.1409 13.6616 31.1198 13.7017C31.0987 13.7419 31.0861 13.786 31.0829 13.8313C31.0796 13.8765 31.0857 13.922 31.1009 13.9648L31.5661 15.3298L31.794 15.9952L32.2604 17.3602C32.322 17.5422 32.4289 17.842 32.4871 18.0256L32.9535 19.3906L33.1888 20.0481L33.6552 21.4131C33.6847 21.5032 33.6792 21.6011 33.6398 21.6873C33.6004 21.7736 33.53 21.8418 33.4426 21.8785C33.4426 21.8785 31.0757 22.8344 29.8625 23.59C28.634 24.3498 27.4949 25.2455 26.4669 26.2602C25.4376 27.2734 23.9538 29.3325 23.9538 29.3325C23.8971 29.4083 23.8142 29.4602 23.7212 29.4781C23.6283 29.4959 23.532 29.4784 23.4513 29.429L22.2386 28.6539L21.6462 28.2755L20.4214 27.4982L19.8289 27.1186L18.6194 26.3408L18.027 25.9624L16.813 25.1863C16.7749 25.1618 16.7322 25.1453 16.6876 25.1379C16.6429 25.1305 16.5972 25.1324 16.5532 25.1434C16.5093 25.1545 16.4681 25.1744 16.4322 25.202C16.3963 25.2296 16.3665 25.2643 16.3446 25.3039C16.3446 25.3039 14.4724 28.6222 13.7634 30.5975C13.0601 32.5615 12.5806 34.5986 12.334 36.6701C12.0914 38.6988 12.2781 42.5583 12.2781 42.5583C12.2798 42.6036 12.2908 42.6481 12.3105 42.689C12.3302 42.7299 12.3582 42.7663 12.3926 42.7958C12.427 42.8254 12.4672 42.8475 12.5105 42.8609C12.5539 42.8742 12.5996 42.8784 12.6447 42.8732L18.3391 42.2743C18.4331 42.2629 18.5194 42.2167 18.5809 42.1448C18.6425 42.0729 18.6749 41.9805 18.6717 41.8858C18.6717 41.8858 18.532 38.9995 18.719 37.4385C18.9101 35.8277 19.7153 33.1082 19.7153 33.1082C19.7276 33.0646 19.7488 33.0239 19.7776 32.9888C19.8064 32.9537 19.8422 32.925 19.8827 32.9045C19.9231 32.884 19.9674 32.8721 20.0128 32.8695C20.0581 32.867 20.1034 32.8739 20.1459 32.8897L21.5107 33.3743C21.5992 33.4075 21.672 33.4727 21.7147 33.557C21.7574 33.6414 21.7669 33.7386 21.7413 33.8296C21.7413 33.8296 21.0232 36.2453 20.8515 37.6939C20.6801 39.1292 20.6698 40.5792 20.8207 42.0169C20.975 43.4842 21.6506 45.8971 21.6506 45.8971C21.6747 45.9887 21.6636 46.0861 21.6194 46.17C21.5752 46.2538 21.5011 46.318 21.4119 46.3499L18.0223 47.5088L17.3568 47.7355L15.9919 48.2019L15.3264 48.4287L13.9614 48.8951L13.2961 49.1229L11.931 49.5882C11.8883 49.6024 11.8431 49.6077 11.7982 49.6037C11.7534 49.5998 11.7098 49.5866 11.6702 49.5652C11.6306 49.5437 11.5959 49.5144 11.5681 49.479C11.5403 49.4435 11.5201 49.4028 11.5086 49.3592C11.5086 49.3592 10.4052 45.4218 10.165 43.1375C9.92867 40.9027 9.94256 38.6484 10.2064 36.4166C10.7388 31.9401 12.2786 27.6423 14.7101 23.8462C15.9248 21.9509 18.7036 18.8837 18.7036 18.8837C18.7338 18.8498 18.7706 18.8225 18.8118 18.8035C18.8531 18.7845 18.8978 18.7742 18.9431 18.7733C18.9885 18.7724 19.0336 18.7809 19.0756 18.7982C19.1175 18.8156 19.1554 18.8414 19.1869 18.8741L20.1974 19.9002C20.3298 20.0383 20.5561 20.2631 20.6908 20.401L21.7025 21.427C21.8348 21.565 22.06 21.79 22.1958 21.9277L23.2052 22.9539L23.6997 23.4546L24.7115 24.4817C24.7788 24.548 24.8685 24.5867 24.9628 24.5901C25.0572 24.5934 25.1494 24.5613 25.2213 24.5L28.4415 21.9661C28.5184 21.911 28.5717 21.829 28.591 21.7364C28.6103 21.6438 28.5941 21.5474 28.5456 21.4661L27.7887 20.2401C27.6866 20.0765 27.5205 19.8076 27.4195 19.6427L26.6613 18.4168L26.292 17.8182L25.5338 16.5923C25.4328 16.4273 25.2655 16.1586 25.1645 15.9937L24.407 14.7736C24.3829 14.7352 24.367 14.6922 24.3602 14.6473C24.3534 14.6024 24.3559 14.5567 24.3676 14.5128C24.3792 14.4689 24.3997 14.4279 24.4278 14.3923C24.4559 14.3567 24.491 14.3272 24.531 14.3057C24.531 14.3057 28.145 12.3349 30.2975 11.603C32.4255 10.8807 34.6276 10.3981 36.8627 10.1643C39.147 9.92413 43.2278 10.1842 43.2278 10.1842C43.2731 10.1867 43.3175 10.1984 43.358 10.2188C43.3986 10.2392 43.4345 10.2677 43.4635 10.3026C43.4925 10.3375 43.514 10.378 43.5266 10.4216C43.5392 10.4652 43.5427 10.5109 43.5368 10.5559L43.3657 11.9879L43.2812 12.6861L43.1101 14.1181L43.0256 14.8163L42.8534 16.2485C42.8311 16.4394 42.7888 16.7549 42.7701 16.9466L42.5978 18.3787C42.5877 18.473 42.6135 18.5676 42.6699 18.6437C42.7264 18.7199 42.8095 18.772 42.9027 18.7897C42.9027 18.7897 45.7341 19.2932 47.2269 19.829C48.7373 20.3672 50.1821 21.0742 51.5338 21.9366C52.8901 22.7991 55.0082 24.7209 55.0082 24.7209Z" fill="#F2C94C"/>
<path d="M34.2834 36.3493C34.3625 36.4011 34.4191 36.4808 34.4421 36.5725C34.465 36.6642 34.4526 36.7612 34.4073 36.8441C34.2298 37.1632 34.0752 37.4944 33.9448 37.8354C33.6199 38.7434 33.504 39.713 33.6056 40.672C33.6516 41.0328 33.723 41.3899 33.8194 41.7407C33.8438 41.832 33.8329 41.9292 33.7888 42.0129C33.7448 42.0966 33.6708 42.1606 33.5817 42.1922L32.2167 42.6587L31.5542 42.8909L30.1891 43.3562L29.5252 43.5757L28.1603 44.0421L27.4949 44.2699L26.1298 44.7352L25.4645 44.9631L24.0994 45.4283C24.0567 45.4434 24.0113 45.4496 23.9661 45.4463C23.9209 45.443 23.8769 45.4304 23.8368 45.4093C23.7967 45.3881 23.7615 45.3589 23.7332 45.3235C23.705 45.288 23.6844 45.2471 23.6728 45.2033L22.9971 42.14C22.9893 42.0953 22.9908 42.0495 23.0016 42.0054C23.0124 41.9613 23.0321 41.9199 23.0596 41.8838C23.0872 41.8477 23.1218 41.8177 23.1615 41.7957C23.2012 41.7736 23.245 41.76 23.2901 41.7557L31.1138 40.9329C31.2079 40.9218 31.2944 40.8756 31.356 40.8036C31.4176 40.7316 31.4499 40.6391 31.4465 40.5444C31.4218 40.0213 31.4316 39.4971 31.4759 38.9753C31.5518 38.3381 31.6993 37.7115 31.9157 37.1073C32.1086 36.6203 32.3344 36.147 32.5916 35.6906C32.6135 35.6509 32.6433 35.6162 32.6793 35.5886C32.7152 35.561 32.7565 35.5411 32.8004 35.5302C32.8444 35.5193 32.8902 35.5175 32.9348 35.5251C32.9795 35.5327 33.0222 35.5494 33.0601 35.5742L34.2834 36.3493Z" fill="#4FDB40"/>
<path d="M36.845 45.5927C36.7621 45.5474 36.6651 45.535 36.5734 45.5579C36.4817 45.5809 36.402 45.6375 36.3502 45.7166L35.5753 46.9305L35.1969 47.5229L34.4218 48.7356C34.3978 48.7742 34.3661 48.8073 34.3287 48.833C34.2913 48.8587 34.249 48.8764 34.2044 48.885C34.1598 48.8935 34.1139 48.8928 34.0697 48.8828C34.0254 48.8727 33.9837 48.8537 33.9471 48.8268L32.6269 47.7578C32.593 47.7277 32.5656 47.6908 32.5466 47.6496C32.5276 47.6084 32.5174 47.5637 32.5165 47.5183C32.5156 47.4729 32.5241 47.4278 32.5414 47.3859C32.5588 47.3439 32.5846 47.306 32.6173 47.2746L33.6422 46.2642L34.143 45.7708L35.1691 44.7603C35.2356 44.6931 35.2745 44.6034 35.2778 44.5089C35.2812 44.4145 35.2489 44.3222 35.1874 44.2505L34.7303 43.6693C34.6748 43.5926 34.5926 43.5395 34.4998 43.5205C34.4071 43.5014 34.3106 43.5178 34.2293 43.5665L33.0045 44.3233L32.406 44.6938L31.1812 45.4507L30.5839 45.8222L29.359 46.5779L28.7605 46.9484L27.5345 47.7054L26.936 48.0759L25.7112 48.8328C25.6723 48.8562 25.6388 48.8875 25.6126 48.9246C25.5864 48.9616 25.5681 49.0037 25.559 49.0481C25.5498 49.0926 25.55 49.1384 25.5594 49.1828C25.5688 49.2272 25.5872 49.2692 25.6136 49.3061C25.6136 49.3061 26.8893 51.128 27.7861 52.0364C28.6886 52.9505 29.6899 53.7613 30.7717 54.4538C31.8468 55.1409 33.8943 56.0108 33.8943 56.0108C33.9359 56.0289 33.9808 56.0383 34.0262 56.0382C34.0715 56.0382 34.1164 56.0288 34.158 56.0106C34.1996 55.9924 34.2369 55.9658 34.2677 55.9325C34.2985 55.8991 34.3221 55.8598 34.337 55.8169L34.8225 54.4615L35.0604 53.799L35.5457 52.4423L35.7836 51.7798L36.2654 50.4224L36.5032 49.7599L36.9957 48.4037L37.2336 47.7412L37.7191 46.3857C37.7498 46.2961 37.7457 46.1983 37.7078 46.1115C37.6699 46.0248 37.6009 45.9554 37.5143 45.917L36.845 45.5927ZM29.5721 50.7669C29.5382 50.7367 29.5109 50.6999 29.4919 50.6587C29.4729 50.6174 29.4626 50.5727 29.4617 50.5273C29.4608 50.482 29.4693 50.4369 29.4866 50.3949C29.504 50.353 29.5298 50.3151 29.5625 50.2836L30.5898 49.273C30.6583 49.2076 30.7489 49.1702 30.8436 49.1684C30.9383 49.1665 31.0302 49.2002 31.1013 49.2628L32.7925 50.6321C32.8685 50.6886 32.9206 50.7715 32.9384 50.8645C32.9563 50.9575 32.9386 51.0539 32.8889 51.1345L32.1141 52.3495C32.0901 52.3881 32.0584 52.4212 32.021 52.4469C31.9836 52.4726 31.9412 52.4903 31.8967 52.4989C31.8521 52.5074 31.8062 52.5067 31.7619 52.4967C31.7177 52.4867 31.6759 52.4676 31.6394 52.4407L29.5721 50.7669Z" fill="#4FDB40"/>
<path d="M45.8223 49.4157L45.4519 48.8172L44.695 47.5924L44.3245 46.9939L43.5676 45.7691C43.5167 45.6878 43.4366 45.6291 43.3439 45.605C43.2511 45.5808 43.1526 45.5929 43.0685 45.6389C42.7482 45.8109 42.4162 45.96 42.0749 46.0851C41.6206 46.2394 41.1504 46.3425 40.6732 46.3928C40.3108 46.4229 39.9466 46.4273 39.5835 46.4061C39.4891 46.4012 39.3963 46.4321 39.3236 46.4926C39.2509 46.5531 39.2037 46.6387 39.1913 46.7325L39.019 48.1646C38.9956 48.3568 38.9544 48.671 38.9357 48.8627L38.7646 50.2947C38.7412 50.4868 38.7001 50.8011 38.6813 50.9928L38.5091 52.4249L38.4246 53.1231L38.2535 54.5551L38.1691 55.2533L37.998 56.6853L37.9135 57.3835L37.7412 58.8156C37.719 59.0077 37.6767 59.322 37.6579 59.5137L37.2295 63.0702C37.2061 63.2624 37.1651 63.5778 37.1462 63.7683L36.974 65.2004C36.9681 65.2454 36.9715 65.2912 36.9841 65.3348C36.9967 65.3783 37.0182 65.4189 37.0472 65.4538C37.0762 65.4887 37.1121 65.5172 37.1527 65.5376C37.1933 65.5579 37.2376 65.5697 37.2829 65.5721L42.3386 65.5895C42.384 65.5878 42.4285 65.5768 42.4694 65.5571C42.5103 65.5374 42.5466 65.5095 42.5762 65.475C42.6058 65.4406 42.6279 65.4004 42.6412 65.3571C42.6545 65.3137 42.6587 65.268 42.6536 65.2229L41.3824 53.1361C41.3738 53.0417 41.4009 52.9475 41.4585 52.8723C41.5161 52.797 41.5999 52.7462 41.6932 52.7298C41.6932 52.7298 43.264 52.4727 44.1582 52.169C45.0808 51.8551 46.4523 51.1029 46.4523 51.1029C46.4924 51.0817 46.5278 51.0525 46.5561 51.017C46.5844 50.9816 46.6051 50.9406 46.6167 50.8967C46.6284 50.8529 46.6308 50.8071 46.6239 50.7622C46.6169 50.7174 46.6008 50.6744 46.5764 50.6361L45.8223 49.4157ZM41.469 50.5982C41.4243 50.606 41.3785 50.6045 41.3344 50.5937C41.2903 50.583 41.2489 50.5632 41.2128 50.5357C41.1767 50.5082 41.1467 50.4735 41.1247 50.4338C41.1026 50.3942 41.089 50.3504 41.0847 50.3052L40.9342 48.874C40.9255 48.7797 40.9527 48.6855 41.0103 48.6102C41.0678 48.535 41.1516 48.4841 41.245 48.4678L42.4348 48.2072C42.5261 48.1825 42.6235 48.1933 42.7072 48.2374C42.791 48.2814 42.855 48.3556 42.8863 48.4448L43.3516 49.8099C43.3667 49.8527 43.3729 49.8981 43.3696 49.9434C43.3663 49.9887 43.3537 50.0328 43.3326 50.073C43.3115 50.1131 43.2823 50.1485 43.2469 50.1769C43.2115 50.2052 43.1706 50.2259 43.1267 50.2377L41.469 50.5982Z" fill="#4FDB40"/>
<path d="M54.1563 49.0408C54.1948 49.0648 54.2279 49.0965 54.2536 49.134C54.2793 49.1714 54.297 49.2137 54.3056 49.2583C54.3141 49.3029 54.3134 49.3487 54.3034 49.393C54.2934 49.4373 54.2743 49.479 54.2474 49.5156C54.2474 49.5156 52.9494 51.3135 52.0357 52.2156C51.1214 53.1172 50.1086 53.913 49.0165 54.5881C47.9379 55.2566 45.87 56.0974 45.87 56.0974C45.8281 56.1148 45.7832 56.1235 45.7379 56.1228C45.6925 56.122 45.6479 56.112 45.6066 56.0932C45.5654 56.0744 45.5285 56.0473 45.4982 56.0136C45.4679 55.9799 45.4449 55.9403 45.4306 55.8973L44.9654 54.5323C44.9361 54.4423 44.9416 54.3446 44.9807 54.2585C45.0198 54.1724 45.0898 54.1041 45.1768 54.067C45.1768 54.067 46.9444 53.3508 47.8892 52.766C48.8453 52.1756 49.7315 51.4788 50.5306 50.6889C51.3312 49.8977 52.4416 48.3669 52.4416 48.3669C52.4977 48.2907 52.5805 48.2385 52.6734 48.2207C52.7663 48.2028 52.8625 48.2206 52.9429 48.2706L54.1563 49.0408Z" fill="#4FDB40"/>
<path d="M29.2245 29.0615C29.29 29.1297 29.3275 29.2201 29.3293 29.3147C29.3312 29.4092 29.2974 29.501 29.2346 29.5718C29.2346 29.5718 27.9601 30.9772 27.3609 31.924C26.7545 32.87 26.2573 33.8817 25.8788 34.9397C25.4987 35.9872 25.1647 37.864 25.1647 37.864C25.1465 37.9569 25.0942 38.0395 25.0181 38.0957C24.942 38.1519 24.8477 38.1776 24.7536 38.1677L23.3216 37.9966C23.2765 37.9916 23.233 37.9773 23.1938 37.9547C23.1545 37.9321 23.1203 37.9016 23.0934 37.8652C23.0664 37.8287 23.0473 37.7871 23.0372 37.743C23.027 37.6988 23.0261 37.653 23.0345 37.6085C23.0345 37.6085 23.4232 35.4112 23.8561 34.2168C24.2893 33.0081 24.857 31.8519 25.5487 30.7701C26.2409 29.6887 27.7295 28.0451 27.7295 28.0451C27.7597 28.0111 27.7965 27.9838 27.8378 27.9648C27.879 27.9458 27.9237 27.9355 27.9691 27.9346C28.0145 27.9337 28.0595 27.9422 28.1015 27.9596C28.1434 27.9769 28.1813 28.0028 28.2128 28.0355L29.2245 29.0615Z" fill="#4FDB40"/>
<path d="M57.0484 38.2074C57.1838 39.484 57.1758 40.7718 57.0244 42.0466C56.8715 43.3376 56.2449 45.4468 56.2449 45.4468C56.2326 45.4904 56.2114 45.5311 56.1826 45.5662C56.1538 45.6013 56.118 45.63 56.0775 45.6505C56.0371 45.671 55.9928 45.6829 55.9474 45.6855C55.9021 45.688 55.8568 45.6811 55.8143 45.6653L54.4588 45.1798C54.37 45.1465 54.2969 45.0812 54.254 44.9967C54.2111 44.9122 54.2014 44.8147 54.227 44.7234C54.227 44.7234 54.7631 42.9195 54.8966 41.7908C55.0279 40.6976 54.9338 38.7833 54.9338 38.7833C54.9321 38.7379 54.9211 38.6934 54.9014 38.6525C54.8817 38.6116 54.8537 38.5753 54.8193 38.5457C54.7849 38.5161 54.7447 38.494 54.7013 38.4807C54.6579 38.4674 54.6123 38.4632 54.5672 38.4683L46.7435 39.2911C46.6492 39.2998 46.555 39.2726 46.4797 39.2151C46.4045 39.1575 46.3536 39.0737 46.3373 38.9803C46.2777 38.6221 46.1936 38.2683 46.0857 37.9216C45.9305 37.4658 45.7245 37.029 45.4716 36.6193C45.273 36.3129 45.0529 36.021 44.8129 35.7459C44.7514 35.6741 44.7191 35.5819 44.7224 35.4874C44.7258 35.393 44.7647 35.3032 44.8312 35.2361L45.8573 34.2256L46.358 33.7322L47.383 32.7218L47.8837 32.2284L48.9097 31.2168L49.4105 30.7234L50.4378 29.7128L50.9385 29.2194L51.9645 28.2077C51.9965 28.1755 52.0349 28.1503 52.0771 28.1336C52.1193 28.1168 52.1645 28.109 52.2099 28.1105C52.2553 28.1121 52.2998 28.1229 52.3408 28.1425C52.3818 28.162 52.4184 28.1897 52.4482 28.224L54.3868 30.6914C54.4132 30.7283 54.4317 30.7703 54.4411 30.8147C54.4505 30.8591 54.4506 30.9049 54.4414 30.9494C54.4323 30.9938 54.414 31.0359 54.3879 31.073C54.3617 31.11 54.3281 31.1413 54.2893 31.1648L53.0644 31.9216L52.4659 32.2921L51.2399 33.0491L50.6414 33.4196L49.4168 34.1788L48.8183 34.5493L47.5942 35.3131C47.5144 35.3639 47.4566 35.4428 47.4324 35.5342C47.4082 35.6257 47.4193 35.7229 47.4635 35.8065L47.9823 36.9079C48.0189 36.9951 48.087 37.0653 48.173 37.1047C48.2589 37.1441 48.3566 37.1498 48.4466 37.1206L49.8116 36.6554L50.4771 36.4287L51.8421 35.9623L52.5074 35.7344L55.8983 34.5765C55.941 34.5614 55.9864 34.5553 56.0316 34.5585C56.0768 34.5618 56.1208 34.5744 56.1609 34.5956C56.201 34.6167 56.2362 34.6459 56.2645 34.6813C56.2927 34.7168 56.3133 34.7577 56.3249 34.8015C56.3249 34.8015 56.9111 36.9021 57.0484 38.2074Z" fill="#4FDB40"/>
<path d="M35.0361 25.4691C35.0654 25.5591 35.0599 25.6567 35.0208 25.7428C34.9816 25.829 34.9117 25.8973 34.8247 25.9344L32.421 27.0674C32.337 27.1114 32.2396 27.1222 32.148 27.0978C32.0564 27.0734 31.9773 27.0155 31.9264 26.9356L31.1695 25.7108C31.1451 25.6725 31.129 25.6296 31.122 25.5847C31.1151 25.5399 31.1175 25.4941 31.1292 25.4502C31.1408 25.4063 31.1615 25.3654 31.1898 25.3299C31.2181 25.2944 31.2535 25.2652 31.2936 25.2441L34.1318 23.9063C34.1736 23.8888 34.2186 23.8802 34.2639 23.8809C34.3092 23.8817 34.3539 23.8917 34.3951 23.9105C34.4363 23.9293 34.4733 23.9564 34.5036 23.9901C34.5338 24.0238 34.5568 24.0634 34.5711 24.1064L35.0361 25.4691Z" fill="#4FDB40"/>
<path d="M36.4354 34.2298C36.4841 34.3111 36.5005 34.4076 36.4814 34.5003C36.4624 34.5931 36.4093 34.6753 36.3326 34.7308L35.7513 35.1867C35.6796 35.2482 35.5873 35.2805 35.4928 35.2772C35.3984 35.2738 35.3087 35.235 35.2415 35.1684L34.231 34.1423L33.7376 33.6416L32.7272 32.6166C32.6958 32.5839 32.6579 32.5581 32.6159 32.5407C32.574 32.5234 32.5289 32.5149 32.4835 32.5158C32.4381 32.5167 32.3934 32.527 32.3522 32.546C32.311 32.565 32.2741 32.5923 32.244 32.6262L31.175 33.9464C31.1189 34.0226 31.0361 34.0748 30.9432 34.0926C30.8503 34.1105 30.7541 34.0926 30.6737 34.0427L29.4597 33.2666C29.4213 33.2425 29.3882 33.2108 29.3626 33.1733C29.337 33.1358 29.3194 33.0935 29.311 33.0489C29.3025 33.0043 29.3034 32.9584 29.3135 32.9142C29.3236 32.87 29.3427 32.8283 29.3697 32.7918C29.3697 32.7918 30.2891 31.5168 30.9756 30.8401C31.6621 30.1634 32.9517 29.2607 32.9517 29.2607C32.9886 29.2343 33.0306 29.2158 33.075 29.2064C33.1194 29.197 33.1652 29.1969 33.2097 29.206C33.2541 29.2152 33.2962 29.2334 33.3332 29.2596C33.3703 29.2858 33.4016 29.3194 33.425 29.3582L34.1796 30.5833L34.5501 31.1818L35.3139 32.4059L35.6844 33.0044L36.4354 34.2298Z" fill="#4FDB40"/>
<path d="M52.4211 41.4923C52.4661 41.4974 52.5096 41.5116 52.5489 41.5342C52.5882 41.5569 52.6223 41.5873 52.6493 41.6238C52.6762 41.6602 52.6954 41.7018 52.7055 41.746C52.7156 41.7901 52.7165 41.8359 52.7082 41.8805C52.7082 41.8805 52.4316 43.4414 52.1087 44.3367C51.7857 45.232 51.0113 46.6191 51.0113 46.6191C50.9894 46.6588 50.9595 46.6935 50.9236 46.7211C50.8876 46.7487 50.8464 46.7686 50.8024 46.7795C50.7584 46.7904 50.7127 46.7922 50.668 46.7846C50.6233 46.777 50.5807 46.7603 50.5428 46.7355L49.3288 45.9594L48.7363 45.581L47.5236 44.8059L46.9312 44.4276L45.7173 43.6526C45.6382 43.6008 45.5816 43.5211 45.5586 43.4294C45.5357 43.3377 45.5481 43.2407 45.5934 43.1578L45.9183 42.4944C45.9567 42.4078 46.0261 42.3387 46.1128 42.3008C46.1996 42.2629 46.2974 42.2589 46.387 42.2895L47.7425 42.775L48.405 43.0129L49.7604 43.4984C49.8029 43.5142 49.8482 43.521 49.8934 43.5184C49.9386 43.5159 49.9828 43.504 50.0232 43.4836C50.0637 43.4632 50.0994 43.4347 50.1284 43.3999C50.1573 43.365 50.1787 43.3246 50.1912 43.2811L50.5794 41.6271C50.5973 41.5341 50.6495 41.4512 50.7256 41.3947C50.8017 41.3383 50.8961 41.3125 50.9904 41.3223L52.4211 41.4923Z" fill="#4FDB40"/>
</g>
<path d="M87.9312 31.1905C88.4544 31.1905 88.8785 31.6146 88.8785 32.1378C88.8785 33.4482 88.4785 34.5059 87.6787 35.3111C86.8788 36.1163 85.799 36.5188 84.4392 36.5188C83.0875 36.5188 82.0077 36.1163 81.1998 35.3111C80.3999 34.5059 80 33.4482 80 32.1378V22.3811C80 21.0628 80.3999 20.005 81.1998 19.2078C82.0077 18.4026 83.0875 18 84.4392 18C85.799 18 86.8788 18.4026 87.6787 19.2078C88.4785 20.005 88.8785 21.0628 88.8785 22.3811C88.8785 22.9042 88.4544 23.3283 87.9312 23.3283H86.5863C86.0631 23.3283 85.639 22.9042 85.639 22.3811C85.639 22.0258 85.535 21.7417 85.3271 21.5285C85.1191 21.3075 84.8232 21.197 84.4392 21.197C84.0553 21.197 83.7594 21.3075 83.5514 21.5285C83.3434 21.7417 83.2394 22.0258 83.2394 22.3811V32.1378C83.2394 32.493 83.3434 32.7811 83.5514 33.0022C83.7594 33.2153 84.0553 33.3219 84.4392 33.3219C84.8232 33.3219 85.1191 33.2153 85.3271 33.0022C85.535 32.7811 85.639 32.493 85.639 32.1378C85.639 31.6146 86.0631 31.1905 86.5863 31.1905H87.9312Z" fill="#F2C94C"/>
<path d="M98.5806 18.3789C99.4751 18.3789 100.2 19.1041 100.2 19.9986V32.1378C100.2 33.4482 99.8004 34.5059 99.0005 35.3111C98.2007 36.1163 97.1208 36.5188 95.7611 36.5188C94.4093 36.5188 93.3295 36.1163 92.5216 35.3111C91.7218 34.5059 91.3218 33.4482 91.3218 32.1378V19.9986C91.3218 19.1041 92.047 18.3789 92.9416 18.3789C93.8361 18.3789 94.5613 19.1041 94.5613 19.9986V32.1378C94.5613 32.493 94.6653 32.7811 94.8732 33.0022C95.0812 33.2153 95.3771 33.3219 95.7611 33.3219C96.145 33.3219 96.441 33.2153 96.6489 33.0022C96.8569 32.7811 96.9609 32.493 96.9609 32.1378V19.9986C96.9609 19.1041 97.686 18.3789 98.5806 18.3789Z" fill="#F2C94C"/>
<path d="M105.2 18.3789C106.095 18.3789 106.82 19.1041 106.82 19.9986V31.0833C106.82 32.1103 107.652 32.9429 108.679 32.9429H108.941C109.823 32.9429 110.539 33.6586 110.539 34.5414C110.539 35.4243 109.823 36.1399 108.941 36.1399H105.58C104.476 36.1399 103.58 35.2445 103.58 34.1399V19.9986C103.58 19.1041 104.305 18.3789 105.2 18.3789Z" fill="#F2C94C"/>
<path d="M114.928 36.1399C114.033 36.1399 113.308 35.4148 113.308 34.5202V22.8957C113.308 22.1668 112.717 21.5759 111.988 21.5759C111.259 21.5759 110.669 20.985 110.669 20.2561V19.9774C110.669 19.0946 111.384 18.3789 112.267 18.3789H117.589C118.471 18.3789 119.187 19.0946 119.187 19.9774V20.2561C119.187 20.985 118.596 21.5759 117.867 21.5759C117.138 21.5759 116.548 22.1668 116.548 22.8957V34.5202C116.548 35.4148 115.822 36.1399 114.928 36.1399Z" fill="#F2C94C"/>
<path d="M128.318 18.3789C129.212 18.3789 129.937 19.1041 129.937 19.9986V32.1378C129.937 33.4482 129.537 34.5059 128.737 35.3111C127.938 36.1163 126.858 36.5188 125.498 36.5188C124.146 36.5188 123.066 36.1163 122.259 35.3111C121.459 34.5059 121.059 33.4482 121.059 32.1378V19.9986C121.059 19.1041 121.784 18.3789 122.679 18.3789C123.573 18.3789 124.298 19.1041 124.298 19.9986V32.1378C124.298 32.493 124.402 32.7811 124.61 33.0022C124.818 33.2153 125.114 33.3219 125.498 33.3219C125.882 33.3219 126.178 33.2153 126.386 33.0022C126.594 32.7811 126.698 32.493 126.698 32.1378V19.9986C126.698 19.1041 127.423 18.3789 128.318 18.3789Z" fill="#F2C94C"/>
<path d="M134.937 36.1399C134.043 36.1399 133.317 35.4148 133.317 34.5202V20.3789C133.317 19.2743 134.213 18.3789 135.317 18.3789H137.757C139.116 18.3789 140.196 18.7815 140.996 19.5867C141.796 20.3839 142.196 21.4417 142.196 22.76V25.6017C142.196 26.4385 142.028 27.1765 141.692 27.8159C141.428 28.3184 141.075 28.7453 140.633 29.0967C140.454 29.2388 140.198 29.1341 140.147 28.9116C140.089 28.6572 140.333 28.442 140.565 28.5616C140.999 28.785 141.35 29.0693 141.62 29.4144C142.004 29.8959 142.196 30.4801 142.196 31.1668V34.5202C142.196 35.4148 141.471 36.1399 140.576 36.1399C139.682 36.1399 138.956 35.4148 138.956 34.5202V31.1668C138.956 30.8116 138.852 30.5274 138.644 30.3143C138.436 30.0933 138.141 29.9828 137.757 29.9828C137.094 29.9828 136.557 30.5199 136.557 31.1826V34.5202C136.557 35.4148 135.832 36.1399 134.937 36.1399ZM136.557 25.586C136.557 26.2486 137.094 26.7858 137.757 26.7858C138.141 26.7858 138.436 26.6792 138.644 26.4661C138.852 26.2451 138.956 25.9569 138.956 25.6017V22.76C138.956 22.4047 138.852 22.1206 138.644 21.9074C138.436 21.6864 138.141 21.5759 137.757 21.5759C137.094 21.5759 136.557 22.1131 136.557 22.7757V25.586Z" fill="#F2C94C"/>
<path d="M145.957 36.1399C144.95 36.1399 144.193 35.2235 144.383 34.2354L147.113 20.0021C147.294 19.06 148.118 18.3789 149.077 18.3789H149.269C150.231 18.3789 151.057 19.0641 151.234 20.0098L153.907 34.2439C154.092 35.2291 153.337 36.1399 152.334 36.1399C151.54 36.1399 150.865 35.5478 150.749 34.7623C150.632 33.968 149.949 33.3692 149.146 33.3692C148.349 33.3692 147.67 33.9503 147.547 34.7385L147.54 34.7842C147.418 35.5645 146.746 36.1399 145.957 36.1399ZM148.38 29.2681C148.307 29.7435 148.674 30.1722 149.155 30.1722C149.634 30.1722 150.001 29.7469 149.932 29.273L148.992 22.9019C148.975 22.7897 149.062 22.6889 149.176 22.6889C149.29 22.6889 149.377 22.7905 149.359 22.903L148.38 29.2681Z" fill="#F2C94C"/>
<path d="M89.0826 42.0605C89.9772 42.0605 90.7024 42.7857 90.7024 43.6802V54.7648C90.7024 55.7919 91.535 56.6245 92.562 56.6245H92.8232C93.7061 56.6245 94.4217 57.3402 94.4217 58.223C94.4217 59.1058 93.7061 59.8215 92.8232 59.8215H89.4629C88.3583 59.8215 87.4629 58.9261 87.4629 57.8215V43.6802C87.4629 42.7857 88.1881 42.0605 89.0826 42.0605Z" fill="#F2C94C"/>
<path d="M99.7711 58.2018C99.7711 59.0963 99.0459 59.8215 98.1514 59.8215C97.2568 59.8215 96.5317 59.0963 96.5317 58.2018V43.6802C96.5317 42.7857 97.2568 42.0605 98.1514 42.0605C99.0459 42.0605 99.7711 42.7857 99.7711 43.6802V58.2018Z" fill="#F2C94C"/>
<path d="M109.65 62.0002C108.911 62.0002 108.268 61.4953 108.093 60.7777L107.08 56.6351C106.832 55.6171 107.602 54.6353 108.65 54.6353C109.399 54.6353 110.049 55.1493 110.223 55.8775L111.209 60.0263C111.449 61.0335 110.685 62.0002 109.65 62.0002ZM107.456 60.2004C106.104 60.2004 105.024 59.7978 104.216 58.9927C103.416 58.1875 103.016 57.1297 103.016 55.8194V46.0626C103.016 44.7444 103.416 43.6866 104.216 42.8893C105.024 42.0842 106.104 41.6816 107.456 41.6816C108.815 41.6816 109.895 42.0842 110.695 42.8893C111.495 43.6866 111.895 44.7444 111.895 46.0626V55.8194C111.895 57.1297 111.495 58.1875 110.695 58.9927C109.895 59.7978 108.815 60.2004 107.456 60.2004ZM107.456 57.0034C107.84 57.0034 108.135 56.8969 108.343 56.6837C108.551 56.4627 108.655 56.1746 108.655 55.8194V46.0626C108.655 45.7074 108.551 45.4232 108.343 45.2101C108.135 44.9891 107.84 44.8786 107.456 44.8786C107.072 44.8786 106.776 44.9891 106.568 45.2101C106.36 45.4232 106.256 45.7074 106.256 46.0626V55.8194C106.256 56.1746 106.36 56.4627 106.568 56.6837C106.776 56.8969 107.072 57.0034 107.456 57.0034Z" fill="#F2C94C"/>
<path d="M122.276 42.0605C123.171 42.0605 123.896 42.7857 123.896 43.6802V55.8194C123.896 57.1297 123.496 58.1875 122.696 58.9927C121.896 59.7978 120.817 60.2004 119.457 60.2004C118.105 60.2004 117.025 59.7978 116.217 58.9927C115.418 58.1875 115.018 57.1297 115.018 55.8194V43.6802C115.018 42.7857 115.743 42.0605 116.637 42.0605C117.532 42.0605 118.257 42.7857 118.257 43.6802V55.8194C118.257 56.1746 118.361 56.4627 118.569 56.6837C118.777 56.8969 119.073 57.0034 119.457 57.0034C119.841 57.0034 120.137 56.8969 120.345 56.6837C120.553 56.4627 120.657 56.1746 120.657 55.8194V43.6802C120.657 42.7857 121.382 42.0605 122.276 42.0605Z" fill="#F2C94C"/>
<path d="M130.516 58.2018C130.516 59.0963 129.79 59.8215 128.896 59.8215C128.001 59.8215 127.276 59.0963 127.276 58.2018V43.6802C127.276 42.7857 128.001 42.0605 128.896 42.0605C129.79 42.0605 130.516 42.7857 130.516 43.6802V58.2018Z" fill="#F2C94C"/>
<path d="M136.025 59.8215C134.92 59.8215 134.025 58.9261 134.025 57.8215V44.0605C134.025 42.9559 134.92 42.0605 136.025 42.0605H138.464C139.824 42.0605 140.904 42.4631 141.704 43.2682C142.504 44.0655 142.903 45.1233 142.903 46.4415V55.4405C142.903 56.7508 142.504 57.8087 141.704 58.6138C140.904 59.4189 139.824 59.8215 138.464 59.8215H136.025ZM137.264 55.4247C137.264 56.0874 137.802 56.6245 138.464 56.6245C138.848 56.6245 139.144 56.518 139.352 56.3048C139.56 56.0838 139.664 55.7957 139.664 55.4405V46.4415C139.664 46.0863 139.56 45.8021 139.352 45.589C139.144 45.368 138.848 45.2575 138.464 45.2575C137.802 45.2575 137.264 45.7946 137.264 46.4573V55.4247Z" fill="#F2C94C"/>
<path d="M146.125 59.8215C145.119 59.8215 144.362 58.9051 144.551 57.9169L147.282 43.6837C147.463 42.7416 148.287 42.0605 149.246 42.0605H149.437C150.4 42.0605 151.225 42.7457 151.403 43.6913L154.076 57.9255C154.261 58.9106 153.505 59.8215 152.503 59.8215C151.709 59.8215 151.034 59.2294 150.918 58.4439C150.801 57.6496 150.118 57.0508 149.315 57.0508C148.517 57.0508 147.839 57.6319 147.716 58.4201L147.709 58.4657C147.587 59.2461 146.915 59.8215 146.125 59.8215ZM148.548 52.9497C148.475 53.4251 148.843 53.8538 149.324 53.8538C149.803 53.8538 150.17 53.4284 150.1 52.9546L149.161 46.5835C149.144 46.4712 149.231 46.3705 149.344 46.3705C149.458 46.3705 149.545 46.472 149.528 46.5846L148.548 52.9497Z" fill="#F2C94C"/>
<path d="M158.359 59.821C157.476 59.821 156.761 59.1053 156.761 58.2225C156.761 57.3397 157.476 56.624 158.359 56.624H158.402C159.284 56.624 160 57.3397 160 58.2225C160 59.1053 159.284 59.821 158.402 59.821H158.359Z" fill="#F2C94C"/>
</svg>
