<svg width="657" height="1006" viewBox="0 0 657 1006" fill="none" xmlns="http://www.w3.org/2000/svg">
<path d="M298.444 798.354C299.851 796.336 302.129 793.017 303.535 790.999L313.95 775.916C315.357 773.898 317.635 770.579 319.041 768.561L329.482 753.464C330.889 751.446 333.174 748.14 334.56 746.116L344.975 731.033C346.369 729.023 348.667 725.709 350.053 723.686L360.528 708.587C361.195 707.587 361.464 706.374 361.28 705.186C361.097 703.999 360.474 702.923 359.535 702.173L324.873 671.933C324 671.102 322.846 670.629 321.64 670.61C320.435 670.59 319.266 671.026 318.367 671.829L284.789 702.613C282.976 704.279 280.021 707.041 278.192 708.647L264.669 721.041L258.079 727.088L244.549 739.468C244.128 739.863 243.63 740.166 243.086 740.359C242.542 740.552 241.964 740.63 241.388 740.589C240.812 740.548 240.251 740.388 239.74 740.12C239.229 739.852 238.779 739.481 238.419 739.03C238.419 739.03 208.009 701.861 194.573 678.25C181.43 655.2 170.91 630.75 163.21 605.358C155.442 579.653 149.45 531.761 149.45 531.761C149.376 531.189 149.421 530.608 149.58 530.054C149.74 529.499 150.012 528.983 150.379 528.538C150.746 528.093 151.201 527.728 151.714 527.466C152.228 527.203 152.79 527.049 153.366 527.012L171.653 525.763C174.106 525.584 178.123 525.321 180.576 525.143L198.88 523.952C201.333 523.773 205.342 523.498 207.79 523.34L226.077 522.09C228.517 521.918 232.54 521.635 234.987 521.477L253.318 520.185C254.517 520.084 255.634 519.536 256.448 518.651C257.262 517.765 257.713 516.606 257.713 515.404L259.748 469.443C259.852 468.245 259.502 467.052 258.767 466.101C258.032 465.15 256.966 464.511 255.781 464.31L237.701 461.464C235.294 461.12 231.293 460.447 228.87 460.077L210.667 457.284C210.095 457.201 209.548 457.001 209.057 456.696C208.567 456.391 208.145 455.988 207.818 455.513C207.491 455.037 207.266 454.499 207.157 453.932C207.048 453.365 207.057 452.782 207.184 452.219L222.607 396.068C222.785 395.519 223.075 395.013 223.458 394.581C223.842 394.15 224.31 393.802 224.834 393.56C225.358 393.318 225.927 393.187 226.504 393.176C227.081 393.164 227.654 393.272 228.188 393.492L245.212 400.299L253.513 403.617L270.51 410.405C271.631 410.838 272.875 410.833 273.992 410.391C275.11 409.948 276.02 409.102 276.542 408.019L298.269 367.467C298.883 366.433 299.087 365.206 298.84 364.029C298.592 362.852 297.912 361.811 296.933 361.111L281.863 350.689L274.516 345.611L259.485 335.166L252.13 330.075L237.047 319.66L229.692 314.569L214.609 304.154L207.24 299.038L192.216 288.726C191.746 288.393 191.212 288.161 190.648 288.044C190.084 287.927 189.502 287.929 188.938 288.048C188.375 288.167 187.842 288.402 187.374 288.737C186.906 289.073 186.512 289.501 186.217 289.996C186.217 289.996 158.735 335.109 148.174 361.506C126.911 414.749 117.884 472.091 121.76 529.292C123.716 557.773 128.875 585.942 137.139 613.267C153.829 668.116 182.532 718.557 221.161 760.921C240.67 782.278 282.005 814.361 282.005 814.361C282.46 814.717 282.982 814.976 283.54 815.122C284.098 815.267 284.681 815.297 285.251 815.209C285.821 815.121 286.367 814.916 286.855 814.609C287.343 814.301 287.763 813.897 288.088 813.42L298.444 798.354ZM156.864 448.79C156.293 448.708 155.746 448.509 155.257 448.205C154.768 447.901 154.346 447.499 154.02 447.025C153.693 446.55 153.469 446.013 153.36 445.447C153.251 444.882 153.261 444.3 153.388 443.738L172.048 375.8C172.226 375.252 172.515 374.746 172.897 374.316C173.28 373.885 173.747 373.538 174.27 373.297C174.793 373.055 175.361 372.925 175.937 372.914C176.513 372.902 177.085 373.011 177.617 373.231L194.634 380.025C195.743 380.493 196.637 381.358 197.141 382.45C197.646 383.543 197.724 384.785 197.361 385.932L180.325 447.956C180.051 449.128 179.35 450.156 178.358 450.838C177.366 451.519 176.156 451.806 174.964 451.642L156.864 448.79Z" fill="#FFD65A" fill-opacity="0.6"/>
<path d="M691.181 834.668C666.351 848.816 640.019 860.148 612.674 868.454C584.994 876.85 533.069 883.318 533.069 883.318C532.497 883.392 531.916 883.348 531.361 883.188C530.807 883.028 530.291 882.756 529.846 882.389C529.401 882.022 529.036 881.568 528.774 881.054C528.511 880.54 528.357 879.978 528.32 879.402L527.113 861.16L526.493 852.236L525.243 833.95L524.623 825.026L523.359 806.714L522.746 797.803L521.496 779.516C521.395 778.318 520.848 777.201 519.962 776.387C519.077 775.573 517.918 775.122 516.715 775.122L464.646 772.808C463.449 772.707 462.258 773.058 461.308 773.793C460.357 774.527 459.717 775.591 459.513 776.775L456.669 794.888L455.269 803.726L452.443 821.812L451.056 830.643L448.204 848.743L446.817 857.574L443.979 875.666C443.896 876.238 443.695 876.786 443.39 877.276C443.086 877.766 442.683 878.188 442.207 878.515C441.731 878.842 441.193 879.067 440.626 879.176C440.06 879.285 439.476 879.276 438.913 879.149L365.102 858.876C364.553 858.697 364.047 858.407 363.615 858.024C363.184 857.641 362.836 857.172 362.594 856.648C362.352 856.124 362.221 855.556 362.21 854.979C362.198 854.401 362.306 853.828 362.526 853.295L369.327 836.29C370.261 834.044 371.726 830.262 372.645 827.99L379.367 810.996C380.301 808.75 381.774 804.98 382.685 802.696L389.494 785.704L392.818 777.383L399.624 760.359C400.558 758.113 402.031 754.343 402.942 752.058L409.731 735.061C410.198 733.952 411.063 733.058 412.156 732.553C413.249 732.049 414.49 731.971 415.638 732.334C415.638 732.334 446.268 742.561 464.429 745.429C482.572 748.297 500.981 749.112 519.307 747.859C537.454 746.603 568.988 739.014 568.988 739.014C570.164 738.746 571.397 738.929 572.444 739.528C573.49 740.127 574.272 741.098 574.635 742.248L587.778 785.865L590.367 794.422L595.663 811.984L598.252 820.541L603.547 838.103C603.708 838.658 603.981 839.173 604.351 839.616C604.72 840.06 605.177 840.423 605.693 840.681C606.208 840.94 606.772 841.089 607.349 841.12C607.925 841.15 608.501 841.061 609.041 840.858C609.041 840.858 654.17 824.437 677.782 811.001C701.394 797.564 738.563 767.155 738.563 767.155C739.013 766.794 739.384 766.344 739.652 765.833C739.92 765.322 740.08 764.761 740.121 764.185C740.162 763.61 740.084 763.032 739.891 762.488C739.698 761.944 739.395 761.446 739.001 761.024L726.62 747.494L720.573 740.904L708.18 727.381L702.146 720.785L689.752 707.262L683.585 700.792L671.191 687.269C670.388 686.37 669.953 685.201 669.972 683.996C669.991 682.79 670.464 681.636 671.295 680.763L701.535 646.1C702.286 645.162 703.361 644.539 704.549 644.355C705.736 644.172 706.95 644.44 707.949 645.108L723.019 655.531L730.366 660.609L745.516 671.02L752.863 676.098L767.946 686.513L775.301 691.604L790.384 702.019C790.854 702.352 791.387 702.584 791.951 702.701C792.515 702.818 793.097 702.816 793.661 702.697C794.224 702.578 794.757 702.343 795.225 702.008C795.694 701.673 796.088 701.244 796.382 700.749C796.382 700.749 821.736 659.128 831.525 634.628C841.376 609.977 848.429 584.298 852.551 558.073C856.598 532.04 856.113 483.278 856.113 483.278C856.117 482.065 856.577 480.898 857.402 480.009C858.228 479.12 859.357 478.574 860.567 478.48L878.75 477.289C879.324 477.243 879.901 477.316 880.446 477.504C880.99 477.692 881.49 477.99 881.914 478.381C882.337 478.771 882.675 479.245 882.907 479.772C883.138 480.3 883.258 480.869 883.258 481.445C883.258 481.445 883.841 534.267 879.438 562.354C870.522 618.99 848.993 672.897 816.443 720.094C800.214 743.579 781.39 765.162 760.328 784.432C739.22 803.698 716.028 820.548 691.181 834.668Z" fill="#FFD65A" fill-opacity="0.6"/>
<path d="M529.453 550.459C525.909 552.481 522.15 554.102 518.247 555.293C515.752 556.039 513.206 556.599 510.629 556.97C508.188 557.262 506.193 557.522 506.193 557.522L501.711 557.57C499.124 557.563 496.541 557.365 493.984 556.977C489.954 556.34 486.007 555.256 482.217 553.746C479.82 552.772 477.499 551.623 475.271 550.308L471.455 547.97L467.937 545.223C465.903 543.593 463.996 541.813 462.231 539.896C456.726 533.838 452.628 526.638 450.232 518.81C449.486 516.314 448.929 513.765 448.567 511.184L448.061 506.86L448.014 502.378C448.021 499.791 448.219 497.208 448.606 494.651C449.243 490.62 450.327 486.674 451.838 482.884C452.811 480.487 453.96 478.165 455.276 475.938L457.623 472.048C457.623 472.048 458.866 470.466 460.363 468.517C461.998 466.49 463.781 464.588 465.697 462.824C471.755 457.319 478.956 453.221 486.783 450.825C489.277 450.079 491.824 449.518 494.401 449.147C496.842 448.856 498.837 448.595 498.837 448.595L503.319 448.548C505.906 448.555 508.489 448.753 511.046 449.14C515.076 449.777 519.023 450.861 522.813 452.372C525.21 453.345 527.531 454.494 529.759 455.81L533.588 458.14L537.119 460.88C539.145 462.516 541.048 464.298 542.812 466.214C548.317 472.272 552.414 479.473 554.811 487.3C555.557 489.795 556.117 492.341 556.488 494.918L557.04 499.354L557.088 503.836C557.081 506.423 556.883 509.006 556.495 511.563C555.858 515.593 554.774 519.54 553.264 523.33C552.29 525.727 551.141 528.048 549.826 530.276L547.496 534.105C547.496 534.105 546.253 535.687 544.755 537.636C543.12 539.663 541.337 541.565 539.422 543.329C536.375 546.07 533.031 548.461 529.453 550.459Z" fill="#FFD65A" fill-opacity="0.6"/>
<path d="M720.068 488.148C718.964 471.859 716.009 455.748 711.26 440.127C706.587 424.834 693.955 399.29 693.955 399.29C693.704 398.771 693.348 398.308 692.91 397.933C692.472 397.557 691.962 397.276 691.41 397.107C690.858 396.938 690.277 396.884 689.704 396.951C689.131 397.017 688.577 397.2 688.078 397.491L624.807 433.495C623.768 434.105 622.996 435.083 622.645 436.236C622.294 437.389 622.389 438.631 622.912 439.717L631.446 459.534C631.649 460.075 631.738 460.651 631.707 461.227C631.677 461.803 631.528 462.367 631.269 462.883C631.01 463.399 630.648 463.856 630.204 464.225C629.761 464.594 629.245 464.868 628.691 465.028L611.137 470.337C608.786 471.057 604.908 472.167 602.579 472.926L585.017 478.221C583.871 478.587 582.904 479.369 582.308 480.413C581.711 481.458 581.529 482.688 581.796 483.861L583.516 492.999C583.678 494.19 584.284 495.277 585.212 496.042C586.14 496.807 587.322 497.195 588.523 497.128L606.789 495.872L615.72 495.265L633.987 494.01C634.562 493.965 635.14 494.039 635.686 494.228C636.231 494.417 636.731 494.716 637.155 495.108C637.579 495.499 637.918 495.974 638.149 496.502C638.381 497.031 638.501 497.602 638.502 498.179L637.552 519.741C637.442 520.938 637.788 522.133 638.521 523.086C639.254 524.039 640.32 524.68 641.506 524.881L659.606 527.732L668.437 529.119L686.543 531.951L695.374 533.338L713.474 536.189C714.043 536.285 714.626 536.261 715.186 536.121C715.747 535.981 716.272 535.727 716.73 535.375C717.187 535.023 717.567 534.58 717.846 534.075C718.125 533.569 718.297 533.011 718.351 532.437C718.351 532.437 721.196 504.532 720.068 488.148ZM670.137 491.579C668.933 491.645 667.749 491.256 666.818 490.491C665.887 489.725 665.277 488.638 665.109 487.445L660.121 460.209C659.86 459.034 660.047 457.805 660.647 456.762C661.247 455.72 662.216 454.939 663.362 454.575L680.917 449.267C681.467 449.095 682.047 449.04 682.62 449.103C683.192 449.166 683.746 449.347 684.246 449.634C684.745 449.921 685.18 450.308 685.524 450.771C685.867 451.234 686.111 451.763 686.24 452.324L692.345 485.56C692.425 486.132 692.385 486.714 692.228 487.269C692.071 487.825 691.801 488.342 691.434 488.787C691.067 489.233 690.612 489.598 690.097 489.858C689.582 490.119 689.018 490.27 688.442 490.302L670.137 491.579Z" fill="#FFD65A" fill-opacity="0.6"/>
<path d="M757.017 600.023C756.838 600.572 756.548 601.078 756.165 601.51C755.781 601.941 755.313 602.289 754.789 602.531C754.265 602.773 753.696 602.904 753.119 602.915C752.542 602.927 751.969 602.819 751.435 602.599L734.438 595.811C733.329 595.343 732.435 594.478 731.931 593.385C731.426 592.293 731.348 591.051 731.711 589.904C731.711 589.904 741.968 559.325 744.836 541.164C750.597 504.761 748.043 467.526 737.366 432.25C732.15 415.037 717.644 385.81 717.644 385.81C717.125 384.724 717.031 383.482 717.382 382.331C717.732 381.179 718.502 380.2 719.539 379.588L806.512 330.096C807.017 329.815 807.458 329.434 807.807 328.974C808.157 328.515 808.408 327.989 808.544 327.428C808.681 326.867 808.7 326.285 808.601 325.716C808.501 325.148 808.286 324.606 807.967 324.125L766.552 267.104C766.191 266.654 765.741 266.283 765.23 266.015C764.719 265.747 764.158 265.587 763.583 265.546C763.007 265.505 762.429 265.583 761.885 265.776C761.341 265.969 760.843 266.272 760.422 266.666L746.891 279.047L740.302 285.094L726.779 297.487C724.972 299.133 722.024 301.908 720.182 303.522L706.659 315.915L700.199 322.009L686.676 334.402C685.777 335.205 684.608 335.64 683.403 335.621C682.197 335.602 681.043 335.129 680.17 334.298C680.17 334.298 656.965 311.598 641.976 301.318C626.861 290.88 610.619 282.178 593.556 275.376C576.503 268.55 544.95 261.763 544.95 261.763C543.778 261.49 542.751 260.788 542.069 259.796C541.387 258.805 541.1 257.594 541.265 256.402L544.111 238.322L545.498 229.491L548.309 211.26L549.709 202.421L552.603 184.366L553.991 175.535L556.842 157.434C556.934 156.866 556.909 156.285 556.767 155.727C556.625 155.168 556.37 154.645 556.017 154.19C555.665 153.735 555.223 153.356 554.718 153.079C554.213 152.802 553.657 152.631 553.084 152.577C553.084 152.577 504.88 147.687 478.254 149.498C451.788 151.32 425.612 156.121 400.222 163.811C375.351 171.328 331.342 193.182 331.342 193.182C330.822 193.433 330.36 193.788 329.984 194.226C329.608 194.664 329.327 195.175 329.158 195.727C328.989 196.279 328.936 196.86 329.002 197.433C329.068 198.006 329.252 198.56 329.542 199.059L365.553 262.343C366.166 263.38 367.144 264.149 368.296 264.5C369.448 264.851 370.689 264.757 371.776 264.237C371.776 264.237 404.688 247.892 423.826 242.111C443.567 236.125 479.353 231.638 479.353 231.638C479.924 231.559 480.506 231.599 481.062 231.755C481.617 231.912 482.134 232.183 482.58 232.549C483.025 232.916 483.39 233.372 483.651 233.887C483.911 234.402 484.062 234.965 484.094 235.541L485.409 253.911C485.472 255.111 485.084 256.292 484.319 257.219C483.554 258.146 482.47 258.753 481.279 258.919C481.279 258.919 449.476 262.871 431.725 268.257C414.13 273.579 397.185 280.852 381.206 289.94C364.899 299.219 340.235 319.393 340.235 319.393C339.29 320.141 338.099 320.508 336.897 320.421C335.695 320.333 334.569 319.798 333.742 318.921L302.958 285.343L296.924 278.746L284.531 265.223L278.496 258.626L266.103 245.103L260.056 238.514L247.675 224.983C247.292 224.558 247 224.058 246.818 223.516C246.635 222.973 246.566 222.399 246.614 221.828C246.662 221.258 246.827 220.703 247.097 220.199C247.368 219.694 247.74 219.251 248.189 218.896C248.189 218.896 288.433 185.965 313.819 171.519C338.649 157.37 364.981 146.038 392.326 137.732C447.191 121.109 505.11 117.134 561.732 126.103C590.005 130.59 639.906 147.323 639.906 147.323C640.455 147.502 640.961 147.792 641.392 148.175C641.824 148.558 642.171 149.027 642.413 149.551C642.655 150.075 642.786 150.644 642.798 151.221C642.81 151.798 642.702 152.371 642.481 152.905L635.68 169.909C634.746 172.155 633.281 175.938 632.362 178.21L625.568 195.227C624.634 197.473 623.162 201.243 622.25 203.528L615.441 220.519L612.131 228.833L605.324 245.857C604.895 246.979 604.902 248.221 605.344 249.338C605.785 250.454 606.63 251.365 607.71 251.889L653.649 276.484C654.683 277.098 655.91 277.301 657.087 277.054C658.264 276.807 659.305 276.126 660.005 275.147L670.427 260.078C671.813 258.054 674.098 254.748 675.505 252.73L685.92 237.647L691.011 230.292L701.426 215.21C702.833 213.192 705.11 209.872 706.517 207.855L716.867 192.809C717.193 192.332 717.613 191.928 718.101 191.62C718.589 191.312 719.135 191.108 719.705 191.02C720.275 190.932 720.857 190.962 721.416 191.107C721.974 191.253 722.496 191.512 722.95 191.868C722.95 191.868 764.338 223.922 783.839 245.265C803.105 266.373 819.955 289.566 834.075 314.412C848.521 339.798 866.298 388.665 866.298 388.665C866.5 389.205 866.589 389.782 866.559 390.358C866.529 390.934 866.379 391.498 866.121 392.014C865.862 392.53 865.499 392.987 865.056 393.356C864.612 393.725 864.097 393.999 863.543 394.159L845.988 399.468L837.424 402.044L819.869 407.352L811.304 409.928L793.742 415.224C791.405 415.937 787.513 417.054 785.185 417.813L767.623 423.109C766.473 423.471 765.502 424.254 764.903 425.3C764.304 426.346 764.12 427.58 764.389 428.755C764.389 428.755 772.961 464.308 774.33 484.43C775.761 504.77 774.892 525.207 771.738 545.351C768.605 565.549 757.017 600.023 757.017 600.023Z" fill="#FFD65A" fill-opacity="0.6"/>
<path d="M515.881 417.893C515.68 419.078 515.04 420.144 514.089 420.879C513.138 421.614 511.945 421.964 510.748 421.859C506.126 421.418 501.479 421.306 496.841 421.526C484.607 422.371 472.72 425.964 462.066 432.038C458.098 434.413 454.301 437.066 450.707 439.977C449.767 440.727 448.579 441.095 447.379 441.009C446.18 440.922 445.057 440.387 444.234 439.51L431.841 425.987L425.757 419.453L413.376 405.923L407.435 399.308L395.041 385.785L388.994 379.195L376.614 365.665L370.566 359.076L358.186 345.545C357.792 345.125 357.489 344.627 357.297 344.084C357.105 343.541 357.027 342.964 357.069 342.389C357.111 341.814 357.271 341.254 357.54 340.745C357.809 340.235 358.181 339.787 358.631 339.428L390.873 315.937C391.354 315.618 391.896 315.402 392.464 315.303C393.033 315.204 393.616 315.223 394.176 315.359C394.737 315.496 395.264 315.747 395.723 316.097C396.182 316.446 396.564 316.887 396.844 317.391L446.322 404.339C446.931 405.378 447.91 406.15 449.063 406.501C450.215 406.852 451.458 406.757 452.544 406.234C458.512 403.278 464.668 400.72 470.973 398.575C478.783 396.21 486.836 394.734 494.977 394.175C501.634 393.938 508.3 394.155 514.928 394.825C515.502 394.877 516.058 395.048 516.563 395.326C517.068 395.604 517.51 395.983 517.862 396.44C518.213 396.896 518.467 397.421 518.606 397.98C518.746 398.539 518.769 399.121 518.673 399.689L515.881 417.893Z" fill="#FFD65A" fill-opacity="0.6"/>
<path d="M421.266 494.845C421.371 493.648 421.021 492.455 420.286 491.504C419.551 490.553 418.484 489.913 417.299 489.713L399.207 486.874L390.376 485.487L372.296 482.641C371.725 482.558 371.177 482.358 370.686 482.053C370.196 481.748 369.774 481.345 369.447 480.87C369.12 480.394 368.895 479.856 368.786 479.289C368.677 478.722 368.686 478.139 368.813 477.576L374.535 456.745C374.713 456.196 375.003 455.69 375.386 455.259C375.77 454.827 376.238 454.479 376.762 454.237C377.286 453.996 377.855 453.865 378.432 453.853C379.009 453.841 379.582 453.949 380.116 454.169L397.113 460.958L405.414 464.276L422.418 471.077C423.539 471.51 424.782 471.505 425.9 471.062C427.018 470.62 427.928 469.773 428.45 468.69L432.89 460.403C433.5 459.365 433.699 458.136 433.448 456.959C433.197 455.781 432.514 454.74 431.533 454.042L416.471 443.632L409.103 438.549L394.041 428.139L386.667 423.076L371.618 412.659L364.25 407.576L349.18 397.153L341.812 392.07L326.749 381.66C326.278 381.327 325.743 381.096 325.178 380.98C324.612 380.863 324.029 380.865 323.465 380.985C322.9 381.105 322.367 381.341 321.897 381.677C321.428 382.013 321.033 382.442 320.738 382.938C320.738 382.938 306.018 407.088 300.008 422.168C293.961 437.342 289.621 453.142 287.069 469.275C284.547 485.302 284.853 513.591 284.853 513.591C284.854 514.168 284.974 514.739 285.205 515.267C285.437 515.795 285.776 516.27 286.2 516.662C286.624 517.053 287.124 517.353 287.669 517.542C288.215 517.731 288.793 517.805 289.368 517.76L307.635 516.504L316.566 515.897L334.845 514.634L343.776 514.028L362.046 512.718L370.977 512.112L389.287 510.934L398.218 510.327L416.484 509.071C417.684 508.972 418.803 508.426 419.621 507.542C420.438 506.658 420.894 505.5 420.9 504.296L421.266 494.845ZM323.904 436.501C324.083 435.952 324.373 435.446 324.756 435.014C325.139 434.583 325.608 434.235 326.132 433.993C326.656 433.751 327.224 433.62 327.802 433.609C328.379 433.597 328.952 433.705 329.485 433.925L346.497 440.739C347.608 441.204 348.505 442.069 349.01 443.162C349.514 444.256 349.591 445.499 349.224 446.646L341.895 473.33C341.625 474.503 340.924 475.533 339.931 476.215C338.939 476.897 337.726 477.183 336.534 477.015L318.428 474.184C317.857 474.101 317.309 473.901 316.819 473.596C316.329 473.291 315.907 472.888 315.58 472.412C315.253 471.937 315.027 471.399 314.918 470.832C314.809 470.265 314.818 469.682 314.945 469.119L323.904 436.501Z" fill="#FFD65A" fill-opacity="0.6"/>
<path d="M422.483 618.926L427.567 611.558L437.976 596.496L443.06 589.128L453.469 574.065C454.156 573.058 454.431 571.826 454.24 570.622C454.049 569.418 453.405 568.332 452.44 567.587C448.804 564.733 445.374 561.625 442.176 558.287C438.063 553.78 434.463 548.83 431.445 543.527C429.246 539.458 427.338 535.238 425.734 530.899C425.309 529.774 424.476 528.851 423.401 528.313C422.325 527.774 421.087 527.661 419.931 527.994L402.369 533.29C400.011 533.997 396.141 535.12 393.812 535.879L376.257 541.187C373.899 541.895 370.029 543.017 367.7 543.776L350.138 549.072L341.574 551.648L324.019 556.957L315.454 559.533L297.9 564.841L289.335 567.417L271.773 572.713C269.422 573.433 265.544 574.543 263.216 575.302L219.599 588.445C217.241 589.152 213.357 590.282 211.042 591.034L193.48 596.33C192.925 596.49 192.41 596.764 191.967 597.133C191.523 597.502 191.161 597.959 190.902 598.475C190.643 598.991 190.494 599.554 190.464 600.131C190.433 600.707 190.522 601.283 190.725 601.824L216.301 660.81C216.552 661.33 216.907 661.792 217.345 662.168C217.783 662.544 218.294 662.825 218.846 662.994C219.398 663.163 219.978 663.216 220.552 663.15C221.125 663.084 221.679 662.9 222.177 662.61L356.504 586.172C357.559 585.59 358.795 585.426 359.965 585.713C361.135 586 362.155 586.717 362.821 587.721C362.821 587.721 373.825 604.709 381.924 613.578C390.284 622.726 406.041 634.867 406.041 634.867C406.491 635.227 407.012 635.49 407.57 635.639C408.128 635.788 408.71 635.819 409.281 635.732C409.851 635.644 410.397 635.439 410.884 635.129C411.371 634.82 411.789 634.412 412.111 633.933L422.483 618.926ZM386.51 574.241C386.192 573.76 385.976 573.218 385.876 572.649C385.777 572.081 385.796 571.498 385.933 570.937C386.069 570.376 386.32 569.85 386.67 569.391C387.02 568.932 387.46 568.55 387.965 568.269L403.87 559.218C404.925 558.636 406.16 558.472 407.331 558.759C408.501 559.047 409.521 559.763 410.187 560.768L419.29 573.3C420.043 574.238 420.414 575.427 420.327 576.627C420.241 577.828 419.704 578.951 418.824 579.772L405.293 592.152C404.872 592.547 404.374 592.85 403.83 593.043C403.286 593.236 402.708 593.314 402.132 593.273C401.556 593.232 400.996 593.072 400.485 592.804C399.974 592.536 399.524 592.165 399.163 591.714L386.51 574.241Z" fill="#FFD65A" fill-opacity="0.6"/>
<path d="M469.352 714.096C469.269 714.667 469.069 715.215 468.764 715.705C468.459 716.195 468.056 716.617 467.58 716.944C467.105 717.271 466.567 717.496 466 717.606C465.433 717.715 464.85 717.706 464.287 717.579C464.287 717.579 436.723 711.625 421.555 705.579C406.39 699.526 391.955 691.785 378.521 682.504C365.234 673.347 344.895 653.544 344.895 653.544C344.478 653.146 344.148 652.666 343.926 652.134C343.703 651.603 343.592 651.031 343.601 650.455C343.609 649.879 343.737 649.31 343.975 648.786C344.213 648.261 344.557 647.791 344.985 647.405L358.516 635.025C359.414 634.225 360.58 633.791 361.783 633.808C362.986 633.825 364.139 634.292 365.014 635.116C365.014 635.116 382.37 652.057 394.001 660.081C405.753 668.21 418.389 674.98 431.667 680.261C444.966 685.553 468.461 690.684 468.461 690.684C469.634 690.95 470.664 691.648 471.346 692.639C472.027 693.63 472.31 694.842 472.139 696.033L469.352 714.096Z" fill="#FFD65A" fill-opacity="0.6"/>
<path d="M574.986 321.778C574.526 322.889 573.664 323.786 572.571 324.29C571.479 324.794 570.237 324.868 569.092 324.497C569.092 324.497 546.221 316.817 532.136 314.664C518.024 312.423 503.703 311.789 489.447 312.774C475.307 313.687 451.739 319.366 451.739 319.366C450.564 319.627 449.335 319.44 448.292 318.84C447.249 318.24 446.469 317.271 446.105 316.125L440.796 298.57C440.625 298.02 440.57 297.44 440.633 296.867C440.696 296.295 440.877 295.741 441.164 295.241C441.451 294.742 441.838 294.307 442.301 293.963C442.764 293.62 443.293 293.376 443.854 293.247C443.854 293.247 471.433 286.572 487.555 285.525C503.845 284.408 520.209 285.126 536.338 287.668C552.467 290.218 579.204 299.179 579.204 299.179C579.753 299.358 580.26 299.648 580.691 300.031C581.123 300.414 581.47 300.883 581.712 301.407C581.954 301.931 582.085 302.5 582.097 303.077C582.108 303.654 582.001 304.227 581.78 304.761L574.986 321.778Z" fill="#FFD65A" fill-opacity="0.6"/>
<path d="M610.314 692.557C596.132 700.643 581.089 707.116 565.466 711.853C549.646 716.655 521.881 720.109 521.881 720.109C521.309 720.189 520.727 720.149 520.172 719.992C519.616 719.835 519.099 719.565 518.654 719.198C518.208 718.831 517.843 718.376 517.583 717.861C517.322 717.346 517.171 716.782 517.139 716.206L515.884 697.94C515.818 696.736 516.207 695.552 516.972 694.621C517.738 693.69 518.825 693.08 520.018 692.912C520.018 692.912 543.766 689.96 557.596 685.76C571.001 681.716 592.823 670.858 592.823 670.858C593.342 670.608 593.805 670.252 594.18 669.814C594.556 669.376 594.837 668.865 595.006 668.313C595.175 667.762 595.229 667.181 595.162 666.607C595.096 666.034 594.912 665.481 594.622 664.982L545.145 578.034C544.563 576.979 544.399 575.744 544.686 574.573C544.973 573.403 545.69 572.383 546.694 571.717C550.564 569.196 554.256 566.413 557.746 563.388C562.264 559.256 566.303 554.628 569.786 549.593C572.343 545.718 574.621 541.665 576.602 537.466C577.124 536.383 578.034 535.537 579.152 535.094C580.27 534.652 581.513 534.647 582.634 535.08L599.638 541.881L607.939 545.199L624.936 551.987L633.237 555.306L650.254 562.099L658.555 565.418L675.567 572.232L683.867 575.55L700.885 582.344C701.423 582.553 701.912 582.87 702.322 583.277C702.732 583.684 703.054 584.17 703.268 584.707C703.481 585.243 703.582 585.818 703.564 586.395C703.545 586.972 703.408 587.539 703.161 588.061L684.301 623.227C684.006 623.722 683.611 624.152 683.142 624.488C682.672 624.824 682.139 625.059 681.574 625.179C681.01 625.299 680.427 625.301 679.861 625.185C679.296 625.069 678.761 624.837 678.29 624.504L663.227 614.095L655.859 609.011L640.789 598.589L633.421 593.505L618.333 583.11L610.965 578.027L595.825 567.661C594.827 566.99 593.613 566.72 592.424 566.903C591.235 567.087 590.16 567.712 589.411 568.654L579.226 580.314C578.397 581.185 577.925 582.336 577.905 583.538C577.884 584.741 578.316 585.907 579.114 586.807L591.495 600.337L597.529 606.934L609.922 620.457L615.969 627.046L646.748 660.645C647.142 661.065 647.445 661.563 647.637 662.106C647.829 662.649 647.907 663.226 647.865 663.801C647.823 664.376 647.663 664.936 647.394 665.445C647.125 665.955 646.753 666.403 646.303 666.762C646.303 666.762 624.82 684.302 610.314 692.557Z" fill="#FFD65A" fill-opacity="0.6"/>
<path d="M646.472 371.168C645.573 371.968 644.407 372.402 643.205 372.385C642.002 372.368 640.849 371.902 639.973 371.077L614.518 348.852C613.578 348.098 612.955 347.019 612.772 345.827C612.589 344.636 612.86 343.419 613.531 342.418L623.941 327.356C624.262 326.876 624.68 326.469 625.167 326.159C625.654 325.85 626.2 325.645 626.771 325.557C627.341 325.469 627.924 325.501 628.482 325.65C629.039 325.799 629.56 326.062 630.011 326.422L660.067 352.664C660.483 353.062 660.813 353.542 661.036 354.074C661.258 354.605 661.369 355.177 661.36 355.753C661.352 356.329 661.225 356.898 660.986 357.422C660.748 357.947 660.404 358.417 659.976 358.803L646.472 371.168Z" fill="#FFD65A" fill-opacity="0.6"/>
<path d="M551.538 432.134C550.84 433.114 549.799 433.798 548.622 434.049C547.444 434.3 546.215 434.1 545.178 433.49L536.903 429.043C535.82 428.521 534.973 427.611 534.531 426.493C534.089 425.375 534.083 424.132 534.516 423.011L541.318 406.006L544.636 397.706L551.424 380.709C551.644 380.175 551.752 379.602 551.74 379.025C551.729 378.448 551.598 377.879 551.356 377.355C551.114 376.831 550.766 376.363 550.335 375.979C549.903 375.596 549.397 375.306 548.848 375.128L528.017 369.406C526.844 369.14 525.814 368.442 525.133 367.451C524.451 366.46 524.168 365.248 524.34 364.058L527.191 345.958C527.275 345.387 527.477 344.84 527.783 344.35C528.089 343.861 528.493 343.44 528.969 343.115C529.446 342.789 529.984 342.565 530.551 342.457C531.118 342.349 531.701 342.36 532.264 342.488C532.264 342.488 551.805 346.697 563.188 351.244C574.572 355.791 591.664 366.212 591.664 366.212C592.16 366.507 592.589 366.902 592.925 367.371C593.261 367.841 593.496 368.374 593.616 368.939C593.736 369.503 593.738 370.086 593.622 370.652C593.506 371.217 593.274 371.752 592.942 372.223L582.517 387.26L577.434 394.628L567.068 409.768L561.985 417.136L551.538 432.134Z" fill="#FFD65A" fill-opacity="0.6"/>
<path d="M548.442 655.39C548.613 655.941 548.669 656.52 548.606 657.093C548.543 657.666 548.362 658.219 548.075 658.719C547.788 659.219 547.401 659.654 546.938 659.997C546.475 660.34 545.946 660.584 545.385 660.714C545.385 660.714 525.79 665.451 513.713 666.254C501.636 667.057 481.529 665.107 481.529 665.107C480.955 665.054 480.398 664.884 479.894 664.606C479.389 664.328 478.947 663.949 478.595 663.492C478.244 663.035 477.99 662.511 477.85 661.952C477.711 661.393 477.688 660.811 477.784 660.243L480.635 642.143L482.022 633.312L484.868 615.232L486.256 606.401L489.094 588.308C489.295 587.123 489.934 586.057 490.885 585.322C491.836 584.587 493.029 584.237 494.227 584.342L503.612 584.745C504.816 584.75 505.975 585.206 506.859 586.024C507.743 586.841 508.288 587.96 508.388 589.16L509.644 607.426L510.25 616.357L511.506 634.624C511.539 635.198 511.69 635.76 511.951 636.274C512.211 636.788 512.574 637.243 513.018 637.61C513.462 637.977 513.976 638.248 514.53 638.407C515.083 638.566 515.664 638.609 516.234 638.534L537.482 634.622C538.657 634.357 539.889 634.542 540.934 635.14C541.98 635.739 542.762 636.708 543.128 637.856L548.442 655.39Z" fill="#FFD65A" fill-opacity="0.6"/>
</svg>
