<svg width="80" height="80" viewBox="0 0 80 80" fill="none" xmlns="http://www.w3.org/2000/svg">
<g clip-path="url(#clip0_1113_45603)">
<path d="M72.46 33.3711C72.5475 33.397 72.5872 33.4141 72.6491 33.4819C72.6404 33.6101 72.5867 33.657 72.5134 33.7604C72.4424 33.7284 72.4173 33.7059 72.3633 33.6525C72.3618 33.5251 72.3993 33.481 72.46 33.3711Z" fill="white"/>
<path d="M72.0708 40.2578C72.1597 40.2875 72.2013 40.3062 72.2629 40.3776C72.2573 40.5036 72.2191 40.5436 72.1531 40.6488C72.0508 40.6048 72.0385 40.5998 71.9771 40.5079C71.9781 40.3916 72.0085 40.3508 72.0708 40.2578Z" fill="white"/>
<path d="M66.6801 24.2021C66.7672 24.2321 66.7947 24.2625 66.8503 24.335C66.8714 24.4681 66.8367 24.5418 66.7854 24.6604C66.6892 24.6082 66.63 24.5782 66.564 24.4878C66.5695 24.3563 66.6115 24.3121 66.6801 24.2021Z" fill="white"/>
<path d="M68.9126 27.7568C69.034 27.7651 69.1416 27.7656 69.2515 27.8243C69.2984 27.9272 69.283 27.9268 69.2427 28.0348C69.1114 28.0532 69.0095 28.0649 68.891 28.0039C68.8606 27.8948 68.8806 27.863 68.9126 27.7568Z" fill="white"/>
<path d="M73.205 44.7012C73.302 44.7653 73.3519 44.7919 73.3971 44.9041C73.3951 45.0227 73.3386 45.081 73.2693 45.1697C73.1718 45.0939 73.0965 45.0442 73.0537 44.9227C73.082 44.8046 73.1197 44.784 73.205 44.7012Z" fill="white"/>
<path d="M70.5667 33.4824C70.6452 33.5463 70.6984 33.5979 70.7572 33.6822C70.7453 33.8158 70.7075 33.833 70.6198 33.9304C70.6049 33.9259 70.5893 33.9233 70.575 33.917C70.4873 33.8785 70.453 33.8302 70.4121 33.7474C70.4366 33.5984 70.4645 33.5867 70.5667 33.4824Z" fill="white"/>
<path d="M11.9767 56.3809C12.0964 56.4072 12.19 56.4254 12.2759 56.52C12.2828 56.6488 12.25 56.6655 12.1769 56.7677C12.1519 56.7741 12.1276 56.7841 12.1019 56.787C12.0107 56.7971 11.9858 56.7671 11.9285 56.7084C11.9083 56.5765 11.9297 56.5045 11.9767 56.3809Z" fill="white"/>
<path d="M74.0484 39.3135C74.1796 39.3497 74.227 39.3835 74.2992 39.4939C74.3074 39.6314 74.2594 39.7045 74.1936 39.8187C74.0742 39.7568 74.0081 39.7095 73.9458 39.5889C73.9492 39.4439 73.9689 39.4282 74.0484 39.3135Z" fill="white"/>
<path d="M69.9769 46.8652C70.1103 46.9016 70.2487 46.8961 70.3856 46.9203C70.4413 47.0137 70.4212 47.0131 70.4023 47.1144C70.2534 47.127 70.1124 47.2311 69.973 47.1984C69.9262 47.0842 69.9563 46.982 69.9769 46.8652Z" fill="white"/>
<path d="M64.5178 24.1562C64.6397 24.1667 64.7974 24.1602 64.8952 24.2377C64.9053 24.3712 64.8608 24.4213 64.7999 24.5384C64.7015 24.5335 64.592 24.5062 64.5092 24.4534C64.4546 24.3294 64.4861 24.2851 64.5178 24.1562Z" fill="white"/>
<path d="M73.9351 45.5635C74.0743 45.6046 74.1564 45.6521 74.2308 45.7778C74.2312 45.8996 74.1885 45.9522 74.12 46.0456C74.059 46.052 74.0079 46.0477 73.9471 46.0423C73.88 45.9925 73.8371 45.9715 73.8247 45.8807C73.8075 45.7543 73.8684 45.6632 73.9351 45.5635Z" fill="white"/>
<path d="M45.7224 17.4531C45.7722 17.5173 45.7645 17.492 45.7802 17.5679C45.8482 17.8971 45.813 18.1073 45.6364 18.3912C45.5836 18.3659 45.5858 18.3516 45.5581 18.3024C45.5618 18.0065 45.634 17.7334 45.7224 17.4531Z" fill="white"/>
<path d="M72.105 46.5098C72.2489 46.5352 72.4016 46.5405 72.5132 46.6373C72.5169 46.7594 72.4776 46.7945 72.4143 46.8964C72.3027 46.8913 72.1753 46.916 72.0741 46.8639C72.0286 46.7274 72.0708 46.6474 72.105 46.5098Z" fill="white"/>
<path d="M71.9974 41.5166C72.0115 41.525 72.0276 41.5308 72.0398 41.5419C72.1239 41.6186 72.1772 41.7588 72.1846 41.8697C72.1345 41.9968 72.0877 42.003 71.973 42.0714C71.8846 41.981 71.7797 41.8994 71.7529 41.7709C71.8118 41.638 71.8829 41.6034 71.9974 41.5166Z" fill="white"/>
<path d="M73.0024 35.4212L73.1849 35.418C73.2551 35.4662 73.3035 35.5167 73.3274 35.6018C73.3696 35.7515 73.3193 35.8191 73.2361 35.9298C73.1061 35.9088 73.0156 35.8143 72.9412 35.713C72.9142 35.5661 72.9375 35.5502 73.0024 35.4212Z" fill="white"/>
<path d="M71.2801 44.3076C71.3512 44.3154 71.421 44.3293 71.4897 44.3493C71.6279 44.3885 71.7261 44.4369 71.7949 44.561L71.717 44.6157L71.6906 44.6047C71.6259 44.6653 71.58 44.7121 71.4963 44.7453C71.3787 44.7353 71.3717 44.7412 71.287 44.6613C71.2384 44.5244 71.2497 44.4482 71.2801 44.3076Z" fill="white"/>
<path d="M68.5635 26L68.5852 26.0032C68.6941 26.0889 68.7153 26.098 68.7613 26.2349C68.7148 26.3975 68.6734 26.4181 68.5505 26.5278C68.4053 26.4587 68.3663 26.3742 68.3047 26.2341C68.3124 26.132 68.313 26.1129 68.3711 26.0299L68.5635 26Z" fill="white"/>
<path d="M18.1926 58.8754L18.4197 58.8672C18.5079 58.9168 18.5209 58.9198 18.5651 59.0094C18.5471 59.1373 18.5122 59.1989 18.4356 59.3019L18.259 59.3163C18.1583 59.2659 18.1465 59.2623 18.0918 59.165C18.0903 59.0352 18.1245 58.9791 18.1926 58.8754Z" fill="white"/>
<path d="M8.34043 54.6035L8.42816 54.6218C8.47996 54.6657 8.52824 54.685 8.5423 54.7554C8.5752 54.9205 8.47723 55.0538 8.3859 55.1809C8.34402 55.1542 8.3016 55.1276 8.2616 55.0982C8.15746 55.0217 8.11832 54.9545 8.10059 54.8284C8.16699 54.698 8.21879 54.6801 8.34043 54.6035Z" fill="white"/>
<path d="M68.9018 45.6016C68.9126 45.6056 68.9236 45.609 68.934 45.6137C69.054 45.6687 69.133 45.7348 69.1851 45.8532C69.1613 45.9976 69.0472 46.0916 68.9504 46.1933C68.8661 46.1601 68.7962 46.1151 68.7391 46.0446C68.6905 45.9848 68.7116 45.9588 68.7185 45.8867C68.7858 45.7943 68.8443 45.7003 68.9018 45.6016Z" fill="white"/>
<path d="M12.2611 57.8359C12.3437 57.8462 12.4291 57.8579 12.4938 57.917C12.5705 57.987 12.5629 58.0224 12.5578 58.1163C12.4746 58.2415 12.4177 58.248 12.2821 58.3059L12.2411 58.3541L12.1648 58.3461C12.1013 58.2553 12.0733 58.1917 12.0829 58.0777C12.0926 57.9625 12.179 57.9033 12.2611 57.8359Z" fill="white"/>
<path d="M69.6883 31.2412C69.7447 31.2618 69.7976 31.3029 69.8391 31.3469C69.9069 31.4188 69.9644 31.4956 69.9505 31.6007C69.935 31.7177 69.8473 31.7538 69.7614 31.8171C69.7141 31.805 69.6362 31.7872 69.594 31.7588C69.4991 31.6946 69.4891 31.6633 69.4644 31.5596C69.4912 31.4071 69.5783 31.3431 69.6883 31.2412Z" fill="white"/>
<path d="M12.8869 27.5093C12.9906 27.4903 13.0063 27.4885 13.1041 27.5261C13.1375 27.6188 13.1463 27.6506 13.1099 27.7495C13.0633 27.8766 12.9893 27.927 12.8764 27.9908C12.8108 27.9556 12.7339 27.9177 12.6785 27.8681C12.6003 27.798 12.5869 27.7488 12.5891 27.6486C12.6881 27.5454 12.7506 27.5449 12.8869 27.5093Z" fill="#F2C94C"/>
<path d="M74.6258 37.6318C74.6814 37.6357 74.7512 37.6364 74.8037 37.6544C74.8906 37.6843 74.9699 37.74 75.0013 37.8297C75.0429 37.9486 74.9981 38.0549 74.9571 38.1653C74.8724 38.1661 74.7924 38.1593 74.7082 38.1494C74.6265 38.0905 74.5609 38.0472 74.541 37.9397C74.5175 37.8128 74.5628 37.7356 74.6258 37.6318Z" fill="white"/>
<path d="M13.9662 57.5084C14.0533 57.5042 14.0905 57.5235 14.1654 57.5664C14.2001 57.6387 14.2023 57.6947 14.1898 57.7743C14.1647 57.9343 14.0555 57.9763 13.9347 58.0585C13.8997 58.0334 13.8642 58.0089 13.8306 57.9821C13.7323 57.9035 13.6823 57.8435 13.6699 57.7178C13.7385 57.5955 13.8446 57.5628 13.9662 57.5084Z" fill="white"/>
<path d="M70.2888 49.4425C70.3864 49.4416 70.4723 49.4486 70.5684 49.4657C70.6144 49.5039 70.6668 49.5285 70.6828 49.5893C70.7182 49.7246 70.6526 49.8627 70.5846 49.9762C70.5124 49.9871 70.4502 49.9832 70.3777 49.9766C70.299 49.9199 70.246 49.8924 70.2214 49.7906C70.191 49.665 70.2393 49.5546 70.2888 49.4425Z" fill="white"/>
<path d="M71.7887 34.29C71.8732 34.3261 71.9679 34.3366 72.0495 34.378C72.1562 34.4321 72.1911 34.5244 72.2167 34.6331C72.1901 34.7282 72.1788 34.7384 72.1055 34.8061C71.942 34.8036 71.8028 34.8106 71.6668 34.7057C71.6383 34.5396 71.7136 34.434 71.7887 34.29Z" fill="white"/>
<path d="M10.9241 35.0052C11.0372 34.9954 11.1357 34.9817 11.2461 35.0167C11.3254 35.095 11.3243 35.0925 11.3333 35.2036C11.2785 35.3456 11.2015 35.4097 11.0871 35.507C11.0262 35.5034 10.9405 35.4885 10.8875 35.454C10.816 35.4075 10.7757 35.3606 10.7717 35.2731C10.7667 35.1611 10.8544 35.0805 10.9241 35.0052Z" fill="white"/>
<path d="M71.1448 29.5732L71.199 29.579C71.2598 29.6331 71.3331 29.6896 71.3735 29.7611C71.4216 29.8459 71.4045 29.8691 71.3823 29.9586C71.2684 30.0475 71.1775 30.0429 71.0363 30.0644C71.0108 30.0848 70.971 30.0918 70.94 30.1018C70.9156 30.0824 70.8843 30.0601 70.8667 30.0343C70.8144 29.9581 70.7979 29.8788 70.8295 29.7904C70.878 29.655 71.0251 29.6268 71.1448 29.5732Z" fill="white"/>
<path d="M14.4264 26.1172C14.5171 26.1295 14.6194 26.1513 14.693 26.2111C14.7421 26.251 14.7761 26.3046 14.7814 26.3671C14.7972 26.5509 14.6807 26.6641 14.5671 26.791C14.5238 26.7912 14.5003 26.7934 14.4555 26.7819C14.3485 26.7542 14.3035 26.685 14.2512 26.5969C14.2313 26.3821 14.2938 26.2792 14.4264 26.1172Z" fill="white"/>
<path d="M10.3869 58.5098C10.4726 58.5257 10.5574 58.5419 10.6445 58.5487C10.7539 58.5572 10.8185 58.5589 10.9148 58.6211C10.9501 58.7366 10.9136 58.7805 10.8726 58.8916L10.897 58.925L10.8844 58.9968C10.8051 59.0387 10.7285 59.074 10.6444 59.1053C10.5516 59.0819 10.4774 59.0631 10.4228 58.9772C10.3164 58.8099 10.3538 58.69 10.3869 58.5098Z" fill="white"/>
<path d="M66.6208 25.4541C66.6327 25.4546 66.6446 25.4539 66.6564 25.4559C66.753 25.4717 66.8659 25.5867 66.9154 25.6668C66.9688 25.7531 66.9512 25.8326 66.9256 25.922C66.8508 25.9927 66.8091 26.0404 66.7092 26.075C66.6171 26.0743 66.5325 26.0749 66.4426 26.0507C66.3762 25.9658 66.3349 25.9382 66.3504 25.824C66.3725 25.6597 66.506 25.5591 66.6208 25.4541Z" fill="white"/>
<path d="M73.9426 42.9492C73.9929 42.9863 74.0376 43.017 74.0955 43.0422C74.1498 43.0658 74.2054 43.0877 74.2602 43.1105C74.3354 43.213 74.3484 43.2338 74.363 43.3591C74.2844 43.5188 74.2725 43.5331 74.117 43.6192C74.071 43.6409 74.1028 43.6284 74.0172 43.6425C73.9047 43.5513 73.809 43.4517 73.7104 43.3459L73.9426 42.9492Z" fill="white"/>
<path d="M11.2311 60.9221L11.2789 60.917C11.3349 61.0218 11.3824 61.1294 11.4304 61.2379C11.3389 61.3453 11.2121 61.5422 11.0788 61.5883L11.0519 61.5199C11.0026 61.4769 11.0221 61.4891 10.9747 61.4621C10.9021 61.421 10.8135 61.3778 10.776 61.2979C10.7334 61.207 10.7502 61.1724 10.7891 61.0909C10.8564 61.0403 10.9252 60.9776 11.0106 60.9645C11.0876 60.9527 11.1546 60.9407 11.2311 60.9221Z" fill="white"/>
<path d="M67.6019 48.2498C67.6123 48.2455 67.6219 48.2385 67.633 48.2369C67.786 48.2159 67.7682 48.3302 67.8705 48.3558C67.9414 48.3735 67.9452 48.3122 68.0314 48.3719C68.1014 48.4205 68.1147 48.4659 68.1112 48.5438C68.0371 48.6379 67.9776 48.6624 67.8691 48.7016C67.8061 48.7243 67.7986 48.7677 67.7646 48.8235L67.7697 48.8799L67.7205 48.9305C67.5292 48.8871 67.4414 48.7312 67.333 48.5751C67.3414 48.4826 67.535 48.3883 67.6019 48.2498Z" fill="white"/>
<path d="M71.4356 37.582C71.5248 37.6221 71.6103 37.6659 71.6968 37.7116L71.8393 37.6496C71.9304 37.6737 71.9262 37.6825 71.98 37.7617C71.9885 37.8537 72.0139 37.9732 71.9853 38.0616C71.9687 38.1127 71.8558 38.1445 71.807 38.167C71.7406 38.2352 71.7352 38.2682 71.6377 38.281C71.5301 38.2311 71.4031 38.1835 71.3153 38.1026C71.2667 38.0577 71.2826 38.0666 71.2759 37.9909C71.3283 37.9452 71.3762 37.8987 71.4235 37.8478C71.4017 37.8024 71.3839 37.7648 71.3747 37.7148C71.3641 37.6572 71.4042 37.6284 71.4356 37.582Z" fill="white"/>
<path d="M7.75356 57.5293C7.82577 57.5685 7.86655 57.5905 7.95092 57.5914C8.02381 57.5923 8.09077 57.5944 8.1635 57.6016C8.23342 57.6873 8.21077 57.7234 8.20358 57.8309C8.24538 57.8926 8.26991 57.933 8.28249 58.007C8.18866 58.1144 8.16553 58.0382 8.06671 58.0819C8.04569 58.0911 8.02803 58.1064 8.00874 58.1187C7.94631 58.1912 7.95014 58.211 7.8528 58.2328C7.7472 58.1994 7.66758 58.1805 7.60902 58.0761C7.54021 57.9534 7.5464 57.8158 7.57749 57.6833C7.59606 57.6042 7.68732 57.5722 7.75356 57.5293Z" fill="white"/>
<path d="M65.2975 27.1846C65.3873 27.2316 65.4655 27.2776 65.5698 27.2703C65.6866 27.2621 65.8241 27.2473 65.9223 27.3218C65.8145 27.619 65.9548 27.4579 66 27.6712L65.8766 27.8533C65.7827 27.8147 65.7109 27.7889 65.6088 27.7773C65.5324 27.8503 65.4941 27.9005 65.3886 27.9281L65.3461 27.8718C65.3638 27.7877 65.3734 27.7408 65.3627 27.6541C65.2894 27.6102 65.2463 27.5857 65.1914 27.5187C65.2398 27.4069 65.271 27.3033 65.2975 27.1846Z" fill="white"/>
<path d="M8.98515 60.4298L9.02819 60.415C9.11023 60.4564 9.16007 60.5105 9.22413 60.575C9.23343 60.65 9.2339 60.7138 9.21585 60.7871C9.1896 60.8941 9.12359 61.0059 9.02273 61.0575C8.96569 61.0868 8.91335 61.0417 8.8589 61.0189L8.73827 61.068C8.65163 61.0441 8.60562 60.98 8.56288 60.9003C8.51726 60.8151 8.51234 60.6586 8.5503 60.57C8.59304 60.4703 8.61702 60.463 8.71077 60.4246C8.79054 60.4354 8.85968 60.4475 8.94023 60.4377C8.9553 60.4358 8.97015 60.4324 8.98515 60.4298Z" fill="white"/>
<path d="M13.1344 60.1367C13.2507 60.1977 13.3424 60.2448 13.4759 60.2505C13.4884 60.2511 13.5644 60.2525 13.5787 60.2569C13.6721 60.2852 13.6883 60.3054 13.724 60.3909L13.6388 60.5159C13.6705 60.5648 13.6955 60.6087 13.7211 60.6606C13.6977 60.7093 13.681 60.7314 13.6322 60.7562C13.5549 60.7954 13.4962 60.8137 13.4461 60.8892C13.4345 60.9066 13.4239 60.9248 13.4128 60.9427C13.3784 60.957 13.3401 60.9437 13.3035 60.9391C13.2363 60.8475 13.1845 60.8072 13.0907 60.7452C13.0071 60.6899 12.922 60.6279 12.9004 60.5291C12.9878 60.4873 13.0593 60.4537 13.1331 60.3895L13.1344 60.1367Z" fill="white"/>
<path d="M67.9404 29.2041C68.0503 29.2821 68.1847 29.374 68.2755 29.4732C68.3572 29.5623 68.3543 29.6186 68.3525 29.7349C68.2783 29.8959 68.1304 29.9682 67.987 30.0618C67.9843 30.0629 67.9817 30.0646 67.9788 30.065C67.8443 30.0809 67.6272 29.8468 67.5029 29.7631C67.6715 29.587 67.806 29.4073 67.9404 29.2041Z" fill="white"/>
<path d="M39.7598 70.9219C39.8504 70.9244 39.9893 70.9358 40.0504 71.0128C40.2505 71.2646 40.1411 72.9777 40.1381 73.3939C40.024 73.4279 39.9444 73.4574 39.8249 73.4245C39.6693 73.2284 39.744 71.2777 39.7598 70.9219Z" fill="white"/>
<path d="M33.2705 17.3094L33.765 17.1699C33.8417 17.2819 33.9307 17.3836 34.0179 17.4873C34.1075 17.9615 34.1525 18.4412 34.269 18.911C34.279 19.3062 34.4371 19.6898 34.4725 20.0853C34.2038 19.892 34.2897 19.7764 34.2259 19.4873C34.195 19.347 34.15 19.31 34.0335 19.2336C33.7747 19.064 33.6059 18.8891 33.4806 18.602C33.4 18.4177 33.2804 18.1151 33.3513 17.9242C33.4372 18.0148 33.465 18.1371 33.5083 18.2515C33.5779 18.435 33.7001 18.8258 33.8786 18.9069C33.8932 18.8579 33.8958 18.8577 33.8988 18.7976C33.9132 18.5084 33.7081 17.8439 33.5431 17.5999C33.4705 17.4926 33.3637 17.3988 33.2705 17.3094Z" fill="white"/>
<path d="M45.9667 16.4531C46.0623 16.4727 46.1903 16.4877 46.2744 16.5388C46.4083 16.6202 46.4787 16.7523 46.5167 16.9009C46.7286 17.7309 45.9726 18.9357 45.5596 19.6101C45.5518 19.3848 45.5232 19.1598 45.5007 18.9355C45.4989 18.9202 45.4961 18.9049 45.4952 18.8895C45.4836 18.6994 45.6511 18.6266 45.7661 18.5014C45.9673 18.282 46.2482 17.9541 46.2206 17.6342C46.208 17.4884 46.1618 17.2913 46.0439 17.1955L45.9993 17.2361C45.9893 17.3167 45.9799 17.3943 45.9794 17.4756C45.9788 17.5996 45.9749 17.6812 45.931 17.7977C45.9203 17.7819 45.9056 17.7681 45.8989 17.7502C45.8193 17.5363 45.8214 17.0575 45.8735 16.8345C45.9036 16.7071 45.9346 16.58 45.9667 16.4531Z" fill="white"/>
<path d="M11.4573 29.1982C11.547 29.2283 11.5937 29.2522 11.6613 29.3187C11.7141 29.6163 11.3043 30.0229 11.1478 30.2777C10.723 30.9692 10.4855 31.9744 10.6736 32.7778C10.7838 32.877 10.9361 32.8723 11.0776 32.8945L11.1228 32.9678C11.096 33.0711 11.0599 33.1104 10.9898 33.1864C10.8798 33.2834 10.8078 33.359 10.6598 33.3881C10.5994 33.3716 10.5611 33.3719 10.516 33.3245C10.2756 33.0714 10.2895 32.3863 10.2954 32.0537C10.3134 31.049 10.7244 29.9059 11.4573 29.1982Z" fill="#F2C94C"/>
<path d="M50.1538 41.5449L50.2113 41.6261C50.2435 42.1698 50.0488 42.8764 49.8067 43.3665C49.4063 44.1777 48.6226 44.7748 47.7738 45.0566C46.9296 45.3369 45.9459 45.383 45.1346 44.978L45.1274 44.9203C45.1775 44.8637 45.1496 44.8728 45.2138 44.8702C45.5549 44.8564 45.8778 44.9603 46.2145 44.989C46.9057 45.048 47.731 44.8059 48.3267 44.4652C49.5759 43.7505 49.8049 42.8538 50.1538 41.5449Z" fill="white"/>
<path d="M43.0237 69.0166C43.0905 69.0196 43.069 69.0136 43.1269 69.0338C43.213 69.0637 43.2507 69.0586 43.2905 69.1436C43.2783 69.1861 43.2746 69.2073 43.2497 69.2483C42.997 69.6641 40.7115 70.6447 40.1354 70.8039C40.0786 70.8197 39.9961 70.8419 39.9372 70.8429C39.6686 70.8472 38.0393 69.9611 37.7109 69.7849C37.6032 69.7164 37.519 69.6558 37.4343 69.56C37.4274 69.4628 37.441 69.4557 37.4947 69.3722C37.5239 69.3649 37.5522 69.3504 37.5822 69.3504C37.7261 69.3499 39.5271 70.3068 39.9265 70.4693C40.763 70.2705 42.3259 69.5382 43.0237 69.0166Z" fill="white"/>
<path d="M42.2204 9.88086C42.2479 9.94445 42.241 10.0223 42.2197 10.0865C42.0176 10.6954 36.7318 14.106 35.8795 14.5836L35.8472 14.5518C35.9776 14.3446 36.2522 14.1591 36.4403 14.0012C37.384 13.2095 38.3919 12.5187 39.4212 11.8442C40.3776 11.2174 41.3425 10.6175 42.2204 9.88086Z" fill="#F2C94C"/>
<path d="M29.4282 40.8808L29.4631 40.702C29.5524 40.6276 29.6185 40.6468 29.731 40.6416C29.7168 41.8437 29.9941 43.0567 30.8567 43.9431C31.5864 44.6928 32.7106 45.0356 33.7354 45.0446C34.4593 45.051 35.157 44.9244 35.8701 44.8218C34.8665 45.3825 33.5079 45.4875 32.4106 45.1731C31.366 44.8737 30.5359 44.2471 30.0142 43.2892C29.5973 42.5235 29.441 41.7439 29.4282 40.8808Z" fill="white"/>
<path d="M40.272 46.9189L40.2426 47.0034C39.7158 47.3156 39.2221 47.6824 38.6964 47.9974C37.8871 48.4825 37.066 48.8818 36.2141 49.2811C37.5333 49.4604 38.9877 49.176 40.3062 49.025C40.6929 48.9807 41.1724 48.8747 41.5555 48.9225C41.3556 49.0939 39.9796 49.3311 39.6634 49.3966C39.1895 49.4486 38.7213 49.5471 38.2467 49.5982C37.9109 49.6331 37.5741 49.6547 37.2364 49.6629C36.8988 49.6712 36.5614 49.666 36.2242 49.6475C35.887 49.6291 35.551 49.5973 35.2163 49.5521C34.8817 49.507 34.5493 49.4488 34.2192 49.3773C35.2581 48.9954 36.3221 48.6863 37.3483 48.266C38.3428 47.8586 39.2876 47.3475 40.272 46.9189Z" fill="#4FDB40"/>
<path d="M17.8029 27.1709C17.8586 27.1521 17.8954 27.1762 17.9508 27.1922C17.9872 27.2782 17.9715 27.2716 17.9429 27.3547L17.9661 27.3623C17.8333 27.5338 17.5664 27.5589 17.364 27.5952C17.2951 27.6075 17.2286 27.6173 17.1615 27.6383C14.6511 28.4231 12.7222 30.6857 12.8679 33.3995C12.8886 33.7854 12.9603 34.138 13.0693 34.5076C13.1118 34.6515 13.2525 34.9812 13.2304 35.1173C13.2234 35.1602 13.1909 35.1946 13.1711 35.2333C13.0873 35.2187 12.9947 35.2072 12.9286 35.1483C12.6366 34.8876 12.4933 33.5823 12.4886 33.1846C12.4704 31.6231 13.1425 30.041 14.2337 28.9299C15.1131 28.0345 16.5142 27.1864 17.8029 27.1709Z" fill="white"/>
<path d="M50.5913 41.3928C50.6397 40.3977 50.644 39.3345 50.8426 38.3584C51.2849 39.0304 51.7229 39.6883 52.2573 40.2925C52.6453 40.7311 53.1143 41.1404 53.4614 41.6067C52.559 41.7715 51.4791 41.5879 50.5913 41.3928Z" fill="#F2C94C"/>
<path d="M33.0439 17.084C33.0771 17.1622 33.0575 17.2049 33.0402 17.2849C32.8229 18.2894 33.1558 18.4921 33.3286 19.3555C33.4019 19.7223 33.3818 20.1271 33.3939 20.501C33.4103 21.0055 33.4913 21.4886 33.6321 21.9736C34.0894 23.5489 35.0555 24.1844 35.1368 25.973C34.8607 25.4206 34.7589 24.8234 34.4389 24.2758C34.0859 23.6717 33.6158 23.1683 33.2391 22.5865C32.2821 21.1084 32.2862 19.3215 32.8171 17.6827C32.8564 17.563 32.9012 17.4454 32.9518 17.33C32.9964 17.2465 33.0199 17.1746 33.0439 17.084Z" fill="#4FDB40"/>
<path d="M33.6631 19.708C34.1166 20.1417 34.2367 20.8523 34.4852 21.4084C34.6446 21.765 34.8349 22.0861 35.0637 22.402C34.9021 21.7711 34.3492 21.0021 34.3482 20.3806L34.3497 20.4579C34.4029 20.4279 34.3768 20.4299 34.4263 20.4406C34.5816 20.7282 34.6717 21.0462 34.8171 21.3395C35.3239 22.3614 35.5096 22.3493 35.6189 23.5849C35.7211 24.4943 35.5515 25.4124 35.2182 26.2618C35.3433 24.4409 34.6446 24.1108 34.092 22.6158C33.7464 21.6807 33.6661 20.6961 33.6631 19.708Z" fill="#4FDB40"/>
<path d="M30.4819 59.4023C30.4934 59.4175 30.525 59.4732 30.5281 59.4909C30.5729 59.7462 29.938 61.8506 29.8374 62.1955C29.0033 65.0562 28.6681 67.5038 28.9862 70.4826C29.0259 70.8543 29.0594 71.2326 29.1328 71.5993C29.2228 72.0488 29.3801 72.5252 29.4 72.9812C29.3448 73.0839 29.2328 73.1191 29.1324 73.1678C29.1112 73.111 29.0907 73.0539 29.0711 72.9965C28.789 72.1712 28.6647 71.2341 28.5828 70.3661C28.3003 67.3689 28.6447 64.8345 29.5311 61.9699C29.8021 61.0941 30.0799 60.2291 30.4819 59.4023Z" fill="white"/>
<path d="M49.5698 59.4746C49.6083 59.5019 49.6376 59.5256 49.6646 59.567C49.8901 59.9124 50.0426 60.5716 50.1869 60.9824C51.4707 64.6337 51.7036 69.3307 50.7933 73.0895C50.7644 73.1073 50.7262 73.1331 50.6937 73.1418C50.5944 73.1681 50.5537 73.1477 50.472 73.1012C50.3942 72.9462 50.6078 72.0082 50.6415 71.7725C50.8037 70.637 50.9237 69.4596 50.9115 68.312C50.9097 67.4827 50.8683 66.6555 50.7871 65.8303C50.7058 65.0051 50.5852 64.1857 50.4253 63.372C50.1557 62.0616 49.7819 60.8007 49.5698 59.4746Z" fill="white"/>
<path d="M31.7541 29.6046C31.9959 29.5213 32.2381 29.4392 32.4808 29.3584C32.5688 30.24 32.7455 31.1129 32.8183 31.9967C32.9872 34.0511 32.3394 35.9939 31.2809 37.7288C30.6027 38.8406 30.1538 39.3484 29.7313 40.6414C29.6188 40.6467 29.5528 40.6275 29.4634 40.7018L29.4286 40.8807C29.3187 39.1988 30.4113 37.7928 31.0879 36.3568C31.4902 35.5031 31.7958 34.5842 31.938 33.6496C32.1405 32.3176 31.9328 30.9265 31.7541 29.6046Z" fill="#4FDB40"/>
<path d="M47.4748 29.3418L48.3381 29.6137C48.0114 32.6719 47.8153 35.0596 49.0993 37.9748C49.4435 38.7564 49.8863 39.4814 50.2613 40.2458C50.2678 40.2591 50.274 40.2725 50.2803 40.2859C50.2742 40.6312 50.2736 40.9739 50.22 41.3159C49.8927 40.6127 49.4653 40.0645 49.0117 39.4386C46.8674 36.4789 46.932 32.7952 47.4748 29.3418Z" fill="#4FDB40"/>
<path d="M31.7661 49.6182C32.2396 49.7589 32.7031 49.9208 33.1815 50.0468C37.3709 51.1493 41.6878 51.3896 45.9317 50.4469C46.5837 50.3021 47.2233 50.1077 47.8642 49.9209C47.8583 50.0541 47.8701 50.2507 47.8172 50.3735C47.762 50.5016 47.6701 50.5207 47.5538 50.5766C47.1951 50.7611 46.7941 50.8915 46.4155 51.0296C45.6892 51.2945 44.9383 51.5259 44.1784 51.6714C41.5614 52.1726 38.0996 52.0178 35.4897 51.509C34.3024 51.2775 33.1406 50.9157 31.9896 50.5482C31.8981 50.2431 31.835 49.9292 31.7661 49.6182Z" fill="#4FDB40"/>
<path d="M63.712 49.5938C64.1052 50.4919 64.5315 51.1709 65.4917 51.5395C66.782 52.0348 68.6185 51.5561 69.3271 53.1411C69.4992 53.5261 69.5724 53.9887 69.4143 54.3898C69.2828 54.7235 69.0635 54.9483 68.7303 55.0816C68.0301 55.3616 67.1213 55.203 66.4531 54.9022C65.3023 54.3841 64.5832 53.284 64.1585 52.1348C63.8751 51.3682 63.7429 50.593 63.5669 49.8003C63.6038 49.7136 63.651 49.6637 63.712 49.5938Z" fill="white"/>
<path d="M19.9574 61.2793C21.2976 61.6406 23.1467 61.9668 23.9888 63.1913C24.215 63.5202 24.3661 63.9531 24.2854 64.3542C24.1808 64.8734 23.7858 65.2273 23.3723 65.5152C23.1639 65.637 22.9452 65.736 22.7161 65.8122C22.0816 66.0188 21.4006 66.0357 20.7954 65.718C20.2018 65.4063 19.8172 64.8197 19.6265 64.1914C19.3283 63.2092 19.481 62.1741 19.9574 61.2793Z" fill="#F2C94C"/>
<path d="M46.5432 29.0176L47.2011 29.2791C46.9986 31.4146 46.2422 34.2787 44.8932 35.9654C43.9672 37.123 42.6576 37.9459 41.1678 38.1018C39.272 38.3002 37.0937 37.4993 35.6369 36.3069C34.494 35.3715 33.577 34.06 33.2265 32.6133C33.0609 31.9302 32.9981 31.1978 32.9259 30.4989C32.8661 30.0831 32.7955 29.669 32.7554 29.2506L33.4703 29.0333C33.6568 30.9674 33.9688 32.7887 35.1044 34.4225C35.1343 34.4662 35.1647 34.5095 35.1957 34.5524C35.2266 34.5954 35.2581 34.6379 35.2902 34.6801C35.3222 34.7222 35.3548 34.7639 35.3879 34.8052C35.421 34.8465 35.4546 34.8874 35.4888 34.9279C35.5229 34.9684 35.5576 35.0084 35.5927 35.048C35.6279 35.0876 35.6635 35.1267 35.6997 35.1654C35.7358 35.2041 35.7724 35.2423 35.8095 35.2801C35.8466 35.3178 35.8842 35.3551 35.9222 35.392C35.9603 35.4288 35.9988 35.4651 36.0378 35.5009C36.0768 35.5368 36.1162 35.5721 36.156 35.607C36.1958 35.6418 36.2361 35.6762 36.2769 35.71C36.3176 35.7439 36.3587 35.7772 36.4003 35.8099C36.4419 35.8427 36.4838 35.875 36.5262 35.9067C36.5686 35.9384 36.6113 35.9696 36.6545 36.0003C36.6977 36.0309 36.7413 36.061 36.7852 36.0906C36.8291 36.1202 36.8734 36.1491 36.918 36.1776C36.9627 36.206 37.0077 36.2339 37.0531 36.2612C37.0985 36.2885 37.1442 36.3152 37.1902 36.3413C37.2363 36.3675 37.2826 36.393 37.3293 36.418C37.3759 36.4429 37.423 36.4673 37.4703 36.4911C37.5176 36.5149 37.5652 36.5381 37.613 36.5606C37.6609 36.5832 37.7091 36.6052 37.7576 36.6266C37.806 36.6479 37.8547 36.6687 37.9037 36.6888C37.9526 36.7089 38.0018 36.7284 38.0512 36.7473C38.1007 36.7662 38.1504 36.7845 38.2003 36.8021C38.2502 36.8198 38.3004 36.8368 38.3508 36.8531C38.4011 36.8695 38.4516 36.8853 38.5024 36.9003C38.5531 36.9154 38.604 36.9299 38.6551 36.9437C38.7063 36.9575 38.7576 36.9707 38.809 36.9832C38.8604 36.9957 38.912 37.0076 38.9637 37.0187C39.0155 37.0299 39.0674 37.0405 39.1194 37.0504C39.1714 37.0603 39.2235 37.0695 39.2758 37.0781C40.6976 37.3251 42.0721 37.1703 43.2704 36.3098C45.276 34.8695 46.1703 31.3595 46.5432 29.0176Z" fill="#4FDB40"/>
<path d="M42.1504 7.5459C43.543 7.81028 44.4735 8.37506 45.2964 9.53975C46.7543 11.6033 46.9489 13.7583 46.537 16.1912C46.3784 16.1208 46.1285 16.0958 46.006 15.9724C45.9575 15.9236 45.9764 15.83 45.9757 15.7635C46.0215 13.5737 45.2229 13.0455 44.1476 11.3001C43.8067 10.7468 43.5183 10.0655 43.0739 9.59506C43.0788 9.76288 43.283 10.0587 43.3688 10.2183C43.6927 10.8263 44.0379 11.4219 44.4044 12.0052C45.2318 13.3254 45.7814 14.1903 45.7349 15.8001C45.666 16.2817 45.5381 16.7457 45.4141 17.2154C45.3792 17.1883 45.3183 17.1632 45.2785 17.1426C45.3131 16.8625 45.3414 16.5854 45.3552 16.3033C45.1734 15.9809 44.916 15.6812 44.6872 15.39C43.9645 14.47 43.0823 13.5067 42.6979 12.3855C42.1114 10.6753 43.2932 9.38444 42.1504 7.5459Z" fill="#F2C94C"/>
<path d="M43.6538 13.1123C43.9419 13.3969 45.3239 15.5541 45.3897 15.9061C44.8048 15.6161 43.8751 13.7655 43.6538 13.1123Z" fill="#2D2D2D"/>
<path d="M28.0484 12.902C28.1005 12.8966 28.1508 12.8921 28.2032 12.8917C28.7672 12.8874 29.2353 13.0657 29.6355 13.4721C29.9961 13.8385 30.1988 14.3039 30.1862 14.8217C30.1377 16.8247 27.9295 17.336 26.4845 18.1075C25.6019 18.5788 24.813 19.1224 24.0803 19.805C23.7832 20.0826 23.541 20.4589 23.2211 20.7042C23.1563 20.7538 23.0876 20.8075 23.0023 20.7733C22.9128 20.7374 22.8953 20.6715 22.8691 20.5906C22.9113 20.242 23.4512 19.4037 23.6304 19.0423C24.2159 17.8614 24.6869 16.6171 25.2816 15.444C25.4777 15.0575 25.6963 14.6725 25.9502 14.3209C26.4519 13.6264 27.1871 13.0378 28.0484 12.902Z" fill="white"/>
<path d="M21.6333 57.083C22.1967 57.1675 22.7658 57.2429 23.3243 57.355C23.9259 57.4757 24.7564 57.7857 25.3502 57.753C25.8599 58.2346 26.3654 58.8153 26.9678 59.1772C28.3023 59.979 29.6678 59.0755 29.9983 59.2597C30.0386 59.3718 30.0397 59.4345 30.0069 59.5507C29.8792 60.0025 29.6437 60.4496 29.4856 60.8952C29.1682 61.8128 28.8981 62.7442 28.6752 63.6893C28.3289 63.5664 27.987 63.4321 27.6496 63.2864C25.5596 62.3805 23.5926 60.8543 22.443 58.8713C22.1117 58.2999 21.8746 57.6955 21.6333 57.083Z" fill="#4FDB40"/>
<path d="M25.1363 43.0068C25.2226 43.3929 25.3283 43.7736 25.4534 44.1489C25.5785 44.5243 25.7223 44.8924 25.8847 45.2531C26.6553 46.9706 27.6536 48.4359 27.2511 50.4139C27.2172 50.5809 27.1755 50.746 27.1261 50.909C27.0767 51.072 27.0198 51.2324 26.9554 51.3902C26.8909 51.5479 26.8192 51.7023 26.7404 51.8533C26.6614 52.0044 26.5757 52.1514 26.483 52.2943C26.3 52.5766 26.0991 52.847 25.8977 53.1163C24.6662 51.6638 24.0156 49.7565 23.0872 48.1137C22.7987 47.6032 22.4578 47.141 22.1045 46.6749C22.506 45.3161 24.1305 43.9914 25.1363 43.0068Z" fill="#F2C94C"/>
<path d="M21.2778 24.4811C20.9533 24.5979 20.5943 24.6808 20.2529 24.73C19.3253 24.8633 18.461 24.6253 17.7188 24.0565C16.5635 23.1711 15.9217 21.6854 15.747 20.2671C15.6629 19.5845 15.6057 18.0741 16.0748 17.5204C16.2174 17.3519 16.4336 17.2897 16.6462 17.2732C18.0671 17.1637 19.5742 17.6826 20.6392 18.6193C21.5555 19.4251 22.1896 20.6074 22.2571 21.835C22.3044 22.6949 22.0974 23.686 21.5135 24.3397C22.1358 25.4279 22.5963 26.5786 22.9489 27.7795L22.977 28.0579C22.9101 28.1208 22.8014 28.2497 22.7182 28.2771C22.4952 26.9449 21.9018 25.6687 21.2778 24.4811Z" fill="white"/>
<path d="M16.3603 17.6279C16.6317 17.6944 16.9179 18.0717 17.0741 18.3034L17.0606 18.3629L17.0098 18.3777C16.8052 18.2986 16.4299 18.2343 16.2842 18.084C16.2405 17.9204 16.311 17.7872 16.3603 17.6279Z" fill="#2D2D2D"/>
<path d="M16.7935 17.6234C17.1413 17.5626 17.9631 17.6031 18.2703 17.7707C18.3224 18.165 18.2039 18.6663 18.1514 19.0668C18.1445 19.1397 18.1363 19.1664 18.1069 19.2304C17.8914 19.0487 17.7483 18.7304 17.5668 18.5072C17.3325 18.219 16.9631 17.9487 16.7935 17.6234Z" fill="#2D2D2D"/>
<path d="M18.4929 17.793C18.5121 17.7973 18.5314 17.8012 18.5505 17.8061C18.8346 17.8781 19.1934 17.9833 19.3445 18.257C19.569 18.6634 19.2016 19.7642 19.069 20.2032L19.0146 20.4437L18.9719 20.448C18.3284 19.6605 18.2991 19.6348 18.4398 18.6541C18.4815 18.364 18.474 18.0839 18.4929 17.793Z" fill="#2D2D2D"/>
<path d="M16.1194 18.25C16.5156 18.3998 16.8588 18.6598 17.291 18.6973C17.6126 19.0293 17.8735 19.4168 18.1409 19.7923C18.0216 19.8174 17.9015 19.8373 17.7813 19.8579C17.3792 19.9198 16.9871 19.8184 16.5886 19.7984C16.4246 19.7902 16.2626 19.8237 16.0983 19.8216C16.0891 19.8112 16.0786 19.8018 16.0705 19.7904C15.8665 19.5008 16.063 18.5798 16.1194 18.25Z" fill="#2D2D2D"/>
<path d="M16.0864 19.8799C16.6168 20.2553 17.7278 20.1331 18.3546 20.1097C18.5378 20.4336 19.1469 20.9278 19.1897 21.2664C19.1771 21.2712 19.1643 21.2759 19.1517 21.2808C18.5886 21.5007 17.059 21.2874 16.4127 21.2242C16.3256 21.1746 16.2812 21.1298 16.2368 21.0415C16.096 20.761 15.9935 20.1787 16.0864 19.8799Z" fill="#2D2D2D"/>
<path d="M21.0644 19.5576C21.4623 19.9104 21.7399 20.7308 21.8518 21.2424C22.0508 22.1528 21.9127 23.2018 21.4013 23.9902C21.0451 23.4836 20.7658 22.9222 20.4551 22.3871C20.8239 21.3997 21.0046 20.6098 21.0644 19.5576Z" fill="#2D2D2D"/>
<path d="M19.6628 18.2939C19.9709 18.54 20.5901 18.8565 20.7399 19.2184C21.0004 19.848 20.539 21.4744 20.2959 22.0833L20.2653 22.0889C20.0258 21.9614 19.3503 20.9596 19.1909 20.6882C19.2908 20.4098 19.3754 20.1268 19.4447 19.8393C19.5141 19.5518 19.5678 19.2614 19.6058 18.9681C19.6319 18.7557 19.6254 18.5432 19.6569 18.3314L19.6628 18.2939Z" fill="#2D2D2D"/>
<path d="M16.3208 21.3984C17.2846 21.4358 18.4567 21.9033 19.3943 21.5096C19.6236 21.7996 19.9538 22.1472 20.0901 22.49L20.026 22.5502C18.932 23.0177 18.0548 22.803 16.927 22.6946C16.6892 22.273 16.4696 21.8605 16.3208 21.3984Z" fill="#2D2D2D"/>
<path d="M20.2538 22.7402L20.2669 22.742C20.5303 22.9044 20.9911 23.8685 21.1665 24.1875C21.0581 24.2252 20.9487 24.2595 20.8382 24.2902C19.869 24.5616 18.9961 24.4399 18.1297 23.9502C17.6549 23.6373 17.3163 23.293 16.98 22.8357C17.02 22.85 17.0601 22.8637 17.1 22.8784C18.1608 23.2711 19.2235 23.1804 20.2538 22.7402Z" fill="#2D2D2D"/>
<path d="M32.72 16.9515C32.6666 17.1014 32.7056 17.2753 32.6795 17.4333C32.667 17.509 32.6842 17.482 32.6276 17.5229C32.1147 16.9911 32.0314 15.5682 32.0217 14.874C31.9935 12.8454 32.8329 10.4718 34.2625 9.01544C35.51 7.74464 37.2936 6.88913 39.0888 6.88189C39.9643 6.87837 41.0872 7.03492 41.7291 7.69671C42.2002 8.18239 42.2333 8.78958 42.2356 9.42372C41.3861 10.3894 40.0415 11.0525 38.9568 11.7303C37.7498 12.4845 36.5626 13.3204 35.5754 14.3531C35.4609 14.4736 35.3511 14.5983 35.2461 14.7272C35.1411 14.8561 35.0412 14.9889 34.9463 15.1254C34.8513 15.2619 34.7618 15.4018 34.6775 15.5451C34.5933 15.6885 34.5147 15.8348 34.4415 15.9841C34.3118 16.2483 34.2217 16.5597 34.0409 16.7919L33.9893 16.7773C33.9865 16.7433 33.983 16.7274 33.9925 16.6904C34.0451 16.4847 34.1824 16.2472 34.2714 16.0511C35.0679 14.2956 36.6365 12.8486 38.2322 11.7943C38.8643 11.3766 39.584 11.0431 40.1766 10.5724C40.1898 10.5618 40.2028 10.551 40.2159 10.5404C39.4168 10.8653 38.6244 11.2512 37.897 11.7174C36.8598 12.3822 35.5397 13.5259 34.805 14.5248C34.5769 14.8316 34.3675 15.1505 34.1766 15.4817C34.0245 15.7465 33.8811 16.0919 33.6821 16.3202C33.6005 16.2732 33.599 16.2211 33.5648 16.1367C33.4261 15.1005 34.3397 13.4652 34.9441 12.675C36.1729 11.0686 38.5574 9.48005 40.6069 9.23146C41.0757 9.17458 41.4868 9.26458 41.9289 9.42333C41.1421 8.95575 40.3872 9.03935 39.5275 9.25419C37.3317 9.80271 35.3501 11.3085 34.2002 13.2515C33.7861 13.9511 33.1066 15.3281 33.2966 16.1718C33.2986 16.1808 33.3033 16.1889 33.3067 16.1975C33.3304 16.3297 33.3832 16.495 33.3236 16.6193C33.2268 16.693 33.1147 16.7204 33.0005 16.7567C33.0036 16.7348 33.0072 16.7131 33.0097 16.6911C33.0564 16.2884 32.8429 15.5182 32.844 15.0221C32.8488 12.9423 33.9593 10.8997 35.519 9.57044C36.4162 8.80591 37.4346 8.34982 38.571 8.06622C38.9893 7.96185 39.4407 7.89216 39.8405 7.73146C39.7809 7.73221 39.7213 7.73368 39.6617 7.73589C39.6021 7.73808 39.5425 7.74101 39.483 7.74466C39.4235 7.74831 39.364 7.75268 39.3047 7.75778C39.2452 7.76288 39.1859 7.7687 39.1266 7.77525C39.0673 7.78179 39.0082 7.78906 38.9491 7.79704C38.89 7.80503 38.831 7.81374 38.7721 7.82317C38.7132 7.8326 38.6545 7.84273 38.5958 7.85357C38.5372 7.8644 38.4787 7.87596 38.4204 7.88825C38.362 7.90054 38.3038 7.91354 38.2457 7.92724C38.1877 7.94094 38.1299 7.95534 38.0722 7.97044C38.0145 7.98554 37.957 8.00135 37.8997 8.01786C37.8424 8.03437 37.7854 8.05156 37.7285 8.06943C37.6716 8.08734 37.6149 8.10594 37.5585 8.12521C37.5021 8.14448 37.4459 8.16442 37.39 8.18505C37.334 8.20573 37.2783 8.22705 37.2229 8.24903C37.1674 8.27107 37.1123 8.29375 37.0575 8.31708C37.0026 8.34041 36.948 8.36442 36.8937 8.38911C36.8394 8.41375 36.7855 8.43906 36.7318 8.46505C36.6781 8.49104 36.6248 8.51768 36.5718 8.54497C36.5187 8.57226 36.4661 8.60021 36.4137 8.6288C36.3614 8.65734 36.3094 8.68653 36.2578 8.71638C36.2061 8.74622 36.1548 8.77669 36.1039 8.80778C36.0531 8.83888 36.0026 8.87057 35.9525 8.90286C35.9024 8.93521 35.8526 8.96812 35.8033 9.00161C35.754 9.03515 35.7051 9.06929 35.6567 9.10403C35.6082 9.13872 35.5601 9.17401 35.5125 9.20989C35.4649 9.24578 35.4177 9.28224 35.371 9.31927C35.3242 9.3563 35.2779 9.3939 35.2322 9.43208C35.1863 9.47026 35.141 9.50898 35.0961 9.54825C35.0512 9.58752 35.0068 9.62732 34.9629 9.66763C34.919 9.70799 34.8756 9.74888 34.8327 9.79028C34.7898 9.83169 34.7474 9.87362 34.7055 9.91607C34.663 9.95909 34.621 10.0027 34.5795 10.0468C34.538 10.0908 34.4972 10.1354 34.4568 10.1805C34.4165 10.2256 34.3767 10.2711 34.3375 10.3172C34.2982 10.3633 34.2595 10.4098 34.2215 10.4568C34.1834 10.5039 34.1459 10.5514 34.109 10.5993C34.0721 10.6473 34.0358 10.6956 34 10.7445C33.9644 10.7934 33.9293 10.8427 33.8947 10.8924C33.8603 10.9421 33.8264 10.9922 33.7931 11.0428C33.7599 11.0933 33.7273 11.1442 33.6953 11.1956C33.6632 11.247 33.6319 11.2987 33.6012 11.3508C33.5705 11.403 33.5404 11.4555 33.511 11.5084C33.4816 11.5613 33.4528 11.6145 33.4247 11.6681C33.3966 11.7216 33.3692 11.7755 33.3424 11.8298C33.3156 11.8841 33.2895 11.9387 33.264 11.9936C33.2386 12.0485 33.2139 12.1037 33.1898 12.1593C33.1657 12.2148 33.1424 12.2706 33.1197 12.3267C33.097 12.3828 33.075 12.4391 33.0537 12.4958C33.0325 12.5524 33.0119 12.6093 32.992 12.6665C32.9721 12.7236 32.9529 12.781 32.9344 12.8386C32.916 12.8962 32.8982 12.9541 32.8812 13.0122C32.8641 13.0702 32.8478 13.1285 32.8322 13.1869C32.8166 13.2454 32.8017 13.3041 32.7876 13.3629C32.7735 13.4217 32.76 13.4807 32.7473 13.5399C32.7347 13.5991 32.7227 13.6584 32.7115 13.7178C32.7002 13.7773 32.6897 13.8368 32.68 13.8965C32.6702 13.9563 32.6612 14.0161 32.6529 14.0761C32.6447 14.136 32.6371 14.196 32.6303 14.2561C32.6235 14.3163 32.6175 14.3765 32.6122 14.4368C32.6068 14.497 32.6023 14.5574 32.5985 14.6178C32.5947 14.6781 32.5916 14.7386 32.5893 14.799C32.5869 14.8595 32.5853 14.92 32.5845 14.9805C32.5837 15.041 32.5836 15.1015 32.5843 15.162C32.5863 15.4393 32.7918 16.8033 32.7858 16.833C32.7769 16.8773 32.7419 16.9119 32.72 16.9515Z" fill="#F2C94C"/>
<path d="M28.6004 38.1572C28.7968 38.4881 28.9984 38.8158 29.2052 39.1404C28.2512 42.1176 29.7375 43.7614 30.6854 46.3837C31.0601 47.4204 31.2496 48.5283 31.4324 49.6123C31.5048 50.0415 31.7018 50.5518 31.6988 50.9779C31.6934 51.7632 31.3968 52.8964 31.1745 53.6636C30.3255 53.8039 29.8265 54.281 29.1278 54.7215C28.7201 54.9786 28.2959 55.1864 27.8512 55.3711C27.2387 54.7634 26.3561 53.8236 25.8976 53.1169C26.099 52.8476 26.2999 52.5772 26.4829 52.295C26.5756 52.152 26.6614 52.005 26.7403 51.8539C26.8191 51.7029 26.8908 51.5485 26.9553 51.3908C27.0197 51.2331 27.0766 51.0727 27.126 50.9096C27.1754 50.7466 27.2171 50.5816 27.2511 50.4146C27.6535 48.4365 26.6552 46.9712 25.8847 45.2537C25.7222 44.893 25.5784 44.5249 25.4533 44.1496C25.3283 43.7743 25.2226 43.3936 25.1362 43.0075C26.5087 41.6432 27.9373 40.0011 28.6004 38.1572Z" fill="#4FDB40"/>
<path d="M22.9487 27.7791C23.009 27.5527 23.0306 27.3205 23.0883 27.0934C23.2641 26.4019 23.5487 25.7163 23.8811 25.0859C25.6521 21.7266 28.7129 19.8845 32.2268 18.7852C31.8748 21.0052 32.356 21.9426 33.6405 23.6656C34.0082 24.1588 34.3792 24.666 34.6019 25.2445C34.7409 25.6056 34.9156 26.1135 34.8736 26.5047C34.8529 26.6962 34.7707 26.9003 34.8098 27.0912L34.8772 27.1107C34.9841 27.0799 35.0424 27.0152 35.1082 26.9291C35.2472 26.747 35.3469 26.5259 35.4453 26.3202C35.9972 25.1664 35.9682 24.0172 35.8 22.773C35.9802 23 36.1875 23.2102 36.3833 23.424C36.4294 23.8955 36.4647 24.37 36.4366 24.8438C36.3693 25.9829 35.9281 26.9055 35.0749 27.6618C34.7892 27.5611 34.2433 27.6823 33.922 27.6701C33.5606 27.6563 33.1922 27.6192 32.8347 27.5652C29.7202 27.0952 27.4753 25.6404 24.256 27.202C23.7888 27.4285 23.4265 27.8302 22.9769 28.0575L22.9487 27.7791Z" fill="#4FDB40"/>
<path d="M64.591 57.5566C64.5965 57.5554 64.6018 57.5533 64.6074 57.5529C65.5094 57.5011 66.9074 57.6629 67.5874 58.3183C68.13 58.8412 68.2517 59.6172 68.2518 60.3364C68.2524 62.3733 67.2609 64.5192 65.8187 65.9365C64.8478 66.8908 63.4683 67.7668 62.0599 67.7501C60.6754 67.7337 59.5106 67.0415 58.5694 66.0774C58.1563 66.2537 57.7514 66.5242 57.3561 66.7409C56.7299 67.0586 54.2973 68.2975 53.7365 68.1863C53.6833 68.1139 53.6831 68.059 53.6763 67.9711C53.8226 67.7829 54.6942 67.5597 54.9601 67.4546C56.1328 66.9907 57.2995 66.395 58.3696 65.7285C58.2368 65.3241 58.1338 64.9373 58.1002 64.5117C57.971 62.8786 58.3855 61.0824 59.4692 59.8204C60.7439 58.3361 62.6909 57.709 64.591 57.5566Z" fill="white"/>
<path d="M66.9741 58.3711C67.1543 58.4647 67.303 58.5887 67.4594 58.7161L66.968 59.098L66.644 59.3822C66.7907 59.0548 66.88 58.716 66.9741 58.3711Z" fill="#2D2D2D"/>
<path d="M67.5536 58.9434L67.592 58.96C67.8278 59.3818 67.8738 59.8164 67.8981 60.2902C67.5497 60.2136 67.1814 60.1887 66.827 60.1463C66.6501 60.1406 66.4648 60.1009 66.2891 60.0763C66.7409 59.7523 67.1478 59.3237 67.5536 58.9434Z" fill="#2D2D2D"/>
<path d="M66.1528 60.3213C66.5833 60.4425 67.3648 60.4409 67.865 60.5198C67.8596 60.8199 67.8432 61.6625 67.6312 61.8739C67.6242 61.835 67.6086 61.8008 67.5942 61.764C67.4242 61.6477 66.8992 61.6698 66.6892 61.6551C66.0306 61.6063 65.3733 61.4803 64.7114 61.5128C65.0953 61.1398 65.6882 60.5597 66.1528 60.3213Z" fill="#2D2D2D"/>
<path d="M65.1393 57.9281C65.7038 57.9188 66.2563 58.0713 66.7883 58.2453C66.3434 59.3994 66.5473 59.5587 65.5024 60.4477L64.5864 61.2243C64.731 60.1192 64.9974 59.0313 65.1393 57.9281Z" fill="#2D2D2D"/>
<path d="M64.5536 61.6729C64.9123 61.7441 65.2948 61.7582 65.6599 61.7925L67.6439 61.9785C67.4888 62.5361 67.2998 63.2753 66.9348 63.7331C66.696 63.873 66.0207 63.6854 65.748 63.6424C65.3397 63.6187 64.9205 63.5382 64.5148 63.482C63.8111 63.3845 63.11 63.2926 62.4023 63.2272C63.1257 62.7335 63.7968 62.1046 64.5536 61.6729Z" fill="#2D2D2D"/>
<path d="M64.2507 57.9451C64.4851 57.935 64.7194 57.9217 64.9534 57.9053C64.6769 59.0764 64.5688 60.2953 64.2697 61.4544C63.7697 61.8815 63.2247 62.2684 62.6993 62.6642L62.3042 62.9491C62.4237 62.4 62.9827 58.7743 62.9372 58.4427C62.9269 58.3668 62.9225 58.3246 62.9458 58.2482C63.2521 58.0153 63.8787 57.9919 64.2507 57.9451Z" fill="#2D2D2D"/>
<path d="M60.5387 59.2969L60.5588 59.3193C60.5598 59.3678 60.5566 59.4083 60.5442 59.4552C60.4337 59.8745 60.4152 60.3406 60.3619 60.7713C60.2046 62.04 60.0425 63.3593 60.0133 64.6378C59.7456 64.8136 58.9064 65.4977 58.6731 65.5309L58.6453 65.4596C58.3983 64.6134 58.3917 63.7026 58.5249 62.8344C58.7381 61.4441 59.3897 60.1439 60.5387 59.2969Z" fill="#2D2D2D"/>
<path d="M59.9781 65.0713C60.4269 65.1284 60.8794 65.2547 61.3188 65.3598C62.4633 65.6336 63.7402 66.0098 64.8731 66.2234C64.4413 66.59 63.9413 66.856 63.4322 67.0968C62.969 67.2869 62.4456 67.3936 61.9441 67.3711C60.7312 67.3164 59.6351 66.6668 58.8267 65.7946C59.2116 65.5547 59.5895 65.3054 59.9781 65.0713Z" fill="#2D2D2D"/>
<path d="M62.6169 58.2788L62.7158 58.2734C62.729 58.2911 62.7502 58.3049 62.7555 58.3263C62.7616 58.3516 62.1165 62.632 62.0633 63.0973C61.5103 63.542 60.9243 63.9438 60.3755 64.3948L60.3285 64.4258L60.2771 64.3811C60.2322 63.9123 60.3581 63.3405 60.4045 62.867C60.4444 62.4607 60.4598 62.0528 60.5019 61.6466C60.5877 60.8192 60.7016 59.9885 60.7383 59.1575C61.3426 58.7927 61.9555 58.5184 62.6169 58.2788Z" fill="#2D2D2D"/>
<path d="M62.132 63.4336C62.6138 63.4553 63.1283 63.5738 63.6108 63.6375C64.6662 63.7766 65.7227 63.8967 66.7725 64.0761C66.3246 64.8212 65.758 65.5766 65.0186 66.0523C64.9839 66.0445 64.9509 66.0384 64.918 66.0232C63.5009 65.3678 61.812 65.3348 60.3574 64.7766C60.9573 64.34 61.5488 63.8923 62.132 63.4336Z" fill="#2D2D2D"/>
<path d="M50.5913 41.3926C51.4791 41.5877 52.559 41.7712 53.4614 41.6064C54.4029 42.5773 55.3884 43.5186 56.3051 44.512C56.8972 45.1535 57.4293 45.8924 58.0645 46.4878C57.8465 46.7583 57.6403 47.0375 57.4457 47.3253C57.2511 47.6131 57.0689 47.9086 56.8991 48.2116C56.7231 48.5241 56.5659 48.9292 56.3566 49.2102C55.7654 50.4384 55.1565 51.8042 54.2679 52.8448C53.859 53.3237 53.3672 53.7316 52.9075 54.1599C52.5666 54.4775 52.2461 54.8158 51.9125 55.1408C50.5636 54.7982 49.7907 54.2522 48.5724 53.6825C48.313 52.4962 47.9876 51.0063 48.2072 49.8012C48.4282 48.2706 48.8632 46.6903 49.3841 45.2374C49.5338 44.8201 49.7564 44.4434 49.9554 44.0491C50.3848 43.1987 50.5769 42.3448 50.5913 41.3926Z" fill="#4FDB40"/>
<path d="M47.7681 50.8252C47.8735 51.0152 47.8567 51.4525 47.8805 51.6862C47.9443 52.3114 48.0494 52.9263 48.1714 53.5425C47.9712 53.4512 47.778 53.3596 47.5569 53.3328C47.4844 53.3239 47.4117 53.3196 47.3387 53.3197C47.2657 53.3199 47.193 53.3245 47.1205 53.3336C47.0481 53.3428 46.9765 53.3564 46.9058 53.3743C46.835 53.3923 46.7656 53.4146 46.6976 53.4411C46.2924 53.5947 44.9429 54.5878 44.5578 54.8901C44.4029 55.0118 44.27 55.1374 44.2454 55.3404C44.2706 55.3956 44.2741 55.4286 44.3278 55.4629C44.7743 55.7477 46.0065 55.4332 46.5085 55.3246C46.1057 55.6377 45.7709 56.0443 45.4463 56.4357C45.1551 56.7868 44.2058 57.9793 44.3155 58.4562C44.34 58.5624 44.3733 58.6162 44.4683 58.6723C44.694 58.8058 45.0758 58.6316 45.2958 58.5589C45.148 58.7789 44.9985 58.9904 44.8286 59.1939C43.9015 59.5682 42.1662 59.6546 41.1588 59.7064C40.2587 59.7527 35.9901 59.727 35.4316 59.2233C35.4613 58.9649 35.3544 58.7826 35.2479 58.5572C35.3441 58.5945 35.4412 58.6294 35.539 58.6621C35.6842 58.7091 35.87 58.7301 36.0051 58.6422C36.0923 58.5857 36.1234 58.5018 36.1383 58.4032C36.1994 57.9984 35.8194 57.5012 35.5962 57.1883C34.9757 56.4158 34.1385 55.9136 33.23 55.5402C33.7079 55.613 35.163 55.7422 35.5476 55.4942C35.6417 55.4335 35.6406 55.4146 35.6574 55.3118C35.637 55.27 35.6187 55.2335 35.5883 55.1978C35.406 54.9833 35.0606 54.8219 34.8186 54.6812C33.4337 53.8758 33.0732 53.8496 31.4937 53.6983C31.7415 52.773 31.9547 51.8746 32.0848 50.9252C32.2307 50.9848 32.3784 51.0395 32.528 51.0892C34.3343 51.6863 36.1869 52.0931 38.0909 52.2055C38.8551 52.2507 39.6241 52.2374 40.3893 52.2375C41.0807 52.2375 41.7798 52.2607 42.4701 52.2197C42.6996 52.2065 42.9286 52.1876 43.1571 52.163C43.3856 52.1384 43.6134 52.1081 43.8404 52.0721C44.0674 52.036 44.2934 51.9944 44.5183 51.9471C44.7432 51.8997 44.9668 51.8468 45.1891 51.7883C45.4114 51.7298 45.632 51.6657 45.8512 51.5962C46.0702 51.5267 46.2874 51.4517 46.5027 51.3713C46.718 51.2909 46.9312 51.2051 47.1422 51.1141C47.3533 51.023 47.5619 50.9267 47.7681 50.8252Z" fill="white"/>
<path d="M39.4294 54.4316C39.505 54.439 39.5498 54.451 39.6165 54.4876C39.7544 54.8234 39.6853 55.2201 39.777 55.5696C39.8745 55.9414 40.1091 56.322 40.1617 56.6984C40.1787 56.8194 40.1453 56.8413 40.0789 56.9382C39.8716 56.7987 39.7788 56.6165 39.6826 56.392C39.4889 55.9404 39.247 54.8891 39.4294 54.4316Z" fill="#2D2D2D"/>
<path d="M57.6028 12.7901C58.2706 12.7574 58.953 12.8428 59.5993 13.0102C61.6633 13.5447 64.2773 15.0329 65.3679 16.9191C65.8214 17.7035 65.9115 18.6512 65.668 19.52C65.2216 21.1124 63.7076 22.3164 62.3271 23.0886C61.6901 23.396 61.0115 23.6314 60.3023 23.685C59.4069 23.7527 58.4833 23.4937 57.8 22.9012C56.1131 21.4385 54.806 18.6299 54.6592 16.4255C54.5967 15.4879 54.7744 14.4232 55.4172 13.6992C55.9936 13.0501 56.7656 12.8456 57.6028 12.7901Z" fill="#F2C94C"/>
<path d="M46.9036 14.4902C47.6026 14.815 48.2607 15.1516 48.8804 15.614C51.6148 17.6539 52.8645 20.376 53.3465 23.6684C53.384 23.9652 53.4497 24.2918 53.4347 24.5902C53.3848 25.5796 52.5917 26.5476 52.009 27.2977C51.7356 27.6498 51.4585 28.0154 51.1419 28.3298C51.3821 28.9316 51.603 29.627 51.7221 30.2645C51.1411 30.0198 50.5558 29.7867 49.9498 29.6106C48.0915 29.0705 45.6518 28.7304 44.3446 27.1528C43.4102 26.0252 43.3401 24.4118 43.464 23.0172C44.1899 22.2111 44.5479 21.5844 44.984 20.5988C45.0607 21.4248 45.1985 22.2406 45.3975 23.046C45.6528 24.0419 46.1133 25.3664 47.0669 25.9016C47.1626 25.9554 47.2914 26.0278 47.4032 25.9964C47.3487 25.8291 46.8154 25.3972 46.6632 25.2009C46.3365 24.7797 46.1054 24.3099 45.9423 23.8036C45.7493 23.2045 45.0675 20.2855 45.2919 19.8456C45.3735 20.3273 45.5337 20.7814 45.8036 21.1916C46.0357 21.5443 46.3379 21.8705 46.4513 22.285C46.6572 23.0374 46.2937 23.8352 46.6154 24.5726C46.7778 24.945 47.0933 25.18 47.4651 25.322C48.2108 25.6066 49.0006 25.4902 49.7127 25.1727C49.5446 25.1596 49.3556 25.2006 49.1868 25.2201C48.5745 25.2907 47.9688 25.2847 47.4154 24.9689C46.3702 24.3727 47.084 23.0027 46.7757 22.0753C46.5327 21.3445 45.9349 20.8524 45.7367 20.0894C46.1081 19.4569 46.5399 18.847 46.7589 18.1398C46.9363 17.5666 46.9838 16.9153 46.6986 16.3678C46.8377 15.7391 46.8592 15.1295 46.9036 14.4902Z" fill="#F2C94C"/>
<path d="M35.9228 15.0262C37.1209 14.2902 38.2976 13.5214 39.4529 12.7199C40.359 12.1012 41.3094 11.465 42.1227 10.7275C42.1091 10.8886 42.0949 11.0504 42.0905 11.2119C42.0513 12.6299 42.9348 13.93 43.856 14.9256C43.8168 14.9144 43.7777 14.9032 43.7382 14.8932C42.9412 14.6923 42.2486 14.9268 41.5678 15.3375C41.2966 15.5012 40.7881 15.8584 40.7288 16.1915C40.7166 16.2596 40.7435 16.268 40.7813 16.3186C41.5297 16.5086 42.4632 15.283 43.6662 15.349C44.0042 15.3676 44.3054 15.5384 44.525 15.7917C44.7046 15.9989 44.9525 16.3715 45.0002 16.6444C45.0483 16.9196 44.7924 17.9181 44.7614 18.2942C45.1191 17.9629 45.1754 17.5957 45.2785 17.1431C45.3183 17.1636 45.3792 17.1887 45.4141 17.2158C45.2833 17.9203 45.1289 18.6196 44.9507 19.3136C44.5754 20.8264 44.2362 21.6482 43.1223 22.7738C42.8882 23.0146 42.6421 23.2425 42.384 23.4573C42.1259 23.6721 41.8572 23.8728 41.5779 24.0593C40.9316 24.4939 40.1489 24.9141 39.3446 24.7561C38.0325 24.4982 36.2054 22.8966 35.4913 21.8025C35.0834 21.1775 34.8323 20.5279 34.6713 19.8035C34.5871 19.5169 34.5871 19.2009 34.5035 18.9107C34.475 18.5225 34.3228 17.4639 34.4262 17.1404C34.474 16.9911 34.5753 16.8612 34.6261 16.7113C34.7057 16.4769 34.7686 16.2403 34.906 16.0304C35.0849 15.7571 35.3426 15.6201 35.6585 15.5574C36.5642 15.3776 37.5228 15.9727 38.2546 16.4442C38.3999 16.457 38.5922 16.4696 38.7211 16.3913C38.7725 16.3601 38.7664 16.3263 38.7804 16.2728C38.6898 15.9903 38.3597 15.6718 38.118 15.5069C37.4524 15.053 36.7153 14.8695 35.9228 15.0262Z" fill="white"/>
<path d="M40.182 21.1719L40.2653 21.1909L40.3059 21.2602C40.2733 21.3213 40.2378 21.3508 40.1783 21.3838C39.9064 21.5348 39.6357 21.5487 39.3433 21.4691C39.3378 21.4642 39.3322 21.4596 39.327 21.4545C39.2593 21.3878 39.2127 21.3646 39.2129 21.2665C39.3598 21.2426 39.5148 21.3059 39.6555 21.3457C39.8407 21.3048 40.007 21.2425 40.182 21.1719Z" fill="#2D2D2D"/>
<path d="M39.7824 18.3135C39.7908 18.3234 39.8008 18.3321 39.8077 18.3432C39.8869 18.4698 39.9649 19.827 39.9439 20.0297C39.8596 20.0136 39.83 19.9997 39.7705 19.9378C39.6041 19.4756 39.7346 18.8014 39.7824 18.3135Z" fill="#2D2D2D"/>
<path d="M40.7477 22.5703C40.7958 22.5737 40.8381 22.5894 40.8841 22.6033L40.8784 22.6728C40.7122 22.8609 40.517 22.9921 40.277 23.0693C39.7728 23.2315 39.3341 23.14 38.8785 22.9007C38.8496 22.8805 38.8408 22.8755 38.8111 22.8488C38.7388 22.7838 38.6831 22.7444 38.6807 22.646C38.9354 22.5823 39.2098 22.7552 39.4496 22.8252C39.915 22.9613 40.3431 22.7897 40.7477 22.5703Z" fill="#2D2D2D"/>
<path d="M38.9228 20.3261L38.9751 20.3223C39.0774 20.416 39.2079 20.4485 39.3378 20.4887C40.0782 20.7172 40.4935 20.1794 40.9002 20.3643C40.9645 20.4399 40.9752 20.4456 40.9837 20.543C40.9148 20.6323 40.8975 20.6349 40.7898 20.6728C40.5146 20.7287 40.249 20.8291 39.9682 20.8581C39.6134 20.8947 38.9013 20.8837 38.6245 20.6551C38.5843 20.5473 38.5909 20.5355 38.6194 20.4227C38.7195 20.3291 38.7892 20.3425 38.9228 20.3261Z" fill="#2D2D2D"/>
<path d="M42.6158 16.8271C42.6543 16.8443 42.6492 16.8408 42.6865 16.8626C42.874 16.9726 42.9456 17.114 42.9958 17.3234C43.0383 17.5009 43.0311 17.6871 42.9332 17.8452C42.8616 17.9608 42.7663 17.9768 42.6429 18.0089L42.5983 18.0201L42.596 18.066C42.7178 18.1096 42.9698 18.1129 43.0912 18.0625C43.1471 18.0393 43.1887 18.027 43.248 18.0163L43.2575 18.0688C43.1915 18.1171 43.1206 18.1677 43.0468 18.203C42.8892 18.2783 42.6726 18.2775 42.5129 18.2107C42.3129 18.1272 42.1718 17.959 42.0936 17.7604C42.02 17.5736 42.0124 17.3614 42.1023 17.1788C42.2042 16.972 42.4073 16.8893 42.6158 16.8271Z" fill="#2D2D2D"/>
<path d="M42.9036 16.2702C42.99 16.268 43.0752 16.2709 43.1609 16.284C43.4609 16.3301 44.2399 16.6845 44.4103 16.9214C44.3193 17.112 44.0364 17.1902 43.8503 17.2684C43.7767 17.1637 43.7008 17.0608 43.6225 16.9596C43.1483 16.7747 42.8053 16.7603 42.3082 16.8154C41.7312 17.1362 41.3387 17.3809 41.0488 17.9975C41.1196 17.5924 41.1881 17.2124 41.4592 16.8841C41.8218 16.445 42.366 16.3234 42.9036 16.2702Z" fill="#2D2D2D"/>
<path d="M41.7531 21.6406C41.7838 21.6379 41.8481 21.6308 41.8773 21.6352C41.9635 21.6483 41.9925 21.723 42.0363 21.7875C42.0336 21.8719 42.0413 21.9146 41.9667 21.9723C41.6298 22.2329 39.2796 22.3146 38.769 22.2933C38.4589 22.2804 38.1722 22.2289 37.8715 22.1537C37.7951 22.1227 37.7203 22.0883 37.6625 22.027C37.597 21.9573 37.5884 21.8938 37.6037 21.8057C37.6375 21.7814 37.6645 21.7594 37.7039 21.743C37.859 21.678 38.1474 21.8471 38.3042 21.8909C38.5584 21.9619 41.0203 21.8536 41.3425 21.8048C41.4921 21.7822 41.6216 21.7116 41.7531 21.6406Z" fill="#2D2D2D"/>
<path d="M36.6081 16.3428C37.0002 16.3751 37.3956 16.4718 37.7238 16.6982C38.2168 17.0382 38.3365 17.5171 38.4286 18.0706C38.2707 17.7079 37.9649 17.3308 37.6423 17.0988C37.5616 17.0407 37.4775 16.9882 37.3779 17.0082C37.4779 17.0775 37.5766 17.1336 37.6379 17.2422C37.6348 17.4314 37.631 17.6145 37.5695 17.796C37.5013 17.9968 37.3757 18.161 37.1816 18.2522C36.9746 18.3496 36.6767 18.3318 36.4663 18.2603C36.4163 18.2085 36.3824 18.1704 36.3541 18.1039C36.5465 18.1248 36.7279 18.1461 36.9218 18.1232L36.9609 18.0704C36.894 18.0564 36.8064 18.0483 36.7629 17.9915C36.6522 17.847 36.6235 17.4441 36.6499 17.2632C36.6644 17.1637 36.6993 17.1493 36.7723 17.0874C36.8693 17.0743 36.9508 17.0739 37.0231 17.0001L37.0151 16.9211C36.917 16.8389 36.8347 16.8272 36.7073 16.8287C36.2248 16.8343 35.7497 16.9856 35.4082 17.3317C35.282 17.2541 35.1289 17.1807 35.0381 17.0615C35.0518 16.9945 35.0484 16.9725 35.0952 16.9182C35.4031 16.5605 36.1635 16.3789 36.6081 16.3428Z" fill="#2D2D2D"/>
<path d="M33.7783 28.9533C34.9615 28.498 35.9659 27.642 36.4834 26.473C36.8494 25.6462 36.8921 24.8577 36.8989 23.9689C36.9919 24.0555 36.9691 24.1462 37.0887 24.2345C37.0891 24.1727 37.0914 24.2063 37.079 24.1343C37.2669 24.2388 37.4185 24.3844 37.5996 24.4955C38.4465 25.0151 39.307 25.4538 40.325 25.1705C41.3475 24.886 42.2275 24.1366 43 23.4375C43.0238 25.0238 43.099 26.589 44.3104 27.7666C44.8293 28.2713 45.6029 28.7061 46.2807 28.9472C46.0904 30.5937 45.2366 33.2459 44.3509 34.6425C44.0383 35.1353 43.6342 35.6005 43.1786 35.9661C42.1773 36.7695 41.0213 37.0067 39.763 36.8626C38.1051 36.6727 36.6337 35.875 35.5954 34.567C34.9672 33.776 34.5567 32.8292 34.2618 31.8702C34.1773 31.5952 34.1185 31.3126 34.0252 31.0405C34.3745 31.0538 34.7309 30.9963 35.0789 30.9654C35.7639 30.9045 36.5683 30.868 37.2343 31.0748C37.4276 31.1348 37.6086 31.2331 37.7959 31.3093C37.9572 31.3749 38.2107 31.4984 38.3797 31.4277L38.3808 31.358C38.2765 31.2348 38.1595 31.1503 38.0188 31.0716C36.9493 30.473 35.1523 30.5786 34.0003 30.8909C33.9115 30.2466 33.8041 29.6041 33.7783 28.9533Z" fill="white"/>
<path d="M43.5329 30.5248C43.6339 30.5134 43.7329 30.5149 43.8343 30.5173C44.1261 30.5245 45.3472 30.5885 45.5294 30.7792L45.5125 30.8572C45.3536 30.9366 44.3315 30.789 44.0561 30.7835C43.8045 30.7785 43.5568 30.8023 43.3071 30.8305C43.14 30.8573 42.9682 30.8863 42.8082 30.943C42.5217 31.0448 41.9294 31.4429 41.6377 31.3533C41.6476 31.3034 41.661 31.2777 41.6951 31.2395C42.1761 30.702 42.8525 30.583 43.5329 30.5248Z" fill="#2D2D2D"/>
<path d="M36.9937 26.1614C37.0416 26.1597 37.0783 26.1569 37.1271 26.1625C37.4337 26.1978 37.8613 26.8522 38.0226 27.0957C38.3458 27.5841 39.5066 29.6722 39.3951 30.2136C39.3572 30.1991 39.3258 30.1893 39.2921 30.1642C39.0654 29.9955 38.8418 29.2965 38.7031 29.0171C38.3829 28.3718 38.0067 27.7332 37.6025 27.1369C37.4434 26.9022 37.0015 26.4332 36.9937 26.1614Z" fill="#2D2D2D"/>
<path d="M31.3321 29.7295C31.4015 29.7156 31.3615 29.7159 31.4506 29.7474C31.4617 29.771 31.4754 29.7975 31.4837 29.8228C31.6256 30.248 31.6111 30.8558 31.6465 31.3069C31.9069 34.6206 30.9251 35.9463 29.4753 38.6828C29.319 38.4197 29.1545 38.1622 28.9572 37.9277C28.4699 37.3487 27.6084 36.6563 26.8172 36.6124C26.598 36.6002 26.2057 36.6114 26.037 36.7595L26.049 36.8689C26.1729 37.0005 26.6921 36.9608 26.879 36.9875C27.4544 37.0697 28.0326 37.5355 28.3679 37.9842C27.7349 39.6479 25.9393 41.6615 24.6772 42.9206C23.5613 44.0338 22.5072 44.9292 21.7873 46.3638C21.4318 46.0517 21.0729 45.7168 20.6463 45.504C20.375 45.3686 19.7009 45.1724 19.4119 45.2925C19.3631 45.3127 19.378 45.3131 19.359 45.371C19.4766 45.5581 20.1241 45.6792 20.3524 45.8006C21.0063 46.1482 21.5473 46.6602 21.9967 47.2438C22.9595 48.4941 23.5237 50.0148 24.2911 51.387C24.8105 52.316 25.4882 53.3876 26.1757 54.1912C26.5755 54.6585 27.0284 55.0696 27.4315 55.5315C27.3799 55.6247 27.3303 55.719 27.283 55.8144C27.2918 55.9037 27.2741 55.8971 27.3465 55.9613C27.4894 55.9745 27.5651 55.8872 27.6955 55.837C28.1485 55.6627 28.5551 55.4981 28.9785 55.2513C29.5787 54.9015 30.2978 54.2658 30.9551 54.0995C31.2835 54.0163 31.6257 54.044 31.959 54.0762C33.2283 54.1987 34.0655 54.6565 35.1332 55.2934C34.7344 55.294 34.3387 55.2881 33.9419 55.2438C33.5242 55.197 31.2188 54.7641 31.0812 54.8331L31.0636 54.9164C31.2212 55.2309 32.5977 55.6531 32.9614 55.8057C34.1431 56.3017 35.3252 57.1253 35.8233 58.3545L35.8466 58.4129C35.0676 58.1717 34.5037 57.7552 33.8292 57.3096C33.0559 56.7988 32.2541 56.3579 31.3461 56.138C31.0484 56.0659 30.6926 55.9904 30.3856 56.0093C30.3083 56.0141 30.2885 56.0077 30.2382 56.0697C30.4053 56.236 31.1754 56.4095 31.4362 56.4945C32.1226 56.7186 32.7149 56.9994 33.3212 57.3885C33.8552 57.7194 34.9226 58.3604 35.0869 58.9946C35.069 59.0803 35.0869 59.078 35.01 59.132C34.6509 59.0667 34.2289 58.7194 33.894 58.5556C32.8763 58.0581 30.9119 57.1927 29.8334 57.0091C29.6555 56.9788 29.4211 56.9527 29.2684 57.0591C29.3061 57.1389 29.3471 57.1346 29.4305 57.1587C29.7369 57.2472 30.0504 57.2767 30.3607 57.378C31.0232 57.5941 31.6336 57.9107 32.2659 58.1981C32.7919 58.4372 33.3471 58.6499 33.8458 58.9413L33.9056 58.9767C33.0366 58.9981 32.0446 58.8615 31.2622 58.4643C30.8114 58.2354 30.3998 57.9738 29.9285 57.7814C30.2026 58.0988 30.564 58.3208 30.8894 58.5811C31.2115 58.8388 31.5238 59.1142 31.8565 59.3581C32.144 59.569 32.7089 59.7622 32.8908 60.0561C32.8469 60.1298 32.826 60.1389 32.7397 60.1581C32.2687 60.2631 30.5245 58.9911 30.0602 58.7274C29.4596 58.8247 28.8978 59.1219 28.2823 59.1343C27.8507 59.1431 27.4612 58.9953 27.0992 58.7723C26.4778 58.3895 25.9549 57.8187 25.4122 57.3332C24.3189 56.3554 23.2116 55.3821 22.1597 54.3595C20.183 52.4381 16.8735 49.0844 16.8492 46.155C16.8319 44.0765 19.6338 40.1182 20.9377 38.4891C21.6192 37.6455 22.3422 36.8391 23.1068 36.07C23.0891 36.4527 22.9413 36.8238 22.9387 37.2045C22.938 37.3095 22.9469 37.3585 23.0213 37.4312C23.1038 37.4054 23.1164 37.3942 23.1616 37.3152C23.3929 36.9113 23.4678 36.2955 23.5599 35.8359C23.5764 35.7534 23.5944 35.6713 23.6137 35.5895C23.6331 35.5076 23.6539 35.4261 23.6762 35.3449C23.6984 35.2638 23.722 35.1831 23.7471 35.1028C23.7721 35.0225 23.7986 34.9427 23.8265 34.8633C23.8543 34.7839 23.8836 34.7051 23.9142 34.6267C23.9448 34.5484 23.9768 34.4706 24.0102 34.3934C24.0435 34.3161 24.0782 34.2395 24.1143 34.1635C24.1503 34.0875 24.1877 34.0122 24.2263 33.9374C24.265 33.8627 24.305 33.7888 24.3462 33.7155C24.3875 33.6421 24.43 33.5696 24.4738 33.4977C24.5177 33.426 24.5627 33.355 24.609 33.2847C24.6553 33.2145 24.7028 33.1451 24.7515 33.0765C24.8003 33.008 24.8502 32.9403 24.9013 32.8734C24.9524 32.8066 25.0046 32.7407 25.058 32.6757C25.1115 32.6107 25.166 32.5467 25.2216 32.4836C25.2773 32.4205 25.334 32.3584 25.3919 32.2974C26.4641 31.1812 27.91 30.4248 29.4687 30.3394C29.8879 30.3165 30.2979 30.4015 30.7125 30.3843C30.8404 30.379 30.8987 30.3614 30.9833 30.2656L30.9644 30.1817C30.8038 30.081 30.4994 30.1107 30.3058 30.1014C30.6214 29.9202 30.9857 29.8337 31.3321 29.7295Z" fill="white"/>
<path d="M48.5391 29.6387C48.9005 29.7646 49.2705 29.8534 49.6414 29.9457C49.5748 29.9753 49.5081 30.0004 49.4395 30.0251C49.2495 30.0934 48.9416 30.1594 48.8487 30.3569L48.8719 30.4192C49.3195 30.4188 49.872 30.085 50.3027 30.1821C50.3195 30.1859 50.336 30.1908 50.3528 30.1949C50.3723 30.1998 50.392 30.2041 50.4114 30.2091C50.7812 30.3059 51.151 30.4948 51.5013 30.6473C53.5921 31.5579 55.116 33.0897 55.9022 35.2465C56.121 35.8469 56.2902 36.9366 56.5838 37.4205C56.5917 37.4337 56.6002 37.4465 56.6085 37.4595C56.657 36.7352 56.4104 35.9353 56.2356 35.2345C58.0643 37.0791 59.9 39.0522 61.1958 41.3191C62.048 42.8101 63.4597 45.6625 62.9851 47.3482C62.7418 48.212 62.165 48.9736 61.6624 49.7026C60.8083 50.9415 59.9878 52.1718 58.9218 53.2434C58.1859 53.983 57.3625 54.6294 56.6093 55.3512C55.7235 56.2001 54.9186 57.1703 53.8298 57.7708C53.813 57.7682 53.7963 57.7652 53.7795 57.763C53.7365 57.7577 53.6627 57.7503 53.6205 57.7678C53.4055 57.8569 53.0579 58.4904 52.8088 58.6798C52.0885 59.2271 51.0075 59.0004 50.1891 58.8794C50.2365 58.8237 50.2902 58.7645 50.3253 58.7002C50.3744 58.6106 50.4048 58.5243 50.3798 58.4263L50.3475 58.4134C49.8479 58.4702 49.0843 59.2796 48.6688 59.6113C48.4197 59.8099 48.1608 59.9949 47.8922 60.1663C47.7016 60.2887 47.188 60.6426 46.9594 60.5935L46.9325 60.5352C47.0234 59.9191 49.4581 57.8037 49.9973 57.3351C49.273 57.5531 48.7175 58.1962 48.1315 58.6548C47.6717 59.0145 46.4975 59.8752 45.8838 59.8008L45.8455 59.7461C45.8923 59.686 45.8697 59.7052 45.9309 59.6639C46.7708 59.0973 47.5185 58.4162 48.3318 57.8135C48.7702 57.4888 49.314 57.2373 49.7065 56.8641L49.6831 56.823C48.8505 56.8748 47.2937 58.107 46.5595 58.5712C46.2495 58.7672 45.9288 58.9353 45.6002 59.0973C45.5355 59.1218 45.4869 59.1286 45.419 59.1366L45.3801 59.0881C45.4844 58.5948 46.7636 57.4251 47.1823 57.097C47.4378 56.8959 47.7111 56.7227 48.002 56.5773C48.2114 56.4738 48.9299 56.2867 48.9928 56.2313C48.9838 56.1227 48.9735 56.1398 48.8988 56.0703C48.7375 56.027 48.5452 56.0812 48.3838 56.116C47.1172 56.3891 46.6735 57.2598 45.7153 57.944C45.3846 58.1801 45.0259 58.3042 44.6484 58.4409C44.9979 57.4569 46.3198 55.7082 47.2995 55.2966C47.6973 55.1295 48.1951 55.1789 48.5734 54.9898L48.5766 54.9356C48.5674 54.9269 48.5592 54.9168 48.5489 54.9094C48.418 54.8149 48.1974 54.8297 48.0411 54.8234C47.678 54.8088 47.3101 54.7939 46.949 54.8431C46.2072 54.9441 45.5259 55.1783 44.7663 55.2266C45.4608 54.7365 46.1623 54.0505 46.9794 53.7803C47.1669 53.7183 47.3253 53.6945 47.5209 53.7276C47.9327 53.7974 48.3278 54.0173 48.6966 54.2045C49.6338 54.68 51.0077 55.538 52.067 55.5616C52.213 55.5649 52.312 55.5389 52.421 55.4359C52.438 55.3115 52.452 55.1887 52.5307 55.0863C52.7068 54.8573 53.0012 54.6487 53.2184 54.4559C53.801 53.939 54.3763 53.4402 54.8634 52.827C56.0703 51.3077 56.7143 49.2773 57.8141 47.6384C58.2041 47.0575 58.6313 46.3404 59.132 45.8506C59.4106 45.5781 60.0315 45.2595 60.2102 44.9995L60.1471 44.9766C59.3866 45.1254 58.9061 45.6738 58.4492 46.2527C57.5227 45.2825 56.6739 44.2392 55.7412 43.2702C54.1269 41.593 52.3382 40.0566 51.1057 38.054C51.3749 37.5897 51.7999 37.4262 52.2643 37.2215C52.6006 37.0732 53.1052 37.0777 53.3837 36.9133L53.3965 36.8356C53.3102 36.7477 53.1887 36.7395 53.0691 36.7369C52.4053 36.7221 51.5178 37.0846 51.0437 37.5446C50.403 38.1663 50.3538 38.9946 50.3433 39.8316C49.066 37.7362 48.3125 35.2169 48.3456 32.7548C48.3596 31.714 48.5049 30.6784 48.5391 29.6387Z" fill="white"/>
<path d="M59.9513 45.751C60.1945 45.73 60.6909 45.6796 60.8937 45.8184C60.6699 46.0073 60.1148 46.0228 59.8249 46.0603C59.5498 46.1114 59.2795 46.2546 59.002 46.2645L59 46.1885C59.2057 45.9339 59.6407 45.8146 59.9513 45.751Z" fill="#2D2D2D"/>
<path d="M53.3464 23.6689C57.4636 23.8907 61.4332 25.8727 64.1835 28.9282C66.26 31.2353 67.5086 33.9823 68.0305 37.022C68.2148 38.0954 68.3217 39.2118 68.2614 40.3012C68.1358 42.5725 67.3948 44.9753 66.0527 46.8198C65.3418 47.7969 64.4946 48.6747 63.7121 49.5942C63.6512 49.6641 63.604 49.714 63.5671 49.8007C62.7266 50.8552 61.8499 51.8871 61.2966 53.1307C60.9094 54.0008 60.69 54.9041 60.4636 55.8238C60.0365 57.5573 59.5378 59.2022 58.4648 60.6629C56.9357 62.7443 54.0588 64.289 51.5379 64.683C51.3875 63.9525 51.29 63.2174 51.1064 62.4925C50.8261 61.3853 50.3956 60.3272 49.9854 59.2637C50.8162 59.4618 51.6023 59.616 52.4346 59.3384C53.1598 59.0966 53.2078 58.7344 53.732 58.343C54.1287 58.0468 54.5976 57.8618 54.9927 57.5506C55.695 56.9975 56.2846 56.3133 56.9364 55.7042C57.8603 54.8407 58.847 54.0531 59.7154 53.1296C60.5577 52.2338 61.2451 51.2096 61.9345 50.1953C62.3644 49.5627 62.8333 48.9264 63.1725 48.2395C63.8808 46.805 63.5142 45.3347 63.0136 43.8941C61.9393 40.8029 60.032 38.5326 57.7777 36.228C57.2477 35.6862 56.6407 35.1811 56.1356 34.6216C55.8584 34.3145 55.675 33.7018 55.4504 33.3235C54.5815 31.8596 53.2143 30.9868 51.7219 30.265C51.6028 29.6275 51.3819 28.9321 51.1418 28.3304C51.4583 28.0159 51.7354 27.6504 52.0089 27.2982C52.5915 26.5481 53.3846 25.5801 53.4345 24.5907C53.4496 24.2923 53.3838 23.9657 53.3464 23.6689Z" fill="url(#paint0_linear_1113_45603)"/>
<path d="M22.9768 28.0579C23.4264 27.8305 23.7888 27.4289 24.256 27.2023C27.4753 25.6408 29.7202 27.0956 32.8346 27.5656C33.1922 27.6196 33.5606 27.6567 33.922 27.6705C34.2432 27.6827 34.7892 27.5615 35.0749 27.6622C34.2144 28.3959 33.2476 28.677 32.191 29.0002C31.4121 29.2385 30.6546 29.6043 29.8741 29.8155C29.2999 29.9709 28.6982 29.963 28.1189 30.142C25.3653 30.9926 23.9865 32.8888 23.1642 35.5443C22.7714 35.7991 22.4378 36.1597 22.1098 36.4915C20.1847 38.4392 17.0582 42.7349 16.4839 45.3764C16.1314 46.9973 16.9676 48.7238 17.8325 50.047C19.1677 52.0897 21.0293 53.8188 22.842 55.4313C23.6836 56.1799 24.5864 56.9261 25.3503 57.7531C24.7565 57.7859 23.926 57.4758 23.3244 57.3551C22.7659 57.243 22.1968 57.1676 21.6334 57.0831C21.0034 56.9457 19.8585 57.099 19.1891 57.1415C16.4886 57.3132 13.8834 56.9069 11.5939 55.3818C11.5185 55.3321 11.4437 55.2815 11.3696 55.2299C11.2954 55.1784 11.2219 55.126 11.149 55.0726C11.0762 55.0192 11.0039 54.965 10.9324 54.9098C10.8609 54.8547 10.79 54.7987 10.7199 54.7419C10.6497 54.6849 10.5803 54.6272 10.5115 54.5686C10.4428 54.51 10.3748 54.4506 10.3075 54.3903C10.2403 54.3301 10.1738 54.269 10.108 54.207C10.0423 54.1451 9.9773 54.0824 9.91308 54.0189C9.84886 53.9554 9.78545 53.891 9.72284 53.8259C9.66019 53.7609 9.59836 53.6951 9.53738 53.6284C9.47639 53.5618 9.41623 53.4945 9.35691 53.4264C9.29753 53.3583 9.23904 53.2895 9.18144 53.2199C9.12378 53.1504 9.06701 53.0802 9.01113 53.0092C8.95519 52.9383 8.90016 52.8667 8.84605 52.7944C8.79188 52.7221 8.73865 52.6491 8.68636 52.5755C8.63402 52.502 8.58258 52.4277 8.53206 52.3528C8.48154 52.278 8.43196 52.2025 8.38331 52.1264C8.33467 52.0503 8.28696 51.9736 8.24019 51.8963C8.19347 51.819 8.14769 51.7412 8.10284 51.6628C8.058 51.5844 8.01415 51.5055 7.97128 51.4259C7.92836 51.3465 7.88646 51.2665 7.84558 51.1859C7.80466 51.1054 7.76474 51.0244 7.72583 50.9429C7.68692 50.8614 7.64901 50.7794 7.61212 50.697C7.57523 50.6146 7.53936 50.5317 7.50452 50.4484C7.46967 50.365 7.43585 50.2813 7.40307 50.1971C7.37029 50.1129 7.33855 50.0284 7.30786 49.9435C7.27717 49.8586 7.24753 49.7733 7.21894 49.6876C7.19034 49.6019 7.16281 49.5159 7.13634 49.4295C7.10988 49.3432 7.08448 49.2565 7.06015 49.1695C7.03582 49.0826 7.01257 48.9953 6.99039 48.9077C6.96821 48.8202 6.94712 48.7324 6.92711 48.6443C6.9071 48.5562 6.88818 48.4679 6.87034 48.3794C6.72131 47.6248 6.68456 46.8414 6.72115 46.0741C6.92883 41.7196 10.3041 38.9399 13.7884 36.9181C15.5394 35.902 17.4567 35.0715 18.9891 33.7211C19.0929 33.6296 19.1945 33.5357 19.2936 33.4391C19.3928 33.3427 19.4895 33.2438 19.5837 33.1425C19.678 33.0412 19.7697 32.9376 19.8588 32.8317C19.9479 32.7259 20.0343 32.6179 20.1181 32.5077C20.2018 32.3976 20.2828 32.2854 20.3609 32.1713C20.4391 32.0571 20.5144 31.9411 20.5868 31.8232C20.6592 31.7053 20.7286 31.5857 20.7951 31.4643C20.8616 31.3429 20.925 31.22 20.9853 31.0955C21.2563 30.5365 21.4899 29.9505 21.8119 29.4183C22.056 29.0148 22.4333 28.7159 22.6859 28.3277C22.6968 28.3109 22.7073 28.294 22.718 28.2771C22.8012 28.2498 22.91 28.1209 22.9768 28.0579Z" fill="#F2C94C"/>
</g>
<defs>
<linearGradient id="paint0_linear_1113_45603" x1="46.7278" y1="41.9716" x2="65.9766" y2="48.3482" gradientUnits="userSpaceOnUse">
<stop stop-color="#5BD360"/>
<stop offset="1" stop-color="#6FFF7C"/>
</linearGradient>
<clipPath id="clip0_1113_45603">
<rect width="80" height="80" fill="white"/>
</clipPath>
</defs>
</svg>
