<svg width="80" height="80" viewBox="0 0 80 80" fill="none" xmlns="http://www.w3.org/2000/svg">
<g clip-path="url(#clip0_1096_35686)">
<path d="M35.8188 43.1904C36.0303 43.4118 36.0898 43.8368 36.1496 44.1279C36.0665 44.1222 36.0092 44.1232 35.9391 44.075C35.8235 43.7929 35.8338 43.4912 35.8188 43.1904Z" fill="#9EEF5C"/>
<path d="M39.9693 39.8115C39.7047 39.9811 39.4668 40.1597 39.2364 40.3741C39.2026 40.2473 39.1617 40.1499 39.0967 40.0356L39.1325 39.9459C39.4066 39.872 39.6914 39.8664 39.9693 39.8115Z" fill="#9EEF5C"/>
<path d="M57.209 36.5391C57.2554 36.5484 57.2911 36.5619 57.3308 36.5882C57.6795 36.8194 58.0227 37.2557 58.1193 37.6629L57.9666 37.663C57.6895 37.5427 57.3342 36.8158 57.209 36.5391Z" fill="white"/>
<path d="M33.6885 39.7197C34.0404 39.8111 34.3873 39.8972 34.747 39.9544C34.7602 40.0207 34.7693 40.0908 34.7919 40.1544C34.7466 40.2637 34.6999 40.3724 34.6607 40.484C34.326 40.2471 33.9859 40.0024 33.6885 39.7197Z" fill="#DDF6A3"/>
<path d="M45.2077 48.3867C45.279 48.7909 45.2145 49.2793 45.2019 49.6944C45.0583 49.7302 44.9171 49.7777 44.7758 49.8211C44.7156 49.4851 45.0757 48.7148 45.2077 48.3867Z" fill="#F2C94C"/>
<path d="M51.0547 50.3353C51.2052 50.3217 51.3996 50.2842 51.5455 50.3289C51.637 50.3569 51.6843 50.3957 51.7295 50.4767C51.722 50.488 51.7155 50.5002 51.7069 50.5108C51.5896 50.6546 51.3891 50.6438 51.2198 50.6556C51.0468 50.6662 50.8311 50.7021 50.6668 50.6381C50.5837 50.6058 50.5338 50.5752 50.5049 50.4895C50.5147 50.4788 50.5238 50.4673 50.5343 50.4572C50.6764 50.3224 50.872 50.3422 51.0547 50.3353Z" fill="white"/>
<path d="M34.6768 45.2607L35.3414 45.2743L35.0031 45.9753L34.7785 46.438C34.7504 46.0451 34.7164 45.6527 34.6768 45.2607Z" fill="#F2C94C"/>
<path d="M36.1567 50.0377L37.2396 50.0352L37.3155 50.8159C36.8612 50.6473 36.5113 50.3587 36.1567 50.0377Z" fill="#DDF6A3"/>
<path d="M37.2633 51.3857C37.3215 51.3995 37.3304 51.4315 37.3672 51.4768C37.3748 51.5768 37.3726 51.5831 37.3215 51.6696C37.0837 51.8007 35.8749 51.7863 35.5374 51.8036L35.4419 51.7729C35.424 51.6644 35.4146 51.6177 35.4616 51.5133C36.0252 51.3967 36.6852 51.4235 37.2633 51.3857Z" fill="white"/>
<path d="M39.7202 45.4346L40.8397 45.4657C40.859 45.8463 40.8742 46.227 40.8854 46.6079C40.5917 46.3971 40.0825 45.7482 39.7202 45.4346Z" fill="white"/>
<path d="M31.2573 64.6152C31.4587 64.6552 31.6078 64.7143 31.7348 64.8831C31.829 65.0083 31.8733 65.1614 31.8463 65.3168C31.8115 65.5173 31.7034 65.6253 31.5402 65.7343C31.4589 65.7445 31.3906 65.745 31.3091 65.7366C31.1922 65.5561 31.0716 64.9969 30.9941 64.7531C31.0737 64.6558 31.1393 64.6528 31.2573 64.6152Z" fill="white"/>
<path d="M38.3584 40.0159L38.5021 39.9935C38.711 39.9619 38.9137 39.9011 39.0968 40.0361C39.1618 40.1504 39.2027 40.2478 39.2364 40.3746C38.9609 40.6633 38.7508 40.9948 38.5424 41.3331C38.491 40.8926 38.4297 40.4536 38.3584 40.0159Z" fill="#4FDB40"/>
<path d="M50.4536 64.5166C50.5957 64.6221 50.7119 64.7764 50.7515 64.9507C50.7856 65.1007 50.7572 65.2491 50.6737 65.3779C50.5348 65.5925 50.341 65.6525 50.1013 65.695C50.0503 65.6768 50.0324 65.6731 49.9825 65.6424C49.894 65.5881 49.8437 65.4924 49.8159 65.3968C49.8318 65.0944 50.2573 64.7395 50.4536 64.5166Z" fill="white"/>
<path d="M50.8586 48.4961C50.9303 48.5407 50.9953 48.5935 51.0536 48.6545C51.2613 48.868 51.5648 49.3086 51.5171 49.6173C51.4998 49.7288 51.4847 49.7382 51.3974 49.7962L50.647 49.8153C50.6826 49.3778 50.7688 48.9255 50.8586 48.4961Z" fill="#4FDB40"/>
<path d="M40.7 51.117C40.8277 51.1015 41.0255 51.0497 41.1426 51.1083C41.2024 51.201 41.2025 51.2129 41.2015 51.3239C41.0247 51.5089 39.5049 51.5455 39.1722 51.5689C39.0365 51.5847 38.9156 51.5995 38.7798 51.5794C38.7603 51.551 38.7515 51.542 38.7407 51.505C38.7165 51.4214 38.7297 51.3512 38.7693 51.278C39.308 51.1712 40.1243 51.166 40.7 51.117Z" fill="white"/>
<path d="M48.7768 50.4924C48.9221 50.4751 49.1017 50.4326 49.23 50.5085C49.226 50.6091 49.2307 50.6591 49.1645 50.7408C48.6567 50.9024 47.56 50.9053 46.9828 50.9478C46.8469 50.9633 46.7231 50.9716 46.5864 50.9626C46.54 50.8708 46.5485 50.8388 46.5547 50.7344C46.7289 50.5688 48.4132 50.5245 48.7768 50.4924Z" fill="white"/>
<path d="M33.4805 51.7425C33.6332 51.7226 33.8515 51.6679 33.9913 51.7495C34.0798 51.8013 34.0901 51.8251 34.1077 51.9173C33.9009 52.0956 31.8132 52.1297 31.4092 52.1561C31.2585 52.1745 31.1159 52.1991 30.9652 52.1676C30.9213 52.087 30.9263 52.0586 30.9276 51.9653C31.1159 51.817 33.0831 51.7662 33.4805 51.7425Z" fill="white"/>
<path d="M35.1689 49.9102L35.2182 49.9213C35.243 49.9272 35.2678 49.9336 35.2926 49.9394C35.6164 50.0146 35.7482 50.1801 35.9607 50.4203C36.1932 50.6099 36.4402 50.7938 36.6561 51.0017C36.3317 51.0367 35.6478 51.1945 35.3792 51.0413C35.3501 50.9658 35.3343 50.898 35.3217 50.818L35.1689 49.9102Z" fill="#21992E"/>
<path d="M44.7028 50.8043C44.8603 50.7906 45.0185 50.7619 45.1718 50.8098C45.2132 50.8923 45.2047 50.9439 45.1952 51.034C45.0049 51.2033 43.2736 51.2383 42.9224 51.257C42.8615 51.2649 42.8005 51.2722 42.7394 51.2787C42.6015 51.2923 42.5775 51.2794 42.4753 51.1941C42.4511 51.1012 42.4334 51.1086 42.4819 51.0187C42.9111 50.8321 44.1928 50.836 44.7028 50.8043Z" fill="white"/>
<path d="M57.4842 39.8418C57.4881 39.8467 57.4932 39.8509 57.4957 39.8566C57.5787 40.0505 57.2958 40.8395 57.2361 41.0708C57.0917 41.6448 56.9582 42.2213 56.8354 42.8003C56.7791 43.0625 56.746 43.3765 56.6571 43.6242C56.6124 43.7486 56.5411 43.7652 56.4334 43.8281L56.3971 43.7766C56.3881 43.5298 57.1123 40.2377 57.2337 39.9803C57.2859 39.8696 57.3764 39.873 57.4842 39.8418Z" fill="white"/>
<path d="M44.8647 39.2158C45.241 39.2614 45.6187 39.2888 45.995 39.3383C45.9709 39.5634 45.9366 39.7882 45.9063 40.0125L45.428 40.2368C45.1834 40.3515 44.9518 40.4958 44.7188 40.632C44.7645 40.1596 44.8132 39.6876 44.8647 39.2158Z" fill="white"/>
<path d="M56.1699 44.8906C56.2369 44.8997 56.286 44.9162 56.3478 44.9438C56.3269 45.509 55.5039 49.2491 55.2977 49.6212C55.2135 49.6143 55.2024 49.6138 55.1294 49.563C55.1292 49.2755 56.0348 45.2359 56.1699 44.8906Z" fill="white"/>
<path d="M38.1122 49.9791C38.1836 49.9633 38.2228 49.9639 38.2936 49.9815C38.3013 50.0058 38.3122 50.0294 38.3165 50.0544C38.3375 50.1752 38.3143 50.3276 38.3213 50.4531C38.3452 50.8812 38.4318 51.344 38.4015 51.7703C38.3971 51.832 38.3792 51.8714 38.3443 51.9215C38.2349 52.0069 38.1064 52.0079 37.9733 52.0245L37.8361 51.9308C37.6182 51.5805 37.6374 50.4603 37.606 50.0248L38.1122 49.9791Z" fill="white"/>
<path d="M48.7912 45.7793C49.1761 45.802 49.5607 45.8274 49.9451 45.8555C49.8103 46.4263 49.6833 46.8875 49.2623 47.3218C49.0464 47.5011 48.8109 47.6451 48.5732 47.7934C48.685 47.1243 48.7154 46.452 48.7912 45.7793Z" fill="#F2C94C"/>
<path d="M52.0053 41.3301C52.4379 41.4614 52.8547 41.6488 53.2612 41.8448C52.9327 42.2646 52.5971 42.6785 52.2543 43.0867C52.07 43.3215 51.8814 43.5527 51.6885 43.7805L52.0053 41.3301Z" fill="#F2C94C"/>
<path d="M56.3056 40.0428C56.3483 40.0379 56.3909 40.0323 56.4338 40.0288C56.5291 40.021 56.6184 40.0124 56.6934 40.0758C56.619 40.4937 55.8539 44.0078 55.7351 44.1479C55.6068 44.1749 55.5363 44.208 55.4111 44.1637C55.348 43.8512 56.187 40.5568 56.3056 40.0428Z" fill="white"/>
<path d="M49.048 48.3721C49.1 48.3669 49.1686 48.3549 49.2218 48.3594C49.3376 48.369 49.3549 48.385 49.4323 48.4633C49.5369 48.8891 49.3567 49.4166 49.2833 49.8441C48.963 49.9052 48.6288 49.9242 48.3044 49.9577L47.7104 49.9637C48.0643 49.4778 48.2951 49.0719 48.4624 48.4935C48.6562 48.4399 48.8503 48.4058 49.048 48.3721Z" fill="#9EEF5C"/>
<path d="M54.2991 40.1816C54.4159 40.1849 54.5539 40.168 54.6522 40.239C54.6699 40.7583 54.4337 41.5012 54.3236 42.0277L53.7513 44.8432C53.6309 44.84 53.5367 44.8438 53.4293 44.7804C53.3315 44.5395 54.1716 40.7474 54.2991 40.1816Z" fill="white"/>
<path d="M38.793 50.8328C39.1666 50.4986 39.502 50.0446 39.9188 49.7689C40.3237 49.5013 40.6225 49.5011 41.0441 49.1299C41.0557 49.5922 41.0638 50.0521 41.116 50.5121C40.9783 50.6825 40.4947 50.6753 40.2708 50.6989C40.0871 50.718 39.9033 50.7361 39.7194 50.7532C39.4136 50.7954 39.1009 50.8089 38.793 50.8328Z" fill="#4FDB40"/>
<path d="M42.0248 39.2966C41.8487 39.2976 41.6002 39.3309 41.4378 39.2642C41.4494 39.1931 41.4655 39.1363 41.4883 39.0684C41.4582 39.0099 41.4276 38.9579 41.3887 38.9049C41.6374 38.8784 41.9371 38.9556 42.19 38.9794L44.4905 39.191L44.4232 39.7333C44.3682 40.0638 44.3209 40.3953 44.2814 40.728C44.1552 40.5734 44.0264 40.4207 43.9093 40.2592C43.7196 40.0686 43.5236 39.8846 43.3213 39.7074C43.1324 39.6125 42.971 39.5317 42.7655 39.4725C42.5182 39.4158 42.2712 39.3572 42.0248 39.2966Z" fill="#4FDB40"/>
<path d="M32.3843 45.1982L33.2744 45.2337C33.282 45.8947 33.3794 46.5568 33.4606 47.2118C33.502 47.5452 33.5648 47.8893 33.5564 48.2257C32.8356 47.4055 32.3169 46.3017 32.3843 45.1982Z" fill="#DDF6A3"/>
<path d="M14.9926 29.71C15.1443 29.7508 15.2536 29.8679 15.3382 29.9956C15.5322 30.2878 15.571 30.6874 15.5031 31.0257C15.4314 31.3836 15.2539 31.7078 14.9431 31.9071C14.7337 31.8136 14.5975 31.7021 14.4705 31.5092C14.2864 31.2295 14.2452 30.8711 14.3261 30.5493C14.4239 30.1599 14.6619 29.9155 14.9926 29.71Z" fill="white"/>
<path d="M55.4468 45.2725L55.5407 45.2876C55.606 45.4415 55.3998 46.0321 55.3554 46.2176C55.1736 47.0129 54.9968 47.8093 54.825 48.6068C54.7384 49.0229 54.7001 49.4752 54.5532 49.8742C54.49 50.0457 54.392 50.0793 54.2354 50.1472L54.146 50.1189C54.1427 50.1065 54.1381 50.0944 54.1361 50.0818C54.1147 49.9478 55.0334 45.5561 55.126 45.4221C55.1974 45.3189 55.3328 45.3007 55.4468 45.2725Z" fill="white"/>
<path d="M53.2486 45.8641C53.3559 45.8611 53.4822 45.8379 53.5747 45.9006C53.5311 46.4165 52.739 50.5889 52.5782 50.9138C52.4769 50.9293 52.3893 50.9548 52.2941 50.9041C52.1826 50.6612 53.0936 46.3988 53.2486 45.8641Z" fill="white"/>
<path d="M52.5261 60.2559C52.6361 60.2656 52.7393 60.2848 52.8301 60.3534C52.9525 60.4459 53.0221 60.5969 53.0465 60.7463C53.0862 60.989 52.9951 61.2249 52.8568 61.4208C52.3772 62.1 51.1612 62.8615 50.503 63.4628C50.1028 63.8285 49.7776 64.257 49.4539 64.6891C49.4062 64.6711 49.3525 64.6233 49.3105 64.5934C49.2137 64.35 49.4394 64.1065 49.5878 63.9214C49.8664 63.5709 50.1741 63.248 50.5108 62.9529C51 62.5241 52.577 61.4753 52.7666 60.923C52.7608 60.7902 52.692 60.6945 52.6263 60.5831C52.5748 60.4959 52.5238 60.427 52.5239 60.3216C52.5239 60.2997 52.5253 60.2777 52.5261 60.2559Z" fill="white"/>
<path d="M38.1431 38.5898C39.1142 38.5951 40.0988 38.7205 41.0649 38.8197C41.0567 38.9407 41.0467 39.0597 41.0302 39.1798C40.9408 39.2828 40.8774 39.2827 40.7482 39.3189C39.9991 39.5506 39.0917 39.6077 38.3086 39.6559C38.2619 39.2993 38.2068 38.9439 38.1431 38.5898Z" fill="#F2C94C"/>
<path d="M18.9281 62.5371L19.0377 62.6063C19.1323 62.7095 19.2062 62.8013 19.2794 62.9204L19.3327 62.9339C19.3585 62.8384 19.3788 62.7323 19.4139 62.6401L19.4789 62.973C19.4775 62.9974 19.4754 63.0218 19.4748 63.0462C19.461 63.5768 20.6584 66.8625 20.9407 67.5627C21.1177 68.0016 21.4659 68.5266 21.5039 68.9947C21.4246 69.047 21.363 69.0407 21.2709 69.0467C20.9203 68.8773 20.3209 67.1152 20.1687 66.678C19.787 65.5806 19.498 64.4552 19.1277 63.3545C19.035 63.1322 18.8454 62.967 18.7891 62.7327C18.8183 62.616 18.833 62.6141 18.9281 62.5371Z" fill="#21992E"/>
<path d="M33.978 40.8145L34.0126 40.8455C35.1174 41.8504 35.4913 42.6247 35.563 44.1077C35.211 44.1064 34.8592 44.0968 34.5077 44.0788C34.3475 42.991 34.1112 41.9032 33.978 40.8145Z" fill="#F2C94C"/>
<path d="M23.0063 34.4124C23.617 34.3476 24.3152 34.4429 24.9268 34.4962C26.1235 34.6005 27.3121 34.7686 28.5062 34.8947C29.3486 34.9836 30.3873 35.0254 31.196 35.2194C31.3286 35.2513 31.437 35.2768 31.5285 35.3858C31.5573 35.4961 31.5645 35.4993 31.5181 35.6018C30.8232 35.5582 30.1162 35.4447 29.4254 35.3568C28.0439 35.181 26.6598 34.9933 25.2738 34.856C24.9447 34.8233 23.1397 34.7903 23.0397 34.7324C23.0063 34.7129 22.9805 34.6825 22.9508 34.6576C22.9363 34.5395 22.953 34.521 23.0063 34.4124Z" fill="white"/>
<path d="M45.7436 40.5029L45.7863 40.5272C45.8669 40.7879 45.4404 43.9229 45.3792 44.4804C45.1925 44.4661 44.808 44.4986 44.658 44.3993C44.9298 43.3273 44.9445 42.4257 44.583 41.3749C44.909 40.9755 45.2676 40.6995 45.7436 40.5029Z" fill="#F2C94C"/>
<path d="M34.747 39.9551L35.843 40.1251C36.2178 40.1307 36.5917 40.1377 36.9664 40.1234C37.0718 40.9563 37.1571 41.8002 37.346 42.619C36.8375 42.0457 36.2953 41.5827 35.6575 41.1585C35.3268 40.9385 34.9686 40.7349 34.6606 40.4847C34.6999 40.373 34.7466 40.2644 34.7919 40.1551C34.7692 40.0915 34.7602 40.0213 34.747 39.9551Z" fill="#4FDB40"/>
<path d="M34.7471 39.9551L35.8431 40.1251L35.7912 40.2487C35.5166 40.3575 35.1387 40.2416 34.8778 40.1307C34.8487 40.1368 34.814 40.1352 34.792 40.1551C34.7693 40.0915 34.7603 40.0213 34.7471 39.9551Z" fill="#9EEF5C"/>
<path d="M37.0454 38.5361L37.8145 38.5628C37.9945 39.6956 38.0142 40.8679 38.2902 41.9832C38.1111 42.5894 38.0031 43.1462 37.9739 43.7792C37.9756 43.8946 37.9959 44.0257 37.9364 44.1287C37.8666 44.0514 37.86 43.9245 37.8431 43.8218C37.7753 43.4087 37.7425 42.9866 37.6823 42.5714C37.4941 41.2225 37.2818 39.8774 37.0454 38.5361Z" fill="white"/>
<path d="M51.3382 39.8834C51.4685 39.8808 51.583 39.8865 51.7114 39.9098C51.7812 39.9639 51.8075 39.9749 51.8273 40.0653C51.8825 40.3168 51.2207 44.4916 51.1321 44.6143C51.1006 44.6579 51.0356 44.6443 50.9862 44.6481L50.4131 44.6389C50.6526 43.5858 50.7918 42.4887 50.9661 41.4222C51.0373 40.9862 51.0736 40.4661 51.2197 40.0527C51.2449 39.9816 51.2868 39.9365 51.3382 39.8834Z" fill="white"/>
<path d="M50.2865 45.8633L50.9051 45.8989L50.4251 48.9655C50.3406 49.5189 50.283 50.5447 50.0608 51.008C49.9723 51.0398 49.8421 51.0729 49.747 51.0636C49.6323 51.0523 49.6082 51.0229 49.5311 50.9466C49.4207 50.6061 50.1334 46.54 50.2865 45.8633Z" fill="white"/>
<path d="M47.4672 41.0078C47.4759 41.0158 47.4853 41.0231 47.4934 41.0318C48.292 41.882 48.5072 43.464 48.5323 44.5784L48.1666 44.5717C47.7826 44.5695 47.3973 44.5439 47.0137 44.5266C47.0738 43.811 47.1736 43.0979 47.265 42.3857C47.3236 41.9289 47.3574 41.4555 47.4672 41.0078Z" fill="#F2C94C"/>
<path d="M17.8525 47.7096L18.119 47.5479C18.5425 47.9929 18.924 48.4758 19.3317 48.9351C20.798 50.5873 22.0639 52.068 22.8101 54.1982C22.9011 54.458 23.0825 54.8443 23.08 55.1193C23.0793 55.1879 23.0698 55.2232 23.0148 55.2701C22.9732 55.3057 22.9345 55.2831 22.8879 55.2741C22.5463 54.9919 22.2769 53.8748 22.0697 53.4192C21.884 53.019 21.6769 52.6302 21.4484 52.2529C20.894 51.3364 20.2054 50.5186 19.4941 49.7218C18.9191 49.0776 18.3112 48.4449 17.8525 47.7096Z" fill="#21992E"/>
<path d="M32.9366 33.4023C33.0917 33.5881 33.704 35.5663 33.8196 35.9148C33.391 35.8357 32.9616 35.7794 32.5294 35.7249C32.3376 35.7089 32.1488 35.6769 31.9589 35.6459C31.7854 35.0938 31.5675 34.5516 31.3701 34.0071C31.8964 33.8162 32.4186 33.6146 32.9366 33.4023Z" fill="#F2C94C"/>
<path d="M32.46 36.8955C32.6767 36.9482 32.8969 36.9889 33.1154 37.0336C33.1968 37.9515 33.2854 38.8879 33.4271 39.7982C33.649 41.2246 33.959 42.6355 34.1553 44.0664C33.9314 44.0628 33.7182 44.0946 33.4971 44.0429C33.403 43.9659 33.4191 43.952 33.4052 43.829C33.23 42.4071 33.0682 40.9837 32.9199 39.5587C33.0984 39.811 33.2602 40.0774 33.4277 40.3372C33.2792 39.7157 33.0354 39.1467 32.8498 38.539C32.6867 38.0049 32.5821 37.4409 32.46 36.8955Z" fill="white"/>
<path d="M41.1729 45.4668L41.7985 45.4781C41.8575 46.2037 41.8618 46.9356 41.9174 47.6626C42.0094 48.8655 42.1538 50.087 42.1539 51.2931C42.1539 51.422 42.1459 51.5289 42.1006 51.6512C41.9573 51.6887 41.8123 51.7059 41.6732 51.6479C41.5902 51.567 41.5797 51.4915 41.5614 51.3817C41.434 50.615 41.4347 49.7812 41.3929 49.0027C41.3275 47.8235 41.2542 46.6449 41.1729 45.4668Z" fill="white"/>
<path d="M42.1802 45.5049C42.888 45.5405 43.5967 45.5421 44.3045 45.5779C44.2038 45.7363 44.0779 46.0548 43.9421 46.1732C43.8952 46.2139 43.7881 46.2303 43.7485 46.2767C43.5668 46.4893 42.8879 48.1357 42.7712 48.4608C42.6014 48.9796 42.5753 49.4754 42.4747 50.0046L42.432 49.975C42.2842 48.4956 42.2383 46.9908 42.1802 45.5049Z" fill="#4FDB40"/>
<path d="M33.6289 38.2832C34.6311 38.4172 35.6545 38.4609 36.6638 38.5178C36.7742 38.9253 36.8249 39.3752 36.8843 39.7932C35.8286 39.8309 34.6705 39.7381 33.7007 39.2912C33.6572 38.9566 33.6332 38.6206 33.6289 38.2832Z" fill="#F2C94C"/>
<path d="M29.0913 45.0576L29.5508 45.0738L30.2512 49.5971C30.3851 50.4573 30.5883 51.3699 30.6185 52.2375C30.6219 52.3364 30.6069 52.3947 30.5611 52.4812C30.4191 52.5147 30.2931 52.546 30.1519 52.494C30.0469 52.3735 30.0429 52.2191 30.0161 52.0633C29.7764 50.6681 29.663 49.2514 29.4705 47.8495C29.3667 47.0935 29.0895 45.7467 29.0913 45.0576Z" fill="white"/>
<path d="M45.6665 45.6279C45.9683 45.6293 46.2676 45.6437 46.5688 45.6619C46.5384 46.4671 46.4186 47.2838 46.3458 48.0879C46.2573 49.0659 46.215 50.0396 46.1793 51.0204C46.1713 51.0346 46.1643 51.0495 46.1554 51.0632C46.0881 51.1654 45.9346 51.2509 45.8091 51.2565C45.7041 51.2613 45.6871 51.2396 45.6157 51.1733C45.4 50.5375 45.6014 46.5667 45.6665 45.6279Z" fill="white"/>
<path d="M27.6421 36.2915C27.788 36.2845 27.9121 36.2735 28.0519 36.3209C28.1821 36.4657 28.2781 37.4305 28.3147 37.6722C28.5082 38.9966 28.7265 40.3169 28.9697 41.6331C29.0972 42.3408 29.3394 43.3384 29.3665 44.0323L28.8207 44.0432C28.6628 43.1766 27.4984 36.7941 27.6421 36.2915Z" fill="white"/>
<path d="M33.6035 45.2422L34.2845 45.2518L34.8137 49.5641C34.9151 50.371 35.0873 51.2348 35.1005 52.0453C35.1018 52.1288 35.0902 52.1727 35.0552 52.2468C34.9905 52.2639 34.9273 52.2805 34.8604 52.287C34.7479 52.2977 34.6381 52.2909 34.5534 52.2044C34.4679 52.117 34.4427 51.9817 34.419 51.8664C34.2662 51.1218 34.2153 50.3271 34.1156 49.5705C33.9259 48.1305 33.7115 46.6913 33.6035 45.2422Z" fill="white"/>
<path d="M33.5815 48.5176C33.7708 48.7548 33.9381 50.858 33.9895 51.3232C33.297 51.3729 32.6036 51.4319 31.9094 51.4519L31.5029 51.4809C31.5236 51.0114 31.6185 50.5759 31.8318 50.1549C32.1902 49.4479 32.8135 48.767 33.5815 48.5176Z" fill="#DDF6A3"/>
<path d="M30.0298 53.3984C30.1108 53.4008 30.1754 53.4207 30.2522 53.4451C30.273 53.5305 30.1966 53.5665 30.1363 53.6255C29.8134 53.9413 29.4326 54.2217 29.0867 54.5148C28.3243 55.1545 27.5729 55.8068 26.8324 56.4717C26.5542 56.7244 26.2337 56.9668 25.9944 57.2557C25.8118 57.4763 25.6728 57.7345 25.5617 57.9977C24.9488 59.4511 25.2869 61.0443 26.5786 61.9909C26.8268 62.1722 27.0902 62.3277 27.369 62.4572C27.5617 62.5445 27.8076 62.6143 27.9792 62.7341C28.059 62.7898 28.0738 62.8205 28.1094 62.9068L28.0605 63.0216C27.6625 63.0154 27.2439 62.8549 26.8931 62.6734C26.0278 62.2256 25.3408 61.4504 25.0449 60.5187C24.7322 59.5341 24.8811 58.3706 25.3682 57.4652C25.4828 57.2521 25.6312 57.058 25.7958 56.8811C26.4233 56.207 27.1824 55.5981 27.8787 54.9955C28.3705 54.57 28.8617 54.0907 29.3962 53.7209C29.6001 53.5798 29.7925 53.4737 30.0298 53.3984Z" fill="white"/>
<path d="M46.9141 45.6904L48.4112 45.7554C48.3791 46.9218 48.2809 48.5521 47.5694 49.5071C47.2939 49.8238 46.9475 49.8975 46.5576 49.9919C46.5679 49.1593 46.6736 48.3228 46.7504 47.4939C46.8059 46.8944 46.8297 46.2862 46.9141 45.6904Z" fill="#F2C94C"/>
<path d="M60.7659 55.4884L60.869 55.3418C60.9483 55.453 61.0182 55.5369 61.0276 55.6789C60.7165 56.179 60.5384 56.8442 60.3392 57.4005C59.3111 60.2713 58.5981 63.2328 58.5442 66.2931C58.5361 66.9174 58.5718 67.5393 58.6512 68.1586C58.6811 68.3989 58.8496 69.0861 58.7619 69.2899C58.7374 69.3469 58.6258 69.4034 58.5662 69.4197C58.4653 69.4474 58.4551 69.4381 58.367 69.3924C58.3127 69.3173 58.2794 69.2527 58.2544 69.1627C58.0922 68.5772 58.0927 67.847 58.0858 67.2397C58.0544 64.4279 58.5701 61.7553 59.3662 59.0666C59.7229 57.8616 60.1453 56.586 60.7659 55.4884Z" fill="#21992E"/>
<path d="M44.7816 45.6006L45.3139 45.627C45.3016 46.1394 45.2865 46.6732 45.1857 47.1761C45.0843 47.6811 44.8819 48.1632 44.7135 48.6486C44.5002 49.2629 44.299 49.881 44.1098 50.503C43.8895 50.5073 43.6673 50.5284 43.4473 50.5429L42.8799 50.5628C42.6907 48.5803 43.7859 47.1893 44.7816 45.6006Z" fill="#F2C94C"/>
<path d="M49.8302 40.5948C49.9581 40.585 50.0905 40.5709 50.2187 40.5782C50.3992 40.5885 50.5182 40.6433 50.6373 40.7772C50.7204 41.134 50.1752 44.0173 50.0934 44.6425C49.7863 44.6208 49.4774 44.6163 49.1697 44.6068C49.0784 44.6086 49.012 44.6085 48.9257 44.5768C48.7976 44.2497 48.8788 43.7983 48.8302 43.4476C48.7388 42.7866 48.5164 42.1597 48.2676 41.5446C48.2924 41.5058 48.3177 41.4673 48.3435 41.4292C48.6944 40.9072 49.2411 40.7072 49.8302 40.5948Z" fill="#F2C94C"/>
<path d="M51.833 63.0762C51.8923 63.0905 51.9438 63.1232 51.9913 63.1609C52.4852 63.5537 52.7395 64.2162 52.8205 64.8267C52.8963 65.3972 52.7935 65.9475 52.4305 66.4084C52.0266 66.9209 51.3997 67.2468 50.7544 67.315C50.513 67.3234 50.2706 67.3112 50.0293 67.3047C50.0613 66.9027 50.0796 66.5115 50.0775 66.1075C50.3435 66.0846 50.5827 66.0683 50.8109 65.914C51.0325 65.7641 51.1703 65.5403 51.2104 65.2761C51.2823 64.8008 51.0885 64.3845 50.8173 64.0101C51.1333 63.6721 51.4723 63.3656 51.833 63.0762Z" fill="white"/>
<path d="M38.7778 52.8506C38.8441 52.8599 38.881 52.874 38.9412 52.9007C38.9676 52.9979 38.9344 53.0396 38.8707 53.1171C38.6767 53.3532 38.4213 53.5475 38.1969 53.7543C37.1385 54.7295 35.8136 55.76 35.6214 57.2833C35.5183 58.1011 35.7225 58.948 36.2398 59.5961C36.6757 60.1424 37.2984 60.5393 37.9575 60.7596C39.4465 61.2574 42.8393 61.2061 44.5103 61.2421C44.9584 61.2518 45.4461 61.2275 45.8894 61.2898C45.9927 61.3043 45.9985 61.3074 46.0583 61.3867C46.0558 61.5046 46.0136 61.5612 45.9496 61.6542C45.0947 61.7336 44.0671 61.6304 43.2012 61.6033C41.7443 61.5576 40.1939 61.5994 38.7546 61.3444C38.1758 61.2418 37.608 61.0689 37.0883 60.7908C36.2724 60.3542 35.6397 59.6583 35.3741 58.7628C35.1032 57.8496 35.1743 56.8174 35.6318 55.9766C35.7968 55.6734 36.0024 55.3907 36.2275 55.1295C36.6263 54.667 38.2762 53.0018 38.7778 52.8506Z" fill="white"/>
<path d="M31.1889 63.171C31.247 63.1629 31.3053 63.1572 31.3639 63.1539C31.4224 63.1505 31.481 63.1496 31.5396 63.1511C31.5982 63.1525 31.6566 63.1563 31.715 63.1625C31.7732 63.1687 31.8312 63.1772 31.8888 63.1881C31.9464 63.199 32.0035 63.2123 32.06 63.2279C32.1165 63.2434 32.1723 63.2612 32.2274 63.2813C32.2825 63.3013 32.3367 63.3236 32.3899 63.3482C32.4432 63.3726 32.4954 63.3993 32.5464 63.428C33.0789 63.7287 33.4971 64.258 33.6594 64.8481C33.7963 65.3458 33.7543 65.8845 33.485 66.3314C33.0742 67.0126 32.2746 67.3861 31.5364 67.5857C31.4041 67.6064 31.2868 67.6212 31.1529 67.6118C31.1329 67.5661 31.2756 66.5134 31.2829 66.2871L31.3203 66.2718L31.3822 66.2456L31.439 66.2225C31.7855 66.0788 32.0886 65.857 32.2257 65.4937C32.2368 65.4647 32.2464 65.4352 32.2546 65.4052C32.2627 65.3753 32.2694 65.345 32.2746 65.3143C32.2797 65.2837 32.2834 65.2529 32.2855 65.222C32.2876 65.191 32.2883 65.16 32.2874 65.1289C32.2864 65.0979 32.284 65.067 32.28 65.0362C32.2761 65.0054 32.2706 64.9748 32.2637 64.9446C32.2567 64.9143 32.2483 64.8845 32.2384 64.855C32.2285 64.8256 32.2172 64.7967 32.2045 64.7684C32.1924 64.7415 32.179 64.7153 32.1644 64.6897C32.1498 64.6641 32.1339 64.6393 32.1168 64.6154C32.0997 64.5913 32.0814 64.5682 32.062 64.5461C32.0426 64.5239 32.0222 64.5027 32.0007 64.4825C31.9792 64.4623 31.9567 64.4433 31.9333 64.4254C31.91 64.4074 31.8858 64.3906 31.8607 64.3751C31.8357 64.3595 31.8099 64.3453 31.7835 64.3323C31.757 64.3193 31.73 64.3076 31.7024 64.2973C31.3518 64.167 31.0411 64.2622 30.7146 64.3999C30.5725 64.1983 30.425 64.0166 30.2568 63.8362C30.5384 63.5388 30.8166 63.3387 31.1889 63.171Z" fill="white"/>
<path d="M41.5447 27.3898L41.5937 27.3848C41.7234 27.468 41.723 27.7558 41.7474 27.9075C41.9489 29.1599 42.3505 30.3605 42.6491 31.5892C42.3995 31.9623 42.1352 32.3205 41.9848 32.7467C41.803 32.639 41.6115 32.5552 41.4192 32.4682L41.0691 32.3104C40.8622 31.7182 40.7359 31.0837 40.5925 30.473C40.3851 29.5891 40.1514 28.6842 40.0625 27.7793C40.538 27.6004 41.0499 27.5016 41.5447 27.3898Z" fill="white"/>
<path d="M48.5538 31.8662C49.0379 32.0477 49.5325 32.2054 50.0011 32.4251C49.7737 33.0863 48.5482 37.3589 48.3679 37.518C48.3284 37.5529 48.2436 37.5262 48.194 37.5215C47.6741 37.4637 47.151 37.4142 46.6338 37.3352C46.8694 36.8272 47.1362 36.3363 47.3565 35.8205C47.9017 34.5443 48.2565 33.2186 48.5538 31.8662Z" fill="white"/>
<path d="M40.9537 39.7227L40.9827 39.7323C41.1189 39.9254 41.1891 43.7895 41.2019 44.3234C40.3946 44.2909 39.5872 44.264 38.7796 44.2425L38.3196 44.2198C38.2957 43.3945 38.3555 42.618 38.693 41.8522C39.1277 40.8659 39.9538 40.112 40.9537 39.7227Z" fill="#DDF6A3"/>
<path d="M29.9189 45.0801L32.0393 45.1596C32.0455 46.6193 32.3311 47.1171 33.1226 48.2867C32.4389 48.6502 31.9171 49.2886 31.5161 49.9373C31.2339 50.5157 31.1201 51.0225 31.0433 51.6612C30.7538 50.8198 30.6186 49.8426 30.479 48.963C30.272 47.6716 30.0853 46.3773 29.9189 45.0801Z" fill="#4FDB40"/>
<path d="M15.7812 30.1631C16.8871 30.1767 19.2924 30.1815 20.2355 30.5756C20.8957 30.8514 21.2989 31.3204 21.6259 31.9446C22.3782 33.3813 22.7979 35.3912 23.2579 36.9644L26.1234 46.4725C26.5588 47.8805 26.8873 49.3721 27.4525 50.731C27.7457 51.4359 28.1386 51.9282 28.959 51.987C29.1699 52.0021 29.3999 51.9861 29.5971 52.0675C29.6657 52.1704 29.6468 52.245 29.6474 52.3668C29.2737 52.3848 28.9008 52.4029 28.534 52.313C28.112 52.2096 27.6855 51.9188 27.4587 51.5411C27.1201 50.9773 26.9507 50.2916 26.7509 49.6697L25.9643 47.1995C24.8775 43.7593 23.777 40.3086 22.7948 36.837C22.3633 35.3124 21.985 33.2626 21.1652 31.9223C20.272 30.4621 18.4163 30.6261 16.9175 30.5786C16.5784 30.5679 16.2195 30.5806 15.8882 30.5007C15.8001 30.4182 15.7998 30.277 15.7812 30.1631Z" fill="white"/>
<path d="M54.4699 54.7002C54.6181 54.7206 54.7586 54.7558 54.9016 54.7987C56.0488 55.1431 57.2918 56.0008 57.8622 57.0757C58.2852 57.8727 58.3028 58.6683 58.0486 59.5183C57.5428 58.7081 57.0084 57.938 56.3146 57.2768L56.2496 57.2725C56.2422 57.5714 57.5703 59.3209 57.8448 59.6824C56.8354 59.5283 55.9368 59.2305 55.2921 58.3875C54.5231 57.3818 54.3006 55.9275 54.4699 54.7002Z" fill="#4FDB40"/>
<path d="M12.8204 28.564C12.9216 28.5569 13.0239 28.5492 13.1253 28.5488C13.8564 28.546 14.3849 28.8474 14.8936 29.3381C14.7128 29.4409 14.5413 29.549 14.3957 29.6996C14.0781 30.0281 13.892 30.457 13.9148 30.9178C13.942 31.4668 14.2328 31.8401 14.6235 32.192C14.3751 32.3993 14.1242 32.5159 13.8252 32.6269C13.1799 32.7508 12.5761 32.7497 11.9974 32.3848C11.5332 32.0921 11.2218 31.63 11.105 31.0956C10.9839 30.5419 11.0712 29.8855 11.3896 29.4119C11.7291 28.9067 12.2455 28.6759 12.8204 28.564Z" fill="white"/>
<path d="M41.412 39.6582C41.5739 39.6608 41.735 39.6734 41.8953 39.6961C42.0556 39.7188 42.2139 39.7514 42.3701 39.794C43.1114 40.0031 43.7037 40.5043 44.0745 41.1761C44.6036 42.1346 44.5639 43.2642 44.2682 44.2865C44.2577 44.3197 44.2313 44.3505 44.2119 44.3795C43.8061 44.4587 42.0848 44.3386 41.553 44.3324L41.4772 41.5623C41.4555 40.9289 41.407 40.2918 41.412 39.6582Z" fill="#DDF6A3"/>
<path d="M25.9766 44.9736C26.9138 44.933 27.8456 44.9839 28.7807 45.0415C28.7913 45.8221 28.9765 46.625 29.0819 47.3986C29.204 48.2947 29.2542 49.1889 29.352 50.0856C29.4095 50.6121 29.5372 51.1283 29.5879 51.6569C29.2161 51.6268 28.7962 51.6243 28.4593 51.4477C28.1848 51.3039 28.0287 51.0783 27.8902 50.8095C27.6081 50.2624 27.4569 49.6283 27.2645 49.0444C26.827 47.6901 26.3977 46.3331 25.9766 44.9736Z" fill="#4FDB40"/>
<path d="M27.8473 45.1689C27.8855 45.1834 27.9235 45.2028 27.959 45.2236C28.063 45.284 28.1008 45.3471 28.1338 45.4599L28.0576 45.5874C27.9904 45.6261 27.9501 45.6408 27.8725 45.6464L27.8169 45.5927C27.7891 45.4457 27.821 45.3145 27.8473 45.1689Z" fill="#2D2D2D"/>
<path d="M56.9045 43.832C56.9467 43.8363 56.9847 43.8552 57.024 43.8702C57.089 43.9591 57.1074 43.9978 57.1089 44.1084C57.08 44.1845 57.0501 44.2342 56.9885 44.2868C56.6016 44.617 54.3963 45.5113 53.8958 45.5642C53.4108 45.6154 52.9096 45.5711 52.4236 45.552L50.6218 45.4875L44.2211 45.2152C38.1781 44.9743 32.1256 44.8916 26.084 44.612C25.9578 44.6048 25.8983 44.6128 25.7897 44.5445C25.7538 44.4328 25.7429 44.4219 25.7794 44.3123C25.8823 44.2391 25.9652 44.2184 26.0897 44.2147C26.8031 44.1935 27.5424 44.248 28.2588 44.2563C30.8484 44.294 33.4365 44.3783 36.0231 44.5093L49.7011 44.9549L52.1176 45.0333C52.641 45.0498 53.1883 45.0867 53.7099 45.0371C54.619 44.9507 55.9083 44.1276 56.8583 43.8452C56.8736 43.8407 56.8891 43.8365 56.9045 43.832Z" fill="white"/>
<path d="M33.4917 37.0703C34.3262 37.195 35.1689 37.2788 36.0053 37.3941C41.8086 38.162 47.6201 38.8618 53.4397 39.4938C54.384 39.6017 55.2648 39.5626 56.2008 39.4154C56.6285 39.3482 57.0714 39.2805 57.491 39.174C57.7797 39.1006 58.0654 38.9821 58.3576 38.927C58.4559 38.9084 58.5328 38.8927 58.6289 38.9298C58.6357 38.9732 58.6451 39.0173 58.6404 39.0617C58.6305 39.1558 58.5712 39.235 58.5008 39.2935C58.2762 39.4804 57.9222 39.5355 57.643 39.6016C56.1805 39.9473 54.9101 39.9669 53.4283 39.833C51.3865 39.6108 49.3466 39.3729 47.3086 39.1193C47.0252 40.9054 46.8528 42.7245 46.6308 44.5203C46.3472 44.5252 46.0634 44.502 45.7805 44.4844C45.901 42.6615 46.1665 40.8427 46.4265 39.0355C44.2992 38.8452 42.1833 38.5234 40.054 38.3371C37.8954 38.1484 35.729 38.0977 33.5685 37.922C33.5512 37.638 33.5183 37.3537 33.4917 37.0703Z" fill="white"/>
<path d="M25.1376 42.275C25.0263 42.0348 24.9463 41.7604 24.8706 41.5063C24.6888 40.8962 24.727 40.4372 25.0353 39.8749C25.0681 39.8164 25.1024 39.7588 25.1381 39.702C25.1737 39.6451 25.2107 39.5892 25.249 39.5341C25.2873 39.4791 25.327 39.425 25.368 39.372C25.409 39.3188 25.4512 39.2667 25.4947 39.2157C25.5382 39.1646 25.5829 39.1146 25.6288 39.0658C25.6748 39.0169 25.7219 38.9691 25.7702 38.9226C25.8184 38.876 25.8677 38.8305 25.9182 38.7863C25.9686 38.7422 26.0201 38.6992 26.0727 38.6575C26.1252 38.6158 26.1788 38.5754 26.2333 38.5363C26.2878 38.4972 26.3432 38.4595 26.3995 38.423C26.4559 38.3866 26.5131 38.3516 26.5711 38.318C26.6291 38.2844 26.6879 38.2522 26.7476 38.2214C26.8072 38.1907 26.8675 38.1614 26.9285 38.1335C26.9895 38.1057 27.0512 38.0794 27.1135 38.0545C27.1758 38.0297 27.2387 38.0064 27.3021 37.9845C27.3656 37.9628 27.4295 37.9425 27.4939 37.9238C27.5581 37.9698 27.5553 38.0805 27.57 38.1577C27.8077 40.108 28.1891 42.0502 28.5179 43.9878C27.5687 43.9545 26.5478 44.0459 25.6224 43.8296C25.4585 43.3156 25.2696 42.7975 25.1376 42.275Z" fill="#4FDB40"/>
<path d="M27.3947 38.9707C27.4086 38.9834 27.425 38.9937 27.4363 39.0087C27.5304 39.1345 27.5855 39.7395 27.5559 39.8956C27.4789 39.7743 27.4014 39.6321 27.3547 39.4955C27.2868 39.297 27.3079 39.1579 27.3947 38.9707Z" fill="#2D2D2D"/>
<path d="M50.9692 37.8743C50.9711 37.7605 50.979 37.6472 50.993 37.5343C51.0071 37.4213 51.0271 37.3095 51.0532 37.1988C51.0794 37.088 51.1114 36.979 51.1492 36.8717C51.1872 36.7644 51.2307 36.6595 51.2799 36.5569C51.7163 35.6697 52.5677 34.9893 53.5002 34.6845C54.5149 34.3527 55.7171 34.4323 56.6703 34.9172C57.4041 35.2905 58.3338 36.1099 58.5921 36.9135C58.5337 37.0793 58.4985 37.2409 58.4678 37.4139C58.2533 37.016 57.7565 36.2525 57.2978 36.1242C57.1992 36.0966 57.0935 36.1075 57.0054 36.1608C56.9056 36.2211 56.8221 36.3313 56.8036 36.4482C56.7513 36.7796 57.341 37.4259 57.5236 37.7088C56.5587 37.9016 55.5439 38.1657 54.5637 38.2254C53.6244 38.2826 51.9316 38.0398 50.9692 37.8743Z" fill="#F2C94C"/>
<path d="M28.649 38.039C28.6329 37.9119 28.6041 37.875 28.6829 37.7694C29.2319 37.5664 30.1689 37.7914 30.6924 38.0296C30.8029 38.0799 30.9053 38.1445 31.0066 38.211L31.0313 38.2325C31.7253 38.6953 32.4228 39.6153 32.5955 40.4429C32.5979 40.4544 32.5994 40.4661 32.6014 40.4776C32.8388 41.5714 32.967 42.9323 33.0594 44.0569C31.9376 43.9788 30.792 43.9591 29.667 43.9473C29.6168 43.7078 29.5521 43.4622 29.5279 43.2191C29.4451 42.8643 29.3997 42.4982 29.3436 42.1384C29.0851 40.7796 28.8259 39.411 28.649 38.039Z" fill="#4FDB40"/>
<path d="M58.5921 36.9138C58.8469 37.1817 59.1389 37.4813 59.1429 37.877C59.1448 38.0574 59.0737 38.2179 58.9455 38.3432C58.3986 38.8781 55.3762 39.271 54.5663 39.2366C53.6747 39.1987 52.7777 39.0623 51.8907 38.9619C50.2737 38.7899 48.6592 38.5977 47.047 38.3853L33.6643 36.7127L25.587 35.8004C25.1453 35.7503 23.466 35.6362 23.155 35.5077C23.0971 35.4431 23.0816 35.4096 23.0674 35.3242C23.1153 35.2342 23.138 35.2069 23.2389 35.1792C23.7319 35.0435 28.0509 35.577 28.9375 35.682L46.5825 37.7245L51.2513 38.2667C52.2693 38.3902 53.3118 38.568 54.3382 38.5853C54.9614 38.5957 58.1397 38.1453 58.4242 37.7417C58.4971 37.6383 58.4824 37.5349 58.4678 37.4143C58.4986 37.2413 58.5337 37.0797 58.5921 36.9138Z" fill="white"/>
<path d="M36.1423 45.3105C37.1522 45.3389 38.1615 45.3805 39.1703 45.4355C39.8348 46.0539 40.7473 46.7612 40.9854 47.6738C41.0691 47.9943 41.067 48.3438 40.8933 48.6348C40.6209 49.0909 40.059 49.2653 39.5766 49.3941C38.2155 49.7191 36.4784 49.8152 35.1191 49.5049C35.0336 48.735 34.9535 47.9645 34.8789 47.1934C35.1985 46.5252 35.658 45.8715 36.1423 45.3105Z" fill="#F2C94C"/>
<path d="M65.686 59.5872C65.8456 59.5788 66.0052 59.5762 66.165 59.5795C66.3247 59.5829 66.4841 59.5921 66.6432 59.6071C66.8022 59.6222 66.9606 59.6431 67.1181 59.6699C67.2756 59.6966 67.4319 59.729 67.5871 59.7673C67.4462 60.5291 67.0855 61.3067 66.6871 61.9656C65.978 63.1385 64.9678 63.9826 63.6207 64.3057C62.5547 64.5613 61.514 64.3931 60.5794 63.8278C61.1375 63.4775 61.7197 63.1574 62.2869 62.8214C62.8869 62.4521 63.5084 62.0956 64.0607 61.6566C62.7576 61.9474 61.5825 62.8196 60.4937 63.5592C60.6245 62.7013 60.8303 61.9316 61.4162 61.2647C62.4802 60.0539 64.1459 59.6857 65.686 59.5872Z" fill="#4FDB40"/>
<path d="M46.9362 63.404C47.0888 63.3973 47.2715 63.3735 47.4156 63.4325C47.5567 63.4902 47.537 63.7106 47.6499 63.8087C47.9677 64.0847 48.4795 64.2205 48.8622 64.5763C49.4401 65.1136 49.6379 65.8832 49.6574 66.6485C49.6745 67.3189 49.5473 68.0063 49.0602 68.503C48.5181 69.0558 47.8407 69.2266 47.0907 69.2367C47.0258 69.2331 46.9611 69.2276 46.8965 69.2202C46.8319 69.2128 46.7676 69.2035 46.7035 69.1923C46.6395 69.1811 46.5758 69.168 46.5126 69.153C46.4493 69.1381 46.3865 69.1213 46.3242 69.1026C46.262 69.0839 46.2003 69.0634 46.1392 69.0412C46.0782 69.0188 46.0179 68.9947 45.9582 68.9688C45.8986 68.9429 45.8398 68.9153 45.7817 68.886C45.7238 68.8566 45.6667 68.8256 45.6105 68.7929C44.9974 68.4388 44.5289 67.8808 44.3545 67.1876C44.0814 66.1019 44.7696 64.8878 45.6546 64.2776C45.9068 64.1037 46.591 63.8629 46.705 63.6533C46.7761 63.5226 46.801 63.4804 46.9362 63.404Z" fill="white"/>
<path d="M46.5113 65.4372C46.761 65.4286 46.9961 65.4364 47.2312 65.5324C47.5207 65.6507 47.763 65.8736 47.8842 66.1642C47.9973 66.4354 48.0067 66.7556 47.8819 67.0249C47.7284 67.3563 47.4603 67.5096 47.1318 67.6292C46.8297 67.6688 46.5596 67.633 46.2906 67.4814C45.9883 67.3111 45.7502 67.0252 45.6606 66.6878C45.5924 66.4308 45.6134 66.1452 45.7543 65.9156C45.9311 65.6277 46.1986 65.522 46.5113 65.4372Z" fill="#2D2D2D"/>
<path d="M46.6885 65.8238C46.7708 65.8227 46.8492 65.8219 46.9304 65.837C47.1383 65.8756 47.3346 65.9743 47.4488 66.1588C47.5297 66.2894 47.5532 66.4434 47.51 66.5915C47.4379 66.8384 47.245 66.9638 47.0276 67.0727C46.9109 67.0738 46.7903 67.0784 46.6775 67.0438C46.4889 66.9861 46.3127 66.852 46.2281 66.6712C46.2201 66.6543 46.2129 66.6371 46.2067 66.6195C46.2004 66.6018 46.1951 66.5839 46.1907 66.5658C46.1863 66.5476 46.1828 66.5293 46.1803 66.5107C46.1778 66.4922 46.1762 66.4736 46.1756 66.4549C46.175 66.4363 46.1753 66.4176 46.1766 66.399C46.1779 66.3804 46.1802 66.3618 46.1833 66.3434C46.1865 66.325 46.1906 66.3068 46.1958 66.2888C46.2008 66.2708 46.2068 66.2531 46.2136 66.2357C46.3035 66.0102 46.4772 65.917 46.6885 65.8238Z" fill="white"/>
<path d="M27.6412 63.409C28.3049 63.3543 29.0103 63.4913 29.5624 63.8772C30.2527 64.3596 30.5904 65.1674 30.7328 65.9731C30.8659 66.7256 30.7781 67.5045 30.3263 68.1383C29.9022 68.7333 29.3448 68.9764 28.6427 69.099C27.8813 69.1381 27.2278 69.0712 26.5824 68.6272C25.956 68.1964 25.5492 67.519 25.4145 66.7748C25.4055 66.7256 25.3977 66.6761 25.3912 66.6265C25.3847 66.5769 25.3794 66.5271 25.3752 66.4772C25.3712 66.4274 25.3683 66.3774 25.3667 66.3274C25.3652 66.2774 25.3648 66.2273 25.3657 66.1773C25.3666 66.1272 25.3687 66.0772 25.372 66.0273C25.3754 65.9774 25.38 65.9276 25.3859 65.8778C25.3917 65.8281 25.3988 65.7786 25.4071 65.7292C25.4154 65.6799 25.4249 65.6307 25.4356 65.5819C25.4464 65.533 25.4583 65.4844 25.4715 65.4361C25.4847 65.3878 25.499 65.3399 25.5145 65.2923C25.5301 65.2447 25.5468 65.1976 25.5646 65.1508C25.5825 65.1041 25.6016 65.0578 25.6217 65.012C25.6419 64.9662 25.6632 64.9209 25.6856 64.8762C25.708 64.8315 25.7315 64.7873 25.7562 64.7437C25.7808 64.7001 25.8065 64.6572 25.8332 64.6149C25.86 64.5726 25.8878 64.531 25.9166 64.49C26.3533 63.8785 26.9026 63.5367 27.6412 63.409Z" fill="white"/>
<path d="M27.4698 65.243C27.6727 65.2146 27.8859 65.2102 28.0864 65.2568C28.3897 65.3272 28.6629 65.5046 28.8272 65.7719C28.9686 66.0019 29.0282 66.299 28.9634 66.5633C28.8762 66.9186 28.6455 67.1072 28.3407 67.2804C28.0757 67.3583 27.8536 67.4004 27.5883 67.2952C27.2941 67.1786 27.0921 66.9459 26.9745 66.6561C26.8493 66.3479 26.8003 65.9611 26.9423 65.6506C27.0529 65.4083 27.2373 65.3361 27.4698 65.243Z" fill="#2D2D2D"/>
<path d="M27.6528 65.628C27.7622 65.6246 27.8794 65.617 27.9869 65.64C28.1886 65.6831 28.3715 65.8283 28.4751 66.0046C28.5679 66.1625 28.601 66.3461 28.5527 66.5241C28.4929 66.7446 28.3687 66.8601 28.1766 66.9717C28.0872 66.9832 27.9898 66.9995 27.9 66.9858C27.725 66.9592 27.5682 66.8374 27.4652 66.6985C27.448 66.6752 27.4321 66.651 27.4175 66.626C27.4029 66.601 27.3897 66.5753 27.3778 66.549C27.3659 66.5225 27.3554 66.4956 27.3463 66.4681C27.3373 66.4406 27.3297 66.4127 27.3235 66.3844C27.3174 66.3561 27.3127 66.3276 27.3096 66.2988C27.3064 66.2701 27.3048 66.2412 27.3047 66.2122C27.3046 66.1833 27.306 66.1544 27.309 66.1256C27.3119 66.0968 27.3163 66.0682 27.3223 66.0399C27.3687 65.8265 27.472 65.7378 27.6528 65.628Z" fill="white"/>
<path d="M44.6888 30.1826C45.1538 30.3618 45.5746 30.6986 46.0267 30.917C46.7226 31.2532 47.463 31.4954 48.1809 31.7796C48.135 32.2367 47.9956 32.7105 47.8742 33.1534C47.472 34.6222 46.9451 35.9436 46.2356 37.29L45.8685 37.2339L44.4514 37.0647C44.1952 36.0043 43.714 34.7263 43.0849 33.8343C42.8517 33.5037 42.5788 33.2261 42.2896 32.9455C42.7846 31.7665 43.5828 30.824 44.6888 30.1826Z" fill="#F2C94C"/>
<path d="M38.8146 32.3598C39.746 32.2484 40.8149 32.4906 41.6191 32.9701C42.9842 33.7843 43.6583 35.5328 44.0305 37.0095C41.047 36.7792 38.0828 36.3514 35.1044 36.0786C35.3492 35.7021 35.6573 35.369 35.9589 35.0379C36.4431 34.5304 36.984 34.0534 37.5314 33.6151C37.7847 33.4123 38.5092 33.0203 38.6326 32.7621C38.6135 32.6646 38.6106 32.6618 38.5369 32.5946C38.4791 32.5918 38.4774 32.589 38.4121 32.6008C38.2013 32.6388 37.9098 32.8855 37.7387 33.0092C36.6073 33.8266 35.4524 34.8301 34.7215 36.0296C34.4811 36.0033 34.2446 35.9688 34.0063 35.9273C34.2065 35.5901 34.4423 35.2661 34.691 34.9634C35.7446 33.6805 37.1037 32.521 38.8146 32.3598Z" fill="#F2C94C"/>
<path d="M15.8433 31.0449C16.8473 31.1043 17.8721 31.1018 18.8696 31.2292C19.6502 31.3289 20.3132 31.5833 20.7802 32.2497C21.3915 33.1221 21.5471 34.471 21.8679 35.4897L24.2204 43.1779C24.6878 44.7038 26.641 51.3571 27.3473 52.2248C27.7166 52.6786 28.1581 52.7957 28.7145 52.8359C29.8575 52.9183 31.0596 52.7347 32.2021 52.6626C34.1713 52.5552 36.1391 52.4259 38.1054 52.2748C38.8345 52.2151 39.5606 52.118 40.2901 52.0549L50.7432 51.1958C51.1604 51.163 51.5753 51.248 51.9926 51.2101C52.8771 51.1296 53.9619 50.5006 54.7514 50.0998C54.9793 49.9841 55.2138 49.8356 55.4532 49.7475C55.5535 49.7105 55.7 49.6823 55.8061 49.7066C55.9063 49.7295 55.9218 49.7403 55.9684 49.8231C55.9681 49.9251 55.9221 50.0102 55.8562 50.0856C55.6003 50.3781 52.8839 51.6099 52.5042 51.683C52.0572 51.7691 51.5121 51.6639 51.0481 51.6789C50.0406 51.7115 49.0321 51.8116 48.028 51.8971L40.3831 52.476C37.6941 52.7016 34.9097 52.9933 32.2179 53.0898C31.7613 53.5095 31.2431 53.8866 30.7564 54.273C30.0581 54.8301 29.3643 55.3928 28.6751 55.961C28.0579 56.4672 27.3292 56.9881 26.8959 57.6691C26.4431 58.3803 26.2946 59.3598 26.4997 60.1754C26.6831 60.9048 27.2424 61.4621 27.8743 61.8337C28.1084 61.9712 28.3669 62.0977 28.6386 62.1305C29.1828 62.1963 29.776 62.1678 30.3269 62.1848L34.5315 62.2773C38.2426 62.3914 41.9545 62.4687 45.6672 62.5091C46.7545 62.5104 48.7517 62.5944 49.739 62.3337C50.3268 62.1786 51.599 61.5002 51.881 60.9637C51.9405 60.8505 51.9313 60.7827 51.8897 60.6662C51.8073 60.586 51.7417 60.5802 51.6331 60.5645C51.6192 60.5626 51.6054 60.5609 51.5916 60.5591C49.0167 60.6152 46.3991 60.4329 43.8211 60.3696L40.5013 60.2749C39.8517 60.2597 39.1547 60.2989 38.5149 60.2033C38.1113 60.1429 37.723 60.0051 37.3999 59.7498C36.7307 59.2211 36.3778 58.459 36.2977 57.6191C36.2221 56.8271 36.3962 56.122 36.9074 55.5037C37.3599 54.9565 37.9287 54.4898 38.4383 53.995C38.7953 53.6484 39.1403 53.2308 39.5441 52.9427C39.675 52.8493 39.7885 52.7905 39.949 52.7758C40.0311 52.8166 40.0371 52.7979 40.0685 52.8904C39.8774 53.2226 39.5135 53.5123 39.2363 53.7766C38.5991 54.384 37.8954 54.9705 37.3138 55.63C36.8396 56.1677 36.6197 56.7868 36.6664 57.5042C36.7249 58.4037 37.2394 59.317 38.0837 59.6959C38.6933 59.9695 40.4672 59.9105 41.2302 59.9337L48.601 60.1372L50.5788 60.193C50.9329 60.201 51.3089 60.1786 51.6599 60.2242C51.8237 60.2455 52.0316 60.2939 52.1513 60.4173C52.2401 60.5088 52.2786 60.6177 52.2716 60.7438C52.2499 61.1292 51.912 61.4844 51.6363 61.7285C51.1259 62.1805 50.4189 62.6463 49.7416 62.7858C48.882 62.9628 47.9506 62.9372 47.0748 62.9577C44.6286 63.015 42.191 62.9214 39.7458 62.8687C36.8419 62.822 33.9387 62.7474 31.0362 62.6449C30.2676 62.6123 29.4846 62.6329 28.7192 62.5723C28.0178 62.5168 27.1691 61.922 26.7156 61.3999C26.1464 60.7444 25.9552 59.9302 26.0137 59.0773C26.0575 58.439 26.2306 57.817 26.5842 57.2793C27.3364 56.1352 30.1889 54.1673 31.3816 53.1388C30.2708 53.1879 28.5516 53.5937 27.5879 52.9635C27.245 52.7393 26.9614 52.4054 26.7741 52.0429C26.4988 51.5103 26.3216 50.9181 26.126 50.3529C25.8282 49.4984 25.5385 48.641 25.257 47.7809C24.2353 44.5835 23.2497 41.3749 22.3003 38.1553L21.497 35.322C21.3071 34.6487 21.1421 33.9535 20.8627 33.3105C20.7224 32.9879 20.5489 32.6744 20.3046 32.4184C19.3385 31.4061 17.4877 31.5387 16.1931 31.4011C16.0934 31.3905 15.8709 31.3892 15.7954 31.3308L15.8433 31.0449Z" fill="white"/>
<path d="M17.8526 47.7097C17.2781 48.0136 16.7263 48.2088 16.0664 48.1628C15.2314 48.1046 14.5003 47.6381 13.9646 47.0139C13.6965 46.7016 13.4748 46.352 13.2822 45.9889C12.8631 45.1993 12.5862 44.3518 12.2373 43.5317C12.0597 43.114 11.8195 42.7076 11.6901 42.2724C11.6272 42.0609 11.599 41.8588 11.6203 41.6384C11.6817 40.9984 12.0272 40.3802 12.5214 39.9753C13.1131 39.4905 13.8767 39.3042 14.6305 39.3841C15.0856 39.4323 15.525 39.5712 15.9411 39.7586C16.6417 40.0742 17.2647 40.5352 17.917 40.9365C18.3486 41.202 18.8104 41.4313 19.2229 41.7254C19.4303 41.8731 19.6251 42.0406 19.7815 42.2427C20.1919 42.773 20.2417 43.5471 20.1569 44.1866C19.9785 45.5308 19.1826 46.7334 18.1191 47.548L17.8526 47.7097Z" fill="#4FDB40"/>
<path d="M30.8023 26.0308C31.6411 25.9636 32.4717 26.1397 33.2426 26.4655C34.7093 27.0855 36.3325 28.4196 36.9163 29.945C37.0148 30.2024 37.0404 30.4728 36.9212 30.7278C36.493 31.6438 32.3265 33.2569 31.2223 33.6579C30.3292 33.9666 29.374 34.2798 28.435 34.4019C27.7834 34.4868 27.022 34.5033 26.4809 34.0699C26.0555 33.7293 25.8688 33.198 25.8191 32.671C25.6685 31.0776 26.3967 29.2026 27.4002 27.9855C28.2615 26.9408 29.438 26.1655 30.8023 26.0308Z" fill="#F2C94C"/>
<path d="M27.6265 28.4941C27.7381 28.5388 27.804 28.5687 27.8567 28.6765C27.7732 29.017 27.3201 29.525 27.1711 29.9391C26.9891 30.4451 26.9492 31.4248 26.7436 31.7818L26.5858 31.738C26.4838 31.623 26.4746 31.5052 26.4811 31.354C26.5183 30.4866 26.9808 29.0973 27.6265 28.4941Z" fill="#2D2D2D"/>
<path d="M49.7522 24.3913C50.2109 24.3325 50.7216 24.3772 51.1709 24.4857C52.5586 24.8208 53.9806 25.9602 54.7087 27.174C55.4687 28.4412 55.9087 31.0287 55.5125 32.4565C55.438 32.7245 55.2976 32.9818 55.0463 33.1197C54.3254 33.5153 51.7885 32.5955 50.9623 32.3461C50.1462 32.094 49.3565 31.7635 48.5558 31.4679C47.3438 31.0207 45.9598 30.6774 44.936 29.8515C44.5424 29.5341 44.2418 29.1226 44.1973 28.6045C44.1514 28.0693 44.356 27.5675 44.6917 27.1608C45.0708 26.7016 45.5344 26.3561 46.0168 26.0147C47.1497 25.2129 48.3434 24.5221 49.7522 24.3913Z" fill="white"/>
<path d="M53.7184 26.9268C53.7299 26.9288 53.7415 26.9301 53.7528 26.9329C53.9254 26.9756 54.0071 27.1138 54.0947 27.2554C54.552 27.9946 55.2846 29.904 55.0864 30.7357C55.0211 30.7216 54.9544 30.7264 54.9114 30.6702C54.7619 30.4746 54.7056 29.6394 54.6547 29.3621C54.5497 28.7889 54.2695 28.2683 54.0051 27.7554C53.9094 27.5699 53.7743 27.3569 53.7234 27.1543C53.7044 27.0789 53.7122 27.0032 53.7184 26.9268Z" fill="#2D2D2D"/>
<path d="M40.0271 19.4687C40.9464 19.3709 41.9008 19.5639 42.7485 19.9157C44.4536 20.6234 46.1924 22.2276 46.8889 23.9595C46.9828 24.193 47.1172 24.5344 46.9971 24.7768C46.9192 24.934 46.6971 25.0813 46.5543 25.1812C46.2761 25.376 45.9899 25.5662 45.6815 25.71C45.2518 25.9105 44.7679 26.0452 44.3157 26.1863C43.2908 26.5063 42.2617 26.7819 41.2203 27.0412C40.675 27.1762 40.1255 27.2909 39.5717 27.3853C38.5004 27.5608 35.986 27.839 35.1535 27.1993C34.8881 26.9954 34.781 26.6662 34.7417 26.3461C34.5501 24.7841 35.2343 22.8587 36.2025 21.6453C37.146 20.463 38.516 19.6323 40.0271 19.4687Z" fill="#F2C94C"/>
<path d="M37.3684 22.0176C37.4518 22.0337 37.5081 22.0637 37.5814 22.1059C37.6447 22.313 37.2971 22.6795 37.2004 22.8759C36.9924 23.2982 36.8589 23.7502 36.7264 24.2002L36.5569 24.1923C36.4701 24.1373 36.4569 24.1257 36.4392 24.0157C36.3643 23.5513 37.0602 22.3725 37.3684 22.0176Z" fill="#2D2D2D"/>
<path d="M42.0847 20.2559L42.1586 20.2746C42.9715 20.4845 44.8089 21.4377 45.1949 22.181C45.2569 22.3006 45.2442 22.3392 45.2019 22.464C44.9307 22.4774 44.6373 22.1159 44.4423 21.9439C44.0705 21.6161 43.6263 21.2457 43.1837 21.0168C42.8297 20.8338 42.3735 20.7806 42.0628 20.5225C42.0159 20.4052 42.0467 20.3731 42.0847 20.2559Z" fill="#2D2D2D"/>
<path d="M38.188 20.3464C38.2999 20.3322 38.361 20.3434 38.4545 20.3982C38.4613 20.4859 38.4474 20.5166 38.3886 20.5798C38.129 20.8589 37.7209 21.0425 37.4223 21.2845C36.3977 22.1146 35.9567 23.3524 35.6303 24.5785C35.5958 24.5781 35.5365 24.5783 35.5039 24.5737C35.4485 24.5658 35.4011 24.5596 35.372 24.5092C35.2917 24.3704 35.3489 24.1361 35.3895 23.9901C35.8243 22.4267 36.7791 21.145 38.188 20.3464Z" fill="#2D2D2D"/>
<path d="M18.9506 63.3337C16.8508 63.131 14.7103 62.7578 12.7294 62.0135C9.91022 60.9542 7.26932 58.7718 6.02136 55.9879C5.28832 54.3527 5.03678 52.4234 5.69296 50.7199C5.71618 50.6587 5.7409 50.5981 5.76711 50.5382C5.79332 50.4782 5.82099 50.4189 5.85013 50.3603C5.87926 50.3017 5.90983 50.2438 5.94182 50.1868C5.97381 50.1297 6.00718 50.0734 6.04195 50.0179C6.07671 49.9625 6.11282 49.908 6.15028 49.8543C6.18773 49.8006 6.22648 49.7479 6.26653 49.6961C6.30659 49.6444 6.3479 49.5937 6.39046 49.544C6.43301 49.4942 6.47677 49.4456 6.52172 49.398C6.56668 49.3505 6.61278 49.3041 6.66003 49.2588C6.70727 49.2135 6.7556 49.1694 6.80503 49.1265C6.85445 49.0836 6.9049 49.0419 6.95637 49.0015C7.00784 48.9611 7.06028 48.922 7.11369 48.8841C7.1671 48.8463 7.2214 48.8098 7.27661 48.7747C7.33181 48.7395 7.38784 48.7057 7.44471 48.6734C7.50158 48.641 7.55922 48.61 7.61762 48.5805C7.67602 48.5509 7.7351 48.5228 7.79489 48.4962C9.25069 47.8548 10.9914 48.2146 12.4158 48.7661C15.4807 49.9526 18.217 52.4674 19.5375 55.4871C20.3557 57.3581 20.5806 59.4808 20.033 61.4607C19.891 61.9743 19.6745 62.4765 19.4793 62.9724L19.4143 62.6394C19.3792 62.7316 19.3589 62.8377 19.3331 62.9332L19.2798 62.9197C19.2066 62.8006 19.1327 62.7088 19.038 62.6057L18.9285 62.5365C17.9166 60.0522 15.4856 57.7819 13.007 56.7526C12.932 56.7215 12.8559 56.6932 12.7787 56.6678C13.4038 57.1755 14.1323 57.5381 14.7927 57.9957C16.3252 59.0579 17.863 60.7149 18.5827 62.4551C17.2014 61.0443 15.3294 60.1883 13.4362 59.6855C13.4504 59.6943 13.4644 59.7032 13.4787 59.7118C13.9296 59.9823 14.4548 60.1628 14.9358 60.3768C16.6288 61.1303 17.7899 61.8417 18.9506 63.3337Z" fill="#DDF6A3"/>
<path d="M10.7568 58.8704C10.939 58.8605 11.1226 58.8707 11.2929 58.9417C11.3234 58.9545 11.3532 58.9688 11.3822 58.9847C11.4112 59.0006 11.4393 59.0178 11.4666 59.0365C11.4939 59.0552 11.5201 59.0753 11.5454 59.0966C11.5706 59.118 11.5947 59.1406 11.6176 59.1644C11.6406 59.1882 11.6622 59.2131 11.6826 59.2391C11.7031 59.2651 11.7222 59.292 11.7398 59.32C11.7575 59.3479 11.7738 59.3767 11.7886 59.4062C11.8033 59.4358 11.8165 59.4661 11.8283 59.497C11.9069 59.7104 11.9086 59.9547 11.8029 60.1593C11.6803 60.3966 11.4888 60.4938 11.2453 60.5757C11.0625 60.5797 10.895 60.5687 10.724 60.4968C10.4632 60.387 10.2453 60.1614 10.1535 59.8931C10.0877 59.7007 10.0919 59.4865 10.1849 59.3036C10.3076 59.0628 10.5115 58.9549 10.7568 58.8704Z" fill="#4FDB40"/>
<path d="M9.09867 55.7158C9.40085 55.7278 9.6707 55.7879 9.93585 55.9396C10.3223 56.1607 10.6493 56.5397 10.7576 56.9773C10.8282 57.2625 10.8003 57.5653 10.6405 57.8161C10.4464 58.1204 10.1305 58.2464 9.79531 58.3255C9.36585 58.3376 9.00515 58.2737 8.65109 58.0125C8.31788 57.7666 8.06132 57.3867 8.00359 56.9721C7.96367 56.685 8.01788 56.3831 8.20187 56.1528C8.42999 55.8672 8.75179 55.7641 9.09867 55.7158Z" fill="#4FDB40"/>
<path d="M11.6577 52.6875C13.8004 53.1509 16.0524 55.4119 17.2164 57.224C18.0982 58.5969 18.7078 60.0941 19.0954 61.6765C19.0428 59.6285 18.8028 57.659 17.8692 55.8014C17.6106 55.2869 17.2327 54.8359 16.983 54.3183C18.4029 55.464 19.0826 58.1374 19.2697 59.9048C19.3502 60.6645 19.453 61.8885 19.4144 62.6394C19.3793 62.7316 19.359 62.8377 19.3332 62.9332L19.2798 62.9197C19.2066 62.8005 19.1328 62.7087 19.0381 62.6056C18.808 61.7114 18.574 60.8081 18.2387 59.9466C18.2057 59.8603 18.1717 59.7743 18.1369 59.6887C18.1021 59.603 18.0664 59.5177 18.0297 59.4328C17.9931 59.3479 17.9556 59.2633 17.9172 59.1792C17.8789 59.0951 17.8396 59.0114 17.7995 58.928C17.7594 58.8448 17.7184 58.7619 17.6765 58.6794C17.6347 58.5969 17.592 58.5149 17.5485 58.4334C17.505 58.3518 17.4606 58.2707 17.4153 58.19C17.3701 58.1094 17.324 58.0292 17.2771 57.9495C17.2302 57.8698 17.1825 57.7906 17.134 57.712C17.0854 57.6333 17.036 57.5551 16.9858 57.4774C16.9357 57.3997 16.8847 57.3225 16.8329 57.2459C16.7812 57.1693 16.7286 57.0933 16.6752 57.0177C16.6219 56.9423 16.5677 56.8673 16.5128 56.7929C16.4579 56.7185 16.4022 56.6447 16.3458 56.5715C16.2893 56.4983 16.2321 56.4256 16.1741 56.3536C16.1162 56.2816 16.0574 56.2101 15.9979 56.1393C15.9385 56.0685 15.8783 55.9983 15.8174 55.9287C15.7565 55.8591 15.6949 55.7902 15.6325 55.7219C15.5701 55.6537 15.5071 55.586 15.4433 55.5191C15.3796 55.4521 15.3152 55.3858 15.2501 55.3202C15.1849 55.2545 15.1191 55.1896 15.0526 55.1253C14.9861 55.061 14.919 54.9975 14.8512 54.9346C14.7833 54.8717 14.7149 54.8096 14.6458 54.7481C14.5767 54.6867 14.507 54.6259 14.4366 54.5659C14.3663 54.506 14.2953 54.4467 14.2237 54.3882C14.152 54.3297 14.0798 54.272 14.007 54.2149C13.9343 54.1579 13.8609 54.1016 13.7869 54.0462C13.7129 53.9907 13.6384 53.936 13.5633 53.882C13.4882 53.8281 13.4125 53.775 13.3363 53.7226C13.2601 53.6702 13.1834 53.6187 13.1061 53.5679C13.0288 53.5171 12.951 53.4672 12.8726 53.418C12.7943 53.3689 12.7155 53.3205 12.6362 53.273C12.3139 53.0831 11.9526 52.917 11.6577 52.6875Z" fill="#2D2D2D"/>
<path d="M60.7662 55.4886C59.9732 54.9962 59.4724 54.1124 59.2639 53.2213C59.0337 52.237 59.0802 51.2072 59.2565 50.2185C59.6031 48.2744 60.4321 46.3784 61.1255 44.5365C61.6762 43.0737 62.1452 41.5161 62.9804 40.185C63.8177 38.8506 65.0366 37.8047 66.5977 37.4481C66.6539 37.435 66.7103 37.4232 66.767 37.4129C66.8238 37.4026 66.8808 37.3937 66.938 37.3862C66.9952 37.3787 67.0525 37.3726 67.1099 37.3679C67.1674 37.3632 67.225 37.36 67.2827 37.3582C67.3403 37.3564 67.398 37.356 67.4556 37.357C67.5133 37.3581 67.5709 37.3605 67.6284 37.3644C67.6859 37.3683 67.7433 37.3736 67.8006 37.3804C67.8579 37.3871 67.915 37.3952 67.9719 37.4048C68.0288 37.4144 68.0853 37.4254 68.1416 37.4378C68.198 37.4501 68.254 37.4639 68.3096 37.479C68.3653 37.4942 68.4205 37.5107 68.4753 37.5287C68.5302 37.5465 68.5845 37.5658 68.6384 37.5864C68.6923 37.607 68.7456 37.6289 68.7984 37.6521C68.8512 37.6753 68.9034 37.6999 68.9549 37.7257C69.0065 37.7515 69.0574 37.7786 69.1076 37.8069C69.1578 37.8353 69.2074 37.8648 69.2561 37.8956C70.3465 38.5833 71.0033 39.7427 71.2749 40.9807C71.9465 44.0431 71.0109 48.1337 69.3086 50.7526C67.8118 53.0554 65.1364 55.1162 62.4067 55.6761C61.9591 55.7679 61.5235 55.7991 61.0795 55.6751C61.0733 55.6733 61.0671 55.6717 61.0609 55.6701L61.0278 55.6791C61.0184 55.5371 60.9486 55.4533 60.8692 55.342L60.7662 55.4886Z" fill="#F2C94C"/>
<path d="M62.6337 52.1576L62.6548 52.2033C63.0979 51.941 63.5032 51.6 63.9372 51.3189C64.9234 50.6803 66.0155 50.0825 67.0974 49.6201L67.1342 49.632C66.8968 49.8159 66.6077 49.9443 66.3454 50.0911L64.9085 50.9015C64.0826 51.3715 63.314 51.8984 62.522 52.4193C62.0004 53.4718 61.4637 54.5654 61.0608 55.6706L61.0277 55.6796C61.0184 55.5376 60.9485 55.4538 60.8691 55.3425C61.3468 54.2195 61.9266 53.1561 62.4291 52.0479C62.5001 52.0821 62.5679 52.1139 62.6337 52.1576Z" fill="#1E7026"/>
<path d="M66.0288 41.8584C66.2172 44.3562 65.0336 47.0916 63.9764 49.2954C63.7433 49.7838 62.7162 51.7654 62.6338 52.1571C62.5679 52.1134 62.5001 52.0816 62.4292 52.0473C62.1786 50.1707 62.5144 47.3371 63.1404 45.5489L63.1616 45.5944C63.0616 45.9095 63.0552 46.3078 63.0017 46.6387C62.7252 48.3504 62.4542 50.0625 62.5728 51.8054L62.5781 51.8783C63.0027 50.9842 63.4467 50.0998 63.9101 49.2252C65.1852 46.5119 65.6286 44.8378 66.0288 41.8584Z" fill="#2D2D2D"/>
</g>
<defs>
<clipPath id="clip0_1096_35686">
<rect width="80" height="80" fill="white"/>
</clipPath>
</defs>
</svg>
