<svg width="80" height="80" viewBox="0 0 80 80" fill="none" xmlns="http://www.w3.org/2000/svg">
<g clip-path="url(#clip0_1114_54862)">
<path d="M30.9476 52.9248L31.4848 53.0684C31.2023 53.1736 30.9051 53.2528 30.617 53.3424L30.0981 53.4702C30.3739 53.2758 30.6599 53.1007 30.9476 52.9248Z" fill="#F2C94C"/>
<path d="M45.7314 30.4492C46.1069 30.6554 46.3928 30.8064 46.83 30.7523C46.5858 31.0434 46.3231 31.318 46.0636 31.5954C45.9865 31.2036 45.8758 30.8215 45.7314 30.4492Z" fill="#F2C94C"/>
<path d="M11.2983 30.5962C11.3697 30.5704 11.3679 30.5526 11.4419 30.589C11.9819 30.8548 12.6687 32.8269 12.8295 33.4051C12.9707 33.9123 13.0232 34.4576 13.2024 34.9505L13.1767 34.9735C12.8446 34.5662 12.7478 33.8383 12.614 33.3306C12.4005 32.5203 11.9519 31.1017 11.2983 30.5962Z" fill="#4FDB40"/>
<path d="M15.068 36.1735C15.1807 35.2975 15.0628 34.4295 14.7709 33.5977C14.6904 33.3683 14.2299 32.5654 14.2455 32.3711L14.3116 32.3774C14.3161 32.3878 14.3205 32.3984 14.3251 32.4087C14.4339 32.6521 14.5941 32.8683 14.7124 33.108C15.129 33.9522 15.3574 34.8516 15.2986 35.7959C15.2539 36.264 15.1389 36.7169 15.0808 37.1809L15.0285 37.3194C14.9996 37.3097 14.9661 37.3016 14.9394 37.2872C14.9611 36.9132 15.0642 36.5503 15.068 36.1735Z" fill="#4FDB40"/>
<path d="M50.3715 45.8945C51.318 46.032 52.3185 46.0515 53.2455 46.2752C53.3245 46.2943 53.4259 46.2634 53.5047 46.2482L53.5635 46.2777C53.5565 46.367 53.5622 46.4323 53.5013 46.503C53.0501 46.5708 52.2497 46.37 51.7597 46.3284C51.1985 46.2807 50.5781 46.3021 50.0278 46.1998C50.1356 46.0845 50.2325 45.9738 50.3715 45.8945Z" fill="white"/>
<path d="M44.1061 28.5635C44.5554 29.1174 44.959 29.6845 45.266 30.3318C44.4251 30.0379 43.573 30.0002 42.8159 29.752C43.3259 29.4207 43.7161 29.028 44.1061 28.5635Z" fill="white"/>
<path d="M12.666 61.8431C12.8115 61.8288 12.9619 61.8145 13.1063 61.8461C13.3253 61.894 13.5265 62.0449 13.6331 62.242C13.7428 62.4449 13.7565 62.6945 13.6774 62.9104C13.5762 63.1867 13.3844 63.3313 13.1268 63.4535C12.985 63.4735 12.8435 63.4827 12.7033 63.4453C12.4718 63.3836 12.2695 63.2359 12.1607 63.0199C12.1487 62.996 12.1379 62.9715 12.1284 62.9465C12.1188 62.9214 12.1105 62.896 12.1034 62.8702C12.0964 62.8443 12.0907 62.8182 12.0863 62.7918C12.0818 62.7654 12.0787 62.7388 12.077 62.712C12.0752 62.6853 12.0748 62.6586 12.0756 62.6318C12.0765 62.605 12.0787 62.5784 12.0823 62.5518C12.0858 62.5253 12.0907 62.4989 12.0969 62.4729C12.103 62.4468 12.1105 62.4211 12.1192 62.3958C12.2166 62.1078 12.4056 61.9764 12.666 61.8431Z" fill="#F2C94C"/>
<path d="M19.2034 54.0342C19.1485 54.6486 16.6167 58.7995 16.1197 59.3395C16.1069 57.9773 18.262 55.0729 19.2034 54.0342Z" fill="white"/>
<path d="M20.0972 44.8789C21.6679 46.4422 23.1877 48.009 25.0113 49.2913L24.1902 49.6402C22.9907 48.4522 21.0257 46.7462 20.1465 45.3924C20.1721 45.2212 20.1264 45.0478 20.0972 44.8789Z" fill="#F2C94C"/>
<path d="M38.9248 23.3008C39.4029 23.3854 39.8797 23.477 40.3551 23.5754C41.0139 24.1829 41.5766 24.9594 42.0893 25.692L41.6591 25.8106C41.3792 25.9213 41.1584 26.0619 40.9294 26.2525C40.2938 25.246 39.6591 24.239 38.9248 23.3008Z" fill="white"/>
<path d="M14.6699 61.0572C14.8728 60.6428 15.3466 59.7163 15.7289 59.4824C15.88 60.127 16.1624 60.6638 16.7435 61.0259C17.2166 61.3206 17.7245 61.3794 18.2687 61.3723C17.6055 61.8157 16.8597 62.1273 16.0487 61.9686C15.5135 61.8638 14.9746 61.5655 14.685 61.0895C14.6788 61.0793 14.6749 61.0679 14.6699 61.0572Z" fill="#F2C94C"/>
<path d="M68.9893 28.9551C69.703 29.5056 70.4186 30.1278 70.559 31.0722C70.6334 31.5731 70.5002 32.007 70.3145 32.4625C69.766 32.4995 69.0802 32.5305 68.541 32.4055C69.0947 31.3175 69.4053 30.214 69.0107 29.0182L68.9893 28.9551Z" fill="white"/>
<path d="M37.7393 23.0537C37.9489 23.1008 38.16 23.1556 38.3715 23.1921C38.7535 23.6878 39.1204 24.1944 39.4723 24.7119C39.8242 25.2294 40.1605 25.7568 40.4812 26.2942C40.8018 26.8316 41.1063 27.378 41.3945 27.9335C41.6827 28.4889 41.9543 29.0524 42.2091 29.6239L41.3871 29.6131C40.6976 27.9383 39.8917 26.2741 38.9171 24.7454C38.5475 24.1656 38.1108 23.6304 37.7393 23.0537Z" fill="white"/>
<path d="M42.308 26.0225C42.4008 26.0857 43.6055 27.9543 43.8227 28.2561C43.4682 28.7298 43.1224 29.0675 42.6351 29.405C42.5943 29.4135 42.6241 29.4096 42.5455 29.3925C42.0831 28.4276 41.6096 27.4683 41.125 26.5145C41.5071 26.2848 41.878 26.1368 42.308 26.0225Z" fill="white"/>
<path d="M43.7354 33.4547C43.5698 32.5905 43.3635 31.752 43.1031 30.9112C43.0187 30.6387 42.7354 30.0382 42.7413 29.7916L42.8161 29.752C43.5732 30.0002 44.4252 30.0379 45.2661 30.3318C45.5515 30.7779 45.6461 31.3704 45.7636 31.8791C45.1491 32.4762 44.4768 33.024 43.7354 33.4547Z" fill="#F2C94C"/>
<path d="M45.7733 32.3789L45.8051 32.4159C45.9757 33.2751 45.8799 34.3123 45.6695 35.1563C45.4183 36.1643 44.8114 37.1777 43.8998 37.7195C43.926 36.4093 44.0528 35.131 43.7783 33.8309C44.4961 33.3982 45.1477 32.9387 45.7733 32.3789Z" fill="#F2C94C"/>
<path d="M38.7909 47.2197L38.8387 47.2422C38.8451 47.2728 38.8533 47.3079 38.857 47.3394C38.8897 47.6177 38.8527 47.9262 38.8258 48.2039C38.7221 49.2753 38.4512 50.3318 37.7772 51.1935C37.5945 51.4271 37.3774 51.6775 37.1233 51.8341C36.6298 52.1385 35.111 52.3691 34.5012 52.443L34.4565 52.4436C34.4637 52.3708 34.8792 52.0726 34.9566 52.0058C36.2194 50.9171 37.2647 49.4232 37.844 47.8561C38.1657 47.6525 38.478 47.4362 38.7909 47.2197Z" fill="#F2C94C"/>
<path d="M45.6472 36.3564C45.7163 36.7604 45.6041 37.3036 45.5702 37.7192C45.4274 39.4746 45.2494 41.0572 45.7939 42.7717C45.42 42.3703 45.0484 42.003 44.6091 41.6708C44.162 41.3522 43.6905 41.1117 43.1992 40.8711C43.4863 39.9798 43.6709 39.0857 43.8515 38.1685C44.6397 37.7294 45.1692 37.1046 45.6472 36.3564Z" fill="#F2C94C"/>
<path d="M62.7181 23.1807C63.4802 23.1964 64.2139 23.1431 64.9507 23.3936C65.9083 23.7193 66.6539 24.4293 67.0963 25.3318C66.7604 25.4935 66.3743 25.5779 66.0104 25.6521C65.6489 25.6907 65.2904 25.7071 64.9307 25.642C64.0096 25.4753 63.3517 24.805 62.6132 24.2888C62.1775 23.9843 61.8848 23.9249 61.5596 23.4566C61.9449 23.27 62.2952 23.2145 62.7181 23.1807Z" fill="white"/>
<path d="M62.4217 23.4725L62.4635 23.4215C62.7799 23.4095 63.0943 23.3617 63.4111 23.3541C64.4202 23.3301 65.3514 23.5753 66.1028 24.2724C66.4161 24.563 66.6607 24.9025 66.8898 25.2607C65.9915 25.5864 65.1044 25.6838 64.2142 25.2671C63.6322 24.9947 63.1687 24.5905 62.6685 24.1986C62.4395 24.0192 62.192 23.8631 61.959 23.6889C62.2711 23.708 63.9565 23.9341 64.0589 23.9055C63.6459 23.594 63.0148 23.7168 62.5568 23.5271C62.5427 23.5212 62.529 23.5145 62.5148 23.5088C62.4955 23.501 62.4759 23.4941 62.4565 23.4866C62.4448 23.482 62.4333 23.4772 62.4217 23.4725Z" fill="#2D2D2D"/>
<path d="M42.8301 25.9813C43.1434 25.9625 43.4836 26.0174 43.7913 26.0744C45.6191 26.4127 46.7519 27.6657 48.4879 27.9883C48.2865 28.1511 48.0765 28.3025 47.8678 28.4557C47.4747 28.7064 47.0175 28.8697 46.5575 28.9412C45.9862 29.0301 45.1786 28.9996 44.7034 28.6383C44.3578 28.3755 42.8886 26.3843 42.8301 25.9813Z" fill="white"/>
<path d="M26.4546 50.6738C26.7339 50.8779 27.0069 51.0993 27.2958 51.2891C28.2782 51.9347 29.4091 52.4132 30.5069 52.8194C29.7315 53.3477 28.8814 53.8477 28.0219 54.2236C27.2879 54.5165 26.5856 54.8801 25.8814 55.237C26.3566 54.7307 26.6654 54.2041 26.7333 53.5027C26.8321 52.4812 26.3894 51.6478 25.7632 50.8786C25.9916 50.8052 26.2244 50.7416 26.4546 50.6738Z" fill="#F2C94C"/>
<path d="M33.6035 49.54L33.6334 49.5745C33.5873 49.7343 33.4127 49.9096 33.3071 50.0425C32.5795 50.9591 31.7631 51.8245 30.8314 52.5357C29.917 52.2736 29.0506 51.8646 28.2234 51.4004C27.7477 51.1381 27.2886 50.8395 26.8164 50.5693C29.0802 50.2268 31.3841 50.1291 33.6035 49.54Z" fill="#F2C94C"/>
<path d="M37.2445 48.165C37.2749 48.1686 37.2548 48.1636 37.2957 48.2004C36.6591 49.6693 35.6197 51.0982 34.3088 52.0289C33.3012 52.7443 32.746 52.8744 31.5381 52.6689C31.4577 52.6431 31.3981 52.6456 31.3555 52.5693C31.4925 52.4157 31.6852 52.3054 31.8415 52.1701C32.1162 51.9322 32.3693 51.6644 32.617 51.3988C33.0991 50.8819 33.936 49.6661 34.4265 49.3661C34.7582 49.1632 35.2217 49.0553 35.5881 48.9136C36.1556 48.6981 36.7077 48.4485 37.2445 48.165Z" fill="#F2C94C"/>
<path d="M41.0469 23.7402C43.2229 24.1529 45.3866 24.9984 47.4284 25.8425C48.2134 26.167 49.0156 26.4811 49.763 26.8859L49.3198 27.2513C49.1608 27.3923 48.9844 27.5388 48.7705 27.5804C47.7659 27.7758 45.9836 26.3545 44.9699 25.9734C44.1677 25.6717 43.392 25.6192 42.5443 25.6303C42.0283 25.1192 41.5684 24.3253 41.0469 23.7402Z" fill="white"/>
<path d="M20.1096 46.0273C20.8673 46.9093 21.6694 47.7487 22.5161 48.5455C22.9511 48.9632 23.4217 49.3608 23.8361 49.7975C23.3072 50.0798 22.7947 50.3894 22.2986 50.7262C21.8026 51.063 21.3259 51.4252 20.8684 51.8127C20.4399 52.1791 20.0309 52.6395 19.5786 52.9655C20.1279 51.4521 20.6889 49.7084 20.4687 48.0845C20.3671 47.3352 20.1272 46.8323 20.1096 46.0273Z" fill="#F2C94C"/>
<path d="M40.6534 45.4512C40.654 45.9477 40.6806 46.4269 40.8057 46.9095C40.9505 47.4687 41.1777 48.008 41.2509 48.5842C41.3814 49.6127 41.0016 50.3108 40.3932 51.0989C40.0283 51.2215 39.5924 51.3182 39.2595 51.5074C39.119 51.5354 38.9641 51.5532 38.8294 51.6005C38.4647 51.6064 37.9884 51.7725 37.623 51.8416C37.715 51.762 37.807 51.6819 37.8939 51.5968C39.0937 50.4216 39.2038 48.4248 39.2124 46.8538C39.7309 46.4162 40.2105 45.9662 40.6534 45.4512Z" fill="#F2C94C"/>
<path d="M43.0639 41.2568C43.8707 41.6154 44.4921 41.9854 45.1026 42.6293C44.7142 42.6157 44.314 42.6446 43.9392 42.7514C43.1333 42.9811 42.4576 43.5549 42.058 44.2865C41.6504 45.0327 41.5072 45.8903 41.7555 46.7123C41.7703 46.7626 41.7863 46.8126 41.8036 46.8622C41.8209 46.9117 41.8394 46.9607 41.8592 47.0093C41.8789 47.0579 41.8999 47.106 41.9221 47.1536C41.9442 47.2011 41.9675 47.2481 41.9921 47.2945C42.0166 47.3408 42.0423 47.3866 42.0691 47.4317C42.0959 47.4768 42.1238 47.5212 42.1529 47.5649C42.1819 47.6086 42.212 47.6515 42.2432 47.6937C42.2744 47.7359 42.3067 47.7773 42.3399 47.8179C42.3732 47.8584 42.4074 47.8981 42.4427 47.937C42.478 47.9758 42.5142 48.0138 42.5514 48.0508C42.5885 48.0879 42.6266 48.1239 42.6656 48.159C42.7045 48.1941 42.7444 48.2283 42.785 48.2614C42.8257 48.2946 42.8672 48.3267 42.9096 48.3577C42.9519 48.3887 42.9949 48.4187 43.0387 48.4475C43.0825 48.4764 43.1269 48.5042 43.1721 48.5309C43.2174 48.5575 43.2632 48.583 43.3096 48.6074C43.3527 48.6303 43.3963 48.652 43.4404 48.6727C43.4846 48.6934 43.5292 48.7129 43.5743 48.7313C43.6195 48.7497 43.6651 48.767 43.7111 48.7831C43.7571 48.7992 43.8035 48.8141 43.8502 48.8279C43.897 48.8417 43.944 48.8542 43.9914 48.8656C44.0388 48.877 44.0865 48.8872 44.1344 48.8961C44.1823 48.9051 44.2305 48.9129 44.2788 48.9195C44.3271 48.926 44.3755 48.9313 44.4241 48.9354C44.4726 48.9395 44.5213 48.9424 44.57 48.944C44.6187 48.9457 44.6675 48.9461 44.7162 48.9453C44.7649 48.9444 44.8136 48.9424 44.8622 48.9391C44.9109 48.9358 44.9594 48.9313 45.0078 48.9256C45.0562 48.9199 45.1044 48.9129 45.1525 48.9047C45.2005 48.8965 45.2484 48.8872 45.296 48.8766C45.3435 48.866 45.3908 48.8542 45.4378 48.8412C45.4848 48.8282 45.5314 48.8141 45.5777 48.7988C45.6272 48.7826 45.6762 48.7652 45.7248 48.7466C45.7734 48.728 45.8215 48.7081 45.8692 48.6872C45.9168 48.6661 45.9639 48.6439 46.0104 48.6206C46.0569 48.5973 46.1028 48.5728 46.1482 48.5472C46.1935 48.5215 46.2381 48.4948 46.2821 48.4669C46.3261 48.4391 46.3694 48.4102 46.4119 48.3802C46.4545 48.3502 46.4963 48.3192 46.5373 48.2872C46.5783 48.2551 46.6185 48.222 46.6579 48.1879C46.6972 48.1539 46.7357 48.1189 46.7734 48.0829C46.811 48.0469 46.8477 48.0101 46.8836 47.9723C46.9193 47.9345 46.9542 47.8959 46.9881 47.8564C47.022 47.8168 47.0549 47.7765 47.0868 47.7354C47.1186 47.6942 47.1495 47.6523 47.1793 47.6097C47.2091 47.567 47.2378 47.5236 47.2655 47.4795C47.2932 47.4354 47.3197 47.3906 47.3452 47.3452C47.3706 47.2998 47.3949 47.2538 47.4181 47.2071C47.8318 46.3679 47.7796 45.5326 47.4804 44.67C47.8667 45.1154 48.1813 45.565 48.4496 46.0908C48.6136 46.4309 48.7382 46.7841 48.8514 47.1437C46.5545 48.9015 43.7632 50.1761 40.9775 50.9254C42.4616 48.603 40.8976 47.5581 40.9889 45.2818C41.2043 44.9668 41.5171 44.7313 41.7228 44.4089C41.9518 44.0503 42.095 43.6066 42.2584 43.2146C42.53 42.5625 42.81 41.9163 43.0639 41.2568Z" fill="#F2C94C"/>
<path d="M38.8292 51.5999C38.9639 51.5526 39.1188 51.5348 39.2593 51.5068C39.5192 52.3197 39.7643 53.137 39.9949 53.9586C40.3399 54.0911 40.8499 54.2512 41.1292 54.5039C41.1914 54.5395 41.2528 54.5766 41.3133 54.6152C41.3738 54.6538 41.4333 54.6938 41.4918 54.7354C41.5503 54.7769 41.6078 54.8198 41.6642 54.8641C41.7206 54.9084 41.7759 54.9541 41.8302 55.0011C41.8843 55.0481 41.9374 55.0964 41.9892 55.146C42.0411 55.1956 42.0917 55.2464 42.141 55.2984C42.1904 55.3505 42.2385 55.4037 42.2853 55.4581C42.3321 55.5125 42.3775 55.568 42.4216 55.6246C42.4656 55.6812 42.5083 55.7388 42.5495 55.7975C42.5908 55.8562 42.6307 55.9159 42.669 55.9765C42.7074 56.0371 42.7443 56.0987 42.7796 56.1611C42.815 56.2235 42.8488 56.2868 42.881 56.3509C42.9133 56.415 42.944 56.4798 42.9731 56.5454C43.0023 56.6109 43.0297 56.6772 43.0556 56.7441C43.0815 56.811 43.1058 56.8785 43.1284 56.9466C43.151 57.0147 43.1719 57.0833 43.1912 57.1524C43.2252 57.2767 43.25 57.436 43.1885 57.555C43.1627 57.605 43.1265 57.6211 43.0702 57.6274C43.0141 57.6336 42.9352 57.6121 42.8788 57.6024C42.1048 57.4129 41.6454 57.0146 41.1258 56.4334C40.9286 56.2128 40.7274 55.9836 40.5781 55.7267C40.4254 55.4637 40.322 55.1143 40.1097 54.8979L40.0693 54.9028C40.0536 55.1372 40.207 55.4945 40.2667 55.7328C40.3582 56.0988 40.4481 56.6067 40.6654 56.9221C40.8426 57.1793 41.2902 57.3675 41.5447 57.5528C41.9942 57.8802 42.3494 58.2425 42.6713 58.6951C43.0613 59.2433 43.5849 60.1768 43.4663 60.8748L43.4248 60.9026C43.1607 60.681 42.9643 59.9307 42.8045 59.5977C42.4919 58.9461 41.7727 58.0482 41.1769 57.6504C41.0963 57.5967 41.051 57.5718 40.9537 57.5914C40.9773 57.7888 41.1199 58.0029 41.1946 58.1911L41.1529 58.2642C41.1676 58.3786 41.2031 58.425 41.2825 58.5087C41.6822 58.9303 42.0781 60.3917 42.1501 61.0004C42.2173 61.5682 42.3086 63.0386 41.9459 63.5035C41.8598 63.5443 41.8475 63.5514 41.7524 63.5146C41.3271 63.3498 40.7529 62.3844 40.5515 61.971C39.8098 60.4489 39.7614 58.7709 40.3083 57.1903C40.0689 56.6245 39.9967 56.0036 39.871 55.4052C39.8077 55.1036 39.7195 54.8096 39.6687 54.5051L39.6515 54.5064C39.5889 54.654 39.5904 54.6618 39.4448 54.724L39.3754 55.0332C39.3497 55.0514 39.3125 55.0741 39.2913 55.1001C39.1935 55.2202 39.1722 55.3986 39.1799 55.5465C39.1954 55.845 39.0849 55.7965 38.9503 56.0155C39.0028 56.1017 38.9797 56.0571 39.02 56.1492C38.7756 56.822 38.2531 57.3921 37.7306 57.8651C37.5851 57.9969 37.431 58.1244 37.2256 58.1151C37.1492 58.0635 37.122 58.0465 37.0855 57.9577C36.9145 57.5415 37.0512 56.8678 37.2213 56.4697C37.5732 55.6457 38.2085 55.094 38.9142 54.5733C39.1158 54.4246 39.3193 54.253 39.5525 54.158L39.5336 53.9646C39.4812 53.3756 39.0844 52.138 38.8292 51.5999Z" fill="white"/>
<path d="M40.4136 57.6064C40.4176 57.869 40.3998 58.1041 40.4606 58.3635L40.4686 58.4397C40.4772 58.5268 40.4573 58.6057 40.4626 58.6905C40.4897 59.123 40.714 60.5322 40.8848 60.9302C40.8918 61.1614 40.9428 61.3164 41.0446 61.5205C41.0748 62.0375 41.3951 62.6155 41.5662 63.1052L41.5022 63.0258C41.3039 62.7821 41.1731 62.5266 41.0238 62.2522C40.9608 62.2127 40.8999 62.1717 40.8394 62.1284C40.797 61.9839 40.931 61.8829 40.8526 61.7582C40.7822 61.6464 40.6722 61.652 40.6491 61.5035L40.7712 61.3589L40.743 61.2943L40.5915 61.3011C40.5659 61.2807 40.5498 61.2712 40.5332 61.2388C40.2505 60.688 40.1209 58.8025 40.2276 58.1504C40.2587 57.9603 40.3387 57.7826 40.4136 57.6064Z" fill="#2D2D2D"/>
<path d="M39.3288 54.5312L39.3608 54.5701C39.1779 55.2432 38.834 55.9178 38.5551 56.5559C38.4825 56.722 38.4061 56.803 38.2702 56.9193L38.2231 56.9594C38.2225 57.0313 38.2186 57.0093 38.2305 57.0697C38.2329 57.082 38.2359 57.0942 38.2386 57.1064C37.9838 57.4409 37.6537 57.707 37.3295 57.9709C37.1636 57.7031 37.2685 57.1595 37.3289 56.859C37.5503 55.7564 38.4443 55.1129 39.3288 54.5312Z" fill="#2D2D2D"/>
<path d="M40.5889 58.2696C40.5522 58.0685 40.6151 57.7729 40.6351 57.5645C41.455 59.3384 42.3576 61.4136 41.8713 63.4061C41.6973 63.0935 41.2496 61.6266 41.1435 61.5509C41.1682 61.3519 41.1074 61.1621 41.0248 60.9829C40.9155 60.4248 40.8095 59.8711 40.7278 59.308C40.6775 58.9628 40.6517 58.6127 40.5889 58.2696Z" fill="#2D2D2D"/>
<path d="M40.0454 54.1846C40.4679 54.3093 40.8223 54.5223 41.1972 54.747C42.0641 55.3778 42.7466 56.1783 42.9212 57.2636C42.934 57.3431 42.9389 57.4209 42.9419 57.5012C42.8988 57.4863 42.8569 57.4712 42.8148 57.4538C41.2438 56.8031 40.6685 55.67 40.0454 54.1846Z" fill="#2D2D2D"/>
<path d="M44.3612 43.0565C44.4309 43.0473 44.5008 43.0411 44.5709 43.0378C44.6411 43.0345 44.7112 43.0343 44.7814 43.0371C44.8516 43.0398 44.9216 43.0456 44.9912 43.0543C45.0609 43.0631 45.1301 43.0748 45.1988 43.0895C45.2675 43.1042 45.3354 43.1218 45.4026 43.1423C45.4697 43.1628 45.5359 43.1861 45.6011 43.2123C45.6663 43.2384 45.7302 43.2674 45.793 43.299C45.8557 43.3307 45.9169 43.365 45.9766 43.4018C46.6537 43.8207 47.1187 44.5858 47.2905 45.3522C47.3003 45.3946 47.309 45.4371 47.3166 45.48C47.3242 45.5228 47.3308 45.5657 47.3362 45.6089C47.3417 45.652 47.346 45.6952 47.3492 45.7386C47.3524 45.7819 47.3546 45.8253 47.3556 45.8688C47.3567 45.9123 47.3566 45.9557 47.3554 45.9992C47.3542 46.0426 47.3519 46.086 47.3485 46.1293C47.3451 46.1727 47.3406 46.2159 47.3351 46.259C47.3295 46.3021 47.3228 46.3451 47.3151 46.3878C47.3073 46.4307 47.2984 46.4732 47.2885 46.5155C47.2786 46.5578 47.2676 46.5999 47.2555 46.6417C47.2434 46.6834 47.2303 46.7249 47.2162 46.766C47.202 46.8071 47.1868 46.8478 47.1705 46.8881C47.1543 46.9284 47.137 46.9683 47.1187 47.0078C47.1005 47.0472 47.0812 47.0861 47.0609 47.1246C47.0407 47.1631 47.0195 47.201 46.9973 47.2384C46.9751 47.2758 46.952 47.3126 46.928 47.3488C46.4765 48.0418 45.8406 48.3823 45.0481 48.5497C44.3565 48.6188 43.6976 48.4636 43.1261 48.0625C43.09 48.0371 43.0546 48.0107 43.0199 47.9835C42.9852 47.9563 42.9512 47.9282 42.9179 47.8993C42.8845 47.8704 42.8519 47.8406 42.8201 47.8101C42.7882 47.7796 42.7571 47.7483 42.7269 47.7162C42.6965 47.6841 42.6671 47.6513 42.6384 47.6178C42.6097 47.5842 42.5819 47.55 42.5549 47.5151C42.5279 47.4802 42.5018 47.4446 42.4766 47.4084C42.4515 47.3721 42.4272 47.3353 42.4038 47.2979C42.3804 47.2605 42.358 47.2225 42.3365 47.1839C42.315 47.1454 42.2945 47.1063 42.275 47.0668C42.2554 47.0272 42.2368 46.9872 42.2193 46.9468C42.2017 46.9062 42.1852 46.8653 42.1697 46.824C42.1542 46.7827 42.1396 46.7411 42.1262 46.6991C42.1127 46.6571 42.1003 46.6147 42.089 46.5721C42.0776 46.5294 42.0673 46.4865 42.0581 46.4434C42.0489 46.4002 42.0407 46.3569 42.0337 46.3133C41.9088 45.5668 42.109 44.7678 42.5497 44.1553C42.998 43.5321 43.6116 43.1835 44.3612 43.0565Z" fill="#F2C94C"/>
<path d="M60.4376 41.254C60.4487 41.2446 60.46 41.2355 60.4708 41.2259C60.7673 40.9608 60.9369 40.5706 61.1924 40.2666C62.092 39.1961 63.4908 38.8668 64.841 38.8792C64.945 38.8803 65.0223 38.9002 65.1153 38.9448C65.1612 39.0299 65.1527 39.0377 65.1252 39.1272C65.0558 39.3533 64.913 39.5796 64.7924 39.7813C64.3169 40.5764 64.0287 40.833 63.2244 41.2903C63.7177 41.3252 64.2441 41.39 64.7309 41.2803C65.2497 41.1635 65.7216 40.8601 66.204 40.645C67.2356 40.1851 68.5736 40.2107 69.6137 40.627C69.882 40.7344 70.4248 40.9508 70.6022 41.18C70.6455 41.236 70.6407 41.2615 70.6504 41.3285C70.4744 41.7765 69.4995 42.2453 69.0663 42.4334C68.1218 42.8435 66.9042 43.0438 65.9222 42.6465C65.5065 42.4783 65.0243 42.1596 64.8156 41.7533C63.7382 41.8431 62.6569 41.6421 61.5718 41.6585C61.5857 41.6656 61.5994 41.6731 61.6134 41.6802C62.0374 41.896 62.4992 42.0263 62.9269 42.2406C63.8111 42.6835 65.3712 43.8251 65.6822 44.8002C65.7102 44.8881 65.7227 44.9017 65.6814 44.9876C64.9122 45.147 62.8129 44.4534 62.1519 44.0163C61.6289 43.6704 60.8937 42.9826 60.7532 42.3466C60.7311 42.2465 60.7122 42.1613 60.7526 42.0667L60.8424 42.0155C61.8226 42.586 62.9502 43.0409 63.8292 43.7619C63.4104 43.5702 61.2173 42.304 60.9944 42.3474L60.945 42.4402C60.9595 42.5878 61.0798 42.6426 61.1516 42.7614C61.1649 42.7835 61.1769 42.8063 61.1897 42.8285C61.7064 43.7214 62.8658 44.3121 63.8295 44.562C64.0801 44.4595 64.0455 44.6015 64.2404 44.6973C64.3244 44.7385 65.3528 44.8342 65.538 44.8601C65.1923 44.277 64.7836 43.7612 64.2772 43.3074C63.554 42.6592 62.6587 42.2509 61.7529 41.9279C61.5674 41.8617 61.3121 41.74 61.1128 41.7688C61.0115 41.7834 60.9759 41.8276 60.9138 41.9039L60.9222 41.7006C60.825 41.5982 58.8565 41.4632 58.5815 41.4563C58.1211 41.4447 57.6617 41.4592 57.203 41.4998C56.8705 41.53 56.4554 41.6271 56.1309 41.5925C56.0713 41.5862 56.0336 41.5304 55.9906 41.4913C55.9571 41.5296 55.9313 41.5763 55.89 41.606C55.8847 41.6098 54.9344 41.8181 54.7844 41.8692C54.2669 42.0458 53.8214 42.3402 53.3276 42.5632C53.3348 42.4999 53.3494 42.4384 53.3801 42.382C53.4638 42.2285 53.6501 42.055 53.8208 42.0124C55.7312 40.896 58.3157 41.06 60.4376 41.254Z" fill="white"/>
<path d="M64.4321 39.0807C64.5883 39.0682 64.7453 39.0439 64.8997 39.078C64.9005 39.0885 64.9025 39.0991 64.902 39.1096C64.8855 39.4246 64.2569 40.3185 63.9969 40.5618C63.0778 41.4215 61.8858 41.4097 60.7095 41.366C61.1372 41.0925 61.3893 41.063 61.7744 40.855C61.9234 40.7895 62.0719 40.7229 62.2199 40.6552C61.7967 40.7477 61.3152 40.8864 60.9416 41.1085L60.8846 41.1431L60.8601 41.1153L60.8316 41.1465C60.9107 41.0714 61.0674 40.9568 61.0949 40.8563C61.0058 40.8496 61.0367 40.8693 60.9915 40.8188C61.0364 40.6964 61.119 40.6001 61.2036 40.5031C62.1246 39.4464 63.0642 39.1778 64.4321 39.0807Z" fill="#2D2D2D"/>
<path d="M67.6942 40.485C69.0831 40.4597 69.417 40.7405 70.5919 41.2833C69.8053 42.0203 68.6448 42.5411 67.5758 42.6622C66.8104 42.7489 66.0312 42.6383 65.4171 42.1453C65.3042 42.0332 65.1776 41.9183 65.1547 41.7574L65.216 41.725C65.6698 41.7854 67.0139 41.6791 67.4636 41.5756C67.6203 41.5395 67.7841 41.5344 67.9436 41.5102L67.9665 41.4676C67.8085 41.3779 65.4099 41.6071 65.0151 41.6643C65.0464 41.6261 65.0786 41.5887 65.1117 41.5522C65.7398 40.8608 66.7869 40.5325 67.6942 40.485Z" fill="#2D2D2D"/>
<path d="M31.8247 55.3077C32.1359 55.1442 32.778 54.7413 33.1246 54.8435C33.251 54.8808 33.341 54.9739 33.4 55.0885C33.4639 55.2125 33.5327 55.3738 33.5678 55.5082C33.9994 56.6189 34.0587 57.5885 33.5667 58.6952C33.4891 58.87 33.4091 59.05 33.2831 59.1954C33.193 59.2062 33.1895 59.2045 33.1194 59.1517C32.7429 58.8689 32.3127 57.9 32.249 57.4405C32.2349 57.339 32.386 57.2288 32.3439 57.19C32.3337 57.1806 32.2582 57.1352 32.2451 57.1271C32.2357 57.0635 32.2308 57.0394 32.2498 56.9763C32.232 56.8703 32.1964 56.771 32.1638 56.6688C31.8021 57.2376 31.1903 58.2702 30.7333 58.7111C30.5553 58.8828 30.3252 59.0041 30.1309 59.1606C30.0008 59.9875 29.8171 61.8053 29.4304 62.4657C29.3852 62.5891 29.3335 62.7079 29.27 62.823C28.9117 63.4714 28.1721 64.3635 27.4359 64.5787C27.3397 64.5513 27.2978 64.5346 27.2395 64.4501C26.9634 64.0509 26.9473 63.087 27.0209 62.6078C27.2047 61.4114 28.1333 60.0531 29.0988 59.3487C29.3772 59.0782 29.7888 58.9596 30.1132 58.7514C30.2221 58.6816 30.2301 58.6439 30.2537 58.5241L30.3548 58.5734C30.8077 58.3311 31.8993 56.5107 32.163 55.9849C32.3044 55.7116 32.4199 55.4268 32.5389 55.1432C32.2818 55.3735 32.0756 55.6425 31.8838 55.928C31.1358 56.8407 30.0538 57.8483 28.8247 57.9756C28.531 58.006 28.0992 57.9651 27.8409 57.8041C27.7706 57.7746 27.7031 57.7446 27.6399 57.7011C27.5472 57.6373 27.5123 57.574 27.4984 57.461C27.4598 57.1467 27.7657 56.7782 27.9652 56.5581C28.7078 55.7387 29.6063 55.5568 30.6599 55.4282C31.0467 55.381 31.4353 55.3269 31.8247 55.3077Z" fill="white"/>
<path d="M33.1936 55.1211C33.349 55.479 33.5066 55.836 33.6663 56.192C33.6402 56.2552 33.5735 56.2706 33.5596 56.3055C33.5451 56.342 33.6962 56.8528 33.6998 56.9642C33.7054 57.1109 33.703 57.2574 33.6927 57.4038C33.6823 57.5502 33.664 57.6956 33.6379 57.8401C33.6117 57.9845 33.5777 58.1271 33.536 58.2678C33.4943 58.4085 33.445 58.5466 33.3883 58.682C33.319 58.4314 33.2936 58.1444 33.2842 57.8846C33.279 57.2216 33.1507 56.4782 33.126 55.7902C33.1286 55.5558 33.1312 55.3491 33.1936 55.1211Z" fill="#2D2D2D"/>
<path d="M32.4277 56.52C32.4537 56.4926 32.4651 56.4582 32.4809 56.4243C32.4589 56.2907 32.4217 56.1432 32.4708 56.0128C32.6202 55.6159 32.8268 55.2502 32.9842 54.8564C32.9657 55.2015 32.9134 55.5152 33.0054 55.8561C32.8966 56.26 33.0248 57.5625 33.1598 57.9704C33.1521 58.2668 33.2402 58.5474 33.2355 58.8332C33.2149 58.8659 33.2308 58.8458 33.1752 58.8804C32.9704 58.7004 32.8243 58.3111 32.7367 58.0528C32.7435 58.0243 32.7553 57.9807 32.7555 57.9522C32.7561 57.8417 32.6862 57.7913 32.619 57.7142C32.601 57.4618 32.562 57.218 32.5175 56.9691C32.4828 56.8197 32.4526 56.6713 32.4277 56.52Z" fill="#2D2D2D"/>
<path d="M30.9062 56.1467C31.1439 55.9975 31.3698 55.8698 31.6318 55.7666C31.3699 55.9554 31.2258 56.1911 31.0046 56.4179C30.5918 56.9374 30.0402 57.2168 29.4774 57.5439C29.4088 57.5434 29.3734 57.5365 29.3092 57.5175C29.247 57.5653 29.2105 57.6022 29.161 57.6632C29.0861 57.7555 29.0127 57.7822 28.8964 57.7966C28.7559 57.8139 28.6041 57.7372 28.4858 57.671C28.4619 57.6782 28.438 57.6857 28.4141 57.6927C28.1924 57.7572 28.0713 57.7018 27.8651 57.6271L27.8242 57.5828C28.8653 57.1368 29.8375 56.5289 30.9062 56.1467Z" fill="#2D2D2D"/>
<path d="M31.7496 55.4336C31.3932 55.836 29.0947 56.8337 28.4398 57.1724C28.224 57.284 27.9304 57.3898 27.759 57.5595L27.6808 57.4544C27.6459 57.2251 27.8203 56.9641 27.9541 56.7847C28.8456 55.5881 30.4226 55.649 31.7496 55.4336Z" fill="#2D2D2D"/>
<path d="M27.8615 63.5149C28.0699 63.1434 28.1704 62.6658 28.3122 62.2633C28.5134 61.692 29.2629 59.9427 29.6256 59.5101L29.6844 59.5098C29.6895 59.522 29.6962 59.5338 29.6997 59.5465C29.7369 59.6802 29.6767 59.9091 29.6625 60.0484C29.5969 60.6897 29.4747 61.9718 29.1501 62.5242C29.1147 62.5845 29.128 62.5833 29.1403 62.6515L29.1129 62.7772C29.1021 62.7831 29.0912 62.7889 29.0804 62.7949C29.0072 62.8359 28.9181 62.8766 28.8989 62.9672C28.8935 62.9928 28.8947 63.0194 28.8915 63.0454C28.8573 63.3299 28.2511 63.841 28.0211 64.009C27.8832 64.1104 27.7387 64.2011 27.5874 64.281C27.6728 64.0277 27.7912 63.7705 27.8615 63.5149Z" fill="#2D2D2D"/>
<path d="M29.1206 59.5182L29.5404 59.2842C29.2194 59.8984 27.7271 62.9405 27.7826 63.4507C27.5268 63.7156 27.452 64.1707 27.4291 64.5213C27.2215 63.8369 27.2135 63.2504 27.2742 62.538C27.3719 61.3926 28.2764 60.2358 29.1206 59.5182Z" fill="#2D2D2D"/>
<path d="M25.4024 13.2617C25.9855 13.7405 26.2953 14.4306 26.3708 15.1748C26.4639 16.0934 26.1783 17.1198 25.8032 17.9493C25.6657 18.2534 25.4626 18.5401 25.3582 18.8563C25.1923 19.3588 25.1071 19.9175 24.9899 20.4357C24.8922 20.8679 24.7613 21.301 24.6813 21.7356L24.7134 21.6873C25.012 21.2339 25.2174 20.7255 25.5016 20.2627C26.1357 19.2298 27.2781 18.2327 28.4887 17.9813C29.1404 17.8458 29.7666 17.8948 30.3816 18.1476C30.0641 19.2341 29.3676 20.2101 28.3661 20.7592C27.6562 21.1484 26.8905 21.3266 26.1107 21.5127C25.815 21.5833 25.4936 21.6377 25.2109 21.75C25.0266 21.8231 24.8797 21.9205 24.7558 22.0762C24.5052 22.3911 24.3178 22.8056 24.1227 23.1579C23.666 23.9823 23.211 24.7736 22.583 25.4862C22.4122 25.6802 22.1852 25.9461 21.9453 26.0491L21.9621 25.8542C22.5399 25.2119 23.6621 23.8647 23.8706 23.0705C23.942 22.7985 23.8823 22.3545 23.8663 22.0669C23.8492 21.7597 23.8053 21.4373 23.7117 21.1436C23.3885 20.1291 22.3456 18.395 22.9387 17.3531C23.0175 17.3161 23.0334 17.3039 23.1213 17.3322C23.5916 17.4832 24.0712 18.2213 24.2688 18.6476C24.5448 19.2427 24.6755 19.8807 24.7118 20.5335C24.8807 20.0054 25.0518 19.392 25.0345 18.8326C24.985 17.2299 24.1204 15.9674 24.7045 14.3101C24.8456 13.9097 25.0688 13.5311 25.4024 13.2617Z" fill="white"/>
<path d="M25.2494 13.6621C25.3016 13.9691 25.1928 17.7441 25.1518 17.8721C25.1481 17.8836 25.1422 17.8943 25.1374 17.9053L25.1673 17.8624L25.1587 17.9183L25.1715 17.9245L25.109 17.8833C25.1082 17.8084 25.1108 17.8445 25.098 17.7554L25.0875 17.686C25.0249 17.4442 24.9638 17.202 24.9041 16.9595C24.6082 15.7498 24.5893 14.7487 25.2494 13.6621Z" fill="#2D2D2D"/>
<path d="M25.5355 13.6865C25.6895 13.8346 25.7913 14.0135 25.888 14.2018C26.4504 15.2971 26.0597 16.56 25.7147 17.6552C25.6528 17.8072 25.5622 17.9377 25.4727 18.0743C25.4717 17.062 25.5145 16.0562 25.53 15.0454C25.5369 14.5977 25.4745 14.1298 25.5355 13.6865Z" fill="#2D2D2D"/>
<path d="M24.9126 21.62C25.1253 21.3338 25.2903 21.0092 25.4741 20.7038C25.9593 19.8978 26.53 19.1978 27.3215 18.6742C28.1862 18.1022 29.0174 18.0173 30.0187 18.2195C29.5003 18.4248 28.9903 18.6832 28.4951 18.9397C28.3345 19.044 28.1742 19.1601 28.0029 19.2456C27.8079 19.3823 27.6104 19.5153 27.4105 19.6447C27.0286 19.9 26.655 20.167 26.2899 20.4458C26.042 20.6328 25.7863 20.8681 25.5133 21.0122C25.386 21.2196 25.0909 21.4436 24.9126 21.62Z" fill="#2D2D2D"/>
<path d="M27.394 19.3508C27.5746 19.2199 27.788 19.1117 27.9798 18.9961C27.9789 19.0833 27.9672 19.1645 28.0029 19.2454C27.8079 19.3821 27.6104 19.5151 27.4105 19.6445L27.394 19.3508Z" fill="#565554"/>
<path d="M25.5137 21.0118C25.6509 20.4762 26.9064 19.6521 27.3944 19.3506L27.4109 19.6443C27.0289 19.8996 26.6554 20.1666 26.2903 20.4454C26.0423 20.6324 25.7866 20.8676 25.5137 21.0118Z" fill="#565554"/>
<path d="M23.8358 20.8276C23.4451 20.1288 23.0499 18.9211 22.9849 18.1231C22.97 17.9397 22.948 17.7611 23.0714 17.6152C23.1979 17.6152 23.2257 17.6588 23.3249 17.7331C24.0293 18.2783 24.3776 19.2601 24.4825 20.1176C24.593 21.0223 24.4797 22.0093 24.0412 22.8209C24.144 22.1072 24.0545 21.5137 23.8358 20.8276Z" fill="#2D2D2D"/>
<path d="M29.7021 18.4929C29.8088 18.4227 29.9072 18.3227 30.0358 18.3386C30.094 18.5276 29.9734 18.7327 29.8851 18.9014C29.2961 20.0273 28.4266 20.6703 27.2225 21.0347C26.5806 21.2289 25.9054 21.3671 25.2437 21.4752C25.4131 21.3388 25.5803 21.1978 25.7563 21.0701C26.8906 20.1237 28.3353 19.0597 29.7021 18.4929Z" fill="#2D2D2D"/>
<path d="M56.9921 23.7144C57.2144 22.1596 57.6207 20.6774 58.9479 19.6805C59.2002 19.4909 59.6283 19.1845 59.9473 19.1729C60.0247 19.2261 60.0234 19.2284 60.0404 19.3172C60.0749 19.4976 60.0518 19.7158 60.0417 19.8992C59.9941 20.7661 59.7611 21.5181 59.2454 22.2254C58.8743 22.7343 58.2732 23.2541 57.7341 23.5779C58.1621 23.4843 59.6026 23.3661 59.82 23.0459C60.031 22.735 60.1769 22.3636 60.3635 22.0352C60.8235 21.2257 61.585 20.6193 62.4993 20.4039C62.9928 20.2877 63.3925 20.3361 63.8834 20.3496C64.106 20.3557 64.3156 20.3166 64.5366 20.3619L64.5968 20.4116C64.6203 20.8586 64.0775 21.5696 63.7852 21.8949C62.8177 22.9714 61.4866 23.2687 60.1018 23.3801C61.2266 23.7277 61.9046 24.2314 62.5733 25.1945C62.7653 25.4709 62.9447 25.7899 63.1856 26.0256C62.5321 26.2969 61.8457 26.3261 61.1834 26.0568C60.4474 25.7574 59.9303 25.1253 59.6335 24.4032C59.5209 24.1293 59.4378 23.8389 59.3773 23.5493C55.9184 24.172 53.2148 25.2439 50.3529 27.3189C49.7771 27.7364 49.1821 28.1478 48.666 28.6387C47.9916 29.2803 47.4484 30.0579 46.8299 30.7517C46.3928 30.8058 46.1068 30.6548 45.7314 30.4486C45.5056 30.0354 45.2646 29.6241 45.0557 29.2024C46.0893 29.4279 47.1611 29.3705 48.0743 28.7866C48.945 28.23 49.6332 27.4133 50.4901 26.8279C50.8505 26.577 51.2182 26.3373 51.5932 26.1087C51.9682 25.8801 52.3497 25.6631 52.7378 25.4576C53.1259 25.2521 53.5198 25.0586 53.9197 24.8769C54.3194 24.6953 54.7244 24.5259 55.1344 24.3688C55.744 24.1305 56.3947 23.973 56.9921 23.7144Z" fill="white"/>
<path d="M59.8 23.5508C60.0308 23.6348 60.1036 23.8387 60.3124 23.9487L60.3427 23.9331C60.2608 23.8465 60.2025 23.7716 60.1469 23.6658L60.1749 23.6139C60.2255 23.613 60.2375 23.6107 60.2941 23.6225C61.3351 23.8402 62.2191 24.8943 62.7469 25.7454C62.7997 25.8524 62.8316 25.8903 62.8207 26.0112C62.7924 26.0292 62.7814 26.0389 62.7445 26.0467C62.6173 26.0735 62.4441 26.0568 62.3126 26.058C61.6366 26.0644 61.1326 25.9503 60.604 25.5002C60.1701 25.1309 59.7188 24.4512 59.6876 23.8733C59.6794 23.7223 59.7023 23.6656 59.8 23.5508Z" fill="#2D2D2D"/>
<path d="M59.7969 19.3301C59.8244 19.353 59.8362 19.3584 59.8534 19.3919C59.9827 19.6434 59.8269 20.3848 59.7643 20.6684C59.4435 22.123 58.4232 22.8457 57.2388 23.6063C57.6096 23.1423 58.1681 22.4292 58.3829 21.8842L58.2799 21.8578C58.1759 22.0281 58.0616 22.1929 57.9564 22.3629C57.851 22.517 57.7206 22.648 57.593 22.7838C57.7199 22.5532 58.1888 21.9045 58.2076 21.691L58.1502 21.6872C57.7805 21.9233 57.5551 22.6029 57.3412 22.9764C57.31 22.7723 57.4069 22.4495 57.4598 22.2465C57.8164 20.8783 58.6131 20.0248 59.7969 19.3301Z" fill="#2D2D2D"/>
<path d="M60.334 22.5728C60.6774 21.7222 61.203 21.0712 62.0641 20.7078C62.7411 20.4221 63.6182 20.4006 64.3327 20.5302L64.3697 20.5616C64.1327 21.3817 63.4729 22.0965 62.7284 22.5007C62.0329 22.8782 61.1465 23.0694 60.3574 23.0532C60.7791 22.8494 61.1716 22.5679 61.4731 22.2057C61.1271 22.389 60.7854 22.7507 60.4073 22.845L60.3952 22.7942L60.4315 22.7364C60.8673 22.3755 61.316 21.9418 61.812 21.6714C61.9993 21.5692 62.8042 21.249 62.8854 21.1635C62.923 21.1238 62.9088 21.1227 62.9068 21.0601C62.6261 21.0449 62.193 21.3793 61.9184 21.481L61.8282 21.4158C61.3039 21.7811 60.8216 22.1606 60.334 22.5728Z" fill="#2D2D2D"/>
<path d="M68.5407 32.4053C69.0798 32.5304 69.7657 32.4993 70.3141 32.4623C69.1776 34.6694 66.4464 35.7878 64.188 36.5108C60.5904 37.6627 57.9854 38.4343 55.0177 40.8853C54.5904 41.2382 54.2321 41.6479 53.8208 42.0125C53.6501 42.055 53.4638 42.2286 53.3802 42.382C53.3494 42.4384 53.3348 42.4999 53.3277 42.5632C52.3035 43.5201 51.3652 44.8453 50.3712 45.8936C50.2322 45.9729 50.1352 46.0836 50.0275 46.1989C49.7509 46.3323 49.452 46.6724 49.2152 46.8792C48.8816 46.1582 48.5936 45.5068 48.1172 44.8587C48.6683 44.9797 49.2409 44.9882 49.7901 44.8532C51.7212 44.3786 52.2987 42.3464 53.2257 40.845C54.937 38.0732 57.7873 36.9113 60.8445 36.3697C61.7858 36.203 62.7468 36.1304 63.6763 35.9031C65.7677 35.3914 67.4265 34.248 68.5407 32.4053Z" fill="#F2C94C"/>
<path d="M15.3761 38.0801C15.8214 38.4905 16.1515 39.0144 16.4895 39.513C17.3201 40.7388 18.0309 42.0407 18.8694 43.259C19.1695 43.695 19.9086 44.4786 20.0969 44.8787C20.1261 45.0477 20.1718 45.221 20.1462 45.3923C19.4438 44.513 18.9053 43.5273 18.2354 42.6304C18.1752 42.5498 18.1307 42.4826 18.0307 42.457C17.9728 42.6371 18.1287 42.9337 18.21 43.0962C18.4731 43.6173 18.7634 44.1228 19.081 44.6127C19.3985 45.1025 19.7413 45.5739 20.1096 46.027C20.1271 46.8319 20.367 47.3348 20.4686 48.0841C20.6889 49.708 20.1279 51.4517 19.5786 52.9651C18.3963 54.3009 16.42 56.8076 15.8816 58.4931C15.7769 58.8208 15.7341 59.1383 15.7288 59.482C15.3465 59.7159 14.8727 60.6424 14.6698 61.0568C13.4443 59.292 14.9348 54.8209 15.666 52.9841C16.1368 51.801 16.8036 50.612 17.119 49.3773C17.425 48.1798 17.3953 46.647 17.5194 45.3953C17.5904 44.68 17.8118 43.5876 17.7921 42.9159C17.6588 42.7175 17.4547 42.6567 17.2283 42.612C16.8338 42.5338 15.9648 42.474 15.6318 42.7039C15.5026 42.7932 15.3681 42.8747 15.2357 42.9591C15.1359 43.225 15.0418 43.4983 14.9054 43.748C14.437 44.605 13.2456 45.4761 12.3161 45.7293C12.0789 45.7939 11.8551 45.8292 11.6343 45.7032C11.5656 45.6077 11.5307 45.5396 11.5572 45.4191C11.6796 44.862 12.8086 43.9704 13.2643 43.6448C13.5487 43.4663 13.8306 43.3027 14.0616 43.0556C13.7808 43.0989 13.513 43.2326 13.2575 43.3513C13.0024 43.4577 12.7505 43.5805 12.4931 43.6795C12.1982 43.793 11.7547 43.8627 11.5075 44.0552C11.1869 44.3045 11.0156 44.6986 10.7973 45.0322C10.1704 45.9902 8.9827 46.6571 7.88332 46.8903C7.54813 46.9614 7.10519 47.0815 6.77734 46.9335C6.57193 46.8409 6.49162 46.6548 6.41309 46.4561C6.49081 45.638 6.98112 45.0642 7.59415 44.5548C8.33465 43.9394 9.38973 43.3021 10.3936 43.3895C10.7587 43.4214 11.0787 43.5416 11.3293 43.8121C11.9361 43.5691 12.6785 43.3377 13.2507 43.0537C13.2682 43.045 13.2828 43.031 13.2989 43.0198C13.3678 42.9724 13.3312 42.9911 13.4245 42.9666C13.1611 42.9088 12.85 42.9769 12.5746 42.965C11.9957 42.9399 9.50918 42.7377 9.18215 42.3759C9.17496 42.3066 9.15957 42.2971 9.20324 42.2366C9.51668 41.803 11.1464 41.5608 11.6525 41.5109C12.9554 41.3823 14.0368 41.5501 15.1036 42.329C16.18 42.139 16.7959 42.1821 17.8257 42.5009C17.8841 42.3948 17.8812 42.2794 17.8895 42.1612C17.5128 41.4217 17.0814 40.7277 16.6168 40.0402C16.1999 39.4235 15.6409 38.7729 15.3761 38.0801Z" fill="white"/>
<path d="M17.7037 52.038C17.5681 51.9454 17.4178 51.7924 17.3693 51.6308C17.3454 51.5514 17.3666 51.4539 17.4117 51.3862C17.4945 51.2621 17.651 51.1994 17.7938 51.1808C17.9328 51.1627 18.0973 51.1918 18.2002 51.2938C18.276 51.369 18.293 51.4596 18.282 51.5614C18.2647 51.7232 18.2034 51.8835 18.067 51.9769C18.029 52.003 18.0091 52.0122 17.9706 52.0323L17.7037 52.038Z" fill="#2D2D2D"/>
<path d="M17.7036 52.0381C17.7239 51.8736 17.692 51.63 17.7738 51.4912C17.8742 51.4996 17.8892 51.4962 17.9662 51.5586C17.9957 51.7073 17.9555 51.8411 17.884 51.9721L17.9706 52.0324L17.7036 52.0381Z" fill="#565554"/>
<path d="M13.9398 43.5072C14.2797 43.2674 14.6137 43.1339 15.0078 43.0059C14.9253 43.2667 14.8665 43.4348 14.6697 43.6349L14.6327 43.6451C14.5972 43.6552 14.5622 43.667 14.5275 43.6791L14.5834 43.7499C14.5837 43.8002 14.5771 43.8382 14.5559 43.8843C14.2663 44.5135 12.9424 45.2846 12.3002 45.4855C12.137 45.5366 11.987 45.5695 11.8308 45.4896L11.814 45.3925C12.0493 44.7401 13.3147 43.8256 13.9398 43.5072Z" fill="#2D2D2D"/>
<path d="M12.6268 41.6621C13.4743 41.7014 14.1879 41.8663 14.8419 42.4291C13.8393 42.8191 12.7825 42.7441 11.7319 42.687C11.3554 42.6403 9.74723 42.5099 9.53418 42.2879L9.58395 42.2188C10.4705 41.7287 11.6394 41.6845 12.6268 41.6621Z" fill="#2D2D2D"/>
<path d="M10.1178 43.6128C10.149 43.6054 10.1618 43.601 10.1975 43.6002C10.5933 43.5905 10.8598 43.7028 11.1426 43.9778C10.9278 43.9848 10.6659 43.9727 10.4757 44.0828C10.633 44.1232 10.81 44.0199 10.9768 44.0504C11.037 44.0614 11.0199 44.0614 11.0546 44.119C11.036 44.2163 11.001 44.2952 10.9559 44.383C10.3575 45.5486 9.38238 46.2167 8.15488 46.6064C7.90777 46.6831 7.6354 46.7281 7.37788 46.7546C7.1903 46.7739 6.89584 46.7799 6.74945 46.6342C6.66796 46.5532 6.62874 46.463 6.62229 46.3491C6.59659 45.8946 6.99015 45.42 7.2885 45.1098C7.98699 44.3835 9.07238 43.6364 10.1178 43.6128Z" fill="#2D2D2D"/>
<path d="M50.9324 27.3887C52.1899 28.0476 54.0524 28.4583 55.4527 28.4789C56.1537 28.4892 56.8612 28.4367 57.5567 28.3524C60.1613 28.0365 62.6059 27.5989 65.2524 27.7501C65.9361 27.7891 66.6537 27.842 67.2954 28.0984C67.8933 28.3373 68.3836 28.7414 68.5773 29.3778C68.8566 30.2955 68.5449 31.3092 68.0942 32.1164C68.0322 32.2263 67.9672 32.3343 67.8992 32.4405C67.0272 32.4217 66.1451 32.3318 65.2727 32.2855L59.2572 31.9728L53.9936 31.673C53.0981 31.6202 52.1845 31.6162 51.295 31.5028C50.9653 31.2227 50.621 30.9895 50.1953 30.8841C49.4773 30.7061 48.8888 30.8971 48.2725 31.2648C47.898 31.1714 47.558 31.0867 47.2227 30.8892C48.024 29.9362 48.7828 29.0056 49.7603 28.2222C50.1361 27.9209 50.5445 27.6726 50.9324 27.3887Z" fill="white"/>
<path d="M65.5605 29.6865C65.6069 29.6882 65.6776 29.6852 65.7239 29.6981C65.8294 29.7274 65.8498 29.7557 65.9112 29.8389C65.9175 29.9618 65.8866 30.0079 65.8268 30.11C65.7734 30.1104 65.6982 30.1169 65.6477 30.1013C65.542 30.0688 65.5217 30.0339 65.4684 29.9464C65.4663 29.8251 65.4966 29.7839 65.5605 29.6865Z" fill="#565554"/>
<path d="M59.3767 29.0166C59.4718 29.0375 59.5425 29.0936 59.6181 29.1523L59.6232 29.2089C59.6035 29.2513 59.5821 29.2834 59.5453 29.3132C59.2911 29.5193 58.86 29.6318 58.5512 29.7403C57.1195 30.2435 55.404 30.7856 53.8766 30.608C53.2108 30.5306 52.6646 30.2737 52.2433 29.7392C52.1768 29.5697 52.1277 29.4339 52.1942 29.2558C52.4933 29.143 52.6927 29.662 52.8636 29.8263C52.9665 29.9251 53.0981 29.9959 53.2293 30.0491C54.745 30.6643 57.8979 29.6365 59.3767 29.0166Z" fill="#565554"/>
<path d="M42.2093 29.6241C42.545 30.3255 42.7749 31.082 42.9788 31.8308C43.8053 34.8665 43.8089 38.0313 42.764 41.0203C41.6748 44.1356 39.5098 46.667 36.5229 48.0965C34.5973 49.018 32.535 49.482 30.4257 49.7436C29.4326 49.8667 28.4259 49.91 27.4393 50.0777C24.5004 50.5775 22.222 52.0274 20.3038 54.2691C19.1911 55.5694 18.1459 57.1076 17.5759 58.7286C17.4858 58.9847 17.3687 59.3901 17.5038 59.6456C17.5132 59.6634 17.5296 59.6763 17.5425 59.6916C17.6464 59.6653 17.67 59.6155 17.7221 59.5273C17.8752 59.2687 17.9256 58.9406 18.027 58.6576C18.1648 58.2727 18.3433 57.8941 18.5357 57.5337C19.9421 54.8986 22.4835 52.0308 25.3543 51.0171C25.959 51.6592 26.4145 52.4308 26.3857 53.3395C26.3571 54.2422 25.8385 54.8711 25.2049 55.457C24.325 56.2707 23.3591 56.9958 22.4589 57.7895C21.8342 58.3394 21.2128 58.8929 20.5946 59.45C20.1107 59.8887 19.5971 60.4573 19.0283 60.7753C18.7102 60.9532 18.2073 61.0208 17.8449 60.9999C17.3078 60.9691 16.8505 60.7203 16.5047 60.3132C16.2653 60.0312 16.1239 59.7113 16.1201 59.3401C16.6171 58.8001 19.1489 54.6491 19.2039 54.0348C19.9597 53.057 20.9912 52.1518 21.9892 51.4266C23.1482 50.5845 24.4811 49.8558 25.8606 49.4554C27.2096 49.0639 28.6422 48.9677 30.032 48.8099C31.6607 48.625 33.2755 48.3423 34.8211 47.7828C37.8491 46.6868 40.2027 44.7347 41.5725 41.7759C42.7561 39.2195 43.0279 36.062 42.4922 33.3088C42.2447 32.0367 41.8332 30.8275 41.3874 29.6133L42.2093 29.6241Z" fill="#F2C94C"/>
<path d="M17.5346 29.9328C16.7311 30.1166 15.9583 30.1875 15.137 30.0842C13.9781 29.9385 12.8138 29.4005 12.0906 28.4595C11.3163 27.452 11.2906 26.2337 11.4496 25.023C11.7867 22.4587 12.9338 20.5123 14.2742 18.3648C14.5531 17.918 14.8767 17.2344 15.2927 16.9141C15.4713 16.9389 15.5223 17.0755 15.6101 17.2181C15.7981 17.5238 15.9825 17.8349 16.2149 18.1098C17.1392 19.2032 18.5354 19.8009 19.6009 20.745C20.711 21.7287 21.6824 23.0682 21.9067 24.5695C21.9667 24.9712 21.9277 25.3731 21.956 25.7757L21.962 25.8543L21.9452 26.0491C21.9364 26.0587 21.9267 26.0673 21.919 26.0778C21.7882 26.258 21.6881 26.8466 21.5416 27.1232C20.8593 28.4121 19.327 29.3595 18.0075 29.8709C17.9181 29.5189 19.8252 27.7754 20.1238 27.3351C20.445 26.8617 20.6133 26.3436 20.7145 25.7855C20.7384 25.6543 20.7621 25.5496 20.6827 25.4363C20.5656 25.6748 20.5902 26.0099 20.5244 26.271C20.3133 27.1083 19.6149 27.7887 19.0199 28.3735C18.845 28.5455 18.666 28.7576 18.4564 28.8861C18.4976 28.6984 18.6921 28.5169 18.8187 28.3765C19.5944 27.5161 20.5184 26.6953 20.5404 25.451C20.4638 25.5373 20.4195 25.925 20.3893 26.0576C20.3321 26.3088 20.1992 26.5284 20.0563 26.7401C19.6419 27.3538 19.0318 27.8238 18.535 28.3687C18.239 28.6933 18.0185 29.0348 17.8005 29.4138L17.7457 29.4415C17.6842 29.0079 17.4694 28.5874 17.4549 28.1465C17.4165 26.9701 19.2049 25.5054 19.6662 24.3417C19.791 24.0268 19.9979 23.4401 19.8348 23.1189C19.8057 23.0617 19.8124 23.0775 19.7499 23.0541C19.7211 23.0962 19.7011 23.1316 19.6929 23.1827C19.407 24.9654 17.6581 25.8044 17.2144 27.4702C16.9871 26.8978 16.7032 26.2055 16.6422 25.591C16.7886 25.2784 16.9095 24.9755 17.0875 24.6766C17.4667 24.0399 17.9448 23.4552 18.207 22.755C18.3461 22.3833 18.448 21.5881 18.2595 21.2167C18.2232 21.1454 18.2202 21.1457 18.1409 21.123C18.1267 21.1367 18.1065 21.1462 18.0982 21.1641C18.0693 21.227 18.0575 22.1041 17.9645 22.3932C17.6578 23.3462 16.8542 24.1062 16.4187 25.0099C16.2106 24.3374 15.9944 23.6662 15.8181 22.9845C16.1415 22.382 16.64 21.8966 16.8946 21.253C17.1103 20.7077 17.1589 20.2026 16.9221 19.6561C16.7739 20.9548 16.4324 21.3735 15.6843 22.4244C15.6028 22.0683 15.5386 21.7091 15.492 21.3468C15.4454 20.9845 15.4164 20.6207 15.4052 20.2556C15.39 19.8333 15.4051 19.4043 15.3738 18.9834C15.3669 18.89 15.3622 18.7905 15.2995 18.7169L15.2557 18.7654C14.9613 19.8936 15.1178 21.1495 15.2816 22.2841C15.1849 22.0134 15.106 21.7452 15.0448 21.4644C14.9946 21.2343 14.9871 20.9135 14.8812 20.7073L14.8438 20.7377C14.8238 21.4292 15.1625 22.0621 15.3647 22.7059C15.5127 23.1773 15.6295 23.661 15.7543 24.1391C15.2441 23.8416 14.4901 23.648 14.0857 23.2239C13.9602 23.0923 13.864 22.9112 13.7685 22.7564L13.7439 22.8079C13.958 23.2368 14.2296 23.474 14.6074 23.7595C14.7858 23.8381 15.0157 23.943 15.0926 24.135C15.098 24.1485 15.1016 24.1627 15.1061 24.1765L15.8599 24.5382C16.1239 25.2833 16.2725 26.0975 16.5779 26.822C16.5591 26.8202 16.5394 26.8226 16.5214 26.8165C16.3393 26.7547 15.9703 26.4987 15.7417 26.3992C15.0363 26.0921 13.8154 25.9005 13.3533 25.2245C13.2679 25.0997 13.1751 24.9803 13.0846 24.8591L13.0419 24.8887C13.0056 25.067 13.1141 25.2536 13.1988 25.4034L13.1688 25.1461C13.3442 25.3076 13.4781 25.4957 13.6668 25.6475C14.2734 26.1355 14.9856 26.2208 15.6591 26.5467C15.2588 26.495 14.8862 26.4278 14.4998 26.3114C14.3187 26.2569 14.1256 26.1537 13.9438 26.1229C14.4806 26.4991 15.1214 26.5184 15.709 26.7541C16.0974 26.91 16.4138 27.1531 16.7438 27.4045C16.9259 27.9561 17.1045 28.5089 17.2795 29.0629C16.9181 28.9838 16.5681 28.7909 16.2036 28.6979C15.401 28.4929 14.8128 28.603 14.0373 28.1615C13.7015 27.9703 13.4767 27.6014 13.153 27.4228C13.0873 27.3866 13.1196 27.3932 13.0413 27.4145C13.0236 27.5138 13.0452 27.507 13.0995 27.5858L13.1495 27.5312C13.4425 27.736 13.5639 27.9626 13.9662 28.2069C14.7975 28.7116 15.7489 28.7284 16.6217 29.1154C15.8565 29.0064 15.0413 28.9104 14.3246 28.6099C14.0374 28.4895 13.7954 28.2399 13.5113 28.1355C14.4665 29.227 16.1398 29.0641 17.3867 29.5668L17.5346 29.9328Z" fill="#4FDB40"/>
<path d="M14.6074 23.7598C14.7857 23.8384 15.0156 23.9432 15.0925 24.1352C15.0979 24.1487 15.1015 24.1629 15.106 24.1767C14.8705 24.079 14.6464 23.9666 14.4204 23.8487L14.6074 23.7598Z" fill="#446E41"/>
<path d="M13.3369 21.8721C13.5103 22.1501 13.635 22.4579 13.7686 22.7565L13.7441 22.808C13.9582 23.2369 14.2298 23.4741 14.6076 23.7596L14.4207 23.8486C14.3529 23.8114 14.2848 23.7734 14.2214 23.7291C13.6467 23.3283 13.4539 22.5203 13.3369 21.8721Z" fill="#446E41"/>
<path d="M15.2557 38.4647C14.2089 39.17 13.1499 39.7048 11.8695 39.7955C10.5382 39.8898 9.24252 39.5084 8.23486 38.6192C6.88793 37.4305 5.89399 34.8448 5.43279 33.1093C5.25544 32.4419 5.13551 31.753 4.99994 31.076C4.78997 30.0275 4.59739 28.9702 4.53154 27.9008C4.51695 27.664 4.46287 27.1619 4.62622 26.9766C4.92517 26.9958 5.85 27.7616 6.17582 27.9555C6.37608 28.0748 6.57147 28.1516 6.78972 28.2302C9.16604 29.086 11.0446 28.3754 13.2836 30.0595C14.8249 31.2188 16.2024 32.5404 16.4743 34.5434C16.6664 35.9596 16.3217 37.0526 15.4688 38.1754C15.3813 38.0325 15.2881 37.8891 15.2132 37.7391C15.126 37.5643 15.1174 37.4817 15.1804 37.2949C15.3766 36.8984 15.4043 36.3063 15.4333 35.8668C15.4355 35.7665 15.437 35.6663 15.4379 35.566C15.4472 34.4358 15.1226 33.2023 14.3113 32.3771L14.2429 32.2774L14.1692 32.268C14.1266 32.3541 14.1301 32.3445 14.1574 32.43C14.2604 32.7541 14.4408 33.0673 14.5658 33.3858C14.8745 34.1722 15.0208 35.1094 14.9436 35.9513C14.8962 36.3096 14.8608 36.6742 14.7965 37.0295C14.4008 36.4834 13.7042 35.823 13.4306 35.2523C13.2413 34.8576 13.1828 34.3525 13.0855 33.923C12.835 32.8176 12.408 31.5874 11.6853 30.6948C11.6106 30.6025 11.4754 30.5077 11.3546 30.502C11.2964 30.4992 11.3089 30.5073 11.2638 30.553L11.2983 30.5959C11.9328 31.4726 12.2052 32.4491 12.4851 33.478C12.5981 33.8933 12.693 34.2975 12.8786 34.6885C12.3786 34.2073 11.747 33.7362 11.3202 33.1948C11.0224 32.8171 10.8591 32.3128 10.6117 31.897C10.3212 31.4087 9.02252 29.7163 8.51268 29.5812L8.44541 29.6263C8.50533 29.8574 9.01783 30.3658 9.1869 30.5648C9.3751 30.7865 9.58424 31.0053 9.75213 31.2426C10.0683 31.6897 10.3324 32.1717 10.6533 32.6164C9.7569 31.9091 8.73643 31.3964 7.80736 30.7389C7.04265 30.1977 6.3717 29.3866 5.51919 29.004C6.07066 29.7757 6.86313 30.5073 7.60694 31.093C7.04962 30.8845 6.53058 30.6592 6.01008 30.3673C6.75876 30.9545 7.19961 30.9777 7.99987 31.3515C8.93901 31.7902 10.0319 32.5385 10.8021 33.2371C9.70674 32.9974 8.43057 33.2366 7.38976 32.8018C7.04282 32.6568 6.74913 32.4451 6.43926 32.2381C6.38742 32.2035 6.34542 32.2022 6.28607 32.208C6.25673 32.3297 6.27558 32.3457 6.34051 32.4543C6.60504 32.8966 7.36733 33.2132 7.85385 33.3273C8.08041 33.3804 8.31151 33.4066 8.54283 33.4282C9.50049 33.4847 10.3914 33.5054 11.3239 33.7545C11.8464 34.2112 12.2717 34.747 12.7719 35.2197C12.4877 35.233 12.0421 35.0116 11.7006 34.9995C10.6578 34.9627 9.64276 35.2041 8.59377 35.0607C8.29151 35.0194 7.43349 34.597 7.24717 34.654C8.24158 35.3181 9.33197 35.212 10.4654 35.2053C11.0523 35.1543 11.5984 35.1262 12.1787 35.2554C12.5742 35.2689 12.8669 35.4594 13.1905 35.6616C13.2633 35.73 13.3258 35.7838 13.366 35.878C13.8074 36.3416 14.2312 36.9136 14.5948 37.4412C14.5819 37.4402 14.5688 37.4398 14.556 37.438C14.1936 37.3862 13.8601 37.2011 13.4762 37.187C12.388 37.1472 11.3182 37.598 10.2176 37.6084C10.0098 37.6104 9.80033 37.5986 9.59557 37.5623C9.36752 37.522 8.95682 37.3222 8.74783 37.3692C8.75588 37.436 8.74166 37.4129 8.77291 37.4469C9.16807 37.4337 9.77416 37.7057 10.3104 37.7127C11.5096 37.7282 13.3192 36.9655 14.4244 37.5363C14.3985 37.538 14.3737 37.5252 14.3489 37.5175L14.3609 37.5509C13.5005 37.4447 13.0181 37.4736 12.1641 37.6322C10.9036 37.949 10.2 37.8678 8.97705 37.5644C9.93276 38.1396 11.2058 37.9659 12.2585 37.8234C12.7545 37.7414 13.2264 37.6846 13.7294 37.7206C14.0675 37.7448 14.5742 37.9806 14.8837 37.9049C14.9853 38.1027 15.1279 38.283 15.2557 38.4647Z" fill="#4FDB40"/>
<path d="M12.179 35.2559C12.5745 35.2694 12.8672 35.4598 13.1908 35.6621C13.2637 35.7305 13.3262 35.7843 13.3663 35.8784C12.9084 35.715 12.4495 35.5999 11.9741 35.503L12.2019 35.4387C12.1391 35.4227 12.1167 35.4091 12.0653 35.3653C12.0495 35.3519 12.0345 35.3374 12.0191 35.3235L12.179 35.2559Z" fill="#446E41"/>
<path d="M11.9741 35.503C10.3775 35.412 8.5824 35.8915 7.19986 34.8234C7.12878 34.7684 7.0898 34.7538 7.07666 34.6641L7.19011 34.7033C7.70842 35.2534 8.79545 35.3736 9.50311 35.394C9.89998 35.4054 10.2915 35.379 10.6854 35.3321C11.1095 35.2908 11.5547 35.23 11.9789 35.2872L12.0191 35.3235C12.0345 35.3374 12.0495 35.3519 12.0653 35.3653C12.1167 35.4091 12.1391 35.4227 12.2019 35.4387L11.9741 35.503Z" fill="#2D2D2D"/>
<path d="M48.2725 31.2645C48.8889 30.8968 49.4773 30.7058 50.1953 30.8838C50.621 30.9892 50.9653 31.2224 51.295 31.5025C52.1846 31.6159 53.0982 31.6199 53.9936 31.6728L59.2572 31.9725L65.2727 32.2853C66.1451 32.3315 67.0272 32.4214 67.8992 32.4402C66.8868 34.0087 65.1761 34.9809 63.3835 35.3874C62.4658 35.5954 61.5189 35.6828 60.5939 35.8593C58.5014 36.2586 56.355 36.9275 54.7426 38.3827C53.9867 39.0649 53.2942 39.8761 52.8071 40.7737C52.3624 41.5929 51.9964 42.4715 51.439 43.2242C50.9471 43.8882 50.3142 44.4344 49.4716 44.5564C48.628 44.6785 47.7299 44.3886 47.0621 43.8735C46.3225 43.3028 45.9875 42.2923 45.865 41.4023C45.7298 40.4204 45.8258 39.3685 45.8965 38.3838C45.9716 37.3378 45.9934 36.2916 46.0594 35.2472C46.0863 34.8212 46.1664 34.3988 46.1986 33.9725C46.2475 33.3247 46.1985 32.6935 46.1217 32.051C46.5114 31.6862 46.8657 31.2851 47.2227 30.8889C47.558 31.0864 47.898 31.1711 48.2725 31.2645Z" fill="#F2C94C"/>
<path d="M54.3264 34.9023C54.388 34.9231 54.442 34.952 54.4999 34.9813C54.6339 35.2046 54.8859 35.4734 54.966 35.7148C55.0063 35.8362 54.9615 35.8794 54.9083 35.9827C54.8549 35.9616 54.8543 35.9629 54.7956 35.9318C54.5543 35.8037 54.3141 35.5459 54.2482 35.2766C54.2103 35.1221 54.2453 35.0341 54.3264 34.9023Z" fill="#2D2D2D"/>
<path d="M49.7951 38.4609C49.9546 38.5646 50.0276 38.7448 50.1701 38.8649C50.3301 38.9997 50.5229 38.9746 50.6561 39.1603C50.6486 39.2758 50.614 39.2985 50.5438 39.3877C50.5124 39.3843 50.4812 39.3797 50.4501 39.3741C50.419 39.3684 50.3882 39.3616 50.3577 39.3536C50.3271 39.3456 50.2969 39.3365 50.267 39.3263C50.2371 39.3161 50.2077 39.3048 50.1786 39.2924C50.1496 39.28 50.121 39.2666 50.0929 39.252C50.0649 39.2376 50.0375 39.222 50.0105 39.2055C49.9837 39.1889 49.9574 39.1714 49.9318 39.1529C49.9062 39.1344 49.8813 39.115 49.8572 39.0947C49.7547 39.01 49.6393 38.8688 49.6442 38.7279C49.6489 38.5936 49.7114 38.5507 49.7951 38.4609Z" fill="#2D2D2D"/>
<path d="M48.2726 31.2645C48.8889 30.8968 49.4774 30.7058 50.1954 30.8838C50.6211 30.9892 50.9654 31.2224 51.2951 31.5025C51.7842 32.0433 52.0903 32.6971 52.0803 33.437C52.0797 33.4791 52.078 33.5212 52.0753 33.5632C52.0725 33.6053 52.0688 33.6473 52.064 33.6891C52.0593 33.731 52.0535 33.7727 52.0466 33.8142C52.0398 33.8559 52.0319 33.8973 52.0231 33.9385C52.0142 33.9796 52.0043 34.0205 51.9935 34.0613C51.9826 34.102 51.9707 34.1424 51.9578 34.1825C51.9449 34.2226 51.9311 34.2624 51.9163 34.3018C51.9014 34.3413 51.8856 34.3804 51.8688 34.419C51.8521 34.4577 51.8345 34.4959 51.8158 34.5337C51.7972 34.5715 51.7776 34.6088 51.7572 34.6456C51.7367 34.6825 51.7154 34.7188 51.6931 34.7546C51.6708 34.7903 51.6477 34.8255 51.6238 34.8602C51.5998 34.8948 51.5749 34.9289 51.5493 34.9623C51.5236 34.9957 51.4972 35.0285 51.4699 35.0606C51.4427 35.0927 51.4146 35.1241 51.3858 35.1549C51.357 35.1857 51.3274 35.2157 51.2971 35.2449C51.2693 35.2718 51.2409 35.2979 51.2118 35.3232C51.1827 35.3486 51.153 35.3732 51.1227 35.3971C51.0923 35.421 51.0614 35.4442 51.0299 35.4665C50.9985 35.4889 50.9665 35.5105 50.9339 35.5312C50.9013 35.552 50.8682 35.5719 50.8347 35.591C50.8012 35.6102 50.7672 35.6284 50.7327 35.6458C50.6983 35.6632 50.6634 35.6797 50.6281 35.6954C50.5928 35.7111 50.5572 35.7259 50.5211 35.7398C50.4851 35.7537 50.4487 35.7667 50.4121 35.7788C50.3754 35.7909 50.3384 35.802 50.3012 35.8122C50.264 35.8225 50.2265 35.8318 50.1888 35.8401C50.1511 35.8485 50.1133 35.8559 50.0752 35.8624C50.0371 35.8689 49.9989 35.8744 49.9606 35.879C49.9222 35.8835 49.8838 35.8871 49.8453 35.8898C49.8067 35.8924 49.7681 35.8941 49.7296 35.8949C49.691 35.8956 49.6524 35.8954 49.6138 35.8942C49.5741 35.8927 49.5345 35.8903 49.4949 35.8869C49.4554 35.8835 49.4159 35.8792 49.3766 35.8739C49.3372 35.8685 49.298 35.8623 49.259 35.855C49.2199 35.8478 49.1811 35.8396 49.1424 35.8304C49.1038 35.8212 49.0655 35.8111 49.0273 35.8001C48.9892 35.7891 48.9513 35.7771 48.9138 35.7642C48.8762 35.7513 48.839 35.7375 48.8021 35.7228C48.7653 35.708 48.7288 35.6924 48.6927 35.6759C48.6566 35.6593 48.6209 35.6419 48.5856 35.6236C48.5504 35.6054 48.5157 35.5863 48.4813 35.5663C48.447 35.5463 48.4132 35.5254 48.3799 35.5038C48.3467 35.4822 48.3139 35.4597 48.2817 35.4364C48.2496 35.4132 48.218 35.3892 48.187 35.3644C48.156 35.3396 48.1256 35.314 48.0959 35.2877C48.0661 35.2614 48.0371 35.2344 48.0086 35.2067C47.9802 35.179 47.9525 35.1505 47.9255 35.1214C47.8971 35.0898 47.8694 35.0574 47.8425 35.0244C47.8156 34.9914 47.7896 34.9577 47.7644 34.9234C47.7392 34.8891 47.7148 34.8542 47.6913 34.8188C47.6678 34.7833 47.6452 34.7472 47.6234 34.7106C47.6016 34.674 47.5808 34.6369 47.5609 34.5993C47.5409 34.5617 47.5219 34.5236 47.5038 34.4851C47.4857 34.4466 47.4686 34.4076 47.4524 34.3682C47.4362 34.3289 47.421 34.2891 47.4068 34.249C47.3925 34.2089 47.3793 34.1684 47.3671 34.1277C47.3548 34.0869 47.3436 34.0459 47.3333 34.0046C47.323 33.9632 47.3138 33.9216 47.3056 33.8799C47.2973 33.8381 47.2902 33.7962 47.284 33.7541C47.2778 33.712 47.2727 33.6697 47.2685 33.6273C47.2644 33.5849 47.2614 33.5425 47.2593 33.5C47.2573 33.4575 47.2563 33.4149 47.2563 33.3724C47.2563 33.3298 47.2574 33.2872 47.2596 33.2447C47.3035 32.4365 47.6756 31.792 48.2726 31.2645Z" fill="#2D2D2D"/>
<path d="M49.3423 31.2159C49.8049 31.1888 50.2309 31.2344 50.6391 31.4756C51.1392 31.7712 51.5048 32.3087 51.6379 32.8713C51.6466 32.9071 51.6545 32.9431 51.6615 32.9793C51.6684 33.0154 51.6745 33.0517 51.6797 33.0882C51.6849 33.1247 51.6891 33.1613 51.6924 33.198C51.6958 33.2347 51.6982 33.2714 51.6997 33.3082C51.7012 33.345 51.7018 33.3818 51.7015 33.4187C51.7012 33.4555 51.7 33.4923 51.6978 33.5291C51.6957 33.5659 51.6926 33.6026 51.6887 33.6392C51.6847 33.6758 51.6799 33.7123 51.6741 33.7487C51.6683 33.7851 51.6616 33.8213 51.6541 33.8573C51.6465 33.8934 51.638 33.9293 51.6287 33.9649C51.6193 34.0005 51.6091 34.0359 51.598 34.071C51.5869 34.1062 51.5749 34.141 51.562 34.1755C51.5492 34.21 51.5355 34.2442 51.5209 34.278C51.5064 34.3119 51.491 34.3454 51.4749 34.3785C51.4587 34.4116 51.4416 34.4442 51.4238 34.4765C51.406 34.5087 51.3874 34.5405 51.368 34.5718C51.0542 35.0772 50.6059 35.3681 50.0362 35.5054C49.5539 35.5365 49.1349 35.4783 48.7095 35.2341C48.678 35.2163 48.6469 35.1976 48.6163 35.1783C48.5858 35.1588 48.5557 35.1387 48.5262 35.1177C48.4966 35.0968 48.4676 35.0752 48.4391 35.0528C48.4107 35.0304 48.3828 35.0074 48.3555 34.9836C48.3282 34.9598 48.3015 34.9354 48.2754 34.9103C48.2493 34.8851 48.2239 34.8594 48.1991 34.833C48.1743 34.8066 48.1502 34.7796 48.1268 34.752C48.1034 34.7244 48.0806 34.6962 48.0586 34.6675C48.0366 34.6387 48.0153 34.6095 47.9948 34.5797C47.9743 34.5498 47.9545 34.5195 47.9354 34.4887C47.9164 34.4579 47.8982 34.4266 47.8807 34.3949C47.8633 34.3632 47.8466 34.331 47.8308 34.2985C47.815 34.2659 47.8 34.233 47.7858 34.1997C47.7716 34.1664 47.7582 34.1327 47.7458 34.0987C47.7333 34.0648 47.7216 34.0305 47.7109 33.9959C47.7001 33.9613 47.6902 33.9265 47.6812 33.8915C47.5381 33.3359 47.6474 32.7018 47.9399 32.2118C48.2621 31.6721 48.7443 31.3728 49.3423 31.2159Z" fill="#F2C94C"/>
<path d="M17.8064 30.009C18.2525 30.7909 18.7073 33.1893 18.6188 34.0834C18.6112 34.1598 18.6036 34.1756 18.6274 34.2508L18.7303 34.1952C18.784 34.2116 18.8363 34.2284 18.8886 34.249L18.9317 34.2664C18.943 34.2593 18.9553 34.2536 18.9655 34.2449C19.1667 34.0725 19.2867 33.251 19.3735 32.9739C19.653 32.0825 20.0411 31.1801 20.4704 30.3505C21.4359 28.4847 22.8336 26.7008 24.5085 25.4164C27.9538 22.7742 33.0331 22.4177 37.1927 22.9664C38.7105 25.0168 40.0176 27.2205 40.9457 29.6034C39.4124 29.6327 37.8431 29.7003 36.3245 29.9134C31.6629 30.5677 27.2123 32.4458 23.9162 35.8711C22.9585 36.8663 22.0613 38.0362 21.3648 39.2287C21.1645 39.5716 20.9111 40.3284 20.6902 40.5805C20.8799 39.02 21.3447 36.8766 21.8897 35.3943C22.0289 35.0158 22.1688 34.6365 22.3303 34.2669C22.4795 33.9252 22.6636 33.5802 22.7767 33.2253C22.7397 33.1138 22.7333 33.1092 22.6381 33.0394C22.5563 33.0373 22.5067 33.0232 22.451 33.0985C22.3541 33.2295 22.2967 33.4416 22.2203 33.5901C21.1109 35.7472 20.6782 38.3967 20.2764 40.7687C20.0924 41.8546 19.8844 42.9321 19.8804 44.0377C19.2503 43.2188 18.6273 42.2984 18.1034 41.4089C18.0123 41.2543 17.877 41.0355 17.8555 40.8578C17.8131 40.5067 17.8599 40.1138 17.8851 39.7598C17.9306 39.0889 18.001 38.4205 18.0964 37.7548C18.1899 37.1316 18.3177 36.5055 18.3849 35.8794C18.4151 35.5987 18.3884 35.3202 18.4055 35.0401C18.4151 34.8824 18.4653 34.7302 18.4738 34.5729C18.4928 34.2187 18.4337 33.8263 18.3995 33.4725C18.3508 32.9662 18.2945 32.451 18.1902 31.9529C18.111 31.5751 17.6656 30.2715 17.7367 30.0013L17.8064 30.009Z" fill="white"/>
<path d="M18.7548 34.4678C18.8262 34.5127 18.8492 34.5471 18.8977 34.6144C18.9071 34.745 18.8971 34.759 18.8331 34.8747C18.7603 34.8546 18.7334 34.8361 18.6824 34.7806C18.6573 34.6609 18.7081 34.5746 18.7548 34.4678Z" fill="#2D2D2D"/>
<path d="M27.8573 31.1895C27.9284 31.1923 28.0196 31.1992 28.0814 31.2373C28.1552 31.2828 28.1988 31.3553 28.2023 31.4417C28.2071 31.5591 28.133 31.6482 28.0654 31.7345C27.9997 31.7229 27.9105 31.7151 27.8505 31.6873C27.7502 31.6409 27.7396 31.6039 27.7031 31.5091C27.721 31.3702 27.7741 31.2999 27.8573 31.1895Z" fill="#2D2D2D"/>
<path d="M36.3172 28.4287C36.4266 28.4493 36.5429 28.4803 36.6302 28.5536C36.7143 28.6243 36.7679 28.722 36.7613 28.8339C36.7515 29.0007 36.6457 29.0918 36.5302 29.1953C36.376 29.1782 36.2471 29.1607 36.1459 29.0276C36.1381 29.0177 36.131 29.0074 36.1243 28.9967C36.1176 28.986 36.1116 28.9749 36.1061 28.9636C36.1006 28.9523 36.0958 28.9407 36.0915 28.9288C36.0872 28.917 36.0836 28.9049 36.0806 28.8927C36.0776 28.8805 36.0753 28.8681 36.0736 28.8556C36.0719 28.8431 36.0708 28.8306 36.0705 28.818C36.0701 28.8054 36.0704 28.7928 36.0713 28.7803C36.0723 28.7677 36.0739 28.7552 36.0762 28.7429C36.1056 28.5886 36.1961 28.5112 36.3172 28.4287Z" fill="#565554"/>
<path d="M18.6371 34.9766C18.7429 34.9865 18.8208 34.9721 18.9025 35.0441C19.1463 36.0221 18.7306 40.1104 18.3624 41.1247C18.2576 41.0892 18.2081 41.0473 18.1276 40.9751C18.0171 40.7305 18.2604 39.7351 18.3095 39.4321C18.5457 37.9732 18.6283 36.4533 18.6371 34.9766Z" fill="url(#paint0_linear_1114_54862)"/>
<path d="M29.5639 25.3936C29.6617 25.4489 29.6985 25.4796 29.7507 25.5796C29.7154 25.7626 29.2459 25.8943 29.0718 25.9673C27.1441 26.7749 25.6822 28.1013 24.5008 29.8077C24.2201 30.2131 24.024 30.7081 23.7205 31.0875C23.7038 31.1083 23.6867 31.1288 23.6698 31.1494C23.5722 31.1027 23.4638 31.0621 23.4155 30.9596C23.424 30.8444 23.4595 30.7575 23.5112 30.6543C23.7119 30.2534 23.9942 29.8599 24.2494 29.4909C25.5817 27.5647 27.3097 26.1167 29.5639 25.3936Z" fill="#565554"/>
<path d="M54.3308 44.9883C54.5474 44.662 54.8242 44.3616 55.1178 44.1032C55.922 43.395 56.863 43.0904 57.9316 43.1627C58.995 43.2347 59.8604 43.8165 60.7249 44.3829C60.9513 44.5314 61.2602 44.6923 61.4363 44.8954C61.9836 45.0843 65.178 47.5365 65.6164 48.0145C64.1213 47.9719 63.1556 48.3165 61.851 48.9929C60.3747 49.8818 58.9636 50.7679 57.1724 50.6536C60.5131 53.899 59.5242 57.9421 60.1528 62.0455C60.2877 62.9265 60.5264 63.7633 60.8479 64.5934L61.0427 65.0443C60.8917 64.947 60.7386 64.8534 60.5833 64.7633C60.428 64.6733 60.2706 64.5869 60.1113 64.5043C59.9519 64.4216 59.7907 64.3426 59.6276 64.2675C59.4645 64.1924 59.2998 64.1211 59.1334 64.0537C58.967 63.9863 58.7991 63.9228 58.6297 63.8632C58.4603 63.8036 58.2897 63.748 58.1177 63.6965C57.9457 63.6449 57.7726 63.5974 57.5985 63.554C57.4242 63.5105 57.2491 63.4711 57.0731 63.4358C56.099 63.2308 55.0915 63.1619 54.1051 63.0317C51.3148 62.6633 48.5662 61.8533 46.7081 59.5865C45.5265 58.1451 44.8476 56.4749 45.0516 54.5897C45.3221 52.089 47.5099 50.786 49.2919 49.3522C49.3152 49.4434 49.3442 49.5389 49.3556 49.6322C49.3722 49.7667 49.3094 49.8194 49.2325 49.9169C48.7205 50.5273 48.1542 51.0904 47.651 51.7079C46.3177 53.3435 45.9087 55.0904 46.1 57.164C46.1095 57.2673 46.1296 57.5387 46.2021 57.6144L46.2281 57.4764L46.1969 57.5104C46.0428 55.289 46.3653 53.5708 47.8643 51.8457C48.3603 51.2749 49.0145 50.7025 49.3763 50.0391C49.603 50.2244 49.8215 51.1954 49.9573 51.5217C49.7991 52.0245 49.6697 52.5422 49.4726 53.0314C48.6672 55.0298 48.1042 55.7694 48.3749 58.0666C48.463 58.8131 48.6174 59.5733 48.8829 60.2789C48.9165 60.2073 48.6931 59.2898 48.6649 59.1301C48.5139 58.274 48.4325 57.3701 48.5112 56.5023C48.6181 55.3232 49.1833 54.3808 49.6245 53.314C49.8242 52.8311 49.9681 52.3296 50.1052 51.8261C50.3399 52.3972 50.6363 52.9365 50.9312 53.478C50.8098 54.6736 50.6936 55.9047 50.6372 57.105C50.5318 58.8015 50.9553 60.3637 51.5784 61.9212C51.6036 61.7236 51.1802 60.5494 51.1014 60.2182C50.8503 59.1629 50.7893 58.1354 50.8249 57.056C50.9061 56.688 50.9179 56.2844 50.9525 55.909C51.0145 55.2361 51.0867 54.56 51.1061 53.8843C51.5693 54.6856 52.0646 55.4665 52.592 56.2272C52.6682 58.5834 52.6613 60.2113 53.8137 62.4044L53.8099 62.3882L53.8338 62.3928C53.1342 60.5169 52.6943 58.6997 52.8961 56.6826C53.3338 57.4265 54.0731 58.0708 54.4502 58.7985C54.6794 59.241 54.8101 59.7749 54.9867 60.2433C55.1713 60.7326 55.9778 62.6787 56.3246 62.919C55.7449 61.7024 55.1574 60.4193 54.8428 59.104C56.1247 60.5931 57.581 61.8382 59.046 63.1362C59.4295 63.4759 59.921 64.014 60.3566 64.2434C59.8458 63.5502 59.116 62.9179 58.4972 62.3209C57.1996 61.0692 55.825 59.8097 54.7255 58.3759C56.0955 59.0953 57.5045 59.6843 58.7687 60.5901C58.8306 60.6344 58.9953 60.7843 59.0582 60.7722C58.2881 59.9411 56.654 59.139 55.6376 58.6095L54.8645 58.2354C54.7106 58.1619 54.5467 58.0933 54.4188 57.978C53.7646 57.3888 52.8737 55.9165 52.3674 55.1315C53.0567 55.2995 53.7368 55.4226 54.4173 55.6344C55.6916 56.0166 56.8827 56.6109 57.9047 57.4711C58.0047 57.5552 58.8119 58.3264 58.8874 58.3265C57.2111 56.3415 54.7859 55.2332 52.2413 54.9049C51.6461 54.0709 51.2017 53.1264 50.7247 52.2222C53.272 52.2404 55.6753 53.194 57.6507 54.7869C58.0645 55.1204 58.5962 55.7653 58.9382 56.0089L58.9506 55.9927C58.9424 55.9792 58.9353 55.9649 58.926 55.9522C58.7813 55.7572 58.5842 55.5705 58.4174 55.3926C56.9916 53.8709 54.9643 52.6956 52.9318 52.2188C52.15 52.0519 51.401 51.9832 50.6042 51.9759C50.4803 51.4521 50.2339 50.9355 50.0694 50.419C50.6644 50.3054 52.0775 50.064 52.6063 50.2239C54.3092 50.254 56.2968 51.3269 57.6483 52.3263C57.985 52.5753 58.2745 52.8871 58.6067 53.1319C58.6146 53.1378 58.6242 53.1407 58.6331 53.1451L58.5593 53.11L58.581 53.0576C58.0639 52.5079 57.4516 52.0429 56.8254 51.6241C54.5949 50.1321 52.6654 49.6769 50.0174 50.1981C49.8952 49.811 49.7657 49.4155 49.7131 49.0122C50.0744 48.766 50.4465 48.5535 50.8606 48.4084C52.0095 48.0058 53.3502 48.1755 54.4185 48.7451C54.8363 48.9678 55.2042 49.2685 55.6348 49.4706L55.6925 49.4974C55.5017 49.3082 55.3068 49.1292 55.1025 48.9545C54.3392 48.216 53.9275 47.4617 53.7953 46.4054L54.9212 46.4151C54.6868 47.3187 54.7399 47.9686 55.1321 48.8168L55.2537 48.9646C55.2155 48.7735 55.1163 48.5722 55.0612 48.3813C54.8559 47.6707 54.9083 47.1073 55.119 46.4044C55.5363 46.4386 55.9589 46.4365 56.3775 46.4459C56.3764 46.8076 56.4016 47.1605 56.4346 47.5202C56.6163 48.4285 56.9996 49.6164 57.8156 50.1668C57.8315 50.1775 57.8477 50.1876 57.8637 50.1979C57.1517 49.3241 56.9646 48.9125 56.7044 47.794C56.6363 47.3431 56.5962 46.9098 56.6205 46.4536C57.1386 46.4943 57.7183 46.6195 58.2312 46.5843C58.3669 46.6124 58.4232 46.6101 58.5263 46.7065C58.5523 46.8207 58.5724 46.9344 58.5909 47.05C58.8861 48.0503 59.3528 48.9261 60.1679 49.6033L60.2313 49.6083C60.125 49.388 59.8723 49.199 59.7181 49.0026C59.273 48.4354 59.0111 47.7979 58.7931 47.1164C58.7703 46.9554 58.6983 46.8286 58.7467 46.6697L58.8706 46.6423C59.109 46.7038 60.3265 46.8544 60.4161 46.9723C60.4305 46.9912 60.4402 47.0133 60.4521 47.0337C60.7108 47.6533 61.3043 48.479 61.8634 48.854C61.7897 48.6222 61.2761 48.1222 61.1011 47.8661C60.9022 47.5749 60.7464 47.2703 60.5963 46.9517C61.243 47.0919 61.9038 47.1665 62.5464 47.324C62.7763 47.7082 63.057 47.9583 63.4199 48.2129C63.2238 47.9044 62.9256 47.6447 62.7042 47.3462C63.5656 47.5417 64.4737 47.818 65.3505 47.9051C64.4802 47.5478 63.533 47.3348 62.6196 47.12C62.0191 46.9787 61.4156 46.8235 60.8061 46.7256C61.326 46.4646 61.832 46.2658 62.3981 46.1251V46.1333L62.2988 46.0926L62.2599 46.1334L62.1795 46.0969C61.641 46.2138 61.074 46.4254 60.5949 46.6981C60.1101 46.5885 59.6222 46.4953 59.1311 46.4184C58.6302 46.3358 58.1219 46.3118 57.6205 46.2296C57.7578 46.1483 57.8983 46.073 58.0386 45.9969C58.88 45.4836 59.9398 45.111 60.9293 45.0715C60.324 44.8701 58.8675 45.3381 58.2999 45.6176C58.1096 45.7112 57.9145 45.8165 57.7387 45.9353L57.3398 46.2122C56.6631 46.2185 55.9789 46.1646 55.3027 46.1336C55.5259 45.8422 55.7775 45.5688 56.0635 45.338C56.0761 45.3261 56.0885 45.314 56.1013 45.3022C56.9464 44.5254 57.9169 44.1889 59.0037 43.9208C57.6468 43.9393 56.3706 44.6862 55.4454 45.6269C55.296 45.7894 55.16 45.9604 55.0232 46.1335C54.6108 46.1295 54.1988 46.1398 53.7871 46.1644C53.8867 45.7259 54.0705 45.3522 54.3308 44.9883Z" fill="#4FDB40"/>
<path d="M51.663 48.5285C51.8273 48.5061 51.9602 48.4884 52.1188 48.5507L52.0981 48.598C51.7544 48.7564 51.3345 48.8134 50.9669 48.8943C50.7301 48.9501 50.4997 48.9846 50.2578 49.0101C50.7102 48.7295 51.1402 48.6113 51.663 48.5285Z" fill="#2D2D2D"/>
<path d="M40.946 29.6035C42.5554 33.422 42.8031 37.3794 41.2246 41.2533C40.0553 44.123 38.2321 45.9649 35.3646 47.1673C33.4605 47.9656 31.4814 48.2757 29.4424 48.5016C28.0936 48.6511 26.7151 48.7665 25.4113 49.1652C23.5984 47.7379 21.7044 46.2066 20.2544 44.4031C20.2597 43.3205 20.3631 42.2704 20.5585 41.2054C20.5951 41.0064 20.6175 40.7682 20.6904 40.5805C20.9113 40.3284 21.1647 39.5717 21.365 39.2288C22.0616 38.0363 22.9587 36.8664 23.9164 35.8712C27.2125 32.4459 31.6631 30.5678 36.3248 29.9135C37.8434 29.7004 39.4127 29.6327 40.946 29.6035Z" fill="#F2C94C"/>
<path d="M28.1961 38.6602C28.2608 38.6626 28.3359 38.6613 28.3983 38.6784C28.4954 38.7052 28.5288 38.7645 28.5725 38.847C28.5743 38.9778 28.5403 39.0418 28.4774 39.1506C28.4149 39.1481 28.3426 39.1491 28.2824 39.1324C28.1847 39.1055 28.1493 39.0452 28.1019 38.9635C28.0952 38.8287 28.1286 38.7699 28.1961 38.6602Z" fill="#565554"/>
<path d="M38.7486 32.0215C38.8594 32.0355 38.9666 32.0707 39.0489 32.1483C39.1269 32.2217 39.1676 32.3109 39.1568 32.4202C39.1394 32.5936 39.0266 32.6766 38.8987 32.7738C38.7967 32.7535 38.6802 32.7256 38.6019 32.6522C38.524 32.5792 38.4838 32.5109 38.4923 32.4009C38.5058 32.2258 38.626 32.1284 38.7486 32.0215Z" fill="#2D2D2D"/>
<path d="M29.2489 33.6221C29.4076 33.6236 29.5444 33.6281 29.6651 33.7483C29.7388 33.8218 29.7711 33.9161 29.7623 34.0193C29.7465 34.2029 29.639 34.2965 29.5105 34.4111C29.3615 34.4196 29.2228 34.4236 29.1068 34.3107C29.0435 34.2492 29.0146 34.1708 29.0137 34.0836C29.0119 33.8854 29.1146 33.7549 29.2489 33.6221Z" fill="#2D2D2D"/>
<path d="M34.6404 38.6299C34.8062 38.6323 34.9444 38.6318 35.0729 38.7538C35.1528 38.8298 35.1754 38.9068 35.1708 39.0147C35.1634 39.1887 35.0284 39.3088 34.9078 39.4153C34.7454 39.4144 34.5849 39.3896 34.4697 39.2628C34.4018 39.188 34.3725 39.0881 34.3836 38.9883C34.403 38.8149 34.5135 38.7306 34.6404 38.6299Z" fill="#2D2D2D"/>
<path d="M26.5284 43.707C26.6606 43.708 26.8241 43.7253 26.9208 43.8266C26.9887 43.8977 27.0298 43.9774 27.0245 44.0779C27.0137 44.2833 26.8855 44.3996 26.7328 44.5167C26.682 44.5149 26.6314 44.5139 26.5811 44.5059C26.4422 44.4837 26.3162 44.4105 26.2437 44.2872C26.1931 44.2009 26.1829 44.1084 26.2115 44.0127C26.2615 43.845 26.3845 43.782 26.5284 43.707Z" fill="#2D2D2D"/>
<path d="M21.7205 41.8703C21.8832 41.8683 22.0354 41.8805 22.1491 42.0134C22.2449 42.1253 22.2711 42.2391 22.2479 42.381C22.2209 42.546 22.1053 42.6383 21.9757 42.7271C21.9276 42.7294 21.8843 42.733 21.8357 42.7276C21.6997 42.7126 21.5698 42.644 21.4927 42.5294C21.4299 42.4362 21.4138 42.3286 21.4352 42.2194C21.4709 42.0371 21.5741 41.9655 21.7205 41.8703Z" fill="#2D2D2D"/>
</g>
<defs>
<linearGradient id="paint0_linear_1114_54862" x1="17.7832" y1="37.7495" x2="19.2602" y2="38.27" gradientUnits="userSpaceOnUse">
<stop stop-color="#494649"/>
<stop offset="1" stop-color="#565851"/>
</linearGradient>
<clipPath id="clip0_1114_54862">
<rect width="80" height="80" fill="white"/>
</clipPath>
</defs>
</svg>
