<svg width="80" height="80" viewBox="0 0 80 80" fill="none" xmlns="http://www.w3.org/2000/svg">
<g clip-path="url(#clip0_1114_54865)">
<path d="M24.5332 37.3311C24.723 37.4793 24.8748 37.9547 24.9448 38.187C24.8573 38.1975 24.8045 38.1972 24.7202 38.1708C24.5193 37.9614 24.551 37.6032 24.5332 37.3311Z" fill="white"/>
<path d="M53.6234 37.7324C53.6288 37.9792 53.5706 38.4658 53.6955 38.6686C53.6959 38.7089 53.6971 38.7491 53.6972 38.7895C53.7006 40.015 54.1686 40.4946 53.4009 41.667C53.4583 41.0909 53.5208 40.512 53.5475 39.9337C53.5814 39.2005 53.5767 38.4648 53.6234 37.7324Z" fill="#FCF193"/>
<path d="M54.1211 38.3486C54.1329 38.3605 54.1467 38.3708 54.1565 38.3843C54.2489 38.5107 54.2906 38.7968 54.332 38.953C54.5226 39.6733 54.8108 40.5479 54.577 41.2879C54.4219 41.7789 54.0697 42.1012 53.626 42.3343C53.5489 42.3683 53.5229 42.3836 53.4366 42.3777C53.4297 42.0911 53.8284 41.7025 53.9656 41.4433C54.0486 41.2864 54.1038 41.1082 54.1416 40.9353C54.3382 40.0368 53.8213 39.254 54.1211 38.3486Z" fill="white"/>
<path d="M26.2305 66.3555C27.6562 67.2748 28.9804 68.2928 30.1162 69.5575C28.9433 69.3709 27.7527 68.9749 26.6075 68.6538C25.5573 68.3591 24.5147 68.1187 23.4473 67.8984C24.3649 67.3634 25.3048 66.8753 26.2305 66.3555Z" fill="#F2C94C"/>
<path d="M53.6234 37.7323C53.6243 37.0922 54.0208 36.2715 54.48 35.8309C54.6757 35.643 54.9267 35.4945 55.2063 35.5044C55.4116 35.5117 55.5823 35.6137 55.7127 35.7691C56.1314 36.2684 56.0811 37.0595 56.0091 37.6647C55.9966 37.7691 55.9831 37.8734 55.9687 37.9776C55.8049 39.3937 55.0833 42.8277 54.4293 43.996C54.0669 44.6436 53.5868 45.1132 52.8613 45.3172C52.9818 44.4697 53.1164 43.6244 53.265 42.7814C53.8404 42.6455 54.3488 42.3637 54.6695 41.8473C55.4402 40.6062 54.6377 39.1055 54.3457 37.8473C54.3508 37.835 54.3555 37.8227 54.3608 37.8105L54.3874 37.75C54.4893 37.5137 54.7034 37.1164 54.9244 36.9786C55.01 36.9252 55.0541 36.9279 55.1496 36.9472C55.6366 37.3206 55.5274 38.1732 55.6741 38.7102C55.6775 38.7225 55.6813 38.7348 55.6848 38.7471C55.7695 38.4954 55.8359 38.2634 55.8861 38.0023C55.9057 37.6107 55.8711 37.1139 55.5964 36.8073C55.491 36.6898 55.3477 36.6261 55.1906 36.6198C54.9098 36.6086 54.6497 36.76 54.4562 36.9523C54.0118 37.3939 53.7912 38.0638 53.6955 38.6684C53.5706 38.4656 53.6288 37.9791 53.6234 37.7323Z" fill="white"/>
<path d="M26.0233 43.2939C26.1119 43.7437 26.2066 44.1938 26.2837 44.6456C26.3171 44.8416 26.402 45.165 26.2826 45.3335C26.1951 45.3585 26.1293 45.3597 26.0401 45.3391C25.3725 45.1845 24.832 44.7718 24.4877 44.1887C24.126 43.5762 23.8691 42.8938 23.5953 42.2387C22.883 40.5344 21.7971 38.0034 22.3097 36.1525C22.3884 35.8681 22.5168 35.5838 22.7922 35.4424C23.0917 35.2885 23.3798 35.361 23.6838 35.4475C23.8574 35.841 24.0904 36.2699 24.1645 36.6953C24.2465 37.1656 24.1389 37.7266 24.3521 38.1634C24.4701 38.4054 24.6322 38.4543 24.8706 38.5318L24.8437 38.5901C24.5664 38.6956 24.4339 38.7901 24.3099 39.0692C24.0497 39.6554 24.0596 40.5174 24.3007 41.1085C24.3456 41.2185 24.4091 41.3253 24.4459 41.4377C24.6941 41.6185 24.8011 42.0699 25.1107 42.1513L25.2348 42.0776C25.2444 42.0478 25.2669 42.0194 25.2633 41.9884C25.2585 41.9451 24.7206 41.2579 24.6362 41.078C24.3954 40.564 24.3746 39.7618 24.5916 39.2287C24.6262 39.1438 24.6619 39.0602 24.7488 39.0274C25.0419 39.3295 24.7831 40.3041 25.0999 40.6634C25.1919 40.6501 25.1798 40.6385 25.2369 40.5717C25.3487 40.1398 25.1552 39.1114 25.0626 38.6592L25.1473 38.5893C25.1587 38.4763 25.1645 38.3638 25.1697 38.2505C25.2284 38.3586 25.2845 38.4583 25.3595 38.5559C25.6092 38.8806 25.6308 40.4758 25.6848 40.9701C25.7514 41.5976 25.846 42.2209 25.9685 42.8399C25.5473 42.1399 25.6969 41.7547 25.5177 41.0463C25.4595 40.9352 25.4529 40.9384 25.3369 40.8872L25.2605 40.9099C25.1017 41.2074 25.3254 42.0077 25.3833 42.3595C25.6184 42.7249 25.5845 43.0688 26.0233 43.2939Z" fill="white"/>
<path d="M23.3858 39.9355C23.4243 39.9414 23.4609 39.9452 23.498 39.9589C23.5515 39.9786 23.5701 40.0166 23.5911 40.0657C23.8112 40.5809 24.0169 41.0909 24.2819 41.5866C24.4415 41.8852 24.6808 42.193 24.8065 42.5019C24.8532 42.6167 24.8327 42.6359 24.7917 42.7492C24.7452 42.7456 24.6857 42.7442 24.6424 42.726C24.3161 42.5891 23.7471 41.3125 23.6084 40.9818C23.4888 40.6966 23.2637 40.2345 23.3858 39.9355Z" fill="#2D2D2D"/>
<path d="M23.0788 36.0581C23.1687 36.0473 23.2622 36.0349 23.3526 36.0445C23.5516 36.0656 23.803 36.1682 23.9294 36.3289C23.9994 36.4181 24.0273 36.5226 24.0162 36.6338C23.9805 36.9891 23.8056 37.375 23.7094 37.7212C23.6056 38.0941 23.5477 38.477 23.4893 38.859C23.394 38.934 23.3188 38.9545 23.1996 38.9633C23.126 38.9367 23.0761 38.9124 23.0279 38.8502C22.7071 38.4365 22.6069 37.4855 22.6566 36.9721C22.6923 36.6034 22.788 36.2988 23.0788 36.0581Z" fill="#2D2D2D"/>
<path d="M23.286 36.3555C23.4156 36.3723 23.5366 36.4078 23.6155 36.5186C23.6558 36.5751 23.652 36.6182 23.6433 36.6865C23.6158 36.9025 23.517 37.1427 23.4604 37.3556C23.3693 37.6984 23.3078 38.0402 23.2516 38.3898L23.226 38.4521L23.1834 38.4208C23.054 37.9963 22.937 37.5086 22.9652 37.061C22.984 36.7607 23.0651 36.5568 23.286 36.3555Z" fill="white"/>
<path d="M56.2915 24.4092C56.3659 24.4582 56.3788 24.5 56.4152 24.5811C56.6325 25.0672 56.7071 25.7639 56.7609 26.2899C57.1149 29.7543 55.6591 32.2493 54.4791 35.344C54.0784 35.6564 53.829 36.0311 53.5825 36.4696C53.5719 34.6145 53.6182 32.6109 52.9145 30.862C52.3766 29.5247 50.8223 27.5578 49.9023 26.3551C50.4343 26.284 50.9641 26.1877 51.495 26.1081L51.8802 26.7221C52.1714 27.201 52.4738 27.6773 52.7359 28.1728C52.9229 28.5264 53.0817 28.9348 53.2901 29.271C53.3327 29.3396 53.3503 29.3358 53.4205 29.3685L53.4993 29.3316L53.5187 29.2513C53.1656 28.1355 52.3961 27.0668 51.7755 26.0791L52.8478 25.7844C53.0569 26.0652 53.2513 26.3558 53.431 26.6563C53.6107 26.9568 53.7748 27.2655 53.9232 27.5826C54.0183 27.789 54.2858 28.5988 54.4056 28.7168C54.4498 28.7602 54.4839 28.7389 54.5396 28.7333L54.5773 28.6592C54.551 27.9851 53.5502 26.3065 53.1581 25.6993C53.8645 25.4907 54.5408 25.2336 55.2219 24.9554C55.5841 25.7257 55.7578 26.7886 55.7512 27.6343C55.749 27.9201 55.6494 28.2625 55.7381 28.5365L55.8381 28.5721C55.8827 28.5206 55.8852 28.5261 55.9096 28.4768C56.0108 28.2732 55.9873 28.0161 55.9898 27.7946C56.0016 26.7521 55.7938 25.8043 55.4749 24.8186C55.7534 24.6918 56.0228 24.5557 56.2915 24.4092Z" fill="white"/>
<path d="M54.5232 31.4619C54.5372 31.4689 54.5522 31.4742 54.5651 31.4832C54.6208 31.5222 54.636 31.5468 54.6514 31.6128C54.7937 32.2238 54.3924 34.7782 54.0747 35.2935L53.9688 35.2646L53.937 35.2011C54.1045 34.3911 54.2669 33.5774 54.3417 32.7525C54.3726 32.4118 54.329 31.7367 54.5232 31.4619Z" fill="#2D2D2D"/>
<path d="M30.9984 16.4619C31.5473 16.4699 31.9611 16.6314 32.4588 16.8539C32.643 17.267 32.8183 17.6837 32.9846 18.1043C32.7099 18.0075 32.4371 17.9225 32.1489 17.8771C30.9435 17.6868 29.8158 18.0767 28.8449 18.7831C27.0306 20.103 25.7698 22.6316 25.4532 24.8236C25.4334 24.9611 25.4379 25.0573 25.5248 25.1736L25.5856 25.177C25.7341 24.981 25.946 23.7757 26.0434 23.455C26.1682 23.0444 26.3139 22.6313 26.4939 22.2414C27.2386 20.6282 28.5489 18.9125 30.2718 18.2916C31.2616 17.935 32.1668 18.0146 33.1107 18.4529L33.6526 19.6254C33.5569 19.5839 33.4607 19.5435 33.3641 19.5041C32.3447 19.0897 31.1203 18.8467 30.0715 19.3241C29.9632 19.3734 29.8543 19.4293 29.8089 19.545C29.9422 19.7581 30.4539 19.4533 30.6411 19.3963C30.7909 19.3507 30.9561 19.3321 31.1121 19.3189C32.0686 19.238 32.8688 19.5574 33.7436 19.8911C33.8868 20.2002 34.015 20.5174 34.1485 20.8308C33.3672 20.8181 32.6059 20.6031 31.8147 20.6136C30.4274 20.6321 29.0407 21.1647 28.0731 22.1739C27.2407 23.0421 26.7737 24.2026 26.576 25.3742C26.5389 25.5936 26.4809 25.8339 26.4926 26.0569C26.4989 26.1767 26.5264 26.2378 26.6121 26.3193L26.6625 26.295C26.7799 26.0511 26.7794 25.7014 26.807 25.4329C27.0553 24.0641 27.6465 22.7475 28.7785 21.8892C30.15 20.8493 31.7052 20.7369 33.3559 20.9661C31.8347 21.3195 30.2048 21.7633 29.0683 22.8974C28.0786 23.885 27.5075 25.3436 27.2796 26.7028C27.1332 27.5761 27.0609 28.4266 26.7557 29.2678C26.347 30.394 25.551 31.459 25.3161 32.6305C25.1063 33.6768 25.2336 34.7282 25.2311 35.7825C24.5854 33.6211 24.0644 31.3997 23.8891 29.1459C23.6016 25.4494 24.3122 21.7438 26.7829 18.8641C27.8524 17.6175 29.3224 16.5905 30.9984 16.4619Z" fill="white"/>
<path d="M31.8702 12.5926L31.9573 12.585C32.0092 12.6644 31.9016 12.7986 31.8637 12.8881C31.6053 13.4975 31.6721 14.0766 31.8011 14.7078C31.6703 14.6734 31.5388 14.6382 31.4059 14.6129C30.963 14.5282 29.5684 14.6375 29.2311 14.9126C29.184 14.951 29.193 14.9908 29.1847 15.0468C29.3043 15.1555 29.6175 15.0407 29.7664 15.0032C30.4947 14.8196 31.1174 14.7589 31.8425 14.9971C32.0018 15.512 32.1712 16.0236 32.3509 16.5318C31.8544 16.3349 31.3664 16.2068 30.8277 16.2378C29.1862 16.332 27.6223 17.5061 26.5737 18.693C23.0078 22.7293 23.1825 28.4437 24.301 33.3707C24.6793 35.0373 25.3412 36.6636 25.4467 38.3795C24.8236 37.1578 24.1937 35.8735 23.7227 34.5862C22.3113 30.7286 21.5262 25.4957 22.7309 21.4978C22.7786 21.3385 22.8302 21.1804 22.8855 21.0236C22.9409 20.8667 23 20.7113 23.0629 20.5573C23.1257 20.4033 23.1923 20.251 23.2626 20.1003C23.3328 19.9495 23.4067 19.8006 23.4841 19.6534C23.5616 19.5062 23.6426 19.361 23.7271 19.2178C23.8116 19.0745 23.8995 18.9334 23.9908 18.7944C24.0821 18.6554 24.1768 18.5187 24.2747 18.3843C24.3727 18.2499 24.4738 18.1179 24.5781 17.9884C24.9352 17.5459 25.3321 17.1382 25.6913 16.6968L25.7534 16.7127L25.685 16.6957L25.7504 16.6176C25.6688 16.575 25.6473 16.5711 25.5525 16.602C24.9905 16.7851 23.448 19.1212 23.1719 19.6711C21.1412 23.7161 21.8399 29.7629 23.2105 33.9107C22.2274 32.2077 21.3759 30.6022 21.0616 28.6334C20.663 26.1378 20.7282 23.0017 21.6227 20.6169C21.9523 19.7383 22.4409 18.8969 22.9944 18.1396C24.9502 15.4639 28.5906 13.1184 31.8702 12.5926Z" fill="white"/>
<path d="M27.5455 27.8106C27.5455 27.7821 27.5449 27.7536 27.5466 27.7253C27.5695 27.3523 27.6538 26.9567 27.7288 26.5903C28.0059 25.2363 28.4848 23.9006 29.5749 22.9862C30.5909 22.1341 33.563 21.0148 34.8829 21.3795C35.6627 21.5949 36.6092 22.3794 37.2957 22.8506C40.2981 24.9113 42.7487 26.1611 46.4398 26.4709C45.6944 27.8616 43.2462 29.0156 41.7496 29.4639C38.0504 30.5721 32.2334 30.5626 28.7851 28.6892C28.3446 28.4499 27.913 28.1524 27.5455 27.8106Z" fill="#4FDB40"/>
<path d="M36.2568 26.5244C36.3704 26.5254 36.4826 26.5435 36.5879 26.5882C36.7489 26.6566 36.8752 26.8032 36.9267 26.9694C36.9325 26.9881 36.9373 27.0071 36.9411 27.0263C36.945 27.0455 36.948 27.0648 36.95 27.0843C36.9519 27.1037 36.9529 27.1233 36.9529 27.1429C36.953 27.1624 36.9521 27.182 36.9502 27.2014C36.9483 27.2209 36.9454 27.2402 36.9416 27.2594C36.9377 27.2786 36.933 27.2976 36.9273 27.3164C36.9216 27.3351 36.915 27.3535 36.9075 27.3715C36.8999 27.3896 36.8915 27.4073 36.8822 27.4245C36.78 27.6173 36.6436 27.677 36.4427 27.7394C36.3529 27.7388 36.2677 27.738 36.1802 27.7151C36.0191 27.6729 35.8786 27.5697 35.803 27.4193C35.7331 27.28 35.7301 27.1204 35.7803 26.9743C35.865 26.7275 36.0303 26.6275 36.2568 26.5244Z" fill="white"/>
<path d="M30.5052 25.4659C30.6247 25.4616 30.743 25.4562 30.8579 25.4951C31.0415 25.5573 31.2026 25.7087 31.2753 25.8886C31.3332 26.0318 31.3311 26.1898 31.2626 26.3292C31.1753 26.5071 31.0379 26.5784 30.8601 26.6462C30.7583 26.651 30.6454 26.6517 30.5452 26.6321C30.3871 26.6012 30.2504 26.4944 30.1679 26.3583C30.086 26.2236 30.0655 26.0714 30.1079 25.9194C30.1707 25.6948 30.3112 25.5789 30.5052 25.4659Z" fill="white"/>
<path d="M38.6831 24.6475C38.7812 24.6539 38.8734 24.6642 38.9662 24.6986C39.1344 24.7608 39.2737 24.8792 39.3455 25.0456C39.4124 25.2007 39.4074 25.3721 39.3362 25.5247C39.2397 25.7318 39.0822 25.7975 38.8768 25.869C38.7972 25.8682 38.7212 25.8656 38.6435 25.8466C38.4745 25.8053 38.3244 25.6857 38.243 25.5321C38.1623 25.3793 38.1586 25.2036 38.2201 25.0432C38.3061 24.8186 38.473 24.7362 38.6831 24.6475Z" fill="white"/>
<path d="M41.762 26.6077C41.8686 26.5982 41.9803 26.5869 42.0864 26.6064C42.2542 26.6374 42.4088 26.7596 42.4971 26.9028C42.5781 27.034 42.6033 27.1896 42.5635 27.3389C42.5034 27.5651 42.371 27.6559 42.1735 27.7615C42.0434 27.7778 41.9053 27.7946 41.776 27.7632C41.6255 27.7268 41.4887 27.621 41.4129 27.4864C41.3379 27.353 41.3274 27.199 41.3685 27.053C41.4326 26.8254 41.5663 26.7246 41.762 26.6077Z" fill="white"/>
<path d="M33.3215 27.0707C33.4285 27.0648 33.5422 27.0537 33.6446 27.091C33.8064 27.1499 33.9463 27.2837 34.0186 27.439C34.0922 27.5973 34.1008 27.7894 34.0346 27.9517C33.9497 28.1599 33.8203 28.2473 33.6188 28.3294C33.5519 28.3283 33.4837 28.3276 33.4173 28.3182C33.2321 28.2919 33.0552 28.175 32.952 28.0203C32.9406 28.0032 32.93 27.9855 32.9205 27.9673C32.9109 27.949 32.9023 27.9302 32.8947 27.9111C32.8872 27.8919 32.8807 27.8724 32.8752 27.8525C32.8697 27.8326 32.8653 27.8125 32.862 27.7922C32.8587 27.7718 32.8565 27.7513 32.8554 27.7308C32.8542 27.7102 32.8542 27.6896 32.8553 27.669C32.8563 27.6484 32.8585 27.628 32.8618 27.6076C32.8651 27.5873 32.8694 27.5671 32.8748 27.5472C32.9412 27.3014 33.1092 27.1863 33.3215 27.0707Z" fill="white"/>
<path d="M33.3283 23.126C33.4373 23.1293 33.546 23.1347 33.6497 23.1716C33.6685 23.1784 33.6868 23.1862 33.7048 23.1948C33.7228 23.2035 33.7403 23.213 33.7573 23.2233C33.7743 23.2336 33.7908 23.2448 33.8067 23.2568C33.8227 23.2687 33.838 23.2815 33.8527 23.295C33.8674 23.3085 33.8814 23.3226 33.8947 23.3375C33.908 23.3524 33.9205 23.3679 33.9323 23.3839C33.9441 23.4 33.955 23.4167 33.9652 23.4338C33.9753 23.451 33.9846 23.4686 33.993 23.4867C34.0651 23.6442 34.0589 23.8248 33.9935 23.9836C33.9018 24.2065 33.7522 24.2998 33.5395 24.3926C33.4461 24.3875 33.3577 24.3827 33.2682 24.3529C33.0952 24.2953 32.9428 24.1668 32.8656 24.0006C32.7936 23.8459 32.7906 23.6754 32.8589 23.5188C32.9521 23.3056 33.1214 23.2089 33.3283 23.126Z" fill="white"/>
<path d="M58.0176 34.1264C60.7294 32.5762 63.1505 31.1723 66.373 31.0548C67.1977 31.0247 68.0331 31.0646 68.834 31.2783C70.2883 31.6664 71.47 32.498 72.2208 33.8124C73.2946 35.6923 73.0759 38.0601 72.5187 40.068C71.6955 43.0337 69.9855 45.8864 67.5606 47.8012C67.4041 46.8529 67.1448 45.8735 66.8695 44.9518C66.3334 43.1569 65.5873 41.3037 64.5424 39.7404C62.9498 37.3579 60.515 35.4769 58.0176 34.1264Z" fill="#4FDB40"/>
<path d="M55.8099 33.0244C56.5668 33.3093 57.2972 33.7551 58.0175 34.1257C60.5149 35.4761 62.9496 37.3571 64.5423 39.7396C65.5872 41.3029 66.3332 43.1562 66.8693 44.9511C67.1446 45.8728 67.404 46.8521 67.5605 47.8004L67.5614 47.841C67.2064 47.9567 66.7679 48.2614 66.4099 48.4267C65.1613 49.0029 63.8674 49.2682 62.4909 49.2154C60.0732 49.1228 57.9487 48.0258 56.2085 46.3874C55.6077 45.8218 55.0643 45.2024 54.5049 44.5968C54.7614 44.2064 54.9622 43.7938 55.1225 43.3551C55.3815 42.6462 55.5386 41.8986 55.7169 41.1663C56.0467 39.8115 56.4402 38.3835 56.4486 36.9794C56.4516 36.4685 56.36 35.7987 55.9737 35.4287C55.6893 35.1564 55.3247 35.1443 54.9556 35.1479C55.2828 34.4622 55.5378 33.7336 55.8099 33.0244Z" fill="#F2C94C"/>
<path d="M22.981 67.8579C20.7256 67.5556 18.5257 68.0656 16.3493 68.6031C15.39 68.84 14.4325 69.0986 13.445 69.187C11.9125 69.3242 10.4453 69.015 9.25097 68.0052C8.02027 66.9646 7.29241 65.3613 7.1622 63.767C7.02466 62.0829 7.75097 60.5437 8.82269 59.2834C10.5501 57.2521 13.296 55.9383 15.8921 55.4319C16.5579 55.302 17.2248 55.2488 17.8999 55.1953L17.9169 55.2237C20.2915 55.3016 22.3047 55.8963 23.9746 57.6718C25.5414 59.3377 26.3027 61.5479 26.3954 63.8089C26.424 64.5059 26.351 65.2021 26.3732 65.8964C26.2085 65.9837 26.0447 66.0734 25.8778 66.1561C24.8856 66.6891 23.9124 67.2233 22.981 67.8579Z" fill="#F2C94C"/>
<path d="M26.2305 66.356C28.318 65.0776 30.4125 64.1525 31.044 61.5501C31.537 59.5188 31.4871 56.2986 31.0241 54.2666C32.6838 56.0447 34.7771 58.1469 37.1233 58.9721C37.8067 59.2125 38.5713 59.3364 39.2942 59.3609C42.3595 59.4649 45.8465 56.7048 48.0173 54.7541C47.7755 57.6166 47.3813 61.3157 49.3652 63.6628C50.8577 65.4288 52.7409 66.0842 54.7237 67.0611C52.4252 67.9789 50.0945 68.87 47.6979 69.5014C47.1778 69.6331 46.6551 69.7531 46.1298 69.8617C45.6045 69.9702 45.077 70.0671 44.5473 70.1525C44.0177 70.2378 43.4865 70.3114 42.9536 70.3732C42.4207 70.4351 41.8868 70.4852 41.3517 70.5236C40.8166 70.5619 40.2809 70.5885 39.7447 70.6032C39.2085 70.6179 38.6722 70.6208 38.1358 70.6119C37.5994 70.603 37.0635 70.5822 36.528 70.5496C35.9926 70.5171 35.4581 70.4728 34.9246 70.4167C33.8076 70.2968 32.7172 70.1128 31.6163 69.8932C31.118 69.7938 30.6011 69.7096 30.1162 69.558C28.9804 68.2933 27.6562 67.2753 26.2305 66.356Z" fill="white"/>
<path d="M17.8999 55.1949C17.2418 53.4569 16.5416 51.7361 15.7992 50.0324C15.3478 48.9703 14.8671 47.9167 14.4777 46.8298C13.3485 43.6792 13.1209 40.4682 14.5085 37.3426C15.7391 34.5705 18.3479 31.8042 21.1408 30.6084C21.8044 32.3306 22.4799 33.4862 23.5113 34.9989C23.1042 34.9501 22.7843 34.9317 22.4404 35.2032C21.9906 35.5582 21.8563 36.2055 21.8106 36.7485C21.7467 37.5044 21.8588 38.2686 22.0313 39.0035C22.3281 40.269 23.6882 43.8921 24.4749 44.8128C24.8603 45.2639 25.435 45.6207 26.0338 45.6633C26.1661 45.672 26.2985 45.6725 26.4309 45.6646C26.7025 47.7641 27.0053 50.1618 28.4986 51.7718C29.1588 52.4837 29.9381 53.0848 30.5709 53.8223C31.0838 56.2775 31.4455 60.9282 30.0202 63.0989C29.2638 64.251 27.5617 65.2264 26.3732 65.896C26.351 65.2017 26.4241 64.5055 26.3955 63.8085C26.3027 61.5475 25.5414 59.3373 23.9746 57.6714C22.3048 55.8958 20.2916 55.3012 17.917 55.2232L17.8999 55.1949Z" fill="white"/>
<path d="M54.5052 44.5967C55.0646 45.2023 55.608 45.8217 56.2088 46.3873C57.949 48.0257 60.0735 49.1227 62.4912 49.2154C63.8677 49.2682 65.1616 49.0028 66.4102 48.4266C66.7682 48.2614 67.2066 47.9566 67.5617 47.8409C68.0169 50.8306 68.2038 53.158 67.0706 56.0476C64.9348 61.4937 60.2929 64.6031 55.127 66.8652C53.0798 65.867 50.8908 65.0542 49.4445 63.1811C49.3417 63.0483 49.2455 62.9111 49.1556 62.7694C49.0657 62.6277 48.9826 62.4821 48.9063 62.3326C48.8301 62.1831 48.7609 62.0304 48.6989 61.8745C48.6369 61.7186 48.5822 61.5601 48.535 61.399C47.9588 59.4365 48.1785 56.4464 48.4371 54.4152C50.1588 52.8072 51.4877 50.9969 52.1343 48.7018C52.4122 47.7154 52.5821 46.7045 52.7954 45.7031C53.5541 45.5443 54.0383 45.2075 54.5052 44.5967Z" fill="white"/>
<path d="M39.443 9.70597C43.2358 9.53417 47.2563 11.2853 50.1558 13.6364C50.5685 13.9692 50.9652 14.3202 51.3459 14.6892C52.5395 15.8655 53.9911 17.635 55.784 17.7611C56.4831 17.8103 57.0438 17.5942 57.5654 17.135C57.4816 17.2814 57.3893 17.4221 57.2884 17.5572C56.4783 18.6525 55.4222 19.0905 54.1154 19.2909C54.8023 19.953 55.8105 20.57 56.7219 20.8575C57.6387 21.1468 58.5214 21.0665 59.3713 20.6247C58.5222 22.7692 56.6654 23.845 54.6579 24.743C51.3185 26.069 46.9819 26.5793 43.495 25.5482C41.752 25.0327 40.1802 24.1946 38.6415 23.2407C37.9916 22.8297 37.3515 22.4041 36.7211 21.9639C36.0524 21.5023 35.3613 20.9469 34.5911 20.6734L34.5293 20.6517L34.5187 20.6189C34.5127 20.6007 34.5063 20.5828 34.5004 20.5646C34.3334 20.0515 34.0436 19.5783 33.8148 19.0904C33.1705 17.7158 32.0398 15.3789 31.96 13.854C31.9238 13.1643 32.2238 12.4857 32.6822 11.9816C34.1646 10.3519 37.2961 9.79675 39.443 9.70597Z" fill="white"/>
<path d="M35.2136 20.1279C35.653 20.2014 37.8233 21.7622 38.397 22.1002C39.1372 22.5361 39.9299 22.9455 40.7409 23.2296C41.3745 23.4517 42.0483 23.6451 42.713 23.7497C42.9823 23.7921 43.5952 23.719 43.803 23.8759L43.8251 24.0678C41.0504 24.0814 38.5159 22.6172 36.3173 21.0678C35.9868 20.8348 35.4981 20.6401 35.2304 20.3491C35.1794 20.2936 35.2084 20.2002 35.2136 20.1279Z" fill="#2D2D2D"/>
<path d="M39.6179 10.8367C41.0846 10.7786 42.5744 11.0603 43.9729 11.4888C44.6119 11.6846 47.7145 12.7578 47.9281 13.2507C47.9529 13.3077 47.9405 13.2975 47.9132 13.3618C47.7225 13.3797 46.2359 12.5853 45.9041 12.447C44.2764 11.7683 42.5356 11.2589 40.7716 11.1239C38.5425 10.9632 36.1691 11.4332 34.2792 12.659C34.0356 12.817 33.7948 12.9895 33.575 13.1794C33.3876 13.3414 33.2024 13.6258 32.9758 13.7239C32.9135 13.751 32.9292 13.7383 32.8577 13.7043L32.8501 13.6207C32.8968 13.5304 32.9461 13.4585 33.0151 13.3832C34.6373 11.6128 37.3064 10.9564 39.6179 10.8367Z" fill="#2D2D2D"/>
<path d="M36.2974 18.0992C36.3008 18.0988 36.304 18.0981 36.3074 18.0979C41.4007 17.732 43.9996 22.3067 48.2626 24.0228C49.1815 24.3927 50.1298 24.6313 51.1084 24.7762C51.4148 24.8216 53.0414 24.8591 53.1606 24.952C53.1454 25.0503 53.1422 25.0473 53.0665 25.113C52.1606 25.1926 51.2142 25.0632 50.3212 24.9114C47.7165 24.4988 45.5801 22.934 43.5601 21.3513C42.6965 20.6748 41.8485 19.9796 40.8747 19.4633C39.4472 18.7063 37.2503 17.9674 35.6344 18.4793C35.074 18.6568 34.9199 18.8784 34.659 19.3636C34.6049 19.4641 34.5669 19.5374 34.454 19.5705L34.387 19.5287C34.3848 19.5169 34.381 19.5052 34.3802 19.4932C34.3671 19.3101 34.5135 19.0266 34.6201 18.8801C35.0137 18.339 35.6747 18.1848 36.2974 18.0992Z" fill="#2D2D2D"/>
<path d="M39.7979 12.6736C45.1211 12.411 47.1301 16.0544 51.4604 17.7171C52.1391 17.9776 52.8064 18.2035 53.5391 18.2421C53.9812 18.2653 54.5117 18.263 54.9413 18.1465C55.1718 18.084 55.3851 17.9859 55.6225 17.9489C55.6872 18.0196 55.6839 18.0305 55.6954 18.127C55.6053 18.265 55.3611 18.2996 55.2018 18.334C54.6693 18.4489 54.1591 18.5231 53.6131 18.5017C51.7015 18.4268 49.8297 17.332 48.2635 16.3181C47.3055 15.7295 46.425 15.0126 45.4594 14.4324C42.7332 12.7942 39.3208 12.395 36.3783 13.7089C35.6725 14.0241 34.9991 14.413 34.4188 14.9271C34.1066 15.2037 33.423 16.3012 33.2147 16.3528L33.1714 16.3073C33.2609 15.8495 33.6613 15.3628 33.969 15.0268C35.411 13.4525 37.7316 12.7723 39.7979 12.6736Z" fill="#2D2D2D"/>
<path d="M39.2427 15.5639C42.4514 15.3653 45.7587 16.8403 48.3268 18.6617C49.9267 19.7964 51.5298 21.1261 53.3474 21.9014C54.071 22.21 54.8552 22.4563 55.6422 22.5233C55.9961 22.5535 57.3862 22.425 57.4589 22.4621L57.4509 22.5024C57.3397 22.6286 57.1391 22.723 56.9775 22.7666C56.7639 22.8243 56.4757 22.809 56.2523 22.8142C54.5457 22.8534 52.969 22.114 51.5435 21.2423C50.2897 20.4588 49.1326 19.5393 47.9039 18.7203C44.7807 16.6387 41.1529 15.1925 37.3489 16.0582C36.5996 16.2288 35.875 16.4678 35.211 16.8609C34.8911 17.0502 34.569 17.2818 34.2959 17.5347C34.1781 17.6439 34.0694 17.7832 33.94 17.8771C33.8743 17.9247 33.8125 17.9364 33.7336 17.9405L33.6904 17.8874C33.7092 17.7492 33.7871 17.6556 33.8771 17.5541C35.1508 16.1193 37.4139 15.6428 39.2427 15.5639Z" fill="#2D2D2D"/>
<path d="M46.4395 26.4709C47.4327 26.5155 48.4003 26.4802 49.3908 26.4023C50.0685 27.0946 50.6816 27.9621 51.2093 28.7729C51.2832 28.8686 51.3711 28.9668 51.4306 29.0713C51.8459 29.6818 52.281 30.3105 52.5594 30.9977C53.1368 32.4225 53.1898 34.0599 53.21 35.5797C53.2155 35.9952 53.2432 36.4327 53.1753 36.844C53.3022 37.088 53.2517 37.5245 53.2568 37.8029C53.2676 38.2906 53.266 38.7783 53.2518 39.2659C53.2375 39.7534 53.2107 40.2403 53.1714 40.7266C53.132 41.2128 53.0802 41.6977 53.0159 42.1813C52.9515 42.6648 52.8748 43.1464 52.7857 43.6259C52.7241 43.976 52.6891 44.3973 52.5665 44.7275C52.563 44.737 52.5575 44.7455 52.5529 44.7546C52.5146 45.2042 52.4171 45.6532 52.337 46.097C52.0588 47.6388 51.6917 49.5854 50.8417 50.9208L50.537 51.376C49.2764 53.3444 47.1967 55.1108 45.3289 56.4798C45.3127 56.4966 45.2974 56.5143 45.2803 56.5302C44.9413 56.8475 44.4829 57.1159 44.0864 57.3623C42.6178 58.2748 41.024 59.0724 39.2471 59.0223C35.8159 58.9256 32.9799 55.7479 30.7643 53.4477C30.1295 52.7886 29.434 52.1848 28.8126 51.5143C28.2595 50.9173 27.8793 50.2654 27.6088 49.4988C27.1232 48.1225 26.9739 46.6453 26.7409 45.2117C26.4735 43.5663 26.2075 41.9348 26.0569 40.2732C26.0018 39.6651 25.9318 39.038 25.9524 38.427C25.8402 37.9925 25.9139 37.4397 25.8599 36.9845C25.7636 36.1743 25.6193 35.3599 25.6226 34.5414C25.6296 32.8146 26.3918 31.0218 27.1194 29.4829C27.0419 30.1561 26.8876 30.7988 26.7657 31.4627C26.7326 31.6428 26.7081 31.9449 26.8176 32.1L26.8795 32.0655C27.2507 31.3755 27.4229 28.7236 27.5452 27.8106C27.9127 28.1524 28.3443 28.45 28.7849 28.6893C32.2332 30.5627 38.0501 30.5722 41.7493 29.464C43.2459 29.0157 45.6942 27.8616 46.4395 26.4709Z" fill="white"/>
<path d="M39.079 45.8027C39.1265 45.8073 39.2661 45.8187 39.296 45.8612C39.4703 46.1077 39.213 46.7428 39.5984 47.1182C39.6906 47.208 39.7997 47.2478 39.929 47.2377C40.6199 47.1834 40.2734 46.1595 40.5957 45.8062L40.6529 45.8071C40.7445 45.896 40.7471 46.1298 40.7654 46.2554C40.7738 46.5068 40.7518 46.7938 40.655 47.0266C40.5728 47.2243 40.429 47.3877 40.2267 47.4667C40.0288 47.544 39.8061 47.5305 39.6133 47.4448C39.3626 47.3332 39.1772 47.1134 39.0793 46.8602C38.9686 46.5737 38.9466 46.0868 39.079 45.8027Z" fill="#2D2D2D"/>
<path d="M42.9175 37.3867C43.5562 37.7318 44.0665 38.1373 44.763 38.3884C45.6353 38.7201 46.5167 38.7848 47.4422 38.7474C47.7415 38.7354 48.1135 38.6772 48.4071 38.7287C47.4051 39.1111 46.1665 39.0778 45.1413 38.8018C44.3508 38.589 43.3414 38.1246 42.9175 37.3867Z" fill="#2D2D2D"/>
<path d="M35.3644 38.0411C35.8168 37.8594 36.2128 37.5585 36.6634 37.3896C35.9782 38.242 34.6493 38.6979 33.5969 38.831C33.5648 38.835 33.5325 38.8373 33.5002 38.8388L33.4647 38.8643C32.5701 38.9524 31.6053 39.0323 30.7871 38.5981C32.356 38.7761 33.9048 38.7133 35.3644 38.0411Z" fill="url(#paint0_linear_1114_54865)"/>
<path d="M36.1543 44.0333C36.1977 43.558 36.2645 43.1372 36.6544 42.8141C36.7788 42.711 36.8813 42.6798 37.0396 42.6582L37.0976 42.6874C37.0837 42.897 36.8141 43.0889 36.7048 43.2623C36.3654 43.8005 36.4232 44.5777 36.8313 45.0626C36.8736 45.1126 36.9186 45.16 36.9664 45.2047C37.0142 45.2494 37.0645 45.2911 37.1172 45.3299C37.1699 45.3687 37.2247 45.4043 37.2816 45.4366C37.3385 45.469 37.3971 45.4979 37.4574 45.5234C37.6497 45.6041 38.1533 45.6318 38.2115 45.8352C38.1683 45.9016 38.143 45.9356 38.0723 45.973C37.9437 45.973 37.8148 45.9642 37.6863 45.9577C37.1298 45.8035 36.7424 45.5563 36.3878 45.0987C36.1991 44.7455 36.1692 44.4235 36.1543 44.0333Z" fill="#2D2D2D"/>
<path d="M41.9717 45.9834C41.8652 45.9561 41.7973 45.9437 41.7305 45.8518C41.8536 45.669 42.2582 45.6229 42.4636 45.5523C42.8431 45.4216 43.2357 45.1184 43.3984 44.7448C43.6363 44.1987 43.463 43.4985 43.099 43.0501C43.0116 42.9425 42.858 42.8345 42.8098 42.7086L42.8728 42.6575C42.9989 42.649 43.1146 42.6546 43.2323 42.7072C43.4766 42.8164 43.6508 43.1542 43.7373 43.3913C43.9158 43.8802 43.9162 44.4797 43.692 44.9529C43.4437 45.4768 43.0011 45.7401 42.4748 45.9186C42.3074 45.9428 42.1397 45.9643 41.9717 45.9834Z" fill="#2D2D2D"/>
<path d="M37.85 35.0352L38.0947 35.4016C38.704 36.4763 38.7641 37.6405 38.699 38.8517C38.6822 39.0359 38.6662 39.2198 38.6418 39.4031C38.6271 39.6133 38.6086 39.8231 38.5865 40.0327C38.5225 40.3472 38.4235 40.7061 38.4408 41.0294C38.3848 41.2567 38.3365 41.6205 38.3824 41.8491C38.3721 41.8764 38.3577 41.9179 38.3425 41.9417C38.3023 42.0045 38.2817 42.0175 38.2113 42.0341C37.9948 41.6744 38.1639 40.9624 38.2203 40.5588C38.3952 39.4139 38.6295 37.6207 38.2922 36.5278C38.1487 36.0626 37.8904 35.6273 37.6621 35.1999C37.6923 35.0934 37.7573 35.0871 37.85 35.0352Z" fill="#2D2D2D"/>
<path d="M41.3312 39.4141C41.2238 38.2952 41.0097 37.458 41.2785 36.3225C41.3746 35.9167 41.5401 35.487 41.8099 35.1619C41.8925 35.0623 41.9564 35.0137 42.0843 34.9961L42.1453 35.0393C42.1294 35.3015 41.8492 35.5677 41.7414 35.8091C41.5439 36.2513 41.457 36.7609 41.4401 37.2421C41.4272 37.6403 41.4468 38.0369 41.4987 38.4318C41.571 39.0134 42.0496 41.3131 41.9241 41.7116L41.7696 41.7074C41.5945 41.4775 41.6611 41.1723 41.5768 40.9054C41.5434 40.4082 41.4299 39.902 41.3312 39.4141Z" fill="#2D2D2D"/>
<path d="M39.0749 45.4125C39.0597 45.4089 39.0447 45.4052 39.0296 45.4018C38.5538 45.2955 37.7545 45.3831 37.3988 45.0313C37.3676 44.9278 37.3563 44.9032 37.4101 44.8009C37.499 44.632 37.7334 44.5536 37.9077 44.5284C38.1822 44.4886 38.6105 44.5365 38.8622 44.6568C39.0192 44.9278 39.4094 45.3852 39.7171 45.4793C39.7361 45.4851 39.7556 45.4893 39.7749 45.4943C40.4829 45.5536 40.7457 45.0889 41.2407 44.6895C41.4538 44.5799 41.6932 44.5577 41.9272 44.5248C42.1774 44.5385 42.436 44.5443 42.6231 44.7375C42.6764 44.7925 42.7002 44.836 42.7086 44.9113C42.6353 45.0529 42.5452 45.0981 42.3955 45.1473C41.9732 45.2862 41.5234 45.2257 41.1094 45.3442C40.4935 45.5203 40.2012 46.152 39.4454 45.7439C39.2952 45.6627 39.1874 45.5375 39.0749 45.4125Z" fill="#2D2D2D"/>
<path d="M45.1209 35.6683C44.6627 35.9434 43.9782 36.6656 43.6556 36.809C43.5743 36.8452 43.4797 36.8542 43.3973 36.8115C43.3318 36.7775 43.2965 36.7367 43.272 36.6698C43.21 36.5007 43.2845 36.3151 43.3644 36.165C43.7846 35.3757 44.6589 34.6836 45.5152 34.4387C46.4723 34.1651 47.7269 34.2515 48.665 34.5633C48.9885 34.6708 49.3093 34.8549 49.6085 35.0189C49.8906 35.2459 50.1637 35.4738 50.4252 35.7248C50.078 35.7233 49.596 35.3456 49.2846 35.1801C48.1307 34.6376 46.6439 34.3477 45.4108 34.8009C44.6257 35.0894 43.8231 35.8033 43.4412 36.5465C43.7315 36.289 43.9991 35.9996 44.3022 35.7583C44.3438 35.7256 44.386 35.6939 44.429 35.6631C44.472 35.6323 44.5156 35.6025 44.56 35.5737C44.6043 35.5449 44.6492 35.5171 44.6948 35.4903C44.7404 35.4635 44.7865 35.4378 44.8332 35.413C44.88 35.3883 44.9272 35.3647 44.975 35.3421C45.0228 35.3195 45.071 35.298 45.1198 35.2776C45.1686 35.2571 45.2178 35.2378 45.2674 35.2196C45.317 35.2014 45.367 35.1843 45.4175 35.1683C45.4679 35.1524 45.5186 35.1376 45.5696 35.1239C45.6207 35.1102 45.672 35.0977 45.7237 35.0863C45.7753 35.075 45.8272 35.0648 45.8792 35.0558C45.9313 35.0467 45.9836 35.0388 46.036 35.0322C46.0885 35.0255 46.141 35.02 46.1937 35.0157C46.2464 35.0114 46.2992 35.0082 46.352 35.0063C46.4048 35.0043 46.4576 35.0036 46.5105 35.004C46.5634 35.0045 46.6162 35.0061 46.669 35.0089C47.9153 35.0804 48.9703 35.8319 49.9605 36.5122L50.18 36.6926C49.8782 36.7887 49.6314 36.744 49.324 36.7036C48.8694 37.0043 48.427 37.3036 47.9027 37.4707C46.8716 37.7991 45.7626 37.7874 44.795 37.2925C45.0692 37.2894 45.5457 37.4732 45.8358 37.5358C45.5225 37.3255 45.2482 37.0951 45.0931 36.7392C44.9241 36.3512 44.9771 36.0451 45.1209 35.6683Z" fill="#2D2D2D"/>
<path d="M46.9087 36.2862C46.8972 36.1947 46.9067 36.1245 46.9205 36.0344C46.861 35.8751 46.671 35.8239 46.644 35.668C46.6801 35.6151 46.6831 35.5821 46.7508 35.5681C46.8783 35.5416 47.0073 35.5988 47.1089 35.6735C47.247 35.7751 47.3464 35.928 47.3697 36.099C47.4037 36.3488 47.2749 36.5972 47.1168 36.7813C47.1042 36.7959 47.0911 36.8101 47.0782 36.8244C46.9969 36.6705 47.087 36.4911 47.0169 36.3209L46.9087 36.2862Z" fill="white"/>
<path d="M46.909 36.2861L47.0172 36.3208C47.0872 36.491 46.9972 36.6704 47.0784 36.8243C46.8382 37.0429 46.5386 37.1631 46.2097 37.1407C46.1485 37.1365 46.0871 37.1234 46.0308 37.0993L46.0463 36.8916C46.0851 36.8369 46.1101 36.795 46.1711 36.7626C46.183 36.7562 46.1959 36.7518 46.2084 36.7464L46.2226 36.6846C46.3461 36.6925 46.464 36.6918 46.5802 36.6422C46.7461 36.5715 46.8388 36.4464 46.909 36.2861Z" fill="#CCCBC5"/>
<path d="M45.5554 36.7197C45.5412 36.6991 45.5267 36.6789 45.513 36.658C45.4206 36.518 45.3225 36.2851 45.3637 36.1177C45.4098 35.9308 45.5498 35.6425 45.7312 35.5551C45.7897 35.5269 45.777 35.5413 45.8463 35.5731C45.7705 35.727 45.7271 35.8951 45.7448 36.0682C45.7719 36.3327 45.9393 36.5016 46.1401 36.6566L46.1794 36.6865L46.2226 36.6841L46.2085 36.746C46.196 36.7514 46.1831 36.7558 46.1712 36.7622C46.1102 36.7945 46.0851 36.8365 46.0464 36.8912L46.0309 37.0988C45.8277 37.0044 45.6964 36.8942 45.5554 36.7197Z" fill="white"/>
<path d="M47.5708 35.6084C48.0007 35.7732 48.6784 36.0468 49.0017 36.3708C49.0942 36.4635 49.1098 36.5325 49.1095 36.6598C48.9625 36.964 48.5481 37.0916 48.2473 37.1971C47.7973 37.3239 47.3633 37.3736 46.8984 37.4077C47.243 37.1939 47.5277 36.9679 47.6623 36.5662C47.7768 36.2248 47.7211 35.925 47.5708 35.6084Z" fill="white"/>
<path d="M32.3716 34.1917C32.8363 34.1088 33.4191 34.1528 33.8772 34.2581C34.9058 34.4949 35.8374 35.2907 36.3676 36.1904C36.452 36.3337 36.5183 36.5371 36.444 36.6987C36.4195 36.7521 36.3828 36.7847 36.3283 36.8024C35.9143 36.9362 35.2136 36.1502 34.8946 35.9114C34.664 35.7388 34.4346 35.6107 34.1733 35.49C34.2115 35.6488 34.2432 35.8173 34.2557 35.9805C34.2946 36.4889 34.1457 36.8544 33.8213 37.2334C34.2505 37.1764 34.6775 37.1346 35.0978 37.0261C34.7695 37.2167 34.4451 37.4066 34.0816 37.5224C33.0829 37.8406 31.7043 37.7334 30.7699 37.2531C30.5486 37.1394 30.4114 36.8448 30.2148 36.7453C30.078 36.676 29.6347 36.9372 29.4094 36.8827C29.3317 36.8056 29.3343 36.7921 29.3151 36.6828C29.4496 36.3181 30.1387 35.9557 30.4644 35.7398C31.1574 35.3232 31.9425 34.9368 32.7604 34.8699C34.304 34.7435 35.1626 35.613 36.2455 36.5434C36.2011 36.4701 36.1554 36.3985 36.1066 36.328C35.5016 35.4553 34.7383 34.7358 33.6633 34.5447C31.6558 34.1878 30.8373 35.1236 29.3665 36.1492C29.2856 36.1461 29.3107 36.1303 29.2779 36.158L29.2722 36.2059L29.2465 36.2186L29.2163 36.1992C29.2319 36.1381 29.2585 36.0968 29.2965 36.0473C30.0044 35.1216 31.2126 34.3481 32.3716 34.1917Z" fill="#2D2D2D"/>
<path d="M32.8719 35.375C32.964 35.383 33.0594 35.3999 33.1307 35.4638C33.2426 35.5641 33.3017 35.7071 33.3023 35.856C33.303 36.0167 33.2516 36.0842 33.1463 36.1927C33.0507 36.2071 32.9605 36.2183 32.8688 36.1768C32.7808 36.137 32.7297 36.0634 32.7053 35.9725C32.6466 35.7536 32.7563 35.55 32.8719 35.375Z" fill="white"/>
<path d="M33.6236 36.842C33.533 36.9464 33.4401 37.0339 33.3193 37.1034C33.0852 37.2383 32.7724 37.2401 32.5176 37.1698C32.2204 37.088 32.0526 36.907 31.9146 36.6384C31.7726 36.362 31.6936 35.9816 31.7944 35.6813C31.8749 35.5973 31.8806 35.5923 31.9945 35.5703C32.0057 35.6425 32.009 35.6179 31.9949 35.6829C31.9338 35.9651 31.8915 36.1514 32.0332 36.4231C32.1469 36.6413 32.3344 36.766 32.5644 36.8371C32.7508 36.8428 32.9315 36.8413 33.1176 36.8297C33.4015 36.6562 33.6442 36.4882 33.729 36.1462C33.7503 36.0591 33.7702 35.9718 33.7886 35.8841L33.8079 35.8765L33.8103 35.9165L33.8715 35.9371C33.9055 36.212 33.8399 36.5594 33.671 36.7819C33.6555 36.8022 33.6394 36.8219 33.6236 36.842Z" fill="white"/>
<path d="M31.4699 35.6221C31.4969 35.6239 31.5212 35.6389 31.5463 35.6492C31.52 35.8617 31.458 36.0986 31.4662 36.3115C31.4841 36.7781 31.8496 37.1511 32.1783 37.4382C31.8247 37.3843 31.4743 37.3122 31.1234 37.2433C30.9609 37.1977 30.785 37.1525 30.6349 37.074C30.3882 36.945 30.3195 36.7171 30.2324 36.4732C30.611 36.1279 31.0015 35.8335 31.4699 35.6221Z" fill="white"/>
<path d="M29.293 31.829C29.783 31.605 30.2591 31.4413 30.7939 31.3634C32.4724 31.1186 35.1234 31.6077 36.7273 32.196C36.9216 32.2674 37.0318 32.3424 37.1164 32.5374C37.3329 33.036 37.1964 33.783 36.9813 34.2674C36.9711 34.2904 36.9603 34.3131 36.9499 34.3359C36.0387 34.1141 35.1755 33.7409 34.2702 33.5069C32.186 32.9682 29.5439 32.9209 27.604 33.9767C27.8637 33.1337 28.3338 32.4747 29.0572 31.9634L29.293 31.829Z" fill="#2D2D2D"/>
<path d="M48.443 31.2657C48.8681 31.2222 49.3246 31.3144 49.7257 31.4556C50.6552 31.7828 51.3566 32.4907 51.7738 33.3767C51.85 33.5385 51.9476 33.7581 51.887 33.9318C51.5545 33.979 50.6644 33.4856 50.3081 33.3664C50.0763 33.2889 49.8196 33.2489 49.5777 33.2173C48.4123 33.0648 47.1774 33.3222 46.0279 33.5077C45.4686 33.6068 44.9033 33.7037 44.3546 33.8517C43.8252 33.9945 43.2969 34.1858 42.758 34.2848C42.5957 34.0125 42.5063 33.7262 42.4638 33.4139C42.4211 33.1001 42.3866 32.5769 42.6056 32.3264C42.6953 32.2239 42.8567 32.1917 42.9827 32.1594C43.7095 31.9735 44.4961 31.8875 45.238 31.764C46.3001 31.5871 47.3723 31.3746 48.443 31.2657Z" fill="#2D2D2D"/>
<path d="M40.8212 48.2605C42.1455 47.9363 43.1289 49.0531 43.8403 48.9324C43.9158 48.9196 43.9552 48.9333 44.0254 48.9591C44.0521 49.0108 44.0879 49.1123 44.1254 49.152C44.2324 49.265 44.634 49.4031 44.7963 49.4563C45.0397 49.5359 45.2715 49.5727 45.5175 49.4873C45.6186 49.4909 45.7147 49.4888 45.8107 49.525C45.8442 49.7655 45.9616 50.1724 45.8167 50.379C45.7707 50.3971 45.7381 50.4277 45.6905 50.4018C45.5484 50.3243 45.469 50.0112 45.3086 50.0208C45.2633 50.0235 45.1893 50.0552 45.1489 50.0685C43.909 50.4672 42.9687 50.2103 41.8181 50.4098C41.4478 50.474 41.0214 50.5649 40.6673 50.6905C40.4204 50.778 40.2771 50.9591 39.9901 50.9488C39.7307 50.9395 39.5484 50.7515 39.3166 50.661C39.0561 50.5593 38.7446 50.5088 38.4685 50.4673C37.6475 50.3436 36.8016 50.456 35.9775 50.3697C35.5579 50.3257 35.1526 50.174 34.7429 50.0761C34.598 50.0588 34.458 50.0553 34.3323 49.9752C34.2912 49.8065 34.3054 49.6417 34.3607 49.479C34.4344 49.4071 34.4323 49.4082 34.5351 49.4013C34.6839 49.4529 34.7685 49.5513 34.8771 49.6615C36.0732 49.268 37.4354 48.218 38.6804 48.1868C38.8594 48.1823 39.0367 48.2325 39.2091 48.2753C39.3245 48.3302 39.4406 48.3835 39.5574 48.4352C40.0394 48.6436 40.3734 48.4388 40.8212 48.2605Z" fill="#2D2D2D"/>
<path d="M38.5766 48.5611C39.0896 48.5461 39.4824 48.8714 39.9717 48.8914C40.4152 48.9095 40.7891 48.5534 41.2369 48.5537C42.2616 48.5543 43.7198 49.4736 44.707 49.8643C43.7029 50.0735 42.6697 49.9238 41.66 50.0837C40.8545 50.2802 40.1248 50.4399 39.2953 50.2814C38.8634 50.1989 38.427 50.0887 37.9873 50.0606C37.0528 50.001 36.3959 50.095 35.4277 49.8835C36.4447 49.3781 37.4612 48.8136 38.5766 48.5611Z" fill="#F2C94C"/>
<path d="M34.7429 50.0759C35.1526 50.1738 35.5578 50.3255 35.9775 50.3695C36.8016 50.4559 37.6475 50.3434 38.4684 50.4671C38.7445 50.5087 39.0561 50.5591 39.3166 50.6609C39.5484 50.7513 39.7306 50.9394 39.9901 50.9487C40.277 50.959 40.4204 50.7778 40.6673 50.6903C41.0213 50.5648 41.4477 50.4738 41.818 50.4096C42.9687 50.2102 43.909 50.467 45.1489 50.0684C44.8576 50.734 44.4292 50.9089 44.2109 51.3857C43.9672 51.6405 43.6523 51.8497 43.3565 52.042C42.3659 52.6859 41.3426 53.1152 40.1473 53.1462C38.5172 53.1883 37.0173 52.5096 35.8106 51.4448C35.8016 51.4387 35.7925 51.433 35.7837 51.4268C35.543 51.2554 34.6809 50.5058 34.6556 50.2207C34.6503 50.1605 34.7074 50.1195 34.7429 50.0759Z" fill="#F2C94C"/>
<path d="M35.811 51.4451C35.8624 51.3628 35.8883 51.3159 35.9784 51.2752C36.0501 51.2853 37.6321 52.2636 38.034 52.4276C39.6093 53.0704 41.2378 52.864 42.6862 52.0192C43.1211 51.7655 43.5488 51.3869 44.0079 51.1943C44.1201 51.2324 44.142 51.2923 44.2113 51.3861C43.9676 51.6408 43.6528 51.85 43.3569 52.0424C42.3663 52.6863 41.3431 53.1156 40.1478 53.1465C38.5176 53.1886 37.0178 52.51 35.811 51.4451Z" fill="#2D2D2D"/>
<path d="M53.1757 36.8438C53.3025 37.0878 53.252 37.5243 53.2571 37.8027C53.268 38.2904 53.2663 38.778 53.2521 39.2656C53.2378 39.7532 53.211 40.2401 53.1717 40.7263C53.1324 41.2125 53.0805 41.6974 53.0162 42.181C52.9518 42.6646 52.8751 43.1461 52.786 43.6257C52.7244 43.9758 52.6894 44.397 52.5668 44.7273C52.5633 44.7367 52.5578 44.7453 52.5532 44.7544L52.518 44.8166C52.354 45.112 52.247 45.4523 52.0997 45.7591C51.5395 46.9262 50.8132 47.7162 49.55 48.0913C48.5039 48.4018 47.4625 48.3562 46.4979 47.8223C45.7938 47.4325 45.319 46.8359 45.0982 46.0617C45.0559 45.9089 45.0225 45.7541 44.9981 45.5974C44.9737 45.4407 44.9583 45.2831 44.9521 45.1246C44.9579 44.7946 44.9522 44.4614 45.0142 44.1362C45.0555 43.9956 45.0873 43.8527 45.1321 43.713C45.7812 41.6919 47.3476 40.6566 49.3478 40.2059C49.9854 40.0623 50.7156 39.9937 51.3009 39.6952C52.3712 39.1497 52.8225 37.9132 53.1757 36.8438Z" fill="#4FDB40"/>
<path d="M52.425 41.1211C52.5451 41.1385 52.5856 41.1363 52.683 41.2132C52.7088 41.335 52.6505 41.4196 52.5977 41.5249C52.4793 41.4955 52.4762 41.4939 52.3997 41.3989C52.3808 41.2844 52.3923 41.2288 52.425 41.1211Z" fill="white"/>
<path d="M48.2788 42.4033C48.3909 42.4596 48.4402 42.4982 48.4807 42.6157C48.4527 42.7404 48.3931 42.7874 48.3024 42.8684C48.2898 42.8619 48.2769 42.8561 48.2646 42.849C48.153 42.7852 48.1139 42.7386 48.082 42.6193C48.138 42.4989 48.1744 42.4798 48.2788 42.4033Z" fill="white"/>
<path d="M50.0316 43.2949C50.069 43.2965 50.1216 43.2973 50.1571 43.3052C50.2629 43.329 50.2872 43.3537 50.3479 43.435C50.3545 43.5668 50.3205 43.6301 50.2585 43.7402C50.1176 43.7186 50.0387 43.6904 49.9471 43.5792C49.9434 43.4477 49.9723 43.4096 50.0316 43.2949Z" fill="white"/>
<path d="M51.9129 39.7471C51.9566 39.7544 52.0276 39.7608 52.0696 39.7801C52.1761 39.8291 52.1867 39.8554 52.2274 39.9571C52.2085 40.0843 52.1528 40.1419 52.0716 40.2343C52.0105 40.2286 51.9307 40.2239 51.8748 40.1987C51.7875 40.1594 51.7765 40.1052 51.751 40.0236C51.7711 39.8882 51.8211 39.8393 51.9129 39.7471Z" fill="white"/>
<path d="M46.6081 43.2393C46.639 43.2401 46.6698 43.2409 46.7007 43.2431C46.8727 43.2551 47.0184 43.325 47.1274 43.4615C47.1377 43.4742 47.1472 43.4873 47.1561 43.501C47.165 43.5146 47.1732 43.5287 47.1805 43.5432C47.1879 43.5577 47.1946 43.5726 47.2004 43.5878C47.2062 43.603 47.2113 43.6184 47.2155 43.6342C47.2197 43.6499 47.2231 43.6658 47.2256 43.6819C47.2282 43.698 47.2299 43.7141 47.2307 43.7304C47.2315 43.7467 47.2315 43.7629 47.2306 43.7792C47.2297 43.7954 47.228 43.8116 47.2255 43.8277C47.1963 44.0095 47.0829 44.1089 46.9381 44.2075C46.8538 44.2181 46.7632 44.23 46.6783 44.2231C46.5777 44.2149 46.4605 44.1485 46.3994 44.067C46.3177 43.958 46.2911 43.838 46.3091 43.7045C46.3387 43.485 46.4402 43.3729 46.6081 43.2393Z" fill="white"/>
<path d="M49.1816 41.5273C49.2427 41.5205 49.303 41.5151 49.3646 41.5147C49.5327 41.5133 49.6631 41.5573 49.7786 41.6837C49.8635 41.7765 49.911 41.898 49.9043 42.0244C49.8925 42.2508 49.7871 42.3941 49.6243 42.5404C49.5801 42.5429 49.5358 42.5444 49.4916 42.5443C49.3112 42.5441 49.1661 42.4828 49.0417 42.3503C48.939 42.2409 48.8897 42.1022 48.9051 41.9528C48.9254 41.7556 49.036 41.6484 49.1816 41.5273Z" fill="white"/>
<path d="M48.3158 44.6478C48.4115 44.6408 48.5187 44.6336 48.6135 44.6543C48.7608 44.6865 48.9034 44.8049 48.9821 44.9303C48.9924 44.9463 49.0019 44.9628 49.0104 44.9798C49.019 44.9968 49.0268 45.0143 49.0336 45.0321C49.0405 45.0498 49.0465 45.0679 49.0515 45.0863C49.0565 45.1047 49.0606 45.1233 49.0637 45.1421C49.0669 45.1609 49.069 45.1798 49.0702 45.1989C49.0715 45.2179 49.0717 45.2369 49.071 45.256C49.0703 45.275 49.0686 45.294 49.066 45.3129C49.0634 45.3317 49.0598 45.3504 49.0553 45.369C49.0012 45.5891 48.8731 45.6926 48.6855 45.8031C48.6404 45.8079 48.5952 45.8125 48.5498 45.8133C48.3956 45.8154 48.2349 45.7431 48.1301 45.6303C48.0048 45.4957 47.9686 45.3172 47.9877 45.1383C48.0128 44.9036 48.1392 44.7878 48.3158 44.6478Z" fill="white"/>
<path d="M25.9524 38.4268C26.6194 39.0684 27.3786 39.7928 28.1914 40.2402L28.2494 40.2374L28.229 40.0936C28.3115 40.0789 28.3358 40.1183 28.4048 40.1608C28.4658 40.2579 28.464 40.3141 28.4663 40.4249C29.2811 41.0578 30.3363 41.4425 31.2836 41.8286C32.5938 42.3625 34.1116 42.8859 34.3174 44.507C34.459 45.6221 33.7816 47.9464 33.0943 48.8489C32.7894 49.2491 32.3567 49.5011 31.8565 49.5626C31.173 49.6468 30.5205 49.3502 29.999 48.93C29.3728 48.4253 28.9333 47.7203 28.4901 47.06C28.7665 48.3308 29.2258 49.5436 30.1892 50.4594C30.6783 50.9245 31.2151 51.3403 31.7069 51.8043C32.1543 52.2264 32.5844 52.6842 32.9169 53.2039C33.1334 53.5449 33.3182 53.9022 33.4712 54.276C33.6183 54.6403 33.849 55.7846 34.1222 55.9868C34.3276 56.1389 34.7874 56.0492 35.014 55.9857C36.0387 55.699 36.9292 54.9457 37.9247 54.5496C39.3022 54.0017 42.8456 54.116 44.1561 54.8511C44.7948 55.2095 45.0334 55.8525 45.329 56.4795C45.3127 56.4964 45.2974 56.514 45.2803 56.53C44.9413 56.8472 44.4829 57.1157 44.0864 57.3621C42.6178 58.2746 41.024 59.0721 39.2472 59.0221C35.8159 58.9254 32.9799 55.7476 30.7644 53.4474C30.1295 52.7883 29.434 52.1846 28.8126 51.514C28.2595 50.9171 27.8793 50.2651 27.6088 49.4986C27.1233 48.1222 26.974 46.645 26.7409 45.2114C26.4735 43.566 26.2076 41.9345 26.0569 40.2729C26.0018 39.6648 25.9319 39.0378 25.9524 38.4268Z" fill="#4FDB40"/>
<path d="M28.6224 44.4727C28.687 44.4808 28.7824 44.4848 28.8415 44.5148C28.943 44.5663 28.9532 44.6029 28.9913 44.702C28.9766 44.8313 28.9247 44.8865 28.8436 44.9804C28.7799 44.9729 28.6816 44.9697 28.6239 44.939C28.5241 44.886 28.5151 44.8507 28.4824 44.7512C28.4985 44.6267 28.5475 44.5673 28.6224 44.4727Z" fill="white"/>
<path d="M43.2151 57.0256C43.1118 56.9381 43.0359 56.9103 43.0285 56.7635C43.0237 56.667 43.1141 56.5635 43.1841 56.5048C43.2203 56.4745 43.2634 56.4556 43.3055 56.4355C43.4037 56.5471 43.5128 56.6461 43.5415 56.7968C43.5108 56.8905 43.4844 56.935 43.3901 56.9775C43.3366 57.0016 43.2723 57.013 43.2151 57.0256Z" fill="white"/>
<path d="M32.7665 45.8867C32.8642 45.9033 32.9704 45.9216 33.0505 45.9838C33.1236 46.0405 33.17 46.1239 33.1686 46.2174C33.1663 46.3752 33.0648 46.465 32.9571 46.5615C32.8738 46.5477 32.7991 46.5398 32.727 46.4916C32.6493 46.4395 32.593 46.3598 32.5833 46.2655C32.5655 46.095 32.6569 45.9991 32.7665 45.8867Z" fill="white"/>
<path d="M30.2344 45.0205C30.3328 45.0321 30.4301 45.0554 30.507 45.122C30.5814 45.1864 30.6207 45.2681 30.617 45.3673C30.6106 45.5332 30.5136 45.6218 30.3986 45.724C30.2968 45.7115 30.2048 45.7039 30.1207 45.638C30.0397 45.5746 29.9984 45.4971 30.0016 45.3935C30.0073 45.2163 30.112 45.1297 30.2344 45.0205Z" fill="white"/>
<path d="M42.0403 57.2012C42.1398 57.2432 42.2963 57.3006 42.3723 57.3766C42.4406 57.4446 42.4686 57.5112 42.4568 57.6077C42.4419 57.7297 42.3012 57.8373 42.2167 57.9173C42.1121 57.8963 41.9646 57.8496 41.889 57.7712C41.8245 57.7042 41.8101 57.6363 41.8134 57.5477C41.8192 57.3932 41.9363 57.2997 42.0403 57.2012Z" fill="white"/>
<path d="M41.8441 55.3086C41.9069 55.318 41.9287 55.329 41.9822 55.3598C41.9937 55.457 42.0257 55.4872 42.0786 55.5623C42.1551 55.6707 42.1824 55.757 42.1579 55.8839C42.0535 55.9784 42.0303 55.9669 41.8947 55.9774L41.7652 55.8488C41.6375 55.8116 41.7116 55.8981 41.5967 55.913C41.5573 55.8647 41.499 55.8053 41.473 55.7494C41.4358 55.6691 41.446 55.5984 41.4834 55.5199C41.5393 55.403 41.7304 55.3521 41.8441 55.3086Z" fill="white"/>
<path d="M40.3269 57.0215C40.3915 57.0338 40.4627 57.0486 40.5228 57.0755C40.6194 57.1188 40.6672 57.1884 40.7008 57.2859C40.6983 57.3672 40.699 57.4234 40.6538 57.4955C40.6036 57.5755 40.5149 57.6469 40.4209 57.6632C40.3571 57.6744 40.3212 57.6187 40.2743 57.581C40.2418 57.6318 40.2046 57.6787 40.1682 57.7267C40.0686 57.7598 40.0608 57.7866 39.9609 57.7417C39.9436 57.6514 39.9418 57.6323 39.9699 57.5455L40.0931 57.4884C40.13 57.3797 40.0883 57.3237 40.0489 57.2205C40.1139 57.1109 40.2171 57.0749 40.3269 57.0215Z" fill="white"/>
<path d="M36.5133 56.7031C36.6799 56.7484 37.0172 56.8348 37.129 56.9579C37.1679 57.0009 37.1558 57.0556 37.1503 57.1102C37.1462 57.1502 37.1368 57.1898 37.1342 57.23C37.1265 57.3475 37.1899 57.4177 37.2615 57.5006C37.3321 57.5827 37.3765 57.6478 37.423 57.7452C37.3155 57.7653 37.2604 57.7717 37.1607 57.7194C36.901 57.5829 36.4844 57.2666 36.4247 56.9705C36.4016 56.8562 36.459 56.7945 36.5133 56.7031Z" fill="white"/>
<path d="M38.2322 55.4492C38.4239 55.4916 38.6566 55.4484 38.8287 55.4952C38.994 55.5401 38.841 56.0326 38.8967 56.1945C38.9317 56.296 38.9219 56.3293 38.8881 56.4313C38.7738 56.4142 38.3049 56.3585 38.2649 56.3402C38.167 56.1776 38.2487 55.6733 38.2322 55.4492Z" fill="white"/>
<path d="M29.8153 42.7305C29.869 42.7353 29.9235 42.739 29.976 42.7523C30.1191 42.7885 30.2617 42.8867 30.3356 43.0156C30.4099 43.145 30.4126 43.2935 30.3713 43.434C30.3038 43.6639 30.1531 43.7551 29.9507 43.8604C29.8767 43.8561 29.7978 43.8492 29.7263 43.8293C29.6049 43.7954 29.4988 43.7056 29.438 43.5963C29.358 43.4526 29.3546 43.2777 29.4101 43.1248C29.4881 42.9101 29.6131 42.8206 29.8153 42.7305Z" fill="white"/>
<path d="M28.0087 42.7751C28.0931 42.7705 28.1843 42.762 28.2678 42.7773C28.4095 42.8033 28.5407 42.9047 28.6191 43.0229C28.702 43.1477 28.7257 43.2964 28.692 43.442C28.6456 43.6422 28.5335 43.7586 28.3664 43.8681C28.2925 43.8719 28.2168 43.8765 28.143 43.8708C27.992 43.859 27.8485 43.7765 27.7553 43.6585C27.6605 43.5384 27.6289 43.3951 27.6535 43.2451C27.6909 43.017 27.8252 42.8983 28.0087 42.7751Z" fill="white"/>
</g>
<defs>
<linearGradient id="paint0_linear_1114_54865" x1="33.8389" y1="38.71" x2="33.6811" y2="38.0861" gradientUnits="userSpaceOnUse">
<stop stop-color="#434448"/>
<stop offset="1" stop-color="#5D554A"/>
</linearGradient>
<clipPath id="clip0_1114_54865">
<rect width="80" height="80" fill="white"/>
</clipPath>
</defs>
</svg>
