<svg width="80" height="80" viewBox="0 0 80 80" fill="none" xmlns="http://www.w3.org/2000/svg">
<g clip-path="url(#clip0_1080_8188)">
<path d="M62.2519 10.3711C62.2633 10.3751 62.2751 10.3783 62.2864 10.383C62.596 10.5129 63.2846 11.1715 63.3993 11.5045C63.4258 11.5818 63.3869 11.6104 63.3524 11.6802C63.299 11.6698 63.2597 11.6615 63.2119 11.63C63.0974 11.5546 62.2958 10.7213 62.2287 10.6038C62.1747 10.5095 62.2158 10.4638 62.2519 10.3711Z" fill="white"/>
<path d="M64.4674 13.6484C64.5246 13.6592 64.5635 13.6729 64.6164 13.6952C64.7208 13.8575 64.7797 14.0377 64.8314 14.2226C64.9128 14.5131 65.1503 15.3933 65.0068 15.6515L64.8866 15.6173C64.8582 15.5725 64.8481 15.5608 64.8278 15.5041C64.6887 15.117 64.6372 14.6377 64.5371 14.2322C64.5135 14.1363 64.4049 13.8547 64.4152 13.7698C64.4206 13.726 64.4499 13.6888 64.4674 13.6484Z" fill="white"/>
<path d="M9.15154 39.5508C9.43514 39.7903 10.6404 41.9035 10.877 42.3516C10.8528 42.4588 10.7758 42.4891 10.6919 42.5554C10.5357 42.4659 9.12209 40.1067 8.96631 39.7957C9.00045 39.6665 9.05443 39.6392 9.15154 39.5508Z" fill="white"/>
<path d="M35.8978 9.09668C35.9808 9.15762 36.0004 9.22043 36.0169 9.31707C35.9992 9.37676 35.98 9.41809 35.9322 9.45996C35.394 9.93105 34.6223 10.3993 34.0243 10.8154C32.813 11.6511 31.6119 12.501 30.4208 13.3652C30.3385 13.2818 30.2985 13.2586 30.2729 13.1421C30.3706 12.9618 35.2549 9.60801 35.8978 9.09668Z" fill="white"/>
<path d="M9.10676 36.9395C9.18434 36.942 9.24574 36.9518 9.32012 36.9737C9.54551 37.2367 9.7152 37.617 9.88887 37.9185C10.3804 38.7716 10.8505 39.6355 11.3356 40.4919C11.6226 40.9985 12.399 42.1959 12.5568 42.668C12.5782 42.732 12.5245 42.7962 12.4952 42.8545L12.3999 42.8543C12.3019 42.8052 12.2482 42.6953 12.1919 42.6048C11.6107 41.6702 11.1168 40.6846 10.5639 39.7339C10.2303 39.1709 9.90153 38.6052 9.57746 38.0367C9.41957 37.762 9.22887 37.475 9.10528 37.1841C9.06004 37.0776 9.06606 37.0468 9.10676 36.9395Z" fill="white"/>
<path d="M63.1239 34.8535C63.1374 34.8572 63.1514 34.8597 63.1645 34.8645C63.2318 34.8895 63.2728 34.9311 63.3142 34.9874C64.4865 36.5802 65.5373 38.2763 66.6473 39.9134C67.1588 40.659 67.6619 41.4103 68.1565 42.1672C68.3714 42.4941 68.6657 42.8623 68.8121 43.2242C68.8572 43.3356 68.8239 43.3585 68.7766 43.4641L68.7033 43.4425C68.3985 43.1616 68.1564 42.6674 67.9308 42.3161C66.8003 40.5889 65.6516 38.8739 64.4846 37.1712C64.2034 36.7604 63.1662 35.3737 63.0496 35.0646C63.0253 35.0003 63.0937 34.9134 63.1239 34.8535Z" fill="white"/>
<path d="M38.2189 8.97559C38.2471 8.98934 38.2886 9.00715 38.3105 9.02941C38.3771 9.09746 38.3748 9.13715 38.3611 9.22066C38.0637 9.49988 37.683 9.72395 37.3442 9.95152C36.8357 10.2906 36.3299 10.6336 35.8267 10.9803L29.9461 15.0836C29.9243 15.0793 29.9008 15.0799 29.8806 15.0706C29.7944 15.0311 29.7666 14.9863 29.749 14.9023C30.0604 14.5698 31.1901 13.8643 31.612 13.5671C33.8001 12.0257 36.0771 10.5799 38.2189 8.97559Z" fill="white"/>
<path d="M54.6696 9.00108C56.0308 8.83764 57.8962 9.18999 59.1399 9.75421C61.1871 10.683 62.6096 12.2573 63.384 14.3612C65.4017 19.8431 61.9985 27.3369 59.6926 32.3112C59.7111 32.3342 59.7296 32.3573 59.7467 32.3813C62.5257 36.3046 65.2309 40.278 67.8624 44.3016C68.5419 45.3544 69.4864 46.4687 69.9801 47.6044C70.4357 48.6528 70.6306 49.7827 70.4425 50.9176C70.1707 52.557 69.3294 54.0256 67.9709 54.9939C67.2214 55.5281 66.4407 56.0198 65.6767 56.5331L62.5673 58.6537L52.5159 65.4969C50.5179 66.8874 48.5115 68.2656 46.4966 69.6315C45.623 70.2196 44.7303 70.9381 43.7742 71.3805C42.6703 71.8914 41.3971 72.0345 40.2022 71.8302C37.7603 71.4127 36.5782 69.8563 35.1591 68.0296C34.5988 67.3082 34.0204 66.5922 33.4948 65.8457C32.5987 65.9897 31.704 66.1421 30.8108 66.303L26.4592 67.0698C25.2848 67.2675 24.116 67.4667 22.9249 67.5266C22.5496 67.5455 22.1676 67.5114 21.7928 67.4905C20.2311 67.4033 18.7544 67.1388 17.3584 66.3896C13.3842 64.2565 12.3114 59.7847 13.5383 55.6687C13.7912 54.8205 14.2058 54.0751 14.5389 53.2639C14.7449 52.7623 14.8955 52.2286 15.0129 51.6998C15.377 50.0605 15.3874 48.4535 15.0856 46.8009C15.0112 46.3985 14.9187 46.0002 14.8082 45.6062C14.6976 45.2122 14.5694 44.824 14.4235 44.4416C14.1512 43.7467 13.7791 43.0862 13.4367 42.4233C12.8168 41.2226 12.1834 40.0291 11.5367 38.8426C11.0245 37.8892 10.4788 36.9335 10.1699 35.8898C9.59276 33.9398 9.65049 31.9844 10.6357 30.1767C10.6894 30.0772 10.7456 29.979 10.8042 29.8823C10.8628 29.7857 10.9237 29.6905 10.9871 29.5968C11.0504 29.5031 11.116 29.411 11.1839 29.3206C11.2518 29.2302 11.322 29.1416 11.3943 29.0547C11.4667 28.9677 11.5411 28.8827 11.6177 28.7994C11.6942 28.7162 11.7728 28.6349 11.8535 28.5556C11.9341 28.4763 12.0166 28.3991 12.101 28.3239C12.1855 28.2487 12.2718 28.1756 12.3599 28.1048C13.4229 27.2544 14.6389 26.533 15.7659 25.7654L22.796 20.9808L32.81 14.1634L36.4167 11.7061C36.9523 11.3346 37.4657 10.9126 38.0158 10.5648C38.4994 10.259 39.0361 9.99218 39.5875 9.83428C42.125 9.10757 44.6527 10.2259 46.8482 11.428C49.3563 10.2363 51.855 9.15468 54.6696 9.00108Z" fill="white"/>
<path d="M59.1697 33.9805C59.5115 34.4882 60.1709 35.4121 60.4083 35.9323C60.0715 36.307 59.8734 36.8858 59.5991 37.3137C59.2273 37.8939 58.7183 38.434 58.2497 38.9384L58.1655 38.9112C58.1645 38.6436 58.1464 38.3802 58.124 38.1135C58.0833 37.7987 58.0016 37.4966 57.9214 37.1902C57.9377 37.1783 57.9544 37.1668 57.9704 37.1545C58.1041 37.0521 58.2124 36.8574 58.3055 36.7179C58.8894 35.8434 59.0234 34.9927 59.1697 33.9805Z" fill="#F2C94C"/>
<path d="M58.1655 38.9111L58.2497 38.9382C58.4952 39.8357 58.0219 40.9935 57.5776 41.7631C57.3864 42.0944 57.1465 42.3609 56.8599 42.6132C56.5026 42.9278 56.0813 43.1766 55.6984 43.4597C54.5149 44.3348 53.3046 45.1712 52.0677 45.9689C51.7304 46.1829 51.3992 46.4271 51.0499 46.6193C50.9342 46.6838 50.8149 46.7405 50.692 46.7897C50.569 46.8388 50.4435 46.8799 50.3153 46.913C49.1735 47.2156 47.9913 47.1282 46.8526 46.8703C46.0283 47.5427 45.2146 48.2042 44.3357 48.8048L44.364 48.6451C44.4464 48.3373 44.4551 48.0094 44.4712 47.693C44.4241 46.708 44.0862 45.8761 43.5659 45.0485C43.9548 44.7053 44.3693 44.3909 44.78 44.0745C44.8795 44.2663 44.9866 44.4537 45.1015 44.6368C45.7634 45.6748 46.8027 46.321 48.0008 46.5743C49.249 46.8384 50.3354 46.6076 51.3962 45.9141C52.469 45.2128 53.4987 44.4355 54.5459 43.6964C55.3779 43.1092 56.3592 42.6034 57.0319 41.8296C57.5463 41.238 57.8744 40.5431 58.0319 39.7768C58.106 39.4974 58.1288 39.198 58.1655 38.9111Z" fill="#F2C94C"/>
<path d="M32.7642 34.3168C33.2421 34.197 33.7359 34.1382 34.2249 34.2157L34.383 34.214C35.6406 34.4466 36.7081 35.0292 37.4492 36.0985C38.0211 36.9239 38.3143 38.0097 38.196 39.01C38.1842 39.2566 38.1572 39.6051 38.0532 39.8323C37.9245 40.2413 37.7015 40.9641 37.3709 41.2552C37.211 41.5485 36.93 41.8157 36.6735 42.026C35.8928 42.6658 34.9824 43.2061 34.1446 43.7724C33.1309 44.4576 31.4439 45.781 30.3787 46.1503C30.3088 46.174 30.2383 46.196 30.1673 46.2164C30.0963 46.2366 30.0248 46.2551 29.9528 46.2719C29.8809 46.2887 29.8086 46.3036 29.7359 46.3168C29.6632 46.33 29.5903 46.3414 29.5171 46.351C29.4438 46.3606 29.3704 46.3684 29.2967 46.3743C29.2232 46.3803 29.1494 46.3845 29.0756 46.3868C29.0018 46.3892 28.9279 46.3897 28.8541 46.3884C28.7802 46.3871 28.7065 46.384 28.6328 46.379C28.5591 46.3741 28.4855 46.3674 28.4122 46.3588C28.3388 46.3502 28.2657 46.3399 28.1928 46.3277C28.12 46.3156 28.0475 46.3016 27.9753 46.2858C27.9032 46.2701 27.8315 46.2526 27.7602 46.2333C27.6889 46.214 27.6181 46.193 27.5478 46.1702C27.4776 46.1474 27.4079 46.1229 27.3389 46.0968C27.2698 46.0706 27.2014 46.0427 27.1337 46.0131C27.066 45.9835 26.9991 45.9523 26.933 45.9194C26.865 45.8851 26.798 45.8492 26.7318 45.8116C26.6657 45.774 26.6005 45.7347 26.5363 45.6939C26.4721 45.653 26.4089 45.6106 26.3468 45.5666C26.2847 45.5226 26.2237 45.4771 26.1639 45.4301C26.104 45.3831 26.0454 45.3346 25.9879 45.2846C25.9305 45.2347 25.8744 45.1834 25.8195 45.1307C25.7646 45.0779 25.711 45.0239 25.6589 44.9685C25.6067 44.9131 25.5559 44.8565 25.5065 44.7985C25.4571 44.7406 25.4092 44.6815 25.3628 44.6213C25.3163 44.561 25.2714 44.4996 25.228 44.4371C25.1846 44.3745 25.1428 44.3109 25.1025 44.2464C25.0623 44.1818 25.0237 44.1162 24.9867 44.0497C24.9498 43.9832 24.9145 43.9158 24.8808 43.8475C24.8472 43.7792 24.8152 43.7102 24.785 43.6403C24.7549 43.5704 24.7264 43.4999 24.6997 43.4286C24.6731 43.3573 24.6482 43.2854 24.625 43.2129C24.2783 42.1419 24.3582 40.9182 24.8779 39.9146C24.9336 39.8064 24.9942 39.701 25.0598 39.5985C25.1254 39.496 25.1956 39.3967 25.2706 39.3008C25.3455 39.2049 25.4247 39.1128 25.5084 39.0243C25.592 38.9359 25.6796 38.8516 25.7711 38.7714C26.1871 38.4092 26.6698 38.115 27.1279 37.8095L29.3021 36.3742C30.1103 35.8443 30.9007 35.2292 31.7382 34.7527C32.0664 34.5659 32.4042 34.4289 32.7642 34.3168Z" fill="#2D2D2D"/>
<path d="M33.6975 34.375C33.9374 34.3748 34.1633 34.3887 34.4008 34.4232C35.5675 34.6294 36.554 35.2081 37.2373 36.1872C37.2738 36.2393 37.3093 36.2921 37.3438 36.3455C37.1033 36.3829 36.8623 36.4252 36.6207 36.4545C36.5557 36.3802 36.4884 36.308 36.4189 36.2379C35.9094 35.7161 35.1905 35.2552 34.4388 35.2439C33.9221 35.2007 33.2819 35.2793 32.853 35.5949C32.8355 35.6077 32.8204 35.6234 32.8041 35.6377C32.5426 35.793 32.2973 35.9748 32.0497 36.151C31.3144 36.5973 30.6161 37.1071 29.8934 37.5738L27.6508 39.0158C27.162 39.3331 26.6225 39.6369 26.2129 40.0569C25.8568 40.422 25.5884 40.963 25.4679 41.4561C25.4205 41.6456 25.3944 41.8379 25.3897 42.0332C25.3298 42.2408 25.363 42.5245 25.3874 42.7379L25.3238 42.773C25.2136 43.1992 25.4636 43.7509 25.6763 44.119C25.7351 44.2207 25.8055 44.3122 25.8807 44.4024C26.2242 44.9703 26.7406 45.3007 27.2855 45.6513C27.4444 45.7536 27.6396 45.8513 27.7658 45.9929C27.4747 45.9157 27.1955 45.8076 26.9283 45.6685C26.8655 45.635 26.8036 45.6 26.7425 45.5635C26.6814 45.527 26.6213 45.4889 26.5622 45.4495C26.503 45.41 26.4448 45.369 26.3876 45.3266C26.3305 45.2843 26.2744 45.2406 26.2194 45.1955C26.1644 45.1503 26.1105 45.1039 26.0578 45.0561C26.005 45.0083 25.9535 44.9593 25.9032 44.909C25.8529 44.8587 25.8038 44.8072 25.7561 44.7545C25.7083 44.7017 25.6619 44.6479 25.6167 44.5928C25.5716 44.5378 25.5279 44.4817 25.4855 44.4246C25.4431 44.3674 25.4022 44.3092 25.3627 44.2501C25.3232 44.1909 25.2852 44.1308 25.2487 44.0697C25.2121 44.0086 25.1771 43.9467 25.1437 43.884C25.1102 43.8212 25.0782 43.7577 25.0479 43.6933C25.0175 43.629 24.9887 43.5639 24.9615 43.4981C24.9344 43.4323 24.9089 43.366 24.885 43.299C24.8611 43.232 24.8389 43.1644 24.8183 43.0962C24.7984 43.0323 24.78 42.968 24.7632 42.9032C24.7464 42.8384 24.7312 42.7732 24.7176 42.7077C24.704 42.6421 24.692 42.5762 24.6815 42.5101C24.6712 42.4439 24.6624 42.3776 24.6552 42.311C24.6481 42.2445 24.6426 42.1778 24.6387 42.1109C24.6348 42.0441 24.6326 41.9772 24.632 41.9102C24.6314 41.8433 24.6324 41.7764 24.6351 41.7095C24.6378 41.6426 24.6421 41.5758 24.648 41.5091C24.654 41.4424 24.6615 41.3759 24.6707 41.3096C24.6799 41.2433 24.6907 41.1772 24.7032 41.1114C24.7156 41.0456 24.7296 40.9802 24.7452 40.9151C24.7609 40.85 24.7781 40.7853 24.7969 40.721C24.8157 40.6568 24.836 40.593 24.858 40.5298C24.8799 40.4665 24.9033 40.4038 24.9283 40.3417C24.9533 40.2796 24.9798 40.2181 25.0078 40.1573C25.0358 40.0965 25.0653 40.0364 25.0962 39.977C25.1502 39.8748 25.2089 39.7753 25.2722 39.6786C25.3355 39.5819 25.4032 39.4883 25.4753 39.3979C25.5474 39.3075 25.6235 39.2206 25.7037 39.1373C25.7839 39.0541 25.8678 38.9747 25.9554 38.8992C26.3322 38.5732 26.7712 38.3091 27.1845 38.0316C27.8924 37.5547 28.6027 37.0816 29.3156 36.6123C30.1593 36.0547 30.9819 35.418 31.8588 34.9172C32.1722 34.7382 32.489 34.6102 32.8333 34.5045C33.1126 34.4201 33.4082 34.4034 33.6975 34.375Z" fill="white"/>
<path d="M32.8041 35.6381C32.8204 35.6239 32.8355 35.6081 32.853 35.5953C33.2819 35.2797 33.9221 35.2011 34.4388 35.2443C35.1905 35.2556 35.9094 35.7165 36.4189 36.2383C36.4884 36.3084 36.5557 36.3806 36.6207 36.4549C36.8623 36.4256 37.1033 36.3833 37.3438 36.346C37.7815 36.9921 37.9379 37.7433 38.0114 38.5089C38.0077 38.6861 38.0146 38.8687 37.9773 39.0424C37.9433 39.3694 37.8762 39.672 37.7944 39.9895C37.405 40.9735 36.9637 41.583 36.108 42.2072C34.9715 42.9219 33.8741 43.711 32.7683 44.4731C32.0844 44.9444 31.3973 45.4746 30.6367 45.8143C30.1879 46.0149 29.7365 46.1184 29.2473 46.15C28.8104 46.231 28.1737 46.1777 27.7658 45.9933C27.6396 45.8517 27.4444 45.754 27.2855 45.6517C26.7406 45.3011 26.2242 44.9707 25.8807 44.4028C25.8055 44.3126 25.7351 44.2211 25.6763 44.1194C25.4636 43.7513 25.2136 43.1996 25.3238 42.7735L25.3874 42.7383C25.363 42.5249 25.3298 42.2412 25.3898 42.0336C25.3944 41.8384 25.4205 41.646 25.4679 41.4565C25.5884 40.9635 25.8568 40.4224 26.2129 40.0573C26.6225 39.6373 27.162 39.3335 27.6508 39.0162L29.8934 37.5742C30.6161 37.1075 31.3144 36.5977 32.0497 36.1514C32.2973 35.9753 32.5426 35.7934 32.8041 35.6381Z" fill="#2D2D2D"/>
<path d="M29.2451 38.2217C29.4494 38.4304 29.6894 38.589 29.9095 38.7786C29.7183 38.7538 29.4759 38.5281 29.3203 38.4071C28.9335 38.5663 28.5702 38.8558 28.2203 39.0884C27.3239 39.684 26.3492 40.1974 25.9266 41.258C25.7259 41.7618 25.7758 42.2855 25.6629 42.8021L25.609 42.5479C25.6006 42.424 25.5872 42.3002 25.5757 42.1765C25.5781 42.1446 25.5805 42.1126 25.5845 42.0808C25.8783 39.7347 27.6007 39.5192 29.1987 38.2589L29.2451 38.2217Z" fill="white"/>
<path d="M37.3438 36.3457C37.7815 36.9919 37.9379 37.743 38.0114 38.5087C38.0077 38.6859 38.0146 38.8684 37.9773 39.0422C37.9433 39.3691 37.8762 39.6717 37.7944 39.9892C37.405 40.9733 36.9637 41.5827 36.108 42.207C34.9715 42.9216 33.8741 43.7108 32.7683 44.4728C32.0844 44.9441 31.3973 45.4744 30.6367 45.8141C30.1879 46.0146 29.7365 46.1181 29.2473 46.1498C28.8104 46.2308 28.1737 46.1774 27.7658 45.993C27.6396 45.8515 27.4444 45.7537 27.2855 45.6515C26.7406 45.3009 26.2242 44.9705 25.8807 44.4026C25.8055 44.3123 25.7351 44.2209 25.6763 44.1191C25.4636 43.751 25.2136 43.1994 25.3238 42.7732L25.3874 42.738C25.4462 42.8743 25.4662 43.0195 25.5125 43.1598C25.6305 43.5181 25.7894 43.8385 25.9924 44.1557C26.6154 44.8459 27.3647 45.2699 28.3139 45.3023C28.34 45.3031 28.3661 45.3026 28.3922 45.3027C29.1124 45.3566 29.711 45.1556 30.3089 44.7645C31.6629 43.8784 32.9859 42.9352 34.3247 42.0255C34.9102 41.6276 36.1371 40.8904 36.5651 40.4449C36.9298 40.0653 37.2019 39.5144 37.3029 38.9998C37.4694 38.1512 37.2208 37.3416 36.7465 36.6404L36.6207 36.4547C36.8623 36.4253 37.1033 36.383 37.3438 36.3457Z" fill="url(#paint0_linear_1080_8188)"/>
<path d="M25.3874 42.7383C25.4462 42.8745 25.4662 43.0198 25.5125 43.1601C25.6305 43.5184 25.7894 43.8387 25.9924 44.1559L25.9419 44.1798C25.7772 44.0031 25.6957 43.6222 25.5159 43.511L25.481 43.5524C25.5905 43.8464 25.7464 44.0827 25.9119 44.3465L25.8807 44.4028C25.8055 44.3126 25.7351 44.2211 25.6763 44.1194C25.4636 43.7512 25.2136 43.1996 25.3238 42.7734L25.3874 42.7383Z" fill="#F2C94C"/>
<path d="M29.2474 46.1502C29.2184 46.139 29.1917 46.1163 29.166 46.0987C29.3758 45.8553 30.2895 45.4028 30.6226 45.1725L35.0204 42.088C35.7438 41.5782 36.7865 41.0812 37.3215 40.3898C37.7328 39.858 37.7034 39.3667 37.9345 38.793C37.9797 38.8797 37.9739 38.9472 37.9774 39.0427C37.9434 39.3696 37.8763 39.6722 37.7945 39.9897C37.4051 40.9737 36.9638 41.5832 36.108 42.2074C34.9716 42.9221 33.8741 43.7113 32.7684 44.4733C32.0845 44.9446 31.3973 45.4748 30.6368 45.8145C30.188 46.0151 29.7366 46.1186 29.2474 46.1502Z" fill="#FEE8BF"/>
<path d="M29.3199 38.4072C29.4756 38.5282 29.7179 38.7539 29.9092 38.7788L30.1146 38.9451C30.3133 39.1218 30.5027 39.3039 30.6896 39.493C31.1092 40.0082 31.4615 40.5478 31.8113 41.1124C32.1134 41.807 32.4046 42.4808 32.1078 43.2385C31.7605 43.5196 31.3866 43.7661 31.0203 44.0212C30.192 44.5981 29.6984 44.9723 28.6865 45.1122C27.9613 45.0793 27.3111 44.9518 26.7134 44.514C26.6786 44.4889 26.6444 44.4629 26.6109 44.436C26.5774 44.4091 26.5445 44.3814 26.5124 44.3529C26.4802 44.3244 26.4488 44.2952 26.4181 44.2652C26.3874 44.2351 26.3574 44.2044 26.3282 44.1729C26.299 44.1413 26.2706 44.1092 26.243 44.0763C26.2154 44.0434 26.1886 44.0098 26.1626 43.9756C26.1367 43.9414 26.1116 43.9065 26.0873 43.8711C26.0631 43.8356 26.0397 43.7995 26.0172 43.7629C25.9948 43.7263 25.9732 43.6892 25.9526 43.6515C25.9319 43.6139 25.9122 43.5757 25.8935 43.5371C25.8747 43.4984 25.8569 43.4593 25.84 43.4198C25.8232 43.3803 25.8073 43.3404 25.7924 43.3001C25.7776 43.2598 25.7637 43.2192 25.7509 43.1782C25.738 43.1372 25.7261 43.0959 25.7153 43.0543C25.7044 43.0128 25.6946 42.971 25.6858 42.9289C25.6771 42.8869 25.6693 42.8447 25.6626 42.8022C25.7755 42.2857 25.7256 41.7619 25.9263 41.2582C26.3488 40.1975 27.3235 39.6842 28.2199 39.0886C28.5699 38.856 28.9331 38.5664 29.3199 38.4072Z" fill="#F2C94C"/>
<path d="M28.3016 39.5372C28.4317 39.5326 28.5426 39.5302 28.6598 39.5955C28.7651 39.6543 28.8255 39.7193 28.8607 39.837C28.8537 39.8801 28.8569 39.926 28.8399 39.9662C28.7805 40.107 28.3797 40.3473 28.2488 40.4429C27.6558 40.8762 27.134 41.3337 26.6105 41.8492C26.5291 41.878 26.4577 41.8981 26.3702 41.8841C26.2415 41.8634 26.1453 41.7899 26.0683 41.6886C26.0279 41.5338 26.0586 41.4347 26.1301 41.2978C26.4244 40.734 27.7014 39.7252 28.3016 39.5372Z" fill="#FEF69C"/>
<path d="M34.2845 35.3887C35.2733 35.5376 36.0055 35.9747 36.5998 36.7875C36.6204 36.8157 36.6405 36.8441 36.6604 36.8727C36.844 37.232 37.0309 37.5902 37.0785 37.9974C37.2072 38.7056 36.9959 39.5189 36.5768 40.0994C36.1758 40.6548 33.1408 42.6585 32.3812 43.1218C32.464 42.6942 32.4339 42.3241 32.3513 41.9008C32.2558 41.5931 32.1423 41.2854 31.9702 41.0117C31.8116 40.5325 31.1864 39.7303 30.8193 39.366C30.6848 39.2032 30.5237 39.0567 30.3748 38.907C30.0706 38.6189 29.7477 38.3582 29.4219 38.0955C29.7673 37.9323 30.1035 37.6722 30.4222 37.46C31.0168 37.0681 31.6073 36.6702 32.1937 36.2663C32.4014 36.1782 32.6407 35.9832 32.8162 35.8395C33.3364 35.5805 33.6923 35.4388 34.2845 35.3887Z" fill="#4FDB40"/>
<path d="M39.3348 43.3416C39.7724 43.2373 40.1927 43.2232 40.6399 43.2408C41.0791 43.2687 41.7006 43.4212 42.0577 43.6889C42.6723 43.9876 43.1872 44.4844 43.566 45.0486C44.0863 45.8762 44.4242 46.7081 44.4713 47.6931C44.4553 48.0095 44.4465 48.3374 44.3641 48.6452L44.3358 48.8049C44.2424 49.0819 44.1603 49.4323 43.9996 49.6751C43.8326 50.0886 43.5359 50.4629 43.2054 50.759C42.5853 51.3151 41.8108 51.7703 41.128 52.2513C40.1567 52.9362 39.1786 53.6113 38.1937 54.2765C37.5707 54.7005 36.9254 55.2133 36.2302 55.5098C35.3277 55.8948 34.1864 55.8068 33.2917 55.4406C32.9044 55.2822 32.5014 55.0636 32.1865 54.7856C31.4776 54.3588 30.9616 53.3806 30.672 52.639C30.6455 52.5449 30.6205 52.4505 30.5969 52.3556C30.5796 52.285 30.5641 52.2141 30.5503 52.1427C30.5366 52.0714 30.5246 51.9997 30.5145 51.9277C30.5043 51.8558 30.4959 51.7837 30.4893 51.7113C30.4827 51.6389 30.4779 51.5664 30.4749 51.4938C30.4719 51.4212 30.4707 51.3486 30.4714 51.2759C30.472 51.2033 30.4744 51.1307 30.4787 51.0581C30.4829 50.9856 30.4889 50.9132 30.4967 50.841C30.5046 50.7688 30.5142 50.6968 30.5256 50.625C30.5371 50.5532 30.5503 50.4818 30.5653 50.4107C30.5802 50.3395 30.5969 50.2688 30.6154 50.1986C30.6339 50.1283 30.6541 50.0586 30.676 49.9893C30.698 49.92 30.7217 49.8513 30.7471 49.7833C30.7724 49.7151 30.7995 49.6477 30.8282 49.581C30.8569 49.5142 30.8873 49.4482 30.9193 49.383C30.9513 49.3178 30.9849 49.2534 31.0201 49.1898C31.0553 49.1262 31.0921 49.0636 31.1304 49.0019C31.3461 48.6516 31.6413 48.3194 31.9574 48.0569C32.3365 47.7421 32.7717 47.4751 33.1803 47.1992L35.2942 45.7798C36.2613 45.1297 37.3069 44.3184 38.3044 43.7548C38.6356 43.5676 38.9647 43.4297 39.3348 43.3416Z" fill="#2D2D2D"/>
<path d="M40.5858 43.3955C41.1217 43.4895 41.5842 43.6513 42.0726 43.8907C42.6133 44.2562 43.0196 44.6354 43.4039 45.1624C43.175 45.3816 43.0193 45.6079 42.8786 45.8905C42.6065 45.5056 42.2177 45.0934 41.7826 44.8975C41.425 44.6426 40.9582 44.5672 40.5354 44.4965C40.0551 44.5011 39.6077 44.5677 39.1679 44.7714C38.6748 44.9999 38.2073 45.3631 37.7586 45.6699L35.494 47.22L33.3522 48.658C33.0177 48.8852 32.6128 49.1131 32.3304 49.4011C32.3111 49.4207 32.2928 49.4413 32.2747 49.462C32.0243 49.7189 31.7747 50.0461 31.6579 50.3893C31.5343 50.7246 31.4593 51.0494 31.4336 51.4063C31.4215 51.8113 31.4293 52.2125 31.5679 52.5986C31.5457 53.1829 31.9979 53.9373 32.3843 54.3538C32.7358 54.7325 33.1958 55.0573 33.683 55.2321C34.3972 55.455 35.0878 55.2594 35.7487 54.9663C36.5927 54.592 37.4097 53.8243 38.1766 53.2961L41.1509 51.2582C41.7491 50.8482 42.3958 50.446 42.9474 49.9751C43.174 49.7816 43.3857 49.552 43.5712 49.319C43.7056 49.1503 43.8734 48.8047 44.0424 48.6882C44.0765 48.6646 44.1207 48.6607 44.1598 48.647C44.0301 49.1954 43.8066 49.665 43.5236 50.1504C43.3265 50.3642 43.1311 50.5961 42.904 50.7786C42.1588 51.3779 41.2923 51.8842 40.5064 52.4349L38.0954 54.1018C37.5404 54.4857 36.9745 54.9229 36.3726 55.2271C35.9586 55.4364 35.5879 55.5361 35.1237 55.5528C34.631 55.5704 34.1658 55.4811 33.6985 55.3314C33.191 55.1478 32.7551 54.9265 32.3179 54.6084C31.6738 54.0627 31.204 53.4401 30.906 52.6469C30.8914 52.6083 30.8772 52.5694 30.8636 52.5304C30.5188 51.5547 30.654 50.4443 31.0968 49.5231C31.3122 49.0754 31.5786 48.6977 31.9452 48.3613C32.3688 47.9726 32.8618 47.6647 33.3358 47.3422L35.3397 45.9862L37.2979 44.6567C37.6572 44.4122 38.0138 44.1421 38.3905 43.9259C38.7062 43.7446 39.0623 43.6218 39.4047 43.5019C39.804 43.4125 40.1766 43.3954 40.5858 43.3955Z" fill="white"/>
<path d="M32.2747 49.4616C32.2928 49.4409 32.3111 49.4203 32.3304 49.4007C32.6128 49.1127 33.0178 48.8848 33.3523 48.6576L35.4941 47.2195L37.7586 45.6695C38.2074 45.3627 38.6749 44.9995 39.1679 44.771C39.6078 44.5673 40.0551 44.5007 40.5355 44.4961C40.9582 44.5667 41.425 44.6422 41.7826 44.8971C42.2178 45.093 42.6065 45.5052 42.8787 45.8901C43.0194 45.6074 43.175 45.3812 43.4039 45.162C43.9196 45.9587 44.2305 46.8298 44.2622 47.7841C44.2443 48.0481 44.1891 48.3256 44.1856 48.587L44.1599 48.6466C44.1207 48.6603 44.0766 48.6641 44.0425 48.6877C43.8735 48.8043 43.7057 49.1498 43.5713 49.3186C43.3857 49.5516 43.1741 49.7812 42.9475 49.9747C42.3959 50.4456 41.7492 50.8478 41.151 51.2578L38.1767 53.2956C37.4097 53.8239 36.5928 54.5916 35.7488 54.9659C35.0878 55.259 34.3972 55.4546 33.6831 55.2316C33.1958 55.0569 32.7358 54.732 32.3844 54.3534C31.9979 53.9369 31.5457 53.1825 31.568 52.5982C31.4294 52.212 31.4215 51.8109 31.4337 51.4059C31.4593 51.049 31.5343 50.7241 31.6579 50.3888C31.7748 50.0457 32.0243 49.7185 32.2747 49.4616Z" fill="#2D2D2D"/>
<path d="M32.6929 49.3531C32.8625 49.2943 33.0634 49.1196 33.2162 49.0147C33.804 48.6111 34.6991 47.8927 35.3101 47.6162C34.9103 48.3351 32.835 49.2683 32.2401 50.0893C31.9659 50.4675 31.8265 50.9666 31.7774 51.4265C31.7631 51.5605 31.7842 51.7734 31.7204 51.8866L31.646 51.8891L31.6655 51.9136L31.6549 51.9169C31.6414 51.7177 31.6489 51.5139 31.6477 51.3141C31.7094 51.1181 31.7232 50.8804 31.7759 50.6755C31.9466 50.1504 32.2522 49.6889 32.6929 49.3531Z" fill="white"/>
<path d="M43.4041 45.1621C43.9197 45.9588 44.2307 46.83 44.2624 47.7842C44.2444 48.0483 44.1893 48.3257 44.1858 48.5871L44.16 48.6467C44.1209 48.6605 44.0768 48.6643 44.0426 48.6879C43.8736 48.8045 43.7058 49.15 43.5715 49.3188C43.3859 49.5517 43.1743 49.7813 42.9476 49.9748C42.3961 50.4457 41.7493 50.848 41.1511 51.258L38.1768 53.2958C37.4099 53.8241 36.5929 54.5917 35.749 54.966C35.088 55.2591 34.3974 55.4548 33.6833 55.2318C33.196 55.057 32.736 54.7322 32.3846 54.3535C31.9981 53.937 31.5459 53.1827 31.5682 52.5984C31.9149 53.4051 32.5234 54.0617 33.3465 54.3945C33.7685 54.5651 34.1934 54.6184 34.6453 54.6287C35.0197 54.585 35.3677 54.5382 35.7099 54.3684C36.283 54.0838 36.8238 53.6253 37.3593 53.2662C38.3647 52.5971 39.3594 51.9123 40.3432 51.2117C40.7615 50.9177 41.2019 50.6459 41.6045 50.3314C41.6176 50.3271 41.6316 50.3248 41.644 50.3187C42.3761 49.9636 43.0372 49.2023 43.2604 48.4198C43.5127 47.5355 43.3179 46.6758 42.8789 45.8902C43.0196 45.6076 43.1752 45.3813 43.4041 45.1621Z" fill="#F2C94C"/>
<path d="M40.2482 44.6816C40.7378 44.6901 41.1449 44.7948 41.5971 44.9801C42.0431 45.2596 42.3387 45.5356 42.639 45.9659C43.0599 46.5048 43.2011 47.3298 43.1216 47.9999C43.0299 48.7731 42.5579 49.4118 41.954 49.8784C41.8453 49.9626 41.7061 50.0385 41.6095 50.132C40.6208 50.7124 39.7115 51.4349 38.754 52.0661C38.7608 51.4429 38.6663 50.9803 38.3994 50.4119C38.1152 49.8186 37.7791 49.2975 37.3651 48.7864C36.8356 48.2376 36.322 47.6751 35.5903 47.4034C36.3735 46.8941 37.1296 46.3376 37.8996 45.8078C38.3457 45.5008 38.7909 45.1674 39.2859 44.9433C39.6026 44.7998 39.9045 44.7259 40.2482 44.6816Z" fill="#4FDB40"/>
<path d="M41.9062 46.1004C41.9097 45.9805 41.8986 45.8618 41.9647 45.7568C42.0948 45.8551 42.2033 46.284 42.227 46.4524C42.2478 46.6 42.2368 46.7541 42.2507 46.904C42.2304 47.1304 42.2188 47.3234 42.0453 47.4875C42.026 47.5058 42.0044 47.5214 41.984 47.5383C41.903 47.0844 41.926 46.5637 41.9062 46.1004Z" fill="white"/>
<path d="M35.3009 47.5693C36.5501 47.9647 37.4837 49.0768 38.0759 50.2108C38.3954 50.8226 38.6572 51.5207 38.5072 52.2193C37.945 52.618 37.3766 53.0076 36.8019 53.388C36.3651 53.6828 35.931 54.0303 35.4397 54.2285C35.1321 54.3526 34.8334 54.397 34.5053 54.4186C34.4226 54.4071 34.3401 54.3953 34.2576 54.383C33.6964 54.3046 33.1684 54.1116 32.7158 53.7646C32.1059 53.2972 31.7572 52.6739 31.6549 51.917L31.6655 51.9137L31.646 51.8892L31.7204 51.8867C31.7842 51.7735 31.7631 51.5606 31.7774 51.4266C31.8265 50.9667 31.9659 50.4676 32.2401 50.0893C32.835 49.2684 34.9103 48.3352 35.3101 47.6163L35.3009 47.5693Z" fill="#F2C94C"/>
<path d="M34.4418 48.7822C34.5117 48.7872 34.5755 48.7929 34.6368 48.8316C34.6943 48.8679 34.7367 48.9106 34.7558 48.9756C34.7911 49.0958 34.7646 49.198 34.7089 49.3059C34.6482 49.4233 34.5645 49.5274 34.4745 49.6235C34.2173 49.898 33.8978 50.1183 33.6235 50.3768C33.3401 50.644 33.0769 50.96 32.7739 51.2034C32.6721 51.2852 32.5569 51.3307 32.4344 51.3721C32.2962 51.3421 32.218 51.3002 32.1349 51.1851C32.1171 51.0796 32.1202 51.0104 32.1596 50.9095C32.4166 50.2516 33.7981 49.0711 34.4418 48.7822Z" fill="#FEF69C"/>
<path d="M40.5826 16.3363C41.1842 16.1777 42.1274 16.2129 42.7155 16.4187C43.1225 16.516 43.4978 16.6827 43.8498 16.9085C43.9102 16.9475 43.9696 16.9879 44.0281 17.0299C44.0865 17.0718 44.1438 17.1151 44.2 17.1599C44.2563 17.2047 44.3114 17.2508 44.3654 17.2983C44.4194 17.3458 44.4721 17.3946 44.5237 17.4447C44.5752 17.4948 44.6255 17.5462 44.6745 17.5988C44.7235 17.6514 44.7712 17.7052 44.8175 17.7602C44.8638 17.8151 44.9088 17.8712 44.9524 17.9285C44.9959 17.9856 45.038 18.0439 45.0786 18.1031C45.1193 18.1625 45.1585 18.2228 45.1961 18.284C45.2338 18.3452 45.27 18.4073 45.3046 18.4704C45.3391 18.5334 45.3721 18.5973 45.4035 18.6619C45.435 18.7266 45.4647 18.792 45.4929 18.8581C45.5211 18.9243 45.5476 18.9911 45.5724 19.0585C45.5973 19.126 45.6205 19.194 45.642 19.2627C45.6635 19.3313 45.6833 19.4004 45.7013 19.4699C45.7193 19.5395 45.7357 19.6095 45.7503 19.6799C45.9782 20.758 45.7077 21.9034 45.1065 22.8177C45.0031 22.9739 44.8888 23.1217 44.7636 23.2611C44.6385 23.4005 44.5039 23.5301 44.3597 23.6497C43.9435 23.9987 43.4703 24.2952 43.0272 24.6103C42.1304 25.2538 41.2253 25.8854 40.3119 26.5051C39.5285 27.0384 38.6527 27.7184 37.838 28.1668C37.7513 28.2155 37.6628 28.2605 37.5725 28.3019C37.4822 28.3434 37.3904 28.3811 37.297 28.415C37.2036 28.449 37.109 28.4791 37.0132 28.5053C36.9173 28.5316 36.8206 28.5539 36.7229 28.5723C36.6555 28.5855 36.5878 28.597 36.5198 28.6069C36.4518 28.6167 36.3836 28.6249 36.3152 28.6314C36.2467 28.638 36.1782 28.6428 36.1096 28.646C36.041 28.6491 35.9723 28.6506 35.9035 28.6504C35.8348 28.6503 35.7662 28.6484 35.6976 28.6448C35.629 28.6412 35.5605 28.636 35.4921 28.6291C35.4238 28.6222 35.3556 28.6136 35.2877 28.6033C35.2197 28.593 35.1521 28.5811 35.0847 28.5675C35.0173 28.554 34.9503 28.5388 34.8838 28.5219C34.8172 28.505 34.751 28.4866 34.6853 28.4665C34.6195 28.4464 34.5544 28.4247 34.4897 28.4013C34.4251 28.3781 34.361 28.3532 34.2976 28.3268C34.2342 28.3004 34.1715 28.2724 34.1094 28.2429C34.0474 28.2134 33.9861 28.1824 33.9255 28.1499C33.865 28.1174 33.8053 28.0834 33.7464 28.0479C33.6876 28.0125 33.6296 27.9756 33.5725 27.9374C32.5901 27.2659 31.9587 26.1825 31.7435 25.0223C31.5402 23.9266 31.7457 22.771 32.3805 21.8485C32.4853 21.6976 32.6002 21.5549 32.7252 21.4202C32.8501 21.2855 32.9839 21.1603 33.1265 21.0445C33.6002 20.6557 34.1273 20.3305 34.6344 19.9877C35.3439 19.4993 36.0561 19.0149 36.771 18.5343C37.6437 17.9453 38.5163 17.25 39.4389 16.7481C39.8038 16.5495 40.1746 16.4131 40.5826 16.3363Z" fill="#2D2D2D"/>
<path d="M40.699 16.5154C41.2994 16.373 41.9102 16.4636 42.5108 16.5575C43.0024 16.7092 43.4579 16.8917 43.8842 17.1854C43.9385 17.223 43.9918 17.2619 44.0442 17.3021C44.0966 17.3422 44.148 17.3837 44.1983 17.4264C44.2488 17.4691 44.2981 17.513 44.3463 17.5581C44.3945 17.6032 44.4416 17.6494 44.4876 17.6968C44.5336 17.7442 44.5784 17.7927 44.622 17.8423C44.6657 17.8918 44.7081 17.9424 44.7492 17.9941C44.7903 18.0457 44.8302 18.0983 44.8688 18.1519C44.9074 18.2055 44.9447 18.26 44.9807 18.3154C45.0166 18.3708 45.0512 18.427 45.0844 18.4841C45.1176 18.5412 45.1494 18.5991 45.1797 18.6577C45.2101 18.7163 45.239 18.7757 45.2665 18.8357C45.294 18.8957 45.3201 18.9564 45.3446 19.0178C45.3692 19.0791 45.3922 19.1409 45.4137 19.2033C45.4352 19.2658 45.4552 19.3287 45.4737 19.3921C45.4922 19.4555 45.5091 19.5193 45.5244 19.5836C45.5398 19.6478 45.5536 19.7123 45.5658 19.7772C45.7555 20.8124 45.492 21.9224 44.8853 22.7807C44.696 23.0486 44.458 23.2808 44.2059 23.4892C43.7799 23.8412 43.3098 24.1525 42.8603 24.4738C41.9341 25.1366 40.9991 25.7869 40.0554 26.4246C39.2794 26.9546 38.4962 27.5786 37.6703 28.0238C37.3152 28.2151 36.911 28.3502 36.5129 28.4145C36.4504 28.4245 36.3877 28.433 36.3248 28.44C36.2619 28.4469 36.1989 28.4523 36.1357 28.4561C36.0725 28.4599 36.0093 28.4621 35.946 28.4628C35.8827 28.4635 35.8194 28.4626 35.7562 28.4601C35.6929 28.4577 35.6298 28.4537 35.5668 28.4481C35.5037 28.4425 35.4408 28.4354 35.3781 28.4267C35.3154 28.418 35.253 28.4077 35.1908 28.396C35.1287 28.3842 35.0668 28.3709 35.0052 28.3561C34.9437 28.3412 34.8826 28.3249 34.8219 28.307C34.7611 28.2891 34.7009 28.2698 34.6412 28.2489C34.5814 28.2281 34.5221 28.2058 34.4635 28.182C34.4049 28.1582 34.3468 28.133 34.2894 28.1064C34.232 28.0797 34.1753 28.0517 34.1193 28.0222C34.0632 27.9927 34.008 27.9619 33.9535 27.9297C33.899 27.8975 33.8453 27.864 33.7925 27.8292C33.7396 27.7943 33.6877 27.7582 33.6366 27.7208C32.6933 27.0385 32.1002 26.0064 31.9232 24.8621C31.9125 24.7959 31.9035 24.7294 31.8962 24.6627C31.8888 24.596 31.8831 24.5292 31.8791 24.4623C31.8752 24.3953 31.8729 24.3283 31.8722 24.2612C31.8716 24.1941 31.8727 24.1271 31.8754 24.0601C31.8781 23.9931 31.8826 23.9262 31.8887 23.8593C31.8947 23.7926 31.9025 23.726 31.9119 23.6596C31.9214 23.5932 31.9325 23.527 31.9452 23.4611C31.958 23.3953 31.9724 23.3298 31.9884 23.2647C32.0045 23.1995 32.0221 23.1349 32.0414 23.0706C32.0607 23.0064 32.0815 22.9426 32.104 22.8794C32.1265 22.8162 32.1506 22.7537 32.1762 22.6917C32.2018 22.6297 32.2289 22.5684 32.2576 22.5077C32.2863 22.4471 32.3165 22.3872 32.3483 22.3281C32.38 22.269 32.4132 22.2107 32.4478 22.1532C32.4824 22.0958 32.5184 22.0393 32.5559 21.9836C32.5934 21.928 32.6322 21.8733 32.6724 21.8197C32.8372 21.5981 33.0222 21.4028 33.2369 21.2292C33.7637 20.8035 34.3476 20.4405 34.9061 20.0575C35.7674 19.467 36.6226 18.8709 37.4923 18.2927C38.1757 17.8384 38.8385 17.3057 39.557 16.9125C39.9147 16.7168 40.2954 16.5771 40.699 16.5154Z" fill="white"/>
<path d="M44.6559 20.5029C44.8875 20.8746 44.9877 21.3122 44.8919 21.7444C44.8063 22.1307 44.5613 22.6029 44.2872 22.888C43.5683 23.6355 42.5791 24.1475 41.7359 24.7467C40.3357 25.7418 38.9695 26.8375 37.4955 27.7234C36.7992 28.1418 35.9566 28.2918 35.1677 28.0881C34.3109 27.8668 33.5734 27.2587 33.1275 26.5004C32.9154 26.1399 32.6956 25.5382 32.6836 25.1193L32.7448 25.0166C32.9651 25.9118 33.4181 26.6378 34.2194 27.1253C34.5153 27.3053 34.8276 27.4257 35.1635 27.5063C35.4453 27.5669 35.7266 27.5838 36.0143 27.5814C36.4946 27.5225 36.9424 27.4138 37.3746 27.1882C37.7633 26.9854 38.1277 26.6839 38.4836 26.4283C39.1933 25.9251 39.8942 25.4098 40.5861 24.8823C41.5063 24.1902 42.4625 23.542 43.3734 22.8384C44.2112 22.1912 44.5247 21.545 44.6559 20.5029Z" fill="#F2C94C"/>
<path d="M37.3073 19.6647C37.78 19.331 38.2618 19.0097 38.7293 18.6688C39.8003 17.8881 40.7272 17.1456 42.1352 17.3828C42.1852 17.3914 42.2351 17.4013 42.2846 17.4124C42.3342 17.4234 42.3834 17.4357 42.4325 17.4491C42.4814 17.4626 42.53 17.4772 42.5782 17.4931C42.6265 17.509 42.6743 17.526 42.7218 17.5442C42.7692 17.5625 42.8161 17.5818 42.8625 17.6024C42.909 17.6229 42.9549 17.6445 43.0004 17.6673C43.0457 17.69 43.0905 17.7139 43.1347 17.7389C43.1789 17.7639 43.2225 17.7899 43.2655 17.817C43.3084 17.8441 43.3507 17.8723 43.3922 17.9015C43.4338 17.9307 43.4746 17.9608 43.5147 17.992C43.5548 18.0232 43.5941 18.0554 43.6326 18.0885C43.6711 18.1216 43.7088 18.1557 43.7456 18.1906C43.7824 18.2256 43.8184 18.2615 43.8535 18.2982C43.8885 18.3349 43.9227 18.3725 43.9559 18.4109C43.9891 18.4494 44.0214 18.4886 44.0527 18.5286C44.084 18.5685 44.1143 18.6093 44.1436 18.6508C44.5419 19.2213 44.6555 19.8199 44.6561 20.5037C44.5248 21.5458 44.2114 22.192 43.3736 22.8391C42.4626 23.5427 41.5064 24.1909 40.5862 24.8831C39.8943 25.4105 39.1935 25.9258 38.4837 26.4291C38.1278 26.6846 37.7634 26.9862 37.3747 27.189C36.9425 27.4145 36.4947 27.5232 36.0144 27.5822C35.7268 27.5845 35.4454 27.5677 35.1636 27.507C34.8277 27.4265 34.5154 27.306 34.2195 27.126C33.4182 26.6385 32.9652 25.9125 32.7449 25.0174C32.6541 24.5999 32.6984 24.1245 32.794 23.7101C32.8071 23.6512 32.822 23.5929 32.8387 23.535C32.8554 23.4771 32.8739 23.4197 32.8942 23.363C32.9145 23.3063 32.9365 23.2502 32.9604 23.1948C32.9841 23.1394 33.0096 23.0849 33.0368 23.0311C33.064 22.9773 33.0929 22.9244 33.1234 22.8724C33.1539 22.8205 33.186 22.7695 33.2197 22.7195C33.2534 22.6696 33.2886 22.6207 33.3254 22.5729C33.3621 22.5251 33.4003 22.4786 33.44 22.4332C33.9993 21.7979 34.8703 21.3323 35.5664 20.855C36.1445 20.4588 36.712 20.034 37.3073 19.6647Z" fill="#2D2D2D"/>
<path d="M37.4623 19.7985C38.8839 18.9161 40.4179 17.1718 42.2244 17.6065C42.9684 17.7856 43.6494 18.2221 44.0467 18.8848C44.438 19.5375 44.5369 20.2889 44.3545 21.0253C44.3431 21.0709 44.3303 21.116 44.3161 21.1606C44.1989 21.5503 44.0294 21.9042 43.7611 22.2136C43.3412 22.6976 42.7179 23.0621 42.1998 23.4341L40.4662 24.6955L40.2576 24.24L39.9752 23.6609C39.7403 23.2416 39.508 22.7879 39.1972 22.4204C38.9308 21.7898 37.7379 20.598 37.2456 20.0281L37.253 19.9534L37.4623 19.7985Z" fill="#4FDB40"/>
<path d="M37.0026 20.1494C37.4058 20.6369 37.8908 21.0483 38.2723 21.5558C38.6508 22.0001 38.9827 22.4724 39.3124 22.9532C39.5904 23.4393 39.8827 23.9157 40.1204 24.4235C40.1858 24.5539 40.2465 24.6906 40.3198 24.8166C39.5119 25.4135 37.8737 26.7535 37.0126 27.1152C36.6333 27.2744 36.2609 27.3393 35.8525 27.3663C35.5836 27.3684 35.3232 27.3215 35.064 27.2542C34.9178 27.2053 34.7749 27.1535 34.6358 27.0868C33.8927 26.7302 33.3625 26.1805 33.084 25.4033L33.0115 25.1864C32.9804 24.5625 32.8723 24.3126 33.0387 23.6526C33.269 22.7391 33.8805 22.232 34.6558 21.7633C35.4194 21.2161 36.1851 20.6114 37.0026 20.1494Z" fill="#F2C94C"/>
<path d="M33.7934 24.3027C33.9011 24.3067 33.9815 24.3098 34.0628 24.3946C34.091 24.4241 34.1069 24.4569 34.1263 24.4916C34.0688 24.6639 34.0056 24.9745 33.8384 25.0711C33.7837 25.1027 33.7156 25.1048 33.6544 25.111C33.6512 24.831 33.7221 24.5706 33.7934 24.3027Z" fill="white"/>
<path d="M34.1134 22.9258C34.2151 23.0829 34.2188 23.2074 34.1806 23.3896C34.1139 23.7069 33.8045 23.9547 33.7558 24.2453C33.6742 24.2835 33.6261 24.3097 33.5349 24.2995L33.4841 24.2132C33.4727 24.0591 33.4995 23.9161 33.5443 23.7684C33.6492 23.4227 33.7792 23.0987 34.1134 22.9258Z" fill="white"/>
<path d="M50.524 35.724C50.698 35.584 50.8752 35.4482 51.0556 35.3165C52.2856 34.4097 53.174 33.9558 54.7349 34.1915C55.9014 34.5054 56.8056 35.0466 57.4235 36.1156C57.6201 36.4558 57.7824 36.8231 57.9211 37.1905C58.0014 37.4969 58.083 37.799 58.1238 38.1139C58.1461 38.3805 58.1642 38.644 58.1653 38.9116C58.1285 39.1985 58.1057 39.4979 58.0316 39.7772C57.8742 40.5436 57.546 41.2385 57.0317 41.8301C56.3589 42.6039 55.3776 43.1097 54.5457 43.6969C53.4985 44.436 52.4688 45.2133 51.396 45.9146C50.3351 46.6081 49.2488 46.8389 48.0006 46.5748C46.8024 46.3215 45.7631 45.6753 45.1012 44.6372C44.9864 44.4542 44.8792 44.2668 44.7797 44.075C44.5593 43.6606 44.4528 43.1887 44.3543 42.734C44.3189 42.1506 44.3383 41.6555 44.4775 41.0873C44.5093 40.9308 44.574 40.7763 44.6265 40.6255C44.8106 40.1222 45.1618 39.6554 45.5446 39.2854C46.1812 38.6701 46.9817 38.2128 47.7048 37.706C48.6459 37.0464 49.5652 36.3594 50.524 35.724Z" fill="#2D2D2D"/>
<path d="M57.3049 40.5673C57.427 40.3224 57.6007 39.7774 57.8271 39.6416C57.7724 39.9872 57.6645 40.3056 57.5303 40.6279C57.2936 41.1165 57.0165 41.5743 56.6188 41.9501C55.9618 42.571 55.1019 43.0481 54.3595 43.5665C53.2662 44.33 52.1897 45.1564 51.0608 45.8636C50.8089 46.0214 50.5531 46.167 50.2715 46.2649C49.751 46.4458 49.1753 46.5171 48.6274 46.448C48.8489 46.2451 49.3121 46.2498 49.6053 46.1743C49.8578 46.1094 50.1192 46.0254 50.351 45.9053C50.8733 45.6346 51.3678 45.2753 51.8566 44.9481C53.0249 44.1712 54.1651 43.355 55.2772 42.4996C55.7424 42.1484 56.2659 41.8286 56.6867 41.4242C56.9441 41.1768 57.1239 40.8716 57.3049 40.5673Z" fill="white"/>
<path d="M57.6286 37.0322C57.7788 37.5335 57.8667 38.0151 57.9229 38.5346C57.9197 38.8366 57.8556 39.1936 57.8862 39.4855L57.8274 39.6414C57.601 39.7771 57.4273 40.3221 57.3052 40.5671C57.1242 40.8714 56.9444 41.1765 56.687 41.4239C56.2662 41.8283 55.7427 42.1482 55.2775 42.4993C54.1654 43.3548 53.0252 44.171 51.8569 44.9478C51.3681 45.275 50.8736 45.6343 50.3513 45.905C50.1195 46.0251 49.8581 46.1092 49.6056 46.1741C49.3124 46.2496 48.8492 46.2449 48.6278 46.4478C48.3125 46.4519 47.9605 46.3647 47.6612 46.2705C46.3738 45.8652 45.5375 45.0671 44.9224 43.8854C45.1295 43.7334 45.285 43.56 45.4486 43.3645C45.7467 44.2304 46.2267 44.9364 47.0698 45.3477C47.1753 45.3984 47.2831 45.4435 47.3933 45.4829C47.5035 45.5225 47.6154 45.5561 47.7291 45.5839C47.8428 45.6118 47.9576 45.6337 48.0735 45.6496C48.1895 45.6656 48.306 45.6755 48.423 45.6793C48.8492 45.7082 49.3009 45.6801 49.6981 45.5116C50.2581 45.2741 50.7846 44.8339 51.2763 44.4781L53.1438 43.1337C54.0762 42.4679 55.068 41.8366 55.9735 41.1421C56.7193 40.5699 57.0973 39.8582 57.2225 38.9311C57.2364 38.7338 57.2415 38.5232 57.2087 38.3276C57.1965 38.2545 57.1941 38.1971 57.2031 38.1225L57.2713 38.1058C57.4289 37.7831 57.5506 37.382 57.6286 37.0322Z" fill="#F2C94C"/>
<path d="M50.6452 35.8469C51.0863 35.5867 51.4883 35.2342 51.9198 34.9541C52.81 34.3762 53.7222 34.2113 54.7606 34.432C55.8147 34.6872 56.6228 35.2241 57.1981 36.1579C57.3701 36.437 57.5075 36.7277 57.6285 37.0318C57.5506 37.3816 57.4288 37.7827 57.2712 38.1054L57.2031 38.122L57.1691 37.9881C57.0652 37.5164 56.8878 37.0909 56.5937 36.7047C56.0773 36.0267 55.2898 35.522 54.4409 35.4035C53.9722 35.3436 53.5416 35.4269 53.1058 35.6053C52.4075 35.8913 51.7172 36.4861 51.096 36.9206C50.5131 37.3283 49.9049 37.7191 49.3402 38.1506C49.3129 38.1719 49.2859 38.1935 49.2592 38.2155C48.4433 38.7119 46.8715 39.6875 46.2306 40.3278C46.1671 40.3917 46.1064 40.4582 46.0484 40.5273C45.9905 40.5963 45.9355 40.6676 45.8835 40.7413C45.8315 40.8149 45.7828 40.8906 45.7372 40.9683C45.6916 41.046 45.6493 41.1255 45.6103 41.2068C45.5475 41.3616 45.4834 41.5128 45.4416 41.6749C45.4048 41.842 45.3656 42.0074 45.3456 42.1775C45.3395 42.3519 45.3102 42.5581 45.3561 42.7267C45.3517 42.9488 45.3951 43.1502 45.4485 43.3641C45.2849 43.5596 45.1294 43.733 44.9223 43.885C44.7492 43.4962 44.6198 43.1306 44.542 42.7115C44.4593 42.1787 44.511 41.7013 44.6393 41.181C44.6734 41.0341 44.738 40.8831 44.7862 40.7394C44.9917 40.2994 45.2198 39.9033 45.5527 39.5454C46.1573 38.8956 46.9752 38.4448 47.7013 37.9435C48.3078 37.5249 48.8954 37.0788 49.5026 36.6614C49.8818 36.4007 50.3092 36.1628 50.6452 35.8469Z" fill="white"/>
<path d="M49.259 38.216C49.2858 38.194 49.3127 38.1724 49.34 38.1511C49.9047 37.7196 50.5129 37.3288 51.0958 36.9211C51.717 36.4866 52.4073 35.8918 53.1056 35.6058C53.5414 35.4274 53.972 35.3441 54.4408 35.404C55.2896 35.5226 56.0771 36.0272 56.5935 36.7052C56.8876 37.0914 57.065 37.5169 57.1689 37.9886L57.2029 38.1226C57.1938 38.1972 57.1962 38.2546 57.2084 38.3277C57.2412 38.5233 57.2362 38.7339 57.2222 38.9312C57.097 39.8583 56.719 40.57 55.9732 41.1422C55.0677 41.8367 54.0759 42.4679 53.1435 43.1338L51.276 44.4782C50.7844 44.834 50.2578 45.2742 49.6979 45.5117C49.3006 45.6802 48.8489 45.7083 48.4227 45.6793C48.3057 45.6755 48.1893 45.6657 48.0733 45.6497C47.9573 45.6338 47.8425 45.6119 47.7288 45.584C47.6152 45.5562 47.5032 45.5226 47.393 45.483C47.2829 45.4435 47.175 45.3985 47.0695 45.3478C46.2265 44.9365 45.7465 44.2305 45.4483 43.3646C45.3949 43.1507 45.3515 42.9493 45.3559 42.7272C45.31 42.5586 45.3393 42.3524 45.3455 42.178C45.3655 42.0079 45.4046 41.8425 45.4414 41.6754C45.4833 41.5133 45.5473 41.3621 45.6101 41.2073C45.6491 41.126 45.6914 41.0465 45.737 40.9688C45.7826 40.8911 45.8314 40.8154 45.8833 40.7418C45.9353 40.6681 45.9903 40.5968 46.0483 40.5278C46.1062 40.4587 46.1669 40.3922 46.2305 40.3283C46.8713 39.688 48.4431 38.7124 49.259 38.216Z" fill="#2D2D2D"/>
<path d="M56.9972 38.5898C56.994 38.7795 56.9996 38.974 56.9809 39.1627C56.8468 39.6752 56.6557 40.1598 56.3114 40.5707C55.819 41.1582 54.8723 41.6409 54.237 42.0818C53.6145 42.5139 53.0094 42.9807 52.375 43.3946C52.4373 43.044 52.4799 42.7409 52.4277 42.3839C53.122 41.9287 53.7926 41.4348 54.4697 40.9542C55.0889 40.5148 55.7693 40.0929 56.302 39.5477C56.5847 39.2585 56.7955 38.9381 56.9972 38.5898Z" fill="#358B4C"/>
<path d="M54.1504 35.584C54.4466 35.6295 54.7258 35.6738 55.0068 35.7827C55.8608 36.1681 56.5103 36.738 56.84 37.6317L56.8666 37.7059C56.8889 37.8012 56.9044 37.9232 56.9421 38.0119L56.9975 38.5902C56.7958 38.9385 56.585 39.2589 56.3023 39.5481C55.7696 40.0933 55.0892 40.5152 54.47 40.9546C53.7929 41.4352 53.1223 41.9291 52.4279 42.3843C52.3015 41.8038 52.0284 40.8584 51.5579 40.4628C51.1526 39.7569 50.1604 38.8752 49.4072 38.5627L49.2495 38.4625C49.5787 38.2801 49.8876 38.0387 50.1963 37.8229L51.9031 36.617C52.3436 36.3052 52.7876 35.9737 53.2913 35.7705C53.5783 35.6548 53.844 35.6094 54.1504 35.584Z" fill="#4FDB40"/>
<path d="M47.427 39.6763C47.7513 39.4306 48.7364 38.7141 49.1006 38.6133C49.4967 38.8324 49.8731 39.0641 50.2312 39.3417C50.4514 39.543 51.0224 40.1953 51.2133 40.3182C51.7694 41.0967 52.3731 42.0456 52.2112 43.052C52.1802 43.2397 52.1368 43.4245 52.0811 43.6063C51.3991 44.1058 50.278 45.0532 49.5223 45.3313C49.2293 45.4391 48.9436 45.4712 48.6335 45.4787C48.0685 45.4444 47.5483 45.3596 47.0453 45.0848C46.2702 44.6615 45.8528 43.9427 45.6053 43.1205L45.5474 42.6916L45.5525 42.1569L45.5994 41.8447C45.6407 41.6552 45.7104 41.476 45.7765 41.2941C46.1405 40.5897 46.7263 40.0466 47.427 39.6763Z" fill="#F2C94C"/>
<path d="M46.4948 40.8936C46.5564 40.8946 46.6189 40.9018 46.6804 40.9064C46.7202 40.9521 46.7337 40.9555 46.7431 41.0195C46.7836 41.2943 46.534 41.7193 46.3822 41.9418C46.2589 41.9484 46.245 41.9633 46.1489 41.8893C46.1211 41.8025 46.108 41.7357 46.1171 41.6438C46.1461 41.3538 46.2707 41.0788 46.4948 40.8936Z" fill="white"/>
<path d="M20.1109 37.181C19.1229 36.6169 18.4399 35.6738 18.1361 34.5842C18.116 34.5125 18.0977 34.4404 18.0812 34.3679C18.0646 34.2953 18.0498 34.2223 18.0369 34.149C18.0239 34.0757 18.0127 34.0022 18.0033 33.9283C17.9939 33.8545 17.9863 33.7805 17.9805 33.7063C17.9748 33.6321 17.9708 33.5578 17.9687 33.4834C17.9665 33.409 17.9662 33.3346 17.9677 33.2602C17.9692 33.1858 17.9726 33.1114 17.9777 33.0372C17.9828 32.9629 17.9898 32.8888 17.9985 32.8149C18.0073 32.741 18.0178 32.6673 18.0302 32.594C18.0426 32.5206 18.0567 32.4475 18.0727 32.3748C18.0885 32.3021 18.1062 32.2298 18.1257 32.158C18.1452 32.0861 18.1664 32.0148 18.1893 31.944C18.2123 31.8732 18.2369 31.803 18.2633 31.7334C18.2897 31.6638 18.3178 31.5949 18.3475 31.5267C18.3772 31.4585 18.4086 31.391 18.4416 31.3243C18.4747 31.2576 18.5094 31.1918 18.5456 31.1268C18.7577 30.7518 19.0189 30.4174 19.3452 30.1352C20.0016 29.5676 20.8271 29.1061 21.5429 28.6101L24.0784 26.8742C24.5455 26.5582 25.0144 26.2102 25.506 25.9341C25.8027 25.7674 26.1251 25.6297 26.4545 25.5429C27.5991 25.2412 28.7897 25.4426 29.8016 26.0433C29.8626 26.0793 29.9226 26.1167 29.9817 26.1557C30.0408 26.1946 30.0989 26.235 30.1559 26.2769C30.213 26.3188 30.269 26.3621 30.324 26.4067C30.3789 26.4513 30.4326 26.4973 30.4852 26.5447C30.5379 26.592 30.5893 26.6406 30.6395 26.6905C30.6897 26.7404 30.7386 26.7915 30.7863 26.8439C30.8339 26.8962 30.8802 26.9497 30.9252 27.0043C30.9701 27.059 31.0137 27.1148 31.0559 27.1716C31.098 27.2284 31.1388 27.2863 31.1781 27.3451C31.2174 27.404 31.2552 27.4638 31.2916 27.5246C31.3279 27.5853 31.3626 27.6469 31.3959 27.7094C31.4291 27.7719 31.4608 27.8352 31.4909 27.8993C31.5209 27.9633 31.5494 28.0281 31.5763 28.0936C31.6031 28.1591 31.6283 28.2252 31.6519 28.2919C31.6754 28.3587 31.6973 28.426 31.7174 28.4938C31.7376 28.5617 31.7561 28.63 31.7729 28.6987C31.7915 28.7738 31.8082 28.8494 31.8231 28.9254C31.838 29.0013 31.851 29.0775 31.8622 29.1541C31.8733 29.2307 31.8826 29.3075 31.89 29.3846C31.8974 29.4616 31.9029 29.5388 31.9064 29.6161C31.91 29.6934 31.9117 29.7708 31.9115 29.8482C31.9113 29.9256 31.9092 30.0029 31.9052 30.0802C31.9012 30.1575 31.8953 30.2346 31.8875 30.3116C31.8797 30.3886 31.87 30.4654 31.8585 30.5419C31.847 30.6184 31.8335 30.6946 31.8182 30.7705C31.8029 30.8464 31.7857 30.9218 31.7667 30.9968C31.7477 31.0719 31.7269 31.1464 31.7042 31.2204C31.6816 31.2944 31.6571 31.3678 31.6309 31.4406C31.6046 31.5134 31.5765 31.5855 31.5467 31.6569C31.5169 31.7284 31.4854 31.799 31.4521 31.8689C31.4188 31.9388 31.3839 32.0078 31.3472 32.076C31.3105 32.1441 31.2722 32.2113 31.2323 32.2776C31.0168 32.6309 30.7329 32.9475 30.418 33.2147C29.5309 33.9679 28.4646 34.5743 27.503 35.2296C26.493 35.9178 25.4985 36.7052 24.438 37.3095C24.1291 37.4856 23.7946 37.6287 23.4488 37.714C23.3033 37.7498 23.1504 37.7793 23.0013 37.7929C21.9516 37.8509 21.0186 37.742 20.1109 37.181Z" fill="#2D2D2D"/>
<path d="M20.5066 37.1665C19.4222 36.5396 18.6744 35.7193 18.3379 34.4889C18.0382 33.3927 18.1556 32.197 18.7308 31.21C18.9285 30.8707 19.1734 30.5499 19.472 30.2935C20.1909 29.676 21.0782 29.1728 21.8618 28.6332L24.2056 27.0318C24.6455 26.7325 25.0831 26.4058 25.544 26.14C25.7056 26.0469 25.8726 25.9649 26.045 25.894C26.2174 25.823 26.3937 25.7636 26.574 25.7159C27.6699 25.4275 28.7562 25.6685 29.7189 26.2412C30.6577 26.7997 31.3068 27.6845 31.5758 28.7418C31.8587 29.8538 31.7051 31.0897 31.1109 32.0751C30.898 32.4283 30.6496 32.74 30.3378 33.011C29.437 33.7937 28.2813 34.4461 27.2868 35.1197C26.3349 35.7644 25.4155 36.492 24.4257 37.0767C24.1402 37.2454 23.8132 37.398 23.4909 37.4805C23.4019 37.5033 23.3126 37.519 23.2221 37.5348L23.0917 37.5582C22.1844 37.721 21.3459 37.5071 20.5066 37.1665Z" fill="white"/>
<path d="M24.5152 36.4678C24.5019 36.4782 24.4891 36.489 24.4753 36.4987C23.6327 37.0902 22.6808 37.5659 21.6312 37.354C20.5646 37.1387 19.5633 36.1971 18.9917 35.309C18.9652 35.2676 18.9397 35.2256 18.9152 35.1829C18.8908 35.1403 18.8673 35.097 18.8449 35.0532C18.8226 35.0094 18.8013 34.9651 18.7811 34.9203C18.7609 34.8754 18.7418 34.8301 18.7238 34.7844C18.7059 34.7386 18.689 34.6924 18.6733 34.6458C18.6575 34.5993 18.643 34.5523 18.6295 34.505C18.6161 34.4577 18.6038 34.4101 18.5927 34.3621C18.5816 34.3142 18.5716 34.2661 18.5629 34.2177C18.5541 34.1693 18.5466 34.1207 18.5402 34.072C18.5338 34.0232 18.5286 33.9744 18.5246 33.9254C18.5206 33.8763 18.5179 33.8273 18.5162 33.7781C18.5146 33.7289 18.5142 33.6798 18.5151 33.6306C18.5159 33.5814 18.5179 33.5323 18.5211 33.4832C18.5243 33.4342 18.5287 33.3852 18.5343 33.3364C18.5399 33.2875 18.5467 33.2388 18.5547 33.1903C18.5627 33.1417 18.5718 33.0934 18.5822 33.0454C18.6912 32.5479 18.9383 32.0167 19.3776 31.7314L19.3404 31.8475C19.078 32.2964 18.9569 32.6823 18.8828 33.1954C18.8064 34.0571 19.0362 34.8594 19.5894 35.5292C20.0806 36.124 20.6989 36.4435 21.4378 36.6261C21.7427 36.6861 22.0318 36.7236 22.3431 36.7231C23.0452 36.7094 23.6184 36.449 24.1969 36.0721C25.0016 35.5018 25.8106 34.9378 26.6241 34.3801C26.4828 35.0793 25.967 35.529 25.4005 35.9054C25.1095 36.0987 24.8112 36.2822 24.5152 36.4678Z" fill="#F2C94C"/>
<path d="M19.3777 31.7315C19.598 31.4786 19.832 31.2671 20.0981 31.0639C21.0305 30.3517 22.0707 29.7344 23.0441 29.0739C24.006 28.4212 25.2259 27.4898 26.2234 26.9719C26.61 26.7712 27.0046 26.6425 27.4401 26.6103C28.2615 26.5493 29.0807 26.8526 29.6966 27.3917C29.7367 27.4275 29.7759 27.4643 29.8142 27.502C29.8526 27.5397 29.89 27.5784 29.9264 27.618C29.9628 27.6576 29.9982 27.698 30.0326 27.7394C30.067 27.7807 30.1004 27.8228 30.1328 27.8658C30.1651 27.9088 30.1964 27.9525 30.2266 27.997C30.2568 28.0415 30.2859 28.0867 30.3139 28.1327C30.3418 28.1786 30.3686 28.2252 30.3943 28.2725C30.42 28.3197 30.4445 28.3676 30.4678 28.416C30.4912 28.4645 30.5133 28.5135 30.5342 28.5631C30.5551 28.6126 30.5748 28.6626 30.5933 28.7132C30.6117 28.7637 30.6289 28.8146 30.6449 28.866C30.6608 28.9174 30.6755 28.9691 30.6889 29.0212C30.7023 29.0733 30.7144 29.1257 30.7253 29.1783C30.7361 29.231 30.7456 29.2839 30.7539 29.3371C30.7621 29.3902 30.769 29.4436 30.7746 29.4971C30.7802 29.5505 30.7845 29.6041 30.7875 29.6578C30.8341 30.4802 30.5653 31.3582 30.0035 31.9712C29.5494 32.4667 28.9063 32.8228 28.3496 33.1908C27.8602 33.5162 27.3739 33.8461 26.8906 34.1804L26.6242 34.3802C25.8108 34.9379 25.0017 35.5019 24.1971 36.0722C23.6185 36.4491 23.0453 36.7095 22.3432 36.7232C22.0319 36.7237 21.7428 36.6862 21.4379 36.6262C20.699 36.4435 20.0807 36.1241 19.5895 35.5292C19.0363 34.8595 18.8065 34.0572 18.8829 33.1955C18.9571 32.6824 19.0782 32.2965 19.3405 31.8475L19.3777 31.7315Z" fill="#2D2D2D"/>
<path d="M23.4902 29.2949L23.3828 29.1747C23.4148 29.015 24.6566 28.2296 24.8445 28.1045C25.8889 27.4089 26.847 26.5987 28.1831 26.8611C28.2306 26.8709 28.2779 26.8819 28.3248 26.894C28.3718 26.9061 28.4185 26.9193 28.4648 26.9337C28.5112 26.9481 28.5572 26.9636 28.6027 26.9802C28.6483 26.9968 28.6935 27.0145 28.7382 27.0334C28.7829 27.0522 28.8271 27.0721 28.8709 27.0931C28.9146 27.1141 28.9578 27.1361 29.0005 27.1592C29.0431 27.1823 29.0852 27.2064 29.1267 27.2315C29.1682 27.2567 29.2091 27.2828 29.2493 27.31C29.2895 27.3371 29.329 27.3652 29.3679 27.3943C29.4067 27.4233 29.4449 27.4533 29.4823 27.4843C29.5196 27.5152 29.5562 27.547 29.592 27.5797C29.6279 27.6124 29.6629 27.646 29.6971 27.6803C29.7313 27.7148 29.7646 27.75 29.7971 27.7861C29.8296 27.8221 29.8611 27.8589 29.8919 27.8965C29.9226 27.9341 29.9523 27.9724 29.9811 28.0114C30.0099 28.0504 30.0377 28.0902 30.0646 28.1306C30.0926 28.1721 30.1196 28.2144 30.1455 28.2573C30.1714 28.3002 30.1963 28.3437 30.22 28.3878C30.2438 28.432 30.2664 28.4766 30.2879 28.5219C30.3094 28.5672 30.3298 28.6129 30.3491 28.6592C30.3683 28.7054 30.3864 28.7521 30.4034 28.7993C30.4203 28.8465 30.436 28.8941 30.4506 28.942C30.4652 28.99 30.4786 29.0382 30.4908 29.0868C30.503 29.1355 30.5139 29.1844 30.5237 29.2335C30.5334 29.2827 30.5419 29.332 30.5492 29.3816C30.5565 29.4312 30.5626 29.4809 30.5674 29.5308C30.5723 29.5807 30.5759 29.6307 30.5782 29.6807C30.5805 29.7308 30.5816 29.7809 30.5815 29.831C30.5813 29.8811 30.5799 29.9312 30.5773 29.9812C30.5747 30.0313 30.5709 30.0812 30.5658 30.1311C30.5606 30.181 30.5543 30.2307 30.5467 30.2802C30.5391 30.3297 30.5303 30.379 30.5203 30.4282C30.2609 31.6916 29.5428 32.15 28.5345 32.8187C27.9719 33.1918 27.4075 33.5589 26.879 33.98C26.694 33.6961 26.5644 33.3479 26.3797 33.0516C26.102 32.6058 25.7751 32.1925 25.4706 31.765C24.854 30.8994 24.2758 30.0221 23.4902 29.2949Z" fill="#4FDB40"/>
<path d="M23.2004 29.2314C23.2797 29.3352 23.3686 29.4306 23.4558 29.5276C24.1514 30.3143 24.7342 31.1237 25.3461 31.9741C25.8425 32.664 26.3404 33.2757 26.6498 34.0766C26.0188 34.53 25.3824 34.9758 24.7405 35.4139C24.3136 35.7091 23.8958 36.0412 23.422 36.2583C23.3397 36.2962 23.2558 36.3302 23.1705 36.3604C23.0851 36.3906 22.9985 36.4168 22.9107 36.4392C22.8229 36.4615 22.7343 36.4798 22.6448 36.494C22.5554 36.5083 22.4655 36.5185 22.3752 36.5245C22.1041 36.5293 21.8347 36.4821 21.5667 36.4459C21.0332 36.2992 20.5405 36.1068 20.1116 35.7477C19.36 35.1185 19.1416 34.3685 19.0586 33.4261C19.114 32.8646 19.1922 32.4607 19.4887 31.9713C20.1295 31.0875 22.239 29.8661 23.2004 29.2314Z" fill="#F2C94C"/>
<path d="M22.0498 30.9811C22.1344 30.9751 22.2205 30.9682 22.3054 30.9716C22.4649 30.9779 22.6183 31.0433 22.7247 31.1635C22.7923 31.2399 22.8256 31.3259 22.8089 31.4295C22.7773 31.6241 22.616 31.8005 22.4749 31.9265C22.2109 32.162 21.8803 32.3473 21.5861 32.5437C21.1817 32.8084 20.79 33.0907 20.4109 33.3905C20.383 33.4122 20.3553 33.4344 20.3258 33.454C20.2152 33.5274 20.1263 33.5257 20.0026 33.4936C19.9212 33.4726 19.8402 33.4315 19.8012 33.3541C19.7358 33.2241 19.7699 33.0883 19.8123 32.9563C20.0517 32.212 20.5657 31.9518 21.1541 31.5487C21.4466 31.3483 21.7298 31.1366 22.0498 30.9811Z" fill="#FEF69C"/>
<path d="M38.2186 32.1218C38.2761 31.7606 38.4275 31.3896 38.5982 31.0677C38.797 30.6926 39.0641 30.3167 39.3832 30.0342C40.0822 29.4153 40.9452 28.9163 41.7109 28.3782C42.6367 27.7184 43.5697 27.0688 44.5099 26.4295C44.9019 26.1625 45.2856 25.8743 45.6907 25.6277C45.9419 25.4748 46.2349 25.3119 46.5178 25.2301C47.5449 24.9332 48.7336 24.9425 49.6955 25.4503C50.6577 25.8393 51.4699 26.7233 51.872 27.6699C51.8999 27.7366 51.9261 27.804 51.9507 27.8721C51.9752 27.9401 51.998 28.0088 52.0192 28.0779C52.0404 28.1471 52.0599 28.2167 52.0776 28.2869C52.0954 28.3571 52.1114 28.4276 52.1257 28.4985C52.1399 28.5694 52.1525 28.6407 52.1632 28.7122C52.174 28.7837 52.183 28.8555 52.1902 28.9275C52.1974 28.9994 52.2029 29.0716 52.2066 29.1439C52.2103 29.2161 52.2122 29.2884 52.2123 29.3607C52.2125 29.4331 52.2108 29.5054 52.2074 29.5776C52.2039 29.6499 52.1987 29.722 52.1918 29.794C52.1848 29.866 52.176 29.9378 52.1655 30.0094C52.155 30.081 52.1427 30.1523 52.1287 30.2232C52.1147 30.2942 52.0989 30.3648 52.0814 30.435C52.0639 30.5052 52.0447 30.5749 52.0238 30.6442C52.0028 30.7134 51.9802 30.7821 51.9559 30.8503C51.9316 30.9184 51.9057 30.9859 51.878 31.0528C51.6615 31.5856 51.3707 32.035 50.9546 32.4321C50.3687 32.9915 49.2174 33.6987 48.523 34.1916L45.9453 36.0178C45.3683 36.4249 44.7612 36.9349 44.108 37.2039C43.7971 37.3318 43.4578 37.4396 43.1236 37.4829C43.0534 37.4941 42.9831 37.5046 42.9126 37.5143C41.8589 37.6571 40.7126 37.2818 39.8778 36.6414C38.8123 35.8241 38.282 34.6953 38.1057 33.3902C38.0734 32.9707 38.1214 32.5303 38.2186 32.1218Z" fill="#2D2D2D"/>
<path d="M38.4137 32.1168C38.4583 31.9677 38.503 31.818 38.5573 31.672C38.7478 31.1598 39.0228 30.6663 39.4077 30.2741C39.9537 29.7177 41.0329 29.0941 41.7002 28.6274C42.6654 27.9412 43.6362 27.2631 44.6128 26.5931C45.1586 26.2215 45.6984 25.8089 46.3008 25.5348C47.3958 25.0366 48.4916 25.2072 49.5808 25.6116C50.7012 26.2607 51.5197 27.0314 51.8605 28.3236C51.8783 28.3903 51.8945 28.4573 51.9091 28.5248C51.9236 28.5923 51.9364 28.66 51.9476 28.7281C51.9587 28.7962 51.9682 28.8646 51.9759 28.9332C51.9837 29.0018 51.9897 29.0705 51.994 29.1394C51.9983 29.2083 52.0009 29.2772 52.0017 29.3462C52.0026 29.4153 52.0017 29.4842 51.9991 29.5532C51.9966 29.6222 51.9923 29.691 51.9862 29.7598C51.9803 29.8285 51.9725 29.8971 51.9631 29.9655C51.9536 30.0338 51.9425 30.1019 51.9297 30.1697C51.9168 30.2375 51.9023 30.305 51.8861 30.3721C51.8699 30.4392 51.852 30.5058 51.8325 30.5719C51.8129 30.6381 51.7917 30.7038 51.7689 30.769C51.7461 30.8341 51.7217 30.8987 51.6957 30.9626C51.6697 31.0265 51.642 31.0897 51.6128 31.1523C51.5836 31.2148 51.5529 31.2766 51.5206 31.3376C51.4883 31.3986 51.4546 31.4587 51.4193 31.518C51.2236 31.8488 50.9764 32.1341 50.685 32.3839C50.3353 32.6835 49.9356 32.9378 49.5596 33.2037L47.5818 34.6012L45.5759 36.0148C45.216 36.2691 44.8618 36.5473 44.4821 36.7712C44.3194 36.8683 44.1504 36.9527 43.9752 37.0246C43.7998 37.0964 43.6202 37.1549 43.4362 37.1999C43.0891 37.2854 42.7501 37.3116 42.3937 37.3191C41.2991 37.2608 40.3009 36.8155 39.5366 36.027C39.3446 35.8908 39.1079 35.5612 39.0078 35.3471C38.5954 34.7623 38.4243 34.0781 38.328 33.3804C38.2969 32.9433 38.3502 32.547 38.4137 32.1168Z" fill="white"/>
<path d="M50.9707 28.6963C51.268 28.9641 51.3904 29.5068 51.4108 29.8947C51.4447 30.5386 51.1984 31.3812 50.7729 31.8737C50.1979 32.5392 49.2939 33.0412 48.5735 33.5421L46.0549 35.3082C45.441 35.7411 44.8232 36.2926 44.1631 36.6432C43.6822 36.8987 43.1133 37.0429 42.5706 37.0697C41.6947 37.1129 40.8963 36.799 40.1735 36.325C40.0556 36.2476 39.7827 35.9996 39.6581 35.9887C39.6009 35.9837 39.5864 36.0011 39.5366 36.0266C39.3446 35.8904 39.1079 35.5607 39.0078 35.3467C39.032 35.2239 38.9964 35.1449 38.9589 35.0286C38.8942 34.8275 38.7843 34.5345 38.912 34.3414C39.0016 34.2059 39.1375 34.1817 39.2853 34.1577L39.338 34.3135C39.4657 34.8823 39.8785 35.4366 40.3277 35.7964C41.0349 36.3631 41.9442 36.5668 42.836 36.4659C43.2736 36.4164 43.6176 36.295 43.9987 36.0782C44.7108 35.6729 45.325 35.1074 45.9896 34.6308L48.2422 33.0014C48.7621 32.6307 49.3028 32.2778 49.8045 31.8833C50.0288 31.707 50.2792 31.5048 50.4508 31.2748C50.9049 30.6664 51.1148 29.8071 51.0191 29.0573L50.9707 28.6963Z" fill="#F2C94C"/>
<path d="M44.5124 27.9738C44.8255 27.7227 45.1593 27.4934 45.4854 27.2592C46.3528 26.6364 47.1193 26.152 48.2323 26.2723C49.0613 26.362 49.8431 26.762 50.3642 27.4188C50.4388 27.5116 50.5078 27.6084 50.571 27.7094C50.6343 27.8103 50.6914 27.9145 50.7424 28.0221C50.7935 28.1297 50.8381 28.2399 50.8763 28.3527C50.9144 28.4656 50.9458 28.5802 50.9705 28.6967L51.0188 29.0577C51.1145 29.8075 50.9046 30.6669 50.4506 31.2752C50.2789 31.5052 50.0286 31.7074 49.8043 31.8838C49.3026 32.2782 48.7619 32.6311 48.242 33.0019L45.9894 34.6313C45.3248 35.1078 44.7106 35.6733 43.9985 36.0786C43.6174 36.2955 43.2734 36.4169 42.8358 36.4663C41.9439 36.5673 41.0347 36.3635 40.3274 35.7969C39.8783 35.437 39.4655 34.8827 39.3378 34.3139L39.2851 34.1581C39.1483 33.6822 39.1269 33.188 39.1905 32.698C39.2368 32.35 39.3851 32.0238 39.5484 31.7174C39.691 31.4421 39.9156 31.1804 40.1667 31.0016C40.4169 30.7539 40.7767 30.5481 41.0672 30.3462L42.9002 29.0806C43.2397 28.8242 43.613 28.5854 43.976 28.3631C44.1303 28.2104 44.3326 28.0954 44.5124 27.9738Z" fill="#2D2D2D"/>
<path d="M44.6179 28.1113C45.8745 27.3295 46.9169 26.1459 48.5462 26.5251C48.5933 26.5357 48.64 26.5474 48.6865 26.5602C48.733 26.5731 48.7791 26.5871 48.8249 26.6023C48.8707 26.6174 48.9161 26.6336 48.961 26.6509C49.006 26.6683 49.0505 26.6867 49.0946 26.7063C49.1387 26.7258 49.1822 26.7464 49.2253 26.7681C49.2684 26.7898 49.3109 26.8126 49.3528 26.8363C49.3947 26.8601 49.436 26.8849 49.4768 26.9107C49.5175 26.9365 49.5576 26.9633 49.597 26.9911C49.6364 27.0188 49.6751 27.0476 49.7131 27.0773C49.7511 27.1069 49.7883 27.1375 49.8248 27.1691C49.8613 27.2006 49.897 27.233 49.9319 27.2662C49.9668 27.2995 50.0009 27.3336 50.034 27.3685C50.0673 27.4035 50.0996 27.4392 50.1311 27.4758C50.1625 27.5123 50.1931 27.5495 50.2227 27.5876C50.2524 27.6256 50.281 27.6644 50.3087 27.7038C50.3365 27.7432 50.3632 27.7834 50.389 27.8241C50.6102 28.1794 50.7226 28.5591 50.8087 28.9655L50.8339 29.1439C50.8386 29.189 50.8422 29.2341 50.8447 29.2794C50.8472 29.3246 50.8486 29.3699 50.8489 29.4152C50.8492 29.4605 50.8484 29.5058 50.8464 29.5512C50.8444 29.5964 50.8413 29.6416 50.8372 29.6867C50.833 29.7319 50.8276 29.7769 50.8212 29.8217C50.8148 29.8666 50.8073 29.9113 50.7987 29.9558C50.79 30.0003 50.7803 30.0445 50.7695 30.0885C50.7587 30.1325 50.7468 30.1762 50.7338 30.2197C50.7208 30.2631 50.7068 30.3062 50.6917 30.3489C50.6767 30.3917 50.6605 30.434 50.6433 30.4759C50.6262 30.5179 50.6079 30.5593 50.5887 30.6004C50.5694 30.6414 50.5492 30.6819 50.528 30.7219C50.5067 30.762 50.4845 30.8015 50.4613 30.8405C50.4381 30.8794 50.414 30.9177 50.389 30.9555C50.3639 30.9932 50.3378 31.0303 50.3109 31.0668C50.284 31.1032 50.2563 31.139 50.2276 31.1741C49.7619 31.7484 49.086 32.1434 48.49 32.5668C47.9509 32.9539 47.4098 33.3383 46.8669 33.7201C46.6409 33.1163 46.4087 32.5209 46.1361 31.9363C46.1072 31.8803 46.0774 31.8247 46.0467 31.7696C45.4273 30.6486 44.3899 29.5073 43.1245 29.1455C43.4273 28.9417 43.7454 28.7636 44.0298 28.5334C44.2311 28.4062 44.4404 28.2701 44.6179 28.1113Z" fill="#4FDB40"/>
<path d="M40.3171 31.1061C41.2464 30.5707 42.0494 29.7908 43.0001 29.291C43.5115 29.4588 43.953 29.7298 44.3721 30.0637C44.4426 30.1257 44.512 30.1891 44.58 30.2537C44.6481 30.3185 44.7149 30.3845 44.7804 30.4519C44.8459 30.5192 44.91 30.5878 44.9729 30.6577C45.0357 30.7275 45.0971 30.7986 45.1571 30.8709C45.2171 30.9431 45.2757 31.0165 45.3329 31.091C45.39 31.1656 45.4457 31.2413 45.4999 31.318C45.554 31.3947 45.6067 31.4724 45.6579 31.5512C45.709 31.6301 45.7586 31.7098 45.8066 31.7905C45.8546 31.8713 45.9011 31.953 45.9459 32.0355C45.9907 32.1181 46.0339 32.2015 46.0754 32.2857C46.117 32.37 46.1569 32.455 46.1951 32.5408C46.2333 32.6266 46.2699 32.7132 46.3046 32.8004C46.3395 32.8876 46.3726 32.9755 46.404 33.0641C46.4354 33.1526 46.4651 33.2417 46.4929 33.3314C46.5208 33.4211 46.547 33.5113 46.5714 33.602C46.5957 33.6928 46.6183 33.7839 46.6391 33.8755C46.1425 34.2143 45.6584 34.5701 45.1868 34.9428C44.114 35.7768 43.2093 36.4686 41.7739 36.2032C41.0098 36.062 40.2915 35.6084 39.8547 34.9634C39.662 34.6788 39.5428 34.3866 39.4599 34.0541L39.4056 33.8641C39.404 33.7457 39.3779 33.6152 39.3639 33.4969C39.3167 32.867 39.4301 32.3984 39.7036 31.8339C39.8807 31.5563 40.0764 31.3307 40.3171 31.1061Z" fill="#F2C94C"/>
<path d="M40.28 33.1523L40.4836 33.123C40.38 33.3834 40.2883 33.7366 40.0615 33.9098C39.9788 33.7672 39.9086 33.5779 39.9689 33.4146C40.0239 33.2655 40.145 33.2094 40.28 33.1523Z" fill="white"/>
<path d="M40.1809 31.9492C40.2792 32.0175 40.3291 32.0416 40.3522 32.1638C40.405 32.4417 40.2361 32.7675 40.1515 33.0276C40.1002 33.0727 40.0625 33.1065 39.9975 33.1312C39.9335 33.1555 39.9585 33.1475 39.88 33.1159C39.8581 33.0656 39.8553 33.0659 39.8441 33.0027C39.7835 32.6629 39.994 32.2149 40.1809 31.9492Z" fill="white"/>
<path d="M57.3095 44.4049C57.5983 44.1803 57.904 43.9829 58.238 43.8322C59.3071 43.3499 60.5037 43.4105 61.5884 43.8182C62.6303 44.1683 63.5389 44.9754 64.032 45.9556C64.5852 47.0553 64.6317 48.3167 64.2434 49.4763C64.0128 50.1647 63.6196 50.8906 63.0058 51.3099C62.4138 51.736 61.797 52.1317 61.2108 52.5646C60.7942 52.8265 60.4005 53.1614 59.9714 53.3944C59.7426 53.6128 59.4403 53.7791 59.1796 53.9607C58.5095 54.4031 57.878 54.9099 57.1953 55.3324C56.1724 55.9655 55.0188 56.133 53.8508 55.8553C52.5225 55.5396 51.4664 54.7051 50.7539 53.5566C50.4856 53.0291 50.2087 52.3787 50.2261 51.7748C50.1967 51.6417 50.2036 51.5017 50.2028 51.3659C50.2156 51.1727 50.2259 50.9817 50.2641 50.7913C50.2742 50.7221 50.2852 50.6547 50.2999 50.5862C50.451 49.8801 50.7339 49.2309 51.2189 48.6886C51.7642 48.079 52.8228 47.4618 53.5129 46.9842C54.7687 46.115 56.0215 45.2255 57.3095 44.4049Z" fill="#2D2D2D"/>
<path d="M57.4607 44.52C57.66 44.3851 57.8594 44.2497 58.0734 44.1391C59.1893 43.562 60.2488 43.6172 61.4185 43.9871C62.4838 44.3704 63.4008 45.0963 63.8942 46.1301C63.9245 46.1947 63.9532 46.2601 63.9802 46.3261C64.0073 46.3922 64.0327 46.459 64.0565 46.5263C64.0802 46.5937 64.1023 46.6615 64.1227 46.73C64.1431 46.7985 64.1617 46.8674 64.1787 46.9367C64.1957 47.0061 64.211 47.0758 64.2245 47.146C64.238 47.2161 64.2498 47.2865 64.2598 47.3572C64.2698 47.4279 64.2781 47.4988 64.2846 47.5699C64.2911 47.641 64.2959 47.7123 64.2989 47.7837C64.3018 47.855 64.303 47.9264 64.3025 47.9978C64.302 48.0692 64.2996 48.1406 64.2955 48.2119C64.2915 48.2832 64.2856 48.3543 64.2779 48.4253C64.2703 48.4963 64.261 48.5671 64.2499 48.6376C64.2387 48.7082 64.2259 48.7784 64.2113 48.8483C64.1967 48.9182 64.1803 48.9877 64.1622 49.0568C64.1442 49.1259 64.1245 49.1945 64.103 49.2626C64.0816 49.3307 64.0584 49.3982 64.0336 49.4652C63.7443 50.2711 63.332 50.7999 62.6586 51.3138C62.0963 51.6654 61.5593 52.0582 61.0111 52.4312C60.7301 52.6223 60.3486 52.8237 60.11 53.0623C59.7893 53.2653 59.4761 53.5187 59.1422 53.6953C58.781 53.6884 58.4837 54.2354 58.1366 54.2647C58.1169 54.179 58.1286 54.1424 58.1605 54.0613C58.5586 53.8065 58.9249 53.4794 59.3097 53.2018C59.8795 52.7907 60.4777 52.4163 61.0562 52.017C61.5939 51.6459 62.719 50.9223 62.8179 50.2413C62.8464 50.0447 62.7396 49.9437 62.6271 49.8001C62.909 49.4982 63.0689 49.1852 63.177 48.7902C63.1938 48.7499 63.1983 48.7412 63.2125 48.6934C63.4497 47.8957 63.3084 46.9983 62.9122 46.2742C62.5685 45.6459 62.0116 45.1476 61.3197 44.9449C61.0319 44.8037 60.6135 44.7392 60.2959 44.7257C59.7754 44.704 59.3122 44.7576 58.8337 44.9781C58.4352 45.1617 58.0468 45.4745 57.6844 45.7222L55.599 47.1478C55.03 47.5343 54.4574 47.9152 53.8811 48.2904C53.524 48.5228 53.1426 48.7441 52.8077 49.0065C52.3129 49.3193 51.839 49.8451 51.624 50.3938C51.4608 50.7871 51.3629 51.1418 51.3529 51.5709C51.316 51.6947 51.3028 51.8181 51.2638 51.9422C51.1185 52.405 51.3703 53.2214 51.0037 53.5538C50.4816 52.5897 50.3308 51.7556 50.4911 50.6694C50.6532 50.0096 50.8761 49.4389 51.3182 48.9129C51.7946 48.346 52.4856 47.9576 53.0872 47.5364C54.5322 46.5246 56.0546 45.5826 57.4607 44.52Z" fill="white"/>
<path d="M52.8079 49.0069C53.1428 48.7445 53.5242 48.5232 53.8812 48.2908C54.4576 47.9156 55.0302 47.5347 55.5991 47.1482L57.6846 45.7227C58.047 45.4749 58.4354 45.1621 58.8339 44.9785C59.3124 44.758 59.7755 44.7045 60.2961 44.7261C60.6137 44.7396 61.0321 44.8041 61.3199 44.9453C62.0118 45.1481 62.5687 45.6463 62.9124 46.2746C63.3086 46.9987 63.4499 47.8961 63.2127 48.6938C63.1985 48.7417 63.194 48.7503 63.1772 48.7906C63.0691 49.1856 62.9091 49.4986 62.6273 49.8005C62.7398 49.9442 62.8466 50.0452 62.818 50.2417C62.7192 50.9228 61.5941 51.6463 61.0564 52.0174C60.4779 52.4167 59.8797 52.7911 59.3098 53.2022C58.9251 53.4798 58.5588 53.807 58.1607 54.0617C58.1288 54.1428 58.1171 54.1794 58.1368 54.2651C58.4839 54.2358 58.7812 53.6888 59.1423 53.6957C58.9904 53.8854 57.4327 54.9191 57.1205 55.1143C56.123 55.7381 55.065 55.8992 53.9194 55.6315C52.6951 55.3455 51.6666 54.6224 51.0039 53.5542C51.3705 53.2218 51.1187 52.4054 51.264 51.9427C51.303 51.8185 51.3162 51.6951 51.353 51.5713C51.363 51.1422 51.4609 50.7875 51.6242 50.3942C51.8392 49.8456 52.3131 49.3197 52.8079 49.0069Z" fill="#2D2D2D"/>
<path d="M62.6273 49.7998C62.7398 49.9435 62.8466 50.0445 62.818 50.2411C62.7192 50.9221 61.5941 51.6457 61.0564 52.0168C60.4779 52.4161 59.8797 52.7904 59.3098 53.2015C58.9251 53.4791 58.5588 53.8063 58.1607 54.0611C58.1288 54.1421 58.1171 54.1787 58.1368 54.2644C58.4839 54.2351 58.7812 53.6882 59.1423 53.695C58.9904 53.8847 57.4327 54.9184 57.1205 55.1136C56.123 55.7375 55.065 55.8985 53.9194 55.6308C52.6951 55.3448 51.6666 54.6218 51.0039 53.5536C51.3705 53.2211 51.1187 52.4047 51.264 51.942C51.303 51.8179 51.3162 51.6944 51.353 51.5707C51.3599 52.4807 51.6573 53.3866 52.3191 54.034C52.9435 54.645 53.7566 54.9239 54.6211 54.9201C54.6523 54.92 54.6835 54.918 54.7146 54.9156C55.0787 54.8179 55.3648 54.7937 55.7114 54.6191C56.1398 54.4033 56.5407 54.096 56.9379 53.8264C57.7297 53.2904 58.5142 52.7439 59.2914 52.1868C60.3987 51.4022 61.5798 50.6618 62.6273 49.7998Z" fill="#F2C94C"/>
<path d="M59.8962 44.916C60.2643 44.9262 60.6309 44.9567 60.9889 45.0477L61.282 45.1316C61.719 45.3377 62.0676 45.5498 62.3723 45.9328C62.9149 46.5716 63.1735 47.3091 63.1069 48.1505C63.0898 48.3659 63.043 48.5786 62.9884 48.7872C62.8601 49.1088 62.7129 49.3827 62.4674 49.6323C62.0654 50.041 61.4971 50.3554 61.025 50.6866L58.8028 52.2739C58.7436 51.3952 58.4354 50.6262 57.9637 49.8901C57.4218 49.0444 56.4037 47.8846 55.3749 47.6565L55.355 47.6222L55.373 47.5588C55.9361 47.1189 56.5622 46.734 57.1532 46.3302C57.7303 45.936 58.3178 45.453 58.9496 45.1602C59.2625 45.0152 59.5572 44.9623 59.8962 44.916Z" fill="#4FDB40"/>
<path d="M61.3377 48.7506C61.3022 48.3513 61.4735 47.4626 61.6251 47.0768C61.6665 46.9714 61.7067 46.8958 61.8119 46.8506L61.8624 46.9014C61.8967 47.3656 61.7627 47.8532 61.6723 48.3065C61.6165 48.4614 61.5744 48.5865 61.4627 48.7097C61.4213 48.7259 61.3822 48.7458 61.3377 48.7506Z" fill="white"/>
<path d="M53.1734 49.0113C53.5843 48.792 54.8411 47.7671 55.1871 47.8006C55.4059 47.8822 55.6179 47.9788 55.8229 48.0905C56.028 48.2022 56.2242 48.3279 56.4114 48.4675C57.4304 49.2655 58.3721 50.6056 58.5308 51.9153C58.5519 52.0829 58.5627 52.2512 58.5633 52.4201C57.9649 52.8444 57.3607 53.2604 56.7508 53.668C56.2939 53.9779 55.825 54.3626 55.3064 54.5583C55.002 54.673 54.7136 54.6979 54.3914 54.6981C54.2192 54.6889 54.0492 54.6647 53.8814 54.6253C53.0986 54.4396 52.3906 53.9095 51.9796 53.2201C51.6335 52.6396 51.4583 51.7882 51.6292 51.1279C51.6429 50.9851 51.6896 50.848 51.7298 50.7108C52.0301 49.9477 52.5207 49.4855 53.1734 49.0113Z" fill="#F2C94C"/>
<path d="M54.0619 48.582C54.0694 48.5827 54.0771 48.5826 54.0845 48.584C54.1905 48.6038 54.2139 48.6012 54.2786 48.683C54.2315 48.9092 53.8007 49.1248 53.6171 49.2455C53.548 49.2717 53.5122 49.2745 53.44 49.2766L53.415 49.2267C53.5354 48.9241 53.8045 48.76 54.0619 48.582Z" fill="white"/>
<path d="M52.1635 50.9268C52.279 50.6137 52.6753 49.7419 52.9822 49.5986C53.0349 49.5741 53.0415 49.5761 53.0922 49.5684C53.134 49.5955 53.169 49.5995 53.175 49.6545C53.2261 50.113 52.4261 50.5155 52.6197 51.0878C52.5925 51.1783 52.5643 51.2739 52.5218 51.3585C52.4752 51.4511 52.4163 51.5016 52.318 51.5341C52.2547 51.5097 52.2344 51.5134 52.1938 51.453C52.0801 51.284 52.1323 51.1127 52.1635 50.9268Z" fill="white"/>
<path d="M44.4975 12.9559C48.1623 10.9742 52.5225 8.66319 56.8394 9.35163C58.9082 9.68147 60.8772 10.7433 62.1119 12.463C65.5744 17.2851 62.7357 24.8844 60.6043 29.7052C60.4021 30.1626 59.3995 32.0441 59.4998 32.4484C59.5661 32.7155 61.0491 34.7248 61.3278 35.1212C63.6139 38.3838 65.8471 41.6822 68.0273 45.0166C68.6148 45.9314 69.3886 46.8507 69.807 47.8543C70.2037 48.8059 70.3491 49.9455 70.1728 50.9626C69.8967 52.5555 69.0415 53.9019 67.7274 54.8326C66.9664 55.3716 66.1791 55.8748 65.4053 56.3951L62.1924 58.5787L52.6756 65.0696C50.4703 66.6 48.2539 68.1141 46.0264 69.612C45.2512 70.1267 44.4631 70.788 43.6149 71.1686C42.5324 71.6544 41.2982 71.7602 40.1357 71.5573C37.743 71.1397 36.366 69.1807 34.9991 67.3735C34.598 66.8431 34.1509 66.3416 33.7667 65.8001C34.3277 65.7086 34.881 65.5969 35.4362 65.4748C36.1439 66.6475 37.1544 68.7238 38.1406 69.5548C38.9788 70.2609 40.2116 70.6219 41.3005 70.5214C41.6623 70.488 42.6771 70.3612 42.9086 70.0806L42.8954 69.955C42.6281 69.8907 42.2918 70.073 42.0282 70.1324C41.2367 70.3108 40.4306 70.3133 39.6539 70.0662C38.0965 69.5708 37.4483 68.3637 36.6681 67.0438C36.3107 66.439 35.9366 65.8376 35.613 65.2142C32.9734 65.5955 30.3082 66.1281 27.6798 66.5998C26.1187 66.88 24.1284 67.2961 22.5617 67.2908C20.8268 67.285 19.0921 66.9834 17.5375 66.1863C13.848 64.2947 12.739 60.2386 13.6227 56.403C13.8997 55.2008 14.3327 54.5141 14.7703 53.417C15.5982 51.3416 15.7389 48.9592 15.3395 46.772C14.8019 43.8276 13.0602 41.0997 11.6705 38.4662C11.2178 37.6083 10.7126 36.7378 10.4162 35.8112C9.82835 33.9734 9.93835 32.0697 10.8363 30.3493C11.2283 29.5982 11.7893 28.8905 12.4541 28.3632C13.4473 27.5754 14.5788 26.8957 15.6312 26.1847L21.4001 22.2648L29.6424 16.6669C31.6405 15.2794 33.6476 13.905 35.6637 12.5436C36.8081 11.7706 38.2831 10.5348 39.5694 10.1353C42.0348 9.36952 44.4137 10.4515 46.5687 11.5794C45.8162 11.92 44.9998 12.3184 44.315 12.7774C44.2947 12.7709 44.2743 12.7646 44.2541 12.758C43.997 12.6728 43.7688 12.5064 43.5103 12.4164C43.437 12.3906 43.3632 12.3667 43.2887 12.3445C43.2143 12.3224 43.1393 12.3022 43.0638 12.2838C42.9883 12.2654 42.9125 12.2489 42.8362 12.2344C42.7599 12.2197 42.6833 12.207 42.6064 12.1962C42.5295 12.1855 42.4524 12.1766 42.375 12.1696C42.2976 12.1627 42.2202 12.1576 42.1426 12.1545C42.065 12.1514 41.9873 12.1503 41.9097 12.151C41.832 12.1518 41.7544 12.1545 41.6769 12.1591C41.5993 12.1638 41.5219 12.1703 41.4448 12.1788C41.3676 12.1873 41.2906 12.1976 41.2139 12.21C41.1372 12.2223 41.0609 12.2365 40.9849 12.2526C40.9089 12.2687 40.8334 12.2867 40.7583 12.3066C40.6832 12.3264 40.6087 12.3481 40.5347 12.3717C40.4607 12.3953 40.3873 12.4206 40.3145 12.4479C40.2418 12.4751 40.1698 12.5042 40.0985 12.535C40.0272 12.5658 39.9567 12.5983 39.887 12.6326C39.2155 12.9598 38.5997 13.4364 37.9851 13.8602L35.0898 15.8612L24.4381 23.1601C22.4202 24.539 20.3613 25.8561 18.327 27.2106C17.5864 27.7038 16.7329 28.149 16.0515 28.7163C15.4323 29.2319 14.9401 29.9801 14.6798 30.7404C14.2826 31.9005 14.399 33.2934 14.9396 34.3891C15.2548 35.028 15.7157 35.613 16.125 36.1948L17.4651 38.1386L22.7592 45.8257L31.9211 59.0721L34.3479 62.5919C34.8323 63.3043 35.2964 64.0455 35.8083 64.7373C35.8827 64.5891 35.9244 64.4127 35.9853 64.2571C36.1888 63.7374 36.4079 63.2666 36.7985 62.861C36.5103 62.3019 36.3461 61.8007 36.2318 61.1819C36.1692 60.644 36.2287 60.1366 36.3144 59.6069C36.3877 59.3078 36.4936 59.0251 36.6258 58.7473C36.8436 58.2896 37.1478 57.836 37.5228 57.4919C37.934 57.1148 38.4178 56.804 38.8733 56.4826C39.5772 55.9856 40.2838 55.4924 40.9932 55.003C41.9418 54.3498 42.8755 53.6261 43.8573 53.0281C44.0951 52.8833 44.3307 52.7651 44.5926 52.6705C45.1369 52.4698 45.6501 52.3969 46.2287 52.3792C47.4675 52.576 48.2978 53.069 49.046 54.0862C49.1556 54.2353 49.2582 54.3899 49.3605 54.544C49.5907 54.3985 49.7918 54.1815 50.0038 54.0083C50.2329 53.8211 50.4923 53.6912 50.7539 53.5558C51.4665 54.7044 52.5226 55.5388 53.8508 55.8546C55.0188 56.1323 56.1724 55.9648 57.1953 55.3316C57.878 54.9091 58.5095 54.4024 59.1797 53.96C59.4403 53.7783 59.7426 53.612 59.9714 53.3937C60.4005 53.1606 60.7943 52.8258 61.2108 52.5638C61.6566 53.1904 62.3886 53.6105 62.7881 54.2776C63.8643 53.57 64.9512 52.853 66.0052 52.1137C67.0556 51.3769 67.7497 50.4039 67.9673 49.1258C68.0801 48.4633 68.0845 47.6569 67.8443 47.0209C67.5853 46.3351 67.1301 45.7634 66.7273 45.1593L65.2944 43.0262L60.4083 35.9322C60.171 35.4119 59.5116 34.488 59.1698 33.9803C58.6819 33.0316 57.9505 32.1441 57.3357 31.2683L54.2102 26.7598L48.6011 18.5666L46.4732 15.4383C46.094 14.8766 45.7369 14.2924 45.3341 13.7479C45.1084 13.4428 44.8201 13.1566 44.4975 12.9559Z" fill="#2D2D2D"/>
<path d="M67.3053 52.6556C67.3378 52.6531 67.3704 52.6513 67.4031 52.65C67.5551 52.6446 67.7097 52.6739 67.8154 52.7949C67.8998 52.8917 67.9371 52.9988 67.9201 53.1257C67.893 53.328 67.7776 53.4286 67.6242 53.5486C67.5823 53.5463 67.5404 53.5449 67.4988 53.5399C67.3395 53.5209 67.1433 53.4338 67.0564 53.2913C66.9987 53.1967 66.9742 53.0974 67 52.9885C67.0407 52.8164 67.1658 52.7438 67.3053 52.6556Z" fill="white"/>
<path d="M65.8311 53.708C65.911 53.7181 65.9965 53.7311 66.0723 53.7592C66.172 53.7961 66.2647 53.8836 66.3084 53.9803C66.3595 54.0934 66.3547 54.2196 66.3052 54.3328C66.2276 54.5102 66.0976 54.5852 65.9262 54.6579C65.8701 54.6484 65.8133 54.635 65.7586 54.6192C65.6279 54.5812 65.5209 54.4944 65.4585 54.3724C65.409 54.2756 65.4026 54.1499 65.4401 54.0477C65.5131 53.8495 65.6508 53.7854 65.8311 53.708Z" fill="white"/>
<path d="M63.9146 54.9623C63.9697 54.9589 64.0249 54.9557 64.0801 54.9561C64.2356 54.9571 64.386 55.0142 64.4914 55.1314C64.5776 55.2273 64.607 55.3355 64.5897 55.4641C64.567 55.6318 64.4329 55.7434 64.3076 55.8392C64.2287 55.8548 64.1429 55.8684 64.0623 55.8626C63.938 55.8537 63.8049 55.7852 63.7267 55.6883C63.6472 55.5897 63.6194 55.4683 63.6378 55.3435C63.6653 55.158 63.7731 55.0719 63.9146 54.9623Z" fill="white"/>
<path d="M56.7599 11.2245C57.6323 11.1769 58.4497 11.3479 59.2145 11.7766C60.2717 12.3693 60.9912 13.2849 61.3158 14.4526C61.395 14.7377 61.5561 15.1416 61.4041 15.4099C61.3451 15.3848 61.2783 15.3752 61.2457 15.3164C61.1495 15.1428 61.1415 14.8533 61.0961 14.6558C61.0243 14.3439 60.9224 14.0499 60.7757 13.765C60.1753 12.599 59.1788 11.9955 57.9722 11.5937C57.6616 11.4903 56.9231 11.5847 56.7158 11.4206C56.6941 11.3219 56.7114 11.3154 56.7599 11.2245Z" fill="white"/>
<path d="M61.2106 52.5645C61.6564 53.191 62.3883 53.6111 62.7879 54.2783C62.4726 54.4937 62.1391 54.7672 61.8068 54.9493L48.5211 64.0865C47.0847 65.0746 45.6717 66.1009 44.2201 67.0655C43.7086 67.4055 43.2379 67.7897 42.679 68.0526C41.8536 68.4409 40.9478 68.5777 40.0472 68.4183C38.015 68.0586 37.2372 66.8155 36.1537 65.2501C36.0408 65.0871 35.8999 64.9126 35.8081 64.7379C35.8825 64.5898 35.9241 64.4134 35.9851 64.2577C36.1886 63.738 36.4076 63.2673 36.7983 62.8616C37.3775 63.8548 38.2662 64.5602 39.3675 64.8934C40.4497 65.2207 41.6848 65.1497 42.6844 64.602C43.5185 64.1452 44.3083 63.5061 45.095 62.9669L47.1969 61.5259C47.801 61.1113 48.4728 60.7059 48.9784 60.1716C49.036 60.1106 49.0918 60.0479 49.1457 59.9835C49.1995 59.9192 49.2514 59.8533 49.3014 59.7859C49.3514 59.7185 49.3993 59.6496 49.4451 59.5793C49.491 59.509 49.5347 59.4375 49.5763 59.3646C49.6179 59.2917 49.6572 59.2176 49.6944 59.1424C49.7316 59.0672 49.7665 58.9909 49.7992 58.9136C49.8318 58.8362 49.8621 58.758 49.8901 58.6789C49.918 58.5998 49.9436 58.5199 49.9669 58.4393C50.3551 57.0745 50.0273 55.7553 49.3603 54.5447C49.5904 54.3991 49.7915 54.1821 50.0036 54.0089C50.2326 53.8217 50.492 53.6919 50.7537 53.5565C51.4662 54.705 52.5223 55.5395 53.8506 55.8552C55.0186 56.1329 56.1722 55.9654 57.1951 55.3323C57.8778 54.9098 58.5093 54.403 59.1794 53.9606C59.4401 53.779 59.7424 53.6127 59.9712 53.3943C60.4003 53.1613 60.794 52.8264 61.2106 52.5645Z" fill="#F2C94C"/>
<path d="M61.2109 52.5645C61.6566 53.191 62.3886 53.6111 62.7881 54.2783C62.4728 54.4937 62.1394 54.7672 61.807 54.9493C60.9587 54.7652 59.8316 54.5669 59.1797 53.9606C59.4403 53.779 59.7427 53.6127 59.9714 53.3943C60.4005 53.1613 60.7943 52.8264 61.2109 52.5645Z" fill="#FEE8BF"/>
<path d="M44.5924 52.6711C45.1366 52.4704 45.6499 52.3976 46.2285 52.3799C47.4673 52.5767 48.2976 53.0696 49.0458 54.0869C49.1554 54.236 49.258 54.3906 49.3603 54.5447C50.0273 55.7553 50.3552 57.0745 49.9669 58.4393C49.9436 58.52 49.918 58.5998 49.8901 58.6789C49.8621 58.7581 49.8318 58.8363 49.7992 58.9136C49.7666 58.9909 49.7316 59.0672 49.6944 59.1425C49.6573 59.2177 49.6179 59.2917 49.5763 59.3646C49.5347 59.4375 49.491 59.5091 49.4451 59.5793C49.3993 59.6496 49.3514 59.7185 49.3014 59.7859C49.2515 59.8533 49.1995 59.9192 49.1457 59.9836C49.0918 60.0479 49.036 60.1106 48.9784 60.1716C48.4728 60.706 47.801 61.1113 47.1969 61.526L45.095 62.9669C44.3084 63.5061 43.5185 64.1452 42.6844 64.6021C41.6848 65.1497 40.4497 65.2207 39.3675 64.8934C38.2662 64.5603 37.3775 63.8548 36.7983 62.8617C36.5101 62.3026 36.3459 61.8014 36.2316 61.1825C36.169 60.6446 36.2284 60.1372 36.3141 59.6075C36.3875 59.3085 36.4934 59.0258 36.6255 58.7479C36.8434 58.2903 37.1476 57.8367 37.5226 57.4926C37.9337 57.1154 38.4176 56.8046 38.873 56.4833C39.5769 55.9862 40.2836 55.493 40.993 55.0037C41.9416 54.3504 42.8752 53.6268 43.857 53.0288C44.0949 52.8839 44.3305 52.7658 44.5924 52.6711Z" fill="#2D2D2D"/>
<path d="M46.0677 52.583C46.287 52.6122 46.5156 52.6269 46.7316 52.6744C47.5539 52.8554 48.292 53.4358 48.7958 54.0909C48.9366 54.2772 49.064 54.4723 49.1779 54.6762C49.1016 54.7786 49.1115 54.7775 48.9862 54.7968C48.8188 54.7378 48.6589 54.6106 48.4824 54.6029C48.4326 54.6424 48.3833 54.6818 48.3351 54.7232C47.7608 54.1033 47.1046 53.7846 46.2785 53.6365C45.8741 53.6354 45.4444 53.6401 45.0724 53.8214C44.6877 54.009 44.3267 54.2919 43.9737 54.5347C43.3057 54.9949 42.6401 55.4586 41.9769 55.9258C41.284 56.4051 40.5885 56.8808 39.8907 57.353C39.2908 57.7558 38.5571 58.1792 38.054 58.7C37.7045 59.0617 37.4944 59.5364 37.3703 60.0171L37.3563 60.0701L37.3483 60.102C37.28 60.4825 37.2562 60.8678 37.2982 61.2529C37.334 61.529 37.4014 61.7898 37.5033 62.0491C37.2251 62.2116 37.0964 62.4038 36.9322 62.6701C36.6608 62.1728 36.5181 61.6916 36.4252 61.1327C36.3753 60.5473 36.4228 60.0615 36.5524 59.4876C36.6112 59.3173 36.6708 59.1471 36.7419 58.9814C36.9481 58.5006 37.2387 58.0408 37.6172 57.6767C38.2887 57.0308 39.6513 56.1889 40.4499 55.6298L42.4147 54.2614C43.1343 53.7531 43.8472 53.1644 44.6683 52.8326C45.131 52.6628 45.5786 52.6145 46.0677 52.583Z" fill="white"/>
<path d="M48.3349 54.7229C48.3832 54.6815 48.4325 54.6421 48.4823 54.6025C48.6588 54.6103 48.8187 54.7375 48.9861 54.7965C49.1114 54.7771 49.1015 54.7783 49.1778 54.6759C49.8184 55.6702 50.0507 57.0004 49.7996 58.155C49.7292 58.4793 49.6138 58.7664 49.4797 59.0682C49.2887 59.4241 49.071 59.8157 48.7459 60.0678C48.291 60.5449 47.6917 60.9084 47.1506 61.2823L45.0047 62.7539C44.1919 63.3101 43.2784 64.0518 42.4046 64.475C42.2805 64.5352 42.1535 64.5885 42.0236 64.6349C41.8938 64.6813 41.7618 64.7206 41.6277 64.7527C41.4936 64.7849 41.3581 64.8097 41.2213 64.8272C41.0844 64.8447 40.9471 64.8548 40.8092 64.8575C39.6674 64.8852 38.556 64.485 37.7292 63.6919C37.4121 63.3877 37.1515 63.0497 36.9321 62.6698C37.0963 62.4035 37.225 62.2113 37.5031 62.0488C37.8985 62.8682 38.4501 63.4605 39.3227 63.7678C39.6316 63.8766 39.9677 63.9498 40.2957 63.9521C40.3088 63.9546 40.3218 63.958 40.3351 63.9593C40.7667 64.0023 41.2709 63.8578 41.6541 63.6637C42.4604 63.2553 43.3242 62.5391 44.0743 62.0051L47.7852 59.401C48.5464 58.8625 48.9528 58.3415 49.1034 57.3987C49.2663 56.3793 48.9293 55.5332 48.3349 54.7229Z" fill="#F2C94C"/>
<path d="M37.3483 60.1023L37.3563 60.0704L37.3703 60.0175C37.4944 59.5367 37.7045 59.062 38.054 58.7003C38.5571 58.1795 39.2908 57.7561 39.8907 57.3533C40.5885 56.8811 41.284 56.4054 41.9769 55.9261C42.6401 55.4589 43.3057 54.9952 43.9737 54.535C44.3267 54.2922 44.6877 54.0093 45.0724 53.8218C45.4444 53.6404 45.8741 53.6357 46.2785 53.6368C47.1046 53.785 47.7608 54.1036 48.3351 54.7235C48.9294 55.5339 49.2664 56.3799 49.1035 57.3993C48.9529 58.3421 48.5465 58.8632 47.7853 59.4016L44.0744 62.0057C43.3244 62.5397 42.4605 63.256 41.6542 63.6643C41.271 63.8585 40.7668 64.0029 40.3352 63.96C40.3219 63.9586 40.309 63.9552 40.2958 63.9528C39.9678 63.9504 39.6317 63.8772 39.3228 63.7684C38.4502 63.4611 37.8986 62.8689 37.5033 62.0494C37.4014 61.7901 37.334 61.5293 37.2982 61.2532C37.2562 60.8682 37.28 60.4828 37.3483 60.1023Z" fill="#2D2D2D"/>
<path d="M37.5412 60.151C37.6267 59.8169 37.758 59.491 37.9445 59.2002C38.0494 59.0366 38.1635 58.8859 38.3101 58.7569C38.6361 58.4702 40.8938 56.8287 41.221 56.7578C40.9411 57.2826 38.8764 58.3874 38.3086 58.9941C38.1024 59.2146 37.9474 59.4803 37.8325 59.7585C37.6081 60.3017 37.687 60.8455 37.5423 61.3865L37.4755 61.2083C37.4482 60.8448 37.4776 60.5091 37.5412 60.151Z" fill="white"/>
<path d="M46.2631 53.8463C47.0826 53.9542 47.7971 54.4299 48.2962 55.0778C48.7896 55.7184 49.032 56.4645 48.9179 57.2734C48.8089 58.0452 48.4534 58.6625 47.8252 59.125C47.2932 59.5166 46.7255 59.8624 46.1842 60.2413C45.794 60.5143 45.4234 60.8319 45.0156 61.0781C44.9493 61.1181 44.9082 61.1435 44.8289 61.1404L44.7867 61.0177C44.7146 60.4751 44.5625 59.9643 44.3879 59.4479C44.266 59.1487 44.1306 58.8627 43.9815 58.5762C43.8411 58.3481 43.6937 58.1204 43.5316 57.9071C42.9882 57.1923 42.3466 56.6895 41.4404 56.57C42.1653 56.0233 44.6913 54.1518 45.3717 53.9154C45.6595 53.8155 45.9642 53.8307 46.2631 53.8463Z" fill="#4FDB40"/>
<path d="M47.7427 55.3154C47.8795 55.3875 47.9537 55.422 48.0046 55.5793C48.1286 55.9621 48.0352 56.6243 47.8538 56.9847C47.8065 57.0786 47.7658 57.1181 47.6728 57.1627C47.5842 57.1325 47.5742 57.122 47.5137 57.0498C47.773 56.6452 47.6096 55.794 47.7427 55.3154Z" fill="white"/>
<path d="M41.241 56.75C42.0987 56.8286 42.7445 57.2522 43.2845 57.9087C43.9645 58.7355 44.348 59.7654 44.5408 60.8088C44.5615 60.9891 44.5771 61.1714 44.6035 61.3508C44.0353 61.7652 43.462 62.1724 42.8835 62.5723C42.4199 62.897 41.9493 63.2727 41.4285 63.5016C41.1157 63.6391 40.8055 63.7072 40.4682 63.7546C39.7361 63.6662 39.0824 63.5071 38.4981 63.0287C38.0214 62.6384 37.5993 62.0115 37.542 61.3866C37.6867 60.8456 37.6078 60.3018 37.8322 59.7586C37.9471 59.4804 38.1021 59.2147 38.3083 58.9942C38.8761 58.3875 40.9407 57.2827 41.2207 56.7579L41.241 56.75Z" fill="#F2C94C"/>
<path d="M40.251 57.8418C40.297 57.8653 40.3398 57.8912 40.3827 57.9199C40.5209 58.0124 40.6631 58.1033 40.6962 58.2734C40.5241 58.5673 38.8631 60.1096 38.5448 60.3012C38.4034 60.3118 38.2431 60.2317 38.1266 60.1561C38.0752 60.0474 38.0563 59.9943 38.0961 59.8722C38.2909 59.2748 39.6929 58.1441 40.251 57.8418Z" fill="#FEF69C"/>
</g>
<defs>
<linearGradient id="paint0_linear_1080_8188" x1="29.3122" y1="38.6646" x2="34.9791" y2="43.1814" gradientUnits="userSpaceOnUse">
<stop stop-color="#FAD171"/>
<stop offset="1" stop-color="#D4B085"/>
</linearGradient>
<clipPath id="clip0_1080_8188">
<rect width="80" height="80" fill="white"/>
</clipPath>
</defs>
</svg>
